<svg xmlns="http://www.w3.org/2000/svg" width="251.627" height="47.002" viewBox="0 0 251.627 47.002">
  <g id="Group_3778" data-name="Group 3778" transform="translate(-81.187 -519.5)">
    <g id="Group_3771" data-name="Group 3771" transform="translate(44.661 61.653)">
      <path id="placeholder_1_" data-name="placeholder (1)" d="M28.888,3.614h0a12.34,12.34,0,0,0-17.451,0h0C7.1,7.957,6.606,16.132,10.291,21.045L20.163,35.3l9.871-14.256C33.719,16.132,33.23,7.957,28.888,3.614ZM20.283,16.293a4.073,4.073,0,1,1,4.073-4.073A4.073,4.073,0,0,1,20.283,16.293Z" transform="translate(255.146 464.006)" fill="#e84646" stroke="#fff" stroke-width="1" opacity="0.301"/>
      <g id="Group_3057" data-name="Group 3057" transform="translate(91.412 468.903)">
        <path id="Path_3888" data-name="Path 3888" d="M11.675,1.315,12.68.31a.609.609,0,0,0,0-.862L4.8-8.43H22.141a.609.609,0,0,0,.609-.609v-1.422a.609.609,0,0,0-.609-.609H4.8l7.878-7.878a.609.609,0,0,0,0-.862l-1.005-1.005a.61.61,0,0,0-.862,0L.178-10.181a.61.61,0,0,0,0,.862L10.813,1.315A.609.609,0,0,0,11.675,1.315Z" transform="translate(-0.073 23.444)" fill="#00a651"/>
      </g>
      <g id="Group_3766" data-name="Group 3766" transform="translate(223.809 468.903)" opacity="0.221">
        <path id="Path_3889" data-name="Path 3889" d="M11.675-21.315,12.68-20.31a.609.609,0,0,1,0,.862L4.8-11.57H22.141a.609.609,0,0,1,.609.609v1.422a.609.609,0,0,1-.609.609H4.8L12.68-1.052a.609.609,0,0,1,0,.862L11.675.815a.61.61,0,0,1-.862,0L.178-9.819a.61.61,0,0,1,0-.862L10.813-21.315A.609.609,0,0,1,11.675-21.315Z" transform="translate(22.53 2.444) rotate(180)" fill="#00a651"/>
      </g>
      <g id="home-run" transform="translate(36.527 462.722)">
        <g id="Group_3768" data-name="Group 3768" transform="translate(0 0)">
          <g id="Group_3767" data-name="Group 3767" transform="translate(0 0)">
            <path id="Path_3882" data-name="Path 3882" d="M37.481,28.774l-17.1-15.585a1.946,1.946,0,0,0-2.633,0L.64,28.774a1.955,1.955,0,0,0,1.317,3.4H4.689V47.788A1.121,1.121,0,0,0,5.81,48.909h9.375a1.121,1.121,0,0,0,1.121-1.121V38.307h5.51v9.481a1.121,1.121,0,0,0,1.121,1.121h9.375a1.121,1.121,0,0,0,1.121-1.121V32.173h2.732a1.955,1.955,0,0,0,1.316-3.4Z" transform="translate(0 -12.675)" fill="#00a651"/>
          </g>
        </g>
        <g id="Group_3770" data-name="Group 3770" transform="translate(25.611 2.238)">
          <g id="Group_3769" data-name="Group 3769" transform="translate(0 0)">
            <path id="Path_3883" data-name="Path 3883" d="M351.5,42.73h-7.529l8.65,7.865V43.851A1.121,1.121,0,0,0,351.5,42.73Z" transform="translate(-343.973 -42.73)" fill="#fdaf00"/>
          </g>
        </g>
      </g>
    </g>
    <g id="Group_3776" data-name="Group 3776" transform="translate(-6)">
      <g id="Group_3343" data-name="Group 3343" transform="translate(173.223 519.653)">
        <g id="Group_2067" data-name="Group 2067" transform="translate(0 0)">
          <path id="Path_1114" data-name="Path 1114" d="M177,257.385h17.385v-.671h23.706v-4.025H224.6l10.873,2.885v.134h15.8v-3.019h3.477V249H177Zm51.174-4.7h7.3v1.945Z" transform="translate(-174.656 -216.328)" fill-rule="evenodd"/>
          <path id="Path_1115" data-name="Path 1115" d="M370.858,257a5.8,5.8,0,1,0,5.458,5.791A5.633,5.633,0,0,0,370.858,257Z" transform="translate(-302.716 -221.734)" fill="#4d4d4d"/>
          <path id="Path_1116" data-name="Path 1116" d="M377.11,266.5a2.456,2.456,0,1,0,2.31,2.452,2.389,2.389,0,0,0-2.31-2.452Z" transform="translate(-308.968 -227.858)" fill="#fff"/>
          <path id="Path_1117" data-name="Path 1117" d="M187.289,203.609l-7.835,2.736c-3.147,1.03-4.453,13.04-4.453,18.014h1.473s3.315-7.852,7.4-7.852a7.712,7.712,0,0,1,7.433,7.852h11.82V197H192.211c-2.243,0-2.846,2.345-4.922,6.609Z" transform="translate(-173.326 -183.052)" fill="#ffac10" fill-rule="evenodd"/>
          <path id="Path_1119" data-name="Path 1119" d="M190.658,257a5.8,5.8,0,1,0,5.458,5.791A5.633,5.633,0,0,0,190.658,257Z" transform="translate(-180.11 -221.734)" fill="#4d4d4d"/>
          <path id="Path_1120" data-name="Path 1120" d="M196.91,266.5a2.456,2.456,0,1,0,2.31,2.452,2.389,2.389,0,0,0-2.31-2.452Z" transform="translate(-186.363 -227.858)" fill="#fff"/>
          <path id="Path_1121" data-name="Path 1121" d="M170,259h5.223a8.1,8.1,0,0,0-1.909,5.187v.5h-1.172c-1.808,0-2.143-2.132-2.143-5.685Zm15.871,0h14.264v5.685H187.78v-.5A7.747,7.747,0,0,0,185.871,259Z" transform="translate(-170 -223.023)" fill="#ff8710" fill-rule="evenodd"/>
          <path id="Path_1122" data-name="Path 1122" d="M219.32,202h7.333v6.751H214.9c1.708-3.908,2.511-6.751,4.42-6.751Z" transform="translate(-199.866 -186.275)" fill-rule="evenodd"/>
          <ellipse id="Ellipse_137" data-name="Ellipse 137" cx="2.5" cy="1" rx="2.5" ry="1" transform="translate(2.777 30.347)" fill="#ffac10"/>
          <path id="Rectangle_503" data-name="Rectangle 503" d="M0,0H3A0,0,0,0,1,3,0V4A1,1,0,0,1,2,5H0A0,0,0,0,1,0,5V0A0,0,0,0,1,0,0Z" transform="translate(26.777 25.347)" fill="#4d4d4d"/>
          <g id="Group_2399" data-name="Group 2399" transform="translate(31.385 0)">
            <rect id="Rectangle_442" data-name="Rectangle 442" width="49" height="33" transform="translate(0.392 0.347)" fill="#d1d1d1" stroke="#bcbcbc" stroke-width="1"/>
            <g id="Group_2393" data-name="Group 2393" transform="translate(12.891 7.88)">
              <line id="Line_73" data-name="Line 73" y2="14.597" transform="translate(19.565)" fill="none" stroke="#fff" stroke-linecap="round" stroke-width="1"/>
              <line id="Line_74" data-name="Line 74" y2="14.597" transform="translate(9.782)" fill="none" stroke="#fff" stroke-linecap="round" stroke-width="1"/>
              <line id="Line_75" data-name="Line 75" y2="14.597" transform="translate(0)" fill="none" stroke="#fff" stroke-linecap="round" stroke-width="1"/>
            </g>
          </g>
        </g>
      </g>
      <g id="Group_3775" data-name="Group 3775">
        <path id="Path_3884" data-name="Path 3884" d="M3765.985,4500.116h26.679" transform="translate(-3527 -3972)" fill="none" stroke="#a2a2a2" stroke-linecap="round" stroke-width="2"/>
        <path id="Path_3885" data-name="Path 3885" d="M3765.985,4500.116h26.679" transform="translate(-3519 -3963)" fill="none" stroke="#a2a2a2" stroke-linecap="round" stroke-width="2"/>
        <path id="Path_3886" data-name="Path 3886" d="M3765.985,4500.116h26.679" transform="translate(-3527 -3955)" fill="none" stroke="#a2a2a2" stroke-linecap="round" stroke-width="2"/>
      </g>
    </g>
  </g>
</svg>
