<svg xmlns="http://www.w3.org/2000/svg" width="20.734" height="19.076" viewBox="0 0 20.734 19.076">
  <g id="comment" transform="translate(0 1.332)">
    <path id="Path_460" data-name="Path 460" d="M17.884-1.332H2.851A2.854,2.854,0,0,0,0,1.519v9.2a2.854,2.854,0,0,0,2.84,2.851v4.175l6-4.175h9.043a2.854,2.854,0,0,0,2.851-2.851v-9.2A2.854,2.854,0,0,0,17.884-1.332Zm1.636,12.05a1.638,1.638,0,0,1-1.636,1.636H8.459l-4.4,3.064V12.354h-1.2a1.638,1.638,0,0,1-1.636-1.636v-9.2A1.637,1.637,0,0,1,2.851-.117H17.884a1.637,1.637,0,0,1,1.636,1.636Zm0,0" fill="#00a651"/>
    <path id="Path_461" data-name="Path 461" d="M171.293,131.172h9.635v1.215h-9.635Zm0,0" transform="translate(-165.744 -128.211)" fill="#00a651"/>
    <path id="Path_462" data-name="Path 462" d="M171.293,211.172h9.635v1.215h-9.635Zm0,0" transform="translate(-165.744 -205.619)" fill="#00a651"/>
    <path id="Path_463" data-name="Path 463" d="M171.293,291.172h9.635v1.215h-9.635Zm0,0" transform="translate(-165.744 -283.028)" fill="#00a651"/>
  </g>
</svg>
