<svg xmlns="http://www.w3.org/2000/svg" viewBox="0 0 31.05 28.33"><title>alarm</title><g id="Layer_2" data-name="Layer 2"><g id="Layer_1-2" data-name="Layer 1"><g id="Group_3755" data-name="Group 3755"><path id="Path_3893" data-name="Path 3893" d="M9.83,8H21.67a1.64,1.64,0,0,1,1.6,1.46l3,14.62a1.53,1.53,0,0,1-1.6,1.46H7.17A1.54,1.54,0,0,1,5.57,24h0L8.24,9.42A1.68,1.68,0,0,1,9.83,8Z" fill="#fcaf17"/><path id="Rectangle_1687" data-name="Rectangle 1687" d="M5.05,24.33h22a2,2,0,0,1,2,2h0a2,2,0,0,1-2,2h-22a2,2,0,0,1-2-2h0A2,2,0,0,1,5.05,24.33Z" fill="#fccd66"/><g id="Group_3755-2" data-name="Group 3755-2"><path id="Path_3894" data-name="Path 3894" d="M5.57,11.94H.75" fill="none" stroke="#00a64f" stroke-linecap="round" stroke-width="1.5"/><path id="Path_3895" data-name="Path 3895" d="M30.3,11.94H25.48" fill="none" stroke="#00a64f" stroke-linecap="round" stroke-width="1.5"/><path id="Path_3896" data-name="Path 3896" d="M27.4,3.27l-3.81,3" fill="none" stroke="#00a64f" stroke-linecap="round" stroke-width="1.5"/><path id="Path_3897" data-name="Path 3897" d="M8.25,6.24l-3.8-3" fill="none" stroke="#00a64f" stroke-linecap="round" stroke-width="1.5"/><path id="Path_3898" data-name="Path 3898" d="M15.92,5.57V.75" fill="none" stroke="#00a64f" stroke-linecap="round" stroke-width="1.5"/></g></g></g></g></svg>