<svg xmlns="http://www.w3.org/2000/svg" viewBox="0 0 31.2 31.2"><title>setting</title><g id="Layer_2" data-name="Layer 2"><g id="Layer_1-2" data-name="Layer 1"><g id="Group_3762" data-name="Group 3762"><g id="Setting"><path id="Path_3902" data-name="Path 3902" d="M30.12,12.37H27.19a1.06,1.06,0,0,1-1-.68q-.15-.42-.33-.81a1.07,1.07,0,0,1,.21-1.2l2.07-2.07a1.07,1.07,0,0,0,0-1.51h0l-3-3A1.06,1.06,0,0,0,23.6,3h0L21.52,5.11a1.06,1.06,0,0,1-1.2.22c-.27-.12-.53-.23-.8-.33a1.07,1.07,0,0,1-.69-1V1.08A1.08,1.08,0,0,0,17.75,0h-4.3a1.07,1.07,0,0,0-1.07,1.08h0V4a1.06,1.06,0,0,1-.69,1c-.28.1-.55.22-.81.34a1.07,1.07,0,0,1-1.2-.23L7.61,3.05A1.06,1.06,0,0,0,6.1,3h0l-3,3A1.06,1.06,0,0,0,3,7.6h0L5.11,9.68a1.06,1.06,0,0,1,.22,1.2c-.12.26-.23.53-.33.8a1.07,1.07,0,0,1-1,.69H1.08A1.08,1.08,0,0,0,0,13.45v4.3a1.07,1.07,0,0,0,1.08,1.07H4a1.07,1.07,0,0,1,1,.7c.1.27.21.53.33.8a1,1,0,0,1-.22,1.19L3.05,23.59A1.06,1.06,0,0,0,3,25.1h0l3,3a1.07,1.07,0,0,0,1.51,0h0l2.07-2.07a1.09,1.09,0,0,1,1.2-.22,8,8,0,0,0,.8.34,1.05,1.05,0,0,1,.69,1v2.92a1.08,1.08,0,0,0,1.08,1.08h4.3a1.07,1.07,0,0,0,1.07-1.08h0V27.2a1.08,1.08,0,0,1,.69-1q.42-.15.81-.33a1.05,1.05,0,0,1,1.19.21l2.07,2.07a1.08,1.08,0,0,0,1.52,0h0l3-3a1.07,1.07,0,0,0,0-1.51h0l-2.07-2.07a1.07,1.07,0,0,1-.22-1.2c.12-.27.24-.53.34-.8a1.05,1.05,0,0,1,1-.69h2.92a1.08,1.08,0,0,0,1.08-1.08h0v-4.3a1.08,1.08,0,0,0-1.07-1.08ZM15.6,22.59a7,7,0,1,1,7-7h0A7,7,0,0,1,15.6,22.59Z" fill="#fcaf17"/></g><g id="Path_3903" data-name="Path 3903"><path d="M15.6,9.71A5.89,5.89,0,1,1,9.71,15.6h0A5.88,5.88,0,0,1,15.6,9.71Z" fill="none"/><path d="M15.6,12.71a2.89,2.89,0,1,0,2.89,2.89,2.89,2.89,0,0,0-2.89-2.89m0-3A5.89,5.89,0,1,1,9.71,15.6,5.89,5.89,0,0,1,15.6,9.71Z" fill="#00a64f"/></g></g></g></g></svg>