<svg xmlns="http://www.w3.org/2000/svg" viewBox="0 0 25 31"><title>list</title><g id="Layer_2" data-name="Layer 2"><g id="Layer_1-2" data-name="Layer 1"><g id="Group_3822" data-name="Group 3822"><g id="Group_3801" data-name="Group 3801"><g id="Rectangle_1683" data-name="Rectangle 1683"><rect y="1" width="25" height="30" rx="2" fill="none"/><rect x="0.5" y="1.5" width="24" height="29" rx="1.5" fill="none" stroke="#00a64f"/></g><g id="Group_3800" data-name="Group 3800"><path id="Path_3694" data-name="Path 3694" d="M19.56,8.8H12.2a1.08,1.08,0,1,0,0,2.15h7.36a1.08,1.08,0,1,0,0-2.15Z" fill="#fbab19"/><path id="Path_3695" data-name="Path 3695" d="M19.56,15.41H12.2a1.08,1.08,0,0,0,0,2.16h7.36a1.08,1.08,0,0,0,0-2.16Z" fill="#fbab19"/><path id="Path_3697" data-name="Path 3697" d="M6.58,14.87A1.62,1.62,0,1,0,8.2,16.49a1.63,1.63,0,0,0-1.62-1.62Z" fill="#fbab19"/><path id="Path_3701" data-name="Path 3701" d="M6.58,8.39A1.62,1.62,0,1,0,8.2,10,1.62,1.62,0,0,0,6.58,8.39Z" fill="#fbab19"/><path id="Path_3698" data-name="Path 3698" d="M19.56,21.88H12.2a1.08,1.08,0,0,0,0,2.16h7.36a1.08,1.08,0,1,0,0-2.16Z" fill="#fbab19"/><path id="Path_3699" data-name="Path 3699" d="M6.58,21.34A1.62,1.62,0,1,0,8.2,23a1.63,1.63,0,0,0-1.62-1.62Z" fill="#fbab19"/></g></g><g id="Rectangle_1684" data-name="Rectangle 1684"><rect x="9" width="8" height="4" rx="1" fill="#fff"/><rect x="9.5" y="0.5" width="7" height="3" rx="0.5" fill="none" stroke="#fbab19"/></g></g></g></g></svg>