<svg xmlns="http://www.w3.org/2000/svg" viewBox="0 0 30.81 27.28"><title>map</title><g id="Layer_2" data-name="Layer 2"><g id="Layer_1-2" data-name="Layer 1"><g id="location-on-map"><path id="Path_2967" data-name="Path 2967" d="M14.72,17.51a1,1,0,0,0,1.37,0c.25-.22,6.05-5.4,6.05-10.77a6.74,6.74,0,0,0-13.48,0h0C8.67,12.11,14.48,17.29,14.72,17.51ZM15.41,5a1.76,1.76,0,1,1-1.75,1.77h0A1.75,1.75,0,0,1,15.41,5Z" fill="#00a64f"/><path id="Path_2968" data-name="Path 2968" d="M28.36,17.5l-.78-2.73a1,1,0,0,0-1-.75H21q-.3.45-.63.9A25.79,25.79,0,0,1,17,18.59a2.47,2.47,0,0,1-3.28,0,25.79,25.79,0,0,1-3.33-3.67L9.79,14H4.23a1,1,0,0,0-1,.75L2.3,18l20.8,3.81Z" fill="#fcaf17"/><path id="Path_2969" data-name="Path 2969" d="M30.77,26l-2-7-9.9,8.31h10.9a1,1,0,0,0,1-1,1.35,1.35,0,0,0,0-.28Z" fill="#fcaf17"/><path id="Path_2970" data-name="Path 2970" d="M5.06,20,1.9,19.43,0,26a1,1,0,0,0,.71,1.28,1.35,1.35,0,0,0,.28,0h4Z" fill="#fcaf17"/><path id="Path_2971" data-name="Path 2971" d="M6.51,20.27v7H16.63l5-4.23Z" fill="#fcaf17"/></g></g></g></svg>