<svg xmlns="http://www.w3.org/2000/svg" viewBox="0 0 61.96 64.38"><title>batal</title><g id="Layer_2" data-name="Layer 2"><g id="Layer_1-2" data-name="Layer 1"><g id="Group_3791" data-name="Group 3791"><g id="Group_3777" data-name="Group 3777"><g id="Group_3773" data-name="Group 3773"><g id="Group_3766" data-name="Group 3766"><g id="Group_3764" data-name="Group 3764"><ellipse id="Ellipse_328" data-name="Ellipse 328" cx="30.98" cy="52" rx="5" ry="31" transform="translate(-22.07 81.14) rotate(-88)" fill="#e0e0e0"/><g id="Group_3739" data-name="Group 3739"><g id="Group_3715" data-name="Group 3715"><g id="box"><path id="Path_3839" data-name="Path 3839" d="M54.82,50.81,19.72,51a1.87,1.87,0,0,1,0-3.74l35.1-.24a1.88,1.88,0,0,1,0,3.75Z" fill="#a2a1a1"/><path id="Path_3841" data-name="Path 3841" d="M20.25,51s-2.44.14-2.44-.89l-.52-46.4H10A1.87,1.87,0,0,1,10,0h9.2A1.87,1.87,0,0,1,21,1.87h0l.64,48C21.67,50.93,20.25,51,20.25,51Z" fill="#a2a1a1"/></g><g id="Group_3713" data-name="Group 3713"><g id="Group_3709" data-name="Group 3709"><rect id="Rectangle_1682" data-name="Rectangle 1682" x="20.56" y="26.85" width="32.71" height="20.09" rx="1" fill="#fecb87"/><path id="Path_3844" data-name="Path 3844" d="M32.26,26.78l-.1,4.79L33.6,30.5l1,1.2.93-.92,1.55,1,1.05-1,1.32.91.11-4.84Z" fill="#fff"/><path id="Path_3845" data-name="Path 3845" d="M38.77,47l.1-4.79-1.45,1.08-1-1.2L35.5,43l-1.56-1-1,1L31.57,42l-.1,4.85Z" fill="#fff"/></g><g id="Group_3712" data-name="Group 3712"><g id="Group_3711" data-name="Group 3711"><path id="Path_3846" data-name="Path 3846" d="M44.83,41.66H44a.12.12,0,0,0-.12.13v3.55a.12.12,0,0,0,.12.13h.84a.13.13,0,0,0,.13-.12V41.79A.13.13,0,0,0,44.83,41.66Z"/><path id="Path_3847" data-name="Path 3847" d="M48.48,41.66h-.84a.13.13,0,0,0-.12.13v3.56a.12.12,0,0,0,.12.12h.84a.13.13,0,0,0,.13-.12V41.79A.13.13,0,0,0,48.48,41.66Z"/><path id="Path_3848" data-name="Path 3848" d="M45.66,41.66h-.3a.12.12,0,0,0-.12.13v3.56a.12.12,0,0,0,.12.12h.3a.12.12,0,0,0,.12-.12V41.79A.12.12,0,0,0,45.66,41.66Z"/><path id="Path_3849" data-name="Path 3849" d="M47.11,41.66h-.3a.13.13,0,0,0-.12.13v3.56a.12.12,0,0,0,.12.12h.3a.12.12,0,0,0,.12-.12V41.79A.12.12,0,0,0,47.11,41.66Z"/><path id="Path_3850" data-name="Path 3850" d="M49.88,41.66h-.29a.13.13,0,0,0-.13.13v3.56a.13.13,0,0,0,.13.12h.29a.13.13,0,0,0,.13-.12V41.79A.13.13,0,0,0,49.88,41.66Z"/><path id="Path_3851" data-name="Path 3851" d="M46.27,41.66h0a.12.12,0,0,0-.12.13v3.56a.12.12,0,0,0,.12.12h0a.13.13,0,0,0,.13-.12h0V41.79a.13.13,0,0,0-.13-.13Z"/><path id="Path_3852" data-name="Path 3852" d="M49.1,41.66h0a.13.13,0,0,0-.13.13v3.56a.13.13,0,0,0,.13.12h0a.12.12,0,0,0,.12-.12h0V41.79a.12.12,0,0,0-.12-.13Z"/></g></g></g></g></g></g><g id="Group_3765" data-name="Group 3765"><ellipse id="Ellipse_329" data-name="Ellipse 329" cx="20.28" cy="60.35" rx="10.5" ry="4" transform="translate(-3.13 1.14) rotate(-3)" fill="#d6d6d6"/><g id="tyre"><path id="Path_3909" data-name="Path 3909" d="M24.76,61.92a.3.3,0,0,1,.16-.08h0a3.33,3.33,0,0,0,1.8-1.37c.24-.45.15-.71.25-1.51a8,8,0,0,0-.47-3c-.14,1.73-3.68,3.29-7.77,3.29a15.13,15.13,0,0,1-6-.93s-2-1.59-2-2.36a11.93,11.93,0,0,0-.59,2.1,3.62,3.62,0,0,0,0,.47.59.59,0,0,1,0,.14,4.06,4.06,0,0,0,.93,2.25,6.23,6.23,0,0,0,3.18,1.45,19.71,19.71,0,0,0,4.53.49,18.64,18.64,0,0,0,4.7-.54A11.66,11.66,0,0,0,24.76,61.92Z" fill="#e84546"/></g></g><ellipse id="Ellipse_331" data-name="Ellipse 331" cx="18.66" cy="56.35" rx="8" ry="3" fill="#c93c3b"/></g></g></g><path id="Intersection_28" data-name="Intersection 28" d="M19,57.84c-1.8,0-3.59-.22-4.34-1,0-.82,1.8-1.49,4-1.49s4,.67,4,1.5a.69.69,0,0,1-.15.41,7.33,7.33,0,0,1-3.27.58Z" fill="#717272"/><path id="Subtraction_43" data-name="Subtraction 43" d="M22.51,57.26h0a.68.68,0,0,0,.15-.4c0-.83-1.79-1.5-4-1.5s-4,.66-4,1.48a1.23,1.23,0,0,1-.35-.7.77.77,0,0,1,.2-.63c.68-.78,2.84-1,4-1h.72A6.22,6.22,0,0,1,23,55.69a.81.81,0,0,1,.24.6A1.26,1.26,0,0,1,22.51,57.26Z" fill="#fff"/></g></g></g></svg>