<svg id="Layer_1" data-name="Layer 1" xmlns="http://www.w3.org/2000/svg" viewBox="0 0 25.76 31.3"><title>bell</title><g id="Layer_1-2" data-name="Layer 1-2"><g id="Group_3763" data-name="Group 3763"><path id="Path_3904" data-name="Path 3904" d="M1.67,24.52A3.07,3.07,0,0,0,4.4,27.9h0c2.38.33,18.67.16,20.52,0s2.58-2.83,2.42-3.33c-.08-.25-5.85,1-12.29.92C8.9,25.36,2,24,1.67,24.52Z" transform="translate(-1.65 -0.95)" style="fill:#ffce61"/><g id="notification"><path id="Path_3882" data-name="Path 3882" d="M18.47,28.34a3.92,3.92,0,1,0-3.93,3.91h0a3.91,3.91,0,0,0,3.91-3.91Z" transform="translate(-1.65 -0.95)" style="fill:#00a64f"/><path id="Path_3884" data-name="Path 3884" d="M15,5.54A2.32,2.32,0,1,1,16.83,2.8h0A2.31,2.31,0,0,1,15,5.54Z" transform="translate(-1.65 -0.95)" style="fill:#00a64f"/><path id="Path_3886" data-name="Path 3886" d="M24.25,27.69H4.86a3.16,3.16,0,0,1-3.15-3.15h0a3.12,3.12,0,0,1,1.2-2.44l.62-.5a6.08,6.08,0,0,0,2.28-4.78v-3.3a8.82,8.82,0,1,1,17.63-.59,5.8,5.8,0,0,1,0,.59v3.36a6.15,6.15,0,0,0,2.2,4.69l.61.5a3.12,3.12,0,0,1,1.14,2.44h0a3.14,3.14,0,0,1-3.14,3.14Z" transform="translate(-1.65 -0.95)" style="fill:#fcaf17"/></g></g></g></svg>