<svg xmlns="http://www.w3.org/2000/svg" viewBox="0 0 52.66 51.75"><title>admin</title><g id="Layer_2" data-name="Layer 2"><g id="Layer_1-2" data-name="Layer 1"><g id="Group_5833" data-name="Group 5833"><g id="Group_5828" data-name="Group 5828"><g id="Group_5820" data-name="Group 5820"><path id="Path_11101" data-name="Path 11101" d="M48.91,21.81a8.15,8.15,0,0,0-4.42-1.3H42.3a1.54,1.54,0,0,0-1.54,1.54V38.44A1.54,1.54,0,0,0,42.3,40h2.19a8.19,8.19,0,0,0,8.17-8.17V28.68A8.16,8.16,0,0,0,48.91,21.81Z" fill="#00a64f"/></g></g><g id="Group_5829" data-name="Group 5829"><g id="Group_5826" data-name="Group 5826"><path id="Path_11104" data-name="Path 11104" d="M10.36,20.51H8.17A8.17,8.17,0,0,0,0,28.68H0v3.14A8.18,8.18,0,0,0,8.17,40h2.19a1.54,1.54,0,0,0,1.54-1.54V22.06A1.54,1.54,0,0,0,10.36,20.51Z" fill="#00a64f"/></g></g><g id="Group_5830" data-name="Group 5830"><g id="Group_5824" data-name="Group 5824"><path id="Path_11103" data-name="Path 11103" d="M26.33,0A21.62,21.62,0,0,0,5,18a10.87,10.87,0,0,1,3.25-.56,18.51,18.51,0,0,1,36.09,0,10.87,10.87,0,0,1,3.25.56A21.62,21.62,0,0,0,26.33,0Z" fill="#00a64f"/></g></g><path id="Subtraction_45" data-name="Subtraction 45" d="M33.88,51.54a1.54,1.54,0,0,1,.77-2.88h0a10.24,10.24,0,0,0,9.11-5.61h.38a11,11,0,0,0,3.13-.46,13.25,13.25,0,0,1-1.87,3.67,13.43,13.43,0,0,1-2.88,2.9,13.21,13.21,0,0,1-7.87,2.59A1.51,1.51,0,0,1,33.88,51.54Z" fill="#00a64f"/></g></g></g></svg>