<svg xmlns="http://www.w3.org/2000/svg" width="23.472" height="26.665" viewBox="0 0 23.472 26.665">
  <g id="Group_3325" data-name="Group 3325" transform="translate(-29.852)">
    <path id="Path_805" data-name="Path 805" d="M66.386,27.045A10.986,10.986,0,0,1,55.432,38a8.256,8.256,0,0,1-2.425-.313l-5.086,3.443.782-5.4a10.967,10.967,0,1,1,17.682-8.685Z" transform="translate(-13.845 -15.231)" fill="none"/>
    <path id="Path_808" data-name="Path 808" d="M33.686,26.523a.963.963,0,0,1-.391-.782l.782-5.007a11.718,11.718,0,1,1,7.511,2.738,10.62,10.62,0,0,1-2.269-.235l-4.773,3.208C34.233,26.68,33.92,26.758,33.686,26.523Zm7.9-24.88a10.2,10.2,0,0,0-6.259,18.23.849.849,0,0,1,.313.7l-.548,3.677,3.6-2.425a.591.591,0,0,1,.626-.078,11.171,11.171,0,0,0,2.269.235,10.171,10.171,0,0,0,0-20.342Z" fill="#00a651"/>
    <path id="Path_809" data-name="Path 809" d="M186.971,129.577a.739.739,0,0,1-.782-.782v-2.582a.739.739,0,0,1,.782-.782,1.956,1.956,0,1,0-1.956-1.956.782.782,0,0,1-1.565,0,3.521,3.521,0,1,1,7.042,0,3.594,3.594,0,0,1-2.738,3.443V128.8A.784.784,0,0,1,186.971,129.577Z" transform="translate(-145.383 -113.538)" fill="#ffac10"/>
    <path id="Path_810" data-name="Path 810" d="M234.885,314.382a.775.775,0,1,1,1.1,0A.7.7,0,0,1,234.885,314.382Z" transform="translate(-193.845 -296.309)" fill="#ffac10"/>
  </g>
</svg>
