<svg xmlns="http://www.w3.org/2000/svg" viewBox="0 0 30.06 26.42"><title>help</title><g id="Layer_2" data-name="Layer 2"><g id="Layer_1-2" data-name="Layer 1"><g id="headphones"><g id="Group_3757" data-name="Group 3757"><g id="Group_3756" data-name="Group 3756"><path id="Path_3899" data-name="Path 3899" d="M15,0A15,15,0,0,0,0,15v7a2.64,2.64,0,0,0,2.64,2.64h.88V15.85H2.64a2.64,2.64,0,0,0-.88.17V15A13.27,13.27,0,0,1,28.3,15v1a2.64,2.64,0,0,0-.88-.17h-.88v8.81h.88A2.64,2.64,0,0,0,30.06,22V15A15,15,0,0,0,15,0Z" fill="#fcaf17"/></g></g><g id="Group_3759" data-name="Group 3759"><g id="Group_3758" data-name="Group 3758"><path id="Path_3900" data-name="Path 3900" d="M7.93,14.09H7.05a1.76,1.76,0,0,0-1.77,1.76h0v8.81a1.76,1.76,0,0,0,1.77,1.76h.88a.88.88,0,0,0,.88-.88h0V15a.89.89,0,0,0-.88-.88Z" fill="#00a64f"/></g></g><g id="Group_3761" data-name="Group 3761"><g id="Group_3760" data-name="Group 3760"><path id="Path_3901" data-name="Path 3901" d="M23,14.09h-.88a.89.89,0,0,0-.89.88h0V25.54a.88.88,0,0,0,.89.88H23a1.76,1.76,0,0,0,1.76-1.76h0V15.85A1.76,1.76,0,0,0,23,14.09Z" fill="#00a64f"/></g></g></g></g></g></svg>