<svg xmlns="http://www.w3.org/2000/svg" viewBox="0 0 29.56 37.89"><title>history</title><g id="Layer_2" data-name="Layer 2"><g id="Layer_1-2" data-name="Layer 1"><g id="Group_3754" data-name="Group 3754"><g id="navigation-history-interface-symbol-of-a-clock-with-an-arrow"><path id="Path_3891" data-name="Path 3891" d="M0,14a14,14,0,0,1,27.51-3.84,2.21,2.21,0,0,0-.58,1.23l-.16,1.22L26.51,14H25.08A11.06,11.06,0,1,0,8.63,23.66L6.47,25.82A14,14,0,0,1,0,14Zm29.51-2.26A.74.74,0,0,0,28,11.7L27.87,13l-.28,1.48a11.22,11.22,0,0,1-.45,1.63l-.33,1-.48,1a8.7,8.7,0,0,1-.7,1.31c-.13.23-.27.46-.4.7s-.27.37-.4.56a11.93,11.93,0,0,1-1.13,1.42,13.22,13.22,0,0,1-1.33,1.37l-.43.4-.47.36a14.55,14.55,0,0,1-1.58,1.12,10.83,10.83,0,0,1-1.46.8l-.61.31-.74.29a9.9,9.9,0,0,1-1.33.45l-1,.27-1,.16a8.6,8.6,0,0,1-1.34.16l-.79.06h-.11V24.35a.75.75,0,0,0-1.27-.53l-6.4,6.4a.74.74,0,0,0,0,1.05l6.4,6.4a.75.75,0,0,0,1.27-.52V33.52l1.37-.26a13.71,13.71,0,0,0,2.18-.57l.88-.3,1.45-.61a13.93,13.93,0,0,0,1.76-.91c.25-.14.49-.29.74-.42L20,30.4l.59-.42a14.08,14.08,0,0,0,1.75-1.35,16.9,16.9,0,0,0,1.78-1.71l.4-.42.05-.06L25,26a17.55,17.55,0,0,0,1.4-1.93,14.17,14.17,0,0,0,1.08-1.89c.11-.22.22-.44.33-.64l0-.09c.1-.27.2-.53.31-.78a13,13,0,0,0,.6-1.72l.34-1.22.2-1.08a12.29,12.29,0,0,0,.24-1.92l.07-1Z" fill="#fcaf17"/></g><path id="Path_3892" data-name="Path 3892" d="M13.78,6.91V17.15h5.29" fill="none" stroke="#00a64f" stroke-linecap="round" stroke-width="2"/></g></g></g></svg>