<svg xmlns="http://www.w3.org/2000/svg" viewBox="0 0 62 60.5"><title>selesai</title><g id="Layer_2" data-name="Layer 2"><g id="Layer_1-2" data-name="Layer 1"><g id="Group_3776" data-name="Group 3776"><ellipse id="Ellipse_328" data-name="Ellipse 328" cx="31" cy="55.5" rx="31" ry="5" fill="#e0e0e0"/><g id="Group_3739" data-name="Group 3739"><g id="Group_3715" data-name="Group 3715"><g id="box"><path id="Path_3839" data-name="Path 3839" d="M53.36,55.23,23.71,52.12a1.88,1.88,0,0,1,.39-3.73l29.66,3.12a1.87,1.87,0,1,1-.35,3.72Z" fill="#a2a1a1"/><path id="Path_3841" data-name="Path 3841" d="M18.63,44.54a1.86,1.86,0,0,1-1.67-2h0l4-38-7.29-.77A1.87,1.87,0,0,1,14.06,0l9.15,1A1.87,1.87,0,0,1,24.87,3h0L20.68,42.88A1.86,1.86,0,0,1,18.63,44.54Z" fill="#a2a1a1"/></g><g id="Group_3714" data-name="Group 3714"><path id="Path_3842" data-name="Path 3842" d="M20.62,56.24a7,7,0,1,1,6.9-7.15h0A7,7,0,0,1,20.62,56.24Z" fill="#e84546"/><path id="Path_3843" data-name="Path 3843" d="M20.43,45.93a3.29,3.29,0,1,0,3.34,3.23A3.29,3.29,0,0,0,20.43,45.93Z" fill="#fff"/></g></g></g></g></g></g></svg>