<svg xmlns="http://www.w3.org/2000/svg" viewBox="0 0 49.26 49.26"><title>steering</title><g id="Layer_2" data-name="Layer 2"><g id="Layer_1-2" data-name="Layer 1"><path id="Path_3891" data-name="Path 3891" d="M24.63,0A24.63,24.63,0,1,0,49.26,24.63,24.63,24.63,0,0,0,24.63,0ZM7.39,30.5a71.64,71.64,0,0,1,11.1-1.56,81.3,81.3,0,0,1,1.75,13.37A18.29,18.29,0,0,1,7.39,30.5Zm17.24-1.76a2.06,2.06,0,1,1,2.05-2.06h0a2,2,0,0,1-2.05,2ZM29,42.31a81.3,81.3,0,0,1,1.75-13.37,71.47,71.47,0,0,1,11.1,1.56A18.25,18.25,0,0,1,29,42.31ZM24.63,20.53a53.54,53.54,0,0,0-18.2,3.25,18.22,18.22,0,0,1,36.4.14,51.51,51.51,0,0,0-18.2-3.39Z" fill="#00a64f"/></g></g></svg>