<svg xmlns="http://www.w3.org/2000/svg" viewBox="0 0 62.02 54.89"><title>proses</title><g id="Layer_2" data-name="Layer 2"><g id="Layer_1-2" data-name="Layer 1"><g id="Group_3775" data-name="Group 3775"><g id="Group_3770" data-name="Group 3770"><g id="Group_3743" data-name="Group 3743"><ellipse id="Ellipse_328" data-name="Ellipse 328" cx="31" cy="49.89" rx="31" ry="5" fill="#e0e0e0"/><g id="Group_3739" data-name="Group 3739"><g id="Group_3715" data-name="Group 3715"><g id="box"><path id="Path_3839" data-name="Path 3839" d="M60.77,35.66l-28,10.2a1.87,1.87,0,1,1-1.28-3.52l28-10.2a1.87,1.87,0,1,1,1.32,3.5l0,0Z" fill="#a2a1a1"/><path id="Path_3841" data-name="Path 3841" d="M24.86,41.28a1.87,1.87,0,0,1-2.4-1.11h0L9.4,4.27,2.51,6.78A1.87,1.87,0,0,1,1.23,3.26L9.88.11a1.88,1.88,0,0,1,2.4,1.12h0L26,38.88A1.87,1.87,0,0,1,24.86,41.28Z" fill="#a2a1a1"/></g><g id="Group_3713" data-name="Group 3713"><g id="Group_3709" data-name="Group 3709"><rect id="Rectangle_1682" data-name="Rectangle 1682" x="22.83" y="18.67" width="32.71" height="20.09" rx="1" transform="translate(-7.46 15.13) rotate(-19.99)" fill="#fecb87"/><path id="Path_3844" data-name="Path 3844" d="M31.35,20.8l1.54,4.53,1-1.5,1.35.79.56-1.18,1.8.4.64-1.29,1.55.4-1.55-4.58Z" fill="#fff"/><path id="Path_3845" data-name="Path 3845" d="M44.36,37.53,42.82,33l-1,1.5-1.35-.78-.56,1.18-1.8-.4-.64,1.28-1.56-.4L37.48,40Z" fill="#fff"/></g><g id="Group_3712" data-name="Group 3712"><g id="Group_3711" data-name="Group 3711"><path id="Path_3846" data-name="Path 3846" d="M48.25,30.48l-.79.29a.12.12,0,0,0-.07.16l1.21,3.34a.13.13,0,0,0,.16.08l.79-.29a.12.12,0,0,0,.08-.16l-1.22-3.34A.12.12,0,0,0,48.25,30.48Z"/><path id="Path_3847" data-name="Path 3847" d="M51.68,29.23l-.78.29a.12.12,0,0,0-.08.16L52,33a.12.12,0,0,0,.16.08l.79-.29a.13.13,0,0,0,.07-.16l-1.22-3.34A.12.12,0,0,0,51.68,29.23Z"/><path id="Path_3848" data-name="Path 3848" d="M49,30.2l-.28.1a.12.12,0,0,0-.07.16l1.21,3.34a.13.13,0,0,0,.16.08l.28-.1a.13.13,0,0,0,.08-.16l-1.22-3.35A.12.12,0,0,0,49,30.2Z"/><path id="Path_3849" data-name="Path 3849" d="M50.39,29.7l-.27.1A.13.13,0,0,0,50,30l1.22,3.35a.12.12,0,0,0,.16.07l.27-.1a.12.12,0,0,0,.08-.16l-1.22-3.34A.12.12,0,0,0,50.39,29.7Z"/><path id="Path_3850" data-name="Path 3850" d="M53,28.75l-.28.1a.13.13,0,0,0-.07.16l1.21,3.35a.13.13,0,0,0,.17.07l.27-.1a.12.12,0,0,0,.08-.16l-1.22-3.34A.13.13,0,0,0,53,28.75Z"/><path id="Path_3851" data-name="Path 3851" d="M49.61,30h0a.14.14,0,0,0-.08.17l1.22,3.34a.12.12,0,0,0,.16.07h0a.13.13,0,0,0,.07-.16h0l-1.21-3.35a.13.13,0,0,0-.16-.07Z"/><path id="Path_3852" data-name="Path 3852" d="M52.26,29h0a.12.12,0,0,0-.07.16l1.21,3.34a.13.13,0,0,0,.16.08h0a.13.13,0,0,0,.07-.16h0L52.42,29.1a.12.12,0,0,0-.16-.08Z"/></g></g></g><g id="Group_3714" data-name="Group 3714"><path id="Path_3842" data-name="Path 3842" d="M29,52.7a7,7,0,1,1,4.2-9h0A7,7,0,0,1,29,52.7Z" fill="#e84546"/><path id="Path_3843" data-name="Path 3843" d="M25.49,43a3.28,3.28,0,1,0,4.21,2A3.29,3.29,0,0,0,25.49,43Z" fill="#fff"/></g></g></g></g><path id="Path_3910" data-name="Path 3910" d="M7,17.56H28.26" fill="none" stroke="#707071" stroke-linecap="round" stroke-width="2"/><path id="Path_3911" data-name="Path 3911" d="M16,26.56H37.26" fill="none" stroke="#707071" stroke-linecap="round" stroke-width="2"/><path id="Path_3912" data-name="Path 3912" d="M7,34.56H28.26" fill="none" stroke="#707071" stroke-linecap="round" stroke-width="2"/></g></g></g></g></svg>