<svg id="Layer_1" data-name="Layer 1" xmlns="http://www.w3.org/2000/svg" viewBox="0 0 401.03 194.77"><title>logo_tms</title><g id="Isolation_Mode" data-name="Isolation Mode"><rect width="401.03" height="194.77" style="fill:#fff;fill-opacity:0"/><path d="M391.14,96.45,370,165.17H32.09A23.22,23.22,0,0,1,9.9,135.11L31.1,66.42H368.94a23.22,23.22,0,0,1,22.2,30Z" transform="translate(0 0)" style="fill:#009789;fill-rule:evenodd"/><path d="M58.25,29.69,50.46,54.74H34.66l6-19h7.27l.18-.58H40.7A9.16,9.16,0,0,1,32,29.69ZM93.09,40.75q-.57-5.36-9.83-5.15L62.91,36,57.05,54.74h13l.69-1.86c2.19-5.82,4.14-9.36,5.82-10.63a6.54,6.54,0,0,1,4-1.12c-.57,1.38-1,2.55-1.3,3.49L76.12,54.74H89.33l3.22-10.12A9.45,9.45,0,0,0,93.09,40.75Zm36.38,5.39c-.55,2.51-2.27,4.58-5.15,6.23q-4.95,2.82-12.89,2.82h-2.2a25.46,25.46,0,0,1-8.66-1.79C97.14,51.92,95.29,49.79,95,47a7.64,7.64,0,0,1,.2-2.65q1.22-4.74,7.24-7.07a29.67,29.67,0,0,1,10.72-1.79h2.17a25.18,25.18,0,0,1,8.73,1.82q5.12,2.19,5.55,6.42a7.6,7.6,0,0,1-.13,2.33Zm-13.28-1.52a7.46,7.46,0,0,0,.12-2c-.17-1.58-1.15-2.37-3-2.37q-3.63,0-4.75,5.08a8.71,8.71,0,0,0-.24,2.69,2.54,2.54,0,0,0,2.6,2.48l.29,0c2.61,0,4.25-1.94,4.94-5.82Zm52-8.6L150.6,54.74H136.94L130.67,36h12.85l2.13,11.73,9-11.73Zm34.58,0q-7.59-.47-21.06-.47a19.82,19.82,0,0,0-10.46,2.73q-5.37,3.26-5.37,8.8a10.64,10.64,0,0,0,.07,1.26,6.6,6.6,0,0,0,3.13,5.17,11.19,11.19,0,0,0,6,1.52,12.68,12.68,0,0,0,10.63-5.19l-1.54,4.92h12.71L202.78,36Zm-14.35,4.19-.85,2.19a18.66,18.66,0,0,1-2.45,4.6c-1.36,1.81-2.75,2.71-4.19,2.71-1,0-1.56-.72-1.56-2.15a9,9,0,0,1,1.09-4c1.12-2.26,2.73-3.38,4.82-3.38Zm53.26-10.55-5.06,6h-7l-5.87,19.08H208l5.87-19h6.92l.18-.58h-8.83a9.18,9.18,0,0,1-8.68-5.44h38.21Zm21,12.27-.56-5.28q-.11-1.17-5.69-1.17-3.65,0-18,.54l-5.82,18.72h13l.7-1.86a37.61,37.61,0,0,1,3.15-6.78q3.48-5.39,8.11-5.38c2.43,0,4.12.41,5.06,1.21ZM298.94,36,293.1,54.76H280.38l1.55-4.92A12.68,12.68,0,0,1,271.29,55a11.1,11.1,0,0,1-6-1.52,6.6,6.6,0,0,1-3.14-5.17q-.06-.66-.06-1.26,0-5.55,5.37-8.8a19.76,19.76,0,0,1,10.45-2.73q13.48,0,21.07.47Zm-14.35,4.19h-3.16c-2.08,0-3.69,1.12-4.81,3.38a9.18,9.18,0,0,0-1.1,4c0,1.43.52,2.15,1.57,2.15q2.15,0,4.19-2.71a19,19,0,0,0,2.46-4.59l.85-2.19Zm41.75,1.68q-1.92-1.44-5.82-1.44c-3.13,0-5.42.72-6.85,2.13a4.91,4.91,0,0,0-1.48,3.58v.68c.17,1.71,1.34,2.56,3.51,2.57a22.11,22.11,0,0,0,9.78-1.93l-2.06,5.71c-.07.2-.48.45-1.23.74A22.87,22.87,0,0,1,314,55.05a24.35,24.35,0,0,1-9.69-1.76c-3.29-1.42-5.07-3.45-5.35-6.07,0-.32-.05-.62-.05-.92q0-4.23,4.35-7.23,5.19-3.59,14.28-3.58a23.67,23.67,0,0,1,8.19,1.09l.56,5.29Zm39.92-5.73-1.19,4.45a11.17,11.17,0,0,0-2-.16,10.56,10.56,0,0,0-5.78,1.46l-3.71,2.4,6.69,10.43h-14l-3.54-9.34-2.91,9.34H326.7l7.84-25.14H347.7l-4.14,13.09a10.66,10.66,0,0,1,3.16-3.58q4.88-3.6,13.47-3.6a23.45,23.45,0,0,1,6.07.67Z" transform="translate(0 0)" style="fill:#ea8a23;fill-rule:evenodd"/><path d="M340.42,111.29c-1.1-.5-2.24-1-3.47-1.49q-6.76-2.82-8.81-4.38a4.61,4.61,0,0,1-2-3.24q0-5.34,9.95-5.35a49.88,49.88,0,0,1,24.71,6.87l5.44-14.45c-1.82-.75-12-4.68-14-5.25a62.88,62.88,0,0,0-19.32-2.79h-1.1a57.28,57.28,0,0,0-16.9,2.56,34.58,34.58,0,0,0-7,3.13l-.34.18c-.31.19-.58.4-.88.59a25,25,0,0,0-4.94,4,17.33,17.33,0,0,0-4.88,10.6,16.65,16.65,0,0,0-.12,2A16.21,16.21,0,0,0,301.23,116c2.48,2.58,6.37,4.94,11.62,7.09,1.1.5,2.24,1,3.47,1.49q6.76,2.82,8.81,4.38a4.61,4.61,0,0,1,2,3.24q0,5.34-9.95,5.34a50,50,0,0,1-24.71-6.86L288,146c2.32,1.25,11.24,4.28,13.23,4.85a60.9,60.9,0,0,0,19.08,2.3l1-.05a47.87,47.87,0,0,0,17-2.47,35.17,35.17,0,0,0,7-3.14c.11-.06.23-.11.34-.18.31-.18.59-.4.88-.59a25,25,0,0,0,4.94-4,17.41,17.41,0,0,0,4.88-10.6,16.65,16.65,0,0,0,.12-2A16.22,16.22,0,0,0,352,118.37Q348.31,114.51,340.42,111.29Z" transform="translate(0 0)" style="fill:#fff"/><path d="M148.74,80.32l-14,16.58H115.47L99.26,149.59H55.72L71.93,97H91l.49-1.61H67.17a26.78,26.78,0,0,1-17.38-6.12,26.29,26.29,0,0,1-6.62-8.91l105.57-.06Z" transform="translate(0 0)" style="fill:#fff;fill-rule:evenodd"/><path d="M283.9,98.83q-1.47-14-25.65-13.44h-.5A72.81,72.81,0,0,0,231,91.1c-4-4-11.38-5.95-22.09-5.71L155.79,86.5,136,149.79h34l6.32-19.29q8.6-22.8,15.2-27.76,3.91-2.91,10.46-2.92c-1.48,3.62-2.62,6.66-3.39,9.11l-13.26,40.86h33.42l7.16-22.5a64.8,64.8,0,0,1,6.18-13.94c3.18-5.27,6.39-8.82,8.77-10.61q3.91-2.91,10.46-2.92c-1.48,3.62-2.62,6.66-3.39,9.11L235,149.79h34.5l13-40.86A24.77,24.77,0,0,0,283.9,98.83Z" transform="translate(0 0)" style="fill:#fff;fill-rule:evenodd"/></g></svg>