<svg xmlns="http://www.w3.org/2000/svg" viewBox="0 0 20.11 22"><title>pending pod</title><g id="Layer_2" data-name="Layer 2"><g id="Layer_1-2" data-name="Layer 1"><g id="Group_5760" data-name="Group 5760"><g id="document"><g id="Group_5755" data-name="Group 5755"><g id="Group_5754" data-name="Group 5754"><path id="Path_11087" data-name="Path 11087" d="M12.56,8.48a.77.77,0,0,0-.78-.77H3.85a.76.76,0,0,0-.8.74.78.78,0,0,0,.74.8h8A.78.78,0,0,0,12.56,8.48Z" fill="#15a64f"/><path id="Path_11088" data-name="Path 11088" d="M3.85,10.79a.76.76,0,0,0-.8.74.78.78,0,0,0,.74.8H8.67a.78.78,0,0,0,.8-.74.77.77,0,0,0-.75-.8H3.85Z" fill="#15a64f"/><path id="Path_11089" data-name="Path 11089" d="M5.66,18.19H3.08a1.55,1.55,0,0,1-1.54-1.54V3.08A1.54,1.54,0,0,1,3.08,1.54h9.48A1.54,1.54,0,0,1,14.1,3.08V7.82a.77.77,0,0,0,1.54,0V3.08A3.08,3.08,0,0,0,12.56,0H3.08A3.08,3.08,0,0,0,0,3.08V16.65a3.09,3.09,0,0,0,3.08,3.08H5.66a.79.79,0,0,0,.8-.75.77.77,0,0,0-.75-.79Z" fill="#15a64f"/><path id="Path_11091" data-name="Path 11091" d="M11.79,4.62H3.85a.78.78,0,0,0-.8.75.77.77,0,0,0,.74.79h8a.76.76,0,0,0,.79-.74.77.77,0,0,0-.74-.8Z" fill="#15a64f"/></g></g></g><g id="refresh"><g id="Group_5757" data-name="Group 5757"><g id="Group_5756" data-name="Group 5756"><path id="Path_11092" data-name="Path 11092" d="M19.72,12.5a.43.43,0,0,0-.47.39h0l-.05.63A5.43,5.43,0,0,0,9.75,14a.42.42,0,0,0,.19.58.42.42,0,0,0,.57-.19,4.59,4.59,0,0,1,8-.38l-.62-.44a.43.43,0,0,0-.6.1.44.44,0,0,0,.1.6l1.86,1.33a.44.44,0,0,0,.61-.1.38.38,0,0,0,.07-.21L20.11,13a.43.43,0,0,0-.39-.47Z" fill="#fbae2c"/></g></g><g id="Group_5759" data-name="Group 5759"><g id="Group_5758" data-name="Group 5758"><path id="Path_11093" data-name="Path 11093" d="M19.27,18.43a.43.43,0,0,0-.58.19,4.58,4.58,0,0,1-8,.38l.61.44a.43.43,0,0,0,.6-.1.42.42,0,0,0-.1-.6L10,17.41a.42.42,0,0,0-.6.1.49.49,0,0,0-.08.21L9.09,20a.43.43,0,1,0,.86.08h0l.06-.62A5.43,5.43,0,0,0,19.45,19a.43.43,0,0,0-.18-.58Z" fill="#fbae2c"/></g></g></g></g></g></g></svg>