<svg xmlns="http://www.w3.org/2000/svg" viewBox="0 0 23.11 23.11"><title>add_detail</title><g id="Layer_2" data-name="Layer 2"><g id="Layer_1-2" data-name="Layer 1"><g id="Group_4072" data-name="Group 4072"><path id="information" d="M11.56.5a11.06,11.06,0,1,0,11,11.06h0A11.06,11.06,0,0,0,11.56.5Zm.72,17.62c-.53.08-1.57.3-2.1.35a1.29,1.29,0,0,1-1.13-.59,1.37,1.37,0,0,1-.17-1.27L11,10.87H8.8a2.61,2.61,0,0,1,2-2.42A8.24,8.24,0,0,1,13,8.1a1.68,1.68,0,0,1,1.13.59A1.37,1.37,0,0,1,14.24,10l-2.1,5.74h2.18a2.46,2.46,0,0,1-2.05,2.42ZM12.94,7.4A1.38,1.38,0,1,1,14.32,6h0A1.38,1.38,0,0,1,12.94,7.4Z" style="fill:none;stroke:#4281c3"/></g></g></g></svg>