<svg xmlns="http://www.w3.org/2000/svg" viewBox="0 0 253.04 230.19"><title>bg_score</title><g id="Layer_2" data-name="Layer 2"><g id="Layer_1-2" data-name="Layer 1"><g id="Group_2327" data-name="Group 2327"><g id="Group_2309" data-name="Group 2309"><path id="Path_3286" data-name="Path 3286" d="M178,37.32c16.28,10.57,35.26,22.89,42.77,39.82,12.62,28.45,4.09,65.33-14.39,93.78-16.1,24.78-47.18,55.5-74.72,59-21.52,2.74-38.93-17.68-58.88-30.64-26.22-17-57.73-36.25-60-65.61-1.56-20,19.61-49.48,31.64-68C54.69,49.77,70.68,26.65,87.14,19.1,115.83,6,149.14,18.6,178,37.32Z" fill="#0063ba"/><g id="Group_2303" data-name="Group 2303"><g id="Group_2307" data-name="Group 2307"><path id="Path_3284" data-name="Path 3284" d="M226,188.87c-.88-4.13-2.08-13.25.68-16.74,1.58-2,6.6,1.22,9.85.53A13.67,13.67,0,1,1,226,188.87Z" fill="#0063ba"/><path id="Path_3285" data-name="Path 3285" d="M10.88,171a6,6,0,1,1-1.46-8.34h0c1,.67,4.65-.3,5.26,1.23C15.25,165.17,12.1,169.21,10.88,171Z" fill="#0063ba"/><path id="Path_3283" data-name="Path 3283" d="M223.12,3.24a14.62,14.62,0,1,1,0,29.24h0c-4.21,0-9.86,4.54-12.84,1.35-2.13-2.28-1.78-12.11-1.78-16A14.62,14.62,0,0,1,223.12,3.24Z" fill="#0063ba"/><path id="Path_3282" data-name="Path 3282" d="M46.17,0A10.25,10.25,0,0,1,56.42,10.26h0c0,2.62.38,10.63-1.61,12.83-1.51,1.71-5.61-2.58-8.64-2.58A10.25,10.25,0,0,1,35.91,10.26,10.65,10.65,0,0,1,38,4,10,10,0,0,1,46.17,0Z" fill="#0063ba"/></g></g></g></g></g></g></svg>