<?xml version="1.0" encoding="utf-8"?>
<!-- Generator: Adobe Illustrator 23.0.1, SVG Export Plug-In . SVG Version: 6.00 Build 0)  -->
<svg version="1.1" id="Layer_1" xmlns="http://www.w3.org/2000/svg" xmlns:xlink="http://www.w3.org/1999/xlink" x="0px" y="0px"
	 viewBox="0 0 63 60.8" enable-background="new 0 0 63 60.8" xml:space="preserve">
<g id="Group_2331" transform="translate(-272.975 -481.112)">
	<g id="Group_2109" transform="translate(1 -139)">
		<g id="Group_2241">
			<g transform="matrix(1, 0, 0, 1, 271.98, 620.11)">
				<path id="Path_1322-2" fill="#008AF6" d="M27.6,0.6c19.9,0,35.3,15.5,35.3,34S47.5,60.5,27.6,60.5S0.5,47.2,0.5,28.7
					C0.5,18,2.2,12.1,8.3,7.2C13.8,2.9,20.6,0.6,27.6,0.6z"/>
			</g>
		</g>
		<g id="Group_2102" transform="translate(110.149 4821.626)">
			<path id="path330" fill="#FFFFFF" d="M180.1-4194.5c-16.7,17.1-7.8,44.1,17.5,45.1c5.3,0.4,10.5-0.8,15.2-3.3
				c-0.2,0.3-0.5,0.5-0.7,0.7c9.1-9.3,9.4-25.3,1-35.3C201.8-4200.6,186.8-4198.1,180.1-4194.5"/>
			<path id="path364" fill="#D1D1D1" d="M197.6-4149.4c-25.3-1.1-34.1-28-17.5-45.1l0,0l0,0c-0.2,0.1-0.4,0.2-0.5,0.3l-0.1,0
				c-0.2,0.1-0.3,0.2-0.5,0.3c-0.1,0-0.1,0.1-0.2,0.1c-0.1,0.1-0.2,0.1-0.3,0.2c-0.2,0.1-0.3,0.2-0.5,0.3
				c-8.1,6.3-11.9,14.5-12.2,22.4c0,1.3,0,2.6,0.2,3.9c0.1,0.6,0.2,1.3,0.3,1.9c0.4,1.9,1,3.7,1.8,5.5c0.8,1.8,1.8,3.4,3,4.9
				c1.2,1.5,2.6,2.9,4.2,4.2c2.8,2.2,6,3.7,9.5,4.6c2.3,0.6,4.7,1,7.1,1.1c0.8,0,1.5,0,2.2,0c0.2,0,0.4,0,0.6,0
				c0.6,0,1.2-0.1,1.7-0.1c0.1,0,0.3,0,0.4,0c0.7-0.1,1.3-0.2,1.9-0.3c0.2,0,0.4-0.1,0.6-0.1c0.5-0.1,0.9-0.2,1.4-0.3
				c0.2,0,0.4-0.1,0.6-0.1c0.6-0.2,1.1-0.3,1.7-0.5c0.2-0.1,0.4-0.1,0.6-0.2c0.4-0.1,0.7-0.3,1.1-0.4c0.2-0.1,0.5-0.2,0.7-0.3
				c0.3-0.2,0.7-0.3,1-0.5c0.3-0.2,0.7-0.4,1-0.5c0.3-0.2,0.5-0.3,0.8-0.5s0.5-0.3,0.7-0.5c0.2-0.1,0.4-0.3,0.6-0.4
				c0.5-0.4,1-0.7,1.4-1.1c0.1-0.1,0.2-0.2,0.3-0.2c0.3-0.2,0.5-0.5,0.7-0.7c0.1-0.1,0.2-0.2,0.4-0.4c0.2-0.2,0.5-0.5,0.7-0.7
				C208.1-4150.2,202.8-4149,197.6-4149.4"/>
		</g>
	</g>
	<g id="Group_2343" transform="translate(-833 2420)">
		<g id="Rectangle_511" transform="translate(1137 -1915)">
			<path fill="#FFFFFF" d="M-6.5-5.4h7c5,0,9,4,9,9v13c0,1.1-0.9,2-2,2h-14c-1.1,0-2-0.9-2-2v-20C-8.5-4.5-7.6-5.4-6.5-5.4z"/>
			<path fill="none" stroke="#000000" d="M-6.5-4.9h7C5.2-4.9,9-1.1,9,3.6v13c0,0.8-0.7,1.5-1.5,1.5h-14c-0.8,0-1.5-0.7-1.5-1.5v-20
				C-8-4.2-7.4-4.9-6.5-4.9z"/>
		</g>
		<g id="Rectangle_512" transform="translate(1137 -1915)">
			<path fill="#F8F86B" d="M-6.5-5.4h14c1.1,0,2,0.9,2,2v20c0,1.1-0.9,2-2,2h-14c-1.1,0-2-0.9-2-2v-20C-8.5-4.5-7.6-5.4-6.5-5.4z"/>
			<path fill="none" stroke="#000000" d="M-6.5-4.9h14C8.3-4.9,9-4.2,9-3.4v20c0,0.8-0.7,1.5-1.5,1.5h-14c-0.8,0-1.5-0.7-1.5-1.5
				v-20C-8-4.2-7.4-4.9-6.5-4.9z"/>
		</g>
		<g id="Group_2334" transform="matrix(0.017, 1, -1, 0.017, 1650.116, -2218.986)">
			<path id="Path_1341" fill="none" stroke="#000000" stroke-linecap="round" d="M292.7,521.7v2.9"/>
			<path id="Path_1342" fill="none" stroke="#000000" stroke-linecap="round" d="M292.7,519.6v0.7"/>
		</g>
		<g id="Group_2347">
			<line id="Line_66" fill="none" stroke="#000000" stroke-linecap="round" x1="1135" y1="-1910.9" x2="1143" y2="-1910.9"/>
			<circle id="Ellipse_240" cx="1132.5" cy="-1911.4" r="1"/>
		</g>
		<g id="Group_2348" transform="translate(0 4)">
			<line id="Line_66-2" fill="none" stroke="#000000" stroke-linecap="round" x1="1135" y1="-1910.9" x2="1143" y2="-1910.9"/>
			<circle id="Ellipse_240-2" cx="1132.5" cy="-1911.4" r="1"/>
		</g>
		<g id="Group_2349" transform="translate(0 8)">
			<line id="Line_66-3" fill="none" stroke="#000000" stroke-linecap="round" x1="1135" y1="-1910.9" x2="1143" y2="-1910.9"/>
			<circle id="Ellipse_240-3" cx="1132.5" cy="-1911.4" r="1"/>
		</g>
	</g>
</g>
</svg>
