<?xml version="1.0" encoding="utf-8"?>
<!-- Generator: Adobe Illustrator 23.0.1, SVG Export Plug-In . SVG Version: 6.00 Build 0)  -->
<svg version="1.1" id="Layer_1" xmlns="http://www.w3.org/2000/svg" xmlns:xlink="http://www.w3.org/1999/xlink" x="0px" y="0px"
	 viewBox="0 0 62.6 60.4" enable-background="new 0 0 62.6 60.4" xml:space="preserve">
<g id="Group_2253" transform="translate(-166.975 -481.112)">
	<g id="Group_2251">
		<g id="Group_2126" transform="translate(-105 -139)">
			<g transform="matrix(1, 0, 0, 1, 271.98, 620.11)">
				<path id="Path_1322-2" fill="#008AF6" d="M27.1,0.1c19.9,0,35.3,15.5,35.3,34S47,60,27.1,60S0,46.7,0,28.2
					C0,17.5,1.7,11.6,7.8,6.7C13.3,2.4,20.1,0.1,27.1,0.1z"/>
			</g>
			<g id="Group_2102" transform="translate(110.149 4821.626)">
				<path id="path330" fill="#FFFFFF" d="M179.6-4195c-16.7,17.1-7.8,44.1,17.5,45.1c5.3,0.4,10.5-0.8,15.2-3.3
					c-0.2,0.3-0.5,0.5-0.7,0.7c9.1-9.3,9.4-25.3,1-35.3C201.3-4201,186.3-4198.6,179.6-4195"/>
				<path id="path364" fill="#D1D1D1" d="M197.1-4149.9c-25.3-1.1-34.1-28-17.5-45.1l0,0l0,0c-0.2,0.1-0.4,0.2-0.5,0.3l-0.1,0
					c-0.2,0.1-0.3,0.2-0.5,0.3c-0.1,0-0.1,0.1-0.2,0.1c-0.1,0.1-0.2,0.1-0.3,0.2c-0.2,0.1-0.3,0.2-0.5,0.3
					c-8.1,6.3-11.9,14.5-12.2,22.4c0,1.3,0,2.6,0.2,3.9c0.1,0.6,0.2,1.3,0.3,1.9c0.4,1.9,1,3.7,1.8,5.5c0.8,1.8,1.8,3.4,3,4.9
					c1.2,1.6,2.6,2.9,4.2,4.2c2.8,2.2,6,3.7,9.5,4.6c2.3,0.6,4.7,1,7.1,1.1c0.8,0,1.5,0,2.2,0c0.2,0,0.4,0,0.6,0
					c0.6,0,1.2-0.1,1.7-0.1c0.1,0,0.3,0,0.4,0c0.7-0.1,1.3-0.2,1.9-0.3c0.2,0,0.4-0.1,0.6-0.1c0.5-0.1,0.9-0.2,1.4-0.3
					c0.2,0,0.4-0.1,0.6-0.1c0.6-0.1,1.1-0.3,1.7-0.5c0.2-0.1,0.4-0.1,0.6-0.2c0.4-0.1,0.7-0.3,1.1-0.4c0.2-0.1,0.5-0.2,0.7-0.3
					c0.3-0.2,0.7-0.3,1-0.5c0.3-0.2,0.7-0.4,1-0.5c0.3-0.2,0.5-0.3,0.8-0.5s0.5-0.3,0.7-0.5c0.2-0.1,0.4-0.3,0.6-0.4
					c0.5-0.4,1-0.7,1.4-1.1c0.1-0.1,0.2-0.2,0.3-0.2c0.3-0.2,0.5-0.5,0.7-0.7c0.1-0.1,0.2-0.2,0.4-0.4c0.2-0.2,0.5-0.5,0.7-0.7
					C207.6-4150.7,202.3-4149.5,197.1-4149.9"/>
			</g>
		</g>
		<g id="Group_2125" transform="translate(-903.443 2462.805)">
			<g id="Rectangle_510" transform="translate(1096.443 -1954.805)">
				<path fill="#F8F86B" d="M-6-5.9h22c1.7,0,3,1.3,3,3v14c0,1.7-1.3,3-3,3H-6c-1.7,0-3-1.3-3-3v-14C-9-4.6-7.7-5.9-6-5.9z"/>
				<path fill="none" stroke="#000000" d="M-6-5.4h22c1.4,0,2.5,1.1,2.5,2.5v14c0,1.4-1.1,2.5-2.5,2.5H-6c-1.4,0-2.5-1.1-2.5-2.5
					v-14C-8.5-4.3-7.4-5.4-6-5.4z"/>
			</g>
			<g id="Group_2123" transform="translate(1111.71 -1949.453)">
				<line id="Line_62" fill="none" stroke="#000000" stroke-linecap="round" x1="-9" y1="-5.9" x2="1.1" y2="-5.9"/>
				<line id="Line_63" fill="none" stroke="#000000" stroke-linecap="round" x1="-9" y1="-2.5" x2="1.1" y2="-2.5"/>
				<line id="Line_64" fill="none" stroke="#000000" stroke-linecap="round" x1="-9" y1="0.9" x2="1.1" y2="0.9"/>
				<line id="Line_65" fill="none" stroke="#000000" stroke-linecap="round" x1="-9" y1="4.2" x2="1.1" y2="4.2"/>
			</g>
			<g id="Group_2124" transform="translate(1098.907 -1950.573)">
				<g id="Ellipse_170" transform="translate(2.535 -0.232)">
					<circle fill="none" cx="-6" cy="-2.9" r="3"/>
					<circle fill="none" stroke="#000000" cx="-6" cy="-2.9" r="2.5"/>
				</g>
				<g id="Subtraction_31" transform="translate(-0.465 6.768)">
					<path fill="none" d="M1.9,0.1H-9c0-0.1,0-0.3,0-0.4c0-3.1,2.4-5.5,5.5-5.6C-0.5-5.9,2-3.4,2-0.3C2-0.2,2,0,1.9,0.1L1.9,0.1z"/>
					<path fill="none" d="M0.9-0.9c-0.3-2.3-2.2-4-4.5-4c-2.3,0-4.2,1.7-4.5,4H0.9 M1.9,0.1L1.9,0.1H-9c0-0.1,0-0.3,0-0.4
						c0-3.1,2.5-5.6,5.5-5.6c3,0,5.5,2.5,5.5,5.6C2-0.2,2,0,1.9,0.1L1.9,0.1z"/>
				</g>
			</g>
		</g>
	</g>
	<g id="Group_2138" transform="matrix(0.017, 1, -1, 0.017, 725.251, 309.047)">
		<path id="Path_1353" d="M187.2,519.2c-0.3,0-0.5,0.2-0.5,0.5c0,0,0,0,0,0l0,1c0,0.2,0.2,0.4,0.4,0.5c0,0,0.1,0,0.1,0
			c0.3,0,0.5-0.2,0.5-0.5c0,0,0,0,0,0l0-1C187.7,519.4,187.4,519.2,187.2,519.2z"/>
		<path id="Path_1354" d="M186.7,522.4l-0.1,3.1c0,0.2,0.1,0.4,0.4,0.5c0,0,0.1,0,0.1,0c0.3,0,0.5-0.2,0.5-0.5l0.1-3.1
			c0-0.3-0.3-0.5-0.5-0.5C187,522,186.8,522.2,186.7,522.4L186.7,522.4z"/>
	</g>
</g>
</svg>
