<svg xmlns="http://www.w3.org/2000/svg" viewBox="0 0 62.46 59.89"><title>angkut_icon_menu_map</title><g id="Layer_2" data-name="Layer 2"><g id="Layer_1-2" data-name="Layer 1"><g id="Group_2936" data-name="Group 2936"><g id="Group_2802" data-name="Group 2802"><g id="Group_2799" data-name="Group 2799"><g id="Group_2798" data-name="Group 2798"><g id="Group_2797" data-name="Group 2797"><g id="Group_2267" data-name="Group 2267"><g id="Group_2257" data-name="Group 2257"><g id="Group_2250" data-name="Group 2250"><g id="Group_2136" data-name="Group 2136"><path id="Path_1322-2" data-name="Path 1322-2" d="M27.13,0C47,0,62.46,15.51,62.46,34S47,59.89,27.13,59.89,0,46.63,0,28.13C0,17.42,1.71,11.55,7.86,6.59A31.21,31.21,0,0,1,27.13,0Z" style="fill:#008af6"/><g id="Group_2102" data-name="Group 2102"><path id="path330" d="M17.82,6.41C1.15,23.55,10,50.47,35.28,51.55a28.09,28.09,0,0,0,15.2-3.3c-.22.25-.46.5-.7.74,9.12-9.25,9.4-25.33,1-35.28C39.48.38,24.54,2.87,17.82,6.41" style="fill:#fff"/><path id="path364" d="M35.28,51.55C10,50.47,1.15,23.55,17.82,6.41h0l-.54.3-.07,0L16.76,7l-.18.12-.32.21-.46.33C7.73,14,3.86,22.17,3.6,30.06A25.4,25.4,0,0,0,3.76,34c.08.64.18,1.28.3,1.91a24.38,24.38,0,0,0,4.76,10.4A24.26,24.26,0,0,0,13,50.43a26.62,26.62,0,0,0,9.46,4.64,32.66,32.66,0,0,0,7.08,1.06c.75,0,1.48,0,2.2,0l.59,0c.59,0,1.16-.06,1.72-.11.14,0,.28,0,.41,0,.66-.07,1.3-.16,1.94-.26l.56-.1c.46-.09.92-.19,1.37-.3l.58-.14c.57-.15,1.12-.32,1.66-.5.19-.06.37-.14.56-.21q.55-.19,1.08-.42l.69-.3,1-.47,1-.55.78-.46c.25-.17.5-.32.74-.49l.57-.41q.74-.52,1.41-1.11l.3-.25c.25-.22.49-.46.73-.69l.36-.36c.24-.24.48-.48.71-.74a28,28,0,0,1-15.2,3.3" style="fill:#d1d1d1"/></g></g><g id="Group_2135" data-name="Group 2135"><path id="Path_1352" data-name="Path 1352" d="M18.58,41.89V21.16L27,19.37l8.34,2.38,7.86-3.07V37.5l-7.86,3.37L27,39.45Z" style="fill:#f8f86b"/><path id="map" d="M43.56,18.09a.48.48,0,0,0-.42-.07l-8.3,2.77L27,19H26.8l-8.43,1.87a.47.47,0,0,0-.37.46V41.42a.47.47,0,0,0,.47.47h.1L26.91,40l7.87,1.39h.08a.45.45,0,0,0,.16,0h0l8.43-3.28a.47.47,0,0,0,.3-.44V18.47A.47.47,0,0,0,43.56,18.09ZM18.94,21.65,26.43,20V39.17l-7.49,1.66ZM27.37,20l7,1.65V40.39l-7-1.24ZM42.82,37.35l-7.49,2.92V21.62l7.49-2.5Z"/></g><g id="Group_2333" data-name="Group 2333"><path id="Path_1341" data-name="Path 1341" d="M21.22,28.52v4.73" style="fill:none;stroke:#000;stroke-linecap:round"/><path id="Path_1342" data-name="Path 1342" d="M21.22,25.11v1.14" style="fill:none;stroke:#000;stroke-linecap:round"/></g></g></g></g></g></g></g></g></g></g></g></svg>