<svg xmlns="http://www.w3.org/2000/svg" xmlns:xlink="http://www.w3.org/1999/xlink" viewBox="0 0 163 111.16"><defs><linearGradient id="linear-gradient" x1="-739.88" y1="624.66" x2="-740.86" y2="625.81" gradientTransform="matrix(70.84, 0, 0, -8.43, 52573.05, 5367.05)" gradientUnits="userSpaceOnUse"><stop offset="0"/><stop offset="0.91"/></linearGradient><linearGradient id="linear-gradient-2" x1="-601.34" y1="644.18" x2="-600.27" y2="644.18" gradientTransform="matrix(5.01, 0, 0, -13.98, 3085.52, 9094.49)" xlink:href="#linear-gradient"/><linearGradient id="linear-gradient-3" x1="-693.13" y1="636.69" x2="-692.72" y2="636.69" gradientTransform="matrix(13.05, 0, 0, -7.94, 9156.32, 5124.88)" xlink:href="#linear-gradient"/><linearGradient id="linear-gradient-4" x1="-738.32" y1="651.62" x2="-737.32" y2="651.62" gradientTransform="matrix(57.31, 0, 0, -57.31, 42356.52, 37396.59)" gradientUnits="userSpaceOnUse"><stop offset="0.02" stop-color="#fff0e5"/><stop offset="0.5" stop-color="#fff9f4"/><stop offset="1" stop-color="#fff"/></linearGradient><linearGradient id="linear-gradient-5" x1="-628.12" y1="622.84" x2="-629.12" y2="622.84" gradientTransform="matrix(6.15, 0, 0, -4.41, 3930.53, 2761.85)" xlink:href="#linear-gradient-4"/><linearGradient id="linear-gradient-6" x1="-591.61" y1="608.39" x2="-592.54" y2="608.39" gradientTransform="matrix(4.76, 0, 0, -3.01, 2896.21, 1844.56)" xlink:href="#linear-gradient-4"/><linearGradient id="linear-gradient-7" x1="-276.59" y1="624.88" x2="-277.58" y2="624.88" gradientTransform="matrix(1.59, 0, 0, -4.72, 561.3, 3024.12)" xlink:href="#linear-gradient-4"/><linearGradient id="linear-gradient-8" x1="-378.05" y1="623.86" x2="-379.05" y2="623.86" gradientTransform="matrix(2.02, 0, 0, -4.56, 887.4, 2919.24)" xlink:href="#linear-gradient-4"/></defs><title>rest</title><g id="Layer_2" data-name="Layer 2"><g id="Layer_1-2" data-name="Layer 1"><g id="Group_4580" data-name="Group 4580"><g id="Group_4579" data-name="Group 4579"><g id="Group_1954" data-name="Group 1954"><path id="Path_1298" data-name="Path 1298" d="M69.64,5.3c45,0,93.36,22,93.36,51.86,0,17.3-21.91,13.06-41.26,23.08-13.57,7-21.34,30.92-40.24,30.92-45,0-81.5-24.18-81.5-54S24.62,5.3,69.64,5.3Z" fill="#e8f5ff"/><g id="Group_1952" data-name="Group 1952"><g id="Ellipse_132" data-name="Ellipse 132"><circle cx="126.5" cy="79.66" r="6.5" fill="none"/><circle cx="126.5" cy="79.66" r="5.5" fill="none" stroke="#008af6" stroke-width="2"/></g><g id="Polygon_13" data-name="Polygon 13"><path d="M148.5,21.16l7.5,13H141Z" fill="none"/><path d="M148.5,25.16l-4,7h8.08l-4-7m0-4,7.5,13H141Z" fill="#ff8710"/></g><g id="Rectangle_487" data-name="Rectangle 487"><rect x="13" y="15.16" width="13" height="13" fill="none"/><rect x="14" y="16.16" width="11" height="11" fill="none" stroke="#00bf5d" stroke-width="2"/></g><g id="Group_1899" data-name="Group 1899"><path id="Path_1288" data-name="Path 1288" d="M40,96.44,31.65,91" fill="none" stroke="#f71111" stroke-linecap="round" stroke-width="2"/><path id="Path_1289" data-name="Path 1289" d="M38.54,89.54,33.11,97.9" fill="none" stroke="#f71111" stroke-linecap="round" stroke-width="2"/></g></g></g></g><g id="v181-bb-15-icons_Converted_" data-name="v181-bb-15-icons Converted "><g id="shadow"><g id="Group_548" data-name="Group 548"><ellipse id="Ellipse_55" data-name="Ellipse 55" cx="109.34" cy="91.53" rx="35.42" ry="4.22" transform="translate(-11.65 16.07) rotate(-7.98)" opacity="0.2" fill="url(#linear-gradient)" style="isolation:isolate"/></g></g><g id="object"><path id="Path_275" data-name="Path 275" d="M75.22,82.29,74.7,95.68a.92.92,0,0,0,.8.95h0a.94.94,0,0,0,1-.68L80,83a.92.92,0,0,0-.66-1.14l-.1,0-2.95-.44a.93.93,0,0,0-1.06.78s0,.07,0,.1Z" fill="#008af6"/><g id="Group_549" data-name="Group 549"><path id="Path_276" data-name="Path 276" d="M79.23,81.85l-2.94-.44a.93.93,0,0,0-1.06.78s0,.07,0,.1L75,87.19c0,.27.1.54.16.8.32,1.78.66,3.55,1,5.3.16.7.31,1.4.47,2.09L80,83a.92.92,0,0,0-.66-1.14l-.11,0Z" opacity="0.37" fill="url(#linear-gradient-2)" style="isolation:isolate"/></g><path id="Path_277" data-name="Path 277" d="M106.94,67.89l11.85,6.25a.92.92,0,0,1,.43,1.16v0a.94.94,0,0,1-1.12.56l-12.92-3.49a.94.94,0,0,1-.66-1.14l0-.1,1.09-2.77a.93.93,0,0,1,1.21-.53l.09,0Z" fill="#008af6"/><g id="Group_550" data-name="Group 550"><path id="Path_278" data-name="Path 278" d="M104.55,71.15l1.08-2.77a.94.94,0,0,1,1.22-.52.2.2,0,0,1,.08,0l4.35,2.28c.2.18.4.36.61.53,1.37,1.17,2.74,2.35,4.07,3.57l1.57,1.45-12.36-3.34a.93.93,0,0,1-.66-1.14l0-.1Z" opacity="0.37" fill="url(#linear-gradient-3)" style="isolation:isolate"/></g><path id="Path_279" data-name="Path 279" d="M73.69,17.59l-5.53.2a.8.8,0,0,0-.79.84h0l0,1.23a.82.82,0,0,0,.84.8h0l2-.08.21,5.75L72,26.29l-.2-5.75,2-.07a.83.83,0,0,0,.8-.84h0l0-1.23a.83.83,0,0,0-.84-.81Z" fill="#008af6" opacity="0.58" style="isolation:isolate"/><path id="Path_280" data-name="Path 280" d="M67.15,27.54l-3.06-4.87,1.74-1.09a.81.81,0,0,0,.26-1.13h0l-.65-1a.82.82,0,0,0-1.13-.26h0l-4.7,2.94a.82.82,0,0,0-.26,1.13h0L60,24.27a.81.81,0,0,0,1.12.26h0l1.74-1.09,3.05,4.86Z" fill="#008af6" opacity="0.23" style="isolation:isolate"/><path id="Path_281" data-name="Path 281" d="M70.15,25.82l-2.62-5.1,1.82-.94a.84.84,0,0,0,.36-1.11l-.57-1.09a.82.82,0,0,0-1.1-.36l-4.93,2.53a.82.82,0,0,0-.35,1.1l.56,1.09a.82.82,0,0,0,1.1.36l1.83-.94,2.62,5.11Z" fill="#00549e"/><path id="Path_282" data-name="Path 282" d="M56.43,37.55l-1.61,1.78-4.61-2.67,1.13-2Z" fill="#00549e"/><path id="Path_283" data-name="Path 283" d="M56.93,25.08c-3.85-1.67-9.19-.3-12.76,4.39a.39.39,0,0,0-.1-.08c-.42-.25-1.21.34-1.77,1.31s-.66,1.95-.23,2.2l.09,0c-2.57,5.84-.87,10.88,2.59,13.35.38.27.92,0,1.21-.47L57.14,26.35C57.44,25.85,57.36,25.26,56.93,25.08Z" fill="#008af6" opacity="0.5" style="isolation:isolate"/><ellipse id="Ellipse_56" data-name="Ellipse 56" cx="51.2" cy="35.89" rx="12.22" ry="1.47" transform="translate(-5.42 62.41) rotate(-60.13)" fill="#00549e"/><path id="Path_284" data-name="Path 284" d="M91.55,26.21l-2.24-.82,1.74-4.11,2,.77Z" fill="#00549e"/><path id="Path_285" data-name="Path 285" d="M102.57,25.86c1-3.75-1-8.45-5.75-11.1a.21.21,0,0,0,.06-.1c.16-.42-.48-1.06-1.43-1.44s-1.88-.34-2,.08c0,0,0,.06,0,.09-5.7-1.56-10.08.68-11.88,4.18-.2.38.09.85.59,1l19.34,7.62C101.93,26.43,102.46,26.28,102.57,25.86Z" fill="#008af6" opacity="0.5" style="isolation:isolate"/><path id="Path_777" data-name="Path 777" d="M81.36,17.93c.27-.7,5.21.58,11,2.87s10.31,4.71,10,5.41-5.22-.58-11-2.87S81.08,18.63,81.36,17.93Z" fill="#00549e"/><path id="Path_286" data-name="Path 286" d="M94.34,84.29a32.22,32.22,0,1,1,16.78-18.07A32.22,32.22,0,0,1,94.34,84.29Z" fill="#bcbbbb"/><circle id="Ellipse_58" data-name="Ellipse 58" cx="80.92" cy="55" r="26.94" fill="#008af6" style="isolation:isolate"/><path id="Path_287" data-name="Path 287" d="M80.94,83.64A28.66,28.66,0,1,1,92.85,81,28.65,28.65,0,0,1,80.94,83.64Zm0-56.5A27.86,27.86,0,1,0,106.23,43.4,27.84,27.84,0,0,0,80.9,27.14Z" fill="url(#linear-gradient-4)"/><path id="Path_288" data-name="Path 288" d="M73.66,38.52l7.39,17.31c.18.42.55.66.83.54h0c.29-.12.37-.56.19-1L74.69,38.08c-.18-.41-.55-.65-.83-.53h0A.73.73,0,0,0,73.66,38.52Z" fill="#fff"/><path id="Path_289" data-name="Path 289" d="M80.57,57.7l-5.09,9.92a.52.52,0,0,0,.12.73h0c.26.14.54-.06.67-.32l5.09-9.93A1.48,1.48,0,0,0,83,57.3a1.54,1.54,0,1,0-2.71-1.46l0,.06A1.51,1.51,0,0,0,80.57,57.7Z" fill="#fff"/><circle id="Ellipse_59" data-name="Ellipse 59" cx="81.64" cy="56.6" r="1" fill="#fdaf00"/><path id="Path_294" data-name="Path 294" d="M38.12,30.11l-2.8-5.6a.17.17,0,0,0-.21-.08h0l-9.86,4.93a.17.17,0,0,1-.2,0l-6-6.35a.15.15,0,0,1,0-.22h0L23.82,18a.17.17,0,0,1,.23,0,.25.25,0,0,1,0,.07l2.65,6.19a.17.17,0,0,0,.21.09l9.79-3.26a.17.17,0,0,1,.21.09v0L38.43,30a.17.17,0,1,1-.31.12v0Z" fill="#007eba"/><path id="Path_295" data-name="Path 295" d="M41,61l-3.8-2.73a.12.12,0,0,0-.17,0L32.22,65a.13.13,0,0,1-.15,0l-6.16-2.12a.12.12,0,0,1-.08-.15h0L27.33,58a.12.12,0,0,1,.15-.08l.05,0,3.9,3.17a.12.12,0,0,0,.17,0l5.33-5.56a.12.12,0,0,1,.17,0h0l4,5.33a.12.12,0,0,1,0,.17A.14.14,0,0,1,41,61Z" fill="#007eba"/><path id="Path_296" data-name="Path 296" d="M101,15.73,98.72,8.55a.07.07,0,0,1,0-.07h0l8.57-1.73a.05.05,0,0,0,0,0V.06a.05.05,0,0,1,.06-.06h6.6s0,0,0,.06v0l-4.63,10.75a.07.07,0,0,1-.06,0l-7-.74s0,0-.06,0l-1.26,5.55a.05.05,0,0,1-.06.06.06.06,0,0,1-.06-.06h0Z" fill="#007eba"/><path id="Path_297" data-name="Path 297" d="M68.7,14.3A6.17,6.17,0,0,0,67.64,13c-.13-.11-.39-.09-.42.11a14,14,0,0,1-.46,2c-.55-.54-1.12-1.06-1.7-1.57a.26.26,0,0,0-.35,0,.25.25,0,0,0-.06.17,18.43,18.43,0,0,0-.09,2c-.59-.32-1.17-.65-1.74-1a.15.15,0,0,0-.21.07.14.14,0,0,0,0,.06c0,.78,0,1.57,0,2.36a.1.1,0,0,0,.08.12.11.11,0,0,0,.12-.07v-.05c0-.7,0-1.39.05-2.08.59.4,1.18.78,1.8,1.14a.21.21,0,0,0,.3-.08.19.19,0,0,0,0-.1c0-.62,0-1.23.08-1.84.55.5,1.09,1,1.61,1.54a.25.25,0,0,0,.36,0,.24.24,0,0,0,.06-.11,12.36,12.36,0,0,0,.51-2,5.82,5.82,0,0,1,.64.84C68.44,14.82,68.88,14.57,68.7,14.3Z" fill="url(#linear-gradient-5)"/><path id="Path_298" data-name="Path 298" d="M72.45,12.54a4,4,0,0,0,.12-1.2c0-.12-.16-.25-.27-.16A10.74,10.74,0,0,1,71,12q0-.84-.06-1.68a.17.17,0,0,0-.19-.17.16.16,0,0,0-.11,0,13.84,13.84,0,0,0-1.06,1c-.14-.47-.27-.94-.38-1.42a.11.11,0,0,0-.13-.08l0,0-1.2,1.24a.07.07,0,0,0,0,.1.07.07,0,0,0,.09,0c.36-.36.73-.71,1.1-1,.09.5.2,1,.33,1.51a.15.15,0,0,0,.19.11.1.1,0,0,0,.07,0c.32-.3.65-.61,1-.9,0,.54,0,1.08,0,1.63a.19.19,0,0,0,.19.18l.08,0a10.39,10.39,0,0,0,1.29-.76,4.82,4.82,0,0,1-.1.75C72.05,12.68,72.4,12.78,72.45,12.54Z" fill="url(#linear-gradient-6)"/><path id="Path_299" data-name="Path 299" d="M121.33,73a.15.15,0,0,0-.21,0,.14.14,0,0,0,0,.21,4.45,4.45,0,0,1,1.08,4.3.13.13,0,1,0,.24.08h0A4.52,4.52,0,0,0,121.33,73Z" fill="url(#linear-gradient-7)"/><path id="Path_300" data-name="Path 300" d="M122.66,72.38a.18.18,0,0,0-.24.09.18.18,0,0,0,.06.22,3.3,3.3,0,0,1,1.42,4.09c-.05.12.15.2.21.09A3.51,3.51,0,0,0,122.66,72.38Z" fill="url(#linear-gradient-8)"/></g></g></g></g></g></svg>