<svg xmlns="http://www.w3.org/2000/svg" viewBox="0 0 62.46 59.89"><title>angkut_icon_menu_emergency</title><g id="Layer_2" data-name="Layer 2"><g id="Layer_1-2" data-name="Layer 1"><g id="Group_2943" data-name="Group 2943"><g id="Group_2111" data-name="Group 2111"><path id="Path_1322-2" data-name="Path 1322-2" d="M27.13,0C47,0,62.46,15.51,62.46,34S47,59.89,27.13,59.89,0,46.63,0,28.13C0,17.42,1.71,11.55,7.86,6.59A31.21,31.21,0,0,1,27.13,0Z" style="fill:#008af6"/><g id="Group_2102" data-name="Group 2102"><path id="path330" d="M17.82,6.41C1.15,23.55,10,50.47,35.28,51.55a28.09,28.09,0,0,0,15.2-3.3c-.22.25-.46.5-.7.74,9.12-9.25,9.4-25.33,1-35.28C39.48.38,24.54,2.87,17.82,6.41" style="fill:#fff"/><path id="path364" d="M35.28,51.55C10,50.47,1.15,23.55,17.82,6.41h0l-.54.3-.07,0L16.76,7l-.18.12-.32.21-.46.33C7.73,14,3.86,22.17,3.6,30.06A25.4,25.4,0,0,0,3.76,34c.08.64.18,1.28.3,1.91a24.38,24.38,0,0,0,4.76,10.4A24.26,24.26,0,0,0,13,50.43a26.62,26.62,0,0,0,9.46,4.64,32.66,32.66,0,0,0,7.08,1.06c.75,0,1.48,0,2.2,0l.59,0c.59,0,1.16-.06,1.72-.11.14,0,.28,0,.41,0,.66-.07,1.3-.16,1.94-.26l.56-.1c.46-.09.92-.19,1.37-.3l.58-.14c.57-.15,1.12-.32,1.66-.5.19-.06.37-.14.56-.21q.55-.19,1.08-.42l.69-.3,1-.47,1-.55.78-.46c.25-.17.5-.32.74-.49l.57-.41q.74-.52,1.41-1.11l.3-.25c.25-.22.49-.46.73-.69l.36-.36c.24-.24.48-.48.71-.74a28,28,0,0,1-15.2,3.3" style="fill:#d1d1d1"/></g></g><g id="Group_2110" data-name="Group 2110"><path id="Path_1336" data-name="Path 1336" d="M21.53,40.28l2.9-13.47L27.16,25h8.16l2.18,1.82,2.86,14.51h2.11l.9,1.91v1.84H18.84V42.3l1-1H21Z" style="fill:#f8f86b"/><g id="siren"><g id="Group_476" data-name="Group 476"><g id="Group_475" data-name="Group 475"><path id="Path_214" data-name="Path 214" d="M35.64,29.79a.68.68,0,1,0,.67.68.67.67,0,0,0-.67-.68Z"/></g></g><g id="Group_478" data-name="Group 478"><g id="Group_477" data-name="Group 477"><path id="Path_215" data-name="Path 215" d="M41.7,40.56h-.8L38.71,28.28a4.71,4.71,0,0,0-4.65-3.87H27.79a4.72,4.72,0,0,0-4.64,3.87L21,40.56h-.8a2,2,0,0,0-2,2v2.69a.68.68,0,0,0,.67.68H43a.68.68,0,0,0,.67-.68h0V42.58A2,2,0,0,0,41.7,40.56Zm-17.22-12a3.37,3.37,0,0,1,3.31-2.77h6.28a3.38,3.38,0,0,1,3.31,2.77l2.15,12H22.33ZM42.37,44.6H19.48v-2a.68.68,0,0,1,.68-.67H41.7a.67.67,0,0,1,.67.67Z"/></g></g><g id="Group_480" data-name="Group 480"><g id="Group_479" data-name="Group 479"><path id="Path_216" data-name="Path 216" d="M37.81,38.42l-1-5.43a.67.67,0,0,0-1.32.24l1,5.43a.68.68,0,0,0,.8.53A.67.67,0,0,0,37.81,38.42Z"/></g></g><g id="Group_482" data-name="Group 482"><g id="Group_481" data-name="Group 481"><path id="Path_217" data-name="Path 217" d="M47.49,29.79H41.7a.68.68,0,1,0,0,1.35h5.79a.68.68,0,0,0,0-1.35Z"/></g></g><g id="Group_484" data-name="Group 484"><g id="Group_483" data-name="Group 483"><path id="Path_218" data-name="Path 218" d="M20.16,29.79H14.37a.68.68,0,0,0,0,1.35h5.79a.68.68,0,0,0,0-1.35Z"/></g></g><g id="Group_486" data-name="Group 486"><g id="Group_485" data-name="Group 485"><path id="Path_219" data-name="Path 219" d="M42.83,18.57a.66.66,0,0,0-.95,0h0l-3.81,3.81a.66.66,0,0,0,0,.95.68.68,0,0,0,1,0h0l3.81-3.81a.68.68,0,0,0,0-.95Z"/></g></g><g id="Group_488" data-name="Group 488"><g id="Group_487" data-name="Group 487"><path id="Path_220" data-name="Path 220" d="M23.79,22.38,20,18.57a.67.67,0,0,0-.95.95l3.81,3.81a.67.67,0,0,0,.95-.95Z"/></g></g><g id="Group_490" data-name="Group 490"><g id="Group_489" data-name="Group 489"><path id="Path_221" data-name="Path 221" d="M30.93,13.64a.68.68,0,0,0-.68.67h0V19.7a.68.68,0,0,0,1.35,0h0V14.31A.67.67,0,0,0,30.93,13.64Z"/></g></g></g></g></g></g></g></svg>