<svg xmlns="http://www.w3.org/2000/svg" viewBox="0 0 163 105.86"><title>exit_angkut</title><g id="Layer_2" data-name="Layer 2"><g id="Layer_1-2" data-name="Layer 1"><g id="Group_5640" data-name="Group 5640"><g id="Group_1954" data-name="Group 1954"><path id="Path_1298" data-name="Path 1298" d="M69.64,0C114.65,0,163,22,163,51.86c0,17.3-21.91,13.06-41.26,23.07-13.57,7-21.34,30.93-40.24,30.93-45,0-81.5-24.18-81.5-54S24.62,0,69.64,0Z" fill="#e9f5fc"/><g id="Group_1952" data-name="Group 1952"><g id="Ellipse_132" data-name="Ellipse 132"><circle cx="126.08" cy="74.36" r="6.5" fill="none"/><circle cx="126.08" cy="74.36" r="5.5" fill="none" stroke="#4281c3" stroke-width="2"/></g><g id="Polygon_13" data-name="Polygon 13"><path d="M148.08,15.86l7.5,13h-15Z" fill="none"/><path d="M148.08,19.86l-4,7h8.08l-4-7m0-4,7.5,13h-15Z" fill="#f68720"/></g><g id="Rectangle_487" data-name="Rectangle 487"><rect x="12.58" y="9.86" width="13" height="13" fill="none"/><rect x="13.58" y="10.86" width="11" height="11" fill="none" stroke="#2fb55d" stroke-width="2"/></g><g id="Group_1899" data-name="Group 1899"><path id="Path_1288" data-name="Path 1288" d="M40.16,90.91,31.8,85.48" fill="none" stroke="#ed1e24" stroke-linecap="round" stroke-width="2"/><path id="Path_1289" data-name="Path 1289" d="M38.7,84l-5.43,8.36" fill="none" stroke="#ed1e24" stroke-linecap="round" stroke-width="2"/></g></g></g><g id="Group_2146" data-name="Group 2146"><g id="Group_2143" data-name="Group 2143"><path id="Path_1355" data-name="Path 1355" d="M52.87,17.19V82.26h41.2V17.19Z" fill="#4d4d4e" stroke="#fff"/><path id="Path_1356" data-name="Path 1356" d="M52.87,17.29l23.31,6.93v49.3L52.87,82.26Z" fill="#4281c3" stroke="#fff"/></g><g id="Group_2145" data-name="Group 2145"><line id="Line_69" data-name="Line 69" x1="59.08" y1="27.36" x2="71.08" y2="30.36" fill="none" stroke="#fff" stroke-linecap="round"/><line id="Line_70" data-name="Line 70" x1="59.08" y1="31.36" x2="71.08" y2="33.36" fill="none" stroke="#fff" stroke-linecap="round"/></g><path id="Path_1357" data-name="Path 1357" d="M75.82,24.58,75.7,73.15l-9.41,3.46V22Z" fill="#2e75bb" opacity="0.5" style="isolation:isolate"/><g id="Group_2144" data-name="Group 2144"><circle id="Ellipse_172" data-name="Ellipse 172" cx="72.58" cy="49.86" r="2" fill="#fbab19"/><path id="Subtraction_32" data-name="Subtraction 32" d="M72.58,51.86a2.08,2.08,0,0,1-.5-.07,2,2,0,0,0,0-3.87,2.07,2.07,0,0,1,.5-.06,2,2,0,0,1,0,4Z" fill="#dd9427"/></g><g id="Group_4515" data-name="Group 4515"><path id="Path_9338" data-name="Path 9338" d="M53.45,48.47c.78-2.62,1.17-5.5-.13-7.62l-2.83.06a20.85,20.85,0,0,0-1.44,4.34,3.91,3.91,0,0,0,.87,3.62c.74.88,3.37-.29,3.47-.36Z" fill="#fbc4b3"/><path id="Path_9339" data-name="Path 9339" d="M61.21,89.11a18,18,0,0,1,4.54-1.42c1.5-.07,1.65,1.7,0,3.07a12.66,12.66,0,0,1-4.26,2.1c-1.22.5-1.66.54-2.63-.09-1.3-.84-.26-3.06-.26-3.06Z" fill="#4d4d4e"/><path id="Path_9340" data-name="Path 9340" d="M52.41,83.9a15.32,15.32,0,0,1,3.92-1.08c1.5-.06,2.05,1.24.4,2.6a12.31,12.31,0,0,1-4,2.23c-1.21.5-1.64.53-2.62-.09-1.33-.84-.29-3.06-.26-3.06Z" fill="#4d4d4e"/><path id="Path_9341" data-name="Path 9341" d="M61.4,53.94s2.65,14.34,2.65,18.84c0,7.94-.07,16.3-.07,16.3a4.53,4.53,0,0,1-2.6,1.39c-2.88,0-3.17-1.45-3.17-1.45s0-9.46-.29-13.75c-.18-3-.35-7.2-1.55-10.68,0,3.57,0,4.71-.32,8.6-.22,2.87-1.41,10.56-1.48,11.06-.91,1.1-3.74,1.87-5.18.25.11-1.26.91-10.15.81-14.76-.1-4.23-1.18-14.26,1.24-16.21C53.54,51.83,61.4,53.94,61.4,53.94Z" fill="#302f2f"/><path id="Path_9342" data-name="Path 9342" d="M54.07,44.81a19.85,19.85,0,0,0-.46-3.35L55,37a2.77,2.77,0,0,0-3.31.59,29.9,29.9,0,0,0-2.47,4.51A5.72,5.72,0,0,0,54.07,44.81Z" fill="#59595b"/><path id="Path_9343" data-name="Path 9343" d="M58,28.18a2.79,2.79,0,0,0-3.81,1,3.59,3.59,0,0,0-.17.34c-.48,1,.2,3.8.32,5.75a4.92,4.92,0,0,1-.44,2.48l1.34.56a4.09,4.09,0,0,0,2.76,0l0-2.4a6.35,6.35,0,0,0,1.71-.45c.61-.56.93-2.23.65-4.38C59.9,27.9,58.4,28.45,58,28.18Z" fill="#fbc4b3"/><path id="Path_9344" data-name="Path 9344" d="M61.64,45.38c.8-1.7-1-4.78-1.51-5.89A4.58,4.58,0,0,0,58,37.71a25.66,25.66,0,0,0-3-.92c-.34,0-1.5-.12-1.5-.12S51,40.72,50.66,43c-.2,1.56.65,6.66,0,11.7-.33,2.66,9.71,1.91,10.59.82C60.76,53,60,48.85,61.64,45.38Z" fill="#4086c6"/><path id="Path_9345" data-name="Path 9345" d="M50.77,46.47a33.08,33.08,0,0,1-.14,5.36c-.32,2-.52,5.1-.52,5.1a9.51,9.51,0,0,0,6.16,1.84,11.59,11.59,0,0,0,5.58-2.31s-1.1-5.64-1-6.33l.07-.7a3.22,3.22,0,0,1-2.07.27,3.78,3.78,0,0,1-2.54-3,30.47,30.47,0,0,1,0-5.73C56.07,41,52,39.75,52,39.75A27,27,0,0,0,50.77,46.47Z" fill="#4086c6"/><path id="Path_9346" data-name="Path 9346" d="M59.31,32c.16-.53.53-1.78.62-2.28a2.43,2.43,0,0,0-.66-2.28c-.8-.83-3.56-1.1-4.56-.52A4.1,4.1,0,0,0,52.33,32c.6,2.79,1.18,3.1,2,3.75a4.81,4.81,0,0,0,2,.72,2.41,2.41,0,0,0,.86-1.58c0-.33,0-1.34,0-1.34s-.74-1.46-.17-2,1.23.33,1.37.69C58.94,33.45,59.43,34,59.31,32Z" fill="#4d4d4e"/><path id="Path_9347" data-name="Path 9347" d="M72.78,49.56A20.58,20.58,0,0,1,66.93,49a16.31,16.31,0,0,1-3.67-1.51,24,24,0,0,1-1.06-2.75l-3.69,1.5s.93,2.49,1.48,3.63a2.58,2.58,0,0,0,1.86,1.41c1.27.48,5,.6,6.51.8a8.25,8.25,0,0,0,3.28-.18C73.45,51.42,72.85,50.06,72.78,49.56Z" fill="#fbc4b3"/><path id="Path_9348" data-name="Path 9348" d="M58.5,47.32a4.55,4.55,0,0,0,4.62-1.5c-.71-3.22-1.84-6.73-3.4-7.24-.83-.28-2.33,2.62-2.07,4.67C57.72,43.82,58.07,45.44,58.5,47.32Z" fill="#59595b"/><path id="Path_9349" data-name="Path 9349" d="M50.34,54.16l-.13,1.41s1.92,1.65,6,1.75S61.75,56,61.75,56l-.24-1.46a11.07,11.07,0,0,1-5.36,1.39A10.9,10.9,0,0,1,50.34,54.16Z" fill="#febc12"/><path id="Path_9350" data-name="Path 9350" d="M55,41.41a7.22,7.22,0,0,1,1.32-2.73,3.35,3.35,0,0,1,1.66-1s.85.23.84.47A4.19,4.19,0,0,0,57,39.62a11.6,11.6,0,0,0-.87,2.63Z" fill="#4086c6"/><path id="Path_9351" data-name="Path 9351" d="M53.36,36.67A10.25,10.25,0,0,0,52,39.62a26.48,26.48,0,0,0-.5,2.63l.8.1s.76-3,1.2-4a12.24,12.24,0,0,1,.75-1.6Z" fill="#4086c6"/><path id="Path_9352" data-name="Path 9352" d="M70.7,50a14.46,14.46,0,0,0,1.39-1.32c.35-.4.64-.3.52.15a4.79,4.79,0,0,1-.72,1.24S71,50,70.85,50Z" fill="#fbc4b3"/><path id="Path_9353" data-name="Path 9353" d="M58,27.47c2,.21,2.82,1.54,1.78,3a6.6,6.6,0,0,1-5.52,2.19c-2-.21-2.82-1.54-1.79-3A6.61,6.61,0,0,1,58,27.47Z" fill="#4086c6"/><path id="Path_9354" data-name="Path 9354" d="M52.06,31.27s-1.2-4.1,2.44-5.33c2.62-.89,4.58.15,5.64,2.83C60.79,30.41,52.06,31.27,52.06,31.27Z" fill="#4086c6"/><path id="Path_9355" data-name="Path 9355" d="M58.72,31.42a3.68,3.68,0,0,0,1.15-3.1,8.48,8.48,0,0,0-.5-1s.36-.2,1.86.12S63,29.1,61.84,30A6.58,6.58,0,0,1,58.72,31.42Z" fill="#4086c6"/></g></g></g></g></g></svg>