<?xml version="1.0" encoding="utf-8"?>
<!-- Generator: Adobe Illustrator 23.0.1, SVG Export Plug-In . SVG Version: 6.00 Build 0)  -->
<svg version="1.1" id="Layer_1" xmlns="http://www.w3.org/2000/svg" xmlns:xlink="http://www.w3.org/1999/xlink" x="0px" y="0px"
	 viewBox="0 0 62.6 60.3" enable-background="new 0 0 62.6 60.3" xml:space="preserve">
<g id="Group_4160" transform="translate(-55.975 -481.112)">
	<g id="Group_2128" transform="translate(-216 -139)">
		<g transform="matrix(1, 0, 0, 1, 271.98, 620.11)">
			<path id="Path_1322-2" fill="#008AF6" d="M27.2,0.2c19.9,0,35.3,15.5,35.3,34S47.1,60.1,27.2,60.1S0,46.8,0,28.3
				C0,17.6,1.8,11.7,7.9,6.8C13.4,2.5,20.2,0.2,27.2,0.2z"/>
		</g>
		<g id="Group_2102" transform="translate(110.149 4821.626)">
			<path id="path330" fill="#FFFFFF" d="M179.7-4194.9c-16.7,17.1-7.8,44.1,17.5,45.1c5.3,0.4,10.5-0.8,15.2-3.3
				c-0.2,0.3-0.5,0.5-0.7,0.7c9.1-9.3,9.4-25.3,1-35.3C201.4-4200.9,186.4-4198.5,179.7-4194.9"/>
			<path id="path364" fill="#D1D1D1" d="M197.2-4149.8c-25.3-1.1-34.1-28-17.5-45.1l0,0l0,0c-0.2,0.1-0.4,0.2-0.5,0.3l-0.1,0
				c-0.2,0.1-0.3,0.2-0.5,0.3c-0.1,0-0.1,0.1-0.2,0.1c-0.1,0.1-0.2,0.1-0.3,0.2c-0.2,0.1-0.3,0.2-0.5,0.3
				c-8.1,6.3-11.9,14.5-12.2,22.4c0,1.3,0,2.6,0.2,3.9c0.1,0.6,0.2,1.3,0.3,1.9c0.4,1.9,1,3.7,1.8,5.5c0.8,1.8,1.8,3.4,3,4.9
				c1.2,1.6,2.6,2.9,4.2,4.2c2.8,2.2,6,3.7,9.5,4.6c2.3,0.6,4.7,1,7.1,1.1c0.8,0,1.5,0,2.2,0c0.2,0,0.4,0,0.6,0
				c0.6,0,1.2-0.1,1.7-0.1c0.1,0,0.3,0,0.4,0c0.7-0.1,1.3-0.2,1.9-0.3c0.2,0,0.4-0.1,0.6-0.1c0.5-0.1,0.9-0.2,1.4-0.3
				c0.2,0,0.4-0.1,0.6-0.1c0.6-0.1,1.1-0.3,1.7-0.5c0.2-0.1,0.4-0.1,0.6-0.2c0.4-0.1,0.7-0.3,1.1-0.4c0.2-0.1,0.5-0.2,0.7-0.3
				c0.3-0.2,0.7-0.3,1-0.5c0.3-0.2,0.7-0.4,1-0.5c0.3-0.2,0.5-0.3,0.8-0.5s0.5-0.3,0.7-0.5c0.2-0.1,0.4-0.3,0.6-0.4
				c0.5-0.4,1-0.7,1.4-1.1c0.1-0.1,0.2-0.2,0.3-0.2c0.3-0.2,0.5-0.5,0.7-0.7c0.1-0.1,0.2-0.2,0.4-0.4c0.2-0.2,0.5-0.5,0.7-0.7
				C207.7-4150.6,202.4-4149.4,197.2-4149.8"/>
		</g>
	</g>
	<g id="Group_4161" transform="translate(-3.344 -3.637)">
		<path id="Rectangle_1712" fill="#F8F86B" d="M80.4,505.8h18c1.1,0,2,0.9,2,2v18c0,1.1-0.9,2-2,2h-18c-1.1,0-2-0.9-2-2v-18
			C78.4,506.7,79.3,505.8,80.4,505.8z"/>
		<path id="Rectangle_1713" fill="#F8F86B" d="M79.9,502.8h16c0.8,0,1.5,0.7,1.5,1.5l0,0c0,0.8-0.7,1.5-1.5,1.5h-16
			c-0.8,0-1.5-0.7-1.5-1.5l0,0C78.4,503.5,79.1,502.8,79.9,502.8z"/>
		<path id="Rectangle_1714" fill="#F8F86B" d="M97.4,513.8h3c1.1,0,2,0.9,2,2v2c0,1.1-0.9,2-2,2h-3c-1.1,0-2-0.9-2-2v-2
			C95.4,514.7,96.3,513.8,97.4,513.8z"/>
		<g id="Group_4159" transform="translate(87 507.381)">
			<g id="wallet" transform="translate(0 0)">
				<path id="Path_360" fill="#444444" d="M14.6,6H14V1.5c0-1.8-1.2-3.3-2.6-3.3h-0.5l0-1.7c0.1-1.1-0.7-2.1-1.8-2.3H-6.8
					C-8.1-5.6-9.1-4.4-9-3.1v22.2c-0.1,1.1,0.7,2.1,1.8,2.3h18.5c1.5,0,2.6-1.5,2.6-3.3v-4.5h0.6c0.9-0.1,1.5-0.9,1.4-1.8V7.8
					C16.1,6.9,15.5,6.1,14.6,6z M-6.8-4.3H9c0.3,0,0.6,0.4,0.6,0.7l0,1.7H-6.8C-7.4-2-7.9-2.7-7.7-3.4C-7.6-3.8-7.2-4.1-6.8-4.3
					L-6.8-4.3z M12.8,18c0.1,0.9-0.5,1.7-1.4,1.8H-7.2c-0.3,0-0.6-0.4-0.6-0.7V-0.6c0.3,0.2,0.6,0.3,0.9,0.3h18.2
					c0.9,0.1,1.5,0.9,1.4,1.8V6H8.6C7.7,6.1,7.1,6.9,7.2,7.8v3.9c-0.1,0.9,0.5,1.6,1.4,1.8h4.2V18z M14.8,11.7
					c0,0.1-0.1,0.2-0.2,0.2h-6c-0.1,0-0.2-0.1-0.2-0.2V7.8c0-0.1,0.1-0.2,0.2-0.2h6c0.1,0,0.2,0.1,0.2,0.2
					C14.8,7.8,14.8,11.7,14.8,11.7z"/>
				<g id="Group_4159-2" transform="matrix(0.017, 1, -1, 0.017, 15.426, 22.854)">
					<path id="Path_1341" fill="none" stroke="#000000" stroke-linecap="round" d="M-6,11.7v4"/>
					<path id="Path_1342" fill="none" stroke="#000000" stroke-linecap="round" d="M-6,8.9v1"/>
				</g>
			</g>
		</g>
	</g>
</g>
</svg>
