<svg id="Layer_1" data-name="Layer 1" xmlns="http://www.w3.org/2000/svg" viewBox="0 0 11.32 23.92"><title>angkut_icon_keys</title><g id="Group_3154" data-name="Group 3154"><g id="Group_3148" data-name="Group 3148"><g id="Group_3149" data-name="Group 3149"><path id="Path_3713" data-name="Path 3713" d="M321.48,115.51a.33.33,0,0,0,0-.24l-1.8-7.11a3.88,3.88,0,0,0,.88-5.49,4,4,0,0,0-5.58-.87,3.89,3.89,0,0,0-.88,5.49,4,4,0,0,0,2.68,1.59l.59,2.33a.35.35,0,0,0,.18.23l.82.45-.51.78a.36.36,0,0,0,.1.49h0l.83.45-.51.78a.32.32,0,0,0-.05.28.36.36,0,0,0,.17.23l.83.45-.51.78a.34.34,0,0,0-.05.29.42.42,0,0,0,.16.21l0,0,1.32.59a.37.37,0,0,0,.48-.16Zm-4.29-11.18a1.14,1.14,0,0,1-1.38-.81,1.11,1.11,0,0,1,.82-1.36A1.14,1.14,0,0,1,318,103h0A1.13,1.13,0,0,1,317.19,104.33ZM320.36,115a.28.28,0,0,1-.33-.2l-1.53-6.05a5.17,5.17,0,0,0,.51-.18l1.55,6.1A.28.28,0,0,1,320.36,115Z" transform="translate(-310.61 -93.37)" style="fill:#fff"/></g><g id="Ellipse_306" data-name="Ellipse 306"><ellipse cx="5.89" cy="5.35" rx="5.3" ry="5.22" style="fill:none"/><ellipse cx="5.89" cy="5.35" rx="4.93" ry="4.85" style="fill:none;stroke:#fff"/></g><g id="Group_3150" data-name="Group 3150"><path id="Path_3713-2" data-name="Path 3713-2" d="M313.43,116a.35.35,0,0,0,.16-.18l2.79-6.79a3.94,3.94,0,1,0-4-3.94,3.9,3.9,0,0,0,1.22,2.83l-.92,2.24a.39.39,0,0,0,0,.28l.4.84-.88.34a.35.35,0,0,0-.21.46v0l.4.84-.88.34a.32.32,0,0,0-.21.2.31.31,0,0,0,0,.28l.4.84-.88.34a.34.34,0,0,0-.21.21.39.39,0,0,0,0,.26l0,0,.71,1.25a.36.36,0,0,0,.49.14Zm3.2-11.53A1.13,1.13,0,0,1,316,103a1.14,1.14,0,0,1,1.48-.62,1.1,1.1,0,0,1,.63,1.45h0A1.14,1.14,0,0,1,316.63,104.42Zm-3.8,10.46a.27.27,0,0,1-.15-.35l2.38-5.78a3.07,3.07,0,0,0,.52.14l-2.39,5.84A.28.28,0,0,1,312.83,114.88Z" transform="translate(-310.61 -93.37)" style="fill:#fff"/></g></g></g></svg>