<svg id="Layer_1" data-name="Layer 1" xmlns="http://www.w3.org/2000/svg" viewBox="0 0 24.17 24.17"><title>angkut_icon_user</title><g id="Group_3154" data-name="Group 3154"><g id="user"><g id="Group_641" data-name="Group 641"><path id="Path_324" data-name="Path 324" d="M325.64,108.74a12.11,12.11,0,0,0-4.59-2.88,7,7,0,1,0-7.91,0A12.11,12.11,0,0,0,305,117.29h1.89a10.2,10.2,0,1,1,20.39-.61c0,.2,0,.4,0,.61h1.89A12,12,0,0,0,325.64,108.74Zm-8.55-3.54a5.1,5.1,0,1,1,5.1-5.1h0a5.1,5.1,0,0,1-5.1,5.1Z" transform="translate(-305.01 -93.12)" style="fill:#fff"/></g></g><g id="Group_3152" data-name="Group 3152"><rect id="Rectangle_1570" data-name="Rectangle 1570" x="9.32" y="5.85" width="1" height="1" style="fill:#fff"/><rect id="Rectangle_1571" data-name="Rectangle 1571" x="13.32" y="5.85" width="1" height="1" style="fill:#fff"/></g></g></svg>