<svg xmlns="http://www.w3.org/2000/svg" viewBox="0 0 62.46 59.89"><title>angkut_icon_menu_allowance</title><g id="Layer_2" data-name="Layer 2"><g id="Layer_1-2" data-name="Layer 1"><g id="Group_2942" data-name="Group 2942"><g id="Group_2255" data-name="Group 2255"><g id="Group_2107" data-name="Group 2107"><path id="Path_1322-2" data-name="Path 1322-2" d="M27.13,0C47,0,62.46,15.51,62.46,34S47,59.89,27.13,59.89,0,46.63,0,28.13C0,17.42,1.71,11.55,7.86,6.59A31.21,31.21,0,0,1,27.13,0Z" style="fill:#008af6"/><g id="Group_2102" data-name="Group 2102"><path id="path330" d="M17.82,6.41C1.15,23.55,10,50.47,35.28,51.55a28.09,28.09,0,0,0,15.2-3.3c-.22.25-.46.5-.7.74,9.12-9.25,9.4-25.33,1-35.28C39.48.38,24.54,2.87,17.82,6.41" style="fill:#fff"/><path id="path364" d="M35.28,51.55C10,50.47,1.15,23.55,17.82,6.41h0l-.54.3-.07,0L16.76,7l-.18.12-.32.21-.46.33C7.73,14,3.86,22.17,3.6,30.06A25.4,25.4,0,0,0,3.76,34c.08.64.18,1.28.3,1.91a24.38,24.38,0,0,0,4.76,10.4A24.26,24.26,0,0,0,13,50.43a26.62,26.62,0,0,0,9.46,4.64,32.66,32.66,0,0,0,7.08,1.06c.75,0,1.48,0,2.2,0l.59,0c.59,0,1.16-.06,1.72-.11.14,0,.28,0,.41,0,.66-.07,1.3-.16,1.94-.26l.56-.1c.46-.09.92-.19,1.37-.3l.58-.14c.57-.15,1.12-.32,1.66-.5.19-.06.37-.14.56-.21q.55-.19,1.08-.42l.69-.3,1-.47,1-.55.78-.46c.25-.17.5-.32.74-.49l.57-.41q.74-.52,1.41-1.11l.3-.25c.25-.22.49-.46.73-.69l.36-.36c.24-.24.48-.48.71-.74a28,28,0,0,1-15.2,3.3" style="fill:#d1d1d1"/></g></g></g><g id="Group_2939" data-name="Group 2939"><g id="Group_2934" data-name="Group 2934"><g id="Group_2933" data-name="Group 2933"><g id="money-bag-with-dollar-symbol"><g id="Group_2932" data-name="Group 2932"><g id="Group_2925" data-name="Group 2925"><path id="Path_3617" data-name="Path 3617" d="M33.73,35.64a1.55,1.55,0,0,0-.44-.32,5.33,5.33,0,0,0-1.1-.39v2.92A2.08,2.08,0,0,0,33.82,37h0a1.31,1.31,0,0,0,.12-.91A.86.86,0,0,0,33.73,35.64Z" style="stroke:#707070"/></g><g id="Group_2926" data-name="Group 2926"><path id="Path_3618" data-name="Path 3618" d="M33.81,37Z" style="stroke:#707070"/></g><g id="Group_2927" data-name="Group 2927"><path id="Path_3619" data-name="Path 3619" d="M29.33,31a1.06,1.06,0,0,0-.19.51,1.11,1.11,0,0,0,.06.57,1,1,0,0,0,.35.39,3.79,3.79,0,0,0,1,.44V30.26A2,2,0,0,0,29.33,31Z" style="stroke:#707070"/></g><g id="Group_2928" data-name="Group 2928"><path id="Path_3620" data-name="Path 3620" d="M33.83,37v0h0Z" style="stroke:#707070"/></g><g id="Group_2930" data-name="Group 2930"><path id="Path_3622" data-name="Path 3622" d="M33.21,21.09c2.48-2.08,4.14-6.77,3.12-7C35,13.84,32,15,30.61,15.25c-2,.24-4.21-2.19-5.44-.84-1,1.1.72,5.1,3.41,6.85C20.55,25.21,9.27,45,29,46.45,56.19,48.44,42.55,24.93,33.21,21.09Zm2.34,15.62a2.84,2.84,0,0,1-1.1,1.95,4.35,4.35,0,0,1-2.26.8v.85a.8.8,0,1,1-1.6,0h0v-.93l-.41-.1a4,4,0,0,1-2-1.21,3.6,3.6,0,0,1-.6-1c0-.1-.07-.19-.1-.29a1.07,1.07,0,0,1-.06-.27.81.81,0,0,1,.7-.89.81.81,0,0,1,.86.56c0,.09.05.19.08.28a2.1,2.1,0,0,0,.13.26,1.7,1.7,0,0,0,.35.45,2.38,2.38,0,0,0,1,.56V34.56a5.72,5.72,0,0,1-2.1-.91,2.53,2.53,0,0,1-.71-.85,2.68,2.68,0,0,1-.25-1.15,2.87,2.87,0,0,1,.24-1.16,2.8,2.8,0,0,1,.66-.9,4,4,0,0,1,2.16-1v-.88a.8.8,0,0,1,.8-.8.79.79,0,0,1,.8.79h0v.88l.31.05a4,4,0,0,1,2.09,1,2.93,2.93,0,0,1,.64.92c0,.1.08.19.12.29s0,.19.07.29a.8.8,0,0,1-1.54.4c0-.08,0-.18-.08-.26a1,1,0,0,0-.14-.25,1.29,1.29,0,0,0-.37-.4,2.49,2.49,0,0,0-1.1-.43v3a9.76,9.76,0,0,1,1.37.41A3.18,3.18,0,0,1,35.24,35h0c.11.2,0,.1,0,0A2.81,2.81,0,0,1,35.55,36.71Z" style="fill:#f8f86b;stroke:#000"/></g><g id="Group_2931" data-name="Group 2931"><path id="Path_3623" data-name="Path 3623" d="M33.81,37v0Z" style="stroke:#707070"/></g></g></g><rect id="Rectangle_1554" data-name="Rectangle 1554" x="26" y="26.38" width="12" height="17" style="fill:#f8f86b"/></g><g id="Component_6_819" data-name="Component 6 819"><g id="Rp" style="isolation:isolate"><text transform="translate(24 38.38)" style="isolation:isolate;font-size:12px;font-family:Roboto-Bold, Roboto;font-weight:700">Rp</text></g></g></g><g id="Group_2938" data-name="Group 2938"><g id="Group_475" data-name="Group 475"><path id="Path_214" data-name="Path 214" d="M21.73,41.78a.67.67,0,1,0,1.26.46.67.67,0,1,0-1.26-.46Z"/></g><path id="Path_3624" data-name="Path 3624" d="M23.75,42.88s1.43,1.52,5,1.2" style="fill:none;stroke:#000;stroke-linecap:round"/></g></g></g></g></g></svg>