<svg xmlns="http://www.w3.org/2000/svg" viewBox="0 0 62.46 59.89"><title>angkut_icon_menu_history</title><g id="Layer_2" data-name="Layer 2"><g id="Layer_1-2" data-name="Layer 1"><g id="Group_2941" data-name="Group 2941"><g id="Group_2240" data-name="Group 2240"><g id="Group_2128" data-name="Group 2128"><path id="Path_1322-2" data-name="Path 1322-2" d="M27.13,0C47,0,62.46,15.51,62.46,34S47,59.89,27.13,59.89,0,46.63,0,28.13C0,17.42,1.71,11.55,7.86,6.59A31.21,31.21,0,0,1,27.13,0Z" style="fill:#008af6"/><g id="Group_2102" data-name="Group 2102"><path id="path330" d="M17.82,6.41C1.15,23.55,10,50.47,35.28,51.55a28.09,28.09,0,0,0,15.2-3.3c-.22.25-.46.5-.7.74,9.12-9.25,9.4-25.33,1-35.28C39.48.38,24.54,2.87,17.82,6.41" style="fill:#fff"/><path id="path364" d="M35.28,51.55C10,50.47,1.15,23.55,17.82,6.41h0l-.54.3-.07,0L16.76,7l-.18.12-.32.21-.46.33C7.73,14,3.86,22.17,3.6,30.06A25.4,25.4,0,0,0,3.76,34c.08.64.18,1.28.3,1.91a24.38,24.38,0,0,0,4.76,10.4A24.26,24.26,0,0,0,13,50.43a26.62,26.62,0,0,0,9.46,4.64,32.66,32.66,0,0,0,7.08,1.06c.75,0,1.48,0,2.2,0l.59,0c.59,0,1.16-.06,1.72-.11.14,0,.28,0,.41,0,.66-.07,1.3-.16,1.94-.26l.56-.1c.46-.09.92-.19,1.37-.3l.58-.14c.57-.15,1.12-.32,1.66-.5.19-.06.37-.14.56-.21q.55-.19,1.08-.42l.69-.3,1-.47,1-.55.78-.46c.25-.17.5-.32.74-.49l.57-.41q.74-.52,1.41-1.11l.3-.25c.25-.22.49-.46.73-.69l.36-.36c.24-.24.48-.48.71-.74a28,28,0,0,1-15.2,3.3" style="fill:#d1d1d1"/></g></g></g><g id="Group_2345" data-name="Group 2345"><g id="Group_2344" data-name="Group 2344"><g id="Rectangle_511" data-name="Rectangle 511"><path d="M25,20.89h7a9,9,0,0,1,9,9v13a2,2,0,0,1-2,2H25a2,2,0,0,1-2-2v-20A2,2,0,0,1,25,20.89Z" style="fill:#fff"/><path d="M25,21.39h7a8.49,8.49,0,0,1,8.5,8.5v13a1.5,1.5,0,0,1-1.5,1.5H25a1.5,1.5,0,0,1-1.5-1.5v-20A1.5,1.5,0,0,1,25,21.39Z" style="fill:none;stroke:#000"/></g><g id="Rectangle_512" data-name="Rectangle 512"><rect x="23.02" y="20.89" width="18" height="24" rx="2" style="fill:#f8f86b"/><rect x="23.52" y="21.39" width="17" height="23" rx="1.5" style="fill:none;stroke:#000"/></g><line id="Line_66" data-name="Line 66" x1="26.52" y1="29.39" x2="37.52" y2="29.39" style="fill:none;stroke:#000;stroke-linecap:round"/><line id="Line_67" data-name="Line 67" x1="26.52" y1="33.39" x2="37.52" y2="33.39" style="fill:none;stroke:#000;stroke-linecap:round"/><line id="Line_68" data-name="Line 68" x1="26.52" y1="37.39" x2="37.52" y2="37.39" style="fill:none;stroke:#000;stroke-linecap:round"/><g id="Group_2334" data-name="Group 2334"><path id="Path_1341" data-name="Path 1341" d="M36,23.85l-2.93,0" style="fill:none;stroke:#000;stroke-linecap:round;stroke-miterlimit:4.000577958308348"/><path id="Path_1342" data-name="Path 1342" d="M38.1,23.81h-.7" style="fill:none;stroke:#000;stroke-linecap:round;stroke-miterlimit:4.000577958308348"/></g></g><g id="Ellipse_239" data-name="Ellipse 239"><circle cx="23.02" cy="21.89" r="6" style="fill:#f8f86b"/><circle cx="23.02" cy="21.89" r="5.5" style="fill:none;stroke:#000"/></g><path id="Path_3289" data-name="Path 3289" d="M23,19.08v4h2.57" style="fill:none;stroke:#000;stroke-linecap:round"/></g></g></g></g></svg>