<svg xmlns="http://www.w3.org/2000/svg" viewBox="0 0 163 111.67"><title>anglut_avatar_police</title><g id="Layer_2" data-name="Layer 2"><g id="Layer_1-2" data-name="Layer 1"><g id="Group_3752" data-name="Group 3752"><g id="Group_1954" data-name="Group 1954"><path id="Path_1298" data-name="Path 1298" d="M69.64,0C114.65,0,163,22,163,51.86c0,17.3-21.91,13.06-41.26,23.07-13.57,7-21.34,30.93-40.24,30.93-45,0-81.5-24.18-81.5-54S24.62,0,69.64,0Z" style="fill:#e9f5fc"/><g id="Group_1952" data-name="Group 1952"><g id="Ellipse_132" data-name="Ellipse 132"><circle cx="126.5" cy="74.36" r="6.5" style="fill:none"/><circle cx="126.5" cy="74.36" r="5.5" style="fill:none;stroke:#4281c3;stroke-width:2px"/></g><g id="Polygon_13" data-name="Polygon 13"><path d="M148.5,15.86l7.5,13H141Z" style="fill:none"/><path d="M148.5,19.86l-4,7h8.08l-4-7m0-4,7.5,13H141Z" style="fill:#f68720"/></g><g id="Rectangle_487" data-name="Rectangle 487"><rect x="13" y="9.86" width="13" height="13" style="fill:none"/><rect x="14" y="10.86" width="11" height="11" style="fill:none;stroke:#2fb55d;stroke-width:2px"/></g><g id="Group_1899" data-name="Group 1899"><path id="Path_1288" data-name="Path 1288" d="M40,91.13,31.65,85.7" style="fill:none;stroke:#ed1e24;stroke-linecap:round;stroke-miterlimit:4.0018915443327465;stroke-width:2.0009457721663733px"/><path id="Path_1289" data-name="Path 1289" d="M38.54,84.24,33.11,92.6" style="fill:none;stroke:#ed1e24;stroke-linecap:round;stroke-miterlimit:4.0018915443327465;stroke-width:2.0009457721663733px"/></g></g></g><g id="Group_1101" data-name="Group 1101"><ellipse id="Ellipse_84" data-name="Ellipse 84" cx="81.87" cy="107.77" rx="22.3" ry="3.9" style="fill:#8699a0"/><g id="Object"><g id="Group_1101-2" data-name="Group 1101-2"><path id="Path_678" data-name="Path 678" d="M59.88,66.33c-.1,1.3.77,3.58,1.36,4.94a.51.51,0,0,1,.34-.06,1.18,1.18,0,0,1,.77,1.31,2.43,2.43,0,0,1-.16.37,8.72,8.72,0,0,1,.85.3A27.36,27.36,0,0,1,66.21,63C63.71,63.7,60,65.05,59.88,66.33Z" style="fill:none"/><path id="Path_679" data-name="Path 679" d="M62.83,76.5l.07.06v0Z" style="fill:none"/><path id="Path_680" data-name="Path 680" d="M97.49,76.51l-.15,0v.07Z" style="fill:none"/><path id="Path_681" data-name="Path 681" d="M97.67,73.22a9.48,9.48,0,0,1,1-.2,2.72,2.72,0,0,1-.11-.38,1.2,1.2,0,0,1,.95-1.2.43.43,0,0,1,.32.12c.77-1.26,2-3.4,2-4.7s-3.7-3.28-6.08-4.37A27.72,27.72,0,0,1,97.67,73.22Z" style="fill:none"/><path id="Path_685" data-name="Path 685" d="M106.32,64c-3.53-4.17-10.62-8-13-9.14a12.59,12.59,0,0,1-2,1.4,16,16,0,0,1,4.47,6.25c2.37,1.09,6.16,3,6.08,4.37s-1.28,3.45-2,4.7a8.91,8.91,0,0,1,2.42,3.28C104.71,72.93,109.73,68.06,106.32,64Z" style="fill:#e4bc96"/><path id="Path_686" data-name="Path 686" d="M61.24,71.33c-.59-1.35-1.47-3.64-1.36-4.94s3.83-2.63,6.34-3.39A25.23,25.23,0,0,1,71,56.7a14.72,14.72,0,0,1-1.39-.8c-2.46.79-9.65,3.32-13.77,7-4,3.52.35,9,2.53,11.34A9,9,0,0,1,61.24,71.33Z" style="fill:#e4bc96"/><path id="Path_687" data-name="Path 687" d="M83.64,83.54c-1,.43-4,.93-5.18-.12-7.09,0-12.39-1.37-14.06-2.61.17,3.21,1.14,20.39,3,22.5a.94.94,0,0,0,.35.2,4.67,4.67,0,0,0,3.06-.23.15.15,0,0,0,.06,0c1.23-1,1.51-14.43,11.08-15,9.74-.54,10.29,14.55,11.3,14.86a2.61,2.61,0,0,0,.27.06,8.65,8.65,0,0,0,2.87-.16,2.79,2.79,0,0,0,.33-.06c.82-.15,2.93-17.45-.57-22.6-1.13.58-4.92,2-12,2.73A.92.92,0,0,1,83.64,83.54Z" style="fill:#674733"/><path id="Path_688" data-name="Path 688" d="M96.58,77.9c-1.52.81-8.24,2.24-13.79,2.63A3.85,3.85,0,0,1,83,83.81c7.14-.71,12-2.12,13.17-2.69l.27-.15c.4-.27.44-1.73.4-2.87l0,0A.86.86,0,0,1,96.58,77.9Z" style="fill:#fff"/><path id="Path_689" data-name="Path 689" d="M78.46,84.16a1.48,1.48,0,0,1-.24-.26c-.78-1.08-.16-2.6,0-3.31-5.52-.18-12.5-1.08-14.63-2.7a.81.81,0,0,1-.3.25l0,0A8,8,0,0,0,63.91,81a1.5,1.5,0,0,0,.49.51C66.07,82.79,71.37,84.21,78.46,84.16Z" style="fill:#fff"/><path id="Path_690" data-name="Path 690" d="M87.43,57.75c-.79,1.94-2.46,5.49-3.88,8.13a.56.56,0,0,1,0,.08l-.07.14a.41.41,0,0,0-.05.09s0,.1-.07.14a.41.41,0,0,0,0,.09c-.05.07-.08.15-.13.22a.7.7,0,0,1-.06.09.6.6,0,0,1-.06.11l-.06.1-.06.11-.06.1,0,.1a1.62,1.62,0,0,0-.1.18.22.22,0,0,0-.05.08s0,.07-.06.1l-.06.08-.06.1,0,.07a1,1,0,0,1-.08.11.3.3,0,0,0,0,.08l-.09.12s0,0,0,0a.36.36,0,0,1-.07.1l0,.05-.06.1,0,0-.08.12,0,0a.23.23,0,0,1-.07.07.08.08,0,0,0,0,0l-.06.07,0,0-.07.08h0l-.08.06s0,0,0,0l-.05,0,0,0,0,0h0l-.06,0h-.07s0,0,0,0h0s0,0,0,0l0,0h0s0,0,0,0h0a.12.12,0,0,0,0,0h0a.25.25,0,0,0,0-.07s0,0,0,0l0-.08s0,0,0,0l0-.05-.05-.08,0,0-.13-.23h0c-1.24-2.2-4-8.15-5-10.28A17.74,17.74,0,0,1,71,56.51a25.41,25.41,0,0,0-4.8,6.3,27,27,0,0,0-3.17,10.24c1,.39,2,.91,1.9,1.5-.16.93-2,.39-2,.39s2.4,1,1.86,1.67-1.65.13-2,0v0c.25.23,1,1,.7,1.51,2.13,1.63,8.79,2.37,14.31,2.55,0-.21.38,0,.38,0,.93-.7,3.64-.91,4.49-.05.09.09,1-.14,1.12,0,5.55-.39,11.17-1.67,12.7-2.49-.42-.53.38-1.19.74-1.45,0,0,0,0,0-.07-.4.12-1.49.34-1.85-.28-.44-.77,2.07-1.39,2.07-1.39s-1.88.28-1.9-.66c0-.58,1-1,2-1.21a27.56,27.56,0,0,0-1.89-10.73,15,15,0,0,0-4.33-6A19.34,19.34,0,0,1,87.43,57.75Zm.31,6.55c.23-.23.77,1,2.09.93a6.39,6.39,0,0,0,2.63-1c.39-.16.62.77.7,1.08s-.7,1-.7,1,.39,3.49.39,4.19-2.09,1.93-2.47,2.16-2.63-1.24-3-1.78.3-4.26.3-4.57-.85-.92-.85-.92.69-.86.93-1.09Z" style="fill:#e4bc96"/><path id="Path_691" data-name="Path 691" d="M81.69,69l0,0Z" style="fill:#0c273e"/><path id="Path_692" data-name="Path 692" d="M82.18,68.33l0,0A.1.1,0,0,0,82.18,68.33Z" style="fill:#0c273e"/><path id="Path_693" data-name="Path 693" d="M82,68.62l0,0Z" style="fill:#0c273e"/><path id="Path_694" data-name="Path 694" d="M82.09,68.47l0,.06A.21.21,0,0,1,82.09,68.47Z" style="fill:#0c273e"/><path id="Path_695" data-name="Path 695" d="M81.87,68.77s0,0,0,0Z" style="fill:#0c273e"/><path id="Path_696" data-name="Path 696" d="M81.44,69.22l0,0Z" style="fill:#0c273e"/><path id="Path_697" data-name="Path 697" d="M81.77,68.88l0,0S81.77,68.89,81.77,68.88Z" style="fill:#0c273e"/><path id="Path_698" data-name="Path 698" d="M81.51,69.17s0,0,0,0S81.5,69.17,81.51,69.17Z" style="fill:#0c273e"/><path id="Path_699" data-name="Path 699" d="M82.31,68.13a.16.16,0,0,0,0,.07A.25.25,0,0,0,82.31,68.13Z" style="fill:#0c273e"/><path id="Path_700" data-name="Path 700" d="M82.66,67.58l0,.09Z" style="fill:#0c273e"/><path id="Path_701" data-name="Path 701" d="M83,67.12l-.06.11Z" style="fill:#0c273e"/><path id="Path_702" data-name="Path 702" d="M82.83,67.31l0,.1Z" style="fill:#0c273e"/><path id="Path_703" data-name="Path 703" d="M83.07,66.91,83,67Z" style="fill:#0c273e"/><path id="Path_704" data-name="Path 704" d="M82.55,67.77l0,.08Z" style="fill:#0c273e"/><path id="Path_705" data-name="Path 705" d="M82.44,68l0,.07A.18.18,0,0,1,82.44,68Z" style="fill:#0c273e"/><path id="Path_706" data-name="Path 706" d="M81,69a0,0,0,0,0,0,0S81,69,81,69Z" style="fill:#0c273e"/><path id="Path_707" data-name="Path 707" d="M80.85,68.85l0-.07A.43.43,0,0,1,80.85,68.85Z" style="fill:#0c273e"/><path id="Path_708" data-name="Path 708" d="M80.91,68.94a.05.05,0,0,1,0,0A.08.08,0,0,1,80.91,68.94Z" style="fill:#0c273e"/><path id="Path_709" data-name="Path 709" d="M80.79,68.73a2.36,2.36,0,0,1-.13-.23A1.71,1.71,0,0,0,80.79,68.73Z" style="fill:#0c273e"/><path id="Path_710" data-name="Path 710" d="M79.55,66.51c.33-2.32.87-5.51,1-6.38a3.79,3.79,0,0,1-1.06-1.35,24.12,24.12,0,0,1-3.88-.43c1,2.12,3.78,8.08,5,10.27C80.36,68.1,80,67.36,79.55,66.51Z" style="fill:#fff"/><path id="Path_711" data-name="Path 711" d="M81.37,69.27h0Z" style="fill:#0c273e"/><path id="Path_716" data-name="Path 716" d="M81,69.11h0Z" style="fill:#0c273e"/><path id="Path_717" data-name="Path 717" d="M81.08,69.19h0Z" style="fill:#0c273e"/><path id="Path_719" data-name="Path 719" d="M83.73,65.82c-.06.12-.13.23-.18.35C85,63.53,86.64,60,87.43,58a28.4,28.4,0,0,1-4.11.67h0a6.48,6.48,0,0,1-.81,1.2C82.73,60.92,83.32,63.53,83.73,65.82Z" style="fill:#fff"/><path id="Path_720" data-name="Path 720" d="M83.5,66.16a.61.61,0,0,0-.07.14A.61.61,0,0,1,83.5,66.16Z" style="fill:#0c273e"/><path id="Path_721" data-name="Path 721" d="M83.25,66.59c0,.07-.08.15-.13.22A1.59,1.59,0,0,0,83.25,66.59Z" style="fill:#0c273e"/><path id="Path_722" data-name="Path 722" d="M83.37,66.37s-.05.1-.07.14Z" style="fill:#0c273e"/><path id="Path_723" data-name="Path 723" d="M80.57,60.11c-.15.87-.7,4.06-1,6.38.43.85.81,1.59,1.11,2.11h0l.13.23,0,0,0,.07,0,.06a.05.05,0,0,1,0,0l0,.07a0,0,0,0,1,0,0l0,.06h0l0,.06h0l0,0h0l0,0,0,0h.1l0,0h0l.05,0s0,0,0,0l0,0s0,0,0,0l.08-.07h0a.46.46,0,0,1,.07-.07l0,0,0-.06,0,0a.23.23,0,0,1,.07-.07l0,0,.08-.12,0-.05.06-.09,0-.06.06-.09,0-.06.09-.12,0-.07a.76.76,0,0,1,.08-.11s0,0,0-.08l.06-.09,0-.08a.36.36,0,0,1,.07-.1l0-.09.1-.17a.31.31,0,0,1,0-.1l.06-.1.06-.12.06-.09.06-.11a.35.35,0,0,1,.06-.09l.13-.23,0-.08a.91.91,0,0,1,.07-.14.41.41,0,0,0,0-.09.61.61,0,0,1,.07-.14l.05-.09a3.84,3.84,0,0,0,.18-.35c-.41-2.28-1-4.9-1.23-5.91a6,6,0,0,0,.81-1.2,30.1,30.1,0,0,1-3.8.12A4.19,4.19,0,0,0,80.57,60.11Z" style="fill:#674733"/><path id="Path_728" data-name="Path 728" d="M81,34.12a1.3,1.3,0,0,1,.46.18,5,5,0,0,1,1.48-3.42c-1.44.11-2.79.19-4.07.23a4.86,4.86,0,0,1,1.25,3.11A1.66,1.66,0,0,1,81,34.12Z" style="fill:#fecf90"/><path id="Path_739" data-name="Path 739" d="M62.37,72.38a1.2,1.2,0,0,0-.77-1.32.54.54,0,0,0-.35.06A9.1,9.1,0,0,0,58.4,74a1.08,1.08,0,0,0-.13.43,1.64,1.64,0,0,0,1.47,1.47c.14,0,.36-.2.62-.49a16.57,16.57,0,0,0,1.84-2.71A3.78,3.78,0,0,0,62.37,72.38Z" style="fill:#674733"/><path id="Path_741" data-name="Path 741" d="M99.82,71.41a.58.58,0,0,0-.33-.12,1.2,1.2,0,0,0-.95,1.2,1.68,1.68,0,0,0,.12.38,17,17,0,0,0,1.44,2.94c.23.33.42.55.55.57a1.66,1.66,0,0,0,1.67-1.25,1,1,0,0,0-.08-.45A9.1,9.1,0,0,0,99.82,71.41Z" style="fill:#674733"/><path id="Path_762" data-name="Path 762" d="M68,60.3a4.79,4.79,0,0,0-.83,1.12,4.53,4.53,0,0,0-.66,1.2.16.16,0,0,0,.12.19.14.14,0,0,0,.11,0,4,4,0,0,0,.9-1,5,5,0,0,0,.8-1.22C68.58,60.29,68.22,60.14,68,60.3Z" style="fill:#cea378"/><path id="Path_763" data-name="Path 763" d="M94.65,59.49a.25.25,0,0,0-.34,0,.24.24,0,0,0-.06.23c.14.36.31.71.44,1.07s.2.85.33,1.27c0,.14.27.16.3,0A3.35,3.35,0,0,0,94.65,59.49Z" style="fill:#cea378"/><path id="Path_765" data-name="Path 765" d="M81.6,74.19c0-1.56-.1-3.1-.25-4.65,0-.28-.47-.29-.45,0C81,71,81,72.51,81,74s-.26,3.08-.24,4.64a.29.29,0,0,0,.29.27.27.27,0,0,0,.26-.2A21.41,21.41,0,0,0,81.6,74.19Z" style="fill:#274d8c"/><path id="Path_766" data-name="Path 766" d="M80.31,70.4A.72.72,0,0,0,80.2,70a.64.64,0,0,0-.27-.27l-.17-.08a.9.9,0,0,0-.4,0,.53.53,0,0,0-.25.12.89.89,0,0,0-.29.29.64.64,0,0,0-.11.4.8.8,0,0,0,1.2.69.78.78,0,0,0,.4-.69Z" style="fill:#274d8c"/><path id="Path_767" data-name="Path 767" d="M79.52,75.85a1,1,0,1,0,1,1A1,1,0,0,0,79.52,75.85Z" style="fill:#274d8c"/><path id="Path_770" data-name="Path 770" d="M67.6,94.84l-.33-.41A2.51,2.51,0,0,1,67,94c-.14-.27-.5-.07-.46.2a2.4,2.4,0,0,0,.21.64,1.27,1.27,0,0,0,.54.51.31.31,0,0,0,.42-.07A.3.3,0,0,0,67.6,94.84Z" style="fill:#573b2a"/><path id="Path_771" data-name="Path 771" d="M69.92,93.65a.27.27,0,0,0-.33-.17.26.26,0,0,0-.18.31,3.36,3.36,0,0,1,.08,1,4.73,4.73,0,0,0-.12.92.3.3,0,0,0,.32.28.25.25,0,0,0,.18-.08C70.4,95.35,70.18,94.3,69.92,93.65Z" style="fill:#573b2a"/><path id="Path_772" data-name="Path 772" d="M94.83,93.7l-.52-.25a1.77,1.77,0,0,1-.46-.4c-.2-.22-.5,0-.46.27a1.2,1.2,0,0,0,1.36,1,.32.32,0,0,0,.22-.4A.31.31,0,0,0,94.83,93.7Z" style="fill:#573b2a"/><path id="Path_773" data-name="Path 773" d="M96.93,92.2a.37.37,0,0,0-.72.2A3.1,3.1,0,0,1,96,94.1a.35.35,0,0,0,.26.43.33.33,0,0,0,.32-.08A2.08,2.08,0,0,0,96.93,92.2Z" style="fill:#573b2a"/><circle id="Ellipse_252" data-name="Ellipse 252" cx="63.5" cy="75.36" r="3.5" style="fill:#fecf90"/><circle id="Ellipse_253" data-name="Ellipse 253" cx="97.5" cy="75.36" r="3.5" style="fill:#fecf90"/><ellipse id="Ellipse_254" data-name="Ellipse 254" cx="67" cy="104.86" rx="5" ry="3" transform="matrix(0.98, -0.21, 0.21, 0.98, -20.35, 16.23)" style="fill:#4d4d4e"/><ellipse id="Ellipse_255" data-name="Ellipse 255" cx="97" cy="104.86" rx="3" ry="5" transform="translate(-26.99 175.78) rotate(-77)" style="fill:#4d4d4e"/><g id="Path_3318" data-name="Path 3318"><path d="M80.5,84.89A2.54,2.54,0,1,1,83,82.36,2.53,2.53,0,0,1,80.5,84.89Z" style="fill:#fff"/><path d="M80.5,80.32a2,2,0,1,0,2,2,2,2,0,0,0-2-2m0-1a3,3,0,1,1-3,3A3,3,0,0,1,80.5,79.32Z" style="fill:#674733"/></g><rect id="Rectangle_534" data-name="Rectangle 534" x="86" y="63.86" width="9" height="9" style="fill:#e4bc96"/><g id="Group_2428" data-name="Group 2428"><path id="Path_724" data-name="Path 724" d="M87.66,64.4c0,.3-.7,4-.3,4.56s2.63,2,3,1.78,2.47-1.47,2.47-2.16-.39-4.18-.39-4.18C90.66,62.89,87.66,64.09,87.66,64.4Z" style="fill:#fcba17"/><path id="Path_764" data-name="Path 764" d="M88.9,65.08a8.63,8.63,0,0,0-.38,3.31,4.28,4.28,0,0,0,1.51,1c.38.09,1.61-1,1.71-1.24A12.59,12.59,0,0,0,91.17,65C91,64.6,89.28,64.41,88.9,65.08Z" style="fill:#fed600"/></g></g></g></g><ellipse id="Ellipse_251" data-name="Ellipse 251" cx="80.5" cy="37.86" rx="20.5" ry="22" style="fill:#fecf90"/><g id="Group_2431" data-name="Group 2431"><g id="Group_2430" data-name="Group 2430"><g id="Group_2427" data-name="Group 2427"><g id="Group_2425" data-name="Group 2425"><g id="Group_2426" data-name="Group 2426"><g id="Group_2425-2" data-name="Group 2425-2"><path id="Path_682" data-name="Path 682" d="M97.25,23a1,1,0,0,1,.42.22c1-1.88,2.34-5.1,1-6.55C97,14.84,86,8,77.88,8.7S58.05,18.62,58.17,21.33a15.63,15.63,0,0,0,1.51,5.28,1.18,1.18,0,0,1,.41-.05A175.65,175.65,0,0,0,97.25,23Zm-18-12s3.24,2.73,5.28,2.73c0,0,1.2,6.64-4.09,7.84,0,0-7.5.84-8-7.16A10.6,10.6,0,0,0,79.29,11Z" style="fill:#674733"/><path id="Path_733" data-name="Path 733" d="M66.59,36.33A38.14,38.14,0,0,0,79,37.5c1.06,0,2.19-.1,3.38-.19l1.36-.12a64.07,64.07,0,0,0,9.55-1.48,25.57,25.57,0,0,0,3.19-1,11.7,11.7,0,0,0,2.84-1.5c3.76-2.84.37-6.11-.62-6.94a1.42,1.42,0,0,1-.36.33c-4.73,3.26-34.67,4-38.29,3A5.74,5.74,0,0,0,62.07,34,9.34,9.34,0,0,0,64,35.26,14.65,14.65,0,0,0,66.59,36.33Z" style="fill:#674733"/><path id="Path_734" data-name="Path 734" d="M98.31,26.75a1.42,1.42,0,0,0,.36-.33c.86-1.1-.18-3.05-1-3.69a1,1,0,0,0-.42-.22,175,175,0,0,1-37.15,3.6,1.4,1.4,0,0,0-.41.06c-1.2.36-1,2.37,0,3.43a.71.71,0,0,0,.33.15C63.64,30.71,93.58,30,98.31,26.75Z" style="fill:#fcba17"/></g></g></g><rect id="Rectangle_532" data-name="Rectangle 532" x="70" y="10.86" width="19" height="11" rx="4" style="fill:#674733"/></g><path id="Path_3320" data-name="Path 3320" d="M79.06,16.21a11.4,11.4,0,0,0,2.47-1.58,20.73,20.73,0,0,0,2.89.83,4.89,4.89,0,0,1,.15,3.07c-.54,1.34-1.73,2.81-2.11,2.76a7.07,7.07,0,0,1-2.64-2.09A5.79,5.79,0,0,1,79.06,16.21Z" style="fill:#fed600;stroke:#fcba17"/></g><g id="favorite"><path id="Path_333" data-name="Path 333" d="M82.48,11.31l-.78-.05-.48-.62.26,1.86.75.21L82,12Z" style="fill:#ffce06"/><path id="Path_334" data-name="Path 334" d="M80.94,11.37l-.74.26.6.5,0,.78.66-.41-.26-1.86Z" style="fill:#feda45"/></g></g></g></g></g></svg>