<svg xmlns="http://www.w3.org/2000/svg" xmlns:xlink="http://www.w3.org/1999/xlink" viewBox="0 0 24.42 34.01"><defs><linearGradient id="linear-gradient" x1="218.14" y1="-1914.11" x2="218.14" y2="-1915.11" gradientTransform="matrix(1.56, 0, 0, -0.88, -330.51, -1666.97)" gradientUnits="userSpaceOnUse"><stop offset="0" stop-color="#59595b"/><stop offset="0.12" stop-color="#575759"/><stop offset="1" stop-color="#4a4b4d"/></linearGradient></defs><title>avatar_cs</title><g id="Layer_2" data-name="Layer 2"><g id="Layer_1-2" data-name="Layer 1"><g id="Group_3053" data-name="Group 3053"><g id="Group_3009" data-name="Group 3009"><g id="Group_3015" data-name="Group 3015"><g id="Group_3007" data-name="Group 3007"><g id="Group_3014" data-name="Group 3014"><g id="Group_3004" data-name="Group 3004"><g id="Group_3002" data-name="Group 3002"><path id="Path_3538" data-name="Path 3538" d="M12.26,34c-.84,0-5.08-.06-6-1.14h0L6.2,32.8h0l-.06-.1v0h0l0-.09s0,0,0,0,0,0,0-.08a.06.06,0,0,0,0,0,.41.41,0,0,0,0-.11,21.3,21.3,0,0,1,.1-3A39,39,0,0,1,.85,27.9L0,27.59l.61-.67a13.61,13.61,0,0,0,1.84-2.79A8.84,8.84,0,0,0,3.35,18a14.85,14.85,0,0,1-.43-3.24,3.45,3.45,0,0,1,.33-5.3V9.19A13,13,0,0,1,3.37,7.8,7.89,7.89,0,0,1,4.65,4.23,6.31,6.31,0,0,1,7,1.28,8.87,8.87,0,0,1,12,0h.58c1.22,0,5.32.29,7.09,4a9.27,9.27,0,0,1,1.61,5.45,3.49,3.49,0,0,1,.27,5.36A15.5,15.5,0,0,1,21.08,18a8.75,8.75,0,0,0,.9,6.18,13.84,13.84,0,0,0,1.83,2.79l.61.66-.84.31a41,41,0,0,1-5.24,1.43,19.36,19.36,0,0,1,.11,2.85.57.57,0,0,1,0,.13c0,.85-1.14,1.18-2.13,1.38A22.28,22.28,0,0,1,12.26,34Z" style="fill:none"/></g><g id="Group_3003" data-name="Group 3003"><path id="Path_3540" data-name="Path 3540" d="M17.75,23.47c.18,0-.18-1.93,0-2s.83,1.59,1,1.57a12.13,12.13,0,0,0,3.13-.76s-2.66.48-1.38-4.5-.76-11.36-.76-11.36H4.7S2.65,12.82,3.94,17.8s-2.2,4.67-2.2,4.67l2.87.76c.23.06.46-1.37.72-1.3s-.2,1.47,0,1.54C7.32,24.17,15.73,23.94,17.75,23.47Z" style="fill:#646565"/><path id="Path_3541" data-name="Path 3541" d="M17.85,30.09c.28-8.41-4.12-9.25-4.12-9.25h-3s-4.49,1-4.18,9.5c0,.61,5.66.76,5.66.76s5.6-.15,5.6-.76A2.08,2.08,0,0,0,17.85,30.09Z" style="fill:#4281c3"/><path id="Path_3542" data-name="Path 3542" d="M5.34,30.25s1.57.29,2,.45c.29-8.56,4.07-9.86,4.07-9.86h-.67L7.64,22.78Z" style="fill:#58bdeb"/><path id="Path_3543" data-name="Path 3543" d="M19.18,30.47a12.61,12.61,0,0,0-2,.23c-.29-8.56-4.07-9.86-4.07-9.86h.66l3.18,1.85Z" style="fill:#58bdeb"/><path id="Path_3546" data-name="Path 3546" d="M13.67,20.31a1.42,1.42,0,0,1-2.84,0c-1.78,1.58.2,2.84,1.06,3.28a.83.83,0,0,0,.72,0C13.47,23.15,15.46,21.88,13.67,20.31Z" style="fill:#fff"/><g id="Group_2983" data-name="Group 2983"><g id="Group_2981" data-name="Group 2981"><path id="Path_3547" data-name="Path 3547" d="M10.77,19.59c-3.1,2.13-.36,4.21-.36,4.21l0-1.12,1.77,1.19h0v-.2A7.85,7.85,0,0,1,10.77,19.59Z" style="fill:#ffef99"/></g><g id="Group_2982" data-name="Group 2982"><path id="Path_3549" data-name="Path 3549" d="M13.73,19.59c3.1,2.13.36,4.21.36,4.21l0-1.12-1.78,1.19h0v-.2A7.85,7.85,0,0,0,13.73,19.59Z" style="fill:#ffef99"/></g></g><g id="Group_3008" data-name="Group 3008"><path id="Path_3545" data-name="Path 3545" d="M17.8,4.32H6.7s-4.54,9.15.77,14.22a6.9,6.9,0,0,0,9.57,0C22.35,13.47,17.8,4.32,17.8,4.32Z" style="fill:#f2dbc2"/><path id="Path_3553" data-name="Path 3553" d="M12.77,15.08a.48.48,0,0,1,.05.23.57.57,0,0,1-1.14,0,.64.64,0,0,1,.05-.23.63.63,0,0,0-.15.41.67.67,0,0,0,1.34,0A.63.63,0,0,0,12.77,15.08Z" style="fill:#be986c"/><g id="Group_2990" data-name="Group 2990"><path id="Path_3555" data-name="Path 3555" d="M4.78,14.85S4.59,18,10.11,17.93" style="fill:none;stroke:#707071;stroke-miterlimit:10;stroke-width:0.5px"/><path id="Path_3556" data-name="Path 3556" d="M10.79,18.34h-.68a.44.44,0,0,1-.44-.44h0a.44.44,0,0,1,.44-.44h.68a.44.44,0,0,1,.44.44h0A.44.44,0,0,1,10.79,18.34Z" style="fill:url(#linear-gradient)"/></g><path id="Path_3557" data-name="Path 3557" d="M19.69,9.84C21,.12,12.25.73,12.25.73,4,.56,4.41,7.77,4.76,10c-.56,2.45.75,5.57.75,5.57a13.51,13.51,0,0,1,.18-4.95,11,11,0,0,0,3.9-2,8.33,8.33,0,0,1-2.28,1.67c2.6.3,3.28,0,3.93-.23a7.64,7.64,0,0,0,2.42-1.72c.18-.13-.61,1.38-.42,1.26a12.32,12.32,0,0,0,2.11-1.48,5.31,5.31,0,0,0,1.07-1.71c-.21,1.48,1,2.7,1.93,3.43A13.73,13.73,0,0,1,19,15.6S20.37,12.31,19.69,9.84Z" style="fill:#646565"/><g id="Group_2995" data-name="Group 2995"><g id="Group_2992" data-name="Group 2992"><path id="Path_3558" data-name="Path 3558" d="M20.63,9.86s.18-3.59-1.58-5.54a9.18,9.18,0,0,1,.68,5.54Z" style="fill:#037eba"/><g id="Group_2991" data-name="Group 2991"><path id="Path_3559" data-name="Path 3559" d="M22,12.6a2.85,2.85,0,0,0-1.61-2.85.72.72,0,0,0-.94.35.86.86,0,0,0-.06.23l-.38,4a.69.69,0,0,0,.63.77.65.65,0,0,0,.24,0A2.84,2.84,0,0,0,22,12.6Z" style="fill:#299cd7"/><path id="Path_3560" data-name="Path 3560" d="M20.53,14.6a2.55,2.55,0,0,0,1.14-3.42A2.62,2.62,0,0,0,20.49,10a.66.66,0,0,0-.58,0S22.76,12,20.53,14.6Z" style="fill:#6d6e71;opacity:0.30000001192092896;isolation:isolate"/></g></g><g id="Group_2994" data-name="Group 2994"><path id="Path_3561" data-name="Path 3561" d="M3.87,9.86S3.69,6.27,5.46,4.32a9.19,9.19,0,0,0-.69,5.54Z" style="fill:#037eba"/><g id="Group_2993" data-name="Group 2993"><path id="Path_3562" data-name="Path 3562" d="M2.46,12.6A2.86,2.86,0,0,1,4.07,9.75.71.71,0,0,1,5,10.1a.86.86,0,0,1,.06.23l.38,4a.69.69,0,0,1-.63.77.65.65,0,0,1-.24,0A2.84,2.84,0,0,1,2.46,12.6Z" style="fill:#299cd7"/><path id="Path_3563" data-name="Path 3563" d="M4,14.6a2.55,2.55,0,0,1-1.14-3.42A2.59,2.59,0,0,1,4,10a.64.64,0,0,1,.57,0S1.74,12,4,14.6Z" style="fill:#6d6e71;opacity:0.30000001192092896;isolation:isolate"/></g></g></g></g></g></g><g id="Group_3006" data-name="Group 3006"><path id="Path_3565" data-name="Path 3565" d="M10.2,11.77A2.94,2.94,0,0,0,7,11.54" style="fill:none;stroke:#707071;stroke-linecap:round;stroke-miterlimit:4.001807694404397;stroke-width:0.5002259618005497px"/><path id="Path_3566" data-name="Path 3566" d="M17.35,11.51a2.93,2.93,0,0,0-3.24.29" style="fill:none;stroke:#707071;stroke-linecap:round;stroke-width:0.500000011119519px"/></g></g></g><path id="Path_3567" data-name="Path 3567" d="M10.88,20.33s0,1.12,1.4,1.41a1.61,1.61,0,0,0,1.38-1.43,6.9,6.9,0,0,1-1.57.14A8.13,8.13,0,0,1,10.88,20.33Z" style="fill:#e6cdb0"/></g></g><g id="Group_3049" data-name="Group 3049"><path id="path122" d="M8.93,11.46a2.65,2.65,0,0,0-2.65,2.65h0a2.66,2.66,0,0,0,2.65,2.66h0a2.66,2.66,0,0,0,2.66-2.66h0a2.66,2.66,0,0,0-2.66-2.65Zm0,.25a2.41,2.41,0,1,1-2.4,2.4,2.41,2.41,0,0,1,2.4-2.4" style="fill:#646565"/><path id="path124" d="M15.11,11.46a2.65,2.65,0,0,0-2.66,2.65h0a2.66,2.66,0,0,0,2.66,2.66h0a2.66,2.66,0,0,0,2.66-2.66h0a2.66,2.66,0,0,0-2.66-2.65Zm0,.25a2.41,2.41,0,1,1-2.41,2.4,2.42,2.42,0,0,1,2.41-2.4" style="fill:#646565"/><path id="path126" d="M11.6,14.35c0-.28.15-.49.45-.48s.36.29.38.52.19.11.18,0c0-.31-.15-.65-.51-.69a.6.6,0,0,0-.67.52.28.28,0,0,0,0,.13.09.09,0,0,0,.17,0" style="fill:#646565"/></g></g></g></g></svg>