<svg xmlns="http://www.w3.org/2000/svg" viewBox="0 0 14.58 12.11"><title>back</title><g id="Layer_2" data-name="Layer 2"><g id="Layer_1-2" data-name="Layer 1"><g id="back"><g id="Group_4072" data-name="Group 4072"><path id="Path_4828" data-name="Path 4828" d="M13.76,4.91H4L7.09,1.84a.8.8,0,0,0,0-1.13L6.62.23a.8.8,0,0,0-1.13,0L.23,5.49a.8.8,0,0,0,0,1.13l5.26,5.26a.8.8,0,0,0,1.13,0l.47-.48a.77.77,0,0,0,0-1.12L4,7.19h9.78a.83.83,0,0,0,.81-.81V5.7A.82.82,0,0,0,13.76,4.91Z" style="fill:#fff"/></g></g></g></g></svg>