<svg xmlns="http://www.w3.org/2000/svg" width="390.999" height="120" viewBox="0 0 390.999 120">
  <g id="Group_4765" data-name="Group 4765" transform="translate(-26.002 -71)">
    <g id="Group_4766" data-name="Group 4766">
      <g id="Group_4705" data-name="Group 4705">
        <g id="Group_4700" data-name="Group 4700" transform="translate(2 3)">
          <path id="Subtraction_49" data-name="Subtraction 49" d="M-3475.557-7773l-109.731,0c-.095-.225-.2-.442-.3-.647a4.418,4.418,0,0,0,.125-3.425,8.2,8.2,0,0,0-1.9-2.959,3.8,3.8,0,0,0-.717-3.2,7.07,7.07,0,0,0-2.688-2.064,1.286,1.286,0,0,0,.04-.386,7.15,7.15,0,0,0,4.681-1.818,6.1,6.1,0,0,0,1.625-2.514,9.462,9.462,0,0,0-.228-6.18,14.932,14.932,0,0,0-3.33-5.309,13.283,13.283,0,0,0-1.935-1.622,5.406,5.406,0,0,0,2.195.491,3.224,3.224,0,0,0,3.183-2.08,3.257,3.257,0,0,0-.218-3.146c-1.114-1.721-3.717-2.583-5.663-2.656a4.76,4.76,0,0,0-4.219-1.937,9.448,9.448,0,0,0-2.2.273,3.785,3.785,0,0,0-2.6-.988,6.461,6.461,0,0,0-3.623,1.3,2.074,2.074,0,0,1-.309-.27,6.68,6.68,0,0,0,.733-4.913,5.956,5.956,0,0,0-1.393-2.63,10.5,10.5,0,0,0-8.029-3.138,14.9,14.9,0,0,0-3.69.467,15.255,15.255,0,0,0-2.361.852,4.671,4.671,0,0,0,2.007-3,3.184,3.184,0,0,0-.691-2.454,3.3,3.3,0,0,0-2.66-1.391c-2.085,0-4.214,1.864-5.309,3.6-3.156.291-4.352,3.746-4.643,4.8-2.405.738-3.054,3.38-2.86,5.608-.058,0-.124.066-.187.128l-.007.006c-.068.067-.135.134-.192.134a6.629,6.629,0,0,0-3.869-3.249,7.647,7.647,0,0,0-2.044-.319,4.936,4.936,0,0,0-.935.087c-4.154.816-7.092,5-8.161,8.781a12.868,12.868,0,0,0-.464,2.476,4.967,4.967,0,0,0-1.054-2.706,3.145,3.145,0,0,0-2.482-1.2,3.757,3.757,0,0,0-.527.04,3.326,3.326,0,0,0-2.645,1.794c-.924,1.814-.38,4.492.517,6.212a4.455,4.455,0,0,0-.145,3.423,8,8,0,0,0,1.886,2.959,3.862,3.862,0,0,0,.675,3.2,6.717,6.717,0,0,0,2.651,2.064.634.634,0,0,1-.109.164.47.47,0,0,0-.123.224,6.687,6.687,0,0,0-4.487,1.818,6.149,6.149,0,0,0-1.432,2.512,9.346,9.346,0,0,0,.228,6.146,14.956,14.956,0,0,0,3.332,5.305,15.154,15.154,0,0,0,1.559,1.345h-.374a5.158,5.158,0,0,0-1.446-.214,3.883,3.883,0,0,0-1.309.214H-3773a6,6,0,0,1-6-6v-108a6.006,6.006,0,0,1,6-6h178.638a14.752,14.752,0,0,0,3,4.419,13.206,13.206,0,0,0,1.933,1.626,5.363,5.363,0,0,0-2.195-.493,3.22,3.22,0,0,0-3.181,2.08,3.255,3.255,0,0,0,.216,3.146c1.112,1.718,3.715,2.581,5.663,2.656a4.849,4.849,0,0,0,4.17,1.941,8.743,8.743,0,0,0,2.29-.317,3.787,3.787,0,0,0,2.6.99,6.472,6.472,0,0,0,3.623-1.3.881.881,0,0,1,.137.117l.016.016,0,0,.018.018.005,0a.925.925,0,0,0,.132.11,6.654,6.654,0,0,0-.735,4.913,5.937,5.937,0,0,0,1.393,2.63,8.7,8.7,0,0,0,3.619,2.4,13.016,13.016,0,0,0,4.4.733,15.016,15.016,0,0,0,3.7-.465,15.485,15.485,0,0,0,2.359-.85,4.66,4.66,0,0,0-2.007,3,3.187,3.187,0,0,0,.691,2.455,3.309,3.309,0,0,0,2.658,1.373c2.1,0,4.223-1.854,5.313-3.578,3.17-.244,4.352-3.673,4.639-4.718a3.732,3.732,0,0,0,2.4-2.185,7.081,7.081,0,0,0,.462-3.348c.179-.043.322-.082.426-.115a6.664,6.664,0,0,0,3.867,3.094,5.878,5.878,0,0,0,1.6.214,7.272,7.272,0,0,0,1.381-.137c4.154-.856,7.092-5.047,8.159-8.821a16.36,16.36,0,0,0,.426-2.474c.168,1.882,1.343,3.908,3.528,3.908a3.738,3.738,0,0,0,.535-.042,3.323,3.323,0,0,0,2.643-1.793c.925-1.813.381-4.492-.515-6.212a5.051,5.051,0,0,0-.628-5H-3394a6.008,6.008,0,0,1,6,6v108a6.007,6.007,0,0,1-6,6h-45.584c3.112-13.689,1.244-27.954-5-38.16-2.439-4-7.749-10.7-15.91-10.7a15.321,15.321,0,0,0-3.215.349c-8.376,1.779-16.711,8.918-15.659,18.646a9.632,9.632,0,0,0,5.641,8.146c-2-.524-3.8-2.37-4.956-3.826a21.626,21.626,0,0,1-3.114-5.306c-1.188-3.162-.353-4.478.7-6.144a10.043,10.043,0,0,0,1.9-5.9c.026-2,.048-3.719,2.656-4.326,2.959-.683,4.088-2.941,5.084-4.933.822-1.644,1.6-3.2,3.529-3.2a4.884,4.884,0,0,1,1.176.16,19.374,19.374,0,0,0,4.723.663,11.232,11.232,0,0,0,5.853-1.623,6.282,6.282,0,0,1,2.964-.971c.085,0,.169,0,.25.008,2.4.152,2.985,1.542,3.665,3.152l0,.01c.819,1.922,1.747,4.1,5.109,5.517a7.764,7.764,0,0,0,3.112.549c.89,0,1.811-.09,2.7-.178h.012l.146-.015h.009a24.934,24.934,0,0,1,2.595-.189,5.16,5.16,0,0,1,2.96.721c1.55,1.058,1.571,3.913,1.592,6.934.021,2.934.043,5.967,1.419,7.764,1.615,2.1,4.292,2.99,6.88,3.85,2.443.813,4.749,1.579,6.125,3.283,1.929,2.368,3.062,5.753,3.464,10.348a74.241,74.241,0,0,1-.251,12.775.626.626,0,0,0,.557.683l.049,0a.624.624,0,0,0,.632-.584,76.487,76.487,0,0,0,.254-12.977c-.428-4.818-1.645-8.425-3.718-11.029-1.585-1.956-4.172-2.82-6.674-3.655-2.521-.842-4.9-1.638-6.3-3.454-1.16-1.5-1.16-4.092-1.159-6.835,0-3.279,0-6.669-2.129-8.117a6.139,6.139,0,0,0-3.6-.942,26.066,26.066,0,0,0-2.792.208h-.012a26.239,26.239,0,0,1-2.73.2,6.674,6.674,0,0,1-2.633-.45,7.758,7.758,0,0,1-4.453-4.857c-.833-2-1.552-3.719-4.73-3.922-.145-.012-.29-.018-.431-.018a6.87,6.87,0,0,0-3.393,1.093l-.072.038a10.173,10.173,0,0,1-5.275,1.463,17.75,17.75,0,0,1-4.388-.627,6.863,6.863,0,0,0-1.668-.231c-2.513,0-3.456,1.905-4.454,3.923l-.016.032c-.865,1.729-1.844,3.69-4.235,4.243-3.595.817-3.618,3.111-3.643,5.541a9.3,9.3,0,0,1-1.864,5.551c-1.117,1.7-2.081,3.173-.666,6.946a21.577,21.577,0,0,0,4.023,6.376,16.175,16.175,0,0,1-6.982-10.423c-1.36-7.594,3.582-15.789,9.082-20.542a26.234,26.234,0,0,1,17.729-6.418,41.925,41.925,0,0,1,15.74,3.355v-.024a54.5,54.5,0,0,1,14.132,8.5,55.174,55.174,0,0,1,10.939,12.211,51.6,51.6,0,0,1,6.727,14.876,47.509,47.509,0,0,1,1.494,16.5.629.629,0,0,0,.557.684h.046a.629.629,0,0,0,.637-.584,50.361,50.361,0,0,0-9.437-33.723l6.654-3.948a46.218,46.218,0,0,1,4.678,10.18,41.511,41.511,0,0,1,1.926,11.146.642.642,0,0,0,.658.608.62.62,0,0,0,.606-.632,44.521,44.521,0,0,0-7.083-22.416l-.026-.023c0-.026,0-.026-.024-.052a49.951,49.951,0,0,0-3.163-4.5.025.025,0,0,1-.026-.026.142.142,0,0,1-.018-.026c-.009-.014-.015-.023-.031-.023-.113-.151-.234-.3-.352-.44-.132-.159-.248-.3-.357-.447,2.509-3.563,3.469-7.048,2.633-9.562a3.74,3.74,0,0,0-3.463-2.76,3.736,3.736,0,0,0-1.8.483,5.655,5.655,0,0,0-2.149,2.25,8.831,8.831,0,0,0,.1-6.02,3.572,3.572,0,0,0-3.168-2.335,3.355,3.355,0,0,0-1.741.513,6.824,6.824,0,0,0-2.731,4.073,8.528,8.528,0,0,0-.885-6.273,3.727,3.727,0,0,0-3.01-1.857,3.014,3.014,0,0,0-1.215.263,4.955,4.955,0,0,0-2.151,2.125,5.934,5.934,0,0,0-1.719-3.011,4.109,4.109,0,0,0-2.7-1.108,3.26,3.26,0,0,0-1.424.324,3.853,3.853,0,0,0-1.719,1.7,6.188,6.188,0,0,0-2.05-3.086,3.915,3.915,0,0,0-2.343-.854,3.065,3.065,0,0,0-1.427.35,4.439,4.439,0,0,0-1.973,2.377,5.507,5.507,0,0,0-2-2.656,3.45,3.45,0,0,0-1.93-.611,3.218,3.218,0,0,0-1.84.585,5.118,5.118,0,0,0-1.8,2.656,5.362,5.362,0,0,0-2.934-2.529,3.893,3.893,0,0,0-1.162-.181,3.236,3.236,0,0,0-2.3.916,4.083,4.083,0,0,0-1.113,2.781,5.244,5.244,0,0,0-2.959-1.442,3.607,3.607,0,0,0-.36-.019,3.073,3.073,0,0,0-2.674,1.461,3.414,3.414,0,0,0-.507,1.721,3.985,3.985,0,0,0-2.175-.937c-.087-.007-.176-.011-.266-.011a3.093,3.093,0,0,0-2.694,1.58,4.7,4.7,0,0,0-.533,2.91,4.1,4.1,0,0,0-1.993-.532,3.67,3.67,0,0,0-.865.1,3.175,3.175,0,0,0-2.2,2.048,3.652,3.652,0,0,0-.127,1.745,3.306,3.306,0,0,0-1.114-.2,2.863,2.863,0,0,0-.657.076,2.924,2.924,0,0,0-2.074,2.074,4.269,4.269,0,0,0,.2,2.833,4.113,4.113,0,0,0-.748-.07,3.473,3.473,0,0,0-1.1.171,2.958,2.958,0,0,0-2.024,2.633,4.243,4.243,0,0,0,.582,2.478h-.007a3.725,3.725,0,0,0-2.676,1.138,4.108,4.108,0,0,0-1.163,2.985,3.368,3.368,0,0,0,1.771,2.833,22.337,22.337,0,0,0-.026,14.4c2.488,7.1,9.011,12.589,15.863,13.357h.023a12.41,12.41,0,0,0,1.318.067c2.441,0,5.935-.678,7.747-2.588a4.164,4.164,0,0,0,1.182-3.2v-.008c-.077-1.519-.174-3.408,2.3-4.217a2.853,2.853,0,0,1,.875-.141,3.139,3.139,0,0,1,2.264,1.053,4.242,4.242,0,0,1,1.161,3.084c-.2,3.974-3.466,6.333-6.174,7.611a25.289,25.289,0,0,1-10.106,2.246c-.4,0-.779-.014-1.126-.041a24.926,24.926,0,0,1-11.635-3.92.027.027,0,0,0-.006-.018.03.03,0,0,0-.02-.008,16.373,16.373,0,0,1-2.48-2.024l-.05-.05a26.732,26.732,0,0,1-6.679-11.891,29.359,29.359,0,0,1-.762-8.953,34.771,34.771,0,0,1,1.723-8.857,42.042,42.042,0,0,1,10.475-16.671,45.137,45.137,0,0,1,9.812-7.321,46.759,46.759,0,0,1,11.387-4.494,53.4,53.4,0,0,1,12.933-1.533,67.72,67.72,0,0,1,25.594,5.233,62.827,62.827,0,0,1,21.277,14.186,47.977,47.977,0,0,1,12.145,21.655,50.727,50.727,0,0,1,1.147,17.64,71.2,71.2,0,0,1-5.551,20.486.63.63,0,0,0,.329.834.592.592,0,0,0,.229.045.63.63,0,0,0,.582-.374c5.951-13.917,7.458-27.016,4.479-38.934a48.481,48.481,0,0,0-10.221-19.734.634.634,0,0,0,.2-.733c-2.187-5.355.083-8.988,1.741-11.64l.03-.047c1.312-2.066,1.69-3.689,1.124-4.823-.509-1.021-1.79-1.621-3.806-1.782-.2-.017-.4-.025-.6-.025a7.727,7.727,0,0,0-4.052,1.115.686.686,0,0,1-.365.149.247.247,0,0,1-.185-.08c-.2-.211-.173-.8-.159-1.082a6.619,6.619,0,0,1,3.161-4.858.208.208,0,0,1,.111-.035c.158,0,.3.233.446.515a4.524,4.524,0,0,0,3.063,2.529,3.784,3.784,0,0,0,.528.1,4.867,4.867,0,0,0,.75.06,3.8,3.8,0,0,0,2.593-.971,4.4,4.4,0,0,0,1.365-2.278v-.007a1.979,1.979,0,0,0,.05-.322,5.292,5.292,0,0,0-.759-3.845,4.784,4.784,0,0,0-1.771-1.644,7.418,7.418,0,0,0-2.428-.785,8.807,8.807,0,0,0-1.175-.077,11.666,11.666,0,0,0-6.263,1.975,13.293,13.293,0,0,0-4.023,4.326,3.605,3.605,0,0,0,.2-1.417c1.763-1.25,2.734-2.7,2.734-4.075a2.619,2.619,0,0,0-2.691-2.615,2.954,2.954,0,0,0-1.029.187c-.82.29-2.294,1.215-2.959,4.15a3.524,3.524,0,0,0-1.964,2.074,6.886,6.886,0,0,0-.389,2.91c-1.316.921-1.666,2.632-.935,4.578a2.452,2.452,0,0,0-.81,1.139,13.821,13.821,0,0,1,.526-7.4l0-.018c.615-2.158,1.1-3.862-.378-4.883a4.855,4.855,0,0,0-2.779-.833,6.13,6.13,0,0,0-1.32.149,7.837,7.837,0,0,0-4.15,2.379c-.149.171-.254.283-.349.283a.11.11,0,0,1-.029,0,.65.65,0,0,1-.254-.23,2.562,2.562,0,0,1-.329-.834,6.654,6.654,0,0,1,1.618-5.566.206.206,0,0,1,.156-.081c.143,0,.312.17.526.385a5.6,5.6,0,0,0,3.742,1.55,3.867,3.867,0,0,0,3.418-1.9,5.149,5.149,0,0,0-1.238-6.377,5.476,5.476,0,0,0-3.587-1.2,7.467,7.467,0,0,0-1.119.086,10.918,10.918,0,0,0-6.577,3.948,13.365,13.365,0,0,0-2.581,5.313,3.642,3.642,0,0,0-.2-1.443c1.322-1.705,1.825-3.367,1.416-4.681a2.584,2.584,0,0,0-2.5-1.86,2.9,2.9,0,0,0-1.75.6c-.7.531-1.853,1.866-1.644,4.832l-.025.022a3,3,0,0,0-.48.482c-.545.681-1.308,2.226-.3,4.935a2.732,2.732,0,0,0-.432.758,4.008,4.008,0,0,0,.862,3.9l-.036.059a1.8,1.8,0,0,0-.192.371,3.875,3.875,0,0,0,.075,2.706c-3.152-2.749-3.288-6.146-3.388-8.627v-.023l0-.1c-.1-2.014-.173-3.6-1.743-4.078a4.266,4.266,0,0,0-1.232-.182,4.969,4.969,0,0,0-2.538.739,6.954,6.954,0,0,0-2.959,3.239c-.1.218-.173.329-.228.329a.58.58,0,0,1-.251-.126,2.169,2.169,0,0,1-.507-.606,6.039,6.039,0,0,1-.127-5.237.1.1,0,0,1,.108-.076,1.378,1.378,0,0,1,.434.158l.04.019a5.36,5.36,0,0,0,2.3.526,3.8,3.8,0,0,0,3.9-2.854,4.693,4.693,0,0,0-2.858-5.261,4.577,4.577,0,0,0-1.76-.344,6.115,6.115,0,0,0-2.693.673,10.1,10.1,0,0,0-4.629,5.287,11.928,11.928,0,0,0-.81,4.933,3.366,3.366,0,0,0-.43-.785c.689-1.823.663-3.412-.075-4.477a2.4,2.4,0,0,0-1.982-1.033,2.717,2.717,0,0,0-2.168,1.134c-.463.653-1.093,2.126-.1,4.655a3.862,3.862,0,0,0-.277.557,4.526,4.526,0,0,0,1.087,4.4,2.45,2.45,0,0,0-.176.759,3.648,3.648,0,0,0,1.82,3.163,1.078,1.078,0,0,0-.056.267c-.006.044-.011.09-.019.138a3.2,3.2,0,0,0,.557,1.973c-3.339-1.631-4.526-4.547-5.393-6.677l-.021-.053c-.749-1.882-1.34-3.368-2.917-3.368l-.119,0a4.787,4.787,0,0,0-3.389,1.8,7.142,7.142,0,0,0-1.7,4.049c0,.264-.083.4-.248.4a1.514,1.514,0,0,1-.788-.448,6.1,6.1,0,0,1-1.874-4.909c.014-.084.092-.119.266-.119.077,0,.168.006.273.014l.069,0a5.3,5.3,0,0,0,.561.03,4.842,4.842,0,0,0,3.56-1.471,3.586,3.586,0,0,0,.913-2.833,4.411,4.411,0,0,0-4.579-3.892,5.5,5.5,0,0,0-3.945,1.714,10.138,10.138,0,0,0-2.607,6.529,12.053,12.053,0,0,0,.911,4.906,4.542,4.542,0,0,0-.683-.58c.023-1.99-.534-3.482-1.569-4.2a2.5,2.5,0,0,0-1.425-.46,2.6,2.6,0,0,0-2.445,1.928c-.225.778-.333,2.387,1.468,4.427-.536,2.337,1.723,3.96,2.429,4.4,0,1.469,1.078,2.651,2.884,3.163.025.144.048.272.075.4a3.881,3.881,0,0,0,2.1,2.276l-.006,0-.314,0c-4,0-6.325-2.3-8.026-3.976-1.184-1.162-2.118-2.079-3.193-2.079a2.085,2.085,0,0,0-.932.231,4.666,4.666,0,0,0-2.377,2.985,7.078,7.078,0,0,0,.075,4.378.423.423,0,0,1,.016.387.37.37,0,0,1-.324.118,2.627,2.627,0,0,1-.678-.127,6.022,6.022,0,0,1-3.694-3.718.113.113,0,0,1,.006-.091c.049-.093.23-.155.5-.238a4.991,4.991,0,0,0,3.126-2.775,3.592,3.592,0,0,0-.218-3.169,4.618,4.618,0,0,0-4-2.159,4.592,4.592,0,0,0-1.687.311,5.424,5.424,0,0,0-3.011,3.288,10.011,10.011,0,0,0,.254,7.034,12.324,12.324,0,0,0,2.807,4.148,4.22,4.22,0,0,0-.86-.277c-.8-1.845-1.91-2.985-3.138-3.213a2.671,2.671,0,0,0-.55-.059,2.349,2.349,0,0,0-1.787.811,2.694,2.694,0,0,0-.622,2.133c.124.808.7,2.333,3.138,3.464.442,2.369,3.171,2.943,4,3.063a3.161,3.161,0,0,0,3.1,1.8,5.559,5.559,0,0,0,.795-.059c.644,1.208,2.158,1.546,3.314,1.618a7.3,7.3,0,0,1-3.015.662,11.042,11.042,0,0,1-4.439-1.167l-.059-.026a6.769,6.769,0,0,0-2.476-.785,1.719,1.719,0,0,0-1.369.659,4.067,4.067,0,0,0-.885,3.213,6.178,6.178,0,0,0,1.543,3.492,1.419,1.419,0,0,1,.151.175c0,.021-.032.042-.083.074l-.02.013-.023.015a2.1,2.1,0,0,1-.632.178,3.356,3.356,0,0,1-.391.022,5.293,5.293,0,0,1-3.682-1.692.013.013,0,0,1,0-.01c0-.035.1-.137.281-.3a4.41,4.41,0,0,0,1.557-3.351,3.113,3.113,0,0,0-1.278-2.441,3.641,3.641,0,0,0-2.243-.724,4.319,4.319,0,0,0-2.969,1.179,4.767,4.767,0,0,0-1.292,3.669,8.585,8.585,0,0,0,2.581,5.489,10.024,10.024,0,0,0,1.214,1.038,3.305,3.305,0,0,0-1.4-.326,2.7,2.7,0,0,0-.5.046,2.152,2.152,0,0,0-1.556,1.252,2.366,2.366,0,0,0,.166,2.163c.362.6,1.316,1.629,3.643,1.721a3.21,3.21,0,0,0,2.76,1.268,6.133,6.133,0,0,0,1.44-.18,2.448,2.448,0,0,0,1.693.644,3.963,3.963,0,0,0,1.975-.594,2.534,2.534,0,0,0,1.544.456,4.025,4.025,0,0,0,.455-.026,7.248,7.248,0,0,1-5.013,1.945l-.048,0-.07.006c-1.5.125-2.591.216-2.864,1.486a3.545,3.545,0,0,0,.632,2.757,5.088,5.088,0,0,0,2.53,1.949.088.088,0,0,0,.029,0,.068.068,0,0,0,.041-.013c-.005.01-.012.021-.018.034a1.186,1.186,0,0,1-.291.3l-.038.032a3.678,3.678,0,0,1-2.091.606,4.491,4.491,0,0,1-1.4-.228c-.012,0-.018-.008-.018-.013s.015-.018.038-.032a.291.291,0,0,0,.133-.131,3.717,3.717,0,0,0-.2-3.107,2.664,2.664,0,0,0-1.951-1.32,2.71,2.71,0,0,0-.472-.041,3.557,3.557,0,0,0-3.22,2.47,3.933,3.933,0,0,0,.505,3.239,7.274,7.274,0,0,0,4.073,3.009,6.192,6.192,0,0,0,.658.178,2.266,2.266,0,0,0-.86.43,1.9,1.9,0,0,0-.677,1.6,2.075,2.075,0,0,0,1.005,1.585,2.641,2.641,0,0,0,1.379.361,4.61,4.61,0,0,0,1.986-.514,2.329,2.329,0,0,0,1.017.231,3.935,3.935,0,0,0,2.449-1.09,2.249,2.249,0,0,0,.473.051,2.72,2.72,0,0,0,2.233-1.442h.2a2.46,2.46,0,0,0,1.341-.43c-.8,2.516-2.74,3.47-4.157,4.166l-.068.033c-1.345.636-2.406,1.138-2.2,2.455a3.578,3.578,0,0,0,1.594,2.325,5.3,5.3,0,0,0,2.86.917c.069,0,.137,0,.2-.006a.087.087,0,0,0,.073-.039c.007-.009.012-.016.019-.016a.013.013,0,0,1,.01.005s-.026,0-.026.049a1.876,1.876,0,0,1-.2.43,4.037,4.037,0,0,1-3.112,1.595c-.011,0-.018,0-.02-.007s.008-.028.026-.054a.306.306,0,0,0,.071-.167c0-1.651-1.136-3.434-2.971-3.434a2.937,2.937,0,0,0-.622.068,3.484,3.484,0,0,0-2.581,3.594,3.957,3.957,0,0,0,1.646,2.833,6.971,6.971,0,0,0,4.314,1.359c.186,0,.378-.006.569-.019a1.651,1.651,0,0,0,.353-.025l-.036.055,0,.005a1.62,1.62,0,0,0-.088.143,1.893,1.893,0,0,0-.064,1.753,2.042,2.042,0,0,0,1.507,1.1,2.585,2.585,0,0,0,.368.027,3.744,3.744,0,0,0,2.719-1.394c.06,0,.121.007.181.007,1.516,0,2.432-1.437,2.755-2.055a2.6,2.6,0,0,0,2.025-2.278,2.993,2.993,0,0,0,1.795-2.048c1.033,2.871-.214,4.884-1.124,6.354l-.013.021c-.785,1.25-1.406,2.238-.531,3.239a3.6,3.6,0,0,0,2.6,1.113h.108a5.27,5.27,0,0,0,2.978-.886.129.129,0,0,1,.074-.039.036.036,0,0,1,.027.012c.038.04.034.172.029.313v.015c0,.043,0,.087,0,.129a3.892,3.892,0,0,1-1.771,3.011c-.007.006-.011.01-.014.01s0-.018,0-.037a.326.326,0,0,0-.034-.2,3.582,3.582,0,0,0-2.916-1.712,2.69,2.69,0,0,0-1.916.8,3.506,3.506,0,0,0-.254,4.427,4.053,4.053,0,0,0,2.91,1.492,5.476,5.476,0,0,0,.548.027,7.429,7.429,0,0,0,4.283-1.493c.047-.036.09-.072.13-.107s.1-.081.149-.121v.228a1.851,1.851,0,0,0,.935,1.543,2.138,2.138,0,0,0,.985.239,2.244,2.244,0,0,0,.838-.164,3.57,3.57,0,0,0,1.872-2.783c1.479-.8,1.465-2.584,1.391-3.314a2.579,2.579,0,0,0,.481-2.985,2.066,2.066,0,0,0,.557-1.416,6.633,6.633,0,0,1,.38,3.542c-.124,1.282-.221,2.295.885,2.732a2.641,2.641,0,0,0,1,.192,3.427,3.427,0,0,0,1.4-.319,4.389,4.389,0,0,0,2.024-1.82,4.166,4.166,0,0,1,.1,2.79c-.036.071-.074.106-.114.106a.071.071,0,0,1-.039-.012,3.36,3.36,0,0,0-1.674-.457,2.445,2.445,0,0,0-2.45,1.67,3.07,3.07,0,0,0,1.569,3.542,2.793,2.793,0,0,0,.549.212Zm50.645-23.794a2.853,2.853,0,0,0-1.81.634,3.488,3.488,0,0,0-1.364,3.332,2.415,2.415,0,0,0,1.869,1.854,2.6,2.6,0,0,0,.664.085,3.581,3.581,0,0,0,2.573-1.241,3.059,3.059,0,0,0,.862-2.309A2.742,2.742,0,0,0-3424.912-7796.8Zm1.695-16.065a2.854,2.854,0,0,0-1.811.634,3.5,3.5,0,0,0-1.382,3.32,2.409,2.409,0,0,0,1.89,1.842,2.575,2.575,0,0,0,.654.085,3.589,3.589,0,0,0,2.557-1.231,3.078,3.078,0,0,0,.887-2.295A2.743,2.743,0,0,0-3423.217-7812.86Zm-59.889-2.758a1.725,1.725,0,0,0-1.095.383,2.535,2.535,0,0,0-.759,1.062,1.621,1.621,0,0,0,.1,1.291,1.647,1.647,0,0,0,1.037.809,1.6,1.6,0,0,0,.422.056,2.128,2.128,0,0,0,1.551-.743,1.8,1.8,0,0,0,.481-1.387A1.719,1.719,0,0,0-3483.106-7815.618Zm46.748-2.193a2.539,2.539,0,0,0-1.6.552,3.175,3.175,0,0,0-1.139,1.569,2.353,2.353,0,0,0,.145,1.875,2.287,2.287,0,0,0,1.45,1.111,2.266,2.266,0,0,0,.574.073,3.152,3.152,0,0,0,2.264-1.088,2.68,2.68,0,0,0,.755-2.022A2.388,2.388,0,0,0-3436.359-7817.812Zm-39.917-1.551a1.72,1.72,0,0,0-1.094.383,2.526,2.526,0,0,0-.76,1.062,1.67,1.67,0,0,0,.108,1.323,1.643,1.643,0,0,0,1.031.8,1.547,1.547,0,0,0,.414.056,2.111,2.111,0,0,0,1.521-.728,1.88,1.88,0,0,0,.519-1.428A1.719,1.719,0,0,0-3476.276-7819.362Zm8.171-7.312a1.722,1.722,0,0,0-1.094.383,2.5,2.5,0,0,0-.759,1.062,1.617,1.617,0,0,0,.1,1.29,1.647,1.647,0,0,0,1.037.811,1.613,1.613,0,0,0,.422.055,2.111,2.111,0,0,0,1.525-.724,1.847,1.847,0,0,0,.508-1.406A1.719,1.719,0,0,0-3468.1-7826.674Zm-8.184-.233a1.745,1.745,0,0,0-1.107.388,2.523,2.523,0,0,0-.759,1.062,1.619,1.619,0,0,0,.1,1.292,1.641,1.641,0,0,0,1.036.808,1.55,1.55,0,0,0,.416.056,2.119,2.119,0,0,0,1.528-.732,1.841,1.841,0,0,0,.51-1.4A1.687,1.687,0,0,0-3476.288-7826.907Zm22.849-1.3a2.142,2.142,0,0,0-1.34.476,2.668,2.668,0,0,0-.935,1.29,2.094,2.094,0,0,0,.127,1.543l.014.031a.461.461,0,0,0,.087.147,2.033,2.033,0,0,0,1.137.782,2.285,2.285,0,0,0,.511.058,2.018,2.018,0,0,0,.907-.208.943.943,0,0,1,.114-.064,1.026,1.026,0,0,0,.114-.063c1.266-.825,1.414-1.68,1.315-2.252a1.693,1.693,0,0,0-.355-.909,2.4,2.4,0,0,0-.735-.608A2.228,2.228,0,0,0-3453.439-7828.208Zm11.489-.5a2.108,2.108,0,0,0-1.318.471,3,3,0,0,0-.935,1.29,2.1,2.1,0,0,0,.127,1.545c.019.029.034.058.049.085a.507.507,0,0,0,.076.117,2.032,2.032,0,0,0,1.139.785,2.4,2.4,0,0,0,.507.055,2,2,0,0,0,.909-.208,1.2,1.2,0,0,1,.107-.059,1.094,1.094,0,0,0,.121-.068,2.287,2.287,0,0,0,1.292-2.252,1.7,1.7,0,0,0-.354-.909,1.943,1.943,0,0,0-.735-.608A2.145,2.145,0,0,0-3441.95-7828.71Zm-19.668-5.109a2.083,2.083,0,0,0-1.332.469,2.689,2.689,0,0,0-.935,1.292,1.943,1.943,0,0,0,.129,1.54,1.972,1.972,0,0,0,1.236.964,1.845,1.845,0,0,0,.477.062,2.6,2.6,0,0,0,1.868-.9,2.2,2.2,0,0,0,.616-1.666A2.015,2.015,0,0,0-3461.618-7833.82Zm20.759,60.817h-33.009a4.491,4.491,0,0,0,.6-.186,6.325,6.325,0,0,0,3.161-3.088,1.659,1.659,0,0,0,1.464.854,1.845,1.845,0,0,0,1.394-.65,3.051,3.051,0,0,0,.38-2.86,2.8,2.8,0,0,0-.228-3.035,2.2,2.2,0,0,0-.759-2.454.2.2,0,0,1,.012-.051.2.2,0,0,0,.012-.05,2.906,2.906,0,0,0-.909-2.3c6.895-1.439,11.178-5.354,11.459-10.473a5.529,5.529,0,0,0-1.521-4,4.388,4.388,0,0,0-3.165-1.445,4.053,4.053,0,0,0-1.259.2c-3.389,1.113-3.264,3.522-3.164,5.458a2.261,2.261,0,0,1-.528,1.742,2.71,2.71,0,0,1-2,.743h-.111a9.557,9.557,0,0,1-5.579-2.274,9.217,9.217,0,0,1-3.519-6.1,13.416,13.416,0,0,1,.767-6.144,15.615,15.615,0,0,1,3.2-5.136,20.721,20.721,0,0,1,10.705-6.025,14.151,14.151,0,0,1,2.945-.317c7.554,0,12.556,6.317,14.865,10.083a40.23,40.23,0,0,1,3.915,8.58,48.7,48.7,0,0,1,2.028,9.433,57.71,57.71,0,0,1-1.157,19.489Zm-152.7,0h-3.593a8.69,8.69,0,0,0-1.511-3.7,4.234,4.234,0,0,0-1.236-1.161,2.416,2.416,0,0,0-1.242-.375,2.115,2.115,0,0,0-1.969,1.768,7.542,7.542,0,0,1-2.452,3.472h-4.485a10.226,10.226,0,0,1-.491-2.351l0-.018c-.428-3.848-1.015-9.117-7.424-12.669a15.961,15.961,0,0,1,2.941-1.315.919.919,0,0,0,.5.581,21.618,21.618,0,0,1,3.017,1.816,11.3,11.3,0,0,1,4.332,5.532,5.431,5.431,0,0,1-.347,4.644.872.872,0,0,0-.1.945,1.055,1.055,0,0,0,.913.57.883.883,0,0,0,.731-.394c1.383-1.871,1.226-4.524.618-6.382a13.464,13.464,0,0,0-5.029-6.462l-.034-.023-.006,0-.047-.033-.008-.006a20.574,20.574,0,0,0-1.993-1.284c.213-.014.423-.02.664-.02a14.66,14.66,0,0,1,5.873,1.412.9.9,0,0,0,.543,1.159,19.2,19.2,0,0,1,9.669,8.046,17.2,17.2,0,0,1,2.165,6.256Zm-5.574,0h-3.758a8.523,8.523,0,0,0,1.6-2.969c.054-.214.142-.323.263-.323.229,0,.529.379.747.656l.008.009.05.065.016.018a6.98,6.98,0,0,1,1.075,2.542Zm-13.823,0h-4.283a13.717,13.717,0,0,0,2.6-6.992c.077-.79.115-1.6.115-2.477a14.1,14.1,0,0,1,2.088,6.345.873.873,0,0,0-.735,1.043c.1.685.176,1.385.214,2.079Zm-6.9,0h-6.979c.269-.216.513-.4.745-.57l.081-.062c3.083-2.3,7.305-5.456,7.193-12.706a16.146,16.146,0,0,1,2.631,1.856,1.113,1.113,0,0,0-.232.735,21.658,21.658,0,0,1-.077,3.56,11.556,11.556,0,0,1-2.631,6.5,7.731,7.731,0,0,1-.731.688Zm-12.367,0h-14.536a13,13,0,0,1-3.7-2.583c-2.341-2.38-4.206-6.258-3.1-9.556a4.43,4.43,0,0,1,1.083-1.777,4.773,4.773,0,0,1,3.227-1.248,3.729,3.729,0,0,1,2.268.7,3.379,3.379,0,0,1,1.157,2.942,3.9,3.9,0,0,1-1.7,2.939l-.042.036-.007.006c-.688.621-1.231,1.111-1.257,1.733a2.139,2.139,0,0,0,.764,1.476,10.248,10.248,0,0,0,3.538,2.433,9.137,9.137,0,0,0,3.449.713,7.174,7.174,0,0,0,.864-.052,5.788,5.788,0,0,0,1.626-.5,2.134,2.134,0,0,0,1.171-1.527,2.337,2.337,0,0,0-.784-1.955,7.459,7.459,0,0,1-1.819-4.178c-.172-1.558-.02-2.58.468-3.124a1.545,1.545,0,0,1,1.224-.478,7.724,7.724,0,0,1,2.874.816,18.58,18.58,0,0,0,7.621,2.019,13.6,13.6,0,0,0,7.078-2.1,11.892,11.892,0,0,1-.309,3.171,1.281,1.281,0,0,0-.214-.02.872.872,0,0,0-.521.174,20.967,20.967,0,0,1-3.134,1.7,12.447,12.447,0,0,1-5.1,1.192,9.121,9.121,0,0,1-1.862-.186c-1.371-.3-3.2-1.166-3.829-2.633a.886.886,0,0,0-.83-.557,1.054,1.054,0,0,0-.861.454.9.9,0,0,0-.05.878c.948,2.146,3.32,3.326,5.223,3.714a10.46,10.46,0,0,0,2.2.226,14.7,14.7,0,0,0,5.887-1.347,20.674,20.674,0,0,0,2.2-1.123,14.758,14.758,0,0,1-4.489,4.952.917.917,0,0,0-.687-.327.965.965,0,0,0-.588.212,21.044,21.044,0,0,1-4.508,2.775Zm43.365-.416h0c-1.475,0-2.03-2.5-2.068-3.714.042,0,.083,0,.119,0a3.533,3.533,0,0,0,2.589-1.163,4.482,4.482,0,0,1,1.169,3.437,1.825,1.825,0,0,1-1.129,1.284A1.741,1.741,0,0,1-3588.859-7773.419Zm114.14-.746a1.718,1.718,0,0,1-.8-.189,1.812,1.812,0,0,1-.937-2.024,1.253,1.253,0,0,1,1.26-.824,2.194,2.194,0,0,1,1.068.293,2,2,0,0,0,.92.389c.3,0,.549-.213.8-.692a4.46,4.46,0,0,0,.2-3.972,1.661,1.661,0,0,0-1.343-1.027,1.1,1.1,0,0,0-.985.748,3.193,3.193,0,0,1-1.468,1.315,2.016,2.016,0,0,1-.826.185,1.622,1.622,0,0,1-.59-.108c-.26-.079-.2-.722-.127-1.467a7.074,7.074,0,0,0-1.012-5.111c.288.063.593.107.888.149l.017,0,.183.026a.654.654,0,0,0,.2.251,4.1,4.1,0,0,1,1.543,2.656,2.362,2.362,0,0,1-.355,1.595c-.279.28-.519.618-.178,1.012a.572.572,0,0,0,.434.217.953.953,0,0,0,.705-.445,3.438,3.438,0,0,0,.608-2.48,5.335,5.335,0,0,0-1.113-2.63l.079.006h.009c.3.023.574.044.873.044.06.087.13.176.2.176a8.141,8.141,0,0,1,3.441,4.226,6.639,6.639,0,0,1-.228,5.059,4.792,4.792,0,0,1-2.454,2.4A2.821,2.821,0,0,1-3474.719-7774.165Zm-9.562-1.593a.653.653,0,0,1-.7-.62,2.059,2.059,0,0,1,.836-1.491,1.994,1.994,0,0,0,1.214.657,2.067,2.067,0,0,1-1.012,1.391A.93.93,0,0,1-3484.281-7775.758Zm-6.509-.243a4.309,4.309,0,0,1-.443-.023,2.691,2.691,0,0,1-2.025-1.012,2.266,2.266,0,0,1,.127-2.807,1.447,1.447,0,0,1,1.038-.436,2.423,2.423,0,0,1,1.872,1.143c.3.494.562.921,1,.921a1.518,1.518,0,0,0,.818-.338,5.342,5.342,0,0,0,2.3-4.023,2.087,2.087,0,0,0-.509-1.484,1.021,1.021,0,0,0-.737-.326,1.474,1.474,0,0,0-.878.344,3.857,3.857,0,0,1-2.17.634h-.107a2.363,2.363,0,0,1-1.694-.709c-.249-.3.1-.894.658-1.771a8.358,8.358,0,0,0,1.694-5.691,13.9,13.9,0,0,0,1.393,1.062l.059.173c.055.162.106.311.144.461a4.588,4.588,0,0,1-.1,2.934,2.673,2.673,0,0,1-1.292,1.569.733.733,0,0,1-.2.049.594.594,0,0,0-.375.284.6.6,0,0,0-.055.475.6.6,0,0,0,.6.449.673.673,0,0,0,.154-.018c.056-.023.112-.041.166-.057h.006a1.35,1.35,0,0,0,.183-.067,3.962,3.962,0,0,0,1.973-2.278,6,6,0,0,0,.279-3.035c.421.234.846.459,1.341.708a9.8,9.8,0,0,1,1.315,6.325,8.033,8.033,0,0,1-3.011,5.289A6.12,6.12,0,0,1-3490.791-7776Zm22.183-.68a.448.448,0,0,1-.388-.229,1.563,1.563,0,0,1,.026-1.264,1.733,1.733,0,0,0,.546.083,2.374,2.374,0,0,0,.389-.034.173.173,0,0,0,.05-.013.189.189,0,0,1,.051-.013,1.542,1.542,0,0,1-.228,1.24A.592.592,0,0,1-3468.607-7776.681Zm-172.462-.418a8.108,8.108,0,0,1-5.64-2.587c-.035-.07.114-.2.338-.39l.014-.012.073-.064a5.36,5.36,0,0,0,2.32-4.292,5.181,5.181,0,0,0-1.971-4.564,4.4,4.4,0,0,0-.907-.441l0,0-.011,0c-.329-.129-.664-.261-.664-.364,0-.038,0-.038-.038-.117.275-.884,1.677-1.66,3-1.66a2.462,2.462,0,0,1,1.175.267,6.617,6.617,0,0,1,2.553,3.209c-1,.96-1.377,2.613-1.121,4.915a9.723,9.723,0,0,0,2.4,5.339c.132.14.184.267.15.366-.082.227-.578.3-.941.349l-.034,0-.026,0-.057.008-.02,0A5.1,5.1,0,0,1-3641.069-7777.1Zm158.439-1.338a.7.7,0,0,1-.71-.5,2.051,2.051,0,0,1,.505-1.67,2.1,2.1,0,0,0,1.214.38h.176a1.968,1.968,0,0,1-.58,1.595A1.078,1.078,0,0,1-3482.63-7778.437Zm-108.19-.562c-1.468,0-2.391-2.7-2.623-3.744a4.354,4.354,0,0,0,1.7-1.083,8.306,8.306,0,0,0,.67.506l.014.009c.873.622,2.068,1.473,2.1,2.455a1.848,1.848,0,0,1-.844,1.442A1.641,1.641,0,0,1-3590.82-7779Zm122.393-.312a.457.457,0,0,1-.341-.154,1.572,1.572,0,0,1-.228-1.264c.039,0,.083,0,.13,0a2.006,2.006,0,0,0,.882-.206.03.03,0,0,0,.024-.012.032.032,0,0,1,.026-.014,1.488,1.488,0,0,1,.1,1.24A.706.706,0,0,1-3468.427-7779.311Zm-13.242-2.177a.678.678,0,0,1-.608-.328,2.088,2.088,0,0,1,.127-1.7,2.225,2.225,0,0,0,1.15.307c.043,0,.09,0,.139,0a1.368,1.368,0,0,1-.05,1.341A.952.952,0,0,1-3481.67-7781.488Zm-113.477-.253h0c-.088-.1-.168-.212-.238-.306l-.045-.06-.008-.012-.039-.052-.026-.035c-.048-.064-.1-.129-.145-.189h.349c.02.118.05.235.079.348v.006l.007.025c.026.1.051.188.067.274Zm126.317-.231a.442.442,0,0,1-.242-.072,1.578,1.578,0,0,1-.507-1.139,2.588,2.588,0,0,0,.961-.253,1.011,1.011,0,0,1,.406.911A.681.681,0,0,1-3468.829-7781.972Zm-126.45-2.36a2.49,2.49,0,0,1-1.183-.268,6.542,6.542,0,0,1-2.474-3.213c.986-.864,1.389-2.5,1.2-4.871a9.731,9.731,0,0,0-2.4-5.338c-.147-.145-.2-.271-.17-.375.073-.221.565-.291.925-.341h.007l.053-.006.073-.012a5.1,5.1,0,0,1,.59-.034,8.113,8.113,0,0,1,5.64,2.585.033.033,0,0,1,.018.024c0,.066-.162.231-.444.442a5.562,5.562,0,0,0-2.361,4.294,5.178,5.178,0,0,0,1.9,4.564,5.729,5.729,0,0,0,1.509.812v.077C-3592.547-7785.042-3594.042-7784.332-3595.279-7784.332Zm114.253-.094a1.733,1.733,0,0,1-.974-.453,3.134,3.134,0,0,1-.707-2.807c.175.065,1.56.476,1.98.6l.019.005a.641.641,0,0,0,.015.284l.009.045c.34.995.367,1.75.077,2.125A.5.5,0,0,1-3481.026-7784.425Zm11.411-.043a1.75,1.75,0,0,1-.52-.081,2.467,2.467,0,0,1-1.492-1.82c.525-.051,1.064-.127,1.569-.2a.468.468,0,0,0,.176.3c.613.613.893,1.115.834,1.492C-3469.1-7784.509-3469.425-7784.469-3469.615-7784.469Zm-158.208-1.62a14.915,14.915,0,0,1-5.887-1.413.907.907,0,0,0-.03-.7.91.91,0,0,0-.551-.459,19.232,19.232,0,0,1-9.673-8.048,17.242,17.242,0,0,1-2.132-6.044,13.263,13.263,0,0,1,.273-5.521,12.8,12.8,0,0,1,2.375-4.647,7.662,7.662,0,0,1,4.318-2.819,6.044,6.044,0,0,1,.941-.08,4.032,4.032,0,0,1,1.149.157,4.376,4.376,0,0,1,3.211,4.487,3.317,3.317,0,0,1-1.973,2.476,3.515,3.515,0,0,1-1.6.39,5.2,5.2,0,0,1-1.806-.39l-.012,0-.006,0a5.352,5.352,0,0,0-1.616-.414c-.71,0-1.147.461-1.46,1.541a10.579,10.579,0,0,0-.238,4.861,8.627,8.627,0,0,0,1.476,3.495,4.214,4.214,0,0,0,1.238,1.161,2.421,2.421,0,0,0,1.242.375,2.119,2.119,0,0,0,1.969-1.767,7.59,7.59,0,0,1,2.708-3.635,4.87,4.87,0,0,1,2.636-1.2,1.577,1.577,0,0,1,1.456,1.038,8.214,8.214,0,0,1,.626,2.71l0,.014c.426,3.849,1.009,9.12,7.424,12.674a12.765,12.765,0,0,1-2.823,1.278.931.931,0,0,0-.5-.581,18.959,18.959,0,0,1-3.056-1.856,11.077,11.077,0,0,1-4.332-5.493,5.453,5.453,0,0,1,.349-4.643.868.868,0,0,0,.1-.945,1.049,1.049,0,0,0-.911-.571.882.882,0,0,0-.731.395c-1.377,1.862-1.222,4.5-.618,6.345a13.443,13.443,0,0,0,5.029,6.458l.01.01.082.058a20.9,20.9,0,0,0,1.994,1.288C-3627.416-7786.094-3627.628-7786.088-3627.823-7786.088Zm126.917-.365a1.339,1.339,0,0,1-.22-.018.775.775,0,0,1-.578-.4.657.657,0,0,1,.021-.611,2.1,2.1,0,0,1,1.519-.811,2.035,2.035,0,0,0,.681,1.188A2.212,2.212,0,0,1-3500.906-7786.453Zm-89.623-1.19a3.7,3.7,0,0,1-2.256-.707,3.426,3.426,0,0,1-1.161-2.979,3.913,3.913,0,0,1,1.7-2.939l.012-.01c.726-.632,1.3-1.13,1.329-1.761a2.123,2.123,0,0,0-.761-1.479,10.3,10.3,0,0,0-3.54-2.433,9.162,9.162,0,0,0-3.451-.715,6.983,6.983,0,0,0-.862.054,5.744,5.744,0,0,0-1.625.5,2.128,2.128,0,0,0-1.171,1.527,2.337,2.337,0,0,0,.784,1.955,7.341,7.341,0,0,1,1.819,4.138c.172,1.56.02,2.582-.468,3.124a1.539,1.539,0,0,1-1.224.477,7.781,7.781,0,0,1-2.874-.814l-.032-.014a18.568,18.568,0,0,0-7.6-2.023,13.464,13.464,0,0,0-7.066,2.114,16.474,16.474,0,0,1,.128-2.39l0-.026v-.006l0-.01c.022-.206.042-.4.059-.586a1.255,1.255,0,0,0,.218.02.854.854,0,0,0,.517-.174,20.4,20.4,0,0,1,3.1-1.7,13.2,13.2,0,0,1,5.18-1.187,8.637,8.637,0,0,1,1.781.18c1.387.292,3.233,1.155,3.869,2.631a.887.887,0,0,0,.83.557,1.047,1.047,0,0,0,.86-.454.9.9,0,0,0,.052-.877c-.951-2.148-3.321-3.326-5.221-3.712a10.892,10.892,0,0,0-2.278-.236,14.485,14.485,0,0,0-5.806,1.317c-.6.268-1.28.614-2.2,1.123a14.747,14.747,0,0,1,4.485-4.952.994.994,0,0,0,.689.307.9.9,0,0,0,.588-.23,19.223,19.223,0,0,1,11.838-4.332,17.345,17.345,0,0,1,6.3,1.175,13.282,13.282,0,0,1,4.647,3c2.354,2.4,4.237,6.28,3.134,9.556a4.252,4.252,0,0,1-1.083,1.739A4.8,4.8,0,0,1-3590.529-7787.644Zm92.489-.186a1.049,1.049,0,0,1-.9-.445.452.452,0,0,1,.117-.5l-.026-.026a2,2,0,0,1,1.264-1.087,2.063,2.063,0,0,0,.836.96.33.33,0,0,0,.092.049l.058.026a1.832,1.832,0,0,1-1.315,1.012A.89.89,0,0,1-3498.04-7787.829Zm-5.454-1.665a5.987,5.987,0,0,1-3.576-1.1,2.708,2.708,0,0,1-1.163-1.923,2.229,2.229,0,0,1,1.593-2.3,1.676,1.676,0,0,1,.349-.038c1.066,0,1.725,1.136,1.725,2.189,0,.888,0,1.474,1.044,1.474.065,0,.131,0,.2-.006a5.314,5.314,0,0,0,4.1-2.151,2.447,2.447,0,0,0,.38-.885,1.2,1.2,0,0,0-.127-.937,1.188,1.188,0,0,0-1.1-.563c-.052,0-.109,0-.168.007s-.105.007-.169.007a3.925,3.925,0,0,1-2.082-.69,2.279,2.279,0,0,1-1.064-1.491c-.075-.378.61-.71,1.478-1.132l.016-.007.14-.07c1.542-.77,3.459-1.726,4.463-4.13.129.385.325.964.557,1.543a3.257,3.257,0,0,1-.111.5c-.015.054-.029.105-.042.156a4.673,4.673,0,0,1-1.644,2.429,2.918,2.918,0,0,1-1.712.649,1.76,1.76,0,0,1-.235-.016.59.59,0,0,0-.091-.022l-.01,0a.355.355,0,0,1-.1-.027.627.627,0,0,0-.188-.028.617.617,0,0,0-.6.435.6.6,0,0,0,.041.464.607.607,0,0,0,.363.294,1.95,1.95,0,0,0,.354.1,2.9,2.9,0,0,0,.4.028,4.28,4.28,0,0,0,2.455-.888,5.954,5.954,0,0,0,1.8-2.354,4.731,4.731,0,0,0,.287.493,1.907,1.907,0,0,1,.4.924c0,.025,0,.049.026.049a9.229,9.229,0,0,1-2.2,6.149,8.021,8.021,0,0,1-5.336,2.858C-3503.191-7789.5-3503.341-7789.494-3503.494-7789.494Zm-117.414-.057h0a16.5,16.5,0,0,1-2.552-1.817,1.115,1.115,0,0,0,.232-.735,21.461,21.461,0,0,1,.077-3.56,11.565,11.565,0,0,1,2.631-6.5,5.983,5.983,0,0,1,3.855-2.034,2.847,2.847,0,0,1,.363.024h.031l.076,0a.927.927,0,0,0,.923-.925.891.891,0,0,0-.836-.975,5,5,0,0,0-.586-.036,7.442,7.442,0,0,0-5.255,2.667,13.635,13.635,0,0,0-3.1,7.581c-.077.776-.115,1.586-.115,2.476a14.063,14.063,0,0,1-2.05-6.345.894.894,0,0,0,.735-1.044,19.218,19.218,0,0,1,2.127-12.416,15.531,15.531,0,0,1,9.092-7.389,13.254,13.254,0,0,1,3.253-.406c1.631,0,4.654.324,6.571,2.5a4.414,4.414,0,0,1,1.006,1.816,4.453,4.453,0,0,1-2.282,5.029,2.718,2.718,0,0,1-1.078.224,3.844,3.844,0,0,1-2.056-.689,3.862,3.862,0,0,1-1.671-2.79l-.013-.062-.02-.087,0-.024c-.252-1.295-.433-2.23-1.62-2.23a3.676,3.676,0,0,0-.887.127,9.567,9.567,0,0,0-6.654,5.224,4.746,4.746,0,0,0-.388,1.662,2.207,2.207,0,0,0,.563,1.638,1.98,1.98,0,0,0,1.456.563,3.154,3.154,0,0,0,.806-.111,4.985,4.985,0,0,1,1.343-.162,8.175,8.175,0,0,1,3.181.666c1.609.73,2.432,1.479,2.516,2.288.087.864-.653,1.817-2.4,3.09l-.119.089c-3.067,2.288-7.266,5.421-7.153,12.673Zm125.306-.309a.958.958,0,0,1-.685-.27.654.654,0,0,1-.184-.492c.021-.309.214-.8,1.012-1.367a2.357,2.357,0,0,0,.937.937,1.51,1.51,0,0,1-.761,1.139A.967.967,0,0,1-3495.6-7789.859Zm1.911-2.221c-.463,0-.781-.64-.883-1.07a3.062,3.062,0,0,1,.885-2.656c.35.482.78,1.021,1.315,1.644a1.231,1.231,0,0,0-.075.227c-.244,1-.622,1.646-1.062,1.823A.564.564,0,0,1-3493.69-7792.081Zm-154.294-.022,0,0c-.169-.146-.41-.319-.665-.5l-.014-.011,0,0c-.872-.62-2.065-1.47-2.1-2.452a1.859,1.859,0,0,1,.846-1.442,1.63,1.63,0,0,1,1.014-.416c1.468,0,2.391,2.7,2.623,3.744a5.384,5.384,0,0,0-1.7,1.082Zm222.434-.019a1.327,1.327,0,0,1-.338-.042,1.224,1.224,0,0,1-.976-.948,2.266,2.266,0,0,1,.927-2.063,1.654,1.654,0,0,1,1.04-.354,1.467,1.467,0,0,1,1.539,1.216,1.9,1.9,0,0,1-.57,1.369A2.341,2.341,0,0,1-3425.55-7792.122Zm-48.29-.5c-.239,0-.482-.007-.722-.022l.2-.96a13.758,13.758,0,0,0,3.542.557A10.557,10.557,0,0,1-3473.84-7792.624Zm-1.962-.146h0a14.635,14.635,0,0,1-2.679-.66l.759-1.541a18.245,18.245,0,0,0,2.149.96l-.228,1.239Zm-168.278-.765h-.347c0-.018-.006-.035-.01-.053l0-.014c0-.013-.005-.026-.007-.04l0-.014a4.124,4.124,0,0,0-.134-.537c.113.133.209.264.294.38l0,.006,0,0,.01.014.032.044c.054.073.1.143.158.207h0Zm164.433-.349h0a17.117,17.117,0,0,1-2.5-1.341l1.264-1.822a18.141,18.141,0,0,0,2.076,1.468l-.835,1.695Zm-3.516-2.024h0a22.127,22.127,0,0,1-2.073-1.745l1.719-1.975a22.145,22.145,0,0,0,1.7,1.773l-1.341,1.946Zm-168.381-1.728h0a4.489,4.489,0,0,1-1.17-3.436,1.816,1.816,0,0,1,1.131-1.282,1.777,1.777,0,0,1,.691-.157c1.585,0,2.026,2.75,2.056,3.714h-.121a3.655,3.655,0,0,0-2.586,1.162Zm4.873-.275h0l-.019-.019a1,1,0,0,0-.208-.171v-.386l.087.22.058.146.085.208Zm160.572-.653h0a17.109,17.109,0,0,1-1.77-2.251l2.379-1.745a15.951,15.951,0,0,0,1.188,1.9l-1.8,2.1Zm-152.581-1.03c-.271,0-.624-.5-.793-.743a7.892,7.892,0,0,1-.93-6.7.077.077,0,0,1,.081-.05,1.207,1.207,0,0,1,.319.088l.006,0,.008,0,.012,0c.062.023.124.046.192.069l.008,0a7.087,7.087,0,0,0,2.427.515,5.406,5.406,0,0,0,2.48-.634,5.093,5.093,0,0,0,2.977-3.909,4.161,4.161,0,0,0-.038-1.7.036.036,0,0,1,.038-.038,1.171,1.171,0,0,1,.43-.077,2.831,2.831,0,0,1,1.846.935,3.068,3.068,0,0,1,.973,1.965,6.1,6.1,0,0,1-1.547,3.714,3.05,3.05,0,0,0-.909-.135,6.879,6.879,0,0,0-3.886,1.644,9.63,9.63,0,0,0-3.405,4.719C-3638.457-7799.7-3638.553-7799.594-3638.68-7799.594Zm150.153-2.258h0a19.3,19.3,0,0,1-1.364-2.833l2.959-1.492a16.377,16.377,0,0,0,.885,2.5l-2.479,1.822Zm-19.609-.551a.992.992,0,0,1-.679-.208l-.012-.011-.009-.007a.97.97,0,0,1-.407-.689.608.608,0,0,1,.25-.457,1.654,1.654,0,0,1,1.014-.27,3.848,3.848,0,0,1,.682.067,1.962,1.962,0,0,0,.2,1.367A3.227,3.227,0,0,1-3508.136-7802.4Zm3.086-.31a1.024,1.024,0,0,1-.325-.05.934.934,0,0,1-.651-.566.673.673,0,0,1,.094-.648.032.032,0,0,1,.012-.025.036.036,0,0,0,.013-.026,2.11,2.11,0,0,1,1.593-.531,2,2,0,0,0,.531,1.341A2.248,2.248,0,0,1-3505.05-7802.713Zm-142.936-.03h0l-.012-.018-.006-.008a4.5,4.5,0,0,0-.365-.438c.024-.141.056-.29.082-.409l.01-.044,0-.018,0-.019v-.006a7.452,7.452,0,0,0,.132-.74,8.678,8.678,0,0,0,.152,1.7Zm145.824-.98h0a1.011,1.011,0,0,1-.38-.078.837.837,0,0,1-.465-.456.814.814,0,0,1,.035-.631,2.178,2.178,0,0,1,1.391-.834,2.439,2.439,0,0,0,.557,1.214A1.584,1.584,0,0,1-3502.162-7803.724Zm-150.737-.024h0c-.4-.932-.779-2.7-.191-3.759a1.561,1.561,0,0,1,1.2-.8,1.754,1.754,0,0,1,.275-.022,1.262,1.262,0,0,1,1.018.474c.69.829.669,2.591.487,3.573a3.508,3.508,0,0,0-.808-.1,3.4,3.4,0,0,0-1.978.635Zm61.5-.432h0c-.381-.2-.783-.386-1.173-.562l-.094-.042-.093-.042-.066-.03-.111-.05.016,0a2.913,2.913,0,0,0,.564-.076c.375.334.666.585.957.8Zm3.87-.386h0a5.781,5.781,0,0,1-3.049-1.384,3.419,3.419,0,0,0,.929-2.67c1,.1,2.719.641,3.348,1.682a1.562,1.562,0,0,1,.095,1.452A1.314,1.314,0,0,1-3587.53-7804.566Zm87.862-.625h-.042a.561.561,0,0,1-.479-.3,1.687,1.687,0,0,1-.153-1.038,3.065,3.065,0,0,1,1.67-2.074c.108.87.24,1.647.4,2.377C-3498.78-7805.56-3499.277-7805.191-3499.668-7805.191Zm9.346-.71h0a20.153,20.153,0,0,1-.556-2.3l3.49-.531.009.075c.047.4.1.807.169,1.189l-3.111,1.568Zm-117.643,0a11.065,11.065,0,0,1-1.3-.085c-.277-1.3-1.526-2.463-3.714-3.443a10.091,10.091,0,0,0-4-.828,7.061,7.061,0,0,0-1.8.21.7.7,0,0,1-.206.038.2.2,0,0,1-.182-.081c-.131-.195.072-.689.207-1.017l.007-.018.02-.045a6.664,6.664,0,0,1,1.828-2.389,8.414,8.414,0,0,1,3.508-1.751c.071,0,.11.2.176.52l0,.013.016.087.008.042v.005a5.526,5.526,0,0,0,2.544,4.131,5.7,5.7,0,0,0,3.086.984,4.808,4.808,0,0,0,1.826-.365,6.012,6.012,0,0,0,1.432-.889l.04.038a1.837,1.837,0,0,1,.527,1.576,3.457,3.457,0,0,1-1.341,2.641A5.077,5.077,0,0,1-3607.965-7805.905Zm10.764-.2h0a2.928,2.928,0,0,1-.592-.075l-.02,0a.922.922,0,0,1,.121-.053l.014-.007a1.229,1.229,0,0,0,.135-.057l.029.019.006,0a1.525,1.525,0,0,0,.31.169Zm-5.758,0v0c.09-.136.157-.237.194-.309l.038.012.071.024.038.013a2.934,2.934,0,0,0,.511.145l-.123.017-.289.039-.014,0-.143.02-.281.038Zm95.81-.132a6.925,6.925,0,0,1-2.046-.3,6.012,6.012,0,0,1-3.364-2.454,2.928,2.928,0,0,1-.38-2.227,2.322,2.322,0,0,1,2.048-1.591,1.643,1.643,0,0,1,.279.024,1.455,1.455,0,0,1,1.068.724,2.464,2.464,0,0,1,.1,2.033c-.2.521-.358.931-.2,1.261a1.275,1.275,0,0,0,.832.559,5.764,5.764,0,0,0,1.759.278,4.933,4.933,0,0,0,2.819-.835,2.44,2.44,0,0,0,.683-.684,1.3,1.3,0,0,0,.228-.935,1.275,1.275,0,0,0-.987-.961,3.744,3.744,0,0,1-1.872-1.442,2.154,2.154,0,0,1-.456-1.771c.074-.37.759-.451,1.8-.532,1.869-.151,4.429-.357,6.4-2.934-.121.6-.194,1.221-.265,1.82l-.012.1a.654.654,0,0,0-.279.254,3.558,3.558,0,0,1-.429.674l-.027.035a4.8,4.8,0,0,1-2.429,1.67,3.894,3.894,0,0,1-.94.123,2.319,2.319,0,0,1-1.108-.25.751.751,0,0,0-.079-.066.741.741,0,0,1-.073-.06.6.6,0,0,0-.384-.136.645.645,0,0,0-.5.237.624.624,0,0,0-.138.478.593.593,0,0,0,.239.407c.046.027.089.055.13.082l.014.009a1.757,1.757,0,0,0,.186.112,3.539,3.539,0,0,0,1.717.414,4.467,4.467,0,0,0,1.268-.186,5.783,5.783,0,0,0,2.656-1.618c-.026.632-.026,1.275-.026,1.9a9.6,9.6,0,0,1-4.223,4.756A8.506,8.506,0,0,1-3507.149-7806.238Zm-86.052-.563a7.036,7.036,0,0,1-2.795-.776,3.5,3.5,0,0,0,.347-2.9,5.329,5.329,0,0,1,.994-.089,3.769,3.769,0,0,1,2.666.915,1.851,1.851,0,0,1,.442,1.5A1.434,1.434,0,0,1-3593.2-7806.8Zm-6.436-1a9.326,9.326,0,0,1-2.51-.392,4.224,4.224,0,0,0-.077-1.973c.212-.075.473-.2.775-.335l.01,0,.014-.008.006,0a6.445,6.445,0,0,1,2.431-.768c.872,0,1.382.53,1.561,1.62a1.481,1.481,0,0,1-.273,1.242A2.479,2.479,0,0,1-3599.637-7807.8Zm175.742-.413a1.443,1.443,0,0,1-.323-.036,1.244,1.244,0,0,1-.992-.931,2.332,2.332,0,0,1,.94-2.08,1.647,1.647,0,0,1,1.024-.339,1.481,1.481,0,0,1,1.557,1.225,1.745,1.745,0,0,1-.516,1.3A2.4,2.4,0,0,1-3423.9-7808.216Zm-67.162-1.2h0a12.132,12.132,0,0,1-.1-1.39l3.744-.253c-.024.38-.024.74-.024,1.087l-3.618.557Zm-136.119-2.26v0l-.011-.024,0-.007c0-.008-.007-.016-.011-.024l-.006-.016,0-.005a1.479,1.479,0,0,0-.121-.23,5.263,5.263,0,0,0,.477-.437l.005,0,.021-.021-.043.1,0,.008c-.121.286-.216.5-.3.66Zm135.991-.345h0c0-.527.026-1.063.077-1.593l4.021-.076a13.537,13.537,0,0,0-.228,1.391l-3.87.279Zm7.807-1.228a.312.312,0,0,1-.09-.012.366.366,0,0,1-.25-.168.449.449,0,0,1-.029-.363.946.946,0,0,1,.355-.456.491.491,0,0,1,.325-.117.514.514,0,0,1,.408.192.218.218,0,0,1,.077.152.7.7,0,0,1-.223.453A.9.9,0,0,1-3483.376-7813.25Zm-145.189-.167h0a4.939,4.939,0,0,0-1.779-.968,8.685,8.685,0,0,0,.113-.892c.128-1.344.3-3.185,1.783-3.185a2.733,2.733,0,0,1,.967.208,1.461,1.461,0,0,1,1.008,1.093c.234,1.327-1.429,3.152-2.09,3.744Zm209.56-.376h0c-.723-.937-1.4-1.789-2.073-2.606l6.349-4.806c.937,1.21,1.8,2.474,2.454,3.441l-6.728,3.971Zm-17.889-.091a1.075,1.075,0,0,1-.276-.036,1.077,1.077,0,0,1-.67-.52,1.144,1.144,0,0,1-.063-.9,2.169,2.169,0,0,1,.733-.962,1.3,1.3,0,0,1,.8-.268,1.159,1.159,0,0,1,1.22.951,1.511,1.511,0,0,1-.459,1.075A1.845,1.845,0,0,1-3436.9-7813.884Zm-54.083-1h0c.035-.221.075-.445.115-.662.048-.264.1-.531.137-.8h4.326c-.036.117-.073.231-.109.344l-.012.038,0,.006c-.11.345-.214.671-.306,1Zm-133.643-1.2v0a.671.671,0,0,1,.015-.129l0-.023a.739.739,0,0,0,.02-.156,1.251,1.251,0,0,1,.286-.181l.023-.012a2.643,2.643,0,0,0-.331.476l-.016.026Zm148.037-.889a.343.343,0,0,1-.077-.008.413.413,0,0,1-.26-.2.418.418,0,0,1-.017-.328,1.051,1.051,0,0,1,.353-.456.542.542,0,0,1,.343-.115.433.433,0,0,1,.468.343.666.666,0,0,1-.213.445A.91.91,0,0,1-3476.584-7816.975Zm54.668-.36h0c-.636-.714-1.292-1.42-1.947-2.1l5.768-5.719c.968,1.024,1.811,2,2.579,2.985l-6.4,4.833Zm-64-.253h-4.5a24.311,24.311,0,0,1,.935-2.809l4.479.81c-.365.7-.654,1.388-.908,1.992l0,.006Zm-139.048-.82h0a3.3,3.3,0,0,0-2.4-1.741c.414-1.129,1.542-2.807,2.949-2.807a1.916,1.916,0,0,1,1.151.41,1.382,1.382,0,0,1,.654,1.2c-.048,1.126-1.47,2.4-2.355,2.939Zm121.155-.954a1.277,1.277,0,0,1-.626-.15,1.31,1.31,0,0,1-.69-1.023.929.929,0,0,1,.361-.848,1.83,1.83,0,0,1,1.113-.3,5.03,5.03,0,0,1,1.214.174,2.681,2.681,0,0,0-.15,1.773A2.5,2.5,0,0,1-3503.814-7819.362Zm3.458-.119a1.317,1.317,0,0,1-.669-.156.733.733,0,0,1-.38-.479,1.984,1.984,0,0,1,.356-1.4l.05-.049a.127.127,0,0,0,.025-.038.131.131,0,0,1,.026-.038,3.756,3.756,0,0,1,3.122-1.313c.186,0,.356.007.521.021-.286.933-.533,1.86-.735,2.758a.583.583,0,0,0-.169-.025.613.613,0,0,0-.512.278A4.137,4.137,0,0,1-3500.355-7819.481Zm-120.745-.242v0c.032-.083.068-.167.115-.267l.01-.026c.038-.083.074-.166.107-.246a10.123,10.123,0,0,0,1.161-.424c-.462.306-.917.608-1.391.963Zm114.09-.1a2.245,2.245,0,0,1-1.577-.552,1.385,1.385,0,0,1-.379-1.167.948.948,0,0,1,.555-.706h.052a1.538,1.538,0,0,1,.575-.1,3.8,3.8,0,0,1,1.727.532,2.176,2.176,0,0,0-.3,1.569c.014.073.028.135.042.2v.006c.01.047.021.095.031.146A3.977,3.977,0,0,1-3507.01-7819.82Zm82.261-.526h0c-.67-.649-1.561-1.5-2.5-2.3l4.863-6.527h.146a22.851,22.851,0,0,0,2.042,1.951l.008.007c.427.375.83.729,1.24,1.128l-5.793,5.742Zm-66.08-.076h0a2.179,2.179,0,0,1-.934-1.695,2.787,2.787,0,0,1,.808-2.024,2.62,2.62,0,0,1,1.894-.777,3.113,3.113,0,0,1,.333.018,34.247,34.247,0,0,0-2.1,4.478Zm6.452-.329h0l-4.6-.836c.276-.63.583-1.268.909-1.9l4.479,1.442c-.266.41-.512.828-.75,1.232l-.035.059Zm-25.831-.38h0a2.583,2.583,0,0,1-2.123-1.087,1.133,1.133,0,0,1-.085-1.025.905.905,0,0,1,.666-.518,1.205,1.205,0,0,1,.248-.022,3.261,3.261,0,0,1,1.929.907,2.372,2.372,0,0,0-.634,1.744Zm-110.623-1.147h0a3.5,3.5,0,0,0-1.818-2.164c.607-.819,1.955-2.036,3.177-2.036a1.561,1.561,0,0,1,1.272.644,1.329,1.329,0,0,1,.281,1.236c-.306,1.057-1.908,1.967-2.911,2.321Zm137.945-.852h0l-4.577-1.468c.426-.727.89-1.5,1.391-2.227l4.528,1.9c-.506.642-.957,1.246-1.341,1.8Zm54.721-.329h0c-.834-.695-1.587-1.29-2.3-1.82l4.53-6.832c.793.574,1.619,1.221,2.68,2.1l-4.906,6.552Zm-80.247-.049h0c-.18-.156-.366-.315-.526-.452l0,0a5.535,5.535,0,0,0,.86.4l-.014,0a1.185,1.185,0,0,0-.315.05Zm4.76-.353h0a9.107,9.107,0,0,1-6.758-2.785,7.438,7.438,0,0,1-2.227-4.681,3.544,3.544,0,0,1,.911-2.706,3.117,3.117,0,0,1,2.11-.816,2.43,2.43,0,0,1,1.484.462,1.939,1.939,0,0,1,.784,1.522,3.127,3.127,0,0,1-1.113,2.322l-.011.011c-.473.412-.847.738-.866,1.15a1.389,1.389,0,0,0,.5.965,6.5,6.5,0,0,0,4.57,2.057,4.528,4.528,0,0,0,.567-.035,3.7,3.7,0,0,0,1.062-.327,1.343,1.343,0,0,0,.709-.785,1.442,1.442,0,0,0-.456-1.468,4.81,4.81,0,0,1-1.19-2.708,2.923,2.923,0,0,1,.582-2.276.6.6,0,0,1,.477-.187,5.936,5.936,0,0,1,1.907.633l.021.009.027.012a12.06,12.06,0,0,0,4.958,1.32,8.239,8.239,0,0,0,2.858-.524l-.265.436-.008.012c-.344.563-.669,1.095-.967,1.654-.19.113-.393.211-.588.307l-.067.033-.129.064a6.054,6.054,0,0,1-2.467.53,5.769,5.769,0,0,1-1.2-.126,3.379,3.379,0,0,1-2.2-1.365,1.065,1.065,0,0,1-.127-.228.629.629,0,0,0-.58-.377.7.7,0,0,0-.254.048.658.658,0,0,0-.351.367.6.6,0,0,0,.022.467,2.575,2.575,0,0,0,.188.356l.014.024a4.768,4.768,0,0,0,2.985,1.922,6.812,6.812,0,0,0,1.475.161,7.191,7.191,0,0,0,2.319-.389c-.3.618-.68,1.428-1.01,2.227A12.828,12.828,0,0,1-3503.652-7823.86Zm6.751-.281h0l-.035-.006a2.726,2.726,0,0,0-.419-.044,3.444,3.444,0,0,0,.484-.248l.007,0,.032-.019.06-.035a1.444,1.444,0,0,0-.127.354Zm28.505-.165a.387.387,0,0,1-.1-.012.359.359,0,0,1-.253-.166.446.446,0,0,1-.024-.365.923.923,0,0,1,.354-.456.534.534,0,0,1,.343-.115.432.432,0,0,1,.466.343.7.7,0,0,1-.221.461A.856.856,0,0,1-3468.4-7824.306Zm52.677-.038h0a51.246,51.246,0,0,0-3.945-4.124c.29-2.767,1.3-4.822,2.758-5.641a2.446,2.446,0,0,1,1.182-.325,2.518,2.518,0,0,1,2.284,1.919c.688,2.068-.142,5.046-2.277,8.17Zm-60.894-.195a.391.391,0,0,1-.076-.007.362.362,0,0,1-.248-.167.451.451,0,0,1-.029-.364,1.217,1.217,0,0,1,.354-.456.532.532,0,0,1,.343-.115.432.432,0,0,1,.465.343.661.661,0,0,1-.212.443A.912.912,0,0,1-3476.612-7824.538Zm22.818-.582a1.013,1.013,0,0,1-.251-.034.775.775,0,0,1-.406-.277.093.093,0,0,0-.024-.052.8.8,0,0,1-.052-.606,1.532,1.532,0,0,1,.531-.684.855.855,0,0,1,.553-.206.836.836,0,0,1,.408.1.7.7,0,0,1,.305.228.52.52,0,0,1,.127.3c.054.329-.225.715-.784,1.088-.027.026-.052.051-.077.051A.653.653,0,0,1-3453.793-7825.12Zm11.56-.485a.956.956,0,0,1-.3-.054.783.783,0,0,1-.406-.279.031.031,0,0,0-.012-.024.033.033,0,0,1-.013-.025.949.949,0,0,1-.024-.608,1.514,1.514,0,0,1,.531-.681.853.853,0,0,1,.552-.206.835.835,0,0,1,.408.1,1,1,0,0,1,.305.251.522.522,0,0,1,.125.3c.021.244-.1.631-.784,1.089-.022.022-.049.049-.075.049A.611.611,0,0,1-3442.233-7825.6Zm-38.476-.307h0l-4.629-1.947c.3-.406.622-.839.936-1.257l.011-.014.167-.223,4.3,2.53c-.276.3-.528.6-.784.911Zm49.231-.1h0c-.7-.517-1.636-1.187-2.606-1.8l3.643-7.311c1.187.707,2.362,1.474,3.492,2.278l-4.528,6.829Zm-56.366-.38h0a3.778,3.778,0,0,1-.683-2.148,1.717,1.717,0,0,1,1.165-1.543,2.254,2.254,0,0,1,.711-.111,3.523,3.523,0,0,1,1.262.263c-.506.659-.991,1.322-1.442,1.973a.034.034,0,0,1-.013.026.03.03,0,0,0-.013.023c-.113.174-.23.35-.344.521l0,0-.005.008c-.215.323-.437.656-.633.983Zm8.779-1.391h0l-4.351-2.555c.091-.1.182-.214.275-.327l.009-.011c.081-.1.165-.2.247-.294.157-.2.34-.41.487-.578l.07-.08,4.1,3.011-.834.833Zm43.918-.684h0c-1.076-.661-2.016-1.2-2.958-1.693l3.718-7.135c.936.469,1.928.975,2.884,1.543l-3.642,7.285Zm-42.147-.986h0l-4.173-3.085.1-.1c.374-.373.761-.758,1.164-1.138l3.946,3.466c-.325.256-.694.544-1.035.859Zm56.516-.049h0a1.44,1.44,0,0,1-.133-.122,1.424,1.424,0,0,0-.145-.131c.073-.145.147-.284.218-.419l.011-.022c.118-.224.24-.455.353-.7a12.222,12.222,0,0,0-.3,1.391Zm-1.266-1.087h0a51.938,51.938,0,0,0-4.375-3.391c.317-2.847,1.266-4.93,2.6-5.717a2.142,2.142,0,0,1,1.1-.327,2.272,2.272,0,0,1,2.011,1.567c.837,1.91.348,4.777-1.34,7.867Zm-17.176-.153h0c-.87-.457-1.867-.923-3.137-1.467l2.985-7.286c1.569.614,2.755,1.122,3.845,1.644l-3.692,7.108Zm-22.8,0a.743.743,0,0,1-.194-.025.647.647,0,0,1-.427-.3.8.8,0,0,1-.053-.631,1.517,1.517,0,0,1,.531-.684.9.9,0,0,1,.576-.2.743.743,0,0,1,.79.634.986.986,0,0,1-.289.724A1.329,1.329,0,0,1-3462.023-7830.744Zm-13.222-.329h0l-4.021-3.567c.56-.48,1.113-.931,1.645-1.341l3.591,4.124c-.407.229-.817.511-1.213.784Zm-9.132-.1h0a3.157,3.157,0,0,1-.481-2.681,1.727,1.727,0,0,1,1.165-1.214,1.583,1.583,0,0,1,.339-.036,3.1,3.1,0,0,1,1.888.82,31.553,31.553,0,0,0-2.379,2.5l-.073.083-.175.2-.282.323Zm11.459-1.315h0l-3.692-4.224a27.355,27.355,0,0,1,2.3-1.494l3.061,4.883a16.916,16.916,0,0,0-1.669.835Zm29.4-.2h0l-.342-.127-.015-.006c-.983-.366-1.911-.711-2.879-1l1.543-7.54c1.555.4,3.086.867,4.681,1.442l-2.987,7.233Zm-26.587-1.111h0l-3.112-4.983c.641-.346,1.237-.644,1.823-.911l3.061,5.261c-.479.161-1.113.377-1.77.633Zm67.417-.081,0,0c-.247-.271-.5-.553-.777-.828-.794-.847-1.6-1.614-2.278-2.252a.686.686,0,0,0,0-.456,8.618,8.618,0,0,1-.4-1.315c-.517-2.367.052-7.128,2.985-7.791a.592.592,0,0,0,.47-.668.6.6,0,0,0-.593-.564.762.762,0,0,0-.156.018,4.449,4.449,0,0,0-2.827,2.1,10.268,10.268,0,0,0-1.093,7.161l.024.075c-.927-.809-1.919-1.612-3.035-2.454a.945.945,0,0,0-.1-.4,15.971,15.971,0,0,1-1.721-10.348,12.861,12.861,0,0,1,5.263-8.272,10.239,10.239,0,0,1,5.521-1.767,7.415,7.415,0,0,1,1.056.073,5.793,5.793,0,0,1,1.975.658,4.047,4.047,0,0,1,1.365,1.24,4.207,4.207,0,0,1,.556,2.983.759.759,0,0,0-.026.12.843.843,0,0,1-.023.11,3.218,3.218,0,0,1-.963,1.645,2.714,2.714,0,0,1-1.814.645,3.778,3.778,0,0,1-.537-.04,1.162,1.162,0,0,1-.278-.042c-.052-.013-.1-.024-.152-.033a3.17,3.17,0,0,1-2.252-1.949l-.037-.061c-.4-.672-.723-1.2-1.3-1.2a1.9,1.9,0,0,0-.993.38,7.99,7.99,0,0,0-3.744,5.844,2.887,2.887,0,0,0,.594,2.119,1.245,1.245,0,0,0,.927.42,2.051,2.051,0,0,0,1.135-.416,6.382,6.382,0,0,1,3.31-.882c.177,0,.357.007.535.022,1.534.123,2.442.508,2.777,1.179.368.74.05,1.828-1.031,3.527l-.031.049c-1.637,2.619-3.878,6.2-2.323,11.38Zm-45.231-.325h0c-.236-.061-.47-.124-.709-.189-.391-.106-.877-.238-1.338-.342l.784-7.464c.928.156,1.871.36,2.783.557l-1.519,7.437Zm20.365-.557h0l-.125-.075c.047-.128.09-.258.127-.373.047-.145.1-.294.153-.438-.026.151-.051.3-.076.442l-.016.095c-.02.114-.04.229-.06.348Zm-39.54-.05h0l-3.137-5.389c.746-.3,1.511-.579,2.276-.834l2.555,5.818c-.505.11-1.1.244-1.693.406Zm15.887-.152h0c-.822-.182-1.715-.34-2.73-.481l-.153-7.286a35.6,35.6,0,0,1,3.669.354l-.784,7.412Zm-29.3-.254h0a2.713,2.713,0,0,1-.455-2.325,1.941,1.941,0,0,1,1.341-1.24,2.178,2.178,0,0,1,.515-.061,3.574,3.574,0,0,1,2.116.846,36.111,36.111,0,0,0-3.515,2.78Zm-10.574,0h0a.693.693,0,0,0-.431-.15c-.241.017-.473.026-.689.026a3.155,3.155,0,0,1-2.5-.784.963.963,0,0,1-.193-.826,2.5,2.5,0,0,1,1.23-1.452,3.817,3.817,0,0,1,1.884-.468,5.962,5.962,0,0,1,2.922.849c-.881,1.021-1.609,1.939-2.224,2.806Zm26.942-.228h0l-2.63-5.97c.771-.232,1.6-.438,2.53-.632l1.543,6.426-.115.012-.038,0c-.422.046-.859.093-1.289.16Zm35.367-.075h0a52.971,52.971,0,0,0-5.641-3.161.668.668,0,0,1,.015-.123.455.455,0,0,0,.011-.08c.524-2.414,1.449-4.022,2.6-4.53a1.762,1.762,0,0,1,.713-.154,2.5,2.5,0,0,1,1.969,1.268c1.1,1.643,1.219,4.177.329,6.78Zm-26.437-.1h0a29.542,29.542,0,0,0-2.958-.2l-.885-6.933c.733-.044,1.5-.065,2.347-.065.41,0,.859.005,1.371.016l.127,7.184Zm-6.248-.127h0l-1.569-6.526c1.06-.175,1.927-.287,2.731-.353l.885,6.8h-.048c-.665,0-1.3.023-2,.074Zm-35.256-1.15a2.329,2.329,0,0,1-1.757-.644,1.671,1.671,0,0,1-.263-1.575,1.182,1.182,0,0,1,.92-.779,1.8,1.8,0,0,1,.325-.029,4.242,4.242,0,0,1,2.357,1.065,3.272,3.272,0,0,0-.86,1.214,2.447,2.447,0,0,0-.178.709A4.125,4.125,0,0,1-3496.712-7836.9Zm-3.35-1.86h0a3.131,3.131,0,0,1-2.427-1.644,1.6,1.6,0,0,1,.073-1.464,1.375,1.375,0,0,1,1.142-.61c.524.021,1.367.322,2.4,1.644a2.572,2.572,0,0,0-1.188,2.073Zm24.438-.1h0a3.682,3.682,0,0,1,.2-2.933,1.862,1.862,0,0,1,1.591-.973,1.783,1.783,0,0,1,.18.01,3.555,3.555,0,0,1,2.4,1.621l-.1.049a.088.088,0,0,1-.05.026,35.292,35.292,0,0,0-4.224,2.2Zm-12.422-.1h0a6.946,6.946,0,0,0-.789-.433l-.009,0-.046-.022-.09-.044.118-.011c.457-.044.974-.095,1.449-.167-.23.229-.44.467-.626.677l-.005.005Zm52.444-.277h0a61.376,61.376,0,0,0-6-2.353c.253-1.791.919-3.04,1.872-3.516a2.029,2.029,0,0,1,.907-.216,2.83,2.83,0,0,1,1.85.8,5.68,5.68,0,0,1,1.367,5.285Zm-58.44-.38h0c-.291-.239-.535-.433-.784-.606a11.374,11.374,0,0,0,1.317.378c-.089.04-.177.077-.266.115l-.266.113Zm4-1.072h-.005a13.3,13.3,0,0,1-5.259-1.053,11.746,11.746,0,0,1-6.325-6.248,8.83,8.83,0,0,1-.228-6.148,4.133,4.133,0,0,1,2.276-2.556,3.454,3.454,0,0,1,1.224-.216,3.341,3.341,0,0,1,2.926,1.533,2.355,2.355,0,0,1,.138,2.085,3.75,3.75,0,0,1-2.339,2.037l-.025.008c-.652.213-1.167.381-1.361.786a1.509,1.509,0,0,0,.095,1.181,7.237,7.237,0,0,0,4.5,4.477,3.367,3.367,0,0,0,.958.145,1.756,1.756,0,0,0,1.506-.637,1.608,1.608,0,0,0,.014-1.532,5.739,5.739,0,0,1-.026-3.542,3.491,3.491,0,0,1,1.747-2.225.715.715,0,0,1,.332-.081c.6,0,1.331.7,2.256,1.586l.118.113.055.053c1.809,1.761,4.287,4.174,8.445,4.3-1.017.662-1.91,1.29-2.732,1.923-.317.025-.682.052-1.012.052h-.061a8.75,8.75,0,0,1-3.81-.971,4.163,4.163,0,0,1-2.4-2.851,1,1,0,0,1-.026-.277.636.636,0,0,0-.632-.608.626.626,0,0,0-.632.634,2.922,2.922,0,0,0,.024.454,5.268,5.268,0,0,0,2.61,3.492,9.53,9.53,0,0,0,4.3,1.365c-.779.639-1.558,1.333-2.379,2.125h-.024A16,16,0,0,1-3490.042-7840.7Zm-6.914-.471a5.43,5.43,0,0,0-.628-.025c-.113-.161-.227-.3-.327-.43l-.006-.007c-.061-.076-.117-.147-.172-.22a8.415,8.415,0,0,0,1.134.681Zm27.023-.5h0a2.9,2.9,0,0,1,.127-2.428,1.871,1.871,0,0,1,1.64-.874,2.293,2.293,0,0,1,.232.012,4.326,4.326,0,0,1,2.884,1.822,35.729,35.729,0,0,0-4.882,1.468Zm-33.823-.2h0a3.38,3.38,0,0,1-1.946-2.252,1.428,1.428,0,0,1,.311-1.141,1.163,1.163,0,0,1,.891-.4,1.313,1.313,0,0,1,.263.026c.442.083,1.3.467,2.05,2.1a2.518,2.518,0,0,0-1.568,1.669Zm60.918-.127h0a53.91,53.91,0,0,0-6.221-1.441c.229-1.814.875-3.081,1.821-3.568a1.98,1.98,0,0,1,.872-.2,2.656,2.656,0,0,1,1.583.578,5.729,5.729,0,0,1,1.947,4.63Zm30.511-.253,0,0c-.35-.255-.7-.493-1.048-.723l-.012-.008-.076-.051a10.05,10.05,0,0,0,.358-1.324l.021-.092a22.874,22.874,0,0,0,.759,2.2Zm-51.206-1.188h0a3.547,3.547,0,0,1,.658-3.238,2.012,2.012,0,0,1,1.426-.549,2.881,2.881,0,0,1,.8.119,4.5,4.5,0,0,1,2.708,3.061,41.087,41.087,0,0,0-5.591.608Zm13.054-.228h0a47.21,47.21,0,0,0-5.969-.406,4.872,4.872,0,0,1,1.621-3.338,1.976,1.976,0,0,1,1.153-.378,2.168,2.168,0,0,1,1.224.4,5.578,5.578,0,0,1,1.973,3.719Zm35.9-.051h0c-.78-.513-1.681-1.059-2.756-1.669a17.267,17.267,0,0,1-1.064-1.567,3.151,3.151,0,0,1,.345-2.64,1.18,1.18,0,0,1,.931-.43,1.583,1.583,0,0,1,.42.059,3.19,3.19,0,0,1,1.847,1.6,5.786,5.786,0,0,1,.279,4.649Zm-5.111-2.959h0c-1.077-.551-2.243-1.112-3.464-1.668-.23-.324-.472-.671-.681-1.038-1.26-2.23-1.859-6.4.353-8.12a2.168,2.168,0,0,1,.187-.12l.026-.015c.023-.014.046-.027.066-.041a.653.653,0,0,0,.228-.862.675.675,0,0,0-.559-.309.585.585,0,0,0-.3.082,4.179,4.179,0,0,0-.406.279,5.668,5.668,0,0,0-1.941,4.4,10.425,10.425,0,0,0,1.056,4.889c-1.251-.507-2.425-.954-3.591-1.367a15.856,15.856,0,0,1-4.58-9.31,12.867,12.867,0,0,1,2.656-9.435,9.83,9.83,0,0,1,5.794-3.518,6.133,6.133,0,0,1,.949-.076,4.266,4.266,0,0,1,2.769.912,3.885,3.885,0,0,1,.961,4.756,2.692,2.692,0,0,1-2.381,1.317,4.28,4.28,0,0,1-2.854-1.191c-.471-.458-.913-.886-1.389-.886a1.529,1.529,0,0,0-1.091.685,7.981,7.981,0,0,0-1.9,6.652,3.883,3.883,0,0,0,.533,1.266,1.746,1.746,0,0,0,1.01.733,1.424,1.424,0,0,0,.314.036,1.732,1.732,0,0,0,1.332-.743,6.289,6.289,0,0,1,3.415-1.949,5.338,5.338,0,0,1,1.074-.116,3.609,3.609,0,0,1,2.061.6c.741.511.369,1.837-.1,3.516-.729,2.564-1.831,6.438.454,10.649Zm-56.643-1.595h0a.446.446,0,0,0-.277-.2c-1.477-.536-2.4-1.246-2.607-2a.979.979,0,0,1,.16-.831,2.542,2.542,0,0,1,1.712-.84c.1-.008.191-.012.287-.012a4.916,4.916,0,0,1,3.912,2.238c-.9.438-2.07,1.019-3.187,1.644Zm62.665-.658,0,0a7.61,7.61,0,0,0-.505-.729,10.347,10.347,0,0,0,.658-1.517,13.523,13.523,0,0,0-.151,2.246Zm-58.313-1.517h0c-.2-.278-.41-.535-.632-.784a12.531,12.531,0,0,0,1.458.428h.006c-.136.063-.276.121-.411.176s-.283.116-.421.179Zm56.871-.1h0a3.63,3.63,0,0,0-2.028-.711,2.776,2.776,0,0,0-.376.028,2.706,2.706,0,0,1,.152-2.706,1.833,1.833,0,0,1,1.425-.693,1.424,1.424,0,0,1,1.307.769c.493.959.012,2.331-.479,3.313Zm-15.938-.785h0l-.425-.13-.559-.172a8.816,8.816,0,0,0-.052-1.188c.293.463.641.965,1.036,1.489Zm-37.948-.354h0a12.663,12.663,0,0,1-8.526-4.249,11.6,11.6,0,0,1-3.288-8.223,8.983,8.983,0,0,1,2.25-5.717,4.266,4.266,0,0,1,3.07-1.349,3.57,3.57,0,0,1,2.226.744,2.922,2.922,0,0,1,1.1,2.047,2.372,2.372,0,0,1-.6,1.877,3.56,3.56,0,0,1-2.625,1.056,3.87,3.87,0,0,1-.441-.025h-.009a7.478,7.478,0,0,0-.786-.061c-.671,0-1.1.227-1.18,1.354a7.236,7.236,0,0,0,2.327,5.919,2.883,2.883,0,0,0,1.743.716c.828,0,1.318-.575,1.343-1.576a5.864,5.864,0,0,1,1.393-3.265,3.572,3.572,0,0,1,2.478-1.339h.052c.73,0,1.145,1.019,1.72,2.429l.051.125c.94,2.376,2.227,5.63,6.1,7.438-1.048.168-2.154.389-3.288.658a4.708,4.708,0,0,1-1.012-.355,8.986,8.986,0,0,1-3.219-2.561,3.809,3.809,0,0,1-.9-3.736.568.568,0,0,0,.02-.463.609.609,0,0,0-.348-.347.62.62,0,0,0-.243-.048.6.6,0,0,0-.567.377,4.753,4.753,0,0,0,.7,4.456,9.716,9.716,0,0,0,3.526,3.185c-.492.131-1,.3-1.445.446-.529.175-1.077.355-1.615.489Zm-11.208-.1h0a2.387,2.387,0,0,1-1.845-1.517,1.473,1.473,0,0,1,.142-1.365,1.293,1.293,0,0,1,1.043-.487,1.469,1.469,0,0,1,.713.183,4.254,4.254,0,0,1,1.67,1.822,3.252,3.252,0,0,0-1.721,1.364Zm46.9-.2h0c-1.524-.442-3.058-.787-4.224-1.037-.84-1.387-1.127-2.564-.808-3.314a1.221,1.221,0,0,1,1.012-.707,1.9,1.9,0,0,1,.214-.012,3.019,3.019,0,0,1,1.4.39h0a.031.031,0,0,1,.025.013.031.031,0,0,0,.024.013.529.529,0,0,1,.127.077A5.343,5.343,0,0,1-3433.3-7852Zm20.114-.714h0a4.153,4.153,0,0,0-.127-1.157,11.2,11.2,0,0,0,.911-1.113A12.8,12.8,0,0,0-3413.187-7852.709Zm-63.424-.676h0a4.508,4.508,0,0,0-.579-.025c-.13-.258-.291-.547-.481-.86a12.358,12.358,0,0,0,1.061.883Zm35.9-.228h0c-1.053-.173-2.149-.326-3.259-.455a7.114,7.114,0,0,1-.937-.735,7.911,7.911,0,0,1-2.3-3.92,4.121,4.121,0,0,1,.354-3.164,1.757,1.757,0,0,1,.177-.226.6.6,0,0,0,.177-.447.611.611,0,0,0-.2-.438.655.655,0,0,0-.44-.168.594.594,0,0,0-.446.192,1.266,1.266,0,0,0-.225.252c-.025.034-.051.068-.078.1a5.225,5.225,0,0,0-.557,4.125,9.044,9.044,0,0,0,2.3,4.174l-.089-.006c-1.06-.072-2.156-.147-3.251-.171a13.835,13.835,0,0,1-6.475-6.78,11.712,11.712,0,0,1-.329-8.88,8.615,8.615,0,0,1,4.023-4.629,5,5,0,0,1,2.158-.541,3.3,3.3,0,0,1,1.257.238,3.459,3.459,0,0,1,2.125,3.793,2.534,2.534,0,0,1-2.679,1.894,4.085,4.085,0,0,1-1.749-.4,3.261,3.261,0,0,0-1.238-.417c-.445,0-.765.3-1.04.974a7.253,7.253,0,0,0,.2,6.351,3.12,3.12,0,0,0,.81.961,1.744,1.744,0,0,0,1.016.358c.035,0,.067,0,.1,0a1.549,1.549,0,0,0,1.266-1.113,5.587,5.587,0,0,1,2.4-2.607,3.907,3.907,0,0,1,1.919-.561,2.86,2.86,0,0,1,.864.131c.718.223.806,1.347.86,3.037.1,2.565.236,6.078,3.286,9.081Zm-17.077-.557h0c-1.158-1-1.727-1.907-1.644-2.633.092-.95,1.238-1.024,1.587-1.024a3.107,3.107,0,0,1,.741.089,4.663,4.663,0,0,1,3.138,3.262c-1.246.075-2.534.15-3.821.305Zm5.869-.354h-.759c-.067-.225-.162-.5-.277-.785.316.267.657.512.987.749l.046.034Zm38-.507h0a2.752,2.752,0,0,0-2.014-.859,2.8,2.8,0,0,0-.541.052,3.53,3.53,0,0,1,1.214-3.112,1.941,1.941,0,0,1,1.121-.358,1.424,1.424,0,0,1,1.46,1.116,3.944,3.944,0,0,1-1.239,3.161Zm-69.141,0h0a3,3,0,0,1-1.568-2.478,1.491,1.491,0,0,1,1.379-1.541,1.335,1.335,0,0,1,.493.1c.5.2,1.185.8,1.62,2.5a2.593,2.593,0,0,0-1.923,1.415Zm3.79-.939a3,3,0,0,0-.551-.3,6.062,6.062,0,0,0-.2-.785c.215.333.472.723.754,1.082Zm45.314-.982,0,0a4.6,4.6,0,0,0-.681-.554,10.084,10.084,0,0,0,.2-1.644,17.335,17.335,0,0,0,.48,2.2Zm-4.326-1.113h0a2.715,2.715,0,0,1-.657-2.655,1.977,1.977,0,0,1,.4-.608l.052-.049a1.883,1.883,0,0,1,.759-.406,1.527,1.527,0,0,1,.392-.049,1.38,1.38,0,0,1,1.024.43l.052.052.05.049c.361.441.724,1.356.406,3.213a3.859,3.859,0,0,0-1.258-.23,2.958,2.958,0,0,0-.412.029,2.263,2.263,0,0,0-.809.227Zm-21.655-.3h0a2.517,2.517,0,0,1-1.24-2.024,1.673,1.673,0,0,1,.735-1.24,1.231,1.231,0,0,1,.664-.21,1.548,1.548,0,0,1,.727.21,3.533,3.533,0,0,1,1.214,2.555h-.01a3.45,3.45,0,0,0-1.458.3,2.253,2.253,0,0,0-.631.405Zm3.9-.329h0a4.705,4.705,0,0,0-.528-.2,6.4,6.4,0,0,0-.1-.668v-.008c-.018-.1-.036-.192-.051-.285l.031.054,0,.006c.212.376.432.766.648,1.1Zm44.247-.532h0a2.757,2.757,0,0,0-2.226-1.314,3.753,3.753,0,0,1,2.024-2.731,1.819,1.819,0,0,1,.616-.109,1.361,1.361,0,0,1,1.432,1.375c.029.867-.626,1.854-1.845,2.781Zm-73.392-.127h0a3.37,3.37,0,0,1-.885-2.857,1.361,1.361,0,0,1,1.25-1.022,1.171,1.171,0,0,1,.7.24c.441.3.979,1.017,1.036,2.731l-.112,0a2.6,2.6,0,0,0-1.532.507,1.76,1.76,0,0,0-.455.4Zm50.621-1.347a4.941,4.941,0,0,0-.453-1.082,8.832,8.832,0,0,0,.531-1.315,12.49,12.49,0,0,0-.076,2.4Zm-23.075-1.289a2.655,2.655,0,0,0-.426-.474,4,4,0,0,0,.075-.785l.033.134,0,.011c.09.362.183.736.317,1.112Zm-3.893-.373h0a3.14,3.14,0,0,1-.657-2.857,1.61,1.61,0,0,1,1.424-1.068,1.229,1.229,0,0,1,.828.333,3.443,3.443,0,0,1,.683,2.884,2.439,2.439,0,0,0-.461-.044,2.629,2.629,0,0,0-1.411.424c-.038.03-.078.061-.119.091l-.006,0a2.618,2.618,0,0,0-.281.233Zm25.552-.355h0a2.484,2.484,0,0,0-1.3-.35,3.2,3.2,0,0,0-.771.1,2.851,2.851,0,0,0-.583.228,3.708,3.708,0,0,1,.228-3.338,1.949,1.949,0,0,1,1.465-.715,1.4,1.4,0,0,1,1.243.715c.429.747.33,1.94-.279,3.362Zm-123.785-.923a1.563,1.563,0,0,1-1.274-.644,1.324,1.324,0,0,1-.283-1.23c.3-1.043,1.883-1.963,2.876-2.328a3.694,3.694,0,0,0,1.858,2.167C-3557.2-7864.859-3558.548-7863.644-3559.768-7863.644Zm4.907-3.52a1.926,1.926,0,0,1-1.149-.41,1.382,1.382,0,0,1-.654-1.2c.046-1.131,1.469-2.4,2.355-2.94a3.7,3.7,0,0,0,2.4,1.741,5.68,5.68,0,0,1-1.143,1.87A2.636,2.636,0,0,1-3554.861-7867.164Zm92.771-.01h0a3.347,3.347,0,0,1,.153-2.984,1.435,1.435,0,0,1,1.137-.624,1.166,1.166,0,0,1,.963.523,3.468,3.468,0,0,1,.051,2.936,2.471,2.471,0,0,0-.99-.206,2.663,2.663,0,0,0-1.313.356Zm26.994-.2h0a2.662,2.662,0,0,0-1.816-.7,2.9,2.9,0,0,0-.713.091,3.916,3.916,0,0,1,1.165-3.239,1.734,1.734,0,0,1,1.01-.341,1.348,1.348,0,0,1,1.318.973,3.947,3.947,0,0,1-.962,3.212Zm-132.168-1.8h-.008c-1.632,0-4.655-.324-6.571-2.5a4.405,4.405,0,0,1-1-1.816,4.448,4.448,0,0,1,2.282-5.029,2.683,2.683,0,0,1,1.078-.224,3.84,3.84,0,0,1,2.054.687,3.9,3.9,0,0,1,1.7,2.937l.02.11,0,.011c.245,1.24.421,2.136,1.591,2.136a3.754,3.754,0,0,0,.9-.126,9.553,9.553,0,0,0,6.654-5.222,4.8,4.8,0,0,0,.388-1.662,2.209,2.209,0,0,0-.562-1.64,1.989,1.989,0,0,0-1.458-.562,3.124,3.124,0,0,0-.8.111,5.166,5.166,0,0,1-1.361.165,8.067,8.067,0,0,1-3.166-.666c-1.616-.714-2.443-1.448-2.526-2.243-.093-.858.65-1.812,2.411-3.094l.038-.028a19.4,19.4,0,0,0,5.283-5.168h3.952a10.484,10.484,0,0,1-2.389,5,5.671,5.671,0,0,1-3.839,2.032c-.11,0-.237-.007-.376-.021a1.007,1.007,0,0,0-.109-.006.948.948,0,0,0-.955.939.877.877,0,0,0,.832.962,4.891,4.891,0,0,0,.586.036,7.452,7.452,0,0,0,5.255-2.664,12.563,12.563,0,0,0,2.9-6.279h1.957a20.616,20.616,0,0,1,.438,2.563.894.894,0,0,0-.733,1.044,19.226,19.226,0,0,1-2.127,12.418,16.843,16.843,0,0,1-4.154,4.855,13.644,13.644,0,0,1-4.936,2.536A13.408,13.408,0,0,1-3567.265-7869.181Zm7.718-.3h0a8.977,8.977,0,0,0,1.371-.957c-.021.054-.042.1-.063.152l-.016.036-.01.02-.014.032-.016.04c-.038.081-.077.168-.115.264a10.3,10.3,0,0,0-1.135.416Zm8.718-2.181a2.684,2.684,0,0,1-.965-.208,1.453,1.453,0,0,1-1.006-1.093c-.232-1.336,1.428-3.154,2.088-3.742a5.583,5.583,0,0,0,1.779.966c-.042.209-.071.486-.1.779l-.008.077,0,.036C-3549.176-7873.5-3549.352-7871.661-3550.83-7871.661Zm-4.168-1.878h0a2.538,2.538,0,0,0,.382-.5.9.9,0,0,1-.024.186.809.809,0,0,0-.016.123,1.534,1.534,0,0,1-.176.1,1.6,1.6,0,0,0-.164.089Zm13.872-.772a3.84,3.84,0,0,1-1.076-.15,4.379,4.379,0,0,1-3.211-4.489,3.32,3.32,0,0,1,1.973-2.472,3.5,3.5,0,0,1,1.6-.39,5.179,5.179,0,0,1,1.8.39l.033.012a5.342,5.342,0,0,0,1.6.408c.71,0,1.147-.461,1.46-1.543a10.6,10.6,0,0,0,.238-4.859,8.68,8.68,0,0,0-1.476-3.5,4.966,4.966,0,0,0-1.238-1.161,2.441,2.441,0,0,0-1.242-.374,2.119,2.119,0,0,0-1.969,1.767,7.58,7.58,0,0,1-2.708,3.637,4.9,4.9,0,0,1-2.637,1.194,1.578,1.578,0,0,1-1.456-1.038,8.28,8.28,0,0,1-.628-2.712l0-.042a33.358,33.358,0,0,0-.5-3.371h4.162a3.9,3.9,0,0,1-.677,1.982.876.876,0,0,0-.1.947,1.048,1.048,0,0,0,.911.568.878.878,0,0,0,.733-.394,5.827,5.827,0,0,0,1.052-3.1h9.453a15.287,15.287,0,0,1,1.6,11.11,12.686,12.686,0,0,1-2.389,4.647,7.682,7.682,0,0,1-4.3,2.821A4.98,4.98,0,0,1-3541.126-7874.311Zm-24.531-.57c-.054,0-.093-.18-.138-.388l0-.022-.012-.058c-.006-.024-.011-.048-.016-.071l0-.01-.008-.035-.008-.04a5.52,5.52,0,0,0-2.545-4.14,5.71,5.71,0,0,0-3.086-.984,4.815,4.815,0,0,0-1.826.364,5.981,5.981,0,0,0-1.43.89l-.04-.034a1.843,1.843,0,0,1-.527-1.581,3.435,3.435,0,0,1,1.341-2.636,5.078,5.078,0,0,1,2.692-.626,10.632,10.632,0,0,1,1.292.083c.289,1.357,1.573,2.534,3.712,3.4a10.077,10.077,0,0,0,4,.828,6.96,6.96,0,0,0,1.8-.21.813.813,0,0,1,.208-.038.2.2,0,0,1,.182.083c.135.2-.09.731-.224,1.046l-.012.032a7.633,7.633,0,0,1-5.336,4.14A.03.03,0,0,1-3565.657-7874.881Zm17.879-2.522a2.822,2.822,0,0,1-1.844-.935,3.074,3.074,0,0,1-.977-1.963,6.639,6.639,0,0,1,1.551-3.714,2.944,2.944,0,0,0,.9.137,6.914,6.914,0,0,0,3.9-1.644,9.626,9.626,0,0,0,3.4-4.72c.066-.214.162-.323.287-.323.268,0,.621.5.79.74a7.886,7.886,0,0,1,.936,6.7.076.076,0,0,1-.081.049,1.142,1.142,0,0,1-.3-.084l-.014,0-.008,0-.006,0c-.089-.032-.148-.053-.2-.071a6.98,6.98,0,0,0-2.435-.519,5.393,5.393,0,0,0-2.48.634,5.086,5.086,0,0,0-2.977,3.908,4.176,4.176,0,0,0,.038,1.7.036.036,0,0,1-.038.038A1.24,1.24,0,0,1-3547.778-7877.4Zm-4.671-.271h0l.028-.067.043-.1,0-.006c.075-.173.173-.4.271-.594a.782.782,0,0,0,.038.069l.008.014a1.638,1.638,0,0,1,.109.226,5.286,5.286,0,0,0-.468.431l0,0-.006.006-.021.021Zm-27.841-1.163h0c-.868,0-1.379-.53-1.561-1.621a1.482,1.482,0,0,1,.273-1.24,2.466,2.466,0,0,1,1.933-.622,9.425,9.425,0,0,1,2.512.392,4.943,4.943,0,0,0,.077,1.975c-.209.073-.47.193-.746.321l-.027.012-.016.006-.011.006-.006,0A6.388,6.388,0,0,1-3580.29-7878.837Zm-4.292-.717a3.767,3.767,0,0,1-2.668-.917,1.857,1.857,0,0,1-.442-1.5,1.438,1.438,0,0,1,1.658-1.355,6.968,6.968,0,0,1,2.791.777,3.327,3.327,0,0,0-.347,2.9A5.309,5.309,0,0,1-3584.582-7879.555Zm-5.006-1.945h0c-1-.109-2.723-.648-3.348-1.684a1.564,1.564,0,0,1-.093-1.45,1.31,1.31,0,0,1,1.321-.921,5.776,5.776,0,0,1,3.051,1.385,3.228,3.228,0,0,0-.929,2.668h0Zm61.924-.329a1.27,1.27,0,0,1-1.018-.471c-.691-.833-.667-2.593-.483-3.572a3.126,3.126,0,0,0,.832.113,3.522,3.522,0,0,0,1.953-.616,4.9,4.9,0,0,1,.2,3.714,1.571,1.571,0,0,1-1.2.813A2.082,2.082,0,0,1-3527.664-7881.829Zm-48.849-1.916h0c-.107-.036-.2-.063-.325-.1l-.069-.021-.031-.009c-.063-.018-.146-.041-.232-.068l.024,0a2.943,2.943,0,0,0,.83-.113l-.04.054-.026.034-.006.006a.79.79,0,0,0-.123.214h0Zm-5.184-.117h0a1.364,1.364,0,0,0-.122-.071l-.03-.017-.022-.01-.01,0-.014-.008-.006,0,0,0c-.044-.023-.092-.048-.138-.077l.018,0,.016,0a2.889,2.889,0,0,0,.584.072.244.244,0,0,1-.034.016l-.012,0-.017.007-.031.014-.04.016-.02.008a1.212,1.212,0,0,0-.115.05Zm-5.182-1.276h0c-.412-.363-.681-.6-.967-.812.188.087.333.156.476.228l.119.058.016.008.048.023.008,0c.24.118.569.28.883.414l-.016,0a2.8,2.8,0,0,0-.533.067l-.031.008Zm55.78-.553h0c-.02-.3-.04-.586-.059-.874l0-.061-.053-.755.04.049c.051.066.09.12.125.168l.006.008q.089.116.178.238c-.02.123-.048.248-.072.357l-.008.037-.012.058a7.468,7.468,0,0,0-.138.772l0,0Zm-47.892-.027h-.153a16.945,16.945,0,0,1-6.208-1.167,13.126,13.126,0,0,1-4.586-2.973A13.657,13.657,0,0,1-3592.2-7893h4.284a4.848,4.848,0,0,0,.339.4,10.276,10.276,0,0,0,3.546,2.437,9.212,9.212,0,0,0,3.449.713,6.989,6.989,0,0,0,.858-.051,5.561,5.561,0,0,0,1.624-.505,2.183,2.183,0,0,0,1.125-1.367,2.041,2.041,0,0,0-.333-1.622h4.586a8.71,8.71,0,0,0,1.046.281,10.069,10.069,0,0,0,2.276.253,13.124,13.124,0,0,0,3.6-.535h3.159a17.789,17.789,0,0,1-3.232,3.026.966.966,0,0,0-.68-.289,1,1,0,0,0-.6.212A19.184,19.184,0,0,1-3578.99-7885.717Zm50.6-1.934c-1.585,0-2.026-2.752-2.056-3.716.04,0,.081,0,.125,0a3.549,3.549,0,0,0,2.583-1.163,4.49,4.49,0,0,1,1.171,3.437,1.824,1.824,0,0,1-1.131,1.286A1.81,1.81,0,0,1-3528.387-7887.65Zm-52.2-3.683a7.836,7.836,0,0,1-4.605-1.667h5.334a6.147,6.147,0,0,0,.751.9c.141.141.2.268.167.367-.073.222-.549.292-.9.343h-.009c-.059.01-.107.018-.153.023A4.805,4.805,0,0,1-3580.585-7891.333Z" transform="translate(3803.002 7961.001)" fill="#7389b9"/>
        </g>
      </g>
    </g>
  </g>
</svg>
