<svg xmlns="http://www.w3.org/2000/svg" width="131.338" height="113.41" viewBox="0 0 131.338 113.41">
  <g id="Group_2309" data-name="Group 2309" transform="translate(0 0)">
    <path id="Path_3286" data-name="Path 3286" d="M40.754,0C48.94,0,58.479,0,65.021,4.257c11,7.16,16.452,22.159,16.452,36.462,0,12.459-3.931,30.46-12.862,38.028-6.98,5.915-17.828,2.692-27.858,2.692-13.178,0-28.735.444-36.29-9.413C-.682,65.315.034,50.03.034,40.72c0-8.006.343-19.856,4.43-26.3C11.586,3.178,26.271,0,40.754,0Z" transform="matrix(0.839, 0.545, -0.545, 0.839, 63.009, 0)" fill="#d1d1d1"/>
    <g id="Group_2303" data-name="Group 2303" transform="translate(0 73.618)">
      <g id="Group_2307" data-name="Group 2307">
        <path id="Path_3284" data-name="Path 3284" d="M5.768,0c1.784,0,5.654.305,6.85,1.749.694.828-1.082,2.617-1.082,4.019A5.768,5.768,0,1,1,5.768,0Z" transform="matrix(-0.208, -0.978, 0.978, -0.208, 118.667, 18.164)" fill="#d1d1d1"/>
        <path id="Path_3285" data-name="Path 3285" d="M2.523,0A2.523,2.523,0,1,1,0,2.523,2.553,2.553,0,0,1,.371.939,2.719,2.719,0,0,1,2.523,0Z" transform="matrix(-0.574, 0.819, -0.819, -0.574, 28.178, 2.895)" fill="#d1d1d1"/>
        <path id="Path_3283" data-name="Path 3283" d="M6.176,0a6.167,6.167,0,1,1,0,12.334c-1.778,0-4.161,1.917-5.416.57C-.141,11.945.009,7.8.009,6.167A6.167,6.167,0,0,1,6.176,0Z" transform="translate(11.671 21.695) rotate(-161)" fill="#d1d1d1"/>
      </g>
    </g>
  </g>
</svg>
