<svg xmlns="http://www.w3.org/2000/svg" width="192.832" height="90.935" viewBox="0 0 192.832 90.935">
  <path id="Path_1302" data-name="Path 1302" d="M367.832,250.359h0a7.868,7.868,0,0,0-7.859-7.859H250.693a28.977,28.977,0,0,0-28.977,28.977V284.57a5.047,5.047,0,0,1-5.05,5.05h-33.99a3.217,3.217,0,0,0-3.214,3.214h0a3.217,3.217,0,0,0,3.214,3.214h45.963a3.77,3.77,0,0,1,3.764,3.764h0a3.77,3.77,0,0,1-3.764,3.764H196.081a2.355,2.355,0,0,0-2.35,2.35h0a2.355,2.355,0,0,0,2.35,2.35h20.934A4.718,4.718,0,0,1,221.734,313h0a4.718,4.718,0,0,1-4.719,4.719H182.859A7.868,7.868,0,0,0,175,325.575h0a7.868,7.868,0,0,0,7.859,7.859H302.532a28.977,28.977,0,0,0,28.977-28.977V291.364a5.047,5.047,0,0,1,5.05-5.05h23.6a3.217,3.217,0,0,0,3.214-3.214h0a3.217,3.217,0,0,0-3.214-3.214H324.568a3.77,3.77,0,0,1-3.764-3.764h0a3.77,3.77,0,0,1,3.764-3.764h22.164a2.355,2.355,0,0,0,2.351-2.35h0a2.355,2.355,0,0,0-2.351-2.35h-10.54a4.718,4.718,0,0,1-4.719-4.719h0a4.718,4.718,0,0,1,4.719-4.719h23.762A7.872,7.872,0,0,0,367.832,250.359Z" transform="translate(-175 -242.5)" fill="#e8f5ff"/>
</svg>
