<svg xmlns="http://www.w3.org/2000/svg" xmlns:xlink="http://www.w3.org/1999/xlink" viewBox="0 0 163 134"><defs><linearGradient id="linear-gradient" x1="100.96" y1="405.69" x2="88.35" y2="404.9" gradientTransform="matrix(0.69, 0, 0, -5.72, 6.38, 2416.03)" gradientUnits="userSpaceOnUse"><stop offset="0" stop-color="#54bfed"/><stop offset="1" stop-color="#4281c3"/></linearGradient><linearGradient id="linear-gradient-2" x1="-188.9" y1="397.37" x2="-190.21" y2="396.46" gradientTransform="matrix(6.69, 0, 0, -4.99, 1340.09, 2076.53)" xlink:href="#linear-gradient"/><linearGradient id="linear-gradient-3" x1="-194.92" y1="427.1" x2="-195.27" y2="426.49" gradientTransform="matrix(7.96, 0, 0, -9.15, 1632.75, 3999.04)" xlink:href="#linear-gradient"/><linearGradient id="linear-gradient-4" x1="-279.93" y1="381.93" x2="-292.53" y2="381.14" gradientTransform="matrix(0.69, 0, 0, -5.72, -29.55, 2385.62)" xlink:href="#linear-gradient"/><linearGradient id="linear-gradient-5" x1="-239.1" y1="363.28" x2="-240.41" y2="362.37" gradientTransform="matrix(6.68, 0, 0, -4.99, 1311.14, 2044)" xlink:href="#linear-gradient"/><linearGradient id="linear-gradient-6" x1="-213.85" y1="394.3" x2="-214.2" y2="393.68" gradientTransform="matrix(7.96, 0, 0, -9.15, 1586.6, 3973.89)" xlink:href="#linear-gradient"/></defs><title>darurat</title><g id="Layer_2" data-name="Layer 2"><g id="Layer_1-2" data-name="Layer 1"><g id="Group_4500" data-name="Group 4500"><g id="Group_4472" data-name="Group 4472"><g id="Group_2185" data-name="Group 2185"><g id="Group_1954" data-name="Group 1954"><path id="Path_1298" data-name="Path 1298" d="M69.64,28.14c45,0,93.36,22,93.36,51.86,0,17.3-21.91,13.06-41.26,23.08C108.17,110.1,100.4,134,81.5,134,36.49,134,0,109.82,0,80S24.62,28.14,69.64,28.14Z" fill="#e9f5fc"/></g></g><g id="Group_4471" data-name="Group 4471"><g id="Group_4467" data-name="Group 4467"><g id="Group_4465" data-name="Group 4465"><g id="Group_4462" data-name="Group 4462"><path id="Path_9320" data-name="Path 9320" d="M124,30h5a165.66,165.66,0,0,1,3.79,36.07C132.79,86.82,129,113,129,113h-5l3.73-45.65Z" fill="#444545"/><rect id="Rectangle_3345" data-name="Rectangle 3345" x="123" width="12" height="48" fill="#444545"/></g><g id="Group_4464" data-name="Group 4464"><path id="Path_9316" data-name="Path 9316" d="M118.6,1.56H139L135.9,17.29H122.1Z" fill="#585858"/><path id="Path_9318" data-name="Path 9318" d="M118.6,16.27H139L135.9,32H122.1Z" fill="#585858"/><path id="Path_9319" data-name="Path 9319" d="M118.6,31H139L135.9,46.7H122.1Z" fill="#585858"/></g></g><circle id="Ellipse_1466" data-name="Ellipse 1466" cx="128.5" cy="8.5" r="4.5" fill="#ed1e24"/><circle id="Ellipse_1467" data-name="Ellipse 1467" cx="128.5" cy="23.5" r="4.5" fill="#fbab19" opacity="0.37" style="isolation:isolate"/><circle id="Ellipse_1468" data-name="Ellipse 1468" cx="128.5" cy="38.5" r="4.5" fill="#2fb55d" opacity="0.37" style="isolation:isolate"/></g><g id="Group_4468" data-name="Group 4468"><rect id="Rectangle_3342" data-name="Rectangle 3342" x="26" y="113" width="34" height="2" fill="#4d4d4e"/><rect id="Rectangle_3343" data-name="Rectangle 3343" x="82" y="113" width="34" height="2" fill="#4d4d4e"/><g id="Group_4449" data-name="Group 4449"><g id="Layer_2-2" data-name="Layer 2"><g id="Layer_1-3" data-name="Layer 1"><path id="Path_9429" data-name="Path 9429" d="M26,47.5h99.11v67H26Z" fill="#fff" fill-opacity="0"/><path id="Path_9251" data-name="Path 9251" d="M27.19,86.41a.25.25,0,0,0-.23.09.28.28,0,0,0-.09.23v.45h0a.31.31,0,0,0,.32.32.38.38,0,0,0,.33-.21.2.2,0,0,0,0-.11v-.45h0a.31.31,0,0,0-.32-.32m0-.67a1,1,0,0,1,.71.28,1,1,0,0,1,.29.71v.36a.81.81,0,0,1,0,.41,1,1,0,0,1-1,.67,1,1,0,0,1-.71-.28,1,1,0,0,1-.29-.71v-.45a1,1,0,0,1,.29-.71,1,1,0,0,1,.71-.28Z" fill="#888"/><path id="Path_9252" data-name="Path 9252" d="M27.19,86.41a.29.29,0,0,0-.23.09.28.28,0,0,0-.09.23v.46a.29.29,0,0,0,.09.23.32.32,0,0,0,.23.09c.2,0,.39-.2.33-.32v-.46a.31.31,0,0,0-.33-.32m0-.67a.94.94,0,0,1,.71.28,1,1,0,0,1,.29.71v.37a.88.88,0,0,1-.12.59,1.07,1.07,0,0,1-.88.49,1,1,0,0,1-.71-.29,1,1,0,0,1-.29-.71v-.45a1,1,0,0,1,.29-.71A1,1,0,0,1,27.19,85.74Z" fill="#888"/><path id="Path_9253" data-name="Path 9253" d="M86.34,107.13l-23.58.2H41.66l-2.7-4.6a.88.88,0,0,0-.49-.15H35.1a.72.72,0,0,1-.59-.22.76.76,0,0,1-.23-.59v-1.54H86.34Z" fill="#21211f"/><path id="Path_9254" data-name="Path 9254" d="M119.4,108H104.16L103,106.78s-.79-9.09,8.76-9.09,9,9.38,9,9.38Z" fill="#21211f"/><path id="Path_9255" data-name="Path 9255" d="M119.36,108.47s4.81.29,4.81-2.49v-1.2a.33.33,0,0,0-.34-.33h0a.41.41,0,0,1-.39-.39v-1a.42.42,0,0,1,.39-.4h0a.49.49,0,0,0,.49-.49h0v-2a.49.49,0,0,0-.49-.49h0a.11.11,0,0,1-.1-.1v-.72a.4.4,0,0,0-.13-.31.44.44,0,0,0-.31-.13h-.05v-.67a3.79,3.79,0,0,0-.39-1.66c-.84-1.69-2.95-5.5-5.31-6.38l-2.17-.59s-1.18-1.34-1.67-1.34a70.92,70.92,0,0,0-8.21-8.85,1.14,1.14,0,0,0-1-.79,1.26,1.26,0,0,0-1.18-.93A13.78,13.78,0,0,0,96.39,75c-3.69-.29-8.26-.34-9.79-.39a.49.49,0,0,0-.49.49h0v31.81h0a.49.49,0,0,0-.49.49h0V108a.5.5,0,0,0,.49.49h18S103.37,99,111.49,99C120.78,98.86,119.36,108.47,119.36,108.47Z" fill="#f2f1f1"/><path id="Path_9256" data-name="Path 9256" d="M88.48,90.55v2.93l20.45-2.78Z" fill="#fff"/><path id="Path_9257" data-name="Path 9257" d="M86,106.78h18.19a14.59,14.59,0,0,0,0,1.62H86a.49.49,0,0,1-.49-.49h0v-.58a.46.46,0,0,1,.11-.39A.51.51,0,0,1,86,106.78Z" fill="#333332"/><path id="Path_9258" data-name="Path 9258" d="M109,89a33.94,33.94,0,0,0-4.81-6.85c-3-3.18-4.43-3.91-6.93-4.25-2-.29-6-.35-7.68-.39a.65.65,0,0,0-.52.23.68.68,0,0,0-.15.55l.67,6.65a4.27,4.27,0,0,0,3.94,3.82l14.06,1.07h.91a.54.54,0,0,0,.54-.54V89Z" fill="#434444"/><path id="Path_9259" data-name="Path 9259" d="M89.66,79.55l.64,5.28A3.57,3.57,0,0,0,93.67,88l11.31.59a1.49,1.49,0,0,0,1.29-.66,1.47,1.47,0,0,0,.09-1.45A18.62,18.62,0,0,0,103,81.79c-2.85-2.73-3.37-2.88-5.11-3.28a66.23,66.23,0,0,0-8.09-.29c-.2,0-.3.15-.3.35Z" fill="#010101"/><path id="Path_9260" data-name="Path 9260" d="M106.52,85.69v-.82a.75.75,0,0,0-.26-.52l-.39-.39a.81.81,0,0,0-.55-.25h-.88a.49.49,0,0,0-.49.49h0v3.08a.49.49,0,0,0,.49.49H106a.48.48,0,0,0,.49-.48h0v-.67h.15a.48.48,0,0,0,.49-.48h0a.48.48,0,0,0-.39-.49Z" fill="#221f1f" stroke="#221f1f" stroke-miterlimit="10" stroke-width="0.25"/><path id="Path_9261" data-name="Path 9261" d="M87.54,106.88h15.54v0a12.78,12.78,0,0,1,.88-4.06,7.28,7.28,0,0,1,5.8-4.75h.06V88.89h0A44.92,44.92,0,0,0,106,83.11c-2.36-3-5.55-5.36-8-5.81-2-.35-8.08-.6-9.88-.67a.47.47,0,0,0-.44.19.54.54,0,0,0-.21.44v29.62Zm15.44-.1H87.63V77.24a.63.63,0,0,1,.15-.39.59.59,0,0,1,.4-.15c1.82,0,7.82.3,9.78.64,2.42.44,5.56,2.74,7.93,5.77a45.92,45.92,0,0,1,3.78,5.78v9a6.94,6.94,0,0,0-3.84,1.76,8.53,8.53,0,0,0-2,3,14,14,0,0,0-.83,4.1Z" fill="#cecdcd"/><path id="Path_9262" data-name="Path 9262" d="M122.5,97.75v-.1a2.13,2.13,0,0,0-.67-1.61l-.55-.54a3.87,3.87,0,0,0-2.69-1.13h-2.12a.83.83,0,0,0-.78,1.22l.76,1.49a2.55,2.55,0,0,0,2.27,1.34h3.1A.74.74,0,0,0,122.5,97.75Z" fill="#fff"/><path id="Path_9263" data-name="Path 9263" d="M116.5,94.36h.59c.2.44.45.88.68,1.34.4.93.83,1.81,1.28,2.68h-.3A2.62,2.62,0,0,1,116.48,97l-.73-1.51a.79.79,0,0,1,0-.8.76.76,0,0,1,.71-.37Z" fill="#f89521"/><path id="Path_9264" data-name="Path 9264" d="M118.39,94.36l.1,0c-.06-.14-1.73-3.47-2.8-4.1a21.24,21.24,0,0,0-3.7-1.34h-2.23V89H112a27.85,27.85,0,0,1,3.64,1.34C116.7,90.94,118.39,94.36,118.39,94.36Z" fill="#cecdcd"/><line id="Line_148" data-name="Line 148" x1="119.4" y1="108.01" x2="118.18" y2="108.01" fill="none" stroke="#221f1f" stroke-miterlimit="10" stroke-width="0.25"/><line id="Line_149" data-name="Line 149" x1="105.29" y1="108.01" x2="104.16" y2="108.01" fill="none" stroke="#221f1f" stroke-miterlimit="10" stroke-width="0.25"/><path id="Path_9265" data-name="Path 9265" d="M113.65,87.76l-1.67.59v.58" fill="#cecdcd"/><path id="Path_9266" data-name="Path 9266" d="M114,89.57a7,7,0,0,1,1.34-.44V89a7.08,7.08,0,0,0-1.42.44Z" fill="#cecdcd"/><path id="Path_9267" data-name="Path 9267" d="M101.6,78.08h2.85l0-.1h-2.8a12.59,12.59,0,0,0-4.83-1.67c-2.75-.29-10.57-.4-10.67-.4V76c.1,0,7.92.1,10.67.39a11.52,11.52,0,0,1,4.83,1.67Z" fill="#cecdcd"/><path id="Path_9268" data-name="Path 9268" d="M86.11,102.76h-.39a.56.56,0,0,1-.45-.19L84,101.28a.61.61,0,0,1-.2-.45v-.4h-22l3.88,4.19a.34.34,0,0,1,0,.48.35.35,0,0,1-.24.1H64.08a.68.68,0,0,1-.27-.13l-4.31-4.64H53.32L49,105.08a.37.37,0,0,1-.26.12H47.39a.33.33,0,0,1-.26-.57l3.89-4.2H29.93a.67.67,0,0,1-.67-.67h0V60.54a.67.67,0,0,1,.67-.67H84.1a.67.67,0,0,1,.68.67h0V98.42h1.34Z" fill="#d2d2d3"/><path id="Path_9269" data-name="Path 9269" d="M89.6,90.16h1.77a1.09,1.09,0,0,1,.8.32,1.06,1.06,0,0,1,.33.8h0a1.11,1.11,0,0,1-.33.79,1.09,1.09,0,0,1-.8.32H89.6a1.09,1.09,0,0,1-.8-.32,1.1,1.1,0,0,1-.32-.8h0A1.13,1.13,0,0,1,89.6,90.16Z" fill="#5c6060"/><ellipse id="Ellipse_1449" data-name="Ellipse 1449" cx="90.44" cy="91.28" rx="1.43" ry="0.93" fill="#221f1f" stroke="#221f1f" stroke-miterlimit="10" stroke-width="0.25"/><path id="Path_9270" data-name="Path 9270" d="M89.42,91.53h2a.28.28,0,0,0,.24-.25h0a.27.27,0,0,0-.24-.23h-2a.26.26,0,0,0-.24.24h0A.29.29,0,0,0,89.42,91.53Z" fill="#5c6060"/><path id="Path_9271" data-name="Path 9271" d="M119.36,108.47s4.81.3,4.81-2.49v-1.2a.33.33,0,0,0-.34-.33h0a.63.63,0,0,1-.3-.1.56.56,0,0,1-.1-.29v-1a.42.42,0,0,1,.39-.4h0a.49.49,0,0,0,.49-.49h0v-2a.52.52,0,0,0-.14-.35.48.48,0,0,0-.34-.14s0,0-.1-.05v-.82a.46.46,0,0,0-.51-.4h0l-1.35,0h-3.1a2.47,2.47,0,0,1-1.34-.4l-1.08,2.07C120.24,102.67,119.36,108.47,119.36,108.47Z" fill="#a7a8ab"/><path id="Path_9272" data-name="Path 9272" d="M119.3,105.27a10.73,10.73,0,0,1,.06,3.2s4.81.29,4.81-2.5v-1.2a.32.32,0,0,0-.34-.32h0a.63.63,0,0,1-.3-.1.25.25,0,0,1-.09-.2C122.31,105.17,120.19,105.27,119.3,105.27Z" fill="#333332"/><rect id="Rectangle_3325" data-name="Rectangle 3325" x="30.93" y="61.77" width="52.55" height="37.05" fill="#f2f1f1"/><path id="Path_9273" data-name="Path 9273" d="M118.72,98.47h3.1a.66.66,0,0,0,.67-.67h0v-.09a2.34,2.34,0,0,0-.67-1.66l-.55-.55a3.77,3.77,0,0,0-2.69-1.12h-2.12a.85.85,0,0,0-.73.4,1,1,0,0,0,0,.81l.72,1.49A2.72,2.72,0,0,0,118.72,98.47Zm-.11-4.11a3.58,3.58,0,0,1,2.66,1.13l.54.54a2.31,2.31,0,0,1,.68,1.61v.11a.69.69,0,0,1-.68.67h-3.1a2.45,2.45,0,0,1-2.21-1.34l-.74-1.51a.77.77,0,0,1,0-.79.8.8,0,0,1,.67-.4Z" fill="#cecdcd"/><path id="Path_9274" data-name="Path 9274" d="M86,105.07h14.5a.21.21,0,0,0,.19-.23.22.22,0,0,0,0-.11l-.44-.44a.73.73,0,0,0-.54-.24H86.05" fill="#cecdcd"/><rect id="Rectangle_3326" data-name="Rectangle 3326" x="27.78" y="63.24" width="0.58" height="34.36" fill="#cecdcd"/><rect id="Rectangle_3327" data-name="Rectangle 3327" x="28.36" y="63.24" width="0.9" height="0.9" fill="#b3b3b3"/><rect id="Rectangle_3328" data-name="Rectangle 3328" x="28.36" y="75.02" width="0.9" height="0.9" fill="#b3b3b3"/><rect id="Rectangle_3329" data-name="Rectangle 3329" x="28.36" y="83.26" width="0.9" height="0.9" fill="#b3b3b3"/><path id="Path_9275" data-name="Path 9275" d="M27.77,84.16h-.45A.46.46,0,0,1,27,84a.44.44,0,0,1-.13-.32h0a.44.44,0,0,1,.45-.45h.45Z" fill="#b3b3b3"/><rect id="Rectangle_3330" data-name="Rectangle 3330" x="28.36" y="88.92" width="0.9" height="0.9" fill="#b3b3b3"/><rect id="Rectangle_3331" data-name="Rectangle 3331" x="28.36" y="96.77" width="0.9" height="0.9" fill="#b3b3b3"/><path id="Path_9276" data-name="Path 9276" d="M27.06,84.16v2.19h.33V84.16" fill="#b3b3b3"/><path id="Path_9277" data-name="Path 9277" d="M27.19,87.51h0a.32.32,0,0,1-.23-.09.3.3,0,0,1-.09-.24v-.45A.29.29,0,0,1,27,86.5a.32.32,0,0,1,.23-.09h0a.34.34,0,0,1,.24.09.33.33,0,0,1,.09.23v.45C27.58,87.31,27.39,87.51,27.19,87.51Z" fill="#b3b3b3"/><path id="Path_9278" data-name="Path 9278" d="M104.65,78.47a1.08,1.08,0,0,1,.89.44c1.22,1.62,6.44,7,8,8.66a.4.4,0,0,1,0,.58.3.3,0,0,1-.13.09l-1.42.58-1-.23a37.27,37.27,0,0,0-9.3-10Z" fill="#434444"/><path id="Path_9279" data-name="Path 9279" d="M105.44,78.81h-2.85a34.54,34.54,0,0,1,8.5,9.29l.94.2,1.62-.67S108.49,81.11,105.44,78.81Z" fill="#010101"/><g id="Group_4469" data-name="Group 4469"><ellipse id="Ellipse_1450" data-name="Ellipse 1450" cx="56.6" cy="106.93" rx="6.44" ry="6.41" fill="#333332"/><ellipse id="Ellipse_1451" data-name="Ellipse 1451" cx="56.6" cy="106.93" rx="4.32" ry="4.3" fill="#bfbebe"/><ellipse id="Ellipse_1452" data-name="Ellipse 1452" cx="56.6" cy="106.93" rx="3.39" ry="3.38" fill="#e5e6e6"/><path id="Path_9280" data-name="Path 9280" d="M58.57,108.11a1.77,1.77,0,0,0,.25-.54.33.33,0,0,1,.24-.2h.4a.25.25,0,0,1,.2.09.31.31,0,0,1,.05.21,4,4,0,0,1-.4.93.26.26,0,0,1-.37.06h0l-.29-.3C58.52,108.35,58.52,108.2,58.57,108.11Z" fill="#454856"/><path id="Path_9281" data-name="Path 9281" d="M58.82,106.39a1.87,1.87,0,0,0-.2-.53.23.23,0,0,1,.05-.3l.3-.29a.26.26,0,0,1,.37,0l0,0a2.58,2.58,0,0,1,.42,1,.26.26,0,0,1-.06.21.25.25,0,0,1-.2.09H59.1C58.91,106.59,58.82,106.49,58.82,106.39Z" fill="#454856"/><path id="Path_9282" data-name="Path 9282" d="M56.17,104.09v.45a.28.28,0,0,1-.2.24,2.55,2.55,0,0,0-.59.25.24.24,0,0,1-.3-.06l-.3-.29a.26.26,0,0,1,0-.37l0,0a3.27,3.27,0,0,1,1-.43A.27.27,0,0,1,56.17,104.09Z" fill="#454856"/><path id="Path_9283" data-name="Path 9283" d="M57.76,105a3.13,3.13,0,0,0-.6-.24.32.32,0,0,1-.2-.25v-.39a.28.28,0,0,1,.09-.19.27.27,0,0,1,.21-.05,4.7,4.7,0,0,1,1,.44.26.26,0,0,1,.09.35l0,0L58,105A.2.2,0,0,1,57.76,105Z" fill="#454856"/><path id="Path_9284" data-name="Path 9284" d="M55.48,108.94a1.74,1.74,0,0,0,.54.19c.1.05.2.1.2.24v.4a.25.25,0,0,1-.09.2.23.23,0,0,1-.2,0,2.86,2.86,0,0,1-.94-.38.28.28,0,0,1-.07-.38l0,0,.3-.29a.2.2,0,0,1,.25,0Z" fill="#454856"/><path id="Path_9285" data-name="Path 9285" d="M54.59,105.86a1.42,1.42,0,0,0-.2.53.32.32,0,0,1-.25.2h-.39a.27.27,0,0,1-.2-.09.3.3,0,0,1,0-.21,3.43,3.43,0,0,1,.4-1,.27.27,0,0,1,.37-.07l0,0,.3.29A.32.32,0,0,1,54.59,105.86Z" fill="#454856"/><path id="Path_9286" data-name="Path 9286" d="M57.2,109.14a2.9,2.9,0,0,0,.54-.19.22.22,0,0,1,.3,0l.3.3a.28.28,0,0,1,0,.37l0,0a3.55,3.55,0,0,1-.94.4.24.24,0,0,1-.2-.06.21.21,0,0,1-.09-.19v-.39a.22.22,0,0,1,.14-.3Z" fill="#454856"/><path id="Path_9287" data-name="Path 9287" d="M54.39,107.62a2.61,2.61,0,0,0,.24.54.22.22,0,0,1-.05.29l-.3.29a.25.25,0,0,1-.36,0l0,0a2.41,2.41,0,0,1-.4-.93.25.25,0,0,1,.25-.29h.39C54.29,107.42,54.35,107.47,54.39,107.62Z" fill="#454856"/><circle id="Ellipse_1453" data-name="Ellipse 1453" cx="57.54" cy="106.78" r="0.44" fill="#454856"/><circle id="Ellipse_1454" data-name="Ellipse 1454" cx="57.2" cy="107.86" r="0.44" fill="#454856"/><circle id="Ellipse_1455" data-name="Ellipse 1455" cx="55.97" cy="107.86" r="0.44" fill="#454856"/><circle id="Ellipse_1456" data-name="Ellipse 1456" cx="55.62" cy="106.78" r="0.44" fill="#454856"/><circle id="Ellipse_1457" data-name="Ellipse 1457" cx="56.6" cy="106.05" r="0.44" fill="#454856"/></g><g id="Group_4470" data-name="Group 4470"><path id="Path_9322" data-name="Path 9322" d="M56.61,117.7c4.14,0,7.51.66,7.51,1.48,0,.16.18,2.85-.32,3.5-.69,1-3.84,1.3-7.2,1.3-2.7,0-5.68-.2-7.3-1.78-.41-.37-.21-2.74-.21-3C49.09,118.36,52.46,117.7,56.61,117.7Z" fill="#333332"/><ellipse id="Ellipse_1451-2" data-name="Ellipse 1451-2" cx="56.61" cy="118.76" rx="5.04" ry="0.71" fill="#bfbebe"/><ellipse id="Ellipse_1452-2" data-name="Ellipse 1452-2" cx="56.61" cy="118.76" rx="3.96" ry="0.56" fill="#e5e6e6"/><path id="Path_9280-2" data-name="Path 9280-2" d="M58.9,119.43a1.4,1.4,0,0,0,.29-.09.9.9,0,0,1,.28,0h.47l.22,0q.09,0,.06,0a2.27,2.27,0,0,1-.46.16l-.22,0-.24,0-.34-.05C58.85,119.47,58.85,119.44,58.9,119.43Z" fill="#454856"/><path id="Path_9281-2" data-name="Path 9281-2" d="M59.19,119a.63.63,0,0,0-.23-.08c-.07,0-.05,0,.06,0l.34,0h.46a1.38,1.38,0,0,1,.48.17s0,0-.06,0a.87.87,0,0,1-.23,0h-.49C59.3,119,59.19,119,59.19,119Z" fill="#454856"/><path id="Path_9282-2" data-name="Path 9282-2" d="M56.09,118.29v.08a.68.68,0,0,1-.23,0l-.69,0a1.93,1.93,0,0,1-.34,0l-.35,0c-.06,0-.08,0-.07,0a.32.32,0,0,1,.14,0l1.2-.07A.8.8,0,0,1,56.09,118.29Z" fill="#454856"/><path id="Path_9283-2" data-name="Path 9283-2" d="M58,118.44l-.69,0a.59.59,0,0,1-.23,0v-.07s0,0,.1,0h.24l1.2.07a.32.32,0,0,1,.14,0s0,0-.08,0l-.35,0A1.82,1.82,0,0,1,58,118.44Z" fill="#454856"/><path id="Path_9284-2" data-name="Path 9284-2" d="M55.29,119.66l.64,0c.11,0,.22,0,.22,0v.06s0,0-.1,0h-.24c-.39,0-.75,0-1.09-.06a.28.28,0,0,1-.13,0s0,0,.07,0l.35,0Z" fill="#454856"/><path id="Path_9285-2" data-name="Path 9285-2" d="M54.26,118.91A.63.63,0,0,0,54,119a1,1,0,0,1-.29,0h-.46l-.23,0s-.08,0-.06,0a1.57,1.57,0,0,1,.46-.16.86.86,0,0,1,.22,0h.24l.34,0C54.31,118.88,54.31,118.89,54.26,118.91Z" fill="#454856"/><path id="Path_9286-2" data-name="Path 9286-2" d="M57.3,119.7l.62,0a1.36,1.36,0,0,1,.35,0l.35,0c.05,0,.08,0,.07,0a.28.28,0,0,1-.13,0c-.34,0-.7,0-1.09.06a1,1,0,0,1-.24,0c-.07,0-.11,0-.1,0v-.06C57.08,119.73,57.16,119.7,57.3,119.7Z" fill="#454856"/><path id="Path_9287-2" data-name="Path 9287-2" d="M54,119.35a1.52,1.52,0,0,0,.28.09c.08,0,.05,0,0,0l-.35.05h-.24l-.21,0a1.14,1.14,0,0,1-.47-.16s.12,0,.29,0h.46A.57.57,0,0,1,54,119.35Z" fill="#454856"/><ellipse id="Ellipse_1453-2" data-name="Ellipse 1453-2" cx="57.7" cy="119.13" rx="0.52" ry="0.07" fill="#454856"/><ellipse id="Ellipse_1454-2" data-name="Ellipse 1454-2" cx="57.3" cy="119.38" rx="0.52" ry="0.07" fill="#454856"/><ellipse id="Ellipse_1455-2" data-name="Ellipse 1455-2" cx="55.86" cy="119.38" rx="0.52" ry="0.07" fill="#454856"/><ellipse id="Ellipse_1456-2" data-name="Ellipse 1456-2" cx="55.46" cy="119.13" rx="0.52" ry="0.07" fill="#454856"/><ellipse id="Ellipse_1457-2" data-name="Ellipse 1457-2" cx="56.61" cy="118.96" rx="0.52" ry="0.07" fill="#454856"/></g><ellipse id="Ellipse_1458" data-name="Ellipse 1458" cx="111.93" cy="106.93" rx="6.44" ry="6.41" fill="#333332"/><ellipse id="Ellipse_1459" data-name="Ellipse 1459" cx="111.93" cy="106.93" rx="4.32" ry="4.3" fill="#bfbebe"/><ellipse id="Ellipse_1460" data-name="Ellipse 1460" cx="111.93" cy="106.93" rx="3.39" ry="3.38" fill="#e5e6e6"/><path id="Path_9288" data-name="Path 9288" d="M113.89,108.11a1.56,1.56,0,0,0,.25-.54.36.36,0,0,1,.25-.2h.4a.25.25,0,0,1,.19.09.27.27,0,0,1,0,.21,4,4,0,0,1-.39.93.26.26,0,0,1-.37.06h0l-.3-.3C113.85,108.35,113.8,108.2,113.89,108.11Z" fill="#454856"/><path id="Path_9289" data-name="Path 9289" d="M114.14,106.39a1.62,1.62,0,0,0-.2-.53.23.23,0,0,1,0-.3l.3-.29a.26.26,0,0,1,.37,0l0,0a2.54,2.54,0,0,1,.4,1,.3.3,0,0,1,0,.21.27.27,0,0,1-.2.09h-.4C114.24,106.59,114.14,106.49,114.14,106.39Z" fill="#454856"/><path id="Path_9290" data-name="Path 9290" d="M111.49,104.09v.45a.26.26,0,0,1-.2.24,2.63,2.63,0,0,0-.6.25.23.23,0,0,1-.29-.06l-.3-.29a.26.26,0,0,1,0-.37l0,0a3.13,3.13,0,0,1,1-.43.28.28,0,0,1,.31.24Z" fill="#454856"/><path id="Path_9291" data-name="Path 9291" d="M113.06,105a3.32,3.32,0,0,0-.59-.24.31.31,0,0,1-.2-.25v-.39c0-.14.15-.29.29-.24a4.51,4.51,0,0,1,1,.44.25.25,0,0,1,.08.35l0,0-.3.29A.2.2,0,0,1,113.06,105Z" fill="#454856"/><path id="Path_9292" data-name="Path 9292" d="M110.8,108.94a1.74,1.74,0,0,0,.54.19c.1.05.2.1.2.24v.4a.25.25,0,0,1-.09.2.25.25,0,0,1-.21,0,2.81,2.81,0,0,1-.93-.38.26.26,0,0,1-.08-.37l0,0,.3-.29A.23.23,0,0,1,110.8,108.94Z" fill="#454856"/><path id="Path_9293" data-name="Path 9293" d="M109.91,105.86a1.62,1.62,0,0,0-.2.53.31.31,0,0,1-.24.2h-.4a.25.25,0,0,1-.2-.09.26.26,0,0,1-.05-.21,3.4,3.4,0,0,1,.39-1,.27.27,0,0,1,.37-.07l0,0,.3.29A.32.32,0,0,1,109.91,105.86Z" fill="#454856"/><path id="Path_9294" data-name="Path 9294" d="M112.52,109.14a2.47,2.47,0,0,0,.54-.19.22.22,0,0,1,.3,0l.3.3a.25.25,0,0,1,0,.36l0,0a3.55,3.55,0,0,1-.94.4.27.27,0,0,1-.21-.06.23.23,0,0,1-.09-.19v-.39a.22.22,0,0,1,.1-.28l0,0Z" fill="#454856"/><path id="Path_9295" data-name="Path 9295" d="M109.72,107.62a2.2,2.2,0,0,0,.25.54.23.23,0,0,1-.06.29l-.3.29a.25.25,0,0,1-.36,0l0,0a2.2,2.2,0,0,1-.39-.93.24.24,0,0,1,.24-.29h.4C109.57,107.42,109.67,107.47,109.72,107.62Z" fill="#454856"/><circle id="Ellipse_1461" data-name="Ellipse 1461" cx="112.86" cy="106.78" r="0.44" fill="#454856"/><circle id="Ellipse_1462" data-name="Ellipse 1462" cx="112.52" cy="107.86" r="0.44" fill="#454856"/><circle id="Ellipse_1463" data-name="Ellipse 1463" cx="111.29" cy="107.86" r="0.44" fill="#454856"/><circle id="Ellipse_1464" data-name="Ellipse 1464" cx="110.95" cy="106.78" r="0.44" fill="#454856"/><circle id="Ellipse_1465" data-name="Ellipse 1465" cx="111.93" cy="106.05" r="0.44" fill="#454856"/><rect id="Rectangle_3332" data-name="Rectangle 3332" x="30.93" y="64.86" width="52.55" height="0.31" fill="#d2d2d3"/><rect id="Rectangle_3333" data-name="Rectangle 3333" x="30.93" y="68.24" width="52.55" height="0.31" fill="#d2d2d3"/><rect id="Rectangle_3334" data-name="Rectangle 3334" x="30.93" y="71.61" width="52.55" height="0.31" fill="#d2d2d3"/><rect id="Rectangle_3335" data-name="Rectangle 3335" x="30.93" y="74.98" width="52.55" height="0.31" fill="#d2d2d3"/><rect id="Rectangle_3336" data-name="Rectangle 3336" x="30.93" y="78.36" width="52.55" height="0.31" fill="#d2d2d3"/><rect id="Rectangle_3337" data-name="Rectangle 3337" x="30.93" y="81.73" width="52.55" height="0.31" fill="#d2d2d3"/><rect id="Rectangle_3338" data-name="Rectangle 3338" x="30.93" y="85.11" width="52.55" height="0.31" fill="#d2d2d3"/><rect id="Rectangle_3339" data-name="Rectangle 3339" x="30.93" y="88.48" width="52.55" height="0.31" fill="#d2d2d3"/><rect id="Rectangle_3340" data-name="Rectangle 3340" x="30.93" y="91.85" width="52.55" height="0.31" fill="#d2d2d3"/><rect id="Rectangle_3341" data-name="Rectangle 3341" x="30.93" y="95.23" width="52.55" height="0.31" fill="#d2d2d3"/><path id="Path_9296" data-name="Path 9296" d="M75.51,93.11l-.69.4v5.32h.69Z" fill="url(#linear-gradient)"/><path id="Path_9297" data-name="Path 9297" d="M67.55,97.68v1.14h6.69v-5Z" fill="url(#linear-gradient-2)"/><path id="Path_9298" data-name="Path 9298" d="M74.24,92.5v1.34l.58-.34v-.66l8.66-5V87.2Z" fill="#4281c3"/><path id="Path_9299" data-name="Path 9299" d="M83.48,88.53v9.15l-8-4.57Z" fill="url(#linear-gradient-3)"/><path id="Path_9300" data-name="Path 9300" d="M83.48,97.68v1.14h-8V93.11Z" fill="#4281c3"/><path id="Path_9308" data-name="Path 9308" d="M38.89,67.49l.69-.4V61.77h-.69Z" fill="url(#linear-gradient-4)"/><path id="Path_9309" data-name="Path 9309" d="M46.85,62.92V61.77H40.17v5Z" fill="url(#linear-gradient-5)"/><path id="Path_9310" data-name="Path 9310" d="M40.17,68.09V66.76l-.59.34v.66l-8.65,5v.67Z" fill="#4281c3"/><path id="Path_9311" data-name="Path 9311" d="M30.93,72.06V62.92l8,4.57Z" fill="url(#linear-gradient-6)"/><path id="Path_9312" data-name="Path 9312" d="M30.93,62.92V61.77h8v5.72Z" fill="#4281c3"/></g></g><g id="Group_4441" data-name="Group 4441"><path id="Path_9301" data-name="Path 9301" d="M57,80.33,59.24,79l1.21.73a.28.28,0,0,0,.4-.1.3.3,0,0,0,0-.16V73.53a.91.91,0,0,0-.46-.78l-3.48-2a.88.88,0,0,0-.91,0l-3.48,2a.9.9,0,0,0-.45.78v4a.93.93,0,0,0,.45.77l3.48,2A.88.88,0,0,0,57,80.33Zm2.25-3.24-2.59,1.5v-3l2.59-1.5ZM56.53,72.4l2.58,1.51-2.6,1.5-2.59-1.5Zm-2.68,1.69,2.58,1.55v3l-2.6-1.5Z" fill="#4281c3"/><path id="Path_9302" data-name="Path 9302" d="M50.92,82.47a1.88,1.88,0,0,0-.8.16,1.3,1.3,0,0,0-.55.49h0l-.25-.46a.2.2,0,0,0-.19-.11h-.19a.23.23,0,0,0-.23.22v4a.16.16,0,0,0,.16.16h0a.14.14,0,0,0,.09,0l.46-.27a.44.44,0,0,0,.22-.38V84.73a1.9,1.9,0,0,1,.27-1.16,1,1,0,0,1,.86-.35.83.83,0,0,1,.67.25,1.1,1.1,0,0,1,.19.61v2.15a.44.44,0,0,0,.22.39l.47.28h.08a.16.16,0,0,0,.16-.16h0V84.06a2.51,2.51,0,0,0-.08-.67A1.34,1.34,0,0,0,50.92,82.47Z" fill="#4281c3"/><path id="Path_9303" data-name="Path 9303" d="M65.38,82.76l-.46-.27h-.08a.17.17,0,0,0-.17.16v1.42a3.6,3.6,0,0,1-.26,1.75,1,1,0,0,1-.86.34.77.77,0,0,1-.67-.25,1,1,0,0,1-.2-.6V82.63a.16.16,0,0,0-.16-.16h-.08l-.47.28a.44.44,0,0,0-.22.38v2.15a1.91,1.91,0,0,0,.08.63,1.19,1.19,0,0,0,.33.59,1.61,1.61,0,0,0,1.15.37,1.76,1.76,0,0,0,.81-.17,1.23,1.23,0,0,0,.52-.44v0l.39.49a.25.25,0,0,0,.18.08h.11a.22.22,0,0,0,.22-.22h0V83.15A.43.43,0,0,0,65.38,82.76Z" fill="#4281c3"/><path id="Path_9304" data-name="Path 9304" d="M68.59,86.19a1.81,1.81,0,0,1-.4,0,.61.61,0,0,1-.45-.16.65.65,0,0,1-.16-.5V83.24h.59a.44.44,0,0,0,.41-.23l.13-.25a.14.14,0,0,0-.06-.19.11.11,0,0,0-.07,0h-1V81.8a.22.22,0,0,0-.22-.22h-.21a.25.25,0,0,0-.21.15l-.26.77-.52.28A.21.21,0,0,0,66,83v0a.22.22,0,0,0,.22.22h.37v2.35A1.2,1.2,0,0,0,68,87a2.07,2.07,0,0,0,.5,0,2.1,2.1,0,0,0,.24-.06.21.21,0,0,0,.16-.21v-.26a.22.22,0,0,0-.24-.2h0Z" fill="#4281c3"/><path id="Path_9305" data-name="Path 9305" d="M57,82.66a.22.22,0,0,0-.22-.23h-.18a.22.22,0,0,0-.11,0l-.39.43h0A1.61,1.61,0,0,0,54,82.64a2,2,0,0,0-.92,1.75h0v.47h0a2,2,0,0,0,.9,1.75,1.61,1.61,0,0,0,2.11-.25v.44h0a.84.84,0,0,1-.24.62,1.3,1.3,0,0,1-.94.32h-.2a.14.14,0,0,0-.15.13.15.15,0,0,0,0,.1l.32.43a.53.53,0,0,0,.5.19,2,2,0,0,0,1.1-.55A1.75,1.75,0,0,0,57,86.75Zm-.9,2.92h0a1.19,1.19,0,0,1-1.66.11,1.18,1.18,0,0,1-.39-.78.14.14,0,0,1,0-.09v-.47a.14.14,0,0,1,0-.09,1.17,1.17,0,0,1,1.27-1.06,1.22,1.22,0,0,1,.78.39h0Z" fill="#4281c3"/><path id="Path_9306" data-name="Path 9306" d="M59.73,84.41l1.07-1.14a.16.16,0,0,0,0-.22.16.16,0,0,0-.09,0h-.53a.47.47,0,0,0-.33.14l-.73.79-.5.49v-2a.38.38,0,0,0-.15-.3l-.42-.3a.23.23,0,0,0-.31,0,.23.23,0,0,0,0,.14v4.73a.16.16,0,0,0,.16.16h.08l.47-.28a.46.46,0,0,0,.21-.39v-.74l.5-.47,1.26,1.73a.47.47,0,0,0,.36.18h.57a.15.15,0,0,0,.15-.14.12.12,0,0,0,0-.09Z" fill="#4281c3"/><path id="Path_9307" data-name="Path 9307" d="M47.82,82.49h-.1a.15.15,0,0,0-.1,0l-.48.44h0a1.62,1.62,0,0,0-2.1-.28,2.07,2.07,0,0,0-.9,1.76h0v.46h0a2.07,2.07,0,0,0,.9,1.77,1.63,1.63,0,0,0,2.09-.28h0l.39.43a.16.16,0,0,0,.11,0h.18a.22.22,0,0,0,.22-.22h0V82.72A.23.23,0,0,0,47.82,82.49Zm-.67,1.6v1.55h0v0a1.17,1.17,0,0,1-1.65.22A1.14,1.14,0,0,1,45,85v-.64a1.17,1.17,0,0,1,1.26-1.07,1.19,1.19,0,0,1,.79.4h0Z" fill="#4281c3"/></g></g></g><path id="Path_9321" data-name="Path 9321" d="M122.09,84l4.33-4.75-1.23,7.08h12.24l-11,6.58,7.84,5-9.07-2.18-3.1,9.28-3.44-9.28-15.73,5.06,12-7.85L107.16,84l10,2.34v-11Z" fill="#fbab19"/><circle id="Ellipse_1469" data-name="Ellipse 1469" cx="57" cy="107" r="5" fill="#454546"/><g id="cigarette"><path id="Path_9326" data-name="Path 9326" d="M119.11,69.88a1.09,1.09,0,0,0-.9.43l-.27.33-.4-.15a.29.29,0,0,0-.18,0,.57.57,0,0,0-.58.58.58.58,0,0,0,.58.58.39.39,0,0,0,.18,0l.4-.15.27.34a1.15,1.15,0,0,0,.9.43A1.16,1.16,0,0,0,120.27,71a1.18,1.18,0,0,0-1.16-1.17h0Z" fill="#959595"/><path id="Path_9327" data-name="Path 9327" d="M118.4,52.46a1.76,1.76,0,0,0-.89.25.59.59,0,0,1-.8-.21.6.6,0,0,1-.07-.39,1.79,1.79,0,0,0,0-.23,2.32,2.32,0,0,0-2.32-2.32h0a2.33,2.33,0,0,0-1.4.46.58.58,0,0,1-.81-.11h0a5.22,5.22,0,0,0-8.38,0,.56.56,0,0,1-.54.23A4,4,0,0,0,99.31,52a.58.58,0,0,1-.8.18h0a1.73,1.73,0,0,0-2.42.45,1.73,1.73,0,0,0,2.07,2.6.59.59,0,0,1,.76.31v0a4.07,4.07,0,0,0,5.2,2.45,4.59,4.59,0,0,0,.77-.38.57.57,0,0,1,.59,0,5.21,5.21,0,0,0,5.62-.42.58.58,0,0,1,.81.12,2.33,2.33,0,0,0,3.25.46,2.3,2.3,0,0,0,.93-1.85.28.28,0,0,0,0-.13.59.59,0,0,1,.48-.67.57.57,0,0,1,.53.2,1.74,1.74,0,1,0,1.32-2.89Z" fill="#959595"/><path id="Path_9328" data-name="Path 9328" d="M112,65.91a.84.84,0,0,0-.27,0,.59.59,0,0,1-.67-.28,2.9,2.9,0,0,0-3.94-1.14,2.79,2.79,0,0,0-1,.89.58.58,0,0,1-.78.16,1.75,1.75,0,0,0-2.65,1.49,1.74,1.74,0,0,0,1.74,1.74h0a1.77,1.77,0,0,0,.9-.25.58.58,0,0,1,.78.16,2.89,2.89,0,0,0,4,.74,3,3,0,0,0,.89-1,.57.57,0,0,1,.67-.27,1.24,1.24,0,0,0,.27,0,1.16,1.16,0,1,0,0-2.32Z" fill="#959595"/></g></g></g><g id="Group_4499" data-name="Group 4499"><g id="Group_4498" data-name="Group 4498"><g id="Group_4497" data-name="Group 4497"><g id="Group_4479" data-name="Group 4479"><g id="Group_4380" data-name="Group 4380"><path id="Path_9199" data-name="Path 9199" d="M63.5,100.8a1.9,1.9,0,0,1,1.07-2.46h0A1.9,1.9,0,0,1,67,99.44v0L69,104.85l-3.37,1.27Z" fill="#59595b"/></g><g id="Group_4382" data-name="Group 4382"><path id="Path_9209" data-name="Path 9209" d="M54.58,101a1.9,1.9,0,0,0-1.19-2.41h0A1.9,1.9,0,0,0,51,99.83v0l-1.65,5.48,3.43,1.1Z" fill="#59595b"/></g><path id="Path_9215" data-name="Path 9215" d="M60.73,96s3.68,1.48,5.64,2.48l-1.25,6.43c-.11,1.24-.25,6.17-.25,7.45s.21,4.29.21,4.29a27.47,27.47,0,0,1-12,0s.22-2.9.22-4.29-.15-6.21-.26-7.45l-1.24-6.43c2-1,5.63-2.48,5.63-2.48Z" fill="#4086c6"/><path id="Path_9216" data-name="Path 9216" d="M65,115.36c0,.47.06.78.06.78a27.45,27.45,0,0,1-11.9,0l.05-.78a27.31,27.31,0,0,0,11.8,0Z" fill="#faed27"/><path id="Path_9217" data-name="Path 9217" d="M61.52,96.34a2.34,2.34,0,0,1-2,2.61,2.55,2.55,0,0,1-.39,0,2.32,2.32,0,0,1-2.49-2.12,2.07,2.07,0,0,1,0-.5,4.9,4.9,0,0,1,2.46-.6A4.23,4.23,0,0,1,61.52,96.34Z" fill="#59595b"/><g id="Neck"><path id="Neck-2" d="M57.27,94.07a3.82,3.82,0,0,1-.19,2.09,1.92,1.92,0,0,0,1.64,2.16,1.6,1.6,0,0,0,.38,0,1.83,1.83,0,0,0,1.95-1.7,1.78,1.78,0,0,0,0-.46s-.29-.32,0-2.09C61.3,92.11,57.27,94.07,57.27,94.07Z" fill="#eea986"/><path id="Lips" d="M60.87,95s-1.37,1.58-3.54,0a2.36,2.36,0,0,0,1.88,1.23A1.77,1.77,0,0,0,60.87,95Z" fill="#cb9274"/></g><g id="Ears"><g id="Group_4394" data-name="Group 4394"><path id="Path_9218" data-name="Path 9218" d="M56.2,90.94s0,0,0,0a.24.24,0,0,0-.13-.07.36.36,0,0,0-.27,0,.5.5,0,0,0-.21.42,1.53,1.53,0,0,0,.11.47l.23.63a.27.27,0,0,0,.07.13.18.18,0,0,0,.25-.07h0c.08-.13,0-.24,0-.37s0-.33,0-.49l0-.54v-.09Z" fill="#eea986"/></g><g id="Group_4395" data-name="Group 4395"><path id="Path_9219" data-name="Path 9219" d="M62,90.94a.08.08,0,0,1,0,0,.19.19,0,0,1,.12-.07.36.36,0,0,1,.27,0,.48.48,0,0,1,.21.42,1.29,1.29,0,0,1-.11.47l-.22.63a.22.22,0,0,1-.08.13.17.17,0,0,1-.24-.07h0c-.08-.13,0-.24,0-.37s0-.33,0-.49,0-.36,0-.54A.28.28,0,0,1,62,90.94Z" fill="#eea986"/></g></g><g id="Head"><g id="Group_4396" data-name="Group 4396"><path id="Path_9220" data-name="Path 9220" d="M58.63,87.17s-2.87.43-2.44,4.66,3,3.88,3.13,3.87,2.54.07,2.73-5.09C62.05,90.61,62.14,86.79,58.63,87.17Z" fill="#eea986"/></g><g id="Group_4397" data-name="Group 4397"><path id="Path_9221" data-name="Path 9221" d="M56.21,92.14l.35.25a1.6,1.6,0,0,1,0-.31,2.18,2.18,0,0,1,0-.25v-.49l0-1c0-.13,0-.32.15-.31a.37.37,0,0,1,.2.07,2.7,2.7,0,0,0,.55.24,1.36,1.36,0,0,0,.29.06H58c0-.05,0-.08-.08-.11L57.53,90a.64.64,0,0,1-.15-.13c-.08-.1.21,0,.25,0l.28.07.61.16a7.67,7.67,0,0,0,.81.15,2.12,2.12,0,0,0,.87,0s.07,0,.07,0l0,0c-.07,0-.13-.11-.2-.15l-.28-.2a2.7,2.7,0,0,0,.8.21l.65.08s.13.86.33.93.1,1.45.1,1.45l.34-.39c.1-.64.2-1.27.28-1.91a2.85,2.85,0,0,0,0-1,.88.88,0,0,0-.64-.65,1.35,1.35,0,0,0-.74-1.28,2.82,2.82,0,0,0-1.06-.31c-.18,0-.36,0-.53-.05a2.61,2.61,0,0,0-.55-.08l-.32,0a2.64,2.64,0,0,0-2,1.1l-.11.15a2.17,2.17,0,0,0-.27.6,4.07,4.07,0,0,0-.14,1.25,9.6,9.6,0,0,0,.21,1.6S56.21,92.14,56.21,92.14Z" fill="#333"/></g></g><g id="Eye"><ellipse id="Ellipse_1447" data-name="Ellipse 1447" cx="57.84" cy="91.71" rx="0.28" ry="0.47" fill="#333"/><ellipse id="Ellipse_1448" data-name="Ellipse 1448" cx="60.17" cy="91.71" rx="0.28" ry="0.47" fill="#333"/></g><g id="Group_4399" data-name="Group 4399"><path id="Path_9224" data-name="Path 9224" d="M56,103l.3-.17.16.1s0,0,.06,0v-.8a.11.11,0,0,0-.06-.1l-.45-.26a.13.13,0,0,0-.12,0l-.46.26a.13.13,0,0,0-.06.1v.53a.13.13,0,0,0,.06.1l.46.26A.11.11,0,0,0,56,103Zm.3-.42-.34.2v-.39l.34-.2Zm-.36-.62.34.2-.34.2-.34-.2Zm-.35.23.34.2v.39l-.34-.2Z" fill="#fff"/><path id="Path_9225" data-name="Path 9225" d="M55.24,103.24l-.1,0-.07.06h0l0-.06H55a0,0,0,0,0,0,0h0v.52a0,0,0,0,0,0,0h0l.06,0a.05.05,0,0,0,0,0v-.19a.29.29,0,0,1,0-.16.14.14,0,0,1,.11,0,.11.11,0,0,1,.08,0,.13.13,0,0,1,0,.08v.28a.05.05,0,0,0,0,0l.06,0h0a0,0,0,0,0,0,0v-.35a.28.28,0,0,0,0-.09A.19.19,0,0,0,55.24,103.24Z" fill="#fff"/><path id="Path_9226" data-name="Path 9226" d="M57.13,103.28l-.06,0h0a0,0,0,0,0,0,0v.19a.59.59,0,0,1,0,.23.12.12,0,0,1-.11,0s-.06,0-.09,0a.19.19,0,0,1,0-.08v-.35a0,0,0,0,0,0,0h0l-.06,0a.05.05,0,0,0,0,0v.28a.22.22,0,0,0,0,.08.2.2,0,0,0,0,.08.3.3,0,0,0,.15,0l.1,0a.22.22,0,0,0,.07-.06h0l0,.06h0a0,0,0,0,0,0,0v-.45a.05.05,0,0,0,0,0Z" fill="#fff"/><path id="Path_9227" data-name="Path 9227" d="M57.55,103.73h0a0,0,0,0,1-.06,0,.07.07,0,0,1,0-.06v-.3h.08a.05.05,0,0,0,0,0l0,0s0,0,0,0h-.14v-.1s0,0,0,0h0l0,0,0,.1-.07,0a0,0,0,0,0,0,0h0s0,0,0,0h0v.31a.16.16,0,0,0,.18.18h.09s0,0,0,0v0a0,0,0,0,0,0,0Z" fill="#fff"/><path id="Path_9228" data-name="Path 9228" d="M56,103.26a0,0,0,0,0,0,0h0l0,.06h0a.22.22,0,0,0-.28,0,.29.29,0,0,0-.12.23h0v.06h0a.29.29,0,0,0,.12.23.23.23,0,0,0,.28,0v.06h0a.11.11,0,0,1,0,.08.2.2,0,0,1-.13,0h0a0,0,0,0,0,0,0h0l0,.05s0,0,.07,0A.27.27,0,0,0,56,104a.27.27,0,0,0,.06-.17Zm-.12.39h0a.14.14,0,0,1-.21,0,.21.21,0,0,1-.06-.1v-.09a.17.17,0,0,1,.17-.14.23.23,0,0,1,.1,0h0Z" fill="#fff"/><path id="Path_9229" data-name="Path 9229" d="M56.39,103.49l.14-.15s0,0,0,0h-.08l0,0-.1.1-.07.07v-.27s0,0,0,0l0,0h0s0,0,0,0v.62a0,0,0,0,0,0,0h0l.06,0a.05.05,0,0,0,0,0v-.1l.07-.06.16.22a.05.05,0,0,0,.05,0h.07a0,0,0,0,0,0,0h0Z" fill="#fff"/><path id="Path_9230" data-name="Path 9230" d="M54.83,103.24h0l-.06.06h0a.2.2,0,0,0-.27,0,.27.27,0,0,0-.12.23h0v.06h0a.27.27,0,0,0,.12.23.2.2,0,0,0,.27,0h0l0,.06h0a0,0,0,0,0,0,0v-.52a0,0,0,0,0,0,0h0Zm-.08.21v.2h0a.16.16,0,0,1-.22,0,.14.14,0,0,1-.05-.1h0v-.08a.15.15,0,0,1,.16-.14.22.22,0,0,1,.11,0h0Z" fill="#fff"/></g><path id="Path_9231" data-name="Path 9231" d="M51.88,98.75a38.77,38.77,0,0,1,4.75-2.11l.09.7A34.66,34.66,0,0,0,52,99.58Z" fill="#faed27"/><path id="Path_9232" data-name="Path 9232" d="M66.32,98.75a39.46,39.46,0,0,0-4.75-2.11l-.09.7a34,34,0,0,1,4.68,2.24Z" fill="#faed27"/><path id="Path_9233" data-name="Path 9233" d="M55.89,89.43s.25.42,3.06.42c3,0,3.33-.52,3.33-.52s0-2.7-3.2-2.7S55.89,89.43,55.89,89.43Z" fill="#e6e7e8"/><path id="Path_9234" data-name="Path 9234" d="M62.29,89.69c0,.27-.32,1.12-.75,1.12a7.31,7.31,0,0,0-2.46-.28c-2.19,0-2.24.36-2.64.24s-.55-1-.55-1v-.31a.9.9,0,0,0,.65.19c.48,0,1.25-.19,2.41-.19s2.13.17,2.66.16a1,1,0,0,0,.67-.28Z" fill="#4086c6"/><path id="Path_9235" data-name="Path 9235" d="M62.18,90.14c-.14.32-.37.67-.64.67a7.31,7.31,0,0,0-2.46-.28c-2.19,0-2.24.36-2.64.24a.83.83,0,0,1-.4-.5.59.59,0,0,0,.28.26c.42.13.47-.25,2.76-.25a7.62,7.62,0,0,1,2.56.29C61.85,90.57,62,90.37,62.18,90.14Z" fill="#22679b"/><g id="Group_4400" data-name="Group 4400"><path id="Path_9236" data-name="Path 9236" d="M59.18,88.41l.25-.14.13.08s0,0,0,0,0,0,0,0v-.65a.09.09,0,0,0,0-.08l-.38-.22a.09.09,0,0,0-.1,0l-.38.22a.09.09,0,0,0-.05.08v.44a.09.09,0,0,0,.05.08l.38.22A.09.09,0,0,0,59.18,88.41Zm.25-.35-.29.16V87.9l.29-.17Zm-.3-.51.28.16-.28.17-.28-.17Zm-.29.18.28.17v.32l-.28-.16Z" fill="#4281c3"/><path id="Path_9237" data-name="Path 9237" d="M58.52,88.64l-.09,0-.06,0h0l0,0s0,0,0,0h0a0,0,0,0,0,0,0v.43a0,0,0,0,0,0,0h0l.05,0s0,0,0,0V88.9a.15.15,0,0,1,0-.13.1.1,0,0,1,.09,0,.09.09,0,0,1,.07,0,.14.14,0,0,1,0,.07h0v.22a.05.05,0,0,0,0,0l.06,0s0,0,0,0h0v-.29a.15.15,0,0,0,0-.07.13.13,0,0,0-.16-.11Z" fill="#4281c3"/><path id="Path_9238" data-name="Path 9238" d="M60.1,88.68l-.05,0h0a0,0,0,0,0,0,0v.15A.63.63,0,0,1,60,89a.11.11,0,0,1-.09,0,.08.08,0,0,1-.07,0,.08.08,0,0,1,0-.07h0v-.27a0,0,0,0,0,0,0h0l-.05,0s0,0,0,0V89a.16.16,0,0,0,0,.07.16.16,0,0,0,0,.07.18.18,0,0,0,.13,0l.08,0a.1.1,0,0,0,.06,0h0l0,0h0a0,0,0,0,0,0,0v-.38a.08.08,0,0,0,0,0Z" fill="#4281c3"/><path id="Path_9239" data-name="Path 9239" d="M60.45,89.05H60.4a.06.06,0,0,1,0,0,.08.08,0,0,1,0,0v-.25h.07s0,0,0,0l0,0a0,0,0,0,0,0,0h-.12v-.08l0,0h0a0,0,0,0,0,0,0l0,.08-.06,0a0,0,0,0,0,0,0h0s0,0,0,0h0V89a.13.13,0,0,0,.15.15h.08s0,0,0,0v0a0,0,0,0,0,0,0Z" fill="#4281c3"/><path id="Path_9240" data-name="Path 9240" d="M59.18,88.66a0,0,0,0,0,0,0h0a0,0,0,0,0,0,0l0,0h0a.18.18,0,0,0-.23,0,.22.22,0,0,0-.1.19h0v.05h0a.23.23,0,0,0,.1.2.2.2,0,0,0,.23,0v0h0a.09.09,0,0,1,0,.07.18.18,0,0,1-.1,0h0s0,0,0,0h0l0,.05,0,0a.23.23,0,0,0,.12-.06.2.2,0,0,0,.06-.14Zm-.1.32h0a.13.13,0,0,1-.18,0,.18.18,0,0,1,0-.09h0v-.06a.13.13,0,0,1,.14-.12.14.14,0,0,1,.08,0h0Z" fill="#4281c3"/><path id="Path_9241" data-name="Path 9241" d="M59.48,88.86l.12-.13v0h-.07a.05.05,0,0,0,0,0l-.08.09,0,0v-.22s0,0,0,0l0,0s0,0,0,0a0,0,0,0,0,0,0v.52a0,0,0,0,0,0,0h0l.05,0a.05.05,0,0,0,0,0V89l0,0,.14.18a0,0,0,0,0,0,0h.06s0,0,0,0h0Z" fill="#4281c3"/><path id="Path_9242" data-name="Path 9242" d="M58.19,88.65h0l0,0h0a.17.17,0,0,0-.23,0,.23.23,0,0,0-.1.19h0v0h0a.24.24,0,0,0,.1.19.18.18,0,0,0,.23,0h0l0,.05h0s0,0,0,0v-.43a0,0,0,0,0,0,0Zm-.08.17V89h0a.13.13,0,0,1-.18,0,.12.12,0,0,1,0-.08v-.07a.12.12,0,0,1,.13-.12.13.13,0,0,1,.09,0h0Z" fill="#4281c3"/></g><path id="Path_9243" data-name="Path 9243" d="M58.77,86.66s0-.22.07-.22h.37a.1.1,0,0,1,.1.1h0v.11Z" fill="#4180c2"/><path id="Path_9360" data-name="Path 9360" d="M58.21,94.12a4.71,4.71,0,0,1,2.24,0" fill="none" stroke="#444545" stroke-linecap="round" stroke-width="0.3"/></g><g id="Group_4496" data-name="Group 4496"><path id="Path_9358" data-name="Path 9358" d="M58.92,111c3.88,0,7,1.61,7,3.59a4.49,4.49,0,0,1-3.32,4c-.91.25-2.46-.43-3.7-.43-.65,0-2.82.53-3.51.43a3.72,3.72,0,0,1-3.52-3.9.53.53,0,0,0,0-.13C51.9,112.61,55.05,111,58.92,111Z" fill="#444545"/><path id="Path_9359" data-name="Path 9359" d="M54,108.37c2.23.13,5.2,5.31,5.2,5.31s1.92-5.18,3.93-5.31,3.11.53,4.15,4.79,0,12.27,0,12.27l-2.45.32-1.69-9.19H55l-.62,9.19-2.85.52s-1.86-8.63-1.24-13.11S51.77,108.24,54,108.37Z" fill="#444545"/></g><path id="Path_9361" data-name="Path 9361" d="M52.75,105.61l-3.07-1.24s-.48,1.36-1,2.76,6.94,4,8,5.7a5.55,5.55,0,0,0,.53.88c.26.32.12.13.12.47s-.17.67-.12.86.13,0,.24.07.12.06.2,0a.49.49,0,0,0,.18-.14,1.36,1.36,0,0,0,.65-.48,4.11,4.11,0,0,0,.4-1.13V113s.47.09.45-.1-.56-.67-.56-.67l-1.23-1.11a36.7,36.7,0,0,0-5.24-4.06Z" fill="#eea986"/><path id="Path_9364" data-name="Path 9364" d="M65.63,106.1,69,104.89l-.38-1-3.34,1Z" fill="#59595b"/><path id="Path_9366" data-name="Path 9366" d="M64.84,125.63a1.53,1.53,0,0,0-.2,1.23.81.81,0,0,0,.83.43s.11.09.55.5.2.78,1.22,1.15,2.94.3,3-.64-3-2.92-3-2.92Z" fill="#656666"/><path id="Path_9367" data-name="Path 9367" d="M54.32,125.54s.62,1.24.33,1.73-1.49.22-1.49.22-.49,1.69-1.6,1.93-2.77,0-2.8-1,2.71-2.84,2.71-2.84Z" fill="#656666"/></g><path id="Path_9368" data-name="Path 9368" d="M65.57,105.59l3.16-1.08s.47,1.44,1,2.87-7.64,1.2-8.7,2.89a2.38,2.38,0,0,1-.38.68c-.26.32-.27.34-.27.67s.17.68.12.88-.13,0-.24.07-.12.06-.2,0a.65.65,0,0,1-.18-.15,1.17,1.17,0,0,1-.65-.48,3.89,3.89,0,0,1-.41-1.14v-.4s-.48.09-.45-.1.56-.68.56-.68l1.25-1.12s4.06-1.62,5.85-2.09Z" fill="#eea986"/></g><path id="Path_9369" data-name="Path 9369" d="M49.3,105.33l3.43,1.09.3-1-3.38-1.07Z" fill="#59595b"/><path id="Path_9370" data-name="Path 9370" d="M65.44,106.92l3.43-1.46-.34-.74-3.38,1.2Z" fill="#59595b"/></g></g></g></g></svg>