<svg xmlns="http://www.w3.org/2000/svg" viewBox="0 0 444.6 577.24"><title>bg_chat_cs</title><g id="Layer_2" data-name="Layer 2"><g id="Layer_1-2" data-name="Layer 1"><g id="Group_1193" data-name="Group 1193" style="opacity:0.8989999890327454"><g id="box-closed" style="opacity:0.5009999871253967"><path id="Path_335" data-name="Path 335" d="M203.82,335l0,0-8.37-9.41L183,324.39l0,0v0h0l-6.67,13.1,8.37,9.43,12.55,1.23L203.85,335Zm-8.75-8.64,2.9,3.07-11.58-1.17-2.61-3ZM184.71,345.8l-3.12-3.58L180,340.48l-2.76-3.12,5.87-11.52,2.74,3.09-1.47,2.88.35.07.06.39.32.08.13.43.28,0,.2.59,1.49-2.93.25.27,3.12,3.53-5.87,11.52Zm6.58-12-3.06-3.46,11.37,1,3.09,3.57Zm5.39,13.44-11.23-1.08,5.87-11.52,11.22,1.08-5.87,11.52Z" style="fill:#bcbcbc"/></g><g id="box-closed-2" style="opacity:0.5009999871253967"><path id="Path_335-2" data-name="Path 335-2" d="M258.82,104l0,0-8.37-9.41L238,93.39l0,0v0h0l-6.67,13.1,8.37,9.43,12.55,1.23L258.85,104Zm-8.75-8.64,2.9,3.07-11.58-1.17-2.61-3ZM239.71,114.8l-3.12-3.58L235,109.48l-2.76-3.12,5.87-11.52,2.74,3.09-1.47,2.88.35.07.06.39.32.08.13.43.28,0,.2.59,1.49-2.93.25.27,3.12,3.53-5.87,11.52Zm6.58-12-3.06-3.46,11.37,1,3.09,3.57Zm5.39,13.44-11.23-1.08,5.87-11.52,11.22,1.08-5.87,11.52Z" style="fill:#bcbcbc"/></g><g id="box-closed-3" style="opacity:0.5009999871253967"><path id="Path_335-3" data-name="Path 335-3" d="M100.82,222l0,0-8.37-9.41L80,211.39l0,0v0h0l-6.67,13.1,8.37,9.43,12.55,1.23L100.85,222Zm-8.75-8.64,2.9,3.07-11.58-1.17-2.61-3ZM81.71,232.8l-3.12-3.58L77,227.48l-2.76-3.12,5.87-11.52,2.74,3.09-1.47,2.88.35.07.06.39.32.08.13.43.28,0,.2.59,1.49-2.93.25.27,3.12,3.53L81.71,232.8Zm6.58-12-3.06-3.46,11.37,1,3.09,3.57Zm5.39,13.44-11.23-1.08,5.87-11.52,11.22,1.08-5.87,11.52Z" style="fill:#bcbcbc"/></g><g id="box-closed-4" style="opacity:0.5009999871253967"><path id="Path_335-4" data-name="Path 335-4" d="M438.82,19l0,0-8.37-9.41L418,8.39l0,0v0h0l-6.67,13.1,8.37,9.43,12.55,1.23L438.85,19Zm-8.75-8.64,2.9,3.07-11.58-1.17-2.61-3ZM419.71,29.8l-3.12-3.58L415,24.48l-2.76-3.12,5.87-11.52,2.74,3.09-1.47,2.88.35.07.06.39.32.08.13.43.28,0,.2.59,1.49-2.93.25.27,3.12,3.53L419.71,29.8Zm6.58-12-3.06-3.46,11.37,1,3.09,3.57Zm5.39,13.44-11.23-1.08,5.87-11.52,11.22,1.08-5.87,11.52Z" style="fill:#bcbcbc"/></g><g id="box-closed-5" style="opacity:0.5009999871253967"><path id="Path_335-5" data-name="Path 335-5" d="M158.87,415.13v0l-11.64-4.79-11.79,4.42,0,0v0h0l-.27,14.7,11.66,4.81,11.83-4.39.26-14.73Zm-11.66-3.93,3.95,1.49-10.91,4-3.65-1.52Zm-.81,22L142,431.34l-2.19-.87L136,428.88l.23-12.93,3.81,1.58-.06,3.24.35-.1.22.33.32-.07.31.33.27-.09.44.45.05-3.3.34.14,4.35,1.81-.23,12.93Zm.67-13.66-4.26-1.77,10.65-4.09,4.34,1.85Zm10.73,9.72-10.56,3.95.23-12.92,10.56-4-.23,12.93Z" style="fill:#bcbcbc"/></g><g id="box-closed-6" style="opacity:0.5009999871253967"><path id="Path_335-6" data-name="Path 335-6" d="M129.87,533.13v0l-11.64-4.79-11.79,4.42,0,0v0h0l-.27,14.7,11.66,4.81,11.83-4.39.26-14.73Zm-11.66-3.93,4,1.49-10.91,4-3.65-1.52Zm-.81,22L113,549.34l-2.19-.87L107,546.88l.23-12.93,3.81,1.58-.06,3.24.35-.1.22.33.32-.07.31.33.27-.09.44.45,0-3.3.34.14,4.35,1.81-.23,12.93Zm.67-13.66-4.26-1.77,10.65-4.09,4.34,1.85Zm10.73,9.72-10.56,4,.23-12.92L129,534.34l-.23,12.93Z" style="fill:#bcbcbc"/></g><g id="box-closed-7" style="opacity:0.5009999871253967"><path id="Path_335-7" data-name="Path 335-7" d="M317.87,271.13v0l-11.64-4.79-11.79,4.42,0,0v0h0l-.27,14.7,11.66,4.81,11.83-4.39.26-14.73Zm-11.66-3.93,4,1.49-10.91,4-3.65-1.52Zm-.81,22L301,287.34l-2.19-.87L295,284.88l.23-12.93,3.81,1.58-.06,3.24.35-.1.22.33.32-.07.31.33.27-.09.44.45.05-3.3.34.14,4.35,1.81-.23,12.93Zm.67-13.66-4.26-1.77,10.65-4.09,4.34,1.85Zm10.73,9.72-10.56,3.95.23-12.92,10.56-4-.23,12.93Z" style="fill:#bcbcbc"/></g><g id="box-closed-8" style="opacity:0.5009999871253967"><path id="Path_335-8" data-name="Path 335-8" d="M399.87,195.13v0l-11.64-4.79-11.79,4.42,0,0v0h0l-.27,14.7,11.66,4.81,11.83-4.39.26-14.73Zm-11.66-3.93,4,1.49-10.91,4-3.65-1.52Zm-.81,22L383,211.34l-2.19-.87L377,208.88l.23-12.93,3.81,1.58-.06,3.24.35-.1.22.33.32-.07.31.33.27-.09.44.45.05-3.3.34.14,4.35,1.81-.23,12.93Zm.67-13.66-4.26-1.77,10.65-4.09,4.34,1.85Zm10.73,9.72-10.56,4,.23-12.92L399,196.34l-.23,12.93Z" style="fill:#bcbcbc"/></g><g id="box-closed-9" style="opacity:0.5009999871253967"><path id="Path_335-9" data-name="Path 335-9" d="M266.87,446.13v0l-11.64-4.79-11.79,4.42,0,0v0h0l-.27,14.7,11.66,4.81,11.83-4.39.26-14.73Zm-11.66-3.93,4,1.49-10.91,4-3.65-1.52Zm-.81,22L250,462.34l-2.19-.87L244,459.88l.23-12.93,3.81,1.58-.06,3.24.35-.1.22.33.32-.07.31.33.27-.09.44.45.05-3.3.34.14,4.35,1.81-.23,12.93Zm.67-13.66-4.26-1.77,10.65-4.09,4.34,1.85Zm10.73,9.72-10.56,3.95.23-12.92,10.56-4-.23,12.93Z" style="fill:#bcbcbc"/></g><g id="box-closed-10" style="opacity:0.5009999871253967"><path id="Path_335-10" data-name="Path 335-10" d="M414.87,548.13v0l-11.64-4.79-11.79,4.42,0,0v0h0l-.27,14.7,11.66,4.81,11.83-4.39.26-14.73Zm-11.66-3.93,4,1.49-10.91,4-3.65-1.52Zm-.81,22L398,564.34l-2.19-.87L392,561.88l.23-12.93,3.81,1.58-.06,3.24.35-.1.22.33.32-.07.31.33.27-.09.44.45.05-3.3.34.14,4.35,1.81-.23,12.93Zm.67-13.66-4.26-1.77,10.65-4.09,4.34,1.85Zm10.73,9.72-10.56,4,.23-12.92L414,549.34l-.23,12.93Z" style="fill:#bcbcbc"/></g><g id="box-closed-11" style="opacity:0.5009999871253967"><path id="Path_335-11" data-name="Path 335-11" d="M260.87,558.13v0l-11.64-4.79-11.79,4.42,0,0v0h0l-.27,14.7,11.66,4.81,11.83-4.39.26-14.73Zm-11.66-3.93,3.95,1.49-10.91,4-3.65-1.52Zm-.81,22L244,574.34l-2.19-.87L238,571.88l.23-12.93,3.81,1.58-.06,3.24.35-.1.22.33.32-.07.31.33.27-.09.44.45.05-3.3.34.14,4.35,1.81-.23,12.93Zm.67-13.66-4.26-1.77,10.65-4.09,4.34,1.85Zm10.73,9.72-10.56,4,.23-12.92L260,559.34l-.23,12.93Z" style="fill:#bcbcbc"/></g><g id="box-closed-12" style="opacity:0.5009999871253967"><path id="Path_335-12" data-name="Path 335-12" d="M439.87,297.13v0l-11.64-4.79-11.79,4.42,0,0v0h0l-.27,14.7,11.66,4.81,11.83-4.39.26-14.73Zm-11.66-3.93,4,1.49-10.91,4-3.65-1.52Zm-.81,22L423,313.34l-2.19-.87L417,310.88l.23-12.93,3.81,1.58-.06,3.24.35-.1.22.33.32-.07.31.33.27-.09.44.45.05-3.3.34.14,4.35,1.81-.23,12.93Zm.67-13.66-4.26-1.77,10.65-4.09,4.34,1.85Zm10.73,9.72-10.56,3.95.23-12.92,10.56-4-.23,12.93Z" style="fill:#bcbcbc"/></g><g id="delivery-truck" style="opacity:0.5009999871253967"><path id="Path_26" data-name="Path 26" d="M196.92,415.67V403.62a1.22,1.22,0,0,1,1.21-1.22h12.05a1.22,1.22,0,0,1,1.21,1.22v12.05a.4.4,0,0,1-.4.4H197.32a.39.39,0,0,1-.4-.39Zm9.73,4.13a2.52,2.52,0,1,1-2.52-2.51h0A2.51,2.51,0,0,1,206.65,419.8Zm-1.26,0a1.26,1.26,0,0,0-2.52,0,1.26,1.26,0,1,0,2.52,0ZM202,417.29h-5.64a.39.39,0,0,0-.4.4h0v1.22a.4.4,0,0,0,.4.4h4.52A3.3,3.3,0,0,1,202,417.29Zm17.85,2.51a2.52,2.52,0,1,1-2.52-2.51h0A2.51,2.51,0,0,1,219.81,419.8Zm-1.26,0a1.26,1.26,0,1,0-1.26,1.26,1.26,1.26,0,0,0,1.26-1.26Zm5.7-2.11v1.23a.4.4,0,0,1-.4.4h-3.27a3.32,3.32,0,0,0-6.57,0h-6.59a3.38,3.38,0,0,0-1.12-2h6.25V405.72a.8.8,0,0,1,.8-.81h3.82a3.23,3.23,0,0,1,2.68,1.43l2.46,3.64a3.25,3.25,0,0,1,.56,1.81v5.49h1a.4.4,0,0,1,.4.4Zm-4.1-7.61-2-2.8a.4.4,0,0,0-.33-.18h-3.06a.39.39,0,0,0-.4.4h0v2.8a.39.39,0,0,0,.4.4h5a.39.39,0,0,0,.4-.39.35.35,0,0,0-.07-.23Z" style="fill:#bcbcbc"/></g><g id="delivery-truck-2" style="opacity:0.5009999871253967"><path id="Path_26-2" data-name="Path 26-2" d="M83.92,355.67V343.62a1.22,1.22,0,0,1,1.21-1.22H97.18a1.22,1.22,0,0,1,1.21,1.22v12.05a.4.4,0,0,1-.4.4H84.32a.39.39,0,0,1-.4-.39Zm9.73,4.13a2.52,2.52,0,1,1-2.52-2.51h0A2.51,2.51,0,0,1,93.65,359.8Zm-1.26,0a1.26,1.26,0,0,0-2.52,0,1.26,1.26,0,0,0,2.52,0ZM89,357.29H83.32a.39.39,0,0,0-.4.4h0v1.22a.4.4,0,0,0,.4.4h4.52A3.3,3.3,0,0,1,89,357.29Zm17.85,2.51a2.52,2.52,0,1,1-2.52-2.51h0A2.51,2.51,0,0,1,106.81,359.8Zm-1.26,0a1.26,1.26,0,1,0-1.26,1.26,1.26,1.26,0,0,0,1.26-1.26Zm5.7-2.11v1.23a.4.4,0,0,1-.4.4h-3.27a3.32,3.32,0,0,0-6.57,0H94.42a3.38,3.38,0,0,0-1.12-2h6.25V345.72a.8.8,0,0,1,.8-.81h3.82a3.23,3.23,0,0,1,2.68,1.43l2.46,3.64a3.25,3.25,0,0,1,.56,1.81v5.49h1a.4.4,0,0,1,.4.4Zm-4.1-7.61-2-2.8a.4.4,0,0,0-.33-.18h-3.06a.39.39,0,0,0-.4.4h0v2.8a.39.39,0,0,0,.4.4h5a.39.39,0,0,0,.4-.39.35.35,0,0,0-.07-.23Z" style="fill:#bcbcbc"/></g><g id="delivery-truck-3" style="opacity:0.5009999871253967"><path id="Path_26-3" data-name="Path 26-3" d="M346.92,75.67V63.62a1.22,1.22,0,0,1,1.21-1.22h12.05a1.22,1.22,0,0,1,1.21,1.22V75.67a.4.4,0,0,1-.4.4H347.32a.39.39,0,0,1-.4-.39Zm9.73,4.13a2.52,2.52,0,1,1-2.52-2.51h0A2.51,2.51,0,0,1,356.65,79.8Zm-1.26,0a1.26,1.26,0,0,0-2.52,0,1.26,1.26,0,1,0,2.52,0ZM352,77.29h-5.64a.39.39,0,0,0-.4.4h0v1.22a.4.4,0,0,0,.4.4h4.52A3.3,3.3,0,0,1,352,77.29Zm17.85,2.51a2.52,2.52,0,1,1-2.52-2.51h0A2.51,2.51,0,0,1,369.81,79.8Zm-1.26,0a1.26,1.26,0,1,0-1.26,1.26,1.26,1.26,0,0,0,1.26-1.26Zm5.7-2.11v1.23a.4.4,0,0,1-.4.4h-3.27a3.32,3.32,0,0,0-6.57,0h-6.59a3.38,3.38,0,0,0-1.12-2h6.25V65.72a.8.8,0,0,1,.8-.81h3.82a3.23,3.23,0,0,1,2.68,1.43L372.31,70a3.25,3.25,0,0,1,.56,1.81v5.49h1a.4.4,0,0,1,.4.4Zm-4.1-7.61-2-2.8a.4.4,0,0,0-.33-.18h-3.06a.39.39,0,0,0-.4.4h0v2.8a.39.39,0,0,0,.4.4h5a.39.39,0,0,0,.4-.39.35.35,0,0,0-.07-.23Z" style="fill:#bcbcbc"/></g><g id="delivery-truck-4" style="opacity:0.5009999871253967"><path id="Path_26-4" data-name="Path 26-4" d="M220.92,17.67v-12a1.22,1.22,0,0,1,1.21-1.22h12.05a1.22,1.22,0,0,1,1.21,1.22V17.67a.4.4,0,0,1-.4.4H221.32a.39.39,0,0,1-.4-.39Zm9.73,4.13a2.52,2.52,0,1,1-2.52-2.51h0A2.51,2.51,0,0,1,230.65,21.8Zm-1.26,0a1.26,1.26,0,0,0-2.52,0,1.26,1.26,0,1,0,2.52,0ZM226,19.29h-5.64a.39.39,0,0,0-.4.4h0v1.22a.4.4,0,0,0,.4.4h4.52A3.3,3.3,0,0,1,226,19.29Zm17.85,2.51a2.52,2.52,0,1,1-2.52-2.51h0A2.51,2.51,0,0,1,243.81,21.8Zm-1.26,0a1.26,1.26,0,1,0-1.26,1.26,1.26,1.26,0,0,0,1.26-1.26Zm5.7-2.11v1.23a.4.4,0,0,1-.4.4h-3.27a3.32,3.32,0,0,0-6.57,0h-6.59a3.38,3.38,0,0,0-1.12-2h6.25V7.72a.8.8,0,0,1,.8-.81h3.82a3.23,3.23,0,0,1,2.68,1.43L246.31,12a3.25,3.25,0,0,1,.56,1.81v5.49h1a.4.4,0,0,1,.4.4Zm-4.1-7.61-2-2.8a.4.4,0,0,0-.33-.18h-3.06a.39.39,0,0,0-.4.4h0v2.8a.39.39,0,0,0,.4.4h5a.39.39,0,0,0,.4-.39.35.35,0,0,0-.07-.23Z" style="fill:#bcbcbc"/></g><g id="delivery-truck-5" style="opacity:0.5009999871253967"><path id="Path_26-5" data-name="Path 26-5" d="M403.92,155.67v-12a1.22,1.22,0,0,1,1.21-1.22h12.05a1.22,1.22,0,0,1,1.21,1.22v12a.4.4,0,0,1-.4.4H404.32a.39.39,0,0,1-.4-.39Zm9.73,4.13a2.52,2.52,0,1,1-2.52-2.51h0A2.51,2.51,0,0,1,413.65,159.8Zm-1.26,0a1.26,1.26,0,1,0-2.52,0,1.26,1.26,0,1,0,2.52,0ZM409,157.29h-5.64a.39.39,0,0,0-.4.4h0v1.22a.4.4,0,0,0,.4.4h4.52A3.3,3.3,0,0,1,409,157.29Zm17.85,2.51a2.52,2.52,0,1,1-2.52-2.51h0A2.51,2.51,0,0,1,426.81,159.8Zm-1.26,0a1.26,1.26,0,1,0-1.26,1.26,1.26,1.26,0,0,0,1.26-1.26Zm5.7-2.11v1.23a.4.4,0,0,1-.4.4h-3.27a3.32,3.32,0,0,0-6.57,0h-6.59a3.38,3.38,0,0,0-1.12-2h6.25V145.72a.8.8,0,0,1,.8-.81h3.82a3.23,3.23,0,0,1,2.68,1.43l2.46,3.64a3.25,3.25,0,0,1,.56,1.81v5.49h1a.4.4,0,0,1,.4.4Zm-4.1-7.61-2-2.8a.4.4,0,0,0-.33-.18h-3.06a.39.39,0,0,0-.4.4h0v2.8a.39.39,0,0,0,.4.4h5a.39.39,0,0,0,.4-.39.35.35,0,0,0-.07-.23Z" style="fill:#bcbcbc"/></g><g id="delivery-truck-6" style="opacity:0.5009999871253967"><path id="Path_26-6" data-name="Path 26-6" d="M73.92,466.67V454.62a1.22,1.22,0,0,1,1.21-1.22H87.18a1.22,1.22,0,0,1,1.21,1.22v12.05a.4.4,0,0,1-.4.4H74.32a.39.39,0,0,1-.4-.39Zm9.73,4.13a2.52,2.52,0,1,1-2.52-2.51h0A2.52,2.52,0,0,1,83.65,470.8Zm-1.26,0a1.26,1.26,0,0,0-2.52,0,1.26,1.26,0,0,0,2.52,0ZM79,468.29H73.32a.39.39,0,0,0-.4.4h0v1.22a.4.4,0,0,0,.4.4h4.52A3.3,3.3,0,0,1,79,468.29Zm17.85,2.51a2.52,2.52,0,1,1-2.52-2.51h0A2.51,2.51,0,0,1,96.81,470.8Zm-1.26,0a1.26,1.26,0,1,0-1.26,1.26,1.26,1.26,0,0,0,1.26-1.26Zm5.7-2.11v1.23a.4.4,0,0,1-.4.4H97.58a3.32,3.32,0,0,0-6.57,0H84.42a3.38,3.38,0,0,0-1.12-2h6.25V456.72a.8.8,0,0,1,.8-.81h3.82a3.23,3.23,0,0,1,2.68,1.43L99.31,461a3.25,3.25,0,0,1,.56,1.81v5.49h1a.4.4,0,0,1,.4.4Zm-4.1-7.61-2-2.8a.4.4,0,0,0-.33-.18H91.79a.39.39,0,0,0-.4.4h0v2.8a.39.39,0,0,0,.39.4h5a.39.39,0,0,0,.4-.39.35.35,0,0,0-.07-.23Z" style="fill:#bcbcbc"/></g><g id="delivery-truck-7" style="opacity:0.5009999871253967"><path id="Path_26-7" data-name="Path 26-7" d="M385.92,415.67V403.62a1.22,1.22,0,0,1,1.21-1.22h12.05a1.22,1.22,0,0,1,1.21,1.22v12.05a.4.4,0,0,1-.4.4H386.32a.39.39,0,0,1-.4-.39Zm9.73,4.13a2.52,2.52,0,1,1-2.52-2.51h0A2.51,2.51,0,0,1,395.65,419.8Zm-1.26,0a1.26,1.26,0,0,0-2.52,0,1.26,1.26,0,1,0,2.52,0ZM391,417.29h-5.64a.39.39,0,0,0-.4.4h0v1.22a.4.4,0,0,0,.4.4h4.52A3.3,3.3,0,0,1,391,417.29Zm17.85,2.51a2.52,2.52,0,1,1-2.52-2.51h0A2.51,2.51,0,0,1,408.81,419.8Zm-1.26,0a1.26,1.26,0,1,0-1.26,1.26,1.26,1.26,0,0,0,1.26-1.26Zm5.7-2.11v1.23a.4.4,0,0,1-.4.4h-3.27a3.32,3.32,0,0,0-6.57,0h-6.59a3.38,3.38,0,0,0-1.12-2h6.25V405.72a.8.8,0,0,1,.8-.81h3.82a3.23,3.23,0,0,1,2.68,1.43l2.46,3.64a3.25,3.25,0,0,1,.56,1.81v5.49h1a.4.4,0,0,1,.4.4Zm-4.1-7.61-2-2.8a.4.4,0,0,0-.33-.18h-3.06a.39.39,0,0,0-.4.4h0v2.8a.39.39,0,0,0,.4.4h5a.39.39,0,0,0,.4-.39.35.35,0,0,0-.07-.23Z" style="fill:#bcbcbc"/></g><g id="delivery-truck-8" style="opacity:0.5009999871253967"><path id="Path_26-8" data-name="Path 26-8" d="M278.92,500.67V488.62a1.22,1.22,0,0,1,1.21-1.22h12.05a1.22,1.22,0,0,1,1.21,1.22v12.05a.4.4,0,0,1-.4.4H279.32a.39.39,0,0,1-.4-.39Zm9.73,4.13a2.52,2.52,0,1,1-2.52-2.51h0A2.51,2.51,0,0,1,288.65,504.8Zm-1.26,0a1.26,1.26,0,0,0-2.52,0,1.26,1.26,0,1,0,2.52,0ZM284,502.29h-5.64a.39.39,0,0,0-.4.4h0v1.22a.4.4,0,0,0,.4.4h4.52A3.3,3.3,0,0,1,284,502.29Zm17.85,2.51a2.52,2.52,0,1,1-2.52-2.51h0A2.51,2.51,0,0,1,301.81,504.8Zm-1.26,0a1.26,1.26,0,1,0-1.26,1.26,1.26,1.26,0,0,0,1.26-1.26Zm5.7-2.11v1.23a.4.4,0,0,1-.4.4h-3.27a3.32,3.32,0,0,0-6.57,0h-6.59a3.38,3.38,0,0,0-1.12-2h6.25V490.72a.8.8,0,0,1,.8-.81h3.82a3.23,3.23,0,0,1,2.68,1.43l2.46,3.64a3.25,3.25,0,0,1,.56,1.81v5.49h1a.4.4,0,0,1,.4.4Zm-4.1-7.61-2-2.8a.4.4,0,0,0-.33-.18h-3.06a.39.39,0,0,0-.4.4h0v2.8a.39.39,0,0,0,.4.4h5a.39.39,0,0,0,.4-.39.35.35,0,0,0-.07-.23Z" style="fill:#bcbcbc"/></g><g id="Group_582" data-name="Group 582" style="opacity:0.49799999594688416"><g id="Ellipse_4" data-name="Ellipse 4"><circle cx="177.37" cy="275.82" r="2.58" style="fill:none"/><circle cx="177.37" cy="275.82" r="1.58" style="fill:none;stroke:#bcbcbc;stroke-width:2px"/></g><g id="Ellipse_5" data-name="Ellipse 5"><circle cx="194.96" cy="275.82" r="2.58" style="fill:none"/><circle cx="194.96" cy="275.82" r="1.58" style="fill:none;stroke:#bcbcbc;stroke-width:2px"/></g><g id="Group_581" data-name="Group 581"><path id="Subtraction_2" data-name="Subtraction 2" d="M174.14,275.19h-5.28a.56.56,0,0,1-.46-.16.26.26,0,0,1-.07-.22h0c0-.48,0-2.9,0-3.39a.59.59,0,0,1,.54-.61h18.91v-.19c0-1.76,0-10.55,0-11.34a1.34,1.34,0,0,1,.86-1.22h5a4.33,4.33,0,0,1,2.33,1.22l0,0c.6.83,2.61,3.64,3.33,4.76a4,4,0,0,1,.8,1.72v7.17h1.36v2.25l-4.72,0a3.36,3.36,0,0,0-6.63,0H181a3.36,3.36,0,0,0-6.63,0ZM190,260.62v4.5h7.28l-2.92-4.5Z" style="fill:#bcbcbc"/></g></g><g id="Group_1162" data-name="Group 1162" style="opacity:0.49799999594688416"><g id="Ellipse_4-2" data-name="Ellipse 4-2"><circle cx="215.37" cy="209.82" r="2.58" style="fill:none"/><circle cx="215.37" cy="209.82" r="1.58" style="fill:none;stroke:#bcbcbc;stroke-width:2px"/></g><g id="Ellipse_5-2" data-name="Ellipse 5-2"><circle cx="232.96" cy="209.82" r="2.58" style="fill:none"/><circle cx="232.96" cy="209.82" r="1.58" style="fill:none;stroke:#bcbcbc;stroke-width:2px"/></g><g id="Group_581-2" data-name="Group 581-2"><path id="Subtraction_2-2" data-name="Subtraction 2-2" d="M212.14,209.19h-5.28a.56.56,0,0,1-.46-.16.26.26,0,0,1-.07-.22h0c0-.48,0-2.9,0-3.39a.59.59,0,0,1,.54-.61h18.91v-.19c0-1.76,0-10.55,0-11.34a1.34,1.34,0,0,1,.86-1.22h5a4.33,4.33,0,0,1,2.33,1.22l0,0c.6.83,2.61,3.64,3.33,4.76a4,4,0,0,1,.8,1.72v7.17h1.36v2.25l-4.72,0a3.36,3.36,0,0,0-6.63,0H219a3.36,3.36,0,0,0-6.63,0ZM228,194.62v4.5h7.28l-2.92-4.5Z" style="fill:#bcbcbc"/></g></g><g id="Group_1161" data-name="Group 1161" style="opacity:0.49799999594688416"><g id="Ellipse_4-3" data-name="Ellipse 4-3"><circle cx="9.37" cy="557.82" r="2.58" style="fill:none"/><circle cx="9.37" cy="557.82" r="1.58" style="fill:none;stroke:#bcbcbc;stroke-width:2px"/></g><g id="Ellipse_5-3" data-name="Ellipse 5-3"><circle cx="26.96" cy="557.82" r="2.58" style="fill:none"/><circle cx="26.96" cy="557.82" r="1.58" style="fill:none;stroke:#bcbcbc;stroke-width:2px"/></g><g id="Group_581-3" data-name="Group 581-3"><path id="Subtraction_2-3" data-name="Subtraction 2-3" d="M6.14,557.19H.86A.56.56,0,0,1,.4,557a.26.26,0,0,1-.07-.22h0c0-.48,0-2.9,0-3.39a.59.59,0,0,1,.54-.61H19.78v-.19c0-1.76,0-10.55,0-11.34a1.34,1.34,0,0,1,.86-1.22h5A4.33,4.33,0,0,1,28,541.27l0,0c.6.83,2.61,3.64,3.33,4.76a4,4,0,0,1,.8,1.72v7.17h1.35v2.25l-4.71,0a3.36,3.36,0,0,0-6.63,0H13a3.36,3.36,0,0,0-6.63,0ZM22,542.62v4.5h7.28l-2.92-4.5Z" style="fill:#bcbcbc"/></g></g><g id="delivery-truck-2-2" data-name="delivery-truck" style="opacity:0.5040000081062317"><path id="Path_28" data-name="Path 28" d="M284.7,356.48H305v2.81H290.23a3.16,3.16,0,0,0-4-1.89,3.1,3.1,0,0,0-1.86,1.84,1.36,1.36,0,0,1-1-1.29v-.12a1.34,1.34,0,0,1,1.35-1.35Zm4.8,3.57a2.35,2.35,0,1,1-2.34-2.34h0A2.34,2.34,0,0,1,289.5,360.05Zm-.72,0a1.63,1.63,0,1,0-1.62,1.63h0a1.63,1.63,0,0,0,1.63-1.63h0Zm24.41,0a2.35,2.35,0,1,1-2.34-2.34h0a2.33,2.33,0,0,1,2.34,2.34Zm-.72,0a1.63,1.63,0,1,0-1.62,1.63h0a1.64,1.64,0,0,0,1.63-1.63h0Zm4.14-6.73v5.3a.45.45,0,0,1-.45.45h-2.34a3.14,3.14,0,0,0-5.73,0h-1.58a.45.45,0,0,1-.45-.45V348a.45.45,0,0,1,.45-.44h5.9a1.1,1.1,0,0,1,.9.44Zm-2.09-1.17-2-3.34c-.15-.29-.34-.45-1-.45h-3.65a.45.45,0,0,0-.45.45v3.34a.45.45,0,0,0,.45.45h6.26a.45.45,0,0,0,.44-.45Zm1.74,5.09a.42.42,0,0,0-.83,0v.8a.41.41,0,0,0,.42.41.41.41,0,0,0,.41-.41ZM282,355.68h23V343H282Z" style="fill:#bcbcbc"/></g><g id="delivery-truck_1_2" data-name="delivery-truck 1 2" style="opacity:0.5040000081062317"><path id="Path_28-2" data-name="Path 28-2" d="M2.7,298.48H23v2.81H8.23a3.16,3.16,0,0,0-4-1.89,3.1,3.1,0,0,0-1.86,1.84,1.36,1.36,0,0,1-1-1.29v-.12a1.34,1.34,0,0,1,1.35-1.35Zm4.8,3.57a2.35,2.35,0,1,1-2.34-2.34h0A2.34,2.34,0,0,1,7.5,302.05Zm-.72,0a1.63,1.63,0,1,0-1.62,1.63h0a1.63,1.63,0,0,0,1.63-1.63h0Zm24.41,0a2.35,2.35,0,1,1-2.35-2.34h0a2.33,2.33,0,0,1,2.35,2.34Zm-.72,0a1.63,1.63,0,1,0-1.63,1.63h0a1.64,1.64,0,0,0,1.64-1.63h0Zm4.14-6.73v5.3a.45.45,0,0,1-.45.45H31.82a3.14,3.14,0,0,0-5.73,0H24.51a.45.45,0,0,1-.45-.45V290a.45.45,0,0,1,.45-.44h5.9a1.1,1.1,0,0,1,.9.44Zm-2.09-1.17-2-3.34c-.15-.29-.34-.45-1-.45H25.82a.45.45,0,0,0-.45.45v3.34a.45.45,0,0,0,.45.45h6.26a.45.45,0,0,0,.44-.45Zm1.74,5.09a.42.42,0,0,0-.83,0v.8a.41.41,0,0,0,.42.41.41.41,0,0,0,.41-.41ZM0,297.68H23V285H0Z" style="fill:#bcbcbc"/></g><g id="delivery-truck_1_3" data-name="delivery-truck 1 3" style="opacity:0.5040000081062317"><path id="Path_28-3" data-name="Path 28-3" d="M181.7,506.48H202v2.81H187.22a3.15,3.15,0,0,0-5.9-.05,1.36,1.36,0,0,1-1-1.29v-.12a1.34,1.34,0,0,1,1.35-1.35Zm4.8,3.57a2.35,2.35,0,1,1-2.34-2.34h0A2.34,2.34,0,0,1,186.5,510.05Zm-.72,0a1.63,1.63,0,1,0-1.62,1.63h0a1.63,1.63,0,0,0,1.63-1.63h0Zm24.41,0a2.35,2.35,0,1,1-2.35-2.34h0a2.33,2.33,0,0,1,2.35,2.34Zm-.72,0a1.63,1.63,0,1,0-1.63,1.63h0a1.64,1.64,0,0,0,1.64-1.63h0Zm4.14-6.73v5.3a.45.45,0,0,1-.45.45h-2.34a3.14,3.14,0,0,0-5.73,0h-1.58a.45.45,0,0,1-.45-.45V498a.45.45,0,0,1,.45-.44h5.9a1.1,1.1,0,0,1,.9.44Zm-2.09-1.17-2-3.34c-.15-.29-.34-.45-1-.45h-3.65a.45.45,0,0,0-.45.45v3.34a.45.45,0,0,0,.45.45h6.25a.45.45,0,0,0,.45-.45Zm1.74,5.09a.42.42,0,0,0-.83,0v.8a.41.41,0,0,0,.42.41.41.41,0,0,0,.41-.41ZM179,505.68h23V493H179Z" style="fill:#bcbcbc"/></g><g id="delivery-truck_1_4" data-name="delivery-truck 1 4" style="opacity:0.5040000081062317"><path id="Path_28-4" data-name="Path 28-4" d="M54.7,66.48H75v2.81H60.23a3.16,3.16,0,0,0-4-1.89,3.1,3.1,0,0,0-1.86,1.84,1.36,1.36,0,0,1-1-1.29v-.12a1.34,1.34,0,0,1,1.35-1.35Zm4.8,3.57a2.35,2.35,0,1,1-2.34-2.34h0A2.34,2.34,0,0,1,59.5,70.05Zm-.72,0a1.63,1.63,0,1,0-1.62,1.63h0a1.63,1.63,0,0,0,1.63-1.63h0Zm24.41,0a2.35,2.35,0,1,1-2.35-2.34h0a2.33,2.33,0,0,1,2.35,2.34Zm-.72,0a1.63,1.63,0,1,0-1.63,1.63h0a1.64,1.64,0,0,0,1.64-1.63h0Zm4.14-6.73v5.3a.45.45,0,0,1-.45.45H83.82a3.14,3.14,0,0,0-5.73,0H76.51a.45.45,0,0,1-.45-.45V58a.45.45,0,0,1,.45-.44h5.9a1.1,1.1,0,0,1,.9.44Zm-2.09-1.17-2-3.34c-.15-.29-.34-.45-1-.45H77.82a.45.45,0,0,0-.45.45v3.34a.45.45,0,0,0,.45.45h6.26a.45.45,0,0,0,.44-.45Zm1.74,5.09a.42.42,0,0,0-.83,0V68a.41.41,0,0,0,.42.41.41.41,0,0,0,.41-.41ZM52,65.68H75V53H52Z" style="fill:#bcbcbc"/></g><g id="sun" style="opacity:0.49799999594688416"><g id="Group_1166" data-name="Group 1166"><g id="Group_1165" data-name="Group 1165"><path id="Path_2913" data-name="Path 2913" d="M57.86,111.66a.48.48,0,0,0-.66-.17l-2.35,1.36a.48.48,0,0,0,.48.84l2.36-1.37a.47.47,0,0,0,.17-.65Z" style="fill:#bcbcbc"/></g></g><g id="Group_1168" data-name="Group 1168"><g id="Group_1167" data-name="Group 1167"><path id="Path_2914" data-name="Path 2914" d="M57.69,124.26l-2.36-1.36a.48.48,0,0,0-.66.17.48.48,0,0,0,.18.66l2.35,1.36a.48.48,0,0,0,.66-.17A.48.48,0,0,0,57.69,124.26Z" style="fill:#bcbcbc"/></g></g><g id="Group_1170" data-name="Group 1170"><g id="Group_1169" data-name="Group 1169"><path id="Path_2915" data-name="Path 2915" d="M46.42,127.82a.48.48,0,0,0-.52.45v2.79a.49.49,0,0,0,1,.07v-2.79a.48.48,0,0,0-.45-.52Z" style="fill:#bcbcbc"/></g></g><g id="Group_1172" data-name="Group 1172"><g id="Group_1171" data-name="Group 1171"><path id="Path_2916" data-name="Path 2916" d="M37.92,112.85l-2.35-1.36a.48.48,0,1,0-.49.83l2.36,1.37a.48.48,0,1,0,.48-.84Z" style="fill:#bcbcbc"/></g></g><g id="Group_1174" data-name="Group 1174"><g id="Group_1173" data-name="Group 1173"><path id="Path_2917" data-name="Path 2917" d="M46.42,105a.48.48,0,0,0-.52.45v2.79a.5.5,0,0,0,.46.51.49.49,0,0,0,.51-.46v-2.77a.48.48,0,0,0-.45-.52Z" style="fill:#bcbcbc"/></g></g><g id="Group_1176" data-name="Group 1176"><g id="Group_1175" data-name="Group 1175"><path id="Path_2918" data-name="Path 2918" d="M41.78,109.34,40.42,107a.48.48,0,0,0-.66-.17.49.49,0,0,0-.18.66l1.36,2.35a.48.48,0,0,0,.84-.48Z" style="fill:#bcbcbc"/></g></g><g id="Group_1178" data-name="Group 1178"><g id="Group_1177" data-name="Group 1177"><path id="Path_2919" data-name="Path 2919" d="M46.46,114h-.08a4.3,4.3,0,0,0-4.3,4.3h0a.48.48,0,0,0,.47.5.47.47,0,0,0,.5-.46v0A3.34,3.34,0,0,1,46.38,115h0a.48.48,0,0,0,.53-.43.49.49,0,0,0-.44-.53Z" style="fill:#bcbcbc"/></g></g><g id="Group_1180" data-name="Group 1180"><g id="Group_1179" data-name="Group 1179"><path id="Path_2920" data-name="Path 2920" d="M59.6,118.25a.47.47,0,0,0-.45-.44H56.43a.48.48,0,0,0-.53.43.49.49,0,0,0,.44.53h2.81A.48.48,0,0,0,59.6,118.25Z" style="fill:#bcbcbc"/></g></g><g id="Group_1182" data-name="Group 1182"><g id="Group_1181" data-name="Group 1181"><path id="Path_2921" data-name="Path 2921" d="M36.41,117.81H33.62a.48.48,0,0,0-.45.52.49.49,0,0,0,.45.45h2.72a.5.5,0,0,0,.53-.44.49.49,0,0,0-.44-.53Z" style="fill:#bcbcbc"/></g></g><g id="Group_1184" data-name="Group 1184"><g id="Group_1183" data-name="Group 1183"><path id="Path_2922" data-name="Path 2922" d="M46.39,111.18a7.12,7.12,0,1,0,7.11,7.11h0A7.11,7.11,0,0,0,46.39,111.18Zm4.34,11.47A6.15,6.15,0,1,1,42,114h0a6.15,6.15,0,0,1,8.7,8.7Z" style="fill:#bcbcbc"/></g></g><g id="Group_1186" data-name="Group 1186"><g id="Group_1185" data-name="Group 1185"><path id="Path_2923" data-name="Path 2923" d="M53.19,129.11h0l-1.36-2.36a.49.49,0,0,0-.84.49h0l1.36,2.35a.48.48,0,1,0,.84-.48Z" style="fill:#bcbcbc"/></g></g><g id="Group_1188" data-name="Group 1188"><g id="Group_1187" data-name="Group 1187"><path id="Path_2924" data-name="Path 2924" d="M53,106.81a.49.49,0,0,0-.66.18L51,109.34a.48.48,0,0,0,.17.66h0a.48.48,0,0,0,.66-.17h0l1.36-2.36a.49.49,0,0,0-.17-.66Z" style="fill:#bcbcbc"/></g></g><g id="Group_1190" data-name="Group 1190"><g id="Group_1189" data-name="Group 1189"><path id="Path_2925" data-name="Path 2925" d="M41.6,126.58a.46.46,0,0,0-.65.17l-1.37,2.36a.48.48,0,1,0,.83.48l1.37-2.36A.48.48,0,0,0,41.6,126.58Z" style="fill:#bcbcbc"/></g></g><g id="Group_1192" data-name="Group 1192"><g id="Group_1191" data-name="Group 1191"><path id="Path_2926" data-name="Path 2926" d="M38.1,123.07a.48.48,0,0,0-.66-.17l-2.35,1.36a.49.49,0,0,0-.18.66.48.48,0,0,0,.66.17l2.36-1.36A.48.48,0,0,0,38.1,123.07Z" style="fill:#bcbcbc"/></g></g></g><g id="sun-2" style="opacity:0.49799999594688416"><g id="Group_1166-2" data-name="Group 1166-2"><g id="Group_1165-2" data-name="Group 1165-2"><path id="Path_2913-2" data-name="Path 2913-2" d="M248.86,301.66a.48.48,0,0,0-.66-.17l-2.35,1.36a.48.48,0,1,0,.48.84l2.36-1.37a.47.47,0,0,0,.17-.65Z" style="fill:#bcbcbc"/></g></g><g id="Group_1168-2" data-name="Group 1168-2"><g id="Group_1167-2" data-name="Group 1167-2"><path id="Path_2914-2" data-name="Path 2914-2" d="M248.69,314.26l-2.36-1.36a.48.48,0,0,0-.66.17.48.48,0,0,0,.18.66l2.35,1.36a.48.48,0,0,0,.66-.17A.48.48,0,0,0,248.69,314.26Z" style="fill:#bcbcbc"/></g></g><g id="Group_1170-2" data-name="Group 1170-2"><g id="Group_1169-2" data-name="Group 1169-2"><path id="Path_2915-2" data-name="Path 2915-2" d="M237.42,317.82a.48.48,0,0,0-.52.45v2.79a.49.49,0,0,0,1,.07v-2.79a.48.48,0,0,0-.45-.52Z" style="fill:#bcbcbc"/></g></g><g id="Group_1172-2" data-name="Group 1172-2"><g id="Group_1171-2" data-name="Group 1171-2"><path id="Path_2916-2" data-name="Path 2916-2" d="M228.92,302.85l-2.35-1.36a.48.48,0,1,0-.49.83l2.36,1.37a.48.48,0,0,0,.48-.84Z" style="fill:#bcbcbc"/></g></g><g id="Group_1174-2" data-name="Group 1174-2"><g id="Group_1173-2" data-name="Group 1173-2"><path id="Path_2917-2" data-name="Path 2917-2" d="M237.42,295a.48.48,0,0,0-.52.45v2.79a.5.5,0,0,0,.46.51.49.49,0,0,0,.51-.46v-2.77a.48.48,0,0,0-.45-.52Z" style="fill:#bcbcbc"/></g></g><g id="Group_1176-2" data-name="Group 1176-2"><g id="Group_1175-2" data-name="Group 1175-2"><path id="Path_2918-2" data-name="Path 2918-2" d="M232.78,299.34,231.42,297a.48.48,0,0,0-.66-.17.49.49,0,0,0-.18.66l1.36,2.35a.48.48,0,1,0,.84-.48Z" style="fill:#bcbcbc"/></g></g><g id="Group_1178-2" data-name="Group 1178-2"><g id="Group_1177-2" data-name="Group 1177-2"><path id="Path_2919-2" data-name="Path 2919-2" d="M237.46,304h-.08a4.3,4.3,0,0,0-4.3,4.3h0a.48.48,0,0,0,.47.5.47.47,0,0,0,.5-.46v0a3.34,3.34,0,0,1,3.33-3.34h0a.48.48,0,0,0,.53-.43.49.49,0,0,0-.44-.53Z" style="fill:#bcbcbc"/></g></g><g id="Group_1180-2" data-name="Group 1180-2"><g id="Group_1179-2" data-name="Group 1179-2"><path id="Path_2920-2" data-name="Path 2920-2" d="M250.6,308.25a.47.47,0,0,0-.45-.44h-2.72a.48.48,0,0,0-.53.43.49.49,0,0,0,.44.53h2.81A.48.48,0,0,0,250.6,308.25Z" style="fill:#bcbcbc"/></g></g><g id="Group_1182-2" data-name="Group 1182-2"><g id="Group_1181-2" data-name="Group 1181-2"><path id="Path_2921-2" data-name="Path 2921-2" d="M227.41,307.81h-2.79a.48.48,0,0,0-.45.52.49.49,0,0,0,.45.45h2.72a.5.5,0,0,0,.53-.44.49.49,0,0,0-.44-.53Z" style="fill:#bcbcbc"/></g></g><g id="Group_1184-2" data-name="Group 1184-2"><g id="Group_1183-2" data-name="Group 1183-2"><path id="Path_2922-2" data-name="Path 2922-2" d="M237.39,301.18a7.12,7.12,0,1,0,7.11,7.11h0A7.11,7.11,0,0,0,237.39,301.18Zm4.34,11.47A6.15,6.15,0,0,1,233,304h0a6.15,6.15,0,1,1,8.7,8.7Z" style="fill:#bcbcbc"/></g></g><g id="Group_1186-2" data-name="Group 1186-2"><g id="Group_1185-2" data-name="Group 1185-2"><path id="Path_2923-2" data-name="Path 2923-2" d="M244.19,319.11h0l-1.36-2.36a.49.49,0,0,0-.84.49h0l1.36,2.35a.48.48,0,1,0,.84-.48Z" style="fill:#bcbcbc"/></g></g><g id="Group_1188-2" data-name="Group 1188-2"><g id="Group_1187-2" data-name="Group 1187-2"><path id="Path_2924-2" data-name="Path 2924-2" d="M244,296.81a.49.49,0,0,0-.66.18L242,299.34a.48.48,0,0,0,.17.66h0a.48.48,0,0,0,.66-.17h0l1.36-2.36a.49.49,0,0,0-.17-.66Z" style="fill:#bcbcbc"/></g></g><g id="Group_1190-2" data-name="Group 1190-2"><g id="Group_1189-2" data-name="Group 1189-2"><path id="Path_2925-2" data-name="Path 2925-2" d="M232.6,316.58a.46.46,0,0,0-.65.17l-1.37,2.36a.48.48,0,1,0,.83.48l1.37-2.36A.48.48,0,0,0,232.6,316.58Z" style="fill:#bcbcbc"/></g></g><g id="Group_1192-2" data-name="Group 1192-2"><g id="Group_1191-2" data-name="Group 1191-2"><path id="Path_2926-2" data-name="Path 2926-2" d="M229.1,313.07a.48.48,0,0,0-.66-.17l-2.35,1.36a.49.49,0,0,0-.18.66.48.48,0,0,0,.66.17l2.36-1.36A.48.48,0,0,0,229.1,313.07Z" style="fill:#bcbcbc"/></g></g></g><g id="sun-3" style="opacity:0.49799999594688416"><g id="Group_1166-3" data-name="Group 1166-3"><g id="Group_1165-3" data-name="Group 1165-3"><path id="Path_2913-3" data-name="Path 2913-3" d="M70.86,402.66a.48.48,0,0,0-.66-.17l-2.35,1.36a.48.48,0,0,0,.48.84l2.36-1.37a.47.47,0,0,0,.17-.65Z" style="fill:#bcbcbc"/></g></g><g id="Group_1168-3" data-name="Group 1168-3"><g id="Group_1167-3" data-name="Group 1167-3"><path id="Path_2914-3" data-name="Path 2914-3" d="M70.69,415.26l-2.36-1.36a.48.48,0,0,0-.66.17.48.48,0,0,0,.18.66l2.35,1.36a.48.48,0,0,0,.66-.17A.48.48,0,0,0,70.69,415.26Z" style="fill:#bcbcbc"/></g></g><g id="Group_1170-3" data-name="Group 1170-3"><g id="Group_1169-3" data-name="Group 1169-3"><path id="Path_2915-3" data-name="Path 2915-3" d="M59.42,418.82a.48.48,0,0,0-.52.45v2.79a.49.49,0,0,0,1,.07v-2.79a.48.48,0,0,0-.45-.52Z" style="fill:#bcbcbc"/></g></g><g id="Group_1172-3" data-name="Group 1172-3"><g id="Group_1171-3" data-name="Group 1171-3"><path id="Path_2916-3" data-name="Path 2916-3" d="M50.92,403.85l-2.35-1.36a.48.48,0,0,0-.49.83l2.36,1.37a.48.48,0,0,0,.48-.84Z" style="fill:#bcbcbc"/></g></g><g id="Group_1174-3" data-name="Group 1174-3"><g id="Group_1173-3" data-name="Group 1173-3"><path id="Path_2917-3" data-name="Path 2917-3" d="M59.42,396a.48.48,0,0,0-.52.45v2.79a.5.5,0,0,0,.46.51.49.49,0,0,0,.51-.46v-2.77a.48.48,0,0,0-.45-.52Z" style="fill:#bcbcbc"/></g></g><g id="Group_1176-3" data-name="Group 1176-3"><g id="Group_1175-3" data-name="Group 1175-3"><path id="Path_2918-3" data-name="Path 2918-3" d="M54.78,400.34,53.42,398a.48.48,0,0,0-.66-.17.49.49,0,0,0-.18.66l1.36,2.35a.48.48,0,1,0,.84-.48Z" style="fill:#bcbcbc"/></g></g><g id="Group_1178-3" data-name="Group 1178-3"><g id="Group_1177-3" data-name="Group 1177-3"><path id="Path_2919-3" data-name="Path 2919-3" d="M59.46,405h-.08a4.3,4.3,0,0,0-4.3,4.3h0a.48.48,0,0,0,.47.5.47.47,0,0,0,.5-.46v0A3.34,3.34,0,0,1,59.38,406h0a.48.48,0,0,0,.53-.43.49.49,0,0,0-.44-.53Z" style="fill:#bcbcbc"/></g></g><g id="Group_1180-3" data-name="Group 1180-3"><g id="Group_1179-3" data-name="Group 1179-3"><path id="Path_2920-3" data-name="Path 2920-3" d="M72.6,409.25a.47.47,0,0,0-.45-.44H69.43a.48.48,0,0,0-.53.43.49.49,0,0,0,.44.53h2.81A.48.48,0,0,0,72.6,409.25Z" style="fill:#bcbcbc"/></g></g><g id="Group_1182-3" data-name="Group 1182-3"><g id="Group_1181-3" data-name="Group 1181-3"><path id="Path_2921-3" data-name="Path 2921-3" d="M49.41,408.81H46.62a.48.48,0,0,0-.45.52.49.49,0,0,0,.45.45h2.72a.5.5,0,0,0,.53-.44.49.49,0,0,0-.44-.53Z" style="fill:#bcbcbc"/></g></g><g id="Group_1184-3" data-name="Group 1184-3"><g id="Group_1183-3" data-name="Group 1183-3"><path id="Path_2922-3" data-name="Path 2922-3" d="M59.39,402.18a7.12,7.12,0,1,0,7.11,7.11h0A7.11,7.11,0,0,0,59.39,402.18Zm4.34,11.47A6.15,6.15,0,0,1,55,405h0a6.15,6.15,0,1,1,8.7,8.7Z" style="fill:#bcbcbc"/></g></g><g id="Group_1186-3" data-name="Group 1186-3"><g id="Group_1185-3" data-name="Group 1185-3"><path id="Path_2923-3" data-name="Path 2923-3" d="M66.19,420.11h0l-1.36-2.36a.49.49,0,0,0-.84.49h0l1.36,2.35a.48.48,0,0,0,.84-.48Z" style="fill:#bcbcbc"/></g></g><g id="Group_1188-3" data-name="Group 1188-3"><g id="Group_1187-3" data-name="Group 1187-3"><path id="Path_2924-3" data-name="Path 2924-3" d="M66,397.81a.49.49,0,0,0-.66.18L64,400.34a.48.48,0,0,0,.17.66h0a.48.48,0,0,0,.66-.17h0l1.36-2.36a.49.49,0,0,0-.17-.66Z" style="fill:#bcbcbc"/></g></g><g id="Group_1190-3" data-name="Group 1190-3"><g id="Group_1189-3" data-name="Group 1189-3"><path id="Path_2925-3" data-name="Path 2925-3" d="M54.6,417.58a.46.46,0,0,0-.65.17l-1.37,2.36a.48.48,0,1,0,.83.48l1.37-2.36A.48.48,0,0,0,54.6,417.58Z" style="fill:#bcbcbc"/></g></g><g id="Group_1192-3" data-name="Group 1192-3"><g id="Group_1191-3" data-name="Group 1191-3"><path id="Path_2926-3" data-name="Path 2926-3" d="M51.1,414.07a.48.48,0,0,0-.66-.17l-2.35,1.36a.49.49,0,0,0-.18.66.48.48,0,0,0,.66.17l2.36-1.36A.48.48,0,0,0,51.1,414.07Z" style="fill:#bcbcbc"/></g></g></g><g id="sun-4" style="opacity:0.49799999594688416"><g id="Group_1166-4" data-name="Group 1166-4"><g id="Group_1165-4" data-name="Group 1165-4"><path id="Path_2913-4" data-name="Path 2913-4" d="M414.86,345.66a.48.48,0,0,0-.66-.17l-2.35,1.36a.48.48,0,0,0,.48.84l2.36-1.37a.47.47,0,0,0,.17-.65Z" style="fill:#bcbcbc"/></g></g><g id="Group_1168-4" data-name="Group 1168-4"><g id="Group_1167-4" data-name="Group 1167-4"><path id="Path_2914-4" data-name="Path 2914-4" d="M414.68,358.26l-2.35-1.36a.48.48,0,0,0-.66.17.48.48,0,0,0,.18.66l2.35,1.36a.48.48,0,1,0,.48-.83Z" style="fill:#bcbcbc"/></g></g><g id="Group_1170-4" data-name="Group 1170-4"><g id="Group_1169-4" data-name="Group 1169-4"><path id="Path_2915-4" data-name="Path 2915-4" d="M403.42,361.82a.48.48,0,0,0-.52.45v2.79a.49.49,0,0,0,1,.07v-2.79a.48.48,0,0,0-.45-.52Z" style="fill:#bcbcbc"/></g></g><g id="Group_1172-4" data-name="Group 1172-4"><g id="Group_1171-4" data-name="Group 1171-4"><path id="Path_2916-4" data-name="Path 2916-4" d="M394.92,346.85l-2.35-1.36a.48.48,0,0,0-.49.83l2.36,1.37a.48.48,0,0,0,.48-.84Z" style="fill:#bcbcbc"/></g></g><g id="Group_1174-4" data-name="Group 1174-4"><g id="Group_1173-4" data-name="Group 1173-4"><path id="Path_2917-4" data-name="Path 2917-4" d="M403.42,339a.48.48,0,0,0-.52.45v2.79a.5.5,0,0,0,.46.51.49.49,0,0,0,.51-.46v-2.77a.48.48,0,0,0-.45-.52Z" style="fill:#bcbcbc"/></g></g><g id="Group_1176-4" data-name="Group 1176-4"><g id="Group_1175-4" data-name="Group 1175-4"><path id="Path_2918-4" data-name="Path 2918-4" d="M398.78,343.34,397.42,341a.48.48,0,0,0-.66-.17.49.49,0,0,0-.18.66l1.36,2.35a.48.48,0,0,0,.84-.48Z" style="fill:#bcbcbc"/></g></g><g id="Group_1178-4" data-name="Group 1178-4"><g id="Group_1177-4" data-name="Group 1177-4"><path id="Path_2919-4" data-name="Path 2919-4" d="M403.46,348h-.08a4.3,4.3,0,0,0-4.3,4.3h0a.48.48,0,0,0,.47.5.47.47,0,0,0,.5-.46v0a3.34,3.34,0,0,1,3.33-3.34h0a.48.48,0,0,0,.53-.43.49.49,0,0,0-.44-.53Z" style="fill:#bcbcbc"/></g></g><g id="Group_1180-4" data-name="Group 1180-4"><g id="Group_1179-4" data-name="Group 1179-4"><path id="Path_2920-4" data-name="Path 2920-4" d="M416.6,352.25a.47.47,0,0,0-.45-.44h-2.72a.48.48,0,1,0-.09,1h2.81A.48.48,0,0,0,416.6,352.25Z" style="fill:#bcbcbc"/></g></g><g id="Group_1182-4" data-name="Group 1182-4"><g id="Group_1181-4" data-name="Group 1181-4"><path id="Path_2921-4" data-name="Path 2921-4" d="M393.41,351.81h-2.79a.48.48,0,0,0-.45.52.49.49,0,0,0,.45.45h2.72a.5.5,0,0,0,.53-.44.49.49,0,0,0-.44-.53Z" style="fill:#bcbcbc"/></g></g><g id="Group_1184-4" data-name="Group 1184-4"><g id="Group_1183-4" data-name="Group 1183-4"><path id="Path_2922-4" data-name="Path 2922-4" d="M403.39,345.18a7.12,7.12,0,1,0,7.11,7.11h0A7.11,7.11,0,0,0,403.39,345.18Zm4.34,11.47A6.15,6.15,0,0,1,399,348h0a6.15,6.15,0,1,1,8.7,8.7Z" style="fill:#bcbcbc"/></g></g><g id="Group_1186-4" data-name="Group 1186-4"><g id="Group_1185-4" data-name="Group 1185-4"><path id="Path_2923-4" data-name="Path 2923-4" d="M410.19,363.11h0l-1.36-2.36a.49.49,0,0,0-.84.49h0l1.36,2.35a.48.48,0,1,0,.84-.48Z" style="fill:#bcbcbc"/></g></g><g id="Group_1188-4" data-name="Group 1188-4"><g id="Group_1187-4" data-name="Group 1187-4"><path id="Path_2924-4" data-name="Path 2924-4" d="M410,340.81a.49.49,0,0,0-.66.18L408,343.34a.48.48,0,0,0,.17.66h0a.48.48,0,0,0,.66-.17h0l1.36-2.36a.49.49,0,0,0-.17-.66Z" style="fill:#bcbcbc"/></g></g><g id="Group_1190-4" data-name="Group 1190-4"><g id="Group_1189-4" data-name="Group 1189-4"><path id="Path_2925-4" data-name="Path 2925-4" d="M398.6,360.58a.48.48,0,0,0-.66.17l-1.36,2.36a.48.48,0,1,0,.83.48l1.37-2.36A.48.48,0,0,0,398.6,360.58Z" style="fill:#bcbcbc"/></g></g><g id="Group_1192-4" data-name="Group 1192-4"><g id="Group_1191-4" data-name="Group 1191-4"><path id="Path_2926-4" data-name="Path 2926-4" d="M395.1,357.07a.48.48,0,0,0-.66-.17l-2.35,1.36a.49.49,0,0,0-.18.66.48.48,0,0,0,.66.17l2.36-1.36A.48.48,0,0,0,395.1,357.07Z" style="fill:#bcbcbc"/></g></g></g><g id="sun-5" style="opacity:0.49799999594688416"><g id="Group_1166-5" data-name="Group 1166-5"><g id="Group_1165-5" data-name="Group 1165-5"><path id="Path_2913-5" data-name="Path 2913-5" d="M190.86,540.66a.48.48,0,0,0-.66-.17l-2.35,1.36a.48.48,0,1,0,.48.84l2.36-1.37a.47.47,0,0,0,.17-.65Z" style="fill:#bcbcbc"/></g></g><g id="Group_1168-5" data-name="Group 1168-5"><g id="Group_1167-5" data-name="Group 1167-5"><path id="Path_2914-5" data-name="Path 2914-5" d="M190.69,553.26l-2.36-1.36a.48.48,0,0,0-.66.17.48.48,0,0,0,.18.66l2.35,1.36a.48.48,0,0,0,.66-.17A.48.48,0,0,0,190.69,553.26Z" style="fill:#bcbcbc"/></g></g><g id="Group_1170-5" data-name="Group 1170-5"><g id="Group_1169-5" data-name="Group 1169-5"><path id="Path_2915-5" data-name="Path 2915-5" d="M179.42,556.82a.48.48,0,0,0-.52.45v2.79a.49.49,0,0,0,1,.07v-2.79a.48.48,0,0,0-.45-.52Z" style="fill:#bcbcbc"/></g></g><g id="Group_1172-5" data-name="Group 1172-5"><g id="Group_1171-5" data-name="Group 1171-5"><path id="Path_2916-5" data-name="Path 2916-5" d="M170.92,541.85l-2.35-1.36a.48.48,0,1,0-.49.83l2.36,1.37a.48.48,0,1,0,.48-.84Z" style="fill:#bcbcbc"/></g></g><g id="Group_1174-5" data-name="Group 1174-5"><g id="Group_1173-5" data-name="Group 1173-5"><path id="Path_2917-5" data-name="Path 2917-5" d="M179.42,534a.48.48,0,0,0-.52.45v2.79a.5.5,0,0,0,.46.51.49.49,0,0,0,.51-.46v-2.77a.48.48,0,0,0-.45-.52Z" style="fill:#bcbcbc"/></g></g><g id="Group_1176-5" data-name="Group 1176-5"><g id="Group_1175-5" data-name="Group 1175-5"><path id="Path_2918-5" data-name="Path 2918-5" d="M174.78,538.34,173.42,536a.48.48,0,0,0-.66-.17.49.49,0,0,0-.18.66l1.36,2.35a.48.48,0,1,0,.84-.48Z" style="fill:#bcbcbc"/></g></g><g id="Group_1178-5" data-name="Group 1178-5"><g id="Group_1177-5" data-name="Group 1177-5"><path id="Path_2919-5" data-name="Path 2919-5" d="M179.46,543h-.08a4.3,4.3,0,0,0-4.3,4.3h0a.48.48,0,0,0,.47.5.47.47,0,0,0,.5-.46v0a3.34,3.34,0,0,1,3.33-3.34h0a.48.48,0,0,0,.53-.43.49.49,0,0,0-.44-.53Z" style="fill:#bcbcbc"/></g></g><g id="Group_1180-5" data-name="Group 1180-5"><g id="Group_1179-5" data-name="Group 1179-5"><path id="Path_2920-5" data-name="Path 2920-5" d="M192.6,547.25a.47.47,0,0,0-.45-.44h-2.72a.48.48,0,0,0-.53.43.49.49,0,0,0,.44.53h2.81A.48.48,0,0,0,192.6,547.25Z" style="fill:#bcbcbc"/></g></g><g id="Group_1182-5" data-name="Group 1182-5"><g id="Group_1181-5" data-name="Group 1181-5"><path id="Path_2921-5" data-name="Path 2921-5" d="M169.41,546.81h-2.79a.48.48,0,0,0-.45.52.49.49,0,0,0,.45.45h2.72a.5.5,0,0,0,.53-.44.49.49,0,0,0-.44-.53Z" style="fill:#bcbcbc"/></g></g><g id="Group_1184-5" data-name="Group 1184-5"><g id="Group_1183-5" data-name="Group 1183-5"><path id="Path_2922-5" data-name="Path 2922-5" d="M179.39,540.18a7.12,7.12,0,1,0,7.11,7.11h0A7.11,7.11,0,0,0,179.39,540.18Zm4.34,11.47A6.15,6.15,0,0,1,175,543h0a6.15,6.15,0,1,1,8.7,8.7Z" style="fill:#bcbcbc"/></g></g><g id="Group_1186-5" data-name="Group 1186-5"><g id="Group_1185-5" data-name="Group 1185-5"><path id="Path_2923-5" data-name="Path 2923-5" d="M186.19,558.11h0l-1.36-2.36a.49.49,0,0,0-.84.49h0l1.36,2.35a.48.48,0,1,0,.84-.48Z" style="fill:#bcbcbc"/></g></g><g id="Group_1188-5" data-name="Group 1188-5"><g id="Group_1187-5" data-name="Group 1187-5"><path id="Path_2924-5" data-name="Path 2924-5" d="M186,535.81a.49.49,0,0,0-.66.18L184,538.34a.48.48,0,0,0,.17.66h0a.48.48,0,0,0,.66-.17h0l1.36-2.36a.49.49,0,0,0-.17-.66Z" style="fill:#bcbcbc"/></g></g><g id="Group_1190-5" data-name="Group 1190-5"><g id="Group_1189-5" data-name="Group 1189-5"><path id="Path_2925-5" data-name="Path 2925-5" d="M174.6,555.58a.46.46,0,0,0-.65.17l-1.37,2.36a.48.48,0,1,0,.83.48l1.37-2.36A.48.48,0,0,0,174.6,555.58Z" style="fill:#bcbcbc"/></g></g><g id="Group_1192-5" data-name="Group 1192-5"><g id="Group_1191-5" data-name="Group 1191-5"><path id="Path_2926-5" data-name="Path 2926-5" d="M171.1,552.07a.48.48,0,0,0-.66-.17l-2.35,1.36a.49.49,0,0,0-.18.66.48.48,0,0,0,.66.17l2.36-1.36A.48.48,0,0,0,171.1,552.07Z" style="fill:#bcbcbc"/></g></g></g><g id="sun-6" style="opacity:0.49799999594688416"><g id="Group_1166-6" data-name="Group 1166-6"><g id="Group_1165-6" data-name="Group 1165-6"><path id="Path_2913-6" data-name="Path 2913-6" d="M442.86,71.66a.48.48,0,0,0-.66-.17l-2.35,1.36a.48.48,0,1,0,.48.84l2.36-1.37a.47.47,0,0,0,.17-.65Z" style="fill:#bcbcbc"/></g></g><g id="Group_1168-6" data-name="Group 1168-6"><g id="Group_1167-6" data-name="Group 1167-6"><path id="Path_2914-6" data-name="Path 2914-6" d="M442.68,84.26l-2.35-1.36a.48.48,0,0,0-.66.17.48.48,0,0,0,.18.66l2.35,1.36a.48.48,0,1,0,.48-.83Z" style="fill:#bcbcbc"/></g></g><g id="Group_1170-6" data-name="Group 1170-6"><g id="Group_1169-6" data-name="Group 1169-6"><path id="Path_2915-6" data-name="Path 2915-6" d="M431.42,87.82a.48.48,0,0,0-.52.45v2.79a.49.49,0,0,0,1,.07V88.34a.48.48,0,0,0-.45-.52Z" style="fill:#bcbcbc"/></g></g><g id="Group_1172-6" data-name="Group 1172-6"><g id="Group_1171-6" data-name="Group 1171-6"><path id="Path_2916-6" data-name="Path 2916-6" d="M422.92,72.85l-2.35-1.36a.48.48,0,1,0-.49.83l2.36,1.37a.48.48,0,0,0,.48-.84Z" style="fill:#bcbcbc"/></g></g><g id="Group_1174-6" data-name="Group 1174-6"><g id="Group_1173-6" data-name="Group 1173-6"><path id="Path_2917-6" data-name="Path 2917-6" d="M431.42,65a.48.48,0,0,0-.52.45v2.79a.5.5,0,0,0,.46.51.49.49,0,0,0,.51-.46V65.52a.48.48,0,0,0-.45-.52Z" style="fill:#bcbcbc"/></g></g><g id="Group_1176-6" data-name="Group 1176-6"><g id="Group_1175-6" data-name="Group 1175-6"><path id="Path_2918-6" data-name="Path 2918-6" d="M426.78,69.34,425.42,67a.48.48,0,0,0-.66-.17.49.49,0,0,0-.18.66l1.36,2.35a.48.48,0,0,0,.84-.48Z" style="fill:#bcbcbc"/></g></g><g id="Group_1178-6" data-name="Group 1178-6"><g id="Group_1177-6" data-name="Group 1177-6"><path id="Path_2919-6" data-name="Path 2919-6" d="M431.46,74h-.08a4.3,4.3,0,0,0-4.3,4.3h0a.48.48,0,0,0,.47.5.47.47,0,0,0,.5-.46v0A3.34,3.34,0,0,1,431.38,75h0a.48.48,0,0,0,.53-.43.49.49,0,0,0-.44-.53Z" style="fill:#bcbcbc"/></g></g><g id="Group_1180-6" data-name="Group 1180-6"><g id="Group_1179-6" data-name="Group 1179-6"><path id="Path_2920-6" data-name="Path 2920-6" d="M444.6,78.25a.47.47,0,0,0-.45-.44h-2.72a.48.48,0,1,0-.09,1h2.81A.48.48,0,0,0,444.6,78.25Z" style="fill:#bcbcbc"/></g></g><g id="Group_1182-6" data-name="Group 1182-6"><g id="Group_1181-6" data-name="Group 1181-6"><path id="Path_2921-6" data-name="Path 2921-6" d="M421.41,77.81h-2.79a.48.48,0,0,0-.45.52.49.49,0,0,0,.45.45h2.72a.5.5,0,0,0,.53-.44.49.49,0,0,0-.44-.53Z" style="fill:#bcbcbc"/></g></g><g id="Group_1184-6" data-name="Group 1184-6"><g id="Group_1183-6" data-name="Group 1183-6"><path id="Path_2922-6" data-name="Path 2922-6" d="M431.39,71.18a7.12,7.12,0,1,0,7.11,7.11h0A7.11,7.11,0,0,0,431.39,71.18Zm4.34,11.47A6.15,6.15,0,1,1,427,74h0a6.15,6.15,0,0,1,8.7,8.7Z" style="fill:#bcbcbc"/></g></g><g id="Group_1186-6" data-name="Group 1186-6"><g id="Group_1185-6" data-name="Group 1185-6"><path id="Path_2923-6" data-name="Path 2923-6" d="M438.19,89.11h0l-1.36-2.36a.49.49,0,0,0-.84.49h0l1.36,2.35a.48.48,0,0,0,.84-.48Z" style="fill:#bcbcbc"/></g></g><g id="Group_1188-6" data-name="Group 1188-6"><g id="Group_1187-6" data-name="Group 1187-6"><path id="Path_2924-6" data-name="Path 2924-6" d="M438,66.81a.49.49,0,0,0-.66.18L436,69.34a.48.48,0,0,0,.17.66h0a.48.48,0,0,0,.66-.17h0l1.36-2.36a.49.49,0,0,0-.17-.66Z" style="fill:#bcbcbc"/></g></g><g id="Group_1190-6" data-name="Group 1190-6"><g id="Group_1189-6" data-name="Group 1189-6"><path id="Path_2925-6" data-name="Path 2925-6" d="M426.6,86.58a.48.48,0,0,0-.66.17l-1.36,2.36a.48.48,0,1,0,.83.48l1.37-2.36A.48.48,0,0,0,426.6,86.58Z" style="fill:#bcbcbc"/></g></g><g id="Group_1192-6" data-name="Group 1192-6"><g id="Group_1191-6" data-name="Group 1191-6"><path id="Path_2926-6" data-name="Path 2926-6" d="M423.1,83.07a.48.48,0,0,0-.66-.17l-2.35,1.36a.49.49,0,0,0-.18.66.48.48,0,0,0,.66.17l2.36-1.36A.48.48,0,0,0,423.1,83.07Z" style="fill:#bcbcbc"/></g></g></g><g id="sun-7" style="opacity:0.49799999594688416"><g id="Group_1166-7" data-name="Group 1166-7"><g id="Group_1165-7" data-name="Group 1165-7"><path id="Path_2913-7" data-name="Path 2913-7" d="M63.86,6.66a.48.48,0,0,0-.66-.17L60.85,7.85a.48.48,0,1,0,.48.84l2.36-1.37a.47.47,0,0,0,.17-.65Z" style="fill:#bcbcbc"/></g></g><g id="Group_1168-7" data-name="Group 1168-7"><g id="Group_1167-7" data-name="Group 1167-7"><path id="Path_2914-7" data-name="Path 2914-7" d="M63.69,19.26,61.33,17.9a.48.48,0,0,0-.66.17.48.48,0,0,0,.18.66l2.35,1.36a.48.48,0,0,0,.66-.17A.48.48,0,0,0,63.69,19.26Z" style="fill:#bcbcbc"/></g></g><g id="Group_1170-7" data-name="Group 1170-7"><g id="Group_1169-7" data-name="Group 1169-7"><path id="Path_2915-7" data-name="Path 2915-7" d="M52.42,22.82a.48.48,0,0,0-.52.45v2.79a.49.49,0,0,0,1,.07V23.34a.48.48,0,0,0-.45-.52Z" style="fill:#bcbcbc"/></g></g><g id="Group_1172-7" data-name="Group 1172-7"><g id="Group_1171-7" data-name="Group 1171-7"><path id="Path_2916-7" data-name="Path 2916-7" d="M43.92,7.85,41.57,6.49a.48.48,0,1,0-.49.83l2.36,1.37a.48.48,0,1,0,.48-.84Z" style="fill:#bcbcbc"/></g></g><g id="Group_1174-7" data-name="Group 1174-7"><g id="Group_1173-7" data-name="Group 1173-7"><path id="Path_2917-7" data-name="Path 2917-7" d="M52.42,0a.48.48,0,0,0-.52.45V3.24a.5.5,0,0,0,.46.51.49.49,0,0,0,.51-.46V.52A.48.48,0,0,0,52.42,0Z" style="fill:#bcbcbc"/></g></g><g id="Group_1176-7" data-name="Group 1176-7"><g id="Group_1175-7" data-name="Group 1175-7"><path id="Path_2918-7" data-name="Path 2918-7" d="M47.78,4.34,46.42,2a.48.48,0,0,0-.66-.17.49.49,0,0,0-.18.66l1.36,2.35a.48.48,0,1,0,.84-.48Z" style="fill:#bcbcbc"/></g></g><g id="Group_1178-7" data-name="Group 1178-7"><g id="Group_1177-7" data-name="Group 1177-7"><path id="Path_2919-7" data-name="Path 2919-7" d="M52.46,9h-.08a4.3,4.3,0,0,0-4.3,4.3h0a.48.48,0,0,0,.47.5.47.47,0,0,0,.5-.46v0A3.34,3.34,0,0,1,52.38,10h0a.48.48,0,0,0,.53-.43A.49.49,0,0,0,52.48,9Z" style="fill:#bcbcbc"/></g></g><g id="Group_1180-7" data-name="Group 1180-7"><g id="Group_1179-7" data-name="Group 1179-7"><path id="Path_2920-7" data-name="Path 2920-7" d="M65.6,13.25a.47.47,0,0,0-.45-.44H62.43a.48.48,0,0,0-.53.43.49.49,0,0,0,.44.53h2.81A.48.48,0,0,0,65.6,13.25Z" style="fill:#bcbcbc"/></g></g><g id="Group_1182-7" data-name="Group 1182-7"><g id="Group_1181-7" data-name="Group 1181-7"><path id="Path_2921-7" data-name="Path 2921-7" d="M42.41,12.81H39.62a.48.48,0,0,0-.45.52.49.49,0,0,0,.45.45h2.72a.5.5,0,0,0,.53-.44.49.49,0,0,0-.44-.53Z" style="fill:#bcbcbc"/></g></g><g id="Group_1184-7" data-name="Group 1184-7"><g id="Group_1183-7" data-name="Group 1183-7"><path id="Path_2922-7" data-name="Path 2922-7" d="M52.39,6.18a7.12,7.12,0,1,0,7.11,7.11h0A7.11,7.11,0,0,0,52.39,6.18Zm4.34,11.47A6.15,6.15,0,1,1,48,9h0a6.15,6.15,0,0,1,8.7,8.7Z" style="fill:#bcbcbc"/></g></g><g id="Group_1186-7" data-name="Group 1186-7"><g id="Group_1185-7" data-name="Group 1185-7"><path id="Path_2923-7" data-name="Path 2923-7" d="M59.19,24.11h0l-1.36-2.36a.49.49,0,0,0-.84.49h0l1.36,2.35a.48.48,0,0,0,.84-.48Z" style="fill:#bcbcbc"/></g></g><g id="Group_1188-7" data-name="Group 1188-7"><g id="Group_1187-7" data-name="Group 1187-7"><path id="Path_2924-7" data-name="Path 2924-7" d="M59,1.81a.49.49,0,0,0-.66.18L57,4.34a.48.48,0,0,0,.17.66h0a.48.48,0,0,0,.66-.17h0L59.2,2.47A.49.49,0,0,0,59,1.81Z" style="fill:#bcbcbc"/></g></g><g id="Group_1190-7" data-name="Group 1190-7"><g id="Group_1189-7" data-name="Group 1189-7"><path id="Path_2925-7" data-name="Path 2925-7" d="M47.6,21.58a.46.46,0,0,0-.65.17l-1.37,2.36a.48.48,0,1,0,.83.48l1.37-2.36A.48.48,0,0,0,47.6,21.58Z" style="fill:#bcbcbc"/></g></g><g id="Group_1192-7" data-name="Group 1192-7"><g id="Group_1191-7" data-name="Group 1191-7"><path id="Path_2926-7" data-name="Path 2926-7" d="M44.1,18.07a.48.48,0,0,0-.66-.17l-2.35,1.36a.49.49,0,0,0-.18.66.48.48,0,0,0,.66.17l2.36-1.36A.48.48,0,0,0,44.1,18.07Z" style="fill:#bcbcbc"/></g></g></g><g id="sun-8" style="opacity:0.49799999594688416"><g id="Group_1166-8" data-name="Group 1166-8"><g id="Group_1165-8" data-name="Group 1165-8"><path id="Path_2913-8" data-name="Path 2913-8" d="M442.86,71.66a.48.48,0,0,0-.66-.17l-2.35,1.36a.48.48,0,1,0,.48.84l2.36-1.37a.47.47,0,0,0,.17-.65Z" style="fill:#bcbcbc"/></g></g><g id="Group_1168-8" data-name="Group 1168-8"><g id="Group_1167-8" data-name="Group 1167-8"><path id="Path_2914-8" data-name="Path 2914-8" d="M442.68,84.26l-2.35-1.36a.48.48,0,0,0-.66.17.48.48,0,0,0,.18.66l2.35,1.36a.48.48,0,1,0,.48-.83Z" style="fill:#bcbcbc"/></g></g><g id="Group_1170-8" data-name="Group 1170-8"><g id="Group_1169-8" data-name="Group 1169-8"><path id="Path_2915-8" data-name="Path 2915-8" d="M431.42,87.82a.48.48,0,0,0-.52.45v2.79a.49.49,0,0,0,1,.07V88.34a.48.48,0,0,0-.45-.52Z" style="fill:#bcbcbc"/></g></g><g id="Group_1172-8" data-name="Group 1172-8"><g id="Group_1171-8" data-name="Group 1171-8"><path id="Path_2916-8" data-name="Path 2916-8" d="M422.92,72.85l-2.35-1.36a.48.48,0,1,0-.49.83l2.36,1.37a.48.48,0,0,0,.48-.84Z" style="fill:#bcbcbc"/></g></g><g id="Group_1174-8" data-name="Group 1174-8"><g id="Group_1173-8" data-name="Group 1173-8"><path id="Path_2917-8" data-name="Path 2917-8" d="M431.42,65a.48.48,0,0,0-.52.45v2.79a.5.5,0,0,0,.46.51.49.49,0,0,0,.51-.46V65.52a.48.48,0,0,0-.45-.52Z" style="fill:#bcbcbc"/></g></g><g id="Group_1176-8" data-name="Group 1176-8"><g id="Group_1175-8" data-name="Group 1175-8"><path id="Path_2918-8" data-name="Path 2918-8" d="M426.78,69.34,425.42,67a.48.48,0,0,0-.66-.17.49.49,0,0,0-.18.66l1.36,2.35a.48.48,0,0,0,.84-.48Z" style="fill:#bcbcbc"/></g></g><g id="Group_1178-8" data-name="Group 1178-8"><g id="Group_1177-8" data-name="Group 1177-8"><path id="Path_2919-8" data-name="Path 2919-8" d="M431.46,74h-.08a4.3,4.3,0,0,0-4.3,4.3h0a.48.48,0,0,0,.47.5.47.47,0,0,0,.5-.46v0A3.34,3.34,0,0,1,431.38,75h0a.48.48,0,0,0,.53-.43.49.49,0,0,0-.44-.53Z" style="fill:#bcbcbc"/></g></g><g id="Group_1180-8" data-name="Group 1180-8"><g id="Group_1179-8" data-name="Group 1179-8"><path id="Path_2920-8" data-name="Path 2920-8" d="M444.6,78.25a.47.47,0,0,0-.45-.44h-2.72a.48.48,0,1,0-.09,1h2.81A.48.48,0,0,0,444.6,78.25Z" style="fill:#bcbcbc"/></g></g><g id="Group_1182-8" data-name="Group 1182-8"><g id="Group_1181-8" data-name="Group 1181-8"><path id="Path_2921-8" data-name="Path 2921-8" d="M421.41,77.81h-2.79a.48.48,0,0,0-.45.52.49.49,0,0,0,.45.45h2.72a.5.5,0,0,0,.53-.44.49.49,0,0,0-.44-.53Z" style="fill:#bcbcbc"/></g></g><g id="Group_1184-8" data-name="Group 1184-8"><g id="Group_1183-8" data-name="Group 1183-8"><path id="Path_2922-8" data-name="Path 2922-8" d="M431.39,71.18a7.12,7.12,0,1,0,7.11,7.11h0A7.11,7.11,0,0,0,431.39,71.18Zm4.34,11.47A6.15,6.15,0,1,1,427,74h0a6.15,6.15,0,0,1,8.7,8.7Z" style="fill:#bcbcbc"/></g></g><g id="Group_1186-8" data-name="Group 1186-8"><g id="Group_1185-8" data-name="Group 1185-8"><path id="Path_2923-8" data-name="Path 2923-8" d="M438.19,89.11h0l-1.36-2.36a.49.49,0,0,0-.84.49h0l1.36,2.35a.48.48,0,0,0,.84-.48Z" style="fill:#bcbcbc"/></g></g><g id="Group_1188-8" data-name="Group 1188-8"><g id="Group_1187-8" data-name="Group 1187-8"><path id="Path_2924-8" data-name="Path 2924-8" d="M438,66.81a.49.49,0,0,0-.66.18L436,69.34a.48.48,0,0,0,.17.66h0a.48.48,0,0,0,.66-.17h0l1.36-2.36a.49.49,0,0,0-.17-.66Z" style="fill:#bcbcbc"/></g></g><g id="Group_1190-8" data-name="Group 1190-8"><g id="Group_1189-8" data-name="Group 1189-8"><path id="Path_2925-8" data-name="Path 2925-8" d="M426.6,86.58a.48.48,0,0,0-.66.17l-1.36,2.36a.48.48,0,1,0,.83.48l1.37-2.36A.48.48,0,0,0,426.6,86.58Z" style="fill:#bcbcbc"/></g></g><g id="Group_1192-8" data-name="Group 1192-8"><g id="Group_1191-8" data-name="Group 1191-8"><path id="Path_2926-8" data-name="Path 2926-8" d="M423.1,83.07a.48.48,0,0,0-.66-.17l-2.35,1.36a.49.49,0,0,0-.18.66.48.48,0,0,0,.66.17l2.36-1.36A.48.48,0,0,0,423.1,83.07Z" style="fill:#bcbcbc"/></g></g></g><g id="sun-9" style="opacity:0.49799999594688416"><g id="Group_1166-9" data-name="Group 1166-9"><g id="Group_1165-9" data-name="Group 1165-9"><path id="Path_2913-9" data-name="Path 2913-9" d="M63.86,6.66a.48.48,0,0,0-.66-.17L60.85,7.85a.48.48,0,1,0,.48.84l2.36-1.37a.47.47,0,0,0,.17-.65Z" style="fill:#bcbcbc"/></g></g><g id="Group_1168-9" data-name="Group 1168-9"><g id="Group_1167-9" data-name="Group 1167-9"><path id="Path_2914-9" data-name="Path 2914-9" d="M63.69,19.26,61.33,17.9a.48.48,0,0,0-.66.17.48.48,0,0,0,.18.66l2.35,1.36a.48.48,0,0,0,.66-.17A.48.48,0,0,0,63.69,19.26Z" style="fill:#bcbcbc"/></g></g><g id="Group_1170-9" data-name="Group 1170-9"><g id="Group_1169-9" data-name="Group 1169-9"><path id="Path_2915-9" data-name="Path 2915-9" d="M52.42,22.82a.48.48,0,0,0-.52.45v2.79a.49.49,0,0,0,1,.07V23.34a.48.48,0,0,0-.45-.52Z" style="fill:#bcbcbc"/></g></g><g id="Group_1172-9" data-name="Group 1172-9"><g id="Group_1171-9" data-name="Group 1171-9"><path id="Path_2916-9" data-name="Path 2916-9" d="M43.92,7.85,41.57,6.49a.48.48,0,1,0-.49.83l2.36,1.37a.48.48,0,1,0,.48-.84Z" style="fill:#bcbcbc"/></g></g><g id="Group_1174-9" data-name="Group 1174-9"><g id="Group_1173-9" data-name="Group 1173-9"><path id="Path_2917-9" data-name="Path 2917-9" d="M52.42,0a.48.48,0,0,0-.52.45V3.24a.5.5,0,0,0,.46.51.49.49,0,0,0,.51-.46V.52A.48.48,0,0,0,52.42,0Z" style="fill:#bcbcbc"/></g></g><g id="Group_1176-9" data-name="Group 1176-9"><g id="Group_1175-9" data-name="Group 1175-9"><path id="Path_2918-9" data-name="Path 2918-9" d="M47.78,4.34,46.42,2a.48.48,0,0,0-.66-.17.49.49,0,0,0-.18.66l1.36,2.35a.48.48,0,1,0,.84-.48Z" style="fill:#bcbcbc"/></g></g><g id="Group_1178-9" data-name="Group 1178-9"><g id="Group_1177-9" data-name="Group 1177-9"><path id="Path_2919-9" data-name="Path 2919-9" d="M52.46,9h-.08a4.3,4.3,0,0,0-4.3,4.3h0a.48.48,0,0,0,.47.5.47.47,0,0,0,.5-.46v0A3.34,3.34,0,0,1,52.38,10h0a.48.48,0,0,0,.53-.43A.49.49,0,0,0,52.48,9Z" style="fill:#bcbcbc"/></g></g><g id="Group_1180-9" data-name="Group 1180-9"><g id="Group_1179-9" data-name="Group 1179-9"><path id="Path_2920-9" data-name="Path 2920-9" d="M65.6,13.25a.47.47,0,0,0-.45-.44H62.43a.48.48,0,0,0-.53.43.49.49,0,0,0,.44.53h2.81A.48.48,0,0,0,65.6,13.25Z" style="fill:#bcbcbc"/></g></g><g id="Group_1182-9" data-name="Group 1182-9"><g id="Group_1181-9" data-name="Group 1181-9"><path id="Path_2921-9" data-name="Path 2921-9" d="M42.41,12.81H39.62a.48.48,0,0,0-.45.52.49.49,0,0,0,.45.45h2.72a.5.5,0,0,0,.53-.44.49.49,0,0,0-.44-.53Z" style="fill:#bcbcbc"/></g></g><g id="Group_1184-9" data-name="Group 1184-9"><g id="Group_1183-9" data-name="Group 1183-9"><path id="Path_2922-9" data-name="Path 2922-9" d="M52.39,6.18a7.12,7.12,0,1,0,7.11,7.11h0A7.11,7.11,0,0,0,52.39,6.18Zm4.34,11.47A6.15,6.15,0,1,1,48,9h0a6.15,6.15,0,0,1,8.7,8.7Z" style="fill:#bcbcbc"/></g></g><g id="Group_1186-9" data-name="Group 1186-9"><g id="Group_1185-9" data-name="Group 1185-9"><path id="Path_2923-9" data-name="Path 2923-9" d="M59.19,24.11h0l-1.36-2.36a.49.49,0,0,0-.84.49h0l1.36,2.35a.48.48,0,0,0,.84-.48Z" style="fill:#bcbcbc"/></g></g><g id="Group_1188-9" data-name="Group 1188-9"><g id="Group_1187-9" data-name="Group 1187-9"><path id="Path_2924-9" data-name="Path 2924-9" d="M59,1.81a.49.49,0,0,0-.66.18L57,4.34a.48.48,0,0,0,.17.66h0a.48.48,0,0,0,.66-.17h0L59.2,2.47A.49.49,0,0,0,59,1.81Z" style="fill:#bcbcbc"/></g></g><g id="Group_1190-9" data-name="Group 1190-9"><g id="Group_1189-9" data-name="Group 1189-9"><path id="Path_2925-9" data-name="Path 2925-9" d="M47.6,21.58a.46.46,0,0,0-.65.17l-1.37,2.36a.48.48,0,1,0,.83.48l1.37-2.36A.48.48,0,0,0,47.6,21.58Z" style="fill:#bcbcbc"/></g></g><g id="Group_1192-9" data-name="Group 1192-9"><g id="Group_1191-9" data-name="Group 1191-9"><path id="Path_2926-9" data-name="Path 2926-9" d="M44.1,18.07a.48.48,0,0,0-.66-.17l-2.35,1.36a.49.49,0,0,0-.18.66.48.48,0,0,0,.66.17l2.36-1.36A.48.48,0,0,0,44.1,18.07Z" style="fill:#bcbcbc"/></g></g></g><g id="sun-10" style="opacity:0.49799999594688416"><g id="Group_1166-10" data-name="Group 1166-10"><g id="Group_1165-10" data-name="Group 1165-10"><path id="Path_2913-10" data-name="Path 2913-10" d="M327.86,187.66a.48.48,0,0,0-.66-.17l-2.35,1.36a.48.48,0,0,0,.48.84l2.36-1.37a.47.47,0,0,0,.17-.65Z" style="fill:#bcbcbc"/></g></g><g id="Group_1168-10" data-name="Group 1168-10"><g id="Group_1167-10" data-name="Group 1167-10"><path id="Path_2914-10" data-name="Path 2914-10" d="M327.68,200.26l-2.35-1.36a.48.48,0,0,0-.66.17.48.48,0,0,0,.18.66l2.35,1.36a.48.48,0,1,0,.48-.83Z" style="fill:#bcbcbc"/></g></g><g id="Group_1170-10" data-name="Group 1170-10"><g id="Group_1169-10" data-name="Group 1169-10"><path id="Path_2915-10" data-name="Path 2915-10" d="M316.42,203.82a.48.48,0,0,0-.52.45v2.79a.49.49,0,0,0,1,.07v-2.79a.48.48,0,0,0-.45-.52Z" style="fill:#bcbcbc"/></g></g><g id="Group_1172-10" data-name="Group 1172-10"><g id="Group_1171-10" data-name="Group 1171-10"><path id="Path_2916-10" data-name="Path 2916-10" d="M307.92,188.85l-2.35-1.36a.48.48,0,0,0-.49.83l2.36,1.37a.48.48,0,0,0,.48-.84Z" style="fill:#bcbcbc"/></g></g><g id="Group_1174-10" data-name="Group 1174-10"><g id="Group_1173-10" data-name="Group 1173-10"><path id="Path_2917-10" data-name="Path 2917-10" d="M316.42,181a.48.48,0,0,0-.52.45v2.79a.5.5,0,0,0,.46.51.49.49,0,0,0,.51-.46v-2.77a.48.48,0,0,0-.45-.52Z" style="fill:#bcbcbc"/></g></g><g id="Group_1176-10" data-name="Group 1176-10"><g id="Group_1175-10" data-name="Group 1175-10"><path id="Path_2918-10" data-name="Path 2918-10" d="M311.78,185.34,310.42,183a.48.48,0,0,0-.66-.17.49.49,0,0,0-.18.66l1.36,2.35a.48.48,0,1,0,.84-.48Z" style="fill:#bcbcbc"/></g></g><g id="Group_1178-10" data-name="Group 1178-10"><g id="Group_1177-10" data-name="Group 1177-10"><path id="Path_2919-10" data-name="Path 2919-10" d="M316.46,190h-.08a4.3,4.3,0,0,0-4.3,4.3h0a.48.48,0,0,0,.47.5.47.47,0,0,0,.5-.46v0a3.34,3.34,0,0,1,3.33-3.34h0a.48.48,0,0,0,.53-.43.49.49,0,0,0-.44-.53Z" style="fill:#bcbcbc"/></g></g><g id="Group_1180-10" data-name="Group 1180-10"><g id="Group_1179-10" data-name="Group 1179-10"><path id="Path_2920-10" data-name="Path 2920-10" d="M329.6,194.25a.47.47,0,0,0-.45-.44h-2.72a.48.48,0,1,0-.09,1h2.81A.48.48,0,0,0,329.6,194.25Z" style="fill:#bcbcbc"/></g></g><g id="Group_1182-10" data-name="Group 1182-10"><g id="Group_1181-10" data-name="Group 1181-10"><path id="Path_2921-10" data-name="Path 2921-10" d="M306.41,193.81h-2.79a.48.48,0,0,0-.45.52.49.49,0,0,0,.45.45h2.72a.5.5,0,0,0,.53-.44.49.49,0,0,0-.44-.53Z" style="fill:#bcbcbc"/></g></g><g id="Group_1184-10" data-name="Group 1184-10"><g id="Group_1183-10" data-name="Group 1183-10"><path id="Path_2922-10" data-name="Path 2922-10" d="M316.39,187.18a7.12,7.12,0,1,0,7.11,7.11h0A7.11,7.11,0,0,0,316.39,187.18Zm4.34,11.47A6.15,6.15,0,1,1,312,190h0a6.15,6.15,0,0,1,8.7,8.7Z" style="fill:#bcbcbc"/></g></g><g id="Group_1186-10" data-name="Group 1186-10"><g id="Group_1185-10" data-name="Group 1185-10"><path id="Path_2923-10" data-name="Path 2923-10" d="M323.19,205.11h0l-1.36-2.36a.49.49,0,0,0-.84.49h0l1.36,2.35a.48.48,0,1,0,.84-.48Z" style="fill:#bcbcbc"/></g></g><g id="Group_1188-10" data-name="Group 1188-10"><g id="Group_1187-10" data-name="Group 1187-10"><path id="Path_2924-10" data-name="Path 2924-10" d="M323,182.81a.49.49,0,0,0-.66.18L321,185.34a.48.48,0,0,0,.17.66h0a.48.48,0,0,0,.66-.17h0l1.36-2.36a.49.49,0,0,0-.17-.66Z" style="fill:#bcbcbc"/></g></g><g id="Group_1190-10" data-name="Group 1190-10"><g id="Group_1189-10" data-name="Group 1189-10"><path id="Path_2925-10" data-name="Path 2925-10" d="M311.6,202.58a.48.48,0,0,0-.66.17l-1.36,2.36a.48.48,0,1,0,.83.48l1.37-2.36A.48.48,0,0,0,311.6,202.58Z" style="fill:#bcbcbc"/></g></g><g id="Group_1192-10" data-name="Group 1192-10"><g id="Group_1191-10" data-name="Group 1191-10"><path id="Path_2926-10" data-name="Path 2926-10" d="M308.1,199.07a.48.48,0,0,0-.66-.17l-2.35,1.36a.49.49,0,0,0-.18.66.48.48,0,0,0,.66.17l2.36-1.36A.48.48,0,0,0,308.1,199.07Z" style="fill:#bcbcbc"/></g></g></g><g id="sun-11" style="opacity:0.49799999594688416"><g id="Group_1166-11" data-name="Group 1166-11"><g id="Group_1165-11" data-name="Group 1165-11"><path id="Path_2913-11" data-name="Path 2913-11" d="M365.86,513.66a.48.48,0,0,0-.66-.17l-2.35,1.36a.48.48,0,1,0,.48.84l2.36-1.37a.47.47,0,0,0,.17-.65Z" style="fill:#bcbcbc"/></g></g><g id="Group_1168-11" data-name="Group 1168-11"><g id="Group_1167-11" data-name="Group 1167-11"><path id="Path_2914-11" data-name="Path 2914-11" d="M365.68,526.26l-2.35-1.36a.48.48,0,0,0-.66.17.48.48,0,0,0,.18.66l2.35,1.36a.48.48,0,1,0,.48-.83Z" style="fill:#bcbcbc"/></g></g><g id="Group_1170-11" data-name="Group 1170-11"><g id="Group_1169-11" data-name="Group 1169-11"><path id="Path_2915-11" data-name="Path 2915-11" d="M354.42,529.82a.48.48,0,0,0-.52.45v2.79a.49.49,0,0,0,1,.07v-2.79a.48.48,0,0,0-.45-.52Z" style="fill:#bcbcbc"/></g></g><g id="Group_1172-11" data-name="Group 1172-11"><g id="Group_1171-11" data-name="Group 1171-11"><path id="Path_2916-11" data-name="Path 2916-11" d="M345.92,514.85l-2.35-1.36a.48.48,0,0,0-.49.83l2.36,1.37a.48.48,0,1,0,.48-.84Z" style="fill:#bcbcbc"/></g></g><g id="Group_1174-11" data-name="Group 1174-11"><g id="Group_1173-11" data-name="Group 1173-11"><path id="Path_2917-11" data-name="Path 2917-11" d="M354.42,507a.48.48,0,0,0-.52.45v2.79a.5.5,0,0,0,.46.51.49.49,0,0,0,.51-.46v-2.77a.48.48,0,0,0-.45-.52Z" style="fill:#bcbcbc"/></g></g><g id="Group_1176-11" data-name="Group 1176-11"><g id="Group_1175-11" data-name="Group 1175-11"><path id="Path_2918-11" data-name="Path 2918-11" d="M349.78,511.34,348.42,509a.48.48,0,0,0-.66-.17.49.49,0,0,0-.18.66l1.36,2.35a.48.48,0,0,0,.84-.48Z" style="fill:#bcbcbc"/></g></g><g id="Group_1178-11" data-name="Group 1178-11"><g id="Group_1177-11" data-name="Group 1177-11"><path id="Path_2919-11" data-name="Path 2919-11" d="M354.46,516h-.08a4.3,4.3,0,0,0-4.3,4.3h0a.48.48,0,0,0,.47.5.47.47,0,0,0,.5-.46v0a3.34,3.34,0,0,1,3.33-3.34h0a.48.48,0,0,0,.53-.43.49.49,0,0,0-.44-.53Z" style="fill:#bcbcbc"/></g></g><g id="Group_1180-11" data-name="Group 1180-11"><g id="Group_1179-11" data-name="Group 1179-11"><path id="Path_2920-11" data-name="Path 2920-11" d="M367.6,520.25a.47.47,0,0,0-.45-.44h-2.72a.48.48,0,1,0-.09,1h2.81A.48.48,0,0,0,367.6,520.25Z" style="fill:#bcbcbc"/></g></g><g id="Group_1182-11" data-name="Group 1182-11"><g id="Group_1181-11" data-name="Group 1181-11"><path id="Path_2921-11" data-name="Path 2921-11" d="M344.41,519.81h-2.79a.48.48,0,0,0-.45.52.49.49,0,0,0,.45.45h2.72a.5.5,0,0,0,.53-.44.49.49,0,0,0-.44-.53Z" style="fill:#bcbcbc"/></g></g><g id="Group_1184-11" data-name="Group 1184-11"><g id="Group_1183-11" data-name="Group 1183-11"><path id="Path_2922-11" data-name="Path 2922-11" d="M354.39,513.18a7.12,7.12,0,1,0,7.11,7.11h0A7.11,7.11,0,0,0,354.39,513.18Zm4.34,11.47A6.15,6.15,0,0,1,350,516h0a6.15,6.15,0,1,1,8.7,8.7Z" style="fill:#bcbcbc"/></g></g><g id="Group_1186-11" data-name="Group 1186-11"><g id="Group_1185-11" data-name="Group 1185-11"><path id="Path_2923-11" data-name="Path 2923-11" d="M361.19,531.11h0l-1.36-2.36a.49.49,0,0,0-.84.49h0l1.36,2.35a.48.48,0,1,0,.84-.48Z" style="fill:#bcbcbc"/></g></g><g id="Group_1188-11" data-name="Group 1188-11"><g id="Group_1187-11" data-name="Group 1187-11"><path id="Path_2924-11" data-name="Path 2924-11" d="M361,508.81a.49.49,0,0,0-.66.18L359,511.34a.48.48,0,0,0,.17.66h0a.48.48,0,0,0,.66-.17h0l1.36-2.36a.49.49,0,0,0-.17-.66Z" style="fill:#bcbcbc"/></g></g><g id="Group_1190-11" data-name="Group 1190-11"><g id="Group_1189-11" data-name="Group 1189-11"><path id="Path_2925-11" data-name="Path 2925-11" d="M349.6,528.58a.48.48,0,0,0-.66.17l-1.36,2.36a.48.48,0,1,0,.83.48l1.37-2.36A.48.48,0,0,0,349.6,528.58Z" style="fill:#bcbcbc"/></g></g><g id="Group_1192-11" data-name="Group 1192-11"><g id="Group_1191-11" data-name="Group 1191-11"><path id="Path_2926-11" data-name="Path 2926-11" d="M346.1,525.07a.48.48,0,0,0-.66-.17l-2.35,1.36a.49.49,0,0,0-.18.66.48.48,0,0,0,.66.17l2.36-1.36A.48.48,0,0,0,346.1,525.07Z" style="fill:#bcbcbc"/></g></g></g><g id="sun-12" style="opacity:0.49799999594688416"><g id="Group_1166-12" data-name="Group 1166-12"><g id="Group_1165-12" data-name="Group 1165-12"><path id="Path_2913-12" data-name="Path 2913-12" d="M328.86,418.66a.48.48,0,0,0-.66-.17l-2.35,1.36a.48.48,0,0,0,.48.84l2.36-1.37a.47.47,0,0,0,.17-.65Z" style="fill:#bcbcbc"/></g></g><g id="Group_1168-12" data-name="Group 1168-12"><g id="Group_1167-12" data-name="Group 1167-12"><path id="Path_2914-12" data-name="Path 2914-12" d="M328.68,431.26l-2.35-1.36a.48.48,0,0,0-.66.17.48.48,0,0,0,.18.66l2.35,1.36a.48.48,0,1,0,.48-.83Z" style="fill:#bcbcbc"/></g></g><g id="Group_1170-12" data-name="Group 1170-12"><g id="Group_1169-12" data-name="Group 1169-12"><path id="Path_2915-12" data-name="Path 2915-12" d="M317.42,434.82a.48.48,0,0,0-.52.45v2.79a.49.49,0,0,0,1,.07v-2.79a.48.48,0,0,0-.45-.52Z" style="fill:#bcbcbc"/></g></g><g id="Group_1172-12" data-name="Group 1172-12"><g id="Group_1171-12" data-name="Group 1171-12"><path id="Path_2916-12" data-name="Path 2916-12" d="M308.92,419.85l-2.35-1.36a.48.48,0,0,0-.49.83l2.36,1.37a.48.48,0,0,0,.48-.84Z" style="fill:#bcbcbc"/></g></g><g id="Group_1174-12" data-name="Group 1174-12"><g id="Group_1173-12" data-name="Group 1173-12"><path id="Path_2917-12" data-name="Path 2917-12" d="M317.42,412a.48.48,0,0,0-.52.45v2.79a.5.5,0,0,0,.46.51.49.49,0,0,0,.51-.46v-2.77a.48.48,0,0,0-.45-.52Z" style="fill:#bcbcbc"/></g></g><g id="Group_1176-12" data-name="Group 1176-12"><g id="Group_1175-12" data-name="Group 1175-12"><path id="Path_2918-12" data-name="Path 2918-12" d="M312.78,416.34,311.42,414a.48.48,0,0,0-.66-.17.49.49,0,0,0-.18.66l1.36,2.35a.48.48,0,0,0,.84-.48Z" style="fill:#bcbcbc"/></g></g><g id="Group_1178-12" data-name="Group 1178-12"><g id="Group_1177-12" data-name="Group 1177-12"><path id="Path_2919-12" data-name="Path 2919-12" d="M317.46,421h-.08a4.3,4.3,0,0,0-4.3,4.3h0a.48.48,0,0,0,.47.5.47.47,0,0,0,.5-.46v0a3.34,3.34,0,0,1,3.33-3.34h0a.48.48,0,0,0,.53-.43.49.49,0,0,0-.44-.53Z" style="fill:#bcbcbc"/></g></g><g id="Group_1180-12" data-name="Group 1180-12"><g id="Group_1179-12" data-name="Group 1179-12"><path id="Path_2920-12" data-name="Path 2920-12" d="M330.6,425.25a.47.47,0,0,0-.45-.44h-2.72a.48.48,0,1,0-.09,1h2.81A.48.48,0,0,0,330.6,425.25Z" style="fill:#bcbcbc"/></g></g><g id="Group_1182-12" data-name="Group 1182-12"><g id="Group_1181-12" data-name="Group 1181-12"><path id="Path_2921-12" data-name="Path 2921-12" d="M307.41,424.81h-2.79a.48.48,0,0,0-.45.52.49.49,0,0,0,.45.45h2.72a.5.5,0,0,0,.53-.44.49.49,0,0,0-.44-.53Z" style="fill:#bcbcbc"/></g></g><g id="Group_1184-12" data-name="Group 1184-12"><g id="Group_1183-12" data-name="Group 1183-12"><path id="Path_2922-12" data-name="Path 2922-12" d="M317.39,418.18a7.12,7.12,0,1,0,7.11,7.11h0A7.11,7.11,0,0,0,317.39,418.18Zm4.34,11.47A6.15,6.15,0,0,1,313,421h0a6.15,6.15,0,1,1,8.7,8.7Z" style="fill:#bcbcbc"/></g></g><g id="Group_1186-12" data-name="Group 1186-12"><g id="Group_1185-12" data-name="Group 1185-12"><path id="Path_2923-12" data-name="Path 2923-12" d="M324.19,436.11h0l-1.36-2.36a.49.49,0,0,0-.84.49h0l1.36,2.35a.48.48,0,1,0,.84-.48Z" style="fill:#bcbcbc"/></g></g><g id="Group_1188-12" data-name="Group 1188-12"><g id="Group_1187-12" data-name="Group 1187-12"><path id="Path_2924-12" data-name="Path 2924-12" d="M324,413.81a.49.49,0,0,0-.66.18L322,416.34a.48.48,0,0,0,.17.66h0a.48.48,0,0,0,.66-.17h0l1.36-2.36a.49.49,0,0,0-.17-.66Z" style="fill:#bcbcbc"/></g></g><g id="Group_1190-12" data-name="Group 1190-12"><g id="Group_1189-12" data-name="Group 1189-12"><path id="Path_2925-12" data-name="Path 2925-12" d="M312.6,433.58a.48.48,0,0,0-.66.17l-1.36,2.36a.48.48,0,1,0,.83.48l1.37-2.36A.48.48,0,0,0,312.6,433.58Z" style="fill:#bcbcbc"/></g></g><g id="Group_1192-12" data-name="Group 1192-12"><g id="Group_1191-12" data-name="Group 1191-12"><path id="Path_2926-12" data-name="Path 2926-12" d="M309.1,430.07a.48.48,0,0,0-.66-.17l-2.35,1.36a.49.49,0,0,0-.18.66.48.48,0,0,0,.66.17l2.36-1.36A.48.48,0,0,0,309.1,430.07Z" style="fill:#bcbcbc"/></g></g></g><g id="sun-13" style="opacity:0.49799999594688416"><g id="Group_1166-13" data-name="Group 1166-13"><g id="Group_1165-13" data-name="Group 1165-13"><path id="Path_2913-13" data-name="Path 2913-13" d="M187.86,42.66a.48.48,0,0,0-.66-.17l-2.35,1.36a.48.48,0,1,0,.48.84l2.36-1.37a.47.47,0,0,0,.17-.65Z" style="fill:#bcbcbc"/></g></g><g id="Group_1168-13" data-name="Group 1168-13"><g id="Group_1167-13" data-name="Group 1167-13"><path id="Path_2914-13" data-name="Path 2914-13" d="M187.69,55.26l-2.36-1.36a.48.48,0,0,0-.66.17.48.48,0,0,0,.18.66l2.35,1.36a.48.48,0,0,0,.66-.17A.48.48,0,0,0,187.69,55.26Z" style="fill:#bcbcbc"/></g></g><g id="Group_1170-13" data-name="Group 1170-13"><g id="Group_1169-13" data-name="Group 1169-13"><path id="Path_2915-13" data-name="Path 2915-13" d="M176.42,58.82a.48.48,0,0,0-.52.45v2.79a.49.49,0,0,0,1,.07V59.34a.48.48,0,0,0-.45-.52Z" style="fill:#bcbcbc"/></g></g><g id="Group_1172-13" data-name="Group 1172-13"><g id="Group_1171-13" data-name="Group 1171-13"><path id="Path_2916-13" data-name="Path 2916-13" d="M167.92,43.85l-2.35-1.36a.48.48,0,0,0-.49.83l2.36,1.37a.48.48,0,1,0,.48-.84Z" style="fill:#bcbcbc"/></g></g><g id="Group_1174-13" data-name="Group 1174-13"><g id="Group_1173-13" data-name="Group 1173-13"><path id="Path_2917-13" data-name="Path 2917-13" d="M176.42,36a.48.48,0,0,0-.52.45v2.79a.5.5,0,0,0,.46.51.49.49,0,0,0,.51-.46V36.52a.48.48,0,0,0-.45-.52Z" style="fill:#bcbcbc"/></g></g><g id="Group_1176-13" data-name="Group 1176-13"><g id="Group_1175-13" data-name="Group 1175-13"><path id="Path_2918-13" data-name="Path 2918-13" d="M171.78,40.34,170.42,38a.48.48,0,0,0-.66-.17.49.49,0,0,0-.18.66l1.36,2.35a.48.48,0,1,0,.84-.48Z" style="fill:#bcbcbc"/></g></g><g id="Group_1178-13" data-name="Group 1178-13"><g id="Group_1177-13" data-name="Group 1177-13"><path id="Path_2919-13" data-name="Path 2919-13" d="M176.46,45h-.08a4.3,4.3,0,0,0-4.3,4.3h0a.48.48,0,0,0,.47.5.47.47,0,0,0,.5-.46v0A3.34,3.34,0,0,1,176.38,46h0a.48.48,0,0,0,.53-.43.49.49,0,0,0-.44-.53Z" style="fill:#bcbcbc"/></g></g><g id="Group_1180-13" data-name="Group 1180-13"><g id="Group_1179-13" data-name="Group 1179-13"><path id="Path_2920-13" data-name="Path 2920-13" d="M189.6,49.25a.47.47,0,0,0-.45-.44h-2.72a.48.48,0,0,0-.53.43.49.49,0,0,0,.44.53h2.81A.48.48,0,0,0,189.6,49.25Z" style="fill:#bcbcbc"/></g></g><g id="Group_1182-13" data-name="Group 1182-13"><g id="Group_1181-13" data-name="Group 1181-13"><path id="Path_2921-13" data-name="Path 2921-13" d="M166.41,48.81h-2.79a.48.48,0,0,0-.45.52.49.49,0,0,0,.45.45h2.72a.5.5,0,0,0,.53-.44.49.49,0,0,0-.44-.53Z" style="fill:#bcbcbc"/></g></g><g id="Group_1184-13" data-name="Group 1184-13"><g id="Group_1183-13" data-name="Group 1183-13"><path id="Path_2922-13" data-name="Path 2922-13" d="M176.39,42.18a7.12,7.12,0,1,0,7.11,7.11h0A7.11,7.11,0,0,0,176.39,42.18Zm4.34,11.47A6.15,6.15,0,0,1,172,45h0a6.15,6.15,0,1,1,8.7,8.7Z" style="fill:#bcbcbc"/></g></g><g id="Group_1186-13" data-name="Group 1186-13"><g id="Group_1185-13" data-name="Group 1185-13"><path id="Path_2923-13" data-name="Path 2923-13" d="M183.19,60.11h0l-1.36-2.36a.49.49,0,0,0-.84.49h0l1.36,2.35a.48.48,0,1,0,.84-.48Z" style="fill:#bcbcbc"/></g></g><g id="Group_1188-13" data-name="Group 1188-13"><g id="Group_1187-13" data-name="Group 1187-13"><path id="Path_2924-13" data-name="Path 2924-13" d="M183,37.81a.49.49,0,0,0-.66.18L181,40.34a.48.48,0,0,0,.17.66h0a.48.48,0,0,0,.66-.17h0l1.36-2.36a.49.49,0,0,0-.17-.66Z" style="fill:#bcbcbc"/></g></g><g id="Group_1190-13" data-name="Group 1190-13"><g id="Group_1189-13" data-name="Group 1189-13"><path id="Path_2925-13" data-name="Path 2925-13" d="M171.6,57.58a.46.46,0,0,0-.65.17l-1.37,2.36a.48.48,0,1,0,.83.48l1.37-2.36A.48.48,0,0,0,171.6,57.58Z" style="fill:#bcbcbc"/></g></g><g id="Group_1192-13" data-name="Group 1192-13"><g id="Group_1191-13" data-name="Group 1191-13"><path id="Path_2926-13" data-name="Path 2926-13" d="M168.1,54.07a.48.48,0,0,0-.66-.17l-2.35,1.36a.49.49,0,0,0-.18.66.48.48,0,0,0,.66.17l2.36-1.36A.48.48,0,0,0,168.1,54.07Z" style="fill:#bcbcbc"/></g></g></g><g id="sun-14" style="opacity:0.49799999594688416"><g id="Group_1166-14" data-name="Group 1166-14"><g id="Group_1165-14" data-name="Group 1165-14"><path id="Path_2913-14" data-name="Path 2913-14" d="M172.86,155.66a.48.48,0,0,0-.66-.17l-2.35,1.36a.48.48,0,0,0,.48.84l2.36-1.37a.47.47,0,0,0,.17-.65Z" style="fill:#bcbcbc"/></g></g><g id="Group_1168-14" data-name="Group 1168-14"><g id="Group_1167-14" data-name="Group 1167-14"><path id="Path_2914-14" data-name="Path 2914-14" d="M172.69,168.26l-2.36-1.36a.48.48,0,0,0-.66.17.48.48,0,0,0,.18.66l2.35,1.36a.48.48,0,0,0,.66-.17A.48.48,0,0,0,172.69,168.26Z" style="fill:#bcbcbc"/></g></g><g id="Group_1170-14" data-name="Group 1170-14"><g id="Group_1169-14" data-name="Group 1169-14"><path id="Path_2915-14" data-name="Path 2915-14" d="M161.42,171.82a.48.48,0,0,0-.52.45v2.79a.49.49,0,0,0,1,.07v-2.79a.48.48,0,0,0-.45-.52Z" style="fill:#bcbcbc"/></g></g><g id="Group_1172-14" data-name="Group 1172-14"><g id="Group_1171-14" data-name="Group 1171-14"><path id="Path_2916-14" data-name="Path 2916-14" d="M152.92,156.85l-2.35-1.36a.48.48,0,0,0-.49.83l2.36,1.37a.48.48,0,1,0,.48-.84Z" style="fill:#bcbcbc"/></g></g><g id="Group_1174-14" data-name="Group 1174-14"><g id="Group_1173-14" data-name="Group 1173-14"><path id="Path_2917-14" data-name="Path 2917-14" d="M161.42,149a.48.48,0,0,0-.52.45v2.79a.5.5,0,0,0,.46.51.49.49,0,0,0,.51-.46v-2.77a.48.48,0,0,0-.45-.52Z" style="fill:#bcbcbc"/></g></g><g id="Group_1176-14" data-name="Group 1176-14"><g id="Group_1175-14" data-name="Group 1175-14"><path id="Path_2918-14" data-name="Path 2918-14" d="M156.78,153.34,155.42,151a.48.48,0,0,0-.66-.17.49.49,0,0,0-.18.66l1.36,2.35a.48.48,0,0,0,.84-.48Z" style="fill:#bcbcbc"/></g></g><g id="Group_1178-14" data-name="Group 1178-14"><g id="Group_1177-14" data-name="Group 1177-14"><path id="Path_2919-14" data-name="Path 2919-14" d="M161.46,158h-.08a4.3,4.3,0,0,0-4.3,4.3h0a.48.48,0,0,0,.47.5.47.47,0,0,0,.5-.46v0a3.34,3.34,0,0,1,3.33-3.34h0a.48.48,0,0,0,.53-.43.49.49,0,0,0-.44-.53Z" style="fill:#bcbcbc"/></g></g><g id="Group_1180-14" data-name="Group 1180-14"><g id="Group_1179-14" data-name="Group 1179-14"><path id="Path_2920-14" data-name="Path 2920-14" d="M174.6,162.25a.47.47,0,0,0-.45-.44h-2.72a.48.48,0,0,0-.53.43.49.49,0,0,0,.44.53h2.81A.48.48,0,0,0,174.6,162.25Z" style="fill:#bcbcbc"/></g></g><g id="Group_1182-14" data-name="Group 1182-14"><g id="Group_1181-14" data-name="Group 1181-14"><path id="Path_2921-14" data-name="Path 2921-14" d="M151.41,161.81h-2.79a.48.48,0,0,0-.45.52.49.49,0,0,0,.45.45h2.72a.5.5,0,0,0,.53-.44.49.49,0,0,0-.44-.53Z" style="fill:#bcbcbc"/></g></g><g id="Group_1184-14" data-name="Group 1184-14"><g id="Group_1183-14" data-name="Group 1183-14"><path id="Path_2922-14" data-name="Path 2922-14" d="M161.39,155.18a7.12,7.12,0,1,0,7.11,7.11h0A7.11,7.11,0,0,0,161.39,155.18Zm4.34,11.47A6.15,6.15,0,1,1,157,158h0a6.15,6.15,0,0,1,8.7,8.7Z" style="fill:#bcbcbc"/></g></g><g id="Group_1186-14" data-name="Group 1186-14"><g id="Group_1185-14" data-name="Group 1185-14"><path id="Path_2923-14" data-name="Path 2923-14" d="M168.19,173.11h0l-1.36-2.36a.49.49,0,0,0-.84.49h0l1.36,2.35a.48.48,0,0,0,.84-.48Z" style="fill:#bcbcbc"/></g></g><g id="Group_1188-14" data-name="Group 1188-14"><g id="Group_1187-14" data-name="Group 1187-14"><path id="Path_2924-14" data-name="Path 2924-14" d="M168,150.81a.49.49,0,0,0-.66.18L166,153.34a.48.48,0,0,0,.17.66h0a.48.48,0,0,0,.66-.17h0l1.36-2.36a.49.49,0,0,0-.17-.66Z" style="fill:#bcbcbc"/></g></g><g id="Group_1190-14" data-name="Group 1190-14"><g id="Group_1189-14" data-name="Group 1189-14"><path id="Path_2925-14" data-name="Path 2925-14" d="M156.6,170.58a.46.46,0,0,0-.65.17l-1.37,2.36a.48.48,0,1,0,.83.48l1.37-2.36A.48.48,0,0,0,156.6,170.58Z" style="fill:#bcbcbc"/></g></g><g id="Group_1192-14" data-name="Group 1192-14"><g id="Group_1191-14" data-name="Group 1191-14"><path id="Path_2926-14" data-name="Path 2926-14" d="M153.1,167.07a.48.48,0,0,0-.66-.17l-2.35,1.36a.49.49,0,0,0-.18.66.48.48,0,0,0,.66.17l2.36-1.36A.48.48,0,0,0,153.1,167.07Z" style="fill:#bcbcbc"/></g></g></g><g id="sun-15" style="opacity:0.49799999594688416"><g id="Group_1166-15" data-name="Group 1166-15"><g id="Group_1165-15" data-name="Group 1165-15"><path id="Path_2913-15" data-name="Path 2913-15" d="M114.86,281.66a.48.48,0,0,0-.66-.17l-2.35,1.36a.48.48,0,1,0,.48.84l2.36-1.37a.47.47,0,0,0,.17-.65Z" style="fill:#bcbcbc"/></g></g><g id="Group_1168-15" data-name="Group 1168-15"><g id="Group_1167-15" data-name="Group 1167-15"><path id="Path_2914-15" data-name="Path 2914-15" d="M114.69,294.26l-2.36-1.36a.48.48,0,0,0-.66.17.48.48,0,0,0,.18.66l2.35,1.36a.48.48,0,0,0,.66-.17A.48.48,0,0,0,114.69,294.26Z" style="fill:#bcbcbc"/></g></g><g id="Group_1170-15" data-name="Group 1170-15"><g id="Group_1169-15" data-name="Group 1169-15"><path id="Path_2915-15" data-name="Path 2915-15" d="M103.42,297.82a.48.48,0,0,0-.52.45v2.79a.49.49,0,0,0,1,.07v-2.79a.48.48,0,0,0-.45-.52Z" style="fill:#bcbcbc"/></g></g><g id="Group_1172-15" data-name="Group 1172-15"><g id="Group_1171-15" data-name="Group 1171-15"><path id="Path_2916-15" data-name="Path 2916-15" d="M94.92,282.85l-2.35-1.36a.48.48,0,0,0-.49.83l2.36,1.37a.48.48,0,1,0,.48-.84Z" style="fill:#bcbcbc"/></g></g><g id="Group_1174-15" data-name="Group 1174-15"><g id="Group_1173-15" data-name="Group 1173-15"><path id="Path_2917-15" data-name="Path 2917-15" d="M103.42,275a.48.48,0,0,0-.52.45v2.79a.5.5,0,0,0,.46.51.49.49,0,0,0,.51-.46v-2.77a.48.48,0,0,0-.45-.52Z" style="fill:#bcbcbc"/></g></g><g id="Group_1176-15" data-name="Group 1176-15"><g id="Group_1175-15" data-name="Group 1175-15"><path id="Path_2918-15" data-name="Path 2918-15" d="M98.78,279.34,97.42,277a.48.48,0,0,0-.66-.17.49.49,0,0,0-.18.66l1.36,2.35a.48.48,0,1,0,.84-.48Z" style="fill:#bcbcbc"/></g></g><g id="Group_1178-15" data-name="Group 1178-15"><g id="Group_1177-15" data-name="Group 1177-15"><path id="Path_2919-15" data-name="Path 2919-15" d="M103.46,284h-.08a4.3,4.3,0,0,0-4.3,4.3h0a.48.48,0,0,0,.47.5.47.47,0,0,0,.5-.46v0a3.34,3.34,0,0,1,3.33-3.34h0a.48.48,0,0,0,.53-.43.49.49,0,0,0-.44-.53Z" style="fill:#bcbcbc"/></g></g><g id="Group_1180-15" data-name="Group 1180-15"><g id="Group_1179-15" data-name="Group 1179-15"><path id="Path_2920-15" data-name="Path 2920-15" d="M116.6,288.25a.47.47,0,0,0-.45-.44h-2.72a.48.48,0,0,0-.53.43.49.49,0,0,0,.44.53h2.81A.48.48,0,0,0,116.6,288.25Z" style="fill:#bcbcbc"/></g></g><g id="Group_1182-15" data-name="Group 1182-15"><g id="Group_1181-15" data-name="Group 1181-15"><path id="Path_2921-15" data-name="Path 2921-15" d="M93.41,287.81H90.62a.48.48,0,0,0-.45.52.49.49,0,0,0,.45.45h2.72a.5.5,0,0,0,.53-.44.49.49,0,0,0-.44-.53Z" style="fill:#bcbcbc"/></g></g><g id="Group_1184-15" data-name="Group 1184-15"><g id="Group_1183-15" data-name="Group 1183-15"><path id="Path_2922-15" data-name="Path 2922-15" d="M103.39,281.18a7.12,7.12,0,1,0,7.11,7.11h0A7.11,7.11,0,0,0,103.39,281.18Zm4.34,11.47A6.15,6.15,0,0,1,99,284h0a6.15,6.15,0,1,1,8.7,8.7Z" style="fill:#bcbcbc"/></g></g><g id="Group_1186-15" data-name="Group 1186-15"><g id="Group_1185-15" data-name="Group 1185-15"><path id="Path_2923-15" data-name="Path 2923-15" d="M110.19,299.11h0l-1.36-2.36a.49.49,0,0,0-.84.49h0l1.36,2.35a.48.48,0,0,0,.84-.48Z" style="fill:#bcbcbc"/></g></g><g id="Group_1188-15" data-name="Group 1188-15"><g id="Group_1187-15" data-name="Group 1187-15"><path id="Path_2924-15" data-name="Path 2924-15" d="M110,276.81a.49.49,0,0,0-.66.18L108,279.34a.48.48,0,0,0,.17.66h0a.48.48,0,0,0,.66-.17h0l1.36-2.36a.49.49,0,0,0-.17-.66Z" style="fill:#bcbcbc"/></g></g><g id="Group_1190-15" data-name="Group 1190-15"><g id="Group_1189-15" data-name="Group 1189-15"><path id="Path_2925-15" data-name="Path 2925-15" d="M98.6,296.58a.48.48,0,0,0-.66.17l-1.36,2.36a.48.48,0,1,0,.83.48l1.37-2.36A.48.48,0,0,0,98.6,296.58Z" style="fill:#bcbcbc"/></g></g><g id="Group_1192-15" data-name="Group 1192-15"><g id="Group_1191-15" data-name="Group 1191-15"><path id="Path_2926-15" data-name="Path 2926-15" d="M95.1,293.07a.48.48,0,0,0-.66-.17l-2.35,1.36a.49.49,0,0,0-.18.66.48.48,0,0,0,.66.17l2.36-1.36A.48.48,0,0,0,95.1,293.07Z" style="fill:#bcbcbc"/></g></g></g><g id="favorite" style="opacity:0.5019999742507935"><path id="Path_333" data-name="Path 333" d="M283.92,384l-6.87-1.45-3.5-6.09v16.87l6.41,2.87-.74-7Z" style="fill:#bcbcbc"/><path id="Path_334" data-name="Path 334" d="M270,382.59,263.17,384l4.71,5.22-.75,7,6.42-2.87V376.5Z" style="fill:#bcbcbc"/></g><g id="favorite-2" style="opacity:0.5019999742507935"><path id="Path_333-2" data-name="Path 333-2" d="M416.92,471l-6.87-1.45-3.5-6.09v16.87l6.41,2.87-.74-7Z" style="fill:#bcbcbc"/><path id="Path_334-2" data-name="Path 334-2" d="M403,469.59,396.17,471l4.71,5.22-.75,7,6.42-2.87V463.5Z" style="fill:#bcbcbc"/></g><g id="favorite-3" style="opacity:0.5019999742507935"><path id="Path_333-3" data-name="Path 333-3" d="M381.92,287l-6.87-1.45-3.5-6.09v16.87l6.41,2.87-.74-7Z" style="fill:#bcbcbc"/><path id="Path_334-3" data-name="Path 334-3" d="M368,285.59,361.17,287l4.71,5.22-.75,7,6.42-2.87V279.5Z" style="fill:#bcbcbc"/></g><g id="favorite-4" style="opacity:0.5019999742507935"><path id="Path_333-4" data-name="Path 333-4" d="M319.92,125l-6.87-1.45-3.5-6.09v16.87l6.41,2.87-.74-7Z" style="fill:#bcbcbc"/><path id="Path_334-4" data-name="Path 334-4" d="M306,123.59,299.17,125l4.71,5.22-.75,7,6.42-2.87V117.5Z" style="fill:#bcbcbc"/></g><g id="favorite-5" style="opacity:0.5019999742507935"><path id="Path_333-5" data-name="Path 333-5" d="M37.92,200l-6.87-1.45-3.5-6.09v16.87L34,212.24l-.74-7Z" style="fill:#bcbcbc"/><path id="Path_334-5" data-name="Path 334-5" d="M24,198.59,17.17,200l4.71,5.22-.75,7,6.42-2.87V192.5Z" style="fill:#bcbcbc"/></g><g id="favorite-6" style="opacity:0.5019999742507935"><path id="Path_333-6" data-name="Path 333-6" d="M134.92,103l-6.87-1.45-3.5-6.09v16.87l6.41,2.87-.74-7Z" style="fill:#bcbcbc"/><path id="Path_334-6" data-name="Path 334-6" d="M121,101.59,114.17,103l4.71,5.22-.75,7,6.42-2.87V95.5Z" style="fill:#bcbcbc"/></g><g id="favorite-7" style="opacity:0.5019999742507935"><path id="Path_333-7" data-name="Path 333-7" d="M37.92,491l-6.87-1.45-3.5-6.09v16.87L34,503.24l-.74-7Z" style="fill:#bcbcbc"/><path id="Path_334-7" data-name="Path 334-7" d="M24,489.59,17.17,491l4.71,5.22-.75,7,6.42-2.87V483.5Z" style="fill:#bcbcbc"/></g><g id="favorite-8" style="opacity:0.5019999742507935"><path id="Path_333-8" data-name="Path 333-8" d="M157.92,462l-6.87-1.45-3.5-6.09v16.87l6.41,2.87-.74-7Z" style="fill:#bcbcbc"/><path id="Path_334-8" data-name="Path 334-8" d="M144,460.59,137.17,462l4.71,5.22-.75,7,6.42-2.87V454.5Z" style="fill:#bcbcbc"/></g></g></g></g></svg>