<svg xmlns="http://www.w3.org/2000/svg" viewBox="0 0 75.24 68.44"><title>bg_foto_white</title><g id="Layer_2" data-name="Layer 2"><g id="Layer_1-2" data-name="Layer 1"><g id="Group_4072" data-name="Group 4072"><g id="Group_3780" data-name="Group 3780"><g id="Group_2327" data-name="Group 2327"><g id="Group_2309" data-name="Group 2309"><path id="Path_3286" data-name="Path 3286" d="M52.91,11.1c4.85,3.14,10.48,6.81,12.72,11.84,3.75,8.45,1.22,19.42-4.28,27.88-4.78,7.37-14,16.5-22.21,17.54-6.4.82-11.58-5.25-17.51-9.1C13.84,54.19,4.47,48.48,3.79,39.75c-.47-6,5.82-14.71,9.4-20.22C16.26,14.8,21,7.92,25.91,5.68,34.44,1.77,44.35,5.53,52.91,11.1Z" style="fill:#fff"/><g id="Group_2303" data-name="Group 2303"><g id="Group_2307" data-name="Group 2307"><path id="Path_3284" data-name="Path 3284" d="M67.2,56.16c-.27-1.23-.62-3.95.2-5,.47-.6,2,.36,2.93.16a4.06,4.06,0,1,1-3.13,4.82Z" style="fill:#fff"/><path id="Path_3285" data-name="Path 3285" d="M3.24,50.83a1.78,1.78,0,1,1-.44-2.48h0c.29.2,1.39-.09,1.56.37S3.6,50.31,3.24,50.83Z" style="fill:#fff"/><path id="Path_3283" data-name="Path 3283" d="M66.34,1a4.35,4.35,0,0,1,0,8.7c-1.25,0-2.93,1.35-3.81.4-.64-.68-.53-3.6-.53-4.75A4.34,4.34,0,0,1,66.34,1Z" style="fill:#fff"/><path id="Path_3282" data-name="Path 3282" d="M13.73,0a3,3,0,0,1,3.05,3.05h0c0,.78.11,3.16-.48,3.82-.45.5-1.67-.77-2.57-.77a3,3,0,0,1-3.05-3h0a3.2,3.2,0,0,1,.63-1.86A3,3,0,0,1,13.73,0Z" style="fill:#fff"/></g></g></g></g></g></g></g></g></svg>