<svg xmlns="http://www.w3.org/2000/svg" viewBox="0 0 371.13 101.63"><title>bg_milestones</title><g id="Layer_2" data-name="Layer 2"><g id="Layer_1-2" data-name="Layer 1"><path id="Path_3452" data-name="Path 3452" d="M333.62,91.13H273.71V95.8h-49v-5H202.93V76.6H164.62V52.29H146.2V64.14h-39V76.05H79.13V94.29H24.92V86.05H0V101.6l371.13,0V95.8H333.62Z" style="fill:#d2d2d1;opacity:0.3019999861717224;isolation:isolate"/><g id="Group_2734" data-name="Group 2734"><path id="Path_3413" data-name="Path 3413" d="M160.78,15.64s0,0,0,0c-.26-.83-.7-1.8-1.56-1.87-.66-.05-1.3.5-1.94.3s-.93-1.31-1.66-1.61-1.71.62-2.64.64a2.13,2.13,0,0,1-1.71-1.17,11.36,11.36,0,0,0-1.14-1.85,3.59,3.59,0,0,0-4-.58A8.73,8.73,0,0,0,143,12.2a9.27,9.27,0,0,1-1.55,1.64,2.64,2.64,0,0,1-2.13.54c-.89-.21-1.51-1-2.37-1.32-1.64-.58-3.7.89-4.15,2.57h28Z" style="fill:#fff"/></g><g id="Group_2735" data-name="Group 2735"><path id="Path_3414" data-name="Path 3414" d="M355.11,8.21v0c-.34-1-.89-2.27-2-2.36-.84-.06-1.65.63-2.45.38s-1.17-1.66-2.09-2c-1.08-.45-2.16.78-3.33.8a2.71,2.71,0,0,1-2.16-1.48,13.78,13.78,0,0,0-1.43-2.32,4.52,4.52,0,0,0-5-.74,11.1,11.1,0,0,0-4.05,3.43,11.76,11.76,0,0,1-2,2.08,3.29,3.29,0,0,1-2.69.68c-1.11-.28-1.9-1.3-3-1.67-2.08-.73-4.68,1.12-5.25,3.24h35.35Z" style="fill:#fff"/></g><circle id="Ellipse_294" data-name="Ellipse 294" cx="242.81" cy="20.86" r="8.19" style="fill:#fbab19;opacity:0.4970000088214874;isolation:isolate"/></g></g></svg>