<svg xmlns="http://www.w3.org/2000/svg" xmlns:xlink="http://www.w3.org/1999/xlink" width="398.623" height="135.657" viewBox="0 0 398.623 135.657">
  <defs>
    <filter id="Union_6" x="0" y="0" width="398.623" height="135.657" filterUnits="userSpaceOnUse">
      <feOffset dy="3" input="SourceAlpha"/>
      <feGaussianBlur stdDeviation="3" result="blur"/>
      <feFlood flood-opacity="0.161"/>
      <feComposite operator="in" in2="blur"/>
      <feComposite in="SourceGraphic"/>
    </filter>
  </defs>
  <g id="Group_4215" data-name="Group 4215" transform="translate(-7.19 -158.101)">
    <g id="Group_1939" data-name="Group 1939" transform="translate(0 -11)">
      <g id="Group_4214" data-name="Group 4214">
        <g id="Group_1935" data-name="Group 1935" transform="translate(16.19 175.101)">
          <g id="Group_1932" data-name="Group 1932">
            <g transform="matrix(1, 0, 0, 1, -9, -6)" filter="url(#Union_6)">
              <path id="Union_6-2" data-name="Union 6" d="M377.924,117.657H367.311v-.133h-352v.133H3.1l2.685-4.151L0,104.564l5.785-8.942L0,86.679l5.785-8.943L0,68.794l5.785-8.943L0,50.908l5.785-8.942L0,33.023,5.785,24.08,0,15.139,5.785,6.2,2.236.71H13.811V.379h353.5V0h11.365l-3.083,5.519,5.03,9-5.03,9,5.03,9-5.03,9,5.03,9-5.03,9,5.03,9-5.03,9,5.03,9-5.03,9,5.03,9-5.03,9,2.334,4.175h0Z" transform="translate(9 6)" fill="#fff"/>
            </g>
          </g>
        </g>
      </g>
      <g id="Group_1913" data-name="Group 1913" transform="translate(387.826 292.804) rotate(180)">
        <path id="path130" d="M5.358,2.68A2.679,2.679,0,1,1,2.679,0,2.68,2.68,0,0,1,5.358,2.68" transform="translate(126.024 9.158)" fill="#eaeaea"/>
        <path id="path132" d="M12.13,6.065A6.065,6.065,0,1,1,6.064,0,6.066,6.066,0,0,1,12.13,6.065" transform="translate(201.183 2.387)" fill="#eaeaea"/>
        <path id="path132-2" data-name="path132" d="M21.011,10.506A10.506,10.506,0,1,1,10.5,0,10.507,10.507,0,0,1,21.011,10.506" transform="translate(40.302 37.387)" fill="#eaeaea"/>
        <path id="path132-3" data-name="path132" d="M10.161,5.08A5.08,5.08,0,1,1,5.079,0a5.081,5.081,0,0,1,5.081,5.08" transform="translate(9.152 22.387)" fill="#eaeaea"/>
        <path id="path132-4" data-name="path132" d="M6.313,3.156A3.156,3.156,0,1,1,3.156,0,3.157,3.157,0,0,1,6.313,3.156" transform="translate(0 67.387)" fill="#eaeaea"/>
        <path id="path134" d="M8.264,4.132A4.132,4.132,0,1,1,4.132,0,4.132,4.132,0,0,1,8.264,4.132" transform="translate(174.899 19.982)" fill="#eaeaea"/>
        <path id="path136" d="M5.358,2.68A2.679,2.679,0,1,1,2.679,0,2.678,2.678,0,0,1,5.358,2.68" transform="translate(126.024 98.143)" fill="#eaeaea"/>
        <path id="path138" d="M4.773,2.387A2.387,2.387,0,1,1,2.387,0,2.385,2.385,0,0,1,4.773,2.387" transform="translate(252.556 113.424)" fill="#eaeaea"/>
        <path id="path140" d="M14.63,7.314A7.315,7.315,0,1,1,7.317,0,7.316,7.316,0,0,1,14.63,7.314" transform="translate(255.935 28.475)" fill="#eaeaea"/>
        <path id="path142" d="M2.387,1.193A1.193,1.193,0,1,0,1.195,2.387,1.192,1.192,0,0,0,2.387,1.193" transform="translate(252.751)" fill="#eaeaea"/>
      </g>
    </g>
  </g>
</svg>
