<svg xmlns="http://www.w3.org/2000/svg" viewBox="0 0 380.62 117.69"><title>bg_white</title><g id="Layer_2" data-name="Layer 2"><g id="Layer_1-2" data-name="Layer 1"><g id="Group_4265" data-name="Group 4265"><g id="Group_2087" data-name="Group 2087"><g id="Group_1939" data-name="Group 1939"><g id="Group_1935" data-name="Group 1935"><g id="Group_1932" data-name="Group 1932"><path id="Union_6-2" data-name="Union 6-2" d="M377.92,117.66H367.31v-.14h-352v.14H3.1l2.68-4.15-5.78-9,5.78-8.94L0,86.68l5.78-8.94L0,68.79l5.78-8.94L0,50.91,5.78,42,0,33l5.78-8.94L0,15.14,5.78,6.2,2.24.71H13.81V.38h353.5V0h11.37l-3.09,5.52,5,9-5,9,5,9-5,9,5,9-5,9,5,9-5,9,5,9-5,9,5,9-5,9,2.34,4.17h0Z" fill="#fff"/></g></g></g></g></g></g></g></svg>