<svg xmlns="http://www.w3.org/2000/svg" width="85" height="115.527" viewBox="0 0 85 115.527">
  <g id="Group_4570" data-name="Group 4570" transform="translate(-10 -167.949)">
    <path id="Path_9372" data-name="Path 9372" d="M7,0H85V115H7a7,7,0,0,1-7-7V7A7,7,0,0,1,7,0Z" transform="translate(10 168)" fill="#008af6"/>
    <path id="Path_9374" data-name="Path 9374" d="M27.569-1.358l22.358,42.2H9.628s-5.894-1.168-5.411-5.928S27.569-1.358,27.569-1.358Z" transform="translate(51 164) rotate(90)" fill="#279af4"/>
    <path id="Path_9373" data-name="Path 9373" d="M-3311.781,2127.286l34.7,20.1,47.955,27.78h-77.242s-5.455-.862-5.417-7.241S-3311.781,2127.286-3311.781,2127.286Z" transform="translate(3322 -1893)" fill="#027ff5"/>
    <path id="Path_9375" data-name="Path 9375" d="M-3227,2061l-31.429,26.819,31.429,88.657-43.835-91.908Z" transform="translate(3322 -1893)" fill="#037ee0"/>
    <path id="Path_9376" data-name="Path 9376" d="M-3304.944,2061.441l34.565,23.012,43.044-23.5Z" transform="translate(3322 -1893)" fill="#1792f2"/>
  </g>
</svg>
