<svg xmlns="http://www.w3.org/2000/svg" width="73.884" height="74.046" viewBox="0 0 73.884 74.046">
  <g id="Group_3774" data-name="Group 3774" transform="translate(-18.032 -178.655)">
    <g id="Group_3764" data-name="Group 3764" transform="translate(0 -11)">
      <g id="Group_2327" data-name="Group 2327" transform="translate(-283.802 1992.19)">
        <g id="Group_2309" data-name="Group 2309" transform="translate(301.834 -1802.535)">
          <path id="Path_3286" data-name="Path 3286" d="M26.608,0c5.345,0,11.573,0,15.844,2.78,7.179,4.675,10.742,14.468,10.742,23.806,0,8.134-2.567,19.888-8.4,24.829-4.557,3.862-11.64,1.758-18.188,1.758-8.6,0-18.761.29-23.694-6.146C-.445,42.645.022,32.665.022,26.586c0-5.227.224-12.964,2.892-17.174C7.565,2.075,17.152,0,26.608,0Z" transform="matrix(0.839, 0.545, -0.545, 0.839, 29.271, 0)" fill="#fff"/>
          <g id="Group_2303" data-name="Group 2303" transform="translate(1.941 4.224)">
            <g id="Group_2307" data-name="Group 2307" transform="translate(0 0)">
              <path id="Path_3284" data-name="Path 3284" d="M3.766,0C4.93,0,7.457.2,8.238,1.142c.453.54-.706,1.709-.706,2.624A3.766,3.766,0,1,1,3.766,0Z" transform="matrix(-0.208, -0.978, 0.978, -0.208, 63.67, 55.701)" fill="#fff"/>
              <path id="Path_3285" data-name="Path 3285" d="M2.248.006A1.648,1.648,0,1,1,.6,1.654C.6,1.328-.2.65.048.272.255-.064,1.664.006,2.248.006Z" transform="matrix(-0.574, 0.819, -0.819, -0.574, 4.938, 45.243)" fill="#fff"/>
              <path id="Path_3283" data-name="Path 3283" d="M4,0A4.026,4.026,0,1,1,4,8.053c-1.161,0-2.717,1.252-3.536.372-.588-.626-.49-3.336-.49-4.4A4.026,4.026,0,0,1,4,0Z" transform="translate(58.095 0.891)" fill="#fff"/>
              <path id="Path_3282" data-name="Path 3282" d="M2.824,0A2.824,2.824,0,0,1,5.649,2.824c0,.724.1,2.929-.444,3.535-.416.47-1.544-.711-2.38-.711A2.824,2.824,0,0,1,0,2.824,2.92,2.92,0,0,1,.585,1.1,2.752,2.752,0,0,1,2.824,0Z" transform="translate(10.536)" fill="#fff"/>
            </g>
          </g>
        </g>
      </g>
    </g>
  </g>
</svg>
