<svg xmlns="http://www.w3.org/2000/svg" viewBox="0 0 18.28 19.86"><title>bill</title><g id="Layer_2" data-name="Layer 2"><g id="Layer_1-2" data-name="Layer 1"><g id="wallet"><path id="Path_360" data-name="Path 360" d="M17.25,8.64h-.44V5.33a2.24,2.24,0,0,0-1.93-2.45h-.4V1.65A1.52,1.52,0,0,0,13.18,0H1.59A1.83,1.83,0,0,0,0,2V18.21a1.5,1.5,0,0,0,1.3,1.65H14.88a2.25,2.25,0,0,0,1.94-2.45V14.1h.43a1.19,1.19,0,0,0,1-1.29V9.93A1.18,1.18,0,0,0,17.25,8.64ZM1.59,1.14H13.18a.46.46,0,0,1,.4.5V2.88h-12A.9.9,0,0,1,1,1.78a.88.88,0,0,1,.64-.64ZM15.91,17.4a1.19,1.19,0,0,1-1,1.31H1.31a.46.46,0,0,1-.4-.51V3.82A1.27,1.27,0,0,0,1.6,4H14.88a1.19,1.19,0,0,1,1,1.31V8.64H12.85a1.17,1.17,0,0,0-1,1.29v2.88a1.18,1.18,0,0,0,1,1.29h3.06Zm1.46-4.6a.15.15,0,0,1-.12.16h-4.4a.14.14,0,0,1-.12-.16V9.92a.13.13,0,0,1,.12-.15h4.4a.15.15,0,0,1,.12.15Z" style="fill:#fff"/></g></g></g></svg>