<svg xmlns="http://www.w3.org/2000/svg" viewBox="0 0 24.97 23.52"><title>blokir_driver</title><g id="Layer_2" data-name="Layer 2"><g id="Layer_1-2" data-name="Layer 1"><g id="Group_1110" data-name="Group 1110"><g id="Group_1120" data-name="Group 1120"><path id="Subtraction_13" data-name="Subtraction 13" d="M17.44,23H.85A.85.85,0,0,1,0,22.19v0a8.13,8.13,0,0,1,8.12-8.12h7.94a8.06,8.06,0,0,1,2.7.46,5.09,5.09,0,0,0-1.87,1.3,5.69,5.69,0,0,0-.83-.05H8.12a6.41,6.41,0,0,0-6.35,5.55H16.1A5.06,5.06,0,0,0,17.44,23ZM12,12.92a6.46,6.46,0,1,1,6.48-6.47A6.46,6.46,0,0,1,12,12.92ZM12,1.69a4.76,4.76,0,1,0,4.77,4.76A4.76,4.76,0,0,0,12,1.69Z" style="fill:#4281c3"/><path id="ban" d="M20.6,14.78A4.37,4.37,0,1,0,25,19.15,4.38,4.38,0,0,0,20.6,14.78Zm0,1.1a3.21,3.21,0,0,1,1.91.6l-4.59,4.58a3.29,3.29,0,0,1,2.68-5.18Zm0,6.55a3.35,3.35,0,0,1-1.91-.6l4.58-4.59a3.3,3.3,0,0,1-.79,4.59A3.33,3.33,0,0,1,20.6,22.43Z" style="fill:#ed1e24"/></g></g></g></g></svg>