<svg xmlns="http://www.w3.org/2000/svg" viewBox="0 0 44.45 21"><title>box</title><g id="Layer_2" data-name="Layer 2"><g id="Layer_1-2" data-name="Layer 1"><g id="pick_up_box" data-name="pick up box"><path id="Path_1428" data-name="Path 1428" d="M2.33,18.46H9.57l.56-.59s.36-4.34-4.15-4.34S1.7,18,1.7,18Z" style="fill:#3a3a3a"/><path id="Path_1429" data-name="Path 1429" d="M2.37,18.71S.09,18.86.09,17.54V17a.16.16,0,0,1,.16-.17h0a.18.18,0,0,0,.19-.19h0v-.48a.19.19,0,0,0-.18-.19h0A.25.25,0,0,1,0,15.69v-.94a.25.25,0,0,1,.22-.27h0a.06.06,0,0,0,.07,0v-.38a.21.21,0,0,1,.21-.21h0v-.31a1.71,1.71,0,0,1,.19-.8c.4-.82,1.4-2.64,2.53-3.06l1-.27s.55-.65.8-.65A34,34,0,0,1,9,4.51s.13-.38.46-.38A.59.59,0,0,1,10,3.69,6.4,6.4,0,0,1,13.3,2.58c1.76-.15,3.94-.17,4.66-.19a.25.25,0,0,1,.25.25V17.85h0a.25.25,0,0,1,.25.25v.28a.25.25,0,0,1-.25.25H9.57s.37-4.54-3.49-4.54C1.68,14.09,2.37,18.71,2.37,18.71Z" style="fill:#f1f2f2"/><path id="Path_1430" data-name="Path 1430" d="M17,10.11v1.43L7.3,10.19Z" style="fill:#fff"/><path id="Path_1431" data-name="Path 1431" d="M18.21,17.89H9.57q0,.39,0,.78h8.64a.25.25,0,0,0,.25-.25v-.28A.28.28,0,0,0,18.21,17.89Z" style="fill:#333332"/><path id="Path_1432" data-name="Path 1432" d="M7.3,9.4A15.57,15.57,0,0,1,9.59,6.12c1.4-1.51,2.12-1.86,3.29-2a35.43,35.43,0,0,1,3.63-.17.34.34,0,0,1,.34.33v0l-.32,3.16a2,2,0,0,1-1.87,1.83L8,9.77H7.55a.25.25,0,0,1-.25-.23V9.4Z" style="fill:#434343"/><path id="Path_1433" data-name="Path 1433" d="M16.47,4.87l-.3,2.52a1.7,1.7,0,0,1-1.59,1.48l-5.37.27a.7.7,0,0,1-.72-.68.71.71,0,0,1,.07-.32,9,9,0,0,1,1.59-2.23c1.35-1.32,1.62-1.36,2.42-1.57a25.5,25.5,0,0,1,3.81-.13.13.13,0,0,1,.13.13v0Z" style="fill:#010101"/><path id="Path_1434" data-name="Path 1434" d="M8.46,7.78V7.4a.31.31,0,0,1,.1-.25L8.72,7A.39.39,0,0,1,9,6.88h.45a.25.25,0,0,1,.25.25V8.6a.25.25,0,0,1-.25.25H8.69a.26.26,0,0,1-.26-.25V8.29H8.35a.24.24,0,0,1-.23-.24h0a.24.24,0,0,1,.19-.23Z" style="fill:#231f20;stroke:#231f20;stroke-miterlimit:10;stroke-width:0.25px"/><path id="Path_1435" data-name="Path 1435" d="M17.47,17.91H10.09v0a6.19,6.19,0,0,0-.42-2,3.41,3.41,0,0,0-2.75-2.26h0V9.33h0A20.11,20.11,0,0,1,8.7,6.57,7.25,7.25,0,0,1,12.48,3.8c.94-.17,3.8-.3,4.66-.32a.35.35,0,0,1,.23.09.3.3,0,0,1,.08.21V17.91Zm-7.34,0h7.3V3.77a.21.21,0,0,0-.08-.19.27.27,0,0,0-.19-.08c-.86,0-3.71.15-4.66.31A7.28,7.28,0,0,0,8.75,6.58,21.67,21.67,0,0,0,7,9.33v4.3a3.33,3.33,0,0,1,1.82.84,4,4,0,0,1,1,1.45,5.67,5.67,0,0,1,.41,2Z" style="fill:#cfcfce"/><path id="Path_1436" data-name="Path 1436" d="M.86,13.57v-.06a1.19,1.19,0,0,1,.32-.78l.25-.25A1.76,1.76,0,0,1,2.71,12h1a.39.39,0,0,1,.4.4.42.42,0,0,1,0,.16l-.36.72a1.2,1.2,0,0,1-1.07.65H1.18A.34.34,0,0,1,.86,13.57Z" style="fill:#fff"/><path id="Path_1437" data-name="Path 1437" d="M3.71,11.94H3.44c-.1.21-.23.42-.33.65-.19.44-.4.86-.61,1.3h.14a1.25,1.25,0,0,0,1.07-.65l.36-.72A.4.4,0,0,0,3.9,12,.3.3,0,0,0,3.71,11.94Z" style="fill:#f79520"/><path id="Path_1438" data-name="Path 1438" d="M2.81,12l0,0a7.43,7.43,0,0,1,1.34-2,12.15,12.15,0,0,1,1.74-.65H6.92v0H5.85A10,10,0,0,0,4.13,10,6.71,6.71,0,0,0,2.81,12Z" style="fill:#cfcfce"/><path id="Path_1439" data-name="Path 1439" d="M18.19,17.62,25.78,17a.06.06,0,0,1,.06.05h0V18l.55.55h.42l.5-.46V17.7h1.93l5.93-.61,4.09-.35,1.28-.82a.38.38,0,0,1,.23-.06h1.6a.37.37,0,0,0,.36-.35h0v-.75H18.19Z" style="fill:#434343"/><line id="Line_18" data-name="Line 18" x1="2.33" y1="18.46" x2="2.94" y2="18.46" style="fill:none;stroke:#231f20;stroke-miterlimit:10;stroke-width:0.25px"/><line id="Line_19" data-name="Line 19" x1="9.04" y1="18.46" x2="9.57" y2="18.46" style="fill:none;stroke:#231f20;stroke-miterlimit:10;stroke-width:0.25px"/><path id="Path_1440" data-name="Path 1440" d="M18.19,16.91,21,15.82h3.67L25.87,17v1l.52.55h.42l.46-.46V16.43l.61-.61H39.56l1.33-1.09H25l-.26.25H21.12l-2.87,1.07Z" style="fill:#333"/><path id="Path_1441" data-name="Path 1441" d="M5.08,8.79l.77.27v.28" style="fill:#cfcfce"/><path id="Path_1442" data-name="Path 1442" d="M4.93,9.65a2.6,2.6,0,0,0-.65-.21v0A4,4,0,0,1,5,9.61Z" style="fill:#cfcfce"/><path id="Path_1443" data-name="Path 1443" d="M10.78,4.17H9.44l0,0h1.32a5.51,5.51,0,0,1,2.29-.77c1.3-.13,5.1-.19,5.14-.19v0s-3.84,0-5.12.19A5.15,5.15,0,0,0,10.78,4.17Z" style="fill:#cfcfce"/><path id="Path_1444" data-name="Path 1444" d="M27,18.29h-.48l-.47-.48v-.92l-1.23-1.24v-.5l.42-.42h2.7v1.09h-.06l-.61.61V18Z" style="fill:#4f4f4f"/><path id="Path_1445" data-name="Path 1445" d="M21.56,15.19h-.23l-.12.21.12.21h.23l.13-.21Z" style="fill:#4f4f4f"/><path id="Path_1446" data-name="Path 1446" d="M24,15.19h-.23l-.13.21.13.21H24l.1-.21Z" style="fill:#4f4f4f"/><path id="Path_1447" data-name="Path 1447" d="M26.89,15.19h-.25l-.1.21.1.21h.25l.1-.21Z" style="fill:#434343"/><path id="Path_1448" data-name="Path 1448" d="M19.91,15.67h-.23l-.13.21.13.21h.23l.12-.21Z" style="fill:#4f4f4f"/><path id="Path_1449" data-name="Path 1449" d="M26.51,18.29v-2L26,15.77h-1l1.11,1.12v.92Z" style="fill:#434343"/><path id="Path_1450" data-name="Path 1450" d="M18.19,16.26h.54a.23.23,0,0,0,.17-.07l.46-.46a.2.2,0,0,0,.06-.17v-.83H29.53l-1.4,1.51a.12.12,0,0,0,0,.17l.08,0h.48a.14.14,0,0,0,.08-.05l1.58-1.67h3.58l1.58,1.67a.14.14,0,0,0,.08.05h.48a.13.13,0,0,0,.13-.12.13.13,0,0,0,0-.09l-1.4-1.51h8.58a.27.27,0,0,0,.25-.26V.25A.26.26,0,0,0,43.34,0h-24a.25.25,0,0,0-.25.25V14h-.88" style="fill:#cfcfce"/><path id="Path_1451" data-name="Path 1451" d="M35.81,15.84h5.07" style="fill:none;stroke:#231f20;stroke-miterlimit:10;stroke-width:0.25px"/><path id="Path_1452" data-name="Path 1452" d="M16.49,9.94h-.84a.57.57,0,0,0-.55.55h0a.55.55,0,0,0,.55.54h.84a.54.54,0,0,0,.54-.54h0A.55.55,0,0,0,16.49,9.94Z" style="fill:#5b5f60"/><ellipse id="Ellipse_117" data-name="Ellipse 117" cx="16.09" cy="10.49" rx="0.67" ry="0.44" style="fill:#231f20;stroke:#231f20;stroke-miterlimit:10;stroke-width:0.25px"/><path id="Path_1453" data-name="Path 1453" d="M16.59,10.59h-1a.1.1,0,0,1-.1-.1h0a.11.11,0,0,1,.1-.1h1a.11.11,0,0,1,.1.1h0A.12.12,0,0,1,16.59,10.59Z" style="fill:#5b5f60"/><path id="Path_1454" data-name="Path 1454" d="M2.37,18.71S.09,18.86.09,17.54V17a.15.15,0,0,1,.15-.17h0a.15.15,0,0,0,.13-.07.14.14,0,0,0,.06-.12v-.48a.18.18,0,0,0-.18-.19h0A.26.26,0,0,1,0,15.69v-.94a.26.26,0,0,1,.22-.28h0l0,0s0,0,0,0v-.36a.18.18,0,0,1,.1-.16H2.69a1.26,1.26,0,0,0,.65-.19l.52,1C2,15.92,2.37,18.71,2.37,18.71Z" style="fill:#a8a9ac"/><path id="Path_1455" data-name="Path 1455" d="M2.39,17.16a6.18,6.18,0,0,0,0,1.55S.06,18.86.06,17.52V17a.18.18,0,0,1,.17-.17h0a.14.14,0,0,0,.13-.06.09.09,0,0,0,.06-.09A3.21,3.21,0,0,0,2.39,17.16Z" style="fill:#333332"/><rect id="Rectangle_236" data-name="Rectangle 236" x="19.8" y="0.82" width="22.95" height="13.17" style="fill:#f1f2f2"/><rect id="Rectangle_237" data-name="Rectangle 237" x="19.8" y="13.99" width="22.95" height="0.02" style="fill:#a8a9ac"/><rect id="Rectangle_238" data-name="Rectangle 238" x="19.07" y="0.82" width="24.52" height="0.02" style="fill:#a8a9ac"/><path id="Path_1456" data-name="Path 1456" d="M2.64,13.91H1.18a.34.34,0,0,1-.34-.33h0v0a1.12,1.12,0,0,1,.34-.78l.25-.25A1.8,1.8,0,0,1,2.71,12h1a.34.34,0,0,1,.34.19.38.38,0,0,1,0,.4l-.36.71A1.19,1.19,0,0,1,2.64,13.91ZM2.71,12a1.7,1.7,0,0,0-1.26.52l-.25.25a1.1,1.1,0,0,0-.32.78v0a.34.34,0,0,0,.32.32H2.67a1.17,1.17,0,0,0,1-.65l.36-.72a.35.35,0,0,0,0-.38A.37.37,0,0,0,3.71,12Z" style="fill:#cfcfce"/><rect id="Rectangle_239" data-name="Rectangle 239" x="19.78" y="0.82" width="0.02" height="13.17" style="fill:#a8a9ac"/><rect id="Rectangle_240" data-name="Rectangle 240" x="42.75" y="0.82" width="0.02" height="13.91" style="fill:#a8a9ac"/><rect id="Rectangle_241" data-name="Rectangle 241" x="19.8" y="12.5" width="22.95" height="0.02" style="fill:#a8a9ac"/><rect id="Rectangle_242" data-name="Rectangle 242" x="19.8" y="10.82" width="22.95" height="0.02" style="fill:#a8a9ac"/><rect id="Rectangle_243" data-name="Rectangle 243" x="19.8" y="9.15" width="22.95" height="0.02" style="fill:#a8a9ac"/><rect id="Rectangle_244" data-name="Rectangle 244" x="19.8" y="7.47" width="22.95" height="0.02" style="fill:#a8a9ac"/><rect id="Rectangle_245" data-name="Rectangle 245" x="19.8" y="5.79" width="22.95" height="0.02" style="fill:#a8a9ac"/><rect id="Rectangle_246" data-name="Rectangle 246" x="19.8" y="4.11" width="22.95" height="0.02" style="fill:#a8a9ac"/><path id="Path_1457" data-name="Path 1457" d="M18.19,17.07H11.31a.07.07,0,0,1-.09-.07.06.06,0,0,1,0-.07l.24-.23a.32.32,0,0,1,.25-.1h6.46" style="fill:#cfcfce"/><rect id="Rectangle_247" data-name="Rectangle 247" x="19.8" y="2.43" width="22.95" height="0.02" style="fill:#a8a9ac"/><g id="Group_386" data-name="Group 386"><rect id="Rectangle_248" data-name="Rectangle 248" x="43.92" y="1.24" width="0.21" height="12.48" style="fill:#cfcfce"/><rect id="Rectangle_249" data-name="Rectangle 249" x="43.59" y="1.24" width="0.34" height="0.34" style="fill:#b3b3b3"/><rect id="Rectangle_250" data-name="Rectangle 250" x="43.59" y="5.5" width="0.34" height="0.34" style="fill:#b3b3b3"/><rect id="Rectangle_251" data-name="Rectangle 251" x="43.59" y="8.5" width="0.34" height="0.34" style="fill:#b3b3b3"/><path id="Path_1458" data-name="Path 1458" d="M44.11,8.83h.17a.17.17,0,0,0,.17-.16h0a.16.16,0,0,0-.16-.16h-.18Z" style="fill:#b3b3b3"/><rect id="Rectangle_252" data-name="Rectangle 252" x="43.59" y="10.53" width="0.34" height="0.34" style="fill:#b3b3b3"/><rect id="Rectangle_253" data-name="Rectangle 253" x="43.59" y="13.38" width="0.34" height="0.34" style="fill:#b3b3b3"/><path id="Path_1459" data-name="Path 1459" d="M44.39,8.83v.78h-.13V8.83" style="fill:#b3b3b3"/><path id="Path_1460" data-name="Path 1460" d="M44.32,10h0a.15.15,0,0,0,.13-.13V9.73a.14.14,0,0,0-.13-.12h0a.12.12,0,0,0-.12.12V9.9A.13.13,0,0,0,44.32,10Z" style="fill:#b3b3b3"/></g><path id="Path_1461" data-name="Path 1461" d="M9.36,4.36a.46.46,0,0,0-.42.21c-.59.78-3.07,3.36-3.82,4.14a.21.21,0,0,0,0,.29l.06,0,.67.27.46-.1a18,18,0,0,1,4.4-4.8Z" style="fill:#434343"/><path id="Path_1462" data-name="Path 1462" d="M9,4.53h1.36A16.27,16.27,0,0,0,6.32,9l-.44.1L5.1,8.76A27.29,27.29,0,0,1,9,4.53Z" style="fill:#010101"/><g id="Group_389" data-name="Group 389"><circle id="Ellipse_118" data-name="Ellipse 118" cx="32.16" cy="17.96" r="3.04" style="fill:#232323"/><circle id="Ellipse_119" data-name="Ellipse 119" cx="32.16" cy="17.96" r="2.06" style="fill:#bfbfbf"/><circle id="Ellipse_120" data-name="Ellipse 120" cx="32.16" cy="17.96" r="1.62" style="fill:#e6e7e8"/><g id="Group_387" data-name="Group 387"><path id="Path_1463" data-name="Path 1463" d="M31.23,18.52a1.86,1.86,0,0,1-.1-.25.12.12,0,0,0-.1-.08h-.19a.09.09,0,0,0-.1.1v0a2.34,2.34,0,0,0,.19.46.14.14,0,0,0,.19,0h0l.15-.15a.28.28,0,0,0,0-.15Z" style="fill:#434856"/><path id="Path_1464" data-name="Path 1464" d="M31.11,17.68a.77.77,0,0,1,.1-.25.16.16,0,0,0,0-.15L31,17.13a.12.12,0,0,0-.17,0l0,0a1.55,1.55,0,0,0-.19.48.12.12,0,0,0,.1.14H31C31.05,17.79,31.11,17.75,31.11,17.68Z" style="fill:#434856"/><path id="Path_1465" data-name="Path 1465" d="M32.37,16.59v.19s0,.1.08.1a.57.57,0,0,1,.27.13.16.16,0,0,0,.15,0l.15-.15a.12.12,0,0,0,0-.17s0,0,0,0a2.13,2.13,0,0,0-.49-.21A.17.17,0,0,0,32.37,16.59Z" style="fill:#434856"/><path id="Path_1466" data-name="Path 1466" d="M31.61,17l.28-.13a.14.14,0,0,0,.08-.1v-.19a.12.12,0,0,0-.1-.11h-.05a1.46,1.46,0,0,0-.48.21.13.13,0,0,0,0,.19h0l.15.15A.32.32,0,0,0,31.61,17Z" style="fill:#434856"/><path id="Path_1467" data-name="Path 1467" d="M32.7,18.9l-.25.1a.14.14,0,0,0-.08.1v.19a.1.1,0,0,0,.1.11h0A1.34,1.34,0,0,0,33,19.2.12.12,0,0,0,33,19l0,0-.14-.13A.19.19,0,0,0,32.7,18.9Z" style="fill:#434856"/><path id="Path_1468" data-name="Path 1468" d="M33.12,17.43a1.09,1.09,0,0,1,.1.25.12.12,0,0,0,.1.09h.19a.11.11,0,0,0,.11-.11.06.06,0,0,0,0,0,1.66,1.66,0,0,0-.19-.48.12.12,0,0,0-.16-.05l0,0-.14.14a.47.47,0,0,0,0,.17Z" style="fill:#434856"/><path id="Path_1469" data-name="Path 1469" d="M31.88,19a.77.77,0,0,1-.25-.1.14.14,0,0,0-.15,0l-.14.14a.12.12,0,0,0,0,.17l0,0a1.34,1.34,0,0,0,.44.19.11.11,0,0,0,.14-.08v-.22A.12.12,0,0,0,31.88,19Z" style="fill:#434856"/><path id="Path_1470" data-name="Path 1470" d="M33.21,18.27a1.86,1.86,0,0,1-.1.25.12.12,0,0,0,0,.15l.14.15a.15.15,0,0,0,.19,0,1.6,1.6,0,0,0,.19-.47.12.12,0,0,0-.09-.14h-.21C33.27,18.19,33.23,18.21,33.21,18.27Z" style="fill:#434856"/></g><g id="Group_388" data-name="Group 388"><circle id="Ellipse_121" data-name="Ellipse 121" cx="31.72" cy="17.87" r="0.21" style="fill:#434856"/><circle id="Ellipse_122" data-name="Ellipse 122" cx="31.88" cy="18.38" r="0.21" style="fill:#434856"/><circle id="Ellipse_123" data-name="Ellipse 123" cx="32.45" cy="18.38" r="0.21" style="fill:#434856"/><circle id="Ellipse_124" data-name="Ellipse 124" cx="32.62" cy="17.87" r="0.21" style="fill:#434856"/><circle id="Ellipse_125" data-name="Ellipse 125" cx="32.16" cy="17.54" r="0.21" style="fill:#434856"/></g></g><g id="Group_392" data-name="Group 392"><circle id="Ellipse_126" data-name="Ellipse 126" cx="5.9" cy="17.96" r="3.04" style="fill:#232323"/><circle id="Ellipse_127" data-name="Ellipse 127" cx="5.9" cy="17.96" r="2.06" style="fill:#bfbfbf"/><circle id="Ellipse_128" data-name="Ellipse 128" cx="5.9" cy="17.96" r="1.62" style="fill:#e6e7e8"/><g id="Group_390" data-name="Group 390"><path id="Path_1471" data-name="Path 1471" d="M5,18.52a1.86,1.86,0,0,1-.1-.25.12.12,0,0,0-.1-.08H4.58c-.06,0-.1,0-.1.1s0,0,0,0a1.86,1.86,0,0,0,.19.46.14.14,0,0,0,.19,0h0L5,18.67A.28.28,0,0,0,5,18.52Z" style="fill:#434856"/><path id="Path_1472" data-name="Path 1472" d="M4.85,17.68a.77.77,0,0,1,.1-.25.14.14,0,0,0,0-.15l-.14-.15a.12.12,0,0,0-.17,0,0,0,0,0,0,0,0,1.47,1.47,0,0,0-.19.49.12.12,0,0,0,.09.14h.2a.13.13,0,0,0,.15-.1Z" style="fill:#434856"/><path id="Path_1473" data-name="Path 1473" d="M6.08,16.59v.19a.12.12,0,0,0,.09.1.57.57,0,0,1,.27.13.16.16,0,0,0,.15,0l.15-.15a.12.12,0,0,0,0-.17l0,0a2.06,2.06,0,0,0-.48-.21C6.17,16.47,6.08,16.53,6.08,16.59Z" style="fill:#434856"/><path id="Path_1474" data-name="Path 1474" d="M5.33,17l.27-.13a.13.13,0,0,0,.09-.1v-.19a.12.12,0,0,0-.11-.11h0a1.38,1.38,0,0,0-.48.21.13.13,0,0,0,0,.19H5l.14.15A.4.4,0,0,0,5.33,17Z" style="fill:#434856"/><path id="Path_1475" data-name="Path 1475" d="M6.42,18.9l-.25.1a.15.15,0,0,0-.09.1v.19a.11.11,0,0,0,.11.11h0a1.34,1.34,0,0,0,.44-.19.11.11,0,0,0,0-.16l0,0-.14-.13A.27.27,0,0,0,6.42,18.9Z" style="fill:#434856"/><path id="Path_1476" data-name="Path 1476" d="M6.84,17.43a1.86,1.86,0,0,1,.1.25.12.12,0,0,0,.1.09h.19a.11.11,0,0,0,.11-.11s0,0,0,0a2,2,0,0,0-.19-.48A.12.12,0,0,0,7,17.09l0,0-.13.14A.32.32,0,0,0,6.84,17.43Z" style="fill:#434856"/><path id="Path_1477" data-name="Path 1477" d="M5.62,19a.77.77,0,0,1-.25-.1.14.14,0,0,0-.15,0l-.15.14a.12.12,0,0,0,0,.17s0,0,0,0a1.34,1.34,0,0,0,.44.19.11.11,0,0,0,.14-.08v-.22A.12.12,0,0,0,5.62,19Z" style="fill:#434856"/><path id="Path_1478" data-name="Path 1478" d="M6.94,18.27a.77.77,0,0,1-.1.25.14.14,0,0,0,0,.15l.14.15a.15.15,0,0,0,.19,0,1.6,1.6,0,0,0,.19-.47.12.12,0,0,0-.09-.14H7.09A.14.14,0,0,0,6.94,18.27Z" style="fill:#434856"/></g><g id="Group_391" data-name="Group 391"><circle id="Ellipse_129" data-name="Ellipse 129" cx="5.43" cy="17.87" r="0.21" style="fill:#434856"/><circle id="Ellipse_130" data-name="Ellipse 130" cx="5.6" cy="18.38" r="0.21" style="fill:#434856"/><circle id="Ellipse_131" data-name="Ellipse 131" cx="6.19" cy="18.38" r="0.21" style="fill:#434856"/><circle id="Ellipse_132" data-name="Ellipse 132" cx="6.36" cy="17.87" r="0.21" style="fill:#434856"/><circle id="Ellipse_133" data-name="Ellipse 133" cx="5.9" cy="17.54" r="0.21" style="fill:#434856"/></g></g></g></g></g></svg>