<svg xmlns="http://www.w3.org/2000/svg" xmlns:xlink="http://www.w3.org/1999/xlink" viewBox="0 0 49.1 36.02"><defs><clipPath id="clip-path"><rect x="16.21" y="24.17" width="5.38" height="5.77" style="fill:none"/></clipPath></defs><title>box_delivered</title><g id="Layer_2" data-name="Layer 2"><g id="Layer_1-2" data-name="Layer 1"><g id="Group_3080" data-name="Group 3080"><g id="Group_2739" data-name="Group 2739"><g id="Group_2035" data-name="Group 2035"><g id="Group_2030" data-name="Group 2030"><g id="Group_2031" data-name="Group 2031"><g id="Group_2021" data-name="Group 2021"><g id="g388"><g id="Group_2015" data-name="Group 2015"><g id="g404"><path id="path406" d="M31.78,8.45,49.05,3.81V29L32,36Z" style="fill:#2f76bc"/></g></g></g><g id="g384"><path id="path386" d="M32,8.62,15,3.81V29L32,36Z" style="fill:#4281c3"/></g></g><g id="g5384"><g id="g5398"><g style="clip-path:url(#clip-path)"><g id="g5396" style="opacity:0.8999999761581421"><g id="g5394"><path id="path5392" d="M21.59,29.94,16.21,27.7V24.17l5.38,2.23Z" style="fill:#fff"/></g></g></g></g></g></g></g><g id="g5400"><path id="path5402" d="M19.83,28.33h0V26l0,0Zm-.16-.07.08,0V26l-.08,0Zm-.3-.13.21.09V25.9l-.21-.09Zm-.26-.1.17.07V25.77l-.17-.07Zm1.23.5.08,0V26.24l-.08,0Zm.16.07.22.09V26.37l-.22-.09Zm.3.13.17.07V26.47l-.17-.07ZM20,28.38l.17.07V26.12L20,26.05Zm.25.1,0,0V26.17h0ZM18.94,28,19,28V25.67l-.09,0Zm2.12-1.45v2.76l.08,0V26.54Zm-4,.67.21.09V25l-.21-.09Zm.3.13.08,0V25l-.08,0Zm.16.07h0V25.07l0,0Zm-.72-.3.17.07V24.82l-.17-.07Zm-.17.36.08,0V24.72l-.08,0Zm1.4.15.08,0V25.29l-.09,0Zm-.38-.16.17.07V25.17l-.17-.07Zm.84.35.17.07V25.53l-.17-.07Zm-.3-.13.22.09V25.42l-.22-.09Zm.56.23.08,0V25.6l-.08,0Zm-.85-.35,0,0V25.22h0Z" style="fill:#373535"/></g></g><path id="Path_1303" data-name="Path 1303" d="M15,3.84l17.2,4.94,17-4.94L32.15,0Z" style="fill:#5096d1"/><path id="Path_1304" data-name="Path 1304" d="M22.4,8.62l2.78.77V6.81L40.41,1.86l-2.5-.62L22.4,5.91Z" style="fill:#fece9d"/><path id="Path_1305" data-name="Path 1305" d="M21.18,31.5V28L24,29.12v3.55Z" style="fill:#fece9d"/></g><g id="Group_2740" data-name="Group 2740"><line id="Line_19" data-name="Line 19" x1="2.5" y1="11.91" x2="16.5" y2="11.91" style="fill:none;stroke:#fff;stroke-linecap:round"/><line id="Line_20" data-name="Line 20" x1="8.5" y1="18.91" x2="22.5" y2="18.91" style="fill:none;stroke:#fff;stroke-linecap:round"/><line id="Line_21" data-name="Line 21" x1="0.5" y1="26.91" x2="14.5" y2="26.91" style="fill:none;stroke:#fff;stroke-linecap:round"/></g></g></g></g></svg>