<svg xmlns="http://www.w3.org/2000/svg" viewBox="0 0 11.48 11.7"><title>box_solid</title><g id="Layer_2" data-name="Layer 2"><g id="Layer_1-2" data-name="Layer 1"><path id="Path_335" data-name="Path 335" d="M11.46,2.26v0L5.74,0,0,2.26H0V9.45L5.74,11.7l5.74-2.25V2.25ZM5.74.44l1.94.7L2.38,3.19l-1.8-.7ZM5.54,11.2l-2.15-.87L2.31,9.92.41,9.18V2.86l1.88.74V5.18l.17,0,.11.16.16,0,.15.16.13,0,.22.21V4L3.39,4l2.15.85V11.2Zm.2-6.68-2.1-.83L8.81,1.6l2.13.87Zm5.33,4.65-5.13,2V4.88l5.13-2V9.18Z" style="fill:#4281c3"/></g></g></svg>