<svg xmlns="http://www.w3.org/2000/svg" xmlns:xlink="http://www.w3.org/1999/xlink" viewBox="0 0 19.43 20.49"><defs><clipPath id="clip-path"><rect x="0.72" y="13.75" width="3.06" height="3.28" style="fill:none"/></clipPath></defs><title>box_angkut</title><g id="Layer_2" data-name="Layer 2"><g id="Layer_1-2" data-name="Layer 1"><g id="Group_2035" data-name="Group 2035"><g id="Group_2035-2" data-name="Group 2035-2"><g id="Group_2030" data-name="Group 2030"><g id="Group_2031" data-name="Group 2031"><g id="Group_2021" data-name="Group 2021"><g id="g388"><g id="Group_2015" data-name="Group 2015"><g id="g404"><path id="path406" d="M9.58,4.81,19.4,2.17v14.3l-9.67,4Z" style="fill:#2f76bc"/></g></g></g><g id="g384"><path id="path386" d="M9.73,4.91.05,2.17v14.3l9.68,4Z" style="fill:#4281c3"/></g></g><g id="g5384"><g id="g5398"><g style="clip-path:url(#clip-path)"><g id="g5396" style="opacity:0.8999999761581421"><g id="g5394"><path id="path5392" d="M3.78,17,.72,15.76v-2L3.78,15Z" style="fill:#fff"/></g></g></g></g></g></g></g><g id="g5400"><path id="path5402" d="M2.78,16.12h0V14.8h0Zm-.1,0,0,0V14.77l0,0ZM2.51,16l.12,0V14.73l-.12-.05ZM2.36,16l.1,0V14.66l-.1,0Zm.7.29h0V14.93l0,0Zm.1,0,.12,0V15L3.16,15Zm.17.07.1,0V15.06l-.1,0Zm-.48-.2.1,0V14.86l-.1,0Zm.15.06H3V14.89H3Zm-.72-.3,0,0V14.6l0,0Zm1.2-.83v1.57l0,0V15.1Zm-2.27.39.12,0V14.2l-.12,0Zm.17.07.05,0V14.24l-.05,0Zm.11,0h0V14.27h0Zm-.42-.17.1,0V14.13l-.1,0Zm-.1.21H1V14.06H1Zm.8.08,0,0V14.39l0,0Zm-.22-.09.1,0V14.33l-.1,0Zm.48.2.1,0V14.53l-.1,0Zm-.17-.07.12,0V14.46l-.12-.05Zm.32.13,0,0V14.56l0,0Zm-.48-.2h0V14.35h0Z" style="fill:#373535"/></g></g><path id="Path_1303" data-name="Path 1303" d="M0,2.19,9.79,5l9.64-2.81L9.79,0Z" style="fill:#5096d1"/><path id="Path_1304" data-name="Path 1304" d="M4.24,4.91l1.58.44V3.87l8.67-2.81L13.06.71,4.24,3.36Z" style="fill:#fece9d"/><path id="Path_1305" data-name="Path 1305" d="M3.55,17.93V16l1.58.61v2Z" style="fill:#fece9d"/></g></g></g></svg>