<svg xmlns="http://www.w3.org/2000/svg" xmlns:xlink="http://www.w3.org/1999/xlink" viewBox="0 0 43.14 36.41"><defs><clipPath id="clip-path"><rect x="10.25" y="24.17" width="5.38" height="5.77" style="fill:none"/></clipPath></defs><title>box_received</title><g id="Layer_2" data-name="Layer 2"><g id="Layer_1-2" data-name="Layer 1"><g id="Group_2745" data-name="Group 2745"><g id="Group_2741" data-name="Group 2741"><g id="Group_2035" data-name="Group 2035"><g id="Group_2030" data-name="Group 2030"><g id="Group_2031" data-name="Group 2031"><g id="Group_2021" data-name="Group 2021"><g id="g388"><g id="Group_2015" data-name="Group 2015"><g id="g404"><path id="path406" d="M25.82,8.45,43.09,3.81V29L26.08,36Z" style="fill:#2f76bc"/></g></g></g><g id="g384"><path id="path386" d="M26.08,8.62l-17-4.81V29l17,7.07Z" style="fill:#4281c3"/></g></g><g id="g5384"><g id="g5398"><g style="clip-path:url(#clip-path)"><g id="g5396" style="opacity:0.8999999761581421"><g id="g5394"><path id="path5392" d="M15.63,29.94,10.25,27.7V24.17l5.38,2.23Z" style="fill:#fff"/></g></g></g></g></g></g></g><g id="g5400"><path id="path5402" d="M13.87,28.33h0V26l0,0Zm-.16-.07.08,0V26l-.08,0Zm-.3-.13.21.09V25.9l-.21-.09Zm-.26-.1.17.07V25.77l-.17-.07Zm1.23.5.08,0V26.24l-.08,0Zm.17.07.21.09V26.37l-.21-.09Zm.3.13.16.07V26.47l-.16-.07ZM14,28.38l.17.07V26.12L14,26.05Zm.25.1,0,0V26.17h0ZM13,28l.08,0V25.67l-.08,0Zm2.11-1.45v2.76l.08,0V26.54Zm-4,.67.21.09V25l-.21-.09Zm.3.13.08,0V25l-.08,0Zm.16.07h0V25.07l0,0Zm-.72-.3.17.07V24.82l-.17-.07Zm-.17.36.09,0V24.72l-.09,0Zm1.4.15.08,0V25.29l-.09,0Zm-.38-.16.17.07V25.17l-.17-.07Zm.84.35.17.07V25.53l-.17-.07Zm-.3-.13.22.09V25.42l-.22-.09Zm.56.23.08,0V25.6l-.08,0ZM12,27.53l0,0V25.22h0Z" style="fill:#373535"/></g></g><path id="Path_1303" data-name="Path 1303" d="M9,3.84l17.2,4.94,17-4.94L26.19,0Z" style="fill:#5096d1"/><path id="Path_1304" data-name="Path 1304" d="M16.44,8.62l2.78.77V6.81L34.45,1.86,32,1.24,16.44,5.91Z" style="fill:#fece9d"/><path id="Path_1305" data-name="Path 1305" d="M15.23,31.5V28L18,29.12v3.55Z" style="fill:#fece9d"/></g></g><g id="Group_2744" data-name="Group 2744"><g id="Group_2743" data-name="Group 2743"><path id="Path_3453" data-name="Path 3453" d="M2.11,23.86s22.65,1.88,30.47-1.7,4.55,3.6,4.55,3.6S19.78,36.54,2.64,32.3c-6-1.48.07-2.2,0-3.71C2.51,26.39,2.11,23.86,2.11,23.86Z" style="fill:#fdcd9b"/><circle id="Ellipse_295" data-name="Ellipse 295" cx="35.04" cy="23.41" r="5" style="fill:#fed5ac"/></g><g id="Group_2742" data-name="Group 2742"><rect id="Rectangle_1519" data-name="Rectangle 1519" x="0.04" y="20.41" width="10" height="16" style="fill:#35c3df"/><circle id="Ellipse_296" data-name="Ellipse 296" cx="5.04" cy="30.41" r="1" style="fill:#fff"/><circle id="Ellipse_297" data-name="Ellipse 297" cx="5.04" cy="26.41" r="1" style="fill:#fff"/></g></g></g></g></svg>