<svg xmlns="http://www.w3.org/2000/svg" xmlns:xlink="http://www.w3.org/1999/xlink" viewBox="0 0 45.48 39.25"><defs><clipPath id="clip-path"><rect x="5.68" y="0.86" width="25.53" height="13.72" style="fill:none"/></clipPath><clipPath id="clip-path-2"><polygon points="22.17 14.59 5.68 7.71 22.17 0.86 31.21 10.82 22.17 14.59" style="fill:none"/></clipPath><linearGradient id="linear-gradient" x1="-170.65" y1="-836.64" x2="-170.64" y2="-836.64" gradientTransform="matrix(25.53, 0, 0, -13.73, 4344.24, -11475.98)" gradientUnits="userSpaceOnUse"><stop offset="0" stop-color="#373535"/><stop offset="0.52" stop-color="#373535"/><stop offset="1" stop-color="#373535"/></linearGradient></defs><title>box_process</title><g id="Layer_2" data-name="Layer 2"><g id="Layer_1-2" data-name="Layer 1"><g id="Group_3086" data-name="Group 3086"><g id="Group_3085" data-name="Group 3085"><g id="Group_2401" data-name="Group 2401"><g id="Group_2358" data-name="Group 2358"><g id="Group_2031" data-name="Group 2031"><g id="Group_2021" data-name="Group 2021"><g id="g388"><g id="Group_2015" data-name="Group 2015"><g id="g396"><path id="path398" d="M5.68,7.71l16.49,6.86V.86Z" style="fill:#d2d4d5"/></g><g id="g400"><path id="path402" d="M22.17,14.59,38.66,7.71,22.17.86Z" style="fill:#dddedf"/></g><g id="g404"><path id="path406" d="M22.17,14.59,38.66,7.71V32.09L22.17,38.94Z" style="fill:#2f76bc"/></g><g id="g726"><path id="path728" d="M22.17,14.59,5.68,9.94,2,14.76l14.49,6.86Z" style="fill:#e7e8e9"/></g></g></g><g id="g384"><path id="path386" d="M22.17,14.59,5.68,7.71V32.09l16.49,6.85Z" style="fill:#4281c3"/></g><g id="g730"><path id="path732" d="M22.17,14.59,5.68,7.71,0,14.76l16.49,6.86Z" style="fill:#e7e8e9"/></g><g id="g1048"><g id="g1108"><g style="clip-path:url(#clip-path)"><g id="g1106" style="opacity:0.30000001192092896"><g id="g1104"><g style="clip-path:url(#clip-path-2)"><g id="g1102"><g id="g1100"><g id="g1098"><g id="g1096"><path id="path1094" d="M22.17,14.59,5.68,7.71,22.17.86l9,10Z" style="fill:url(#linear-gradient)"/></g></g></g></g></g></g></g></g></g></g><g id="g784"><g id="Group_2017" data-name="Group 2017"><g id="g896"><path id="path898" d="M22.17,14.42,36.43,9.77l5.3,4.64L27.85,21.23Z" style="fill:#e7e8e9"/></g><g id="g900"><path id="path902" d="M22.17,14.42,38.66,7.55l5.68,7.05L27.85,21.45Z" style="fill:#e7e8e9"/></g></g></g></g></g></g><g id="Group_2400" data-name="Group 2400"><path id="Path_3293" data-name="Path 3293" d="M25.08,33.61l.1,2.94,5.65-2.17-.1-2.8Z" style="fill:#fff"/><path id="path5402" d="M27.31,34.84h0l-.09-1.71h0Zm.17-.06-.08,0-.09-1.72.08,0Zm.29-.11-.21.08L27.47,33l.21-.07Zm.24-.09-.16.06-.09-1.71.16-.06ZM26.83,35l-.08,0-.09-1.72.08,0Zm-.17.06-.2.07-.09-1.71.2-.07Zm-.29.1-.16.06-.09-1.71.16-.06Zm.82-.3-.16.06-.09-1.71.16-.06ZM27,35h0l-.09-1.7,0,0Zm1.23-.45-.08,0L28,32.84l.08,0Zm-2.14-1,.1,2-.07,0-.11-2Zm3.94.3-.21.07-.09-1.71.21-.08Zm-.3.1-.07,0-.09-1.71.07,0Zm-.16.06,0,0-.09-1.72h0Zm.7-.26-.16.06L30,32.11l.17-.06Zm.18.27-.08,0-.1-2,.08,0ZM29,34.2l-.07,0-.09-1.71.08,0Zm.37-.13-.16.06-.09-1.72.17-.06Zm-.82.3-.16.06-.09-1.71.17-.06Zm.29-.11-.2.08-.09-1.71.21-.08Zm-.53.2-.08,0-.09-1.71.08,0Zm.82-.31,0,0L29,32.46h0Z" style="fill:#373535"/></g></g><g id="Group_2868" data-name="Group 2868"><path id="Path_3519" data-name="Path 3519" d="M5.57,7.48.11,15.06l16.2,7,5.69-7,6,7,17.45-7L39,7.48,22,0Z" style="fill:none"/><path id="Path_3520" data-name="Path 3520" d="M5.27,17.94v13.7L22,39.25l17.09-7.61V17.94" style="fill:none"/></g></g><g id="clock-circular-outline"><g id="Group_832" data-name="Group 832"><path id="Path_451" data-name="Path 451" d="M31,21.83A4.18,4.18,0,1,0,35.18,26,4.18,4.18,0,0,0,31,21.83Zm0,7.47A3.29,3.29,0,1,1,34.29,26,3.29,3.29,0,0,1,31,29.3Z" style="fill:#fff"/><path id="Path_452" data-name="Path 452" d="M33.18,25.88H31.3V23.62a.34.34,0,0,0-.34-.34.35.35,0,0,0-.35.34v2.6a.35.35,0,0,0,.35.35h2.22a.35.35,0,0,0,.34-.35.34.34,0,0,0-.34-.34Z" style="fill:#fff"/></g></g></g></g></g></svg>