<svg xmlns="http://www.w3.org/2000/svg" xmlns:xlink="http://www.w3.org/1999/xlink" viewBox="0 0 34.15 36.02"><defs><clipPath id="clip-path"><rect x="1.26" y="24.17" width="5.38" height="5.77" style="fill:none"/></clipPath></defs><title>box_finish</title><g id="Layer_2" data-name="Layer 2"><g id="Layer_1-2" data-name="Layer 1"><g id="Group_2747" data-name="Group 2747"><g id="Group_2741" data-name="Group 2741"><g id="Group_2035" data-name="Group 2035"><g id="Group_2030" data-name="Group 2030"><g id="Group_2031" data-name="Group 2031"><g id="Group_2021" data-name="Group 2021"><g id="g388"><g id="Group_2015" data-name="Group 2015"><g id="g404"><path id="path406" d="M16.83,8.45,34.1,3.81V29L17.09,36Z" style="fill:#2f76bc"/></g></g></g><g id="g384"><path id="path386" d="M17.09,8.62.09,3.81V29l17,7.07Z" style="fill:#4281c3"/></g></g><g id="g5384"><g id="g5398"><g style="clip-path:url(#clip-path)"><g id="g5396" style="opacity:0.8999999761581421"><g id="g5394"><path id="path5392" d="M6.64,29.94,1.26,27.7V24.17L6.64,26.4Z" style="fill:#fff"/></g></g></g></g></g></g></g><g id="g5400"><path id="path5402" d="M4.88,28.33h0V26l0,0Zm-.16-.07.08,0V26l-.08,0Zm-.3-.13.21.09V25.9l-.21-.09ZM4.16,28l.17.07V25.77l-.17-.07Zm1.23.5.08,0V26.24l-.08,0Zm.16.07.22.09V26.37l-.22-.09Zm.31.13L6,28.8V26.47l-.16-.07ZM5,28.38l.17.07V26.12L5,26.05Zm.25.1,0,0V26.17h0ZM4,28l.08,0V25.67l-.08,0Zm2.11-1.45v2.76l.08,0V26.54Zm-4,.67.21.09V25l-.21-.09Zm.3.13.08,0V25l-.08,0Zm.16.07h0V25.07l0,0Zm-.72-.3.17.07V24.82l-.17-.07Zm-.17.36.09,0V24.72l-.09,0Zm1.4.15.08,0V25.29l-.09,0Zm-.38-.16.17.07V25.17l-.17-.07Zm.84.35.17.07V25.53l-.17-.07Zm-.3-.13.22.09V25.42l-.22-.09Zm.56.23.08,0V25.6l-.08,0ZM3,27.53l0,0V25.22H3Z" style="fill:#373535"/></g></g><path id="Path_1303" data-name="Path 1303" d="M0,3.84,17.2,8.78l17-4.94L17.2,0Z" style="fill:#5096d1"/><path id="Path_1304" data-name="Path 1304" d="M7.45,8.62l2.78.77V6.81L25.46,1.86,23,1.24,7.45,5.91Z" style="fill:#fece9d"/><path id="Path_1305" data-name="Path 1305" d="M6.23,31.5V28L9,29.12v3.55Z" style="fill:#fece9d"/></g></g><path id="Path_3454" data-name="Path 3454" d="M20.1,23,25,26.43s1.54-9.21,5.84-13.95" style="fill:none;stroke:#fff;stroke-linecap:round;stroke-width:2px"/></g></g></svg>