<svg xmlns="http://www.w3.org/2000/svg" viewBox="0 0 15.2 15.49"><title>box_gray</title><g id="Layer_2" data-name="Layer 2"><g id="Layer_1-2" data-name="Layer 1"><g id="box-closed"><path id="Path_335" data-name="Path 335" d="M15.18,3V3L7.6,0,0,3H0V3H0v9.51l7.6,3,7.6-3V3ZM7.59.58l2.57.92-7,2.73L.77,3.29ZM7.32,14.82,4.48,13.67l-1.43-.53-2.51-1V3.78L3,4.76V6.85l.22-.06L3.4,7l.21,0,.2.21L4,7.1l.28.28V5.25l.22.09L7.33,6.46v8.36ZM7.59,6,4.82,4.89l6.84-2.78,2.83,1.15Zm7.06,6.17L7.87,14.82V6.46l6.78-2.68v8.37Z" style="fill:#bcbcbc"/></g></g></g></svg>