<svg xmlns="http://www.w3.org/2000/svg" xmlns:xlink="http://www.w3.org/1999/xlink" width="163" height="105.856" viewBox="0 0 163 105.856">
  <defs>
    <linearGradient id="linear-gradient" x1="2.35" y1="0.415" x2="-10.262" y2="1.206" gradientUnits="objectBoundingBox">
      <stop offset="0" stop-color="#3bc3ff"/>
      <stop offset="1" stop-color="#008af6"/>
    </linearGradient>
    <linearGradient id="linear-gradient-2" x1="1.312" y1="0.284" x2="0.004" y2="1.19" xlink:href="#linear-gradient"/>
    <linearGradient id="linear-gradient-3" x1="0.637" y1="0.508" x2="0.288" y2="1.123" xlink:href="#linear-gradient"/>
    <linearGradient id="linear-gradient-4" x1="-278.828" y1="-211.229" x2="-291.43" y2="-210.439" xlink:href="#linear-gradient"/>
    <linearGradient id="linear-gradient-5" x1="-29.16" y1="-242.505" x2="-30.469" y2="-241.599" xlink:href="#linear-gradient"/>
    <linearGradient id="linear-gradient-6" x1="-22.797" y1="-132.53" x2="-23.146" y2="-131.916" xlink:href="#linear-gradient"/>
  </defs>
  <g id="Group_2185" data-name="Group 2185" transform="translate(-126 -368.144)">
    <g id="Group_1954" data-name="Group 1954" transform="translate(-4308 -581)">
      <path id="Path_1298" data-name="Path 1298" d="M69.636,2.144C114.647,2.144,163,24.177,163,54c0,17.3-21.911,13.063-41.258,23.077C108.17,84.1,100.4,108,81.5,108,36.489,108,0,83.823,0,54S24.625,2.144,69.636,2.144Z" transform="translate(4434 947)" fill="#e8f5ff"/>
    </g>
    <g id="Layer_2" data-name="Layer 2" transform="translate(154.81 368.144)">
      <g id="Layer_1" data-name="Layer 1" transform="translate(-0.08)">
        <rect id="Rectangle_1717" data-name="Rectangle 1717" width="105.67" height="71.712" fill="#fff" opacity="0"/>
        <path id="Path_9246" data-name="Path 9246" d="M4.176,18.214a.718.718,0,0,0-.718.717V21.8H1.871V43.213H1.39a.488.488,0,0,0,0,.968H1.117V46.54h.345V44.181h.409V58.574H2.5v.072h.991v2.273a.718.718,0,0,0,.718.717H8.866V63.07a.825.825,0,0,0,.84.839H13.3a1.057,1.057,0,0,1,.524.158l2.873,4.919h9.1a6.859,6.859,0,0,0,13.7,0l24-.215a.38.38,0,0,0,0,.2V69.6a.524.524,0,0,0,.352.488.554.554,0,0,0,.273.086H83.337v-.05h.05V69.7H84.86a6.861,6.861,0,0,0,13.524,0H99.59v.409h0V70.2H100c1.221,0,4.726-.215,4.726-2.682V66.254a.352.352,0,0,0-.417-.351.452.452,0,0,1-.417-.423V64.418a.445.445,0,0,1,.417-.416.524.524,0,0,0,.524-.524V61.327a.524.524,0,0,0-.524-.524.122.122,0,0,1-.108-.108v-.789a.459.459,0,0,0-.251-.409h0a.525.525,0,0,0-.215-.05h-.057v-.717a3.975,3.975,0,0,0-.417-1.778c-.891-1.807-3.146-5.88-5.659-6.827L95.288,49.5l-.05-.057v-.036h0c-.287-.308-1.25-1.312-1.695-1.312l-.065-.086v-.057h.043S88.056,40.99,84.8,38.509l-.086-.1a1.092,1.092,0,0,0-.948-.61,1.335,1.335,0,0,0-1.257-1,14.72,14.72,0,0,0-7.455-2.453c-3.936-.316-8.812-.366-10.436-.423a.524.524,0,0,0-.524.523V35.4h0v.1h0V61.385h0V59.449H62.66V18.9a.718.718,0,0,0-.718-.717H4.162M3.444,34.371H2.481V22.761H3.487V34.4m0,8.813H2.525V35.368h.962v7.845m0,6.067H2.525v-5.1h.962v5.1m0,8.4H2.525V50.241h.962v7.437m.718-40.159H61.956a1.435,1.435,0,0,1,1.436,1.434V58.732h0V34.421a1.249,1.249,0,0,1,1.242-1.241c.359,0,.833,0,1.436.036,2.226.05,5.947.136,9.085.387A15.86,15.86,0,0,1,82.7,36.085a2.054,2.054,0,0,1,1.5,1.047,1.838,1.838,0,0,1,1.02.8h0c3.289,2.546,8.539,9.215,8.784,9.523a5.672,5.672,0,0,1,1.573,1.284l.1.072h.036l2.068.6h.065c2.808,1.1,5.171,5.443,6.054,7.264a4.77,4.77,0,0,1,.488,2.094v.172a1.161,1.161,0,0,1,.524.975v.337a1.233,1.233,0,0,1,.632,1.083v2.151a1.248,1.248,0,0,1-.941,1.2v.5a1.069,1.069,0,0,1,.783,1.069v1.305c0,2.151-2.033,3.4-5.444,3.4H99.5a.719.719,0,0,1-.51-.258.337.337,0,0,1-.065-.086,7.58,7.58,0,0,1-14.644-.179h-.237a.717.717,0,0,1-.122.194l-.043.043h0a.719.719,0,0,1-.524.229H64.1a1.258,1.258,0,0,1-.582-.151,1.233,1.233,0,0,1-.761-1.14v-.122l-22.616.186a7.579,7.579,0,0,1-14.989,0H16.7a.718.718,0,0,1-.618-.351L13.319,64.6H9.678a1.543,1.543,0,0,1-1.559-1.563v-.717H4.176A1.435,1.435,0,0,1,2.74,60.883v-1.52H2.5a.719.719,0,0,1-.309-.072H1.871a.718.718,0,0,1-.718-.717V47.258H1.117A.718.718,0,0,1,.4,46.54V44.389a1.232,1.232,0,0,1-.208-.717A1.177,1.177,0,0,1,1.153,42.5v-20.7a.718.718,0,0,1,.718-.717h.9V18.924A1.435,1.435,0,0,1,4.205,17.49Z" transform="translate(-0.018 -4.948)" fill="#888"/>
        <path id="Path_9247" data-name="Path 9247" d="M144.916,57.787a.323.323,0,0,0-.345.344v.48h0a.323.323,0,0,0,.345.344.4.4,0,0,0,.352-.229.208.208,0,0,0,0-.115v-.48h0a.323.323,0,0,0-.345-.344m0-.717a1.041,1.041,0,0,1,1.063,1.061v.387a.83.83,0,0,1-.036.437,1.092,1.092,0,0,1-1.027.717,1.041,1.041,0,0,1-1.063-1.061v-.48a1.041,1.041,0,0,1,1.063-1.061Z" transform="translate(-143.652 -16.144)" fill="#888"/>
        <path id="Path_9248" data-name="Path 9248" d="M144.937,57.787a.33.33,0,0,0-.345.344v.488a.323.323,0,0,0,.345.344c.208,0,.417-.208.345-.344v-.488a.33.33,0,0,0-.345-.344m0-.717A1.041,1.041,0,0,1,146,58.131v.394a.909.909,0,0,1-.129.631,1.121,1.121,0,0,1-.934.523,1.041,1.041,0,0,1-1.063-1.061v-.488a1.041,1.041,0,0,1,1.063-1.061Z" transform="translate(-143.673 -16.144)" fill="#888"/>
        <path id="Path_9249" data-name="Path 9249" d="M113.074,86.086l-25.137.208h-22.5l-2.873-4.919a.985.985,0,0,0-.524-.158H58.447a.825.825,0,0,1-.876-.868V78.7h55.5Z" transform="translate(-48.752 -22.263)" fill="#21211f"/>
        <path id="Path_9250" data-name="Path 9250" d="M24.028,85.954H7.775L6.518,84.641s-.84-9.731,9.337-9.731,9.6,10.04,9.6,10.04Z" transform="translate(75.544 -21.191)" fill="#21211f"/>
        <path id="Path_9251" data-name="Path 9251" d="M37.158,76.692s5.135.316,5.135-2.668V72.741a.359.359,0,0,0-.366-.351h0a.445.445,0,0,1-.417-.416V70.912a.452.452,0,0,1,.417-.423h0a.524.524,0,0,0,.524-.523V67.814a.524.524,0,0,0-.524-.523h0a.115.115,0,0,1-.108-.108v-.774a.466.466,0,0,0-.467-.473h-.057v-.717a4,4,0,0,0-.417-1.779c-.89-1.807-3.146-5.88-5.659-6.827l-2.313-.631s-1.257-1.434-1.781-1.434c0,0-4.877-6.282-8.755-9.473a1.192,1.192,0,0,0-1.049-.839,1.343,1.343,0,0,0-1.257-1,14.65,14.65,0,0,0-7.39-2.4c-3.936-.308-8.812-.366-10.436-.416a.524.524,0,0,0-.524.523V74.992h0a.524.524,0,0,0-.524.524v.631a.531.531,0,0,0,.524.524H20.955s-.84-10.154,7.814-10.154C38.673,66.408,37.158,76.692,37.158,76.692Z" transform="translate(62.364 -11.434)" fill="#f1f1f1"/>
        <path id="Path_9252" data-name="Path 9252" d="M24.04,64.25v3.141l21.8-2.983Z" transform="translate(42.559 -18.175)" fill="#fff"/>
        <path id="Path_9253" data-name="Path 9253" d="M31.579,88.48H50.971a15.754,15.754,0,0,0,0,1.728H31.579a.524.524,0,0,1-.524-.523v-.624a.509.509,0,0,1,.524-.581Z" transform="translate(32.398 -25.029)" fill="#333332"/>
        <path id="Path_9254" data-name="Path 9254" d="M45.395,57.059a36.73,36.73,0,0,0-5.135-7.329c-3.146-3.4-4.719-4.188-7.39-4.554-2.1-.308-6.349-.366-8.18-.416a.717.717,0,0,0-.718.839l.718,7.121a4.536,4.536,0,0,0,4.194,4.08l14.989,1.147h.97a.581.581,0,0,0,.582-.574v-.315Z" transform="translate(43.038 -12.662)" fill="#434343"/>
        <path id="Path_9255" data-name="Path 9255" d="M27.809,47.269l.682,5.651a3.811,3.811,0,0,0,3.591,3.349l12.059.631a1.564,1.564,0,0,0,1.472-2.252,19.715,19.715,0,0,0-3.591-4.977c-3.038-2.926-3.591-3.084-5.451-3.507-1.573-.366-7.132-.316-8.618-.316-.208,0-.316.158-.316.373Z" transform="translate(40.047 -12.969)" fill="#010101"/>
        <path id="Path_9256" data-name="Path 9256" d="M29.483,56.166v-.875a.839.839,0,0,0-.28-.559l-.417-.416a.848.848,0,0,0-.582-.265h-.941a.524.524,0,0,0-.524.523v3.3a.524.524,0,0,0,.524.523H28.9a.524.524,0,0,0,.524-.523v-.717h.158a.524.524,0,0,0,.524-.523h0a.509.509,0,0,0-.417-.523Z" transform="translate(56.357 -15.29)" fill="#221f1f" stroke="#221f1f" stroke-miterlimit="10" stroke-width="0.25"/>
        <path id="Path_9257" data-name="Path 9257" d="M22.721,75.854H39.29V75.8a13.822,13.822,0,0,1,.941-4.346,7.747,7.747,0,0,1,6.184-5.077h.057V56.592h0a47.7,47.7,0,0,0-4.036-6.182c-2.521-3.241-5.925-5.737-8.5-6.225-2.1-.366-8.618-.631-10.536-.717a.517.517,0,0,0-.474.208.559.559,0,0,0-.208.466Zm16.461-.108H22.821V44.129a.623.623,0,0,1,.158-.416.6.6,0,0,1,.424-.158c1.939.05,8.331.316,10.428.681,2.571.473,5.925,2.933,8.446,6.174a48.664,48.664,0,0,1,4.036,6.182v9.631a7.41,7.41,0,0,0-4.094,1.886,9.049,9.049,0,0,0-2.155,3.241,14.7,14.7,0,0,0-.883,4.4Z" transform="translate(42.88 -12.296)" fill="#cdcdcd"/>
        <path id="Path_9258" data-name="Path 9258" d="M11.255,73.574v-.108a2.293,2.293,0,0,0-.718-1.721l-.582-.581a4.133,4.133,0,0,0-2.873-1.2H4.828a.882.882,0,0,0-.833,1.3l.812,1.6a2.715,2.715,0,0,0,2.413,1.434h3.3A.8.8,0,0,0,11.255,73.574Z" transform="translate(91.62 -19.79)" fill="#fff"/>
        <path id="Path_9259" data-name="Path 9259" d="M9.914,69.94h.632c.208.473.474.947.718,1.434.424.99.891,1.936,1.365,2.868h-.316A2.766,2.766,0,0,1,9.9,72.808l-.783-1.621a.853.853,0,0,1,.8-1.248Z" transform="translate(86.562 -19.784)" fill="#f79420"/>
        <path id="Path_9260" data-name="Path 9260" d="M19.043,67.62l.108-.05c-.057-.158-1.839-3.715-2.988-4.4a23.509,23.509,0,0,0-3.936-1.434H9.85v.1h2.413a28.223,28.223,0,0,1,3.878,1.434C17.248,63.956,19.043,67.62,19.043,67.62Z" transform="translate(79.444 -17.465)" fill="#cdcdcd"/>
        <line id="Line_79" data-name="Line 79" x1="1.307" transform="translate(98.265 64.763)" fill="none" stroke="#221f1f" stroke-miterlimit="10" stroke-width="0.25"/>
        <line id="Line_80" data-name="Line 80" x1="1.207" transform="translate(83.319 64.763)" fill="none" stroke="#221f1f" stroke-miterlimit="10" stroke-width="0.25"/>
        <path id="Path_9261" data-name="Path 9261" d="M18.811,60.09l-1.781.631v.624" transform="translate(74.627 -16.998)" fill="#cdcdcd"/>
        <path id="Path_9262" data-name="Path 9262" d="M14.676,62.567a7.6,7.6,0,0,1,1.436-.473V62a7.822,7.822,0,0,0-1.523.466Z" transform="translate(79.078 -17.539)" fill="#cdcdcd"/>
        <path id="Path_9263" data-name="Path 9263" d="M47.2,44.726h3.038l-.05-.108H47.2a13.322,13.322,0,0,0-5.142-1.786c-2.937-.316-11.276-.423-11.376-.423v.108c.1,0,8.439.108,11.376.416A12.164,12.164,0,0,1,47.2,44.719Z" transform="translate(33.398 -11.997)" fill="#cdcdcd"/>
        <path id="Path_9264" data-name="Path 9264" d="M118.5,64.373h-.417a.632.632,0,0,1-.481-.2l-1.379-1.384a.717.717,0,0,1-.208-.48v-.43H92.579l4.137,4.482a.366.366,0,0,1-.273.617H95.007a.568.568,0,0,1-.28-.136l-4.6-4.962H83.537l-4.6,4.97a.374.374,0,0,1-.28.136H77.217a.366.366,0,0,1-.28-.617l4.151-4.489H58.608a.718.718,0,0,1-.718-.717V19.187a.718.718,0,0,1,.718-.717h57.751a.718.718,0,0,1,.718.717V59.726h1.436Z" transform="translate(-54.421 -5.225)" fill="#d1d2d3"/>
        <path id="Path_9265" data-name="Path 9265" d="M49.619,63.67h1.889a1.184,1.184,0,0,1,1.207,1.2h0a1.184,1.184,0,0,1-1.207,1.19H49.619a1.184,1.184,0,0,1-1.2-1.2h0A1.213,1.213,0,0,1,49.619,63.67Z" transform="translate(18.179 -18.011)" fill="#5b5f60"/>
        <ellipse id="Ellipse_355" data-name="Ellipse 355" cx="1.523" cy="0.997" rx="1.523" ry="0.997" transform="translate(67.174 45.86)" fill="#221f1f" stroke="#221f1f" stroke-miterlimit="10" stroke-width="0.25"/>
        <path id="Path_9266" data-name="Path 9266" d="M49.9,65.509h2.155a.287.287,0,0,0,.259-.265h0A.28.28,0,0,0,52.053,65H49.9a.28.28,0,0,0-.259.258h0A.3.3,0,0,0,49.9,65.509Z" transform="translate(17.706 -18.387)" fill="#5b5f60"/>
        <path id="Path_9267" data-name="Path 9267" d="M4.385,86.613s5.135.316,5.135-2.668V82.661a.359.359,0,0,0-.366-.351.776.776,0,0,1-.316-.1.609.609,0,0,1-.1-.316V80.833a.452.452,0,0,1,.417-.423h0a.524.524,0,0,0,.524-.523V77.735a.5.5,0,0,0-.5-.523c-.05,0-.05,0-.108-.05a.365.365,0,0,1,0-.108v-.774a.488.488,0,0,0-.546-.423l-1.436.057h-3.3a2.775,2.775,0,0,1-1.436-.423l-1.156,2.2C5.326,80.409,4.385,86.613,4.385,86.613Z" transform="translate(95.136 -21.355)" fill="#a7a8ab"/>
        <path id="Path_9268" data-name="Path 9268" d="M1.41,85.75a11.715,11.715,0,0,1,.057,3.428S6.6,89.494,6.6,86.511V85.227a.359.359,0,0,0-.366-.351.776.776,0,0,1-.316-.1.294.294,0,0,1-.1-.215C4.613,85.65,2.358,85.75,1.41,85.75Z" transform="translate(98.054 -23.92)" fill="#333332"/>
        <rect id="Rectangle_1718" data-name="Rectangle 1718" width="56.02" height="39.657" transform="translate(5.25 15.275)" fill="#f1f1f1"/>
        <path id="Path_9269" data-name="Path 9269" d="M7.21,74.343h3.3a.718.718,0,0,0,.718-.717v-.1a2.5,2.5,0,0,0-.718-1.778l-.582-.581a4.011,4.011,0,0,0-2.873-1.2H4.8a.905.905,0,0,0-.783.423,1.06,1.06,0,0,0-.036.868l.761,1.6A2.917,2.917,0,0,0,7.21,74.343ZM7.1,69.94a3.8,3.8,0,0,1,2.83,1.2l.582.581a2.465,2.465,0,0,1,.718,1.721v.122a.718.718,0,0,1-.718.717H7.21a2.629,2.629,0,0,1-2.363-1.434l-.783-1.621a.8.8,0,0,1,.05-.839.841.841,0,0,1,.718-.423Z" transform="translate(91.629 -19.785)" fill="#cdcdcd"/>
        <path id="Path_9270" data-name="Path 9270" d="M36.236,85.5H51.7a.229.229,0,0,0,.158-.366l-.474-.473a.834.834,0,0,0-.575-.258H36.272" transform="translate(27.742 -23.875)" fill="#cdcdcd"/>
        <rect id="Rectangle_1719" data-name="Rectangle 1719" width="0.618" height="36.781" transform="translate(1.889 16.852)" fill="#cdcdcd"/>
        <rect id="Rectangle_1720" data-name="Rectangle 1720" width="0.962" height="0.961" transform="translate(2.507 16.852)" fill="#b2b2b2"/>
        <rect id="Rectangle_1721" data-name="Rectangle 1721" width="0.962" height="0.961" transform="translate(2.507 29.459)" fill="#b2b2b2"/>
        <rect id="Rectangle_1722" data-name="Rectangle 1722" width="0.962" height="0.961" transform="translate(2.507 38.273)" fill="#b2b2b2"/>
        <path id="Path_9271" data-name="Path 9271" d="M145.473,54.331h-.481a.466.466,0,0,1-.481-.48h0a.474.474,0,0,1,.481-.48h.481Z" transform="translate(-143.591 -15.097)" fill="#b2b2b2"/>
        <rect id="Rectangle_1723" data-name="Rectangle 1723" width="0.962" height="0.961" transform="translate(2.507 44.332)" fill="#b2b2b2"/>
        <rect id="Rectangle_1724" data-name="Rectangle 1724" width="0.962" height="0.961" transform="translate(2.507 52.737)" fill="#b2b2b2"/>
        <path id="Path_9272" data-name="Path 9272" d="M145.08,54.71v2.345h.345V54.71" transform="translate(-143.952 -15.476)" fill="#b2b2b2"/>
        <path id="Path_9273" data-name="Path 9273" d="M145.215,59.249h0a.323.323,0,0,1-.345-.344v-.48a.323.323,0,0,1,.345-.344h0a.323.323,0,0,1,.345.344v.48C145.632,59.041,145.424,59.249,145.215,59.249Z" transform="translate(-143.951 -16.429)" fill="#b2b2b2"/>
        <path id="Path_9274" data-name="Path 9274" d="M20.179,46.22a1.135,1.135,0,0,1,.948.473c1.307,1.728,6.866,7.537,8.539,9.265a.444.444,0,0,1-.158.717l-1.515.624-1.07-.244A39.785,39.785,0,0,0,17.012,46.3Z" transform="translate(63.664 -13.075)" fill="#434343"/>
        <path id="Path_9275" data-name="Path 9275" d="M20.068,46.73H17.03a37.05,37.05,0,0,1,9.064,9.946l1,.208,1.731-.717S23.321,49.19,20.068,46.73Z" transform="translate(64.616 -13.219)" fill="#010101"/>
        <ellipse id="Ellipse_356" data-name="Ellipse 356" cx="6.866" cy="6.856" rx="6.866" ry="6.856" transform="translate(25.755 56.753)" fill="#333332"/>
        <ellipse id="Ellipse_357" data-name="Ellipse 357" cx="4.611" cy="4.604" rx="4.611" ry="4.604" transform="translate(28.01 59.005)" fill="#bfbebe"/>
        <ellipse id="Ellipse_358" data-name="Ellipse 358" cx="3.62" cy="3.614" rx="3.62" ry="3.614" transform="translate(29.001 59.994)" fill="#e5e6e6"/>
        <path id="Path_9276" data-name="Path 9276" d="M97.133,90.149a1.871,1.871,0,0,0,.266-.581.352.352,0,0,1,.259-.208h.424a.258.258,0,0,1,.259.316,4.249,4.249,0,0,1-.417,1,.288.288,0,0,1-.424.05l-.309-.316C97.083,90.407,97.083,90.249,97.133,90.149Z" transform="translate(-62.415 -25.278)" fill="#444856"/>
        <path id="Path_9277" data-name="Path 9277" d="M97.241,87.4a1.941,1.941,0,0,0-.208-.574.236.236,0,0,1,.05-.316l.316-.316a.28.28,0,0,1,.417.05,2.708,2.708,0,0,1,.445,1.047.265.265,0,0,1-.266.316h-.452C97.341,87.6,97.241,87.5,97.241,87.4Z" transform="translate(-62.257 -24.362)" fill="#444856"/>
        <path id="Path_9278" data-name="Path 9278" d="M103.9,84.368v.473a.273.273,0,0,1-.215.258,2.919,2.919,0,0,0-.625.265.252.252,0,0,1-.316-.057L102.428,85a.287.287,0,0,1,.057-.423,3.321,3.321,0,0,1,1.1-.466A.294.294,0,0,1,103.9,84.368Z" transform="translate(-71.747 -23.793)" fill="#444856"/>
        <path id="Path_9279" data-name="Path 9279" d="M99.861,85.305a3.594,3.594,0,0,0-.632-.258.337.337,0,0,1-.208-.265v-.416a.258.258,0,0,1,.316-.258,4.808,4.808,0,0,1,1.1.466.272.272,0,0,1,.05.423l-.316.308A.219.219,0,0,1,99.861,85.305Z" transform="translate(-66.012 -23.791)" fill="#444856"/>
        <path id="Path_9280" data-name="Path 9280" d="M102.936,91.683a1.991,1.991,0,0,0,.582.208c.1.05.208.1.208.258v.423a.258.258,0,0,1-.316.258,3.307,3.307,0,0,1-1-.416.287.287,0,0,1-.05-.423l.316-.308A.216.216,0,0,1,102.936,91.683Z" transform="translate(-71.521 -25.923)" fill="#444856"/>
        <path id="Path_9281" data-name="Path 9281" d="M105.808,86.823a1.755,1.755,0,0,0-.208.574.337.337,0,0,1-.266.208h-.417a.265.265,0,0,1-.266-.316,3.819,3.819,0,0,1,.424-1.047.28.28,0,0,1,.417-.05l.316.316a.344.344,0,0,1,0,.316Z" transform="translate(-75.334 -24.362)" fill="#444856"/>
        <path id="Path_9282" data-name="Path 9282" d="M99.222,91.9a2.645,2.645,0,0,0,.575-.208.237.237,0,0,1,.316.05l.316.316a.279.279,0,0,1-.05.416,3.515,3.515,0,0,1-1,.423.266.266,0,0,1-.316-.265v-.416A.251.251,0,0,1,99.222,91.9Z" transform="translate(-65.969 -25.928)" fill="#444856"/>
        <path id="Path_9283" data-name="Path 9283" d="M105.543,89.659a2.865,2.865,0,0,0,.259.574.236.236,0,0,1-.05.316l-.316.308a.273.273,0,0,1-.417-.05,2.458,2.458,0,0,1-.424-1c-.05-.151.108-.308.266-.308h.417C105.442,89.444,105.5,89.5,105.543,89.659Z" transform="translate(-75.285 -25.312)" fill="#444856"/>
        <ellipse id="Ellipse_359" data-name="Ellipse 359" cx="0.474" cy="0.473" rx="0.474" ry="0.473" transform="translate(33.145 62.977)" fill="#444856"/>
        <ellipse id="Ellipse_360" data-name="Ellipse 360" cx="0.474" cy="0.473" rx="0.474" ry="0.473" transform="translate(32.779 64.132)" fill="#444856"/>
        <ellipse id="Ellipse_361" data-name="Ellipse 361" cx="0.474" cy="0.473" rx="0.474" ry="0.473" transform="translate(31.465 64.132)" fill="#444856"/>
        <ellipse id="Ellipse_362" data-name="Ellipse 362" cx="0.474" cy="0.473" rx="0.474" ry="0.473" transform="translate(31.098 62.977)" fill="#444856"/>
        <ellipse id="Ellipse_363" data-name="Ellipse 363" cx="0.474" cy="0.473" rx="0.474" ry="0.473" transform="translate(32.147 62.196)" fill="#444856"/>
        <ellipse id="Ellipse_364" data-name="Ellipse 364" cx="6.866" cy="6.856" rx="6.866" ry="6.856" transform="translate(84.741 56.753)" fill="#333332"/>
        <ellipse id="Ellipse_365" data-name="Ellipse 365" cx="4.611" cy="4.604" rx="4.611" ry="4.604" transform="translate(86.996 59.005)" fill="#bfbebe"/>
        <ellipse id="Ellipse_366" data-name="Ellipse 366" cx="3.62" cy="3.614" rx="3.62" ry="3.614" transform="translate(87.987 59.994)" fill="#e5e6e6"/>
        <path id="Path_9284" data-name="Path 9284" d="M15.035,90.149a1.87,1.87,0,0,0,.266-.581.352.352,0,0,1,.259-.208h.424a.258.258,0,0,1,.259.316,4.249,4.249,0,0,1-.417,1,.28.28,0,0,1-.417.05l-.316-.316C14.985,90.407,14.935,90.249,15.035,90.149Z" transform="translate(78.662 -25.278)" fill="#444856"/>
        <path id="Path_9285" data-name="Path 9285" d="M15.151,87.4a1.942,1.942,0,0,0-.208-.574.236.236,0,0,1,.05-.316l.316-.316a.28.28,0,0,1,.417.05,2.708,2.708,0,0,1,.424,1.047.265.265,0,0,1-.266.316h-.417C15.259,87.6,15.151,87.5,15.151,87.4Z" transform="translate(78.812 -24.362)" fill="#444856"/>
        <path id="Path_9286" data-name="Path 9286" d="M21.781,84.368v.473a.265.265,0,0,1-.208.258,2.826,2.826,0,0,0-.632.265.252.252,0,0,1-.316-.057L20.308,85a.287.287,0,0,1,.057-.423,3.457,3.457,0,0,1,1.1-.466A.294.294,0,0,1,21.781,84.368Z" transform="translate(69.352 -23.793)" fill="#444856"/>
        <path id="Path_9287" data-name="Path 9287" d="M17.753,85.3a3.292,3.292,0,0,0-.625-.258.337.337,0,0,1-.208-.265v-.416c0-.158.158-.316.309-.258a4.73,4.73,0,0,1,1.106.466.272.272,0,0,1,.05.423l-.316.308A.23.23,0,0,1,17.753,85.3Z" transform="translate(75.053 -23.788)" fill="#444856"/>
        <path id="Path_9288" data-name="Path 9288" d="M20.827,91.683a1.948,1.948,0,0,0,.575.208c.108.05.208.1.208.258v.423a.258.258,0,0,1-.316.258,3.191,3.191,0,0,1-1-.416.287.287,0,0,1-.057-.423l.316-.308A.235.235,0,0,1,20.827,91.683Z" transform="translate(69.573 -25.923)" fill="#444856"/>
        <path id="Path_9289" data-name="Path 9289" d="M23.675,86.823a1.942,1.942,0,0,0-.208.574.337.337,0,0,1-.259.208h-.424a.258.258,0,0,1-.259-.316,3.582,3.582,0,0,1,.417-1.047.28.28,0,0,1,.417-.05l.316.316A.308.308,0,0,1,23.675,86.823Z" transform="translate(65.777 -24.362)" fill="#444856"/>
        <path id="Path_9290" data-name="Path 9290" d="M17.107,91.9a2.645,2.645,0,0,0,.575-.208.237.237,0,0,1,.316.05l.316.316a.272.272,0,0,1-.05.416,3.515,3.515,0,0,1-1,.423.266.266,0,0,1-.316-.265v-.416a.222.222,0,0,1,.158-.316Z" transform="translate(75.125 -25.928)" fill="#444856"/>
        <path id="Path_9291" data-name="Path 9291" d="M23.408,89.659a2.565,2.565,0,0,0,.266.574.251.251,0,0,1-.057.316l-.316.308a.273.273,0,0,1-.417-.05,2.35,2.35,0,0,1-.417-1c-.057-.151.1-.308.259-.308h.424C23.25,89.444,23.358,89.5,23.408,89.659Z" transform="translate(65.836 -25.312)" fill="#444856"/>
        <ellipse id="Ellipse_367" data-name="Ellipse 367" cx="0.474" cy="0.473" rx="0.474" ry="0.473" transform="translate(92.124 62.977)" fill="#444856"/>
        <ellipse id="Ellipse_368" data-name="Ellipse 368" cx="0.474" cy="0.473" rx="0.474" ry="0.473" transform="translate(91.758 64.132)" fill="#444856"/>
        <ellipse id="Ellipse_369" data-name="Ellipse 369" cx="0.474" cy="0.473" rx="0.474" ry="0.473" transform="translate(90.451 64.132)" fill="#444856"/>
        <ellipse id="Ellipse_370" data-name="Ellipse 370" cx="0.474" cy="0.473" rx="0.474" ry="0.473" transform="translate(90.085 62.977)" fill="#444856"/>
        <ellipse id="Ellipse_371" data-name="Ellipse 371" cx="0.474" cy="0.473" rx="0.474" ry="0.473" transform="translate(91.133 62.196)" fill="#444856"/>
        <rect id="Rectangle_1725" data-name="Rectangle 1725" width="56.02" height="0.337" transform="translate(5.25 18.581)" fill="#d1d2d3"/>
        <rect id="Rectangle_1726" data-name="Rectangle 1726" width="56.02" height="0.337" transform="translate(5.25 22.195)" fill="#d1d2d3"/>
        <rect id="Rectangle_1727" data-name="Rectangle 1727" width="56.02" height="0.337" transform="translate(5.25 25.809)" fill="#d1d2d3"/>
        <rect id="Rectangle_1728" data-name="Rectangle 1728" width="56.02" height="0.337" transform="translate(5.25 29.416)" fill="#d1d2d3"/>
        <rect id="Rectangle_1729" data-name="Rectangle 1729" width="56.02" height="0.337" transform="translate(5.25 33.031)" fill="#d1d2d3"/>
        <rect id="Rectangle_1730" data-name="Rectangle 1730" width="56.02" height="0.337" transform="translate(5.25 36.638)" fill="#d1d2d3"/>
        <rect id="Rectangle_1731" data-name="Rectangle 1731" width="56.02" height="0.337" transform="translate(5.25 40.252)" fill="#d1d2d3"/>
        <rect id="Rectangle_1732" data-name="Rectangle 1732" width="56.02" height="0.337" transform="translate(5.25 43.866)" fill="#d1d2d3"/>
        <rect id="Rectangle_1733" data-name="Rectangle 1733" width="56.02" height="0.337" transform="translate(5.25 47.473)" fill="#d1d2d3"/>
        <rect id="Rectangle_1734" data-name="Rectangle 1734" width="56.02" height="0.337" transform="translate(5.25 51.088)" fill="#d1d2d3"/>
        <path id="Path_9292" data-name="Path 9292" d="M74.38,68.07l-.74.423v5.694h.74Z" transform="translate(-21.599 -19.256)" fill="url(#linear-gradient)"/>
        <path id="Path_9293" data-name="Path 9293" d="M75.53,73.269V74.5h7.132V69.16Z" transform="translate(-31.238 -19.564)" fill="url(#linear-gradient-2)"/>
        <path id="Path_9294" data-name="Path 9294" d="M61.82,64.93v1.427L62.438,66v-.71l9.229-5.314V59.25Z" transform="translate(-10.396 -16.761)" fill="#008af6"/>
        <path id="Path_9295" data-name="Path 9295" d="M70.309,61.24v9.789L61.82,66.138Z" transform="translate(-9.039 -17.324)" fill="url(#linear-gradient-3)"/>
        <path id="Path_9296" data-name="Path 9296" d="M70.309,72.961v1.226H61.82V68.07Z" transform="translate(-9.039 -19.256)" fill="#008af6"/>
        <path id="Path_9304" data-name="Path 9304" d="M126.98,27.424l.74-.423V21.3h-.74Z" transform="translate(-113.248 -6.025)" fill="url(#linear-gradient-4)"/>
        <path id="Path_9305" data-name="Path 9305" d="M123.315,22.526V21.3H116.19v5.335Z" transform="translate(-101.093 -6.025)" fill="url(#linear-gradient-5)"/>
        <path id="Path_9306" data-name="Path 9306" d="M135.957,30.167V28.74l-.625.366v.7L126.11,35.13v.717Z" transform="translate(-120.86 -8.13)" fill="#008af6"/>
        <path id="Path_9307" data-name="Path 9307" d="M128.01,32.8V23.01l8.482,4.9Z" transform="translate(-122.76 -6.509)" fill="url(#linear-gradient-6)"/>
        <path id="Path_9308" data-name="Path 9308" d="M128.01,22.526V21.3h8.482v6.124Z" transform="translate(-122.76 -6.025)" fill="#008af6"/>
      </g>
    </g>
    <g id="Group_4428" data-name="Group 4428" transform="translate(114.81 368.144)">
      <path id="Path_9297" data-name="Path 9297" d="M99.755,44.9l2.438-1.434,1.291.782a.316.316,0,0,0,.48-.28V37.619a.968.968,0,0,0-.488-.839l-3.722-2.151a.982.982,0,0,0-.975,0L95.058,36.78a.968.968,0,0,0-.488.839v4.3a.99.99,0,0,0,.488.825L98.779,44.9A.954.954,0,0,0,99.755,44.9Zm2.41-3.471-2.775,1.606V39.878l2.775-1.606ZM99.3,36.407l2.754,1.621-2.775,1.606L96.5,38.028Zm-2.868,1.807,2.754,1.664v3.206L96.4,41.477Z" transform="translate(-26.752 -9.759)" fill="#008af6"/>
      <path id="Path_9298" data-name="Path 9298" d="M91.834,52.182a1.986,1.986,0,0,0-.861.179,1.355,1.355,0,0,0-.6.516h-.05l-.273-.488a.215.215,0,0,0-.2-.122h-.2a.244.244,0,0,0-.244.237V56.75a.172.172,0,0,0,.172.172.2.2,0,0,0,.093,0l.495-.294a.48.48,0,0,0,.229-.409V54.606a2.029,2.029,0,0,1,.294-1.241,1.076,1.076,0,0,1,.918-.373.839.839,0,0,1,.717.265,1.155,1.155,0,0,1,.208.653q0,.075,0,.151v2.151a.48.48,0,0,0,.229.416l.5.294h.086a.172.172,0,0,0,.172-.172V53.882a2.459,2.459,0,0,0-.086-.717A1.434,1.434,0,0,0,91.834,52.182Z" transform="translate(-25.292 -14.756)" fill="#008af6"/>
      <path id="Path_9299" data-name="Path 9299" d="M112.834,52.506l-.495-.294h-.086a.179.179,0,0,0-.179.172V53.9a3.98,3.98,0,0,1-.287,1.872,1.076,1.076,0,0,1-.918.366.825.825,0,0,1-.717-.265,1.147,1.147,0,0,1-.215-.645V52.362a.172.172,0,0,0-.172-.172h-.086l-.5.3a.488.488,0,0,0-.237.409v2.3a2.46,2.46,0,0,0,.086.681,1.341,1.341,0,0,0,.359.624,1.728,1.728,0,0,0,1.233.4,1.986,1.986,0,0,0,.861-.179,1.334,1.334,0,0,0,.567-.48v-.036l.416.523a.229.229,0,0,0,.186.086h.122a.237.237,0,0,0,.237-.237V52.921a.48.48,0,0,0-.172-.416Z" transform="translate(-30.817 -14.764)" fill="#008af6"/>
      <path id="Path_9300" data-name="Path 9300" d="M118.079,55.8a2.316,2.316,0,0,1-.437.043.66.66,0,0,1-.473-.172.717.717,0,0,1-.179-.531v-2.5h.638a.473.473,0,0,0,.423-.251l.143-.265a.158.158,0,0,0-.143-.229h-1.061v-.8a.237.237,0,0,0-.237-.237h-.222a.251.251,0,0,0-.229.158l-.28.825-.552.294a.237.237,0,0,0-.129.208V52.4a.237.237,0,0,0,.237.237h.394v2.51c0,.99.473,1.484,1.434,1.484a2.56,2.56,0,0,0,.531-.05,1.993,1.993,0,0,0,.258-.057.229.229,0,0,0,.165-.229v-.273a.237.237,0,0,0-.28-.215Z" transform="translate(-32.627 -14.39)" fill="#008af6"/>
      <path id="Path_9301" data-name="Path 9301" d="M100.188,52.35a.237.237,0,0,0-.237-.237h-.194a.172.172,0,0,0-.115.05l-.416.459h0a1.728,1.728,0,0,0-2.237-.294A2.187,2.187,0,0,0,96,54.207h0v.5h0a2.187,2.187,0,0,0,.961,1.879,1.728,1.728,0,0,0,2.266-.273v.473h0a.925.925,0,0,1-.258.667,1.434,1.434,0,0,1-1.011.337h-.215a.151.151,0,0,0-.122.251l.337.452a.567.567,0,0,0,.531.208,2.151,2.151,0,0,0,1.183-.588,1.865,1.865,0,0,0,.516-1.377Zm-.961,3.127h0a1.255,1.255,0,0,1-2.194-.717.445.445,0,0,1,0-.093v-.5a.445.445,0,0,1,0-.093,1.255,1.255,0,0,1,2.194-.717h0Z" transform="translate(-27.156 -14.722)" fill="#008af6"/>
      <path id="Path_9302" data-name="Path 9302" d="M105.067,53.989l1.147-1.226a.165.165,0,0,0-.115-.273h-.567a.5.5,0,0,0-.351.151l-.782.846-.531.523V51.859a.4.4,0,0,0-.165-.323l-.445-.316a.237.237,0,0,0-.38.194V56.47a.172.172,0,0,0,.172.172.2.2,0,0,0,.093,0l.495-.294a.48.48,0,0,0,.229-.416v-.8l.531-.5,1.348,1.85a.488.488,0,0,0,.387.194h.6a.158.158,0,0,0,.129-.251Z" transform="translate(-29.103 -14.476)" fill="#008af6"/>
      <path id="Path_9303" data-name="Path 9303" d="M86.6,52.2h-.115a.143.143,0,0,0-.108.043l-.509.466h0a1.735,1.735,0,0,0-2.252-.3,2.2,2.2,0,0,0-.961,1.886h0v.495h0a2.2,2.2,0,0,0,.961,1.886,1.735,1.735,0,0,0,2.237-.294h0l.416.459a.172.172,0,0,0,.115.05h.194a.237.237,0,0,0,.237-.237V52.436A.237.237,0,0,0,86.6,52.2Zm-.717,1.714V55.57h0v.036a1.262,1.262,0,0,1-2.266-.7v-.681a1.255,1.255,0,0,1,2.2-.717h0Z" transform="translate(-23.383 -14.745)" fill="#008af6"/>
    </g>
  </g>
</svg>
