<svg xmlns="http://www.w3.org/2000/svg" xmlns:xlink="http://www.w3.org/1999/xlink" width="50.301" height="36.481" viewBox="0 0 50.301 36.481">
  <defs>
    <clipPath id="clip-path">
      <path id="path1052" d="M112.639-951.811h22.1v11.878h-22.1Z" transform="translate(-112.639 951.811)"/>
    </clipPath>
    <clipPath id="clip-path-2">
      <path id="path1056" d="M126.909-939.933l-14.271-5.947,14.271-5.931,7.827,8.616Z" transform="translate(-112.638 951.811)"/>
    </clipPath>
    <linearGradient id="linear-gradient" x1="-0.735" y1="11.56" x2="-0.727" y2="11.56" gradientUnits="objectBoundingBox">
      <stop offset="0" stop-color="#373535"/>
      <stop offset="0.515" stop-color="#373535"/>
      <stop offset="1" stop-color="#373535"/>
    </linearGradient>
    <clipPath id="clip-path-3">
      <path id="path858" d="M186.23-912.03h22.712v15.7H186.23Z" transform="translate(-186.23 912.03)"/>
    </clipPath>
    <clipPath id="clip-path-4">
      <path id="path5388" d="M118.778-455.895H123.3v4.84h-4.517Z" transform="translate(-118.778 455.895)"/>
    </clipPath>
  </defs>
  <g id="Group_3001" data-name="Group 3001" transform="translate(-16.35 -168.339)">
    <path id="Path_1298" data-name="Path 1298" d="M21.489,2.144c13.89,0,28.812,6.8,28.812,16,0,5.338-6.762,4.031-12.732,7.121-4.188,2.168-6.585,9.543-12.419,9.543C11.26,34.811,0,27.35,0,18.147S7.6,2.144,21.489,2.144Z" transform="translate(16.35 168.595)" fill="#e8f5ff"/>
    <g id="Group_2998" data-name="Group 2998" transform="translate(-159.328 -69.902)">
      <g id="Group_2051" data-name="Group 2051" transform="translate(181.707 238.241)">
        <g id="Group_2032" data-name="Group 2032" transform="translate(4.914 3.525)">
          <g id="Group_2030" data-name="Group 2030" transform="translate(0 0)">
            <g id="Group_2031" data-name="Group 2031" transform="translate(0 0)">
              <g id="Group_2021" data-name="Group 2021">
                <g id="g388" transform="translate(0 0)">
                  <g id="Group_2015" data-name="Group 2015" transform="translate(0 0)">
                    <g id="g396" transform="translate(0)">
                      <path id="path398" d="M-64.72-27.134l14.27,5.931V-33.065Z" transform="translate(64.72 33.065)" fill="#d2d4d5"/>
                    </g>
                    <g id="g400" transform="translate(14.27 0)">
                      <path id="path402" d="M0-70.461l14.27-5.947L0-82.338Z" transform="translate(0 82.338)" fill="#bebebe"/>
                    </g>
                  </g>
                </g>
                <g id="g1048" transform="translate(0 0)">
                  <g id="g1108" transform="translate(0 0)">
                    <g id="g1106" transform="translate(0)" opacity="0.3" clip-path="url(#clip-path)">
                      <g id="g1104" transform="translate(0)">
                        <g id="g1102" clip-path="url(#clip-path-2)">
                          <g id="g1100">
                            <g id="g1098">
                              <g id="g1096">
                                <path id="path1094" d="M126.909-939.933l-14.271-5.947,14.271-5.931,7.827,8.616Z" transform="translate(-112.638 951.811)" fill="url(#linear-gradient)"/>
                              </g>
                            </g>
                          </g>
                        </g>
                      </g>
                    </g>
                  </g>
                </g>
              </g>
            </g>
          </g>
        </g>
        <g id="Group_2051-2" data-name="Group 2051" transform="translate(0 0)">
          <g id="Group_2042" data-name="Group 2042" transform="translate(14.96)">
            <path id="path48" d="M556.661-1154.544s-.057-10.259,0-11.088-2.229-1.657-2.972-2.029-.457-1.943-.457-1.943h-1.42s.286,1.572-.457,1.943-3.029,1.2-2.972,2.029,0,11.088,0,11.088-.172,1.229,1.029,1.2h6.221c1.2.029,1.029-1.2,1.029-1.2" transform="translate(-548.211 1170.311)" fill="#c2e0ee"/>
            <path id="path50" d="M572.589-1149.267c-.457,0-.837-.006-.952-.026-.343-.058-.257-.463-.257-.463s-.172-10.275,0-11.259,1.743-1.824,2.4-2.287.6-1.968.6-1.968h.172l.343-.029s-.057,1.534.6,2,2.229,1.3,2.4,2.286,0,11.259,0,11.259.086.405-.257.463c-.114.019-.5.026-.953.026-.77,0-1.755-.018-2.047-.024s-1.279.024-2.049.024" transform="translate(-570.38 1166.149)" fill="#daebf3"/>
            <path id="path52" d="M652.393-1190.041h-1.5v-.879h1.5v.879" transform="translate(-647.328 1190.92)" fill="#80afc1"/>
            <path id="path56" d="M551.634-1053.143H543.88a.425.425,0,0,1-.424-.424v-.21a.425.425,0,0,1,.424-.424h7.754a.425.425,0,0,1,.424.424v.21a.425.425,0,0,1-.424.424" transform="translate(-543.456 1058.737)" fill="#80afc1"/>
            <path id="path58" d="M552.5-1003.191h-7.754a.425.425,0,0,1-.424-.424v-.21a.425.425,0,0,1,.424-.424H552.5a.425.425,0,0,1,.424.424v.21a.425.425,0,0,1-.424.424" transform="translate(-544.289 1010.442)" fill="#80afc1"/>
          </g>
          <g id="Group_2043" data-name="Group 2043" transform="translate(22.305 12.739) rotate(-49)">
            <path id="Path_1013" data-name="Path 1013" d="M.909.6.36.046A.157.157,0,0,0,.178.017h0A.318.318,0,0,0,0,.358l.119.709L.909.6Z" transform="translate(3.45 0)" fill="#3f6f72"/>
            <path id="Path_1014" data-name="Path 1014" d="M.114,2.451A6.84,6.84,0,0,1,0,1.725C-.005,1.53.071.894.071.894A.821.821,0,0,1,.48.287h0A.464.464,0,0,1,.788.3c.468.181,1.839.823,2.648-.076A.664.664,0,0,1,3.723.035h0a.707.707,0,0,1,.55.046c.607.325,2.088,1.11,2.572,1.273s1.682.149,1.974.59a.5.5,0,0,1,.051.493,10.506,10.506,0,0,1-2.97.644C4.644,3.079.114,2.451.114,2.451Z" transform="translate(0.189 0.504)" fill="#232322"/>
            <path id="Path_1015" data-name="Path 1015" d="M.114,2.451A6.84,6.84,0,0,1,0,1.725C-.005,1.53.071.894.071.894A.821.821,0,0,1,.48.287h0A.464.464,0,0,1,.788.3c.468.181,1.839.823,2.648-.076A.664.664,0,0,1,3.723.035h0a.707.707,0,0,1,.55.046c.607.325,2.088,1.11,2.572,1.273s1.682.149,1.974.59a.5.5,0,0,1,.051.493,10.506,10.506,0,0,1-2.97.644C4.644,3.079.114,2.451.114,2.451Z" transform="translate(0.189 0.504)" fill="#232322"/>
            <path id="Path_1016" data-name="Path 1016" d="M.087,0A.4.4,0,0,0,.071.108S-.005.747,0,.94a6.841,6.841,0,0,0,.114.726s-.027.016.171.043c.455-.249.569-.33.634-.885C.956.493.474.255.087,0Z" transform="translate(0.192 1.289)" fill="#33332f"/>
            <path id="Path_1017" data-name="Path 1017" d="M2.258.7C1.969.263.758.271.284.114.211.089.114.051,0,0V.32a.576.576,0,0,0,.593.6L2.3.78A.284.284,0,0,0,2.258.7Z" transform="translate(6.753 1.741)" fill="#33332f"/>
            <path id="Path_1018" data-name="Path 1018" d="M.157,2.434a.174.174,0,0,1-.081-.022A.158.158,0,0,1,.022,2.2L1.3.076A.161.161,0,0,1,1.514.021a.158.158,0,0,1,.054.217L.293,2.358a.158.158,0,0,1-.135.076Z" transform="translate(2.642 1.149)" fill="#d1ce6c"/>
            <path id="Path_1019" data-name="Path 1019" d="M.157,2.2a.173.173,0,0,1-.081-.022A.158.158,0,0,1,.022,1.96L1.157.076A.161.161,0,0,1,1.373.021a.158.158,0,0,1,.054.217L.293,2.123A.161.161,0,0,1,.157,2.2Z" transform="translate(3.227 1.384)" fill="#d1ce6c"/>
            <path id="Path_1020" data-name="Path 1020" d="M.157,1.963a.174.174,0,0,1-.081-.022.158.158,0,0,1-.054-.217L1.016.076A.161.161,0,0,1,1.232.021a.158.158,0,0,1,.054.217L.293,1.887a.161.161,0,0,1-.135.076Z" transform="translate(3.812 1.62)" fill="#d1ce6c"/>
            <path id="Path_1021" data-name="Path 1021" d="M.157,1.79a.174.174,0,0,1-.081-.022.158.158,0,0,1-.054-.217L.91.076A.161.161,0,0,1,1.127.021a.158.158,0,0,1,.054.217L.293,1.714a.158.158,0,0,1-.135.076Z" transform="translate(4.359 1.853)" fill="#d1ce6c"/>
            <path id="Path_1022" data-name="Path 1022" d="M.157,0A.157.157,0,1,1,0,.157.157.157,0,0,1,.157,0Z" transform="translate(4.676 1.029)" fill="#5ca2b1"/>
            <path id="Path_1023" data-name="Path 1023" d="M.157,0A.157.157,0,1,1,0,.157.154.154,0,0,1,.157,0Z" transform="translate(4.235 0.794)" fill="#5ca2b1"/>
            <path id="Path_1024" data-name="Path 1024" d="M.157,0A.157.157,0,1,1,0,.157.157.157,0,0,1,.157,0Z" transform="translate(5.118 1.265)" fill="#5ca2b1"/>
            <path id="Path_1025" data-name="Path 1025" d="M.157,0A.157.157,0,1,1,0,.157.155.155,0,0,1,.157,0Z" transform="translate(5.562 1.503)" fill="#5ca2b1"/>
            <path id="Path_1026" data-name="Path 1026" d="M.268,0S0,.672,0,.709s.038.533.374.558,3.647.06,4.17.06a21.037,21.037,0,0,0,3.385-.311C8.54.823,8.936.655,9.019.42s.114-.268.084-.3S7.785.42,7.519.433a1.516,1.516,0,0,0-.173.081L6.212.52A2.464,2.464,0,0,0,4.944.328,4.47,4.47,0,0,0,4.4.433C4.294.479,2.613.1,2.51.119s-.241.195-.371.192S.268,0,.268,0Z" transform="translate(0.003 2.792)" fill="#e4e8f4"/>
            <path id="Path_1027" data-name="Path 1027" d="M7.931.893C8.543.7,8.938.532,9.022.3s.114-.268.084-.3a.5.5,0,0,0-.141.019.844.844,0,0,1-.2.425c-.092.046-.574.222-.574.222l-.2.011S7.37.817,7.33.819a.922.922,0,0,0-.192.106A1.444,1.444,0,0,0,6.975.9c-.041,0-.861.108-.861.108S5.935.941,5.925.9A.287.287,0,0,0,5.878.752,2.375,2.375,0,0,0,5.3.562,1.331,1.331,0,0,0,5.12.79a.255.255,0,0,1-.114,0c-.035-.016.03-.2.041-.246S5.026.508,4.736.519s-.875.474-.959.49S2.992.841,2.932.841s-.19.111-.244.116S.977.668.923.66.785.752.634.76A2.728,2.728,0,0,1,.005.57C0,.581,0,.589,0,.592c0,.038.038.533.374.558s3.647.06,4.17.06A22.38,22.38,0,0,0,7.931.893Z" transform="translate(0 2.915)" fill="#c8cddf"/>
          </g>
          <g id="Group_2048" data-name="Group 2048" transform="translate(12.346 8.699)">
            <g id="Group_1296" data-name="Group 1296" transform="translate(0 4.054)">
              <g id="Group_1295" data-name="Group 1295" transform="translate(0 0)">
                <g id="Group_1289" data-name="Group 1289" transform="translate(6.171 0.354)">
                  <g id="Group_1288" data-name="Group 1288">
                    <path id="Path_910" data-name="Path 910" d="M487.328,497.732l-4.228-2.3c.007-.014.014-.021.021-.035l4.228,2.3a.152.152,0,0,0-.021.035" transform="translate(-483.1 -494.366)" fill="#ccb043"/>
                    <path id="Path_911" data-name="Path 911" d="M487.628,495.271l-4.228-2.3a1.213,1.213,0,0,0,.076-.174l4.228,2.3a.632.632,0,0,1-.076.174" transform="translate(-483.379 -491.946)" fill="#c8ad42"/>
                    <path id="Path_912" data-name="Path 912" d="M487.525,483.652l-4.228-2.3a.907.907,0,0,0,.063-.326,1.014,1.014,0,0,0-.16-.528l4.228,2.3a.916.916,0,0,1,.16.528,1.359,1.359,0,0,1-.062.326" transform="translate(-483.193 -480.5)" fill="#c6ab41"/>
                  </g>
                </g>
                <g id="Group_1290" data-name="Group 1290" transform="translate(0 2.284)">
                  <path id="Path_913" data-name="Path 913" d="M398.428,510.931l-4.228-2.3V508.3l4.228,2.3Z" transform="translate(-394.2 -508.3)" fill="#c4aa42"/>
                </g>
                <g id="Group_1291" data-name="Group 1291" transform="translate(0 1.416)">
                  <path id="Path_914" data-name="Path 914" d="M398.428,498.972l-4.228-2.3,6.171-.868,4.228,2.3Z" transform="translate(-394.2 -495.8)" fill="#e0c249"/>
                </g>
                <path id="Path_915" data-name="Path 915" d="M406.8,487.777a.6.6,0,0,1,0,.8l5.512-.8a1.041,1.041,0,0,0,0-.777Z" transform="translate(-405.925 -486.195)" fill="#e6fff5"/>
                <g id="Group_1292" data-name="Group 1292" transform="translate(4.228 2.298)">
                  <path id="Path_916" data-name="Path 916" d="M461.431,508.5l.049.063a1.344,1.344,0,0,1,.264.777,1.537,1.537,0,0,1-.264.812l-.049.069-6.331.889v-.333l6.178-.868a1.1,1.1,0,0,0,.16-.534,1.015,1.015,0,0,0-.16-.528l-6.171.868v-.333Z" transform="translate(-455.1 -508.5)" fill="#f8d651"/>
                </g>
                <g id="Group_1293" data-name="Group 1293" transform="translate(0 0.889)">
                  <path id="Path_917" data-name="Path 917" d="M398.428,490.831l-4.228-2.3V488.2l4.228,2.3Z" transform="translate(-394.2 -488.2)" fill="#c4aa42"/>
                </g>
                <g id="Group_1294" data-name="Group 1294">
                  <path id="Path_918" data-name="Path 918" d="M398.428,478.586l-4.228-2.3,6.331-.889,4.228,2.3Z" transform="translate(-394.2 -475.4)" fill="#e0c249"/>
                </g>
              </g>
              <path id="Path_919" data-name="Path 919" d="M458.5,515.177a.6.6,0,0,1,0,.8l5.512-.8a1.041,1.041,0,0,0,0-.778Z" transform="translate(-454.036 -511.693)" fill="#fdf9db"/>
              <path id="Path_920" data-name="Path 920" d="M406.8,501.323l3.589,1.909s.368-.3,0-.8l-.236.035L406.9,500.7A.543.543,0,0,1,406.8,501.323Z" transform="translate(-405.925 -498.942)" fill="#dbd4ad"/>
            </g>
            <g id="Group_1305" data-name="Group 1305" transform="translate(0.326 2.006)">
              <g id="Group_1304" data-name="Group 1304">
                <g id="Group_1298" data-name="Group 1298" transform="translate(6.171 0.361)">
                  <g id="Group_1297" data-name="Group 1297">
                    <path id="Path_921" data-name="Path 921" d="M492.028,468.232l-4.228-2.3c.007-.014.014-.021.021-.035l4.228,2.3a.154.154,0,0,0-.021.035" transform="translate(-487.8 -464.873)" fill="#bf3838"/>
                    <path id="Path_922" data-name="Path 922" d="M492.328,465.871l-4.228-2.3a1.2,1.2,0,0,0,.076-.174l4.228,2.3a1.218,1.218,0,0,1-.076.173" transform="translate(-488.079 -462.546)" fill="#bb3737"/>
                    <path id="Path_923" data-name="Path 923" d="M492.125,454.252l-4.228-2.3a.906.906,0,0,0,.063-.326,1.014,1.014,0,0,0-.16-.528l4.228,2.3a.916.916,0,0,1,.16.528.934.934,0,0,1-.062.326" transform="translate(-487.8 -451.1)" fill="#b83636"/>
                  </g>
                </g>
                <g id="Group_1299" data-name="Group 1299" transform="translate(0 2.291)">
                  <path id="Path_924" data-name="Path 924" d="M403.128,481.531l-4.228-2.3V478.9l4.228,2.3Z" transform="translate(-398.9 -478.9)" fill="#b63636"/>
                </g>
                <g id="Group_1300" data-name="Group 1300" transform="translate(0 1.423)">
                  <path id="Path_925" data-name="Path 925" d="M403.128,469.565l-4.228-2.3,6.171-.868,4.228,2.3Z" transform="translate(-398.9 -466.4)" fill="#d83f3e"/>
                </g>
                <path id="Path_926" data-name="Path 926" d="M411.5,458.278a.6.6,0,0,1,0,.8l5.512-.8a1.041,1.041,0,0,0,0-.778Z" transform="translate(-410.625 -456.695)" fill="#fdf9db"/>
                <g id="Group_1301" data-name="Group 1301" transform="translate(4.228 2.305)">
                  <path id="Path_927" data-name="Path 927" d="M466.131,479.1l.049.062a1.345,1.345,0,0,1,.264.778,1.538,1.538,0,0,1-.264.812l-.049.069-6.331.889v-.333l6.178-.868a1.1,1.1,0,0,0,.16-.535,1.015,1.015,0,0,0-.16-.528l-6.171.868v-.333Z" transform="translate(-459.8 -479.1)" fill="#f54748"/>
                </g>
                <g id="Group_1302" data-name="Group 1302" transform="translate(0 0.889)">
                  <path id="Path_928" data-name="Path 928" d="M403.128,461.331l-4.228-2.3V458.7l4.228,2.3Z" transform="translate(-398.9 -458.7)" fill="#b63636"/>
                </g>
                <g id="Group_1303" data-name="Group 1303">
                  <path id="Path_929" data-name="Path 929" d="M403.128,449.093l-4.228-2.3,6.331-.889,4.228,2.3Z" transform="translate(-398.9 -445.9)" fill="#d83f3e"/>
                </g>
              </g>
              <path id="Path_930" data-name="Path 930" d="M463.2,485.778a.6.6,0,0,1,0,.8l5.512-.8a1.041,1.041,0,0,0,0-.778Z" transform="translate(-458.736 -482.286)" fill="#fdf9db"/>
              <path id="Path_931" data-name="Path 931" d="M411.5,471.832l3.589,1.909s.368-.3,0-.8l-.236.035L411.6,471.2A.555.555,0,0,1,411.5,471.832Z" transform="translate(-410.625 -469.444)" fill="#dbd4ad"/>
            </g>
            <g id="Group_1314" data-name="Group 1314" transform="translate(0.326 0)">
              <g id="Group_1313" data-name="Group 1313">
                <g id="Group_1307" data-name="Group 1307" transform="translate(6.178 0.361)">
                  <g id="Group_1306" data-name="Group 1306">
                    <path id="Path_932" data-name="Path 932" d="M492.128,439.332l-4.228-2.3c.007-.014.014-.021.021-.035l4.228,2.3a.15.15,0,0,0-.021.035" transform="translate(-487.9 -435.973)" fill="#3860bf"/>
                    <path id="Path_933" data-name="Path 933" d="M492.428,436.971l-4.228-2.3a1.2,1.2,0,0,0,.076-.173l4.228,2.3c-.021.056-.049.111-.076.174" transform="translate(-488.179 -433.646)" fill="#375ebb"/>
                    <path id="Path_934" data-name="Path 934" d="M492.225,425.352l-4.228-2.3a.906.906,0,0,0,.063-.326,1.014,1.014,0,0,0-.16-.528l4.228,2.3a.916.916,0,0,1,.16.528.935.935,0,0,1-.062.326" transform="translate(-487.9 -422.2)" fill="#365cb8"/>
                  </g>
                </g>
                <g id="Group_1308" data-name="Group 1308" transform="translate(0 2.291)">
                  <path id="Path_935" data-name="Path 935" d="M403.128,452.631l-4.228-2.3V450l4.228,2.3Z" transform="translate(-398.9 -450)" fill="#365cb6"/>
                </g>
                <g id="Group_1309" data-name="Group 1309" transform="translate(0 1.423)">
                  <path id="Path_936" data-name="Path 936" d="M403.128,440.666l-4.228-2.3,6.178-.868,4.228,2.3Z" transform="translate(-398.9 -437.5)" fill="#3e69d8"/>
                </g>
                <path id="Path_937" data-name="Path 937" d="M411.5,429.377a.6.6,0,0,1,0,.8l5.512-.8a1.041,1.041,0,0,0,0-.777Z" transform="translate(-410.625 -427.795)" fill="#fddbea"/>
                <g id="Group_1310" data-name="Group 1310" transform="translate(4.235 2.305)">
                  <path id="Path_938" data-name="Path 938" d="M466.231,450.2l.049.063a1.344,1.344,0,0,1,.264.777,1.537,1.537,0,0,1-.264.812l-.049.069-6.331.889v-.333l6.178-.868a1.1,1.1,0,0,0,.16-.535,1.014,1.014,0,0,0-.16-.528l-6.171.868v-.333Z" transform="translate(-459.9 -450.2)" fill="#467bf5"/>
                </g>
                <g id="Group_1311" data-name="Group 1311" transform="translate(0 0.889)">
                  <path id="Path_939" data-name="Path 939" d="M403.128,432.431l-4.228-2.3V429.8l4.234,2.3Z" transform="translate(-398.9 -429.8)" fill="#365cb6"/>
                </g>
                <g id="Group_1312" data-name="Group 1312">
                  <path id="Path_940" data-name="Path 940" d="M403.135,420.193l-4.234-2.3,6.338-.889,4.228,2.3Z" transform="translate(-398.9 -417)" fill="#3e69d8"/>
                </g>
              </g>
              <path id="Path_941" data-name="Path 941" d="M463.3,456.877a.6.6,0,0,1,0,.8l5.512-.8a1.041,1.041,0,0,0,0-.777Z" transform="translate(-458.829 -453.386)" fill="#fdf9db"/>
              <path id="Path_942" data-name="Path 942" d="M411.5,442.932l3.589,1.909s.368-.3,0-.8l-.236.035L411.6,442.3A.543.543,0,0,1,411.5,442.932Z" transform="translate(-410.625 -440.544)" fill="#dbd4ad"/>
            </g>
          </g>
          <g id="Group_2049" data-name="Group 2049" transform="translate(7.429 4.141)">
            <path id="path84" d="M456.879-1074.151a.548.548,0,0,0,.859-.415,9.316,9.316,0,0,0-.552-5.165c-.951-2.681-1.931-5.508-3.426-5.08s.062,4.761.681,6.63,1.271,3.3,2.439,4.031" transform="translate(-451.706 1084.854)" fill="#f6a534"/>
            <path id="path86" d="M472.894-1042.248a1.711,1.711,0,0,0,1.038-1.118s.106-.285-.239-.094-1.331,1.334-.8,1.212" transform="translate(-470.664 1044.897)" fill="#f3e08e"/>
            <path id="path88" d="M493.092-987.8a1.71,1.71,0,0,0,1.038-1.118s.106-.286-.239-.094-1.331,1.334-.8,1.212" transform="translate(-490.192 992.255)" fill="#f3e08e"/>
            <path id="path90" d="M511.25-931.074a1.951,1.951,0,0,0,1.213-1.37s.119-.355-.291-.125-1.559,1.631-.923,1.495" transform="translate(-507.715 937.696)" fill="#f3e08e"/>
            <path id="path92" d="M531.589-871.377a1.916,1.916,0,0,0,1.218-1.454s.112-.383-.306-.146-1.569,1.727-.912,1.6" transform="translate(-527.369 880.081)" fill="#f3e08e"/>
            <g id="Group_1287" data-name="Group 1287" transform="translate(0 4.901)">
              <path id="Path_904" data-name="Path 904" d="M409.458,89.7a1.145,1.145,0,0,1-1.178,0,1.2,1.2,0,0,0-1.18,1.217c0,.673.528,2.179,1.18,2.179a1.145,1.145,0,0,1,1.178,0c.652,0,1.18-1.506,1.18-2.179A1.2,1.2,0,0,0,409.458,89.7Z" transform="translate(-406.882 -88.631)" fill="#f54748"/>
              <g id="Group_1285" data-name="Group 1285" transform="translate(2.137 1.151)">
                <path id="Path_905" data-name="Path 905" d="M481.109,93.116a.083.083,0,0,0,.008-.066.1.1,0,0,0-.039-.053.916.916,0,0,0-.873-.1.671.671,0,0,0-.063.029.087.087,0,1,0,.087.15l.037-.016a.841.841,0,0,1,.181-.05.891.891,0,0,1,.205,0,.834.834,0,0,1,.192.053.741.741,0,0,1,.147.084A.084.084,0,0,0,481.109,93.116Z" transform="translate(-480.1 -92.831)" fill="#fca4a9"/>
                <path id="Path_906" data-name="Path 906" d="M517.549,103.721a.345.345,0,0,0-.079-.095.091.091,0,0,0-.06-.026.076.076,0,0,0-.06.026.087.087,0,0,0,0,.124l.039.039a.088.088,0,0,1,.013.021.089.089,0,0,0,.118.032A.1.1,0,0,0,517.549,103.721Z" transform="translate(-516.345 -103.317)" fill="#fca4a9"/>
              </g>
              <g id="Group_1286" data-name="Group 1286" transform="translate(0.216 1.603)">
                <path id="Path_907" data-name="Path 907" d="M409.495,112.589a1.145,1.145,0,0,0-1.178,0c-.652,0-1.18-1.506-1.18-2.179a1.23,1.23,0,0,1,.068-.41,1.24,1.24,0,0,0-.205.686c0,.673.528,2.179,1.18,2.179a1.145,1.145,0,0,1,1.178,0c.342,0,.649-.413.865-.9C410.023,112.321,409.771,112.589,409.495,112.589Z" transform="translate(-407 -110)" fill="#d6252e"/>
              </g>
              <path id="Path_908" data-name="Path 908" d="M467.471,49.07a.056.056,0,0,0-.042.032.511.511,0,0,0-.029.081.934.934,0,0,0-.024.258,2.264,2.264,0,0,0,.142.744c.021.053.066.066.1.029h0a.121.121,0,0,0,.026-.068c.008-.058,0-.116,0-.171.024-.231.047-.46.071-.691l0-.029a.515.515,0,0,0,0-.168c-.008-.034-.034-.055-.06-.047C467.6,49.052,467.535,49.062,467.471,49.07Z" transform="translate(-465.574 -49.037)" fill="#603913"/>
              <path id="Path_909" data-name="Path 909" d="M399.286,62.283a1.03,1.03,0,0,1,.849.039,1.147,1.147,0,0,1,.555.649.563.563,0,0,0-.344-.092,2.749,2.749,0,0,0-.36.045,1.432,1.432,0,0,1-.707-.047.749.749,0,0,1-.478-.494.348.348,0,0,0,.252,0C399.131,62.359,399.207,62.314,399.286,62.283Z" transform="translate(-398.8 -61.863)" fill="#9dc954"/>
            </g>
          </g>
          <g id="g404" transform="translate(19.184 9.456)">
            <path id="path406" d="M0-35.278l14.27-5.947v21.094L0-14.2Z" transform="translate(0 41.225)" fill="#0378d5"/>
          </g>
          <g id="g784" transform="translate(15.53 9.119)">
            <g id="Group_2017" data-name="Group 2017" transform="translate(0 0)">
              <g id="g896" transform="translate(3.654 2.116)">
                <path id="path898" d="M0-23.868l12.347-4.024,4.579,4.012-12.012,5.9Z" transform="translate(0 27.892)" fill="#e7e8e9"/>
              </g>
              <g id="g900" transform="translate(3.654 0.192)">
                <path id="path902" d="M0-35.278l14.27-5.947,4.914,6.1L4.915-29.194Z" transform="translate(0 41.225)" fill="#e7e8e9"/>
              </g>
            </g>
          </g>
          <g id="g384" transform="translate(4.914 9.457)">
            <path id="path386" d="M-84.653-35.278l-14.27-5.947v21.094l14.27,5.931Z" transform="translate(98.924 41.225)" fill="#008af6"/>
          </g>
          <g id="g730" transform="translate(0 9.457)">
            <path id="path732" d="M-113.8-35.278l-14.27-5.947-4.914,6.1,14.27,5.931Z" transform="translate(132.989 41.225)" fill="#e7e8e9"/>
          </g>
          <g id="Group_2044" data-name="Group 2044" transform="translate(5.276 27.161)">
            <g id="g5398">
              <g id="g5396" opacity="0.9" clip-path="url(#clip-path-4)">
                <g id="g5394" transform="translate(0 0)">
                  <path id="path5392" d="M-22.957-24.6l-4.517-1.875V-29.44l4.517,1.875Z" transform="translate(27.475 29.44)" fill="#fff"/>
                </g>
              </g>
            </g>
            <g id="g5400" transform="translate(0.38 0.435)">
              <path id="path5402" d="M-13.529-15.526l.031.013v-1.95l-.031-.013Zm-.141-.059.068.028v-1.95l-.068-.028Zm-.25-.1.177.074v-1.95l-.177-.074Zm-.214-.089.141.059v-1.95l-.141-.058Zm1.028.427.068.028v-1.95l-.068-.028Zm.141.059.178.074v-1.95l-.178-.074Zm.251.1.141.058v-1.95l-.141-.058Zm-.71-.295.141.058v-1.95l-.141-.058Zm.214.089.031.013v-1.95l-.031-.013Zm-1.065-.442.068.028v-1.95l-.068-.028ZM-12.5-17.05v2.316l.068.028v-2.316Zm-3.335.566.177.074v-1.95l-.177-.074Zm.251.1.068.028V-18.3l-.068-.028Zm.141.059.031.013v-1.95l-.031-.013Zm-.605-.251.141.059v-1.95l-.141-.059Zm-.141.307.068.028v-2.316l-.068-.028Zm1.169.119.068.028v-1.95l-.068-.028Zm-.318-.132.141.059v-1.95l-.141-.059Zm.71.295.141.058v-1.95l-.141-.059Zm-.251-.1.178.074v-1.95l-.178-.074Zm.465.193.068.028v-1.95l-.068-.028Zm-.71-.294.031.013v-1.95l-.031-.013Z" transform="translate(16.191 18.581)" fill="#373535"/>
            </g>
          </g>
        </g>
      </g>
    </g>
  </g>
</svg>
