<svg xmlns="http://www.w3.org/2000/svg" viewBox="0 0 163 105.86"><title>camera</title><g id="Layer_2" data-name="Layer 2"><g id="Layer_1-2" data-name="Layer 1"><g id="Group_2169" data-name="Group 2169"><g id="Group_1955" data-name="Group 1955"><g id="Group_1954" data-name="Group 1954"><path id="Path_1298" data-name="Path 1298" d="M69.64,0C114.65,0,163,22,163,51.86c0,17.3-21.91,13.06-41.26,23.07-13.57,7-21.34,30.93-40.24,30.93-45,0-81.5-24.18-81.5-54S24.62,0,69.64,0Z" style="fill:#e9f5fc"/><g id="Group_1952" data-name="Group 1952"><g id="Ellipse_132" data-name="Ellipse 132"><circle cx="126.5" cy="74.36" r="6.5" style="fill:none"/><circle cx="126.5" cy="74.36" r="5.5" style="fill:none;stroke:#4281c3;stroke-width:2px"/></g><g id="Polygon_13" data-name="Polygon 13"><path d="M148.5,15.86l7.5,13H141Z" style="fill:none"/><path d="M148.5,19.86l-4,7h8.08l-4-7m0-4,7.5,13H141Z" style="fill:#f68720"/></g><g id="Rectangle_487" data-name="Rectangle 487"><rect x="13" y="9.86" width="13" height="13" style="fill:none"/><rect x="14" y="10.86" width="11" height="11" style="fill:none;stroke:#2fb55d;stroke-width:2px"/></g><g id="Group_1899" data-name="Group 1899"><path id="Path_1288" data-name="Path 1288" d="M40,91.13,31.65,85.7" style="fill:none;stroke:#ed1e24;stroke-linecap:round;stroke-miterlimit:4.0018915443327465;stroke-width:2.0009457721663733px"/><path id="Path_1289" data-name="Path 1289" d="M38.54,84.24,33.11,92.6" style="fill:none;stroke:#ed1e24;stroke-linecap:round;stroke-miterlimit:4.0018915443327465;stroke-width:2.0009457721663733px"/></g></g></g></g><g id="Group_2168" data-name="Group 2168"><g id="Group_2167" data-name="Group 2167"><g id="Group_2165" data-name="Group 2165"><path id="Path_1381" data-name="Path 1381" d="M71.23,25.61h.11c0-.59-.13-1.53-.6-1.75-2.21-1-7.25-.68-8.11,0a3.5,3.5,0,0,0-1.14,1.59h.94C65.38,25.39,68.49,25.5,71.23,25.61Z" style="fill:#728fa7"/><path id="Path_1382" data-name="Path 1382" d="M70.21,31.41a1,1,0,0,0-.95.95v.08a1,1,0,0,0,.23.68,1,1,0,0,0,.72.28.94.94,0,0,0,1-.87.28.28,0,0,0,0-.13.93.93,0,0,0-.86-1Z" style="fill:#f15d5f"/><path id="Path_1383" data-name="Path 1383" d="M88.05,34.88h-.18C80.53,35,77,40.6,76.71,46.15A11.29,11.29,0,0,0,79.76,54a10.73,10.73,0,0,0,8.07,3.22c7.86,0,11.38-5.77,11.38-11.47A10.7,10.7,0,0,0,88.75,34.87Z" style="fill:#fcb817"/><path id="Path_1384" data-name="Path 1384" d="M88.08,30.52h-.25c-10.19.13-15.13,7.94-15.5,15.65a15.58,15.58,0,0,0,4.23,10.94,15,15,0,0,0,11.21,4.47c10.93,0,15.8-8,15.8-15.93C103.57,38.13,98.25,30.52,88.08,30.52Zm-.27,27.71A11.79,11.79,0,0,1,79,54.72a12.24,12.24,0,0,1-3.32-8.62c.3-6,4.16-12.12,12.15-12.22h.19c8,0,12.14,6,12.14,11.88,0,6.21-3.83,12.47-12.38,12.47Z" style="fill:#fff"/><path id="Path_1385" data-name="Path 1385" d="M101.69,26.74c-2.25,0-4.19.16-4.2.16a.53.53,0,0,1-.47-.25c-.73-1.27-2.84-4.69-3.73-5.35-.35-.26-1.7-.53-4.46-.53a25.84,25.84,0,0,0-5.69.48,42.56,42.56,0,0,0-5.31,5.26.64.64,0,0,1-.22.14,5.59,5.59,0,0,1-1.58.11c-1.16,0-2.86-.07-4.83-.14-2.73-.1-5.85-.22-8.75-.22-6.16,0-8,.54-8.52,1-2,1.87-4.6,32-1.41,37.5.85.81,11.69,1.72,26.43,1.72,12.27,0,22.45-.63,27.9-1.72.44-.13,1.35-.82,2.11-4,2.33-9.67.88-31.81-.58-33.12C107.9,27.4,106.4,26.74,101.69,26.74Zm-17-1.83h6.75a.5.5,0,0,1,0,1H84.7a.5.5,0,0,1,0-1Zm-21.49,35a.5.5,0,0,1-1,0V32a.5.5,0,1,1,1,0Zm5.53-26.12a2,2,0,0,1-.48-1.35,2,2,0,0,1,1.88-2h.07a2,2,0,0,1,0,4A1.83,1.83,0,0,1,68.74,33.77Zm19,28.8a16,16,0,0,1-11.93-4.78,16.56,16.56,0,0,1-4.5-11.67c.39-8.18,5.64-16.48,16.49-16.6h.27c10.83,0,16.49,8.11,16.49,16.11,0,8.45-5.21,16.95-16.82,16.95Z" style="fill:#4281c3"/><path id="Path_1386" data-name="Path 1386" d="M109,27c-1-.84-3.49-1.27-7.32-1.27-1.75,0-3.33.1-4,.15-.64-1.07-2.77-4.57-3.84-5.38-.66-.49-2.35-.74-5-.74a26.29,26.29,0,0,0-6.07.55c-1,.39-4.6,4.32-5.58,5.38a11.43,11.43,0,0,1-1.17,0c-.91,0-2.19,0-3.67-.09,0-.66-.08-2.19-1.17-2.69-2.5-1.18-8-.82-9.13.05a4.67,4.67,0,0,0-1.6,2.41c-4.14.09-6.39.48-7.19,1.25-2.61,2.48-4.69,33.38-1.56,38.76C53.22,67.6,77.9,67.63,79,67.63c12.33,0,22.57-.63,28.12-1.75,1.31-.36,2.3-2.1,3-5.32C112.12,51,111.05,28.69,109,27Zm-46.38-3.2c.85-.64,5.88-1,8.11.05.47.22.6,1.15.6,1.75h-.11c-2.75-.1-5.86-.22-8.79-.22h-.93a3.31,3.31,0,0,1,1.12-1.58ZM109,60.93c-.77,3.17-1.67,3.86-2.11,4C101.39,66,91.23,66.63,79,66.63c-14.74,0-25.59-.92-26.43-1.72-3.19-5.47-.56-35.62,1.41-37.5.48-.45,2.34-1,8.51-1,2.91,0,6,.11,8.76.22,2,.08,3.67.14,4.83.14a6,6,0,0,0,1.58-.11.6.6,0,0,0,.21-.14,44,44,0,0,1,5.32-5.25,25.84,25.84,0,0,1,5.69-.48c2.75,0,4.1.28,4.45.53.89.67,3,4.1,3.74,5.34a.51.51,0,0,0,.47.25s2-.15,4.2-.15c4.7,0,6.2.65,6.67,1,1.47,1.31,2.91,23.43.6,33.12Z" style="fill:#fff"/><path id="Path_1387" data-name="Path 1387" d="M88.08,29.52h-.27c-10.85.13-16.08,8.42-16.49,16.6a16.69,16.69,0,0,0,4.5,11.68,16,16,0,0,0,11.93,4.78c11.61,0,16.8-8.5,16.8-16.93C104.57,37.63,98.91,29.52,88.08,29.52Zm-.32,32.06a15,15,0,0,1-11.2-4.47,15.55,15.55,0,0,1-4.24-10.94c.38-7.71,5.32-15.52,15.5-15.65h.25c10.18,0,15.49,7.61,15.49,15.12C103.57,53.58,98.69,61.58,87.76,61.58Z" style="fill:#fff"/><path id="Path_1388" data-name="Path 1388" d="M88.05,33.88h-.19C79.87,34,76,40.09,75.71,46.1A12.24,12.24,0,0,0,79,54.72a11.79,11.79,0,0,0,8.78,3.51c8.55,0,12.38-6.26,12.38-12.47C100.19,39.85,96,33.88,88.05,33.88Zm-.24,23.35A10.65,10.65,0,0,1,79.75,54a11.22,11.22,0,0,1-3-7.87c.27-5.55,3.83-11.2,11.16-11.27H88A10.67,10.67,0,0,1,99.18,45c0,.24,0,.48,0,.71,0,5.73-3.52,11.49-11.38,11.49Z" style="fill:#5c423f"/><path id="Path_1389" data-name="Path 1389" d="M62.71,31.54a.49.49,0,0,0-.5.49h0V59.91a.5.5,0,0,0,1,0V32a.48.48,0,0,0-.5-.48Z" style="fill:#4281c3"/><path id="Path_1390" data-name="Path 1390" d="M72.21,32.4a1.93,1.93,0,0,0-1.86-2h-.14a2,2,0,0,0-1.95,2v.07a2,2,0,0,0,.48,1.34,1.88,1.88,0,0,0,1.47.63,1.93,1.93,0,0,0,2-1.87Zm-2,1a1,1,0,0,1-.72-.28,1,1,0,0,1-.23-.68,1,1,0,0,1,.87-1h.08a.94.94,0,0,1,1,.87.28.28,0,0,1,0,.13.93.93,0,0,1-.86,1Z" style="fill:#fff"/><path id="Path_1391" data-name="Path 1391" d="M84.7,25.91h6.75a.5.5,0,0,0,0-1H84.7a.5.5,0,0,0-.5.49h0A.5.5,0,0,0,84.7,25.91Z" style="fill:#fff"/></g><g id="Group_2166" data-name="Group 2166"><path id="Path_1438" data-name="Path 1438" d="M97.84,45.54a7.46,7.46,0,0,1-1.3,4.89" style="fill:none;stroke:#fff;stroke-linecap:round;stroke-miterlimit:4.000577958308348"/><path id="Path_1439" data-name="Path 1439" d="M97.47,42.05a2.74,2.74,0,0,1,.31,1.46" style="fill:none;stroke:#fff;stroke-linecap:round;stroke-miterlimit:4.000577958308348"/></g></g><path id="Path_1440" data-name="Path 1440" d="M52.37,34.77l6.18,2.1s1.22.35,1.28.81a9.15,9.15,0,0,1,0,1.48l-.16,7.38v8.25a3.72,3.72,0,0,1-.22,1.52,6,6,0,0,1-1.25.87l-6.7,3.46" style="fill:none;stroke:#fff;stroke-linecap:round"/></g></g></g></g></svg>