<svg xmlns="http://www.w3.org/2000/svg" width="25.211" height="20.589" viewBox="0 0 25.211 20.589">
  <g id="Group_1409" data-name="Group 1409" transform="translate(-107.507 -281.718)">
    <g id="Group_1183" data-name="Group 1183" transform="translate(107.507 281.718)">
      <g id="photo-camera">
        <path id="Path_818" data-name="Path 818" d="M23.042,20.5a5.042,5.042,0,1,0,5.042,5.042A5.048,5.048,0,0,0,23.042,20.5Z" transform="translate(-10.437 -14.197)" fill="#c9c9c9"/>
        <path id="Path_819" data-name="Path 819" d="M23.195,9.7H19.613L17.932,5.5H7.279L5.6,9.7H5.042V7.6H2.521V9.7h-.5A2.018,2.018,0,0,0,0,11.718v12.34a2.033,2.033,0,0,0,2.031,2.031h21.15a2.033,2.033,0,0,0,2.031-2.031V11.718A2.018,2.018,0,0,0,23.195,9.7ZM4.2,9.7h-.84V8.441H4.2Zm8.4,14.707a7.563,7.563,0,1,1,7.563-7.563A7.572,7.572,0,0,1,12.606,24.409Zm9.244-9.664a1.681,1.681,0,1,1,1.681-1.681A1.682,1.682,0,0,1,21.85,14.744Z" transform="translate(0 -5.5)" fill="#c9c9c9"/>
      </g>
    </g>
  </g>
</svg>
