<svg xmlns="http://www.w3.org/2000/svg" width="31.813" height="26.547" viewBox="0 0 31.813 26.547">
  <g id="Group_2999" data-name="Group 2999" transform="translate(-172.7 -114.1)">
    <path id="Path_1029" data-name="Path 1029" d="M200.344,140H176.854a4.156,4.156,0,0,0-4.154,4.154v14.239a4.156,4.156,0,0,0,4.154,4.154h23.5a4.156,4.156,0,0,0,4.154-4.154V144.154A4.179,4.179,0,0,0,200.344,140Z" transform="translate(0 -21.9)" fill="#008af6"/>
    <circle id="Ellipse_95" data-name="Ellipse 95" cx="8.741" cy="8.741" r="8.741" transform="translate(179.85 120.633)" fill="#fff"/>
    <path id="Path_1031" data-name="Path 1031" d="M6.455,0A6.455,6.455,0,1,1,0,6.455,6.455,6.455,0,0,1,6.455,0Z" transform="translate(182.136 122.918)" fill="#00549e"/>
    <circle id="Ellipse_97" data-name="Ellipse 97" cx="1.066" cy="1.066" r="1.066" transform="translate(198.213 120.231)" fill="#ffb948"/>
    <path id="Path_1030" data-name="Path 1030" d="M240.255,114.1h-9.467a1.731,1.731,0,0,0-1.467.8l-1.421,2.239h15.274l-1.421-2.239A1.869,1.869,0,0,0,240.255,114.1Z" transform="translate(-46.675 0)" fill="#007eba"/>
    <circle id="Ellipse_98" data-name="Ellipse 98" cx="1.328" cy="1.328" r="1.328" transform="translate(185.225 126.223)" fill="#fff"/>
    <circle id="Ellipse_99" data-name="Ellipse 99" cx="1.992" cy="1.992" r="1.992" transform="translate(187.819 128.818)" fill="#fff"/>
  </g>
</svg>
