<svg xmlns="http://www.w3.org/2000/svg" viewBox="0 0 168.89 97.91"><title>cash</title><g id="Layer_2" data-name="Layer 2"><g id="Layer_1-2" data-name="Layer 1"><g id="business-and-finance"><path id="Path_4880" data-name="Path 4880" d="M161.18,95.45H7.72a5.24,5.24,0,0,1-5.24-5.24h0V7.73A5.24,5.24,0,0,1,7.72,2.49H161.18a5.24,5.24,0,0,1,5.25,5.24h0V90.21a5.25,5.25,0,0,1-5.24,5.24Z" fill="#d0eaff"/><path id="Path_4881" data-name="Path 4881" d="M161.18,2.48h-6.94a5.23,5.23,0,0,1,5.24,5.24V90.19a5.24,5.24,0,0,1-5.24,5.25h6.94a5.24,5.24,0,0,0,5.24-5.25V7.73a5.23,5.23,0,0,0-5.22-5.25Z" fill="#b5deff"/><path id="Path_4882" data-name="Path 4882" d="M148.93,68.7V29.24a9.49,9.49,0,0,1-9.49-9.49h-110A9.49,9.49,0,0,1,20,29.24h0V68.7a9.49,9.49,0,0,1,9.48,9.49h110a9.49,9.49,0,0,1,9.49-9.49Z" fill="#b5deff"/><path id="Path_4883" data-name="Path 4883" d="M139.45,19.75H131a9.47,9.47,0,0,0,3.47,7.33,17,17,0,0,1,6,13.2V57.67a17.05,17.05,0,0,1-6,13.21A9.43,9.43,0,0,0,131,78.2h8.46a9.48,9.48,0,0,1,9.48-9.48V29.24A9.49,9.49,0,0,1,139.45,19.75Z" fill="#98cefa"/><circle id="Ellipse_354" data-name="Ellipse 354" cx="84.45" cy="48.97" r="37.13" fill="#d0eaff"/><path id="Path_4884" data-name="Path 4884" d="M84.45,11.83a39.25,39.25,0,0,0-4,.22,37.14,37.14,0,0,1,0,73.83,37.13,37.13,0,0,0,8.41-73.79,35.29,35.29,0,0,0-4.36-.24Z" fill="#b5deff"/><g id="Group_4249" data-name="Group 4249"><path id="Path_4885" data-name="Path 4885" d="M17.49,68.7A2.48,2.48,0,0,0,20,71.18a7,7,0,0,1,7,7,2.48,2.48,0,0,0,2.48,2.47H60.73a39.51,39.51,0,0,0,47.46,0h31.26a2.48,2.48,0,0,0,2.48-2.47,7,7,0,0,1,7-7,2.47,2.47,0,0,0,2.47-2.48V51.53a2.47,2.47,0,0,0-4.94,0v15a12,12,0,0,0-9.23,9.23h-23.6a39.54,39.54,0,0,0,0-53.49h23.59a12,12,0,0,0,9.23,9.23V41.63a2.48,2.48,0,0,0,4.95,0V29.22a2.48,2.48,0,0,0-2.48-2.47,7,7,0,0,1-7-7,2.48,2.48,0,0,0-2.48-2.48H108.18a39.54,39.54,0,0,0-47.46,0H29.45A2.47,2.47,0,0,0,27,19.74a7,7,0,0,1-7,7,2.48,2.48,0,0,0-2.48,2.47Zm5-37.25a12,12,0,0,0,9.23-9.23H55.26a39.61,39.61,0,0,0-9.15,36.69,2.47,2.47,0,0,0,4.78-1.24,34.7,34.7,0,1,1,3.54,8.62,2.48,2.48,0,0,0-4.29,2.48,39.92,39.92,0,0,0,5.11,6.94H31.65a12,12,0,0,0-9.22-9.23Z" fill="#00549e"/><path id="Path_4887" data-name="Path 4887" d="M161.18,0H24.91a2.48,2.48,0,0,0,0,5H161.18A2.78,2.78,0,0,1,164,7.72V90.19A2.78,2.78,0,0,1,161.18,93H7.71a2.78,2.78,0,0,1-2.77-2.77V7.73A2.78,2.78,0,0,1,7.71,5H15A2.47,2.47,0,0,0,15,0H7.71A7.71,7.71,0,0,0,0,7.73V90.2a7.71,7.71,0,0,0,7.71,7.71H161.18a7.71,7.71,0,0,0,7.71-7.71V7.73A7.71,7.71,0,0,0,161.18,0Z" fill="#00549e"/><g id="Rp" style="isolation:isolate"><text transform="translate(72.88 55.15)" font-size="23.14" fill="#00549e" font-family="Roboto-Bold, Roboto" font-weight="700" style="isolation:isolate">Rp</text></g></g></g></g></g></svg>