<svg xmlns="http://www.w3.org/2000/svg" viewBox="0 0 20.73 19.08"><title>chat_white</title><g id="Layer_2" data-name="Layer 2"><g id="Layer_1-2" data-name="Layer 1"><g id="comment"><path id="Path_460" data-name="Path 460" d="M17.88,0h-15A2.86,2.86,0,0,0,0,2.85v9.2A2.85,2.85,0,0,0,2.84,14.9v4.18l6-4.18h9a2.85,2.85,0,0,0,2.85-2.85V2.85A2.85,2.85,0,0,0,17.88,0Zm1.64,12.05a1.65,1.65,0,0,1-1.64,1.64H8.46l-4.4,3.06V13.69H2.86a1.65,1.65,0,0,1-1.64-1.64V2.85A1.63,1.63,0,0,1,2.85,1.22h15a1.63,1.63,0,0,1,1.64,1.63Z" style="fill:#fff"/><path id="Path_461" data-name="Path 461" d="M5.55,4.29h9.63V5.51H5.55Z" style="fill:#fff"/><path id="Path_462" data-name="Path 462" d="M5.55,6.88h9.63V8.1H5.55Z" style="fill:#fff"/><path id="Path_463" data-name="Path 463" d="M5.55,9.48h9.63v1.21H5.55Z" style="fill:#fff"/></g></g></g></svg>