<svg xmlns="http://www.w3.org/2000/svg" viewBox="0 0 18.71 18.71"><title>check</title><g id="Layer_2" data-name="Layer 2"><g id="Layer_1-2" data-name="Layer 1"><g id="Group_4073" data-name="Group 4073"><g id="Group_4072" data-name="Group 4072"><path id="Path_4828" data-name="Path 4828" d="M15.94,2.71a9.36,9.36,0,1,0,.06.06ZM9.32,17.58a8.26,8.26,0,1,1,8.26-8.26A8.25,8.25,0,0,1,9.32,17.58Z" style="fill:#fff"/></g></g><g id="Group_4075" data-name="Group 4075"><g id="Group_4074" data-name="Group 4074"><path id="Path_4829" data-name="Path 4829" d="M13.79,6.32a.55.55,0,0,0-.77,0h0L8.18,11.16,5.63,8.61a.55.55,0,0,0-.77,0,.54.54,0,0,0,0,.78l2.93,2.93a.54.54,0,0,0,.78,0h0l5.22-5.23A.53.53,0,0,0,13.79,6.32Z" style="fill:#fff"/></g></g></g></g></svg>