<svg xmlns="http://www.w3.org/2000/svg" viewBox="0 0 20.41 21.01"><title>coin_bronze</title><g id="Layer_2" data-name="Layer 2"><g id="Layer_1-2" data-name="Layer 1"><g id="third"><path id="Path_564" data-name="Path 564" d="M10.2,21a10.2,10.2,0,1,1,10.2-10.2A10.2,10.2,0,0,1,10.2,21Z" style="fill:#d89e77"/><circle id="Ellipse_77" data-name="Ellipse 77" cx="10.2" cy="10.19" r="9.56" style="fill:#d88b55"/><g id="Group_1050" data-name="Group 1050"><path id="Path_565" data-name="Path 565" d="M1.77,11.35A9.55,9.55,0,0,1,17.48,4,9.42,9.42,0,0,0,10.21.64,9.55,9.55,0,0,0,4.05,17.51,9.35,9.35,0,0,1,1.77,11.35Z" style="fill:#cc7e47"/><path id="Path_566" data-name="Path 566" d="M17,3.46A9.57,9.57,0,1,1,3.52,17.08.6.6,0,0,1,3.44,17" style="fill:#cc7e47"/></g><path id="Path_567" data-name="Path 567" d="M10.2,20.4A10.2,10.2,0,1,1,20.4,10.2h0A10.23,10.23,0,0,1,10.2,20.4Zm0-19.12a8.92,8.92,0,1,0,8.92,8.91A8.93,8.93,0,0,0,10.2,1.28Z" style="fill:#f7c7a5"/><g id="Group_1051" data-name="Group 1051"><path id="Path_568" data-name="Path 568" d="M20.41,10.19a10.09,10.09,0,0,0-2.52-6.7A10.2,10.2,0,0,0,6.39,2.17a8.53,8.53,0,0,1,3.81-.89A8.94,8.94,0,0,1,17,4.41,9,9,0,0,1,19.21,15,10.28,10.28,0,0,0,20.41,10.19Z" style="fill:#e8b18b"/><path id="Path_569" data-name="Path 569" d="M1,11.18a10.07,10.07,0,0,0,2.52,6.7,10.16,10.16,0,0,0,11.46,1.33A8.92,8.92,0,0,1,4.35,16.93,8.9,8.9,0,0,1,2.08,6.35,11.41,11.41,0,0,0,1,11.18Z" style="fill:#e8b18b"/></g><g id="Group_1052" data-name="Group 1052"><path id="Path_570" data-name="Path 570" d="M10.27.94A.07.07,0,0,1,10.2,1h0a.07.07,0,0,1-.06-.07V.3A.07.07,0,0,1,10.2.23h0a.07.07,0,0,1,.07.07Z" style="fill:#fedbc5"/><path id="Path_571" data-name="Path 571" d="M10.27,20.13a.08.08,0,0,1-.07.07h0a.09.09,0,0,1-.06-.07v-.65a.09.09,0,0,1,.06-.07h0a.08.08,0,0,1,.07.07Z" style="fill:#fedbc5"/><path id="Path_572" data-name="Path 572" d="M16.8,3.73a.06.06,0,0,1-.09,0h0a.07.07,0,0,1,0-.09h0l.48-.48a.07.07,0,0,1,.09,0h0a.06.06,0,0,1,0,.09h0Z" style="fill:#fedbc5"/><path id="Path_573" data-name="Path 573" d="M3.27,17.27s-.07,0-.09,0h0s0-.07,0-.09h0l.47-.48a.06.06,0,0,1,.09,0h0a.06.06,0,0,1,0,.09h0Z" style="fill:#fedbc5"/><path id="Path_574" data-name="Path 574" d="M19.46,10.3s-.07,0-.07-.07h0a.07.07,0,0,1,.07-.07h.64a.07.07,0,0,1,.07.07h0s0,.06-.07.07Z" style="fill:#fedbc5"/><path id="Path_575" data-name="Path 575" d="M.31,10.3a.07.07,0,0,1-.07-.07h0a.07.07,0,0,1,.07-.07H1s.07,0,.07,0H1a.07.07,0,0,1-.07.06H.31Z" style="fill:#fedbc5"/><path id="Path_576" data-name="Path 576" d="M16.7,16.83a.06.06,0,0,1,0-.09h0a.06.06,0,0,1,.09,0h0l.48.47a.06.06,0,0,1,0,.09h0a.07.07,0,0,1-.09,0v0Z" style="fill:#fedbc5"/><path id="Path_577" data-name="Path 577" d="M3.13,3.26a.06.06,0,0,1,0-.09h0a.06.06,0,0,1,.09,0h0l.48.47s0,.07,0,.09h0s-.07,0-.09,0h0Z" style="fill:#fedbc5"/><path id="Path_578" data-name="Path 578" d="M5.65,2.17a.07.07,0,0,1,0,.09h0a.07.07,0,0,1-.09,0,0,0,0,0,1,0,0l-.34-.57a.07.07,0,0,1,0-.09s0,0,0,0h0a.06.06,0,0,1,.09,0s0,0,0,0Z" style="fill:#fedbc5"/><path id="Path_579" data-name="Path 579" d="M15.24,18.77a.07.07,0,0,1,0,.09h0s-.06,0-.09,0a0,0,0,0,0,0,0l-.34-.57a.08.08,0,0,1,0-.1h0a.07.07,0,0,1,.09,0s0,0,0,0Z" style="fill:#fedbc5"/><path id="Path_580" data-name="Path 580" d="M12.69,1.28s-.07.07-.1.07h0s-.07-.07-.07-.1L12.69.6s.07-.06.1-.06h0s.07.06.07.1Z" style="fill:#fedbc5"/><path id="Path_581" data-name="Path 581" d="M7.72,19.79s-.07.06-.1.06h0s-.07-.06-.07-.1l.17-.64s.07-.07.1-.07h0s.07.07.07.1Z" style="fill:#fedbc5"/><path id="Path_582" data-name="Path 582" d="M18.27,5.64a.07.07,0,0,1-.09,0s0,0,0,0h0a.06.06,0,0,1,0-.09h0l.58-.34a.07.07,0,0,1,.09,0v0h0a.07.07,0,0,1,0,.09h0Z" style="fill:#fedbc5"/><path id="Path_583" data-name="Path 583" d="M1.67,15.23a.07.07,0,0,1-.09,0,0,0,0,0,1,0,0h0a.06.06,0,0,1,0-.09h0l.58-.34a.06.06,0,0,1,.09,0v0h0a.07.07,0,0,1,0,.09h0Z" style="fill:#fedbc5"/><path id="Path_584" data-name="Path 584" d="M19.12,12.68s-.07-.07-.07-.1h0s.07-.07.1-.07l.64.17s.07.07.07.1h0s-.07.07-.1.07Z" style="fill:#fedbc5"/><path id="Path_585" data-name="Path 585" d="M.61,7.71s-.07-.07-.07-.1h0s.07-.07.1-.07l.65.17s.07.07.07.1h0s-.07.07-.1.07Z" style="fill:#fedbc5"/><path id="Path_586" data-name="Path 586" d="M2.25,5.5s.06.07,0,.1h0s-.07.07-.1,0L1.6,5.3s-.07-.07,0-.1h0s.07-.07.1,0Z" style="fill:#fedbc5"/><path id="Path_587" data-name="Path 587" d="M18.84,15.09s.07.07,0,.1h0s-.07.07-.1,0l-.58-.34s-.07-.07,0-.1h0s.06-.07.1,0Z" style="fill:#fedbc5"/><path id="Path_588" data-name="Path 588" d="M7.89,1.25s0,.1-.07.1h0s-.1,0-.1-.07L7.55.63s0-.1.07-.1h0s.1,0,.1.07Z" style="fill:#fedbc5"/><path id="Path_589" data-name="Path 589" d="M12.86,19.75s0,.1-.07.1h0s-.1,0-.1-.07l-.17-.64s0-.1.07-.1h0s.1,0,.1.07Z" style="fill:#fedbc5"/><path id="Path_590" data-name="Path 590" d="M14.9,2.24s-.07.06-.1,0h0s-.07-.07,0-.1l.34-.58s.07-.07.1,0h0s.07.07,0,.1Z" style="fill:#fedbc5"/><path id="Path_591" data-name="Path 591" d="M5.31,18.83s-.07.07-.1,0h0s-.07-.07,0-.1l.34-.58s.07-.07.1,0h0s.07.06,0,.1Z" style="fill:#fedbc5"/><path id="Path_592" data-name="Path 592" d="M19.15,7.88s-.1,0-.1-.07h0s0-.1.07-.1l.64-.17s.1,0,.1.07h0s0,.1-.07.1Z" style="fill:#fedbc5"/><path id="Path_593" data-name="Path 593" d="M.64,12.85s-.1,0-.1-.07h0s0-.1.07-.1l.65-.17s.1,0,.1.07h0s0,.1-.07.1Z" style="fill:#fedbc5"/><path id="Path_594" data-name="Path 594" d="M12.14,10.47a2.46,2.46,0,0,0,.78-1.84A2.64,2.64,0,0,0,10.23,6l-.26,0a4.67,4.67,0,0,0-2.52.74.65.65,0,0,0-.24.75l.27.78a.69.69,0,0,0,.41.41.6.6,0,0,0,.58-.1,2.31,2.31,0,0,1,1.22-.41c.75,0,.75.41.75.58,0,.58-.85.72-1.15.72H8.68a.65.65,0,0,0-.65.64V11a.65.65,0,0,0,.65.64h.61c.34,0,1.43.07,1.43,1a.81.81,0,0,1-.24.61,1.38,1.38,0,0,1-1,.31,2.86,2.86,0,0,1-1.43-.41.7.7,0,0,0-.58-.07.62.62,0,0,0-.41.41l-.3.85a.65.65,0,0,0,.27.78,4.78,4.78,0,0,0,2.45.65c2.48,0,3.6-1.6,3.6-3.1A2.35,2.35,0,0,0,12.14,10.47Z" style="fill:#fedbc5"/></g><path id="Path_595" data-name="Path 595" d="M8.75,11.66h.61c.34,0,1.43.07,1.43,1a.85.85,0,0,1-.24.62,1.42,1.42,0,0,1-1,.3,2.86,2.86,0,0,1-1.43-.41.7.7,0,0,0-.58-.06.61.61,0,0,0-.41.4l-.31.85a.67.67,0,0,0,.28.79,4.77,4.77,0,0,0,2.45.64c2.48,0,3.6-1.6,3.6-3.1a2.69,2.69,0,0,0-1.09-2.18,2.45,2.45,0,0,0,.79-1.83,2.38,2.38,0,0,0-.2-1L8.75,11.65Z" style="fill:#f7c7a5"/><path id="Path_596" data-name="Path 596" d="M9,3.77c0,.3-.27.81-.58.81s-.58-.51-.58-.81A.58.58,0,0,1,9,3.77Z" style="fill:#cc7e47"/><circle id="Ellipse_78" data-name="Ellipse 78" cx="8.4" cy="3.77" r="0.58" style="fill:#f7c7a5"/><path id="Path_597" data-name="Path 597" d="M8.81,3.36a.56.56,0,0,1,0,.81.57.57,0,0,1-.81,0H8" style="fill:#e8b18b"/><path id="Path_598" data-name="Path 598" d="M10.78,3.77c0,.3-.27.81-.58.81s-.57-.51-.57-.81a.57.57,0,0,1,.57-.58.58.58,0,0,1,.58.58Z" style="fill:#cc7e47"/><circle id="Ellipse_79" data-name="Ellipse 79" cx="10.2" cy="3.77" r="0.58" style="fill:#f7c7a5"/><path id="Path_599" data-name="Path 599" d="M10.61,3.36a.57.57,0,0,1-.81.81" style="fill:#e8b18b"/><path id="Path_600" data-name="Path 600" d="M12.59,3.77c0,.3-.28.81-.58.81s-.58-.51-.58-.81a.58.58,0,0,1,1.16,0Z" style="fill:#cc7e47"/><circle id="Ellipse_80" data-name="Ellipse 80" cx="12.01" cy="3.77" r="0.58" style="fill:#f7c7a5"/><path id="Path_601" data-name="Path 601" d="M12.42,3.36a.59.59,0,0,1,0,.82.58.58,0,0,1-.82,0" style="fill:#e8b18b"/></g></g></g></svg>