<svg xmlns="http://www.w3.org/2000/svg" viewBox="0 0 20.5 21.12"><title>coin_gold</title><g id="Layer_2" data-name="Layer 2"><g id="Layer_1-2" data-name="Layer 1"><g id="gold-medal"><path id="Path_602" data-name="Path 602" d="M10.25,21.12A10.25,10.25,0,1,1,20.5,10.86h0A10.28,10.28,0,0,1,10.25,21.12Z" style="fill:#dbab55"/><circle id="Ellipse_81" data-name="Ellipse 81" cx="10.25" cy="10.25" r="9.6" style="fill:#eeb31e"/><g id="Group_1053" data-name="Group 1053"><path id="Path_603" data-name="Path 603" d="M1.78,11.41A9.59,9.59,0,0,1,17.56,4.07,9.49,9.49,0,0,0,10.25.65a9.6,9.6,0,0,0-6.18,17A9.44,9.44,0,0,1,1.78,11.41Z" style="fill:#e4a424"/><path id="Path_604" data-name="Path 604" d="M17.05,3.49a9.62,9.62,0,0,1-13.6,13.6" style="fill:#e4a424"/></g><path id="Path_605" data-name="Path 605" d="M10.25,20.5A10.25,10.25,0,1,1,20.5,10.25h0A10.28,10.28,0,0,1,10.25,20.5Zm0-19.2a9,9,0,1,0,9,9h0A9,9,0,0,0,10.25,1.3Z" style="fill:#f7d27f"/><path id="Path_606" data-name="Path 606" d="M20.5,10.25A10.17,10.17,0,0,0,18,3.52,10.27,10.27,0,0,0,6.43,2.19a8.46,8.46,0,0,1,3.82-.88,8.94,8.94,0,0,1,6.8,3.14,9,9,0,0,1,2.26,10.63A10.42,10.42,0,0,0,20.5,10.25Z" style="fill:#eec173"/><path id="Path_607" data-name="Path 607" d="M1,11.24A10.09,10.09,0,0,0,3.49,18,10.19,10.19,0,0,0,15,19.31,9,9,0,0,1,4.38,17,8.93,8.93,0,0,1,2.09,6.39,11.49,11.49,0,0,0,1,11.24Z" style="fill:#eabf6b"/><path id="Path_608" data-name="Path 608" d="M10.83,3.79c0,.31-.27.82-.58.82s-.58-.51-.58-.82a.58.58,0,1,1,1.16,0Z" style="fill:#e4a424"/><circle id="Ellipse_82" data-name="Ellipse 82" cx="10.25" cy="3.8" r="0.58" style="fill:#f7d27f"/><path id="Path_609" data-name="Path 609" d="M10.66,3.38a.57.57,0,0,1,0,.82.57.57,0,0,1-.8,0" style="fill:#eec173"/><g id="Group_1054" data-name="Group 1054"><path id="Path_610" data-name="Path 610" d="M10.32,1s0,.06-.07.07h0A.07.07,0,0,1,10.19,1V.31a.07.07,0,0,1,.06-.07h0a.07.07,0,0,1,.07.07Z" style="fill:#ffe0a1"/><path id="Path_611" data-name="Path 611" d="M10.32,20.23a.07.07,0,0,1-.07.07h0a.07.07,0,0,1-.06-.07v-.65a.07.07,0,0,1,.06-.07h0s.07,0,.07.07Z" style="fill:#ffe0a1"/><path id="Path_612" data-name="Path 612" d="M16.88,3.76a.06.06,0,0,1-.09,0h0a.06.06,0,0,1,0-.09h0l.48-.48a.07.07,0,0,1,.09,0h0a.06.06,0,0,1,0,.09h0Z" style="fill:#ffe0a1"/><path id="Path_613" data-name="Path 613" d="M3.28,17.36a.06.06,0,0,1-.09,0h0a.06.06,0,0,1,0-.09h0l.48-.48a.06.06,0,0,1,.09,0h0a.06.06,0,0,1,0,.09h0Z" style="fill:#ffe0a1"/><path id="Path_614" data-name="Path 614" d="M19.55,10.35a.07.07,0,0,1-.07-.06h0a.07.07,0,0,1,.07-.07h.64a.07.07,0,0,1,.07.07h0a.07.07,0,0,1-.07.06Z" style="fill:#ffe0a1"/><path id="Path_615" data-name="Path 615" d="M.31,10.35a.07.07,0,0,1-.07-.06h0a.07.07,0,0,1,.07-.07H1a0,0,0,0,1,.07,0H1a.08.08,0,0,1-.07.07H.31Z" style="fill:#ffe0a1"/><path id="Path_616" data-name="Path 616" d="M16.78,16.91a.05.05,0,0,1,0-.08v0h0a.07.07,0,0,1,.09,0h0l.48.48s0,.07,0,.09h0s-.07,0-.09,0h0Z" style="fill:#ffe0a1"/><path id="Path_617" data-name="Path 617" d="M3.15,3.28a.06.06,0,0,1,0-.09h0a.06.06,0,0,1,.09,0h0l.47.48a.06.06,0,0,1,0,.09h0a.06.06,0,0,1-.09,0h0Z" style="fill:#ffe0a1"/><path id="Path_618" data-name="Path 618" d="M5.67,2.19a.06.06,0,0,1,0,.09h0a.06.06,0,0,1-.09,0v0L5.2,1.68a.06.06,0,0,1,0-.09h0a.06.06,0,0,1,.09,0s0,0,0,0Z" style="fill:#ffe0a1"/><path id="Path_619" data-name="Path 619" d="M15.31,18.86a.08.08,0,0,1,0,.1h0s-.06,0-.09,0v0l-.34-.58a.07.07,0,0,1,0-.09h0a.07.07,0,0,1,.09,0,0,0,0,0,0,0,0Z" style="fill:#ffe0a1"/><path id="Path_620" data-name="Path 620" d="M12.75,1.3s-.07.07-.1.07h0s-.07-.07-.07-.1l.17-.65s.07-.07.1-.07h0s.07.07.07.1Z" style="fill:#ffe0a1"/><path id="Path_621" data-name="Path 621" d="M7.76,19.89s-.07.07-.1.07h0s-.07-.07-.07-.1l.17-.65s.07-.07.1-.07h0s.07.07.07.1Z" style="fill:#ffe0a1"/><path id="Path_622" data-name="Path 622" d="M18.35,5.67a.06.06,0,0,1-.09,0s0,0,0,0h0a.07.07,0,0,1,0-.09h0l.58-.34a.08.08,0,0,1,.1,0v0h0a.06.06,0,0,1,0,.09h0Z" style="fill:#ffe0a1"/><path id="Path_623" data-name="Path 623" d="M1.68,15.31a.07.07,0,0,1-.09,0s0,0,0,0h0a.06.06,0,0,1,0-.09h0l.58-.34a.07.07,0,0,1,.09,0s0,0,0,0h0a.06.06,0,0,1,0,.09h0Z" style="fill:#ffe0a1"/><path id="Path_624" data-name="Path 624" d="M19.2,12.75s-.06-.07-.06-.1h0s.06-.07.1-.07l.65.17s.06.07.06.1h0s-.06.07-.1.07Z" style="fill:#ffe0a1"/><path id="Path_625" data-name="Path 625" d="M.62,7.76s-.07-.07-.07-.1h0s.07-.07.1-.07l.65.17s.07.07.07.1h0s-.07.07-.1.07Z" style="fill:#ffe0a1"/><path id="Path_626" data-name="Path 626" d="M2.26,5.54s.07.06,0,.1h0s-.07.06-.1,0l-.58-.34s-.07-.07,0-.1h0s.06-.07.1,0Z" style="fill:#ffe0a1"/><path id="Path_627" data-name="Path 627" d="M18.93,15.17s.07.07,0,.1h0s-.06.07-.1,0L18.28,15s-.06-.06,0-.1h0s.07-.06.1,0Z" style="fill:#ffe0a1"/><path id="Path_628" data-name="Path 628" d="M7.93,1.27s0,.1-.07.1h0s-.1,0-.1-.07L7.59.65s0-.1.07-.1h0s.1,0,.1.07Z" style="fill:#ffe0a1"/><path id="Path_629" data-name="Path 629" d="M12.92,19.85s0,.1-.07.1h0s-.1,0-.1-.06l-.17-.65s0-.1.07-.1h0s.1,0,.1.06Z" style="fill:#ffe0a1"/><path id="Path_630" data-name="Path 630" d="M15,2.26s-.07.07-.1,0h0s-.07-.07,0-.1l.34-.58s.07-.07.1,0h0s.07.06,0,.1Z" style="fill:#ffe0a1"/><path id="Path_631" data-name="Path 631" d="M5.33,18.93s-.07.07-.1,0h0s-.07-.06,0-.1l.34-.58s.07-.06.1,0h0s.07.07,0,.1Z" style="fill:#ffe0a1"/><path id="Path_632" data-name="Path 632" d="M19.24,7.93s-.1,0-.1-.07h0s0-.1.06-.1l.65-.17s.1,0,.1.07h0s0,.1-.07.1Z" style="fill:#ffe0a1"/><path id="Path_633" data-name="Path 633" d="M.65,12.92s-.1,0-.1-.07h0s0-.1.07-.1l.65-.17s.1,0,.1.07h0s0,.1-.07.1Z" style="fill:#ffe0a1"/><path id="Path_634" data-name="Path 634" d="M11.07,6.22h-.92a1.08,1.08,0,0,0-.31.07l-1.78,1A.67.67,0,0,0,7.72,8l.21.85a.56.56,0,0,0,.37.45.69.69,0,0,0,.58,0L9.36,9v6a.65.65,0,0,0,.65.65h1.06a.65.65,0,0,0,.65-.65h0V6.87A.68.68,0,0,0,11.07,6.22Z" style="fill:#ffe0a1"/></g><path id="Path_635" data-name="Path 635" d="M9.33,11.18V15a.65.65,0,0,0,.65.65H11a.65.65,0,0,0,.65-.65h0V8.78Z" style="fill:#f7d27f"/></g></g></g></svg>