<?xml version="1.0" encoding="utf-8"?>
<!-- Generator: Adobe Illustrator 23.0.1, SVG Export Plug-In . SVG Version: 6.00 Build 0)  -->
<svg version="1.1" id="Layer_1" xmlns="http://www.w3.org/2000/svg" xmlns:xlink="http://www.w3.org/1999/xlink" x="0px" y="0px"
	 viewBox="0 0 68.5 71.9" enable-background="new 0 0 68.5 71.9" xml:space="preserve">
<g id="Group_2318" transform="translate(-60.279 -205.556)">
	<g id="Group_2291" transform="translate(127.599 205.275)">
		<g id="Group_2287" transform="translate(4.68 6.282)">
			<path id="Path_3275" fill="#00549E" d="M-58.3,0h47.1C-7,0-3.5,3.4-3.5,7.7c0,0,0,0,0,0L-6.1,33l2.6,25.2c0,4.3-3.4,7.7-7.7,7.7
				l0,0l-18.2-3.4l-28.9,3.4c-4.3,0-7.7-3.4-7.7-7.7c0,0,0,0,0,0l3.3-25.2L-66,7.7C-66,3.4-62.6,0-58.3,0z"/>
		</g>
	</g>
	<g id="Path_3276" transform="translate(60.279 205.556)">
		
			<linearGradient id="SVGID_1_" gradientUnits="userSpaceOnUse" x1="-266.018" y1="427.3807" x2="-266.018" y2="426.3807" gradientTransform="matrix(60.4643 0 0 -63.8874 16115.8154 27305.2324)">
			<stop  offset="0" style="stop-color:#008AF6"/>
			<stop  offset="1" style="stop-color:#00CDE8"/>
		</linearGradient>
		<path fill="url(#SVGID_1_)" d="M7.6,64.9c-3.6,0-6.6-3-6.6-6.6l3.3-25.1l0-0.1l0-0.1L1,7.6C1,4,4,1,7.7,1h47.1
			c3.7,0,6.7,3,6.7,6.7l-2.6,25.2l0,0.1l0,0.1l2.6,25.1c0,3.6-3,6.6-6.6,6.7l-18.1-3.4l-0.1,0l-0.1,0L7.6,64.9z"/>
		<path fill="#FFFFFF" d="M7.7,2C4.6,2,2.1,4.5,2,7.6l3.3,25.2l0,0.3l0,0.3L2,58.3c0.1,3.1,2.5,5.5,5.6,5.6l28.7-3.4l0.3,0l0.3,0.1
			l18,3.3c3-0.1,5.5-2.6,5.5-5.6l-2.6-25.1l0-0.2l0-0.2l2.6-25.2C60.4,4.5,57.9,2,54.8,2H7.7 M7.7,0h47.1c4.3,0,7.7,3.4,7.7,7.7
			L59.9,33l2.6,25.2c0,4.3-3.4,7.7-7.7,7.7l-18.2-3.4L7.7,65.9c-4.3,0-7.7-3.4-7.7-7.7L3.3,33L0,7.7C0,3.4,3.4,0,7.7,0z"/>
	</g>
</g>
</svg>
