<svg xmlns="http://www.w3.org/2000/svg" xmlns:xlink="http://www.w3.org/1999/xlink" viewBox="0 0 414.32 183.5"><defs><linearGradient id="linear-gradient" x1="877.12" y1="780.59" x2="889.84" y2="779.8" gradientTransform="matrix(0.43, 0, 0, -3.57, -111.18, 2954.81)" gradientUnits="userSpaceOnUse"><stop offset="0" stop-color="#54bfed"/><stop offset="1" stop-color="#4281c3"/></linearGradient><linearGradient id="linear-gradient-2" x1="-511" y1="780.56" x2="-509.69" y2="779.65" gradientTransform="matrix(4.16, 0, 0, -3.12, 2386.65, 2598.63)" xlink:href="#linear-gradient"/><linearGradient id="linear-gradient-3" x1="-535.88" y1="780.91" x2="-535.53" y2="780.29" gradientTransform="matrix(4.95, 0, 0, -5.72, 2913.4, 4629.55)" xlink:href="#linear-gradient"/><linearGradient id="linear-gradient-4" x1="403.2" y1="810.07" x2="415.92" y2="809.28" gradientTransform="matrix(0.43, 0, 0, -3.58, -88.84, 2939.14)" xlink:href="#linear-gradient"/><linearGradient id="linear-gradient-5" x1="-655.78" y1="881.48" x2="-654.47" y2="880.57" gradientTransform="matrix(4.16, 0, 0, -3.12, 2407.02, 2578.59)" xlink:href="#linear-gradient"/><linearGradient id="linear-gradient-6" x1="-602.96" y1="899.08" x2="-602.61" y2="898.47" gradientTransform="matrix(4.95, 0, 0, -5.72, 2941.12, 4613.54)" xlink:href="#linear-gradient"/><linearGradient id="linear-gradient-7" x1="-425.89" y1="926.47" x2="-425.89" y2="925.31" gradientTransform="matrix(2.72, 0, 0, -3.45, 1289.7, 2841.41)" xlink:href="#linear-gradient"/><linearGradient id="linear-gradient-8" x1="-599.66" y1="920.68" x2="-600.72" y2="921.54" gradientTransform="matrix(2.72, 0, 0, -2.15, 1289.7, 1829.73)" xlink:href="#linear-gradient"/><linearGradient id="linear-gradient-9" x1="-425.89" y1="780.99" x2="-425.89" y2="779.82" gradientTransform="matrix(2.72, 0, 0, -3.45, 1311.14, 2840.98)" xlink:href="#linear-gradient"/><linearGradient id="linear-gradient-10" x1="-497.19" y1="836.79" x2="-498.25" y2="837.64" gradientTransform="matrix(2.72, 0, 0, -2.16, 1311.14, 1834.58)" xlink:href="#linear-gradient"/></defs><title>bg_bantuan</title><g id="Layer_2" data-name="Layer 2"><g id="Layer_1-2" data-name="Layer 1"><g id="Group_5638" data-name="Group 5638"><g id="Group_5636" data-name="Group 5636"><g id="Group_5260" data-name="Group 5260"><g id="Group_5234" data-name="Group 5234"><g id="Group_5225" data-name="Group 5225"><g id="Group_5213" data-name="Group 5213"><g id="Group_5212" data-name="Group 5212"><path id="Path_9975-2" data-name="Path 9975-2" d="M.32,0h414V183.47H.32Z" fill="#f6f6fb"/><path id="Path_11047" data-name="Path 11047" d="M.28,13.46c130.59-16.19,220,13.69,189.91,44s-38.17,46.85-10,74,100.44,32.65,100.44,32.65l-33,19.35L.41,182.57Z" fill="#bcdef5"/><path id="Path_11049" data-name="Path 11049" d="M.37,98.79C31,101.25,81.69,100.86,127,64.17s11.7,76.8,48.7,86.54,104.9,13.41,104.9,13.41l-34,19L.47,182.69Z" fill="#89c2ea"/></g></g></g></g></g><g id="Group_5630" data-name="Group 5630"><g id="Group_5627" data-name="Group 5627"><path id="Path_10887" data-name="Path 10887" d="M3.44,151.39s-4.91-14.76,1.84-30.06a52.56,52.56,0,0,1,2.25,30.06Z" fill="#476a31"/><path id="Path_10888" data-name="Path 10888" d="M135,151.39s-7.17-19.54,2.69-39.81a63.74,63.74,0,0,1,3.28,39.81Z" fill="#476a31"/><path id="Path_10889" data-name="Path 10889" d="M9.3,151.39a36,36,0,0,1,1.63-25,41.56,41.56,0,0,1,2,25Z" fill="#527a38"/><g id="Group_5612" data-name="Group 5612"><path id="Path_10890" data-name="Path 10890" d="M149,136.15c-1.57-.81-7.23.09-7.68,2.11a2.9,2.9,0,0,0-1.44-.35,2.74,2.74,0,0,0-2.81,2.64h-4.82a1.82,1.82,0,0,0-3.63-.14v.14h-.42a3.44,3.44,0,1,0-6.8-1.05,3.08,3.08,0,0,0,0,1.05h-8.46a4.29,4.29,0,0,0-4.41-4.17h0a4.68,4.68,0,0,0-2.23.54,4.59,4.59,0,0,0-1-1.5l-.21-.2a4.71,4.71,0,0,0-6.49,0l-.72.93a4.57,4.57,0,0,0-.62,2.31l.16,1.22a4.66,4.66,0,0,0,.35.87H91.11a2.88,2.88,0,0,0-2.92-2.3,3,3,0,0,0-2,.73,2.89,2.89,0,0,0-3-2.61,3.09,3.09,0,0,0-2.87,4.18H76.59a3,3,0,1,0-6-.62,3.21,3.21,0,0,0,0,.62H62.74a3.06,3.06,0,0,0-4.2-1,3,3,0,0,0-1,1H51.47a3,3,0,1,0-6-.19v.19H38.9a3.36,3.36,0,0,0,.06-.63,3.43,3.43,0,0,0-.91-2.21,3.14,3.14,0,0,0-2.22-.92,3.22,3.22,0,0,0-2.21.92l-.21.2a3.32,3.32,0,0,0-.81,1.45,3.05,3.05,0,0,0-5.06,1.19H16.16a2.85,2.85,0,0,0-2.87-2.09,3.11,3.11,0,0,0-1.7.48,3,3,0,0,0-.88-1.86,3.29,3.29,0,0,0-2.22-.92H8.28a3.2,3.2,0,0,0-2.21.92,3.51,3.51,0,0,0-.92,2.21,3.89,3.89,0,0,0,.27,1.26H0v10.84H157.51s-.79-6.61-3.66-10.83S150.57,137,149,136.15Z" fill="#63953f"/><g id="Group_5611" data-name="Group 5611"><path id="Path_10891" data-name="Path 10891" d="M16.91,142.49a1.68,1.68,0,0,1,1.61,1.73,1.61,1.61,0,1,1-1.61-1.73Z" fill="#5b883c"/><path id="Path_10892" data-name="Path 10892" d="M13.05,143a.41.41,0,0,1,.42.41.42.42,0,0,1-.84,0A.41.41,0,0,1,13.05,143Z" fill="#5b883c"/><path id="Path_10893" data-name="Path 10893" d="M38.6,146.69l.1.1a.42.42,0,0,1,0,.59.43.43,0,0,1-.58,0l-.1-.1a.42.42,0,0,1,.59-.59Z" fill="#5b883c"/><path id="Path_10894" data-name="Path 10894" d="M35.36,147.71a.53.53,0,1,1,0,1h0a.53.53,0,0,1,0-1Z" fill="#5b883c"/><path id="Path_10895" data-name="Path 10895" d="M33.82,143.22a1,1,0,0,1,1,1.09,1,1,0,1,1-1-1.09Z" fill="#5b883c"/><path id="Path_10896" data-name="Path 10896" d="M69.59,145.1a1,1,0,1,1-1,1A1.06,1.06,0,0,1,69.59,145.1Z" fill="#5b883c"/><path id="Path_10897" data-name="Path 10897" d="M59.88,148.73a1.13,1.13,0,0,1,.52-.69,1.24,1.24,0,0,1,.78-.13l.08,0h0a1,1,0,0,1,.88.79,1.25,1.25,0,0,1-.29,1.14,1.23,1.23,0,0,1-.85.35,1.28,1.28,0,0,1-.85-.35A1.18,1.18,0,0,1,59.88,148.73Z" fill="#5b883c"/><path id="Path_10898" data-name="Path 10898" d="M58.84,144a1,1,0,1,1-1,1A1,1,0,0,1,58.84,144Z" fill="#5b883c"/><path id="Path_10899" data-name="Path 10899" d="M74.39,143.85a1.36,1.36,0,1,1-1.32,1.32A1.35,1.35,0,0,1,74.39,143.85Z" fill="#5b883c"/><path id="Path_10900" data-name="Path 10900" d="M67.13,143.43a.77.77,0,1,1-.78.77A.78.78,0,0,1,67.13,143.43Z" fill="#5b883c"/><path id="Path_10901" data-name="Path 10901" d="M69.05,148.13a1,1,0,0,1,0,2.09,1,1,0,0,1,0-2.09Z" fill="#5b883c"/><path id="Path_10902" data-name="Path 10902" d="M106.08,139.16h.1a1,1,0,1,1,.07,2.08h-.17a1,1,0,0,1,0-2.08Z" fill="#5b883c"/><path id="Path_10903" data-name="Path 10903" d="M100.74,138.32a.52.52,0,1,1,0,1h0a.52.52,0,0,1,0-1Z" fill="#5b883c"/><path id="Path_10904" data-name="Path 10904" d="M101,142.49a1,1,0,0,1,0,2.09,1,1,0,0,1,0-2.09Z" fill="#5b883c"/><path id="Path_10905" data-name="Path 10905" d="M127.32,144h.05a.55.55,0,0,1,.55.54.55.55,0,0,1-.55.55h-.05a.55.55,0,0,1-.55-.55.54.54,0,0,1,.55-.54Z" fill="#5b883c"/><path id="Path_10906" data-name="Path 10906" d="M136,148a1,1,0,1,1-1,1A1,1,0,0,1,136,148Z" fill="#5b883c"/><path id="Path_10907" data-name="Path 10907" d="M145.35,140.41a1,1,0,1,1-1,1A1,1,0,0,1,145.35,140.41Z" fill="#5b883c"/><path id="Path_10908" data-name="Path 10908" d="M143.36,142.29a.83.83,0,0,1,.83.83.84.84,0,1,1-.83-.83Z" fill="#5b883c"/><path id="Path_10909" data-name="Path 10909" d="M118.71,148.34a1.06,1.06,0,0,1,1,1v.1a1,1,0,1,1-2.08.07v-.17A1.05,1.05,0,0,1,118.71,148.34Z" fill="#5b883c"/></g></g><rect id="Rectangle_4469" data-name="Rectangle 4469" x="0.09" y="151.39" width="147.86" height="5.92" fill="#7fb441"/><g id="Group_5626" data-name="Group 5626"><g id="Group_5614" data-name="Group 5614"><g id="Group_5613" data-name="Group 5613"><rect id="Rectangle_4470" data-name="Rectangle 4470" x="13.7" y="50.92" width="120.64" height="15.73" fill="#2b75af"/><rect id="Rectangle_4471" data-name="Rectangle 4471" x="13.7" y="50.92" width="120.64" height="1.65" fill="#204152" opacity="0.2" style="isolation:isolate"/><rect id="Rectangle_4472" data-name="Rectangle 4472" x="37.83" y="50.92" width="1.65" height="15.73" fill="#4298c7"/><rect id="Rectangle_4473" data-name="Rectangle 4473" x="73.2" y="50.92" width="1.65" height="15.73" fill="#4298c7"/><rect id="Rectangle_4474" data-name="Rectangle 4474" x="108.57" y="50.92" width="1.65" height="15.73" fill="#4298c7"/></g><path id="Path_10910" data-name="Path 10910" d="M51.49,66.65H27.55l7.2-15.73H58.69Z" fill="#fff" opacity="0.1" style="isolation:isolate"/><path id="Path_10911" data-name="Path 10911" d="M78.93,66.65H60l7.2-15.73h19Z" fill="#fff" opacity="0.1" style="isolation:isolate"/><path id="Path_10912" data-name="Path 10912" d="M98.7,66.65H87.54l7.2-15.73H105.9Z" fill="#fff" opacity="0.1" style="isolation:isolate"/><path id="Path_10913" data-name="Path 10913" d="M119.48,66.65H113.9l7.2-15.73h5.58Z" fill="#fff" opacity="0.1" style="isolation:isolate"/></g><g id="Group_5628" data-name="Group 5628"><g id="Group_5613-2" data-name="Group 5613-2"><rect id="Rectangle_4470-2" data-name="Rectangle 4470-2" x="13.7" y="30.74" width="120.64" height="15.73" fill="#2b75af"/><rect id="Rectangle_4471-2" data-name="Rectangle 4471-2" x="13.7" y="30.74" width="120.64" height="1.65" fill="#204152" opacity="0.2" style="isolation:isolate"/><rect id="Rectangle_4472-2" data-name="Rectangle 4472-2" x="37.83" y="30.74" width="1.65" height="15.73" fill="#4298c7"/><rect id="Rectangle_4473-2" data-name="Rectangle 4473-2" x="73.2" y="30.74" width="1.65" height="15.73" fill="#4298c7"/><rect id="Rectangle_4474-2" data-name="Rectangle 4474-2" x="108.57" y="30.74" width="1.65" height="15.73" fill="#4298c7"/></g><path id="Path_10910-2" data-name="Path 10910-2" d="M51.49,46.47H27.55l7.2-15.73H58.69Z" fill="#fff" opacity="0.1" style="isolation:isolate"/><path id="Path_10911-2" data-name="Path 10911-2" d="M78.93,46.47H60l7.2-15.73h19Z" fill="#fff" opacity="0.1" style="isolation:isolate"/><path id="Path_10912-2" data-name="Path 10912-2" d="M98.7,46.47H87.54l7.2-15.73H105.9Z" fill="#fff" opacity="0.1" style="isolation:isolate"/><path id="Path_10913-2" data-name="Path 10913-2" d="M119.48,46.47H113.9l7.2-15.73h5.58Z" fill="#fff" opacity="0.1" style="isolation:isolate"/></g><rect id="Rectangle_4475" data-name="Rectangle 4475" x="10.47" y="46.16" width="127.1" height="4.76" fill="#eef8fd"/><rect id="Rectangle_4508" data-name="Rectangle 4508" x="10.47" y="16.3" width="127.1" height="14.44" fill="#eef8fd"/><g id="Group_5616" data-name="Group 5616"><g id="Group_5615" data-name="Group 5615"><rect id="Rectangle_4476" data-name="Rectangle 4476" x="13.7" y="71.41" width="120.64" height="15.73" fill="#2b75af"/><rect id="Rectangle_4477" data-name="Rectangle 4477" x="13.7" y="71.41" width="120.64" height="1.65" fill="#204152" opacity="0.2" style="isolation:isolate"/><rect id="Rectangle_4478" data-name="Rectangle 4478" x="37.83" y="71.41" width="1.65" height="15.73" fill="#4298c7"/><rect id="Rectangle_4479" data-name="Rectangle 4479" x="73.2" y="71.41" width="1.65" height="15.73" fill="#4298c7"/><rect id="Rectangle_4480" data-name="Rectangle 4480" x="108.57" y="71.41" width="1.65" height="15.73" fill="#4298c7"/></g><path id="Path_10914" data-name="Path 10914" d="M51.49,87.14H27.55l7.2-15.73H58.69Z" fill="#fff" opacity="0.1" style="isolation:isolate"/><path id="Path_10915" data-name="Path 10915" d="M78.93,87.14H60l7.2-15.73h19Z" fill="#fff" opacity="0.1" style="isolation:isolate"/><path id="Path_10916" data-name="Path 10916" d="M98.7,87.14H87.54l7.2-15.73H105.9Z" fill="#fff" opacity="0.1" style="isolation:isolate"/><path id="Path_10917" data-name="Path 10917" d="M119.48,87.14H113.9l7.2-15.73h5.58Z" fill="#fff" opacity="0.1" style="isolation:isolate"/></g><rect id="Rectangle_4481" data-name="Rectangle 4481" x="10.47" y="66.65" width="127.1" height="4.76" fill="#eef8fd"/><g id="Group_5618" data-name="Group 5618"><g id="Group_5617" data-name="Group 5617"><rect id="Rectangle_4482" data-name="Rectangle 4482" x="13.7" y="91.9" width="120.64" height="15.73" fill="#2b75af"/><rect id="Rectangle_4483" data-name="Rectangle 4483" x="13.7" y="91.9" width="120.64" height="1.65" fill="#204152" opacity="0.2" style="isolation:isolate"/><rect id="Rectangle_4484" data-name="Rectangle 4484" x="37.83" y="91.9" width="1.65" height="15.73" fill="#4298c7"/><rect id="Rectangle_4485" data-name="Rectangle 4485" x="73.2" y="91.9" width="1.65" height="15.73" fill="#4298c7"/><rect id="Rectangle_4486" data-name="Rectangle 4486" x="108.57" y="91.9" width="1.65" height="15.73" fill="#4298c7"/></g><path id="Path_10918" data-name="Path 10918" d="M51.49,107.63H27.55l7.2-15.73H58.69Z" fill="#fff" opacity="0.1" style="isolation:isolate"/><path id="Path_10919" data-name="Path 10919" d="M78.93,107.63H60l7.2-15.73h19Z" fill="#fff" opacity="0.1" style="isolation:isolate"/><path id="Path_10920" data-name="Path 10920" d="M98.7,107.63H87.54l7.2-15.73H105.9Z" fill="#fff" opacity="0.1" style="isolation:isolate"/><path id="Path_10921" data-name="Path 10921" d="M119.48,107.63H113.9l7.2-15.73h5.58Z" fill="#fff" opacity="0.1" style="isolation:isolate"/></g><rect id="Rectangle_4487" data-name="Rectangle 4487" x="10.47" y="87.14" width="127.1" height="4.76" fill="#eef8fd"/><rect id="Rectangle_4488" data-name="Rectangle 4488" x="13.7" y="107.63" width="120.64" height="43.76" fill="#eef8fd"/><g id="Group_5625" data-name="Group 5625"><rect id="Rectangle_4497" data-name="Rectangle 4497" x="26.27" y="119.52" width="95.5" height="31.87" fill="#2b2b2b"/><g id="Group_5622" data-name="Group 5622"><rect id="Rectangle_4498" data-name="Rectangle 4498" x="41.35" y="121.91" width="65.35" height="29.49" fill="#2b75af"/><path id="Path_10922" data-name="Path 10922" d="M68.93,151.39H41.35L57.87,121.9H85.45Z" fill="#fff" opacity="0.1" style="isolation:isolate"/><path id="Path_10923" data-name="Path 10923" d="M90.18,151.39h-7.9L98.8,121.9h7.9Z" fill="#fff" opacity="0.1" style="isolation:isolate"/><rect id="Rectangle_4499" data-name="Rectangle 4499" x="41.35" y="128.05" width="65.35" height="1.65" fill="#fff"/><rect id="Rectangle_4500" data-name="Rectangle 4500" x="60.7" y="121.91" width="1.9" height="29.49" fill="#fff"/><rect id="Rectangle_4501" data-name="Rectangle 4501" x="85.45" y="121.91" width="1.9" height="29.49" fill="#fff"/></g><g id="Group_5623" data-name="Group 5623"><rect id="Rectangle_4502" data-name="Rectangle 4502" x="28.63" y="121.91" width="10.13" height="29.49" fill="#2b75af"/><rect id="Rectangle_4503" data-name="Rectangle 4503" x="28.63" y="128.05" width="10.13" height="1.65" fill="#fff"/><rect id="Rectangle_4504" data-name="Rectangle 4504" x="28.63" y="121.91" width="2.96" height="29.49" fill="#204152" opacity="0.2" style="isolation:isolate"/></g><g id="Group_5624" data-name="Group 5624"><rect id="Rectangle_4505" data-name="Rectangle 4505" x="109.09" y="121.91" width="10.13" height="29.49" fill="#2b75af"/><rect id="Rectangle_4506" data-name="Rectangle 4506" x="109.09" y="128.05" width="10.13" height="1.65" fill="#fff"/><rect id="Rectangle_4507" data-name="Rectangle 4507" x="109.09" y="121.91" width="2.96" height="29.49" fill="#204152" opacity="0.2" style="isolation:isolate"/></g></g></g></g><g id="Group_5632" data-name="Group 5632"><path id="Path_10924" data-name="Path 10924" d="M58.32,21.65l3.3-1.91,3.29,1.91v3.94l-3.29,1.89-3.44-2.05Z" fill="#c2c1c0"/><g id="Layer_2-2" data-name="Layer 2"><path id="Path_3485-3" data-name="Path 3485-3" d="M62.08,28.87l2.47-1.42,1.32.79a.32.32,0,0,0,.44-.11.34.34,0,0,0,0-.17v-6.5a1,1,0,0,0-.5-.86l-3.78-2.19a1,1,0,0,0-1,0L57.3,20.6a1,1,0,0,0-.5.86v4.37a1,1,0,0,0,.5.86l3.79,2.18A1,1,0,0,0,62.08,28.87Zm2.45-3.53L61.7,27V23.71l2.83-1.63Zm-3-5.1,2.83,1.63L61.58,23.5l-2.82-1.63Zm-2.94,1.84,2.82,1.63V27l-2.82-1.64Z" fill="#c2c1c0"/><path id="Path_3486-3" data-name="Path 3486-3" d="M74.42,22.2a1.86,1.86,0,0,0-.87.18,1.32,1.32,0,0,0-.6.52h0l-.28-.5a.26.26,0,0,0-.21-.12H72.2a.24.24,0,0,0-.24.24v4.32a.18.18,0,0,0,.18.18h0l.09,0,.5-.3a.51.51,0,0,0,.24-.42V24.66a2,2,0,0,1,.3-1.27A1.12,1.12,0,0,1,74.2,23a.82.82,0,0,1,.7.27,1.1,1.1,0,0,1,.21.66v2.32a.48.48,0,0,0,.24.42l.5.3a.19.19,0,0,0,.25-.06.29.29,0,0,0,0-.09V23.93a2.3,2.3,0,0,0-.09-.69A1.45,1.45,0,0,0,74.42,22.2Z" fill="#c2c1c0"/><path id="Path_3487-3" data-name="Path 3487-3" d="M90.17,22.52l-.5-.3-.09,0a.17.17,0,0,0-.18.17h0v1.54a5.08,5.08,0,0,1-.3,1.9,1.1,1.1,0,0,1-.93.38.86.86,0,0,1-.7-.27,1.19,1.19,0,0,1-.22-.66V22.37a.17.17,0,0,0-.17-.18.16.16,0,0,0-.09,0l-.51.3a.46.46,0,0,0-.24.41v2.35a2.72,2.72,0,0,0,.09.69,1.37,1.37,0,0,0,.36.64,1.73,1.73,0,0,0,1.25.4,1.93,1.93,0,0,0,.88-.18,1.42,1.42,0,0,0,.58-.48l0,0,.43.53a.21.21,0,0,0,.18.09h.13a.24.24,0,0,0,.24-.24V22.93A.49.49,0,0,0,90.17,22.52Z" fill="#c2c1c0"/><path id="Path_3488-3" data-name="Path 3488-3" d="M93.66,26.25a2.28,2.28,0,0,1-.45,0,.65.65,0,0,1-.48-.17.71.71,0,0,1-.18-.54V23.05h.65a.48.48,0,0,0,.43-.26l.14-.27a.15.15,0,0,0-.06-.22l-.08,0H92.55v-.81a.24.24,0,0,0-.24-.24h-.2a.23.23,0,0,0-.23.16l-.29.85-.57.3a.23.23,0,0,0-.13.21v.06a.24.24,0,0,0,.24.24h.4V25.6c0,1,.48,1.5,1.43,1.51a2.51,2.51,0,0,0,.55-.06,1.22,1.22,0,0,0,.26-.06.24.24,0,0,0,.17-.23v-.27a.24.24,0,0,0-.24-.24Z" fill="#c2c1c0"/><path id="Path_3489-3" data-name="Path 3489-3" d="M81,22.41a.23.23,0,0,0-.24-.24h-.19a.15.15,0,0,0-.12,0l-.42.46h0a1.77,1.77,0,0,0-2.28-.3,2.25,2.25,0,0,0-1,1.92h0v.51h0a2.24,2.24,0,0,0,1,1.91,1.76,1.76,0,0,0,2.28-.3v.48h0a1,1,0,0,1-.26.69,1.49,1.49,0,0,1-1,.34h-.22a.16.16,0,0,0-.16.16.17.17,0,0,0,0,.1l.35.46a.57.57,0,0,0,.54.21,2.22,2.22,0,0,0,1.2-.6,1.87,1.87,0,0,0,.52-1.4Zm-1,3.18v0l0,0a1.27,1.27,0,0,1-1.8.11,1.21,1.21,0,0,1-.43-.85v-.7A1.28,1.28,0,0,1,80,23.46l0,0Z" fill="#c2c1c0"/><path id="Path_3490-3" data-name="Path 3490-3" d="M84,24.31l1.17-1.25a.16.16,0,0,0,0-.23.21.21,0,0,0-.11,0h-.58a.51.51,0,0,0-.35.15l-.81.86-.54.54V22.15a.39.39,0,0,0-.17-.33l-.45-.32a.23.23,0,0,0-.38.2v5.14a.18.18,0,0,0,.17.18h0A.14.14,0,0,0,82,27l.5-.3a.47.47,0,0,0,.24-.42v-.78l.55-.55,1.37,1.88a.5.5,0,0,0,.39.2h.62a.17.17,0,0,0,.17-.16.18.18,0,0,0,0-.1Z" fill="#c2c1c0"/><path id="Path_3491-3" data-name="Path 3491-3" d="M71,22.22h-.11a.16.16,0,0,0-.11.05l-.52.47h0a1.75,1.75,0,0,0-2.27-.3,2.24,2.24,0,0,0-1,1.91h0v.51h0a2.24,2.24,0,0,0,1,1.91,1.75,1.75,0,0,0,2.27-.3h0l.43.47a.17.17,0,0,0,.12,0H71a.24.24,0,0,0,.24-.24V22.46a.24.24,0,0,0-.24-.24ZM70.3,24v1.69l0,0a1.27,1.27,0,0,1-1.81.12A1.34,1.34,0,0,1,68,25v-.69a1.28,1.28,0,0,1,1.38-1.17,1.24,1.24,0,0,1,.86.43l0,0Z" fill="#c2c1c0"/></g></g></g><g id="Group_5631" data-name="Group 5631"><g id="Group_5222" data-name="Group 5222"><path id="Path_3929" data-name="Path 3929" d="M22.38,132.54a4,4,0,0,0-3.5-1.72,3.42,3.42,0,0,0-1.55.5.48.48,0,0,1-.66-.16.41.41,0,0,1-.07-.26v-1.1a.49.49,0,0,0-.47-.5h-.06a.5.5,0,0,0-.49.48l0,1.1a.48.48,0,0,1-.48.48.45.45,0,0,1-.26-.08,3.55,3.55,0,0,0-1.53-.56,4,4,0,0,0-3.63,1.68.44.44,0,0,0,.08.62l.07,0h0a.56.56,0,0,0,.67-.15,3,3,0,0,1,2.69-1.24,2.54,2.54,0,0,1,1.21.47,2.83,2.83,0,0,1,1.12,2.35l-.36,21.11h-.66a.79.79,0,0,0-.81.66.76.76,0,0,0,.66.82h.07l1.19,0h.06l1.15,0a.76.76,0,0,0,.79-.65.73.73,0,0,0-.65-.82h-.79l.37-21.11a2.83,2.83,0,0,1,1.2-2.31,2.63,2.63,0,0,1,1.22-.43,3.06,3.06,0,0,1,2.68,1.37.46.46,0,0,0,.66.11h0a.5.5,0,0,0,.07-.71Z" fill="#444545"/><path id="Path_3930" data-name="Path 3930" d="M10.7,136.13c0,.93-.46,1.67-1,1.67s-.94-.77-.92-1.7.46-1.68,1-1.67S10.71,135.2,10.7,136.13Z" fill="#444545"/><path id="Path_3931" data-name="Path 3931" d="M23.19,136.34c0,.94-.45,1.68-1,1.67s-.94-.77-.92-1.7.45-1.67,1-1.67S23.21,135.42,23.19,136.34Z" fill="#444545"/><g id="Group_3819" data-name="Group 3819"><path id="Path_3932" data-name="Path 3932" d="M23.28,136.9a1,1,0,0,0,1-1s0-.08,0-.12c-.2-1.86-1-3.25-2-3.26s-1.8,1.34-2.07,3.19a1,1,0,0,0,.82,1.1h.12Z" fill="#444545"/><path id="Path_3933" data-name="Path 3933" d="M23,136.22a.67.67,0,0,0,.67-.65s0,0,0-.08c-.14-1.27-.67-2.2-1.33-2.22s-1.22.91-1.4,2.17a.66.66,0,0,0,.55.75h.08Z" fill="#fff"/><path id="Path_3934" data-name="Path 3934" d="M10.79,136.68a1,1,0,0,0,1-1,.53.53,0,0,0,0-.13c-.2-1.86-1-3.25-1.95-3.26s-1.8,1.34-2.07,3.19a1,1,0,0,0,.82,1.1h.12Z" fill="#444545"/><path id="Path_3935" data-name="Path 3935" d="M10.43,135.93a.61.61,0,0,0,.61-.59.28.28,0,0,0,0-.09c-.12-1.16-.61-2-1.22-2s-1.12.83-1.28,2a.61.61,0,0,0,.5.69h.09Z" fill="#fff"/></g></g><g id="Group_5221" data-name="Group 5221"><path id="Path_3929-2" data-name="Path 3929-2" d="M154.38,132.54a4,4,0,0,0-3.5-1.72,3.42,3.42,0,0,0-1.55.5.48.48,0,0,1-.66-.16.41.41,0,0,1-.07-.26v-1.1a.49.49,0,0,0-.47-.5h-.06a.5.5,0,0,0-.49.48l0,1.1a.48.48,0,0,1-.48.48.45.45,0,0,1-.26-.08,3.55,3.55,0,0,0-1.53-.56,4,4,0,0,0-3.63,1.68.44.44,0,0,0,.08.62l.07,0h0a.56.56,0,0,0,.67-.15,3,3,0,0,1,2.69-1.24,2.54,2.54,0,0,1,1.21.47,2.83,2.83,0,0,1,1.12,2.35l-.36,21.11h-.66a.79.79,0,0,0-.81.66.76.76,0,0,0,.66.82h.07l1.19,0h.06l1.15,0a.76.76,0,0,0,.79-.65.73.73,0,0,0-.65-.82h-.79l.37-21.11a2.83,2.83,0,0,1,1.2-2.31,2.63,2.63,0,0,1,1.22-.43,3.06,3.06,0,0,1,2.68,1.37.46.46,0,0,0,.66.11h0a.5.5,0,0,0,.07-.71Z" fill="#444545"/><path id="Path_3930-2" data-name="Path 3930-2" d="M142.7,136.13c0,.93-.46,1.67-1,1.67s-.94-.77-.92-1.7.46-1.68,1-1.67S142.71,135.2,142.7,136.13Z" fill="#444545"/><path id="Path_3931-2" data-name="Path 3931-2" d="M155.19,136.34c0,.94-.45,1.68-1,1.67s-.94-.77-.92-1.7.45-1.67,1-1.67S155.21,135.42,155.19,136.34Z" fill="#444545"/><g id="Group_3819-2" data-name="Group 3819-2"><path id="Path_3932-2" data-name="Path 3932-2" d="M155.28,136.9a1,1,0,0,0,1-1s0-.08,0-.12c-.2-1.86-1-3.25-1.95-3.26s-1.8,1.34-2.07,3.19a1,1,0,0,0,.82,1.1h.12Z" fill="#444545"/><path id="Path_3933-2" data-name="Path 3933-2" d="M155,136.22a.67.67,0,0,0,.67-.65s0,0,0-.08c-.14-1.27-.67-2.2-1.33-2.22s-1.22.91-1.4,2.17a.66.66,0,0,0,.55.75h.08Z" fill="#fff"/><path id="Path_3934-2" data-name="Path 3934-2" d="M142.79,136.68a1,1,0,0,0,1-1,.53.53,0,0,0,0-.13c-.2-1.86-1-3.25-1.95-3.26s-1.8,1.34-2.07,3.19a1,1,0,0,0,.82,1.1h.12Z" fill="#444545"/><path id="Path_3935-2" data-name="Path 3935-2" d="M142.43,135.93a.61.61,0,0,0,.61-.59.28.28,0,0,0,0-.09c-.12-1.16-.61-2-1.22-2s-1.12.83-1.28,2a.61.61,0,0,0,.5.69h.09Z" fill="#fff"/></g></g></g><rect id="Rectangle_4525" data-name="Rectangle 4525" x="0.32" y="157.5" width="414" height="26" fill="#4d4d4e"/><g id="Group_5634" data-name="Group 5634"><g id="Group_5204" data-name="Group 5204"><g id="Group_5202" data-name="Group 5202"><g id="Group_5200" data-name="Group 5200"><g id="Group_5198" data-name="Group 5198"><path id="Path_10420" data-name="Path 10420" d="M3.74,164h9.44" fill="none" stroke="#fff"/></g><g id="Group_5199" data-name="Group 5199"><path id="Path_10419" data-name="Path 10419" d="M17.74,164h9.44" fill="none" stroke="#fff"/><path id="Path_10420-2" data-name="Path 10420-2" d="M31.74,164h9.44" fill="none" stroke="#fff"/></g></g><g id="Group_5201" data-name="Group 5201"><g id="Group_5198-2" data-name="Group 5198-2"><path id="Path_10419-2" data-name="Path 10419-2" d="M45.74,164h9.44" fill="none" stroke="#fff"/><path id="Path_10420-3" data-name="Path 10420-3" d="M59.74,164h9.44" fill="none" stroke="#fff"/></g><g id="Group_5199-2" data-name="Group 5199-2"><path id="Path_10419-3" data-name="Path 10419-3" d="M73.74,164h9.44" fill="none" stroke="#fff"/><path id="Path_10420-4" data-name="Path 10420-4" d="M87.74,164h9.44" fill="none" stroke="#fff"/></g></g></g><g id="Group_5203" data-name="Group 5203"><g id="Group_5200-2" data-name="Group 5200-2"><g id="Group_5198-3" data-name="Group 5198-3"><path id="Path_10419-4" data-name="Path 10419-4" d="M101.74,164h9.44" fill="none" stroke="#fff"/><path id="Path_10420-5" data-name="Path 10420-5" d="M115.74,164h9.44" fill="none" stroke="#fff"/></g><g id="Group_5199-3" data-name="Group 5199-3"><path id="Path_10419-5" data-name="Path 10419-5" d="M129.74,164h9.44" fill="none" stroke="#fff"/><path id="Path_10420-6" data-name="Path 10420-6" d="M143.74,164h9.44" fill="none" stroke="#fff"/></g></g><g id="Group_5201-2" data-name="Group 5201-2"><g id="Group_5198-4" data-name="Group 5198-4"><path id="Path_10419-6" data-name="Path 10419-6" d="M157.74,164h9.44" fill="none" stroke="#fff"/><path id="Path_10420-7" data-name="Path 10420-7" d="M171.74,164h9.44" fill="none" stroke="#fff"/></g><g id="Group_5199-4" data-name="Group 5199-4"><path id="Path_10419-7" data-name="Path 10419-7" d="M185.74,164h9.44" fill="none" stroke="#fff"/><path id="Path_10420-8" data-name="Path 10420-8" d="M199.74,164h9.44" fill="none" stroke="#fff"/></g></g></g></g><g id="Group_5205" data-name="Group 5205"><g id="Group_5202-2" data-name="Group 5202-2"><g id="Group_5200-3" data-name="Group 5200-3"><g id="Group_5198-5" data-name="Group 5198-5"><path id="Path_10419-8" data-name="Path 10419-8" d="M213.74,164h9.44" fill="none" stroke="#fff"/><path id="Path_10420-9" data-name="Path 10420-9" d="M227.74,164h9.44" fill="none" stroke="#fff"/></g><g id="Group_5199-5" data-name="Group 5199-5"><path id="Path_10419-9" data-name="Path 10419-9" d="M241.74,164h9.44" fill="none" stroke="#fff"/><path id="Path_10420-10" data-name="Path 10420-10" d="M255.74,164h9.44" fill="none" stroke="#fff"/></g></g><g id="Group_5201-3" data-name="Group 5201-3"><g id="Group_5198-6" data-name="Group 5198-6"><path id="Path_10419-10" data-name="Path 10419-10" d="M269.74,164h9.44" fill="none" stroke="#fff"/><path id="Path_10420-11" data-name="Path 10420-11" d="M283.74,164h9.44" fill="none" stroke="#fff"/></g><g id="Group_5199-6" data-name="Group 5199-6"><path id="Path_10419-11" data-name="Path 10419-11" d="M297.74,164h9.44" fill="none" stroke="#fff"/><path id="Path_10420-12" data-name="Path 10420-12" d="M311.74,164h9.44" fill="none" stroke="#fff"/></g></g></g><g id="Group_5203-2" data-name="Group 5203-2"><g id="Group_5200-4" data-name="Group 5200-4"><g id="Group_5198-7" data-name="Group 5198-7"><path id="Path_10419-12" data-name="Path 10419-12" d="M325.74,164h9.44" fill="none" stroke="#fff"/><path id="Path_10420-13" data-name="Path 10420-13" d="M339.74,164h9.44" fill="none" stroke="#fff"/></g><g id="Group_5199-7" data-name="Group 5199-7"><path id="Path_10419-13" data-name="Path 10419-13" d="M353.74,164h9.44" fill="none" stroke="#fff"/><path id="Path_10420-14" data-name="Path 10420-14" d="M367.74,164h9.44" fill="none" stroke="#fff"/></g></g><g id="Group_5201-4" data-name="Group 5201-4"><g id="Group_5198-8" data-name="Group 5198-8"><path id="Path_10419-14" data-name="Path 10419-14" d="M381.74,164h9.44" fill="none" stroke="#fff"/><path id="Path_10420-15" data-name="Path 10420-15" d="M395.74,164h9.44" fill="none" stroke="#fff"/></g></g></g></g></g><g id="Layer_2-2-2" data-name="Layer 2-2"><g id="Layer_1-3" data-name="Layer 1"><rect id="Rectangle_4509" data-name="Rectangle 4509" x="233.07" y="136.56" width="61.62" height="41.88" fill="#fff" fill-opacity="0"/><path id="Path_10925" data-name="Path 10925" d="M294,160.88a.19.19,0,0,1,.2.18v.3h0a.18.18,0,0,1-.18.2h0a.2.2,0,0,1-.2-.16v-.32h0a.19.19,0,0,1,.18-.2h0m0-.42a.61.61,0,0,0-.61.61h0v.25a.14.14,0,0,0,0,.09.62.62,0,0,0,.62.56.6.6,0,0,0,.62-.58v-.32a.61.61,0,0,0-.59-.62h0Z" fill="#888"/><path id="Path_10927" data-name="Path 10927" d="M294,160.88a.21.21,0,0,1,.2.19h0v.29a.2.2,0,0,1-.18.2h0c-.12,0-.24-.13-.2-.2v-.29a.2.2,0,0,1,.18-.2h0m0-.42a.61.61,0,0,0-.61.61h0v.23a.53.53,0,0,0,.07.37.67.67,0,0,0,.55.31.61.61,0,0,0,.62-.6v-.31a.62.62,0,0,0-.6-.62h0Z" fill="#888"/><path id="Path_10928" data-name="Path 10928" d="M257.22,173.83l14.66.12H285l1.68-2.87a.55.55,0,0,1,.3-.09h2.1a.5.5,0,0,0,.51-.46v-1H257.22Z" fill="#21211f"/><path id="Path_10929" data-name="Path 10929" d="M236.66,174.38h9.48l.75-.76s.49-5.69-5.44-5.69-5.6,5.87-5.6,5.87Z" fill="#21211f"/><path id="Path_10930" data-name="Path 10930" d="M236.69,174.67s-3,.18-3-1.56v-.74a.21.21,0,0,1,.21-.21h0a.28.28,0,0,0,.25-.24v-.62a.28.28,0,0,0-.25-.25h0a.3.3,0,0,1-.31-.3v-1.26a.31.31,0,0,1,.31-.3h0a.07.07,0,0,0,.06-.07v-.45a.28.28,0,0,1,.27-.28h0V168a2.48,2.48,0,0,1,.24-1c.52-1.06,1.84-3.44,3.3-4l1.35-.37s.73-.84,1-.84a44.46,44.46,0,0,1,5.1-5.53.72.72,0,0,1,.61-.49.79.79,0,0,1,.74-.58,8.48,8.48,0,0,1,4.31-1.4c2.3-.18,5.14-.21,6.08-.24a.3.3,0,0,1,.31.3v19.89h0a.3.3,0,0,1,.3.3v.37a.3.3,0,0,1-.29.32H246.14s.49-5.93-4.56-5.93C235.81,168.67,236.69,174.67,236.69,174.67Z" fill="#f2f1f1"/><path id="Path_10931" data-name="Path 10931" d="M255.9,163.47v1.83l-12.72-1.74Z" fill="#fff"/><path id="Path_10932" data-name="Path 10932" d="M257.42,173.62h-11.3c0,.33,0,.67,0,1h11.3a.31.31,0,0,0,.31-.31V174a.3.3,0,0,0-.26-.34Z" fill="#333332"/><path id="Path_10933" data-name="Path 10933" d="M243.18,162.49a21.49,21.49,0,0,1,3-4.28c1.84-2,2.75-2.45,4.32-2.66,1.22-.18,3.7-.22,4.76-.25a.43.43,0,0,1,.43.42.17.17,0,0,1,0,.07l-.42,4.16a2.65,2.65,0,0,1-2.44,2.38l-8.75.67h-.57a.33.33,0,0,1-.34-.33v-.18Z" fill="#434444"/><path id="Path_10934" data-name="Path 10934" d="M255.16,156.59l-.4,3.3a2.23,2.23,0,0,1-2.09,2l-7,.36a.91.91,0,0,1-.84-1.31,11.36,11.36,0,0,1,2.1-2.91c1.77-1.71,2.09-1.8,3.18-2.05a42,42,0,0,1,5-.18c.12,0,.19.09.19.22Z" fill="#010101"/><path id="Path_10935" data-name="Path 10935" d="M244.68,160.43v-.51a.45.45,0,0,1,.15-.33l.25-.25a.45.45,0,0,1,.33-.15H246a.3.3,0,0,1,.31.3v1.93a.31.31,0,0,1-.31.31h-1a.3.3,0,0,1-.3-.31V161h-.1a.31.31,0,0,1-.3-.3h0a.3.3,0,0,1,.25-.31Z" fill="#221f1f" stroke="#221f1f" stroke-miterlimit="10" stroke-width="0.25"/><path id="Path_10936" data-name="Path 10936" d="M256.47,173.68h-9.65v0a8.21,8.21,0,0,0-.56-2.54,4.5,4.5,0,0,0-3.6-3h0v-5.72h0a27.57,27.57,0,0,1,2.35-3.61c1.47-1.89,3.46-3.35,5-3.64,1.22-.21,5-.36,6.09-.41a.27.27,0,0,1,.27.12.3.3,0,0,1,.12.27v18.52Zm-9.58-.06h9.53V155.15a.35.35,0,0,0-.1-.24.3.3,0,0,0-.24-.09c-1.13,0-4.86.18-6.08.4-1.5.27-3.46,1.71-4.93,3.6a28.78,28.78,0,0,0-2.37,3.61v5.63a4.3,4.3,0,0,1,2.39,1.1,5.2,5.2,0,0,1,1.25,1.89,8.38,8.38,0,0,1,.55,2.57Z" fill="#cecdcd"/><path id="Path_10937" data-name="Path 10937" d="M234.75,168v-.06a1.36,1.36,0,0,1,.41-1l.34-.34a2.46,2.46,0,0,1,1.68-.7h1.34a.52.52,0,0,1,.52.52.57.57,0,0,1-.06.25l-.46.92a1.6,1.6,0,0,1-1.41.84h-2A.46.46,0,0,1,234.75,168Z" fill="#fff"/><path id="Path_10938" data-name="Path 10938" d="M238.47,165.85h-.37c-.13.28-.28.56-.42.84-.25.58-.52,1.13-.8,1.68h.18a1.64,1.64,0,0,0,1.41-.84l.46-.94a.51.51,0,0,0-.2-.68.63.63,0,0,0-.27-.06Z" fill="#f89521"/><path id="Path_10939" data-name="Path 10939" d="M237.26,165.85l-.06,0a8.77,8.77,0,0,1,1.74-2.57,14.23,14.23,0,0,1,2.29-.83h1.41v.06h-1.39a16.53,16.53,0,0,0-2.26.83A11.37,11.37,0,0,0,237.26,165.85Z" fill="#cecdcd"/><line id="Line_150" data-name="Line 150" x1="236.66" y1="174.38" x2="237.43" y2="174.38" fill="none" stroke="#221f1f" stroke-miterlimit="10" stroke-width="0.25"/><line id="Line_151" data-name="Line 151" x1="245.44" y1="174.38" x2="246.14" y2="174.38" fill="none" stroke="#221f1f" stroke-miterlimit="10" stroke-width="0.25"/><path id="Path_10940" data-name="Path 10940" d="M240.24,161.73l1,.36v.37" fill="#cecdcd"/><path id="Path_10941" data-name="Path 10941" d="M240.06,162.86a4.14,4.14,0,0,0-.84-.28v-.05a4.79,4.79,0,0,1,.89.27Z" fill="#cecdcd"/><path id="Path_10942" data-name="Path 10942" d="M247.73,155.67H246l0-.06h1.74a7.56,7.56,0,0,1,3-1c1.71-.18,6.66-.25,6.72-.25v.06c-.06,0-5,.07-6.72.25a7,7,0,0,0-3,1Z" fill="#cecdcd"/><path id="Path_10943" data-name="Path 10943" d="M257.36,171.1h.24a.36.36,0,0,0,.28-.11l.8-.81a.39.39,0,0,0,.12-.28v-.26h13.66L270,172.26a.23.23,0,0,0,0,.31.24.24,0,0,0,.14.05h.84a.35.35,0,0,0,.16-.08l2.7-2.9h3.84l2.7,2.9a.21.21,0,0,0,.16.08h.84a.21.21,0,0,0,.22-.19.22.22,0,0,0-.06-.17l-2.4-2.62h13.1a.41.41,0,0,0,.42-.41V144.71a.42.42,0,0,0-.42-.42H258.62a.42.42,0,0,0-.42.42v23.68h-.84Z" fill="#d2d2d3"/><path id="Path_10944" data-name="Path 10944" d="M255.19,163.23h-1.1a.69.69,0,0,0-.7.68v0h0a.7.7,0,0,0,.68.7h1.12a.69.69,0,0,0,.7-.69h0a.72.72,0,0,0-.7-.7Z" fill="#5c6060"/><ellipse id="Ellipse_1549" data-name="Ellipse 1549" cx="254.67" cy="163.92" rx="0.89" ry="0.58" fill="#221f1f" stroke="#221f1f" stroke-miterlimit="10" stroke-width="0.25"/><path id="Path_10945" data-name="Path 10945" d="M255.31,164.08H254a.17.17,0,0,1-.15-.15h0a.17.17,0,0,1,.15-.15h1.29a.17.17,0,0,1,.15.15h0A.16.16,0,0,1,255.31,164.08Z" fill="#5c6060"/><path id="Path_10946" data-name="Path 10946" d="M236.69,174.67s-3,.19-3-1.56v-.75a.2.2,0,0,1,.21-.2.55.55,0,0,0,.18-.06.4.4,0,0,0,.07-.18v-.62a.27.27,0,0,0-.25-.25h0a.31.31,0,0,1-.31-.31v-1.25a.31.31,0,0,1,.31-.3s0,0,.06,0a.09.09,0,0,0,0-.07v-.45a.27.27,0,0,1,.12-.22h2.93a1.64,1.64,0,0,0,.84-.24l.68,1.28C236.14,171.05,236.69,174.67,236.69,174.67Z" fill="#a7a8ab"/><path id="Path_10947" data-name="Path 10947" d="M236.73,172.67a7,7,0,0,0,0,2s-3,.18-3-1.56v-.75a.2.2,0,0,1,.21-.2.64.64,0,0,0,.18-.06.16.16,0,0,0,.06-.13A4.22,4.22,0,0,0,236.73,172.67Z" fill="#333332"/><rect id="Rectangle_4510" data-name="Rectangle 4510" x="259.18" y="145.48" width="32.49" height="23.16" fill="#f2f1f1"/><path id="Path_10948" data-name="Path 10948" d="M237.09,168.42h-1.93a.41.41,0,0,1-.41-.42V168a1.44,1.44,0,0,1,.41-1l.34-.34a2.35,2.35,0,0,1,1.68-.7h1.33a.56.56,0,0,1,.47.25.63.63,0,0,1,0,.52l-.49.92a1.69,1.69,0,0,1-1.42.87Zm.06-2.57a2.24,2.24,0,0,0-1.65.7l-.34.34a1.46,1.46,0,0,0-.41,1V168a.41.41,0,0,0,.41.42h1.93a1.55,1.55,0,0,0,1.38-.84l.46-1a.44.44,0,0,0,0-.49.47.47,0,0,0-.41-.25Z" fill="#cecdcd"/><path id="Path_10949" data-name="Path 10949" d="M257.42,172.55h-9a.15.15,0,0,1-.12-.15l0-.07.28-.27a.45.45,0,0,1,.33-.15h8.47" fill="#cecdcd"/><rect id="Rectangle_4511" data-name="Rectangle 4511" x="293.27" y="146.4" width="0.36" height="21.48" fill="#cecdcd"/><rect id="Rectangle_4512" data-name="Rectangle 4512" x="292.7" y="146.4" width="0.56" height="0.56" fill="#b3b3b3"/><rect id="Rectangle_4513" data-name="Rectangle 4513" x="292.7" y="153.76" width="0.56" height="0.56" fill="#b3b3b3"/><rect id="Rectangle_4514" data-name="Rectangle 4514" x="292.7" y="158.91" width="0.56" height="0.56" fill="#b3b3b3"/><path id="Path_10950" data-name="Path 10950" d="M293.63,159.47h.28a.26.26,0,0,0,.28-.26v0h0a.28.28,0,0,0-.27-.28h-.29Z" fill="#b3b3b3"/><rect id="Rectangle_4515" data-name="Rectangle 4515" x="292.7" y="162.45" width="0.56" height="0.56" fill="#b3b3b3"/><rect id="Rectangle_4516" data-name="Rectangle 4516" x="292.7" y="167.36" width="0.56" height="0.56" fill="#b3b3b3"/><path id="Path_10951" data-name="Path 10951" d="M294.07,159.47v1.37h-.2v-1.37" fill="#b3b3b3"/><path id="Path_10952" data-name="Path 10952" d="M294,161.57h0a.2.2,0,0,0,.2-.18v-.31a.19.19,0,0,0-.18-.2h0a.2.2,0,0,0-.2.18v.31C293.75,161.45,293.87,161.57,294,161.57Z" fill="#b3b3b3"/><path id="Path_10953" data-name="Path 10953" d="M245.83,155.92a.66.66,0,0,0-.55.27c-.76,1-4,4.4-5,5.41a.26.26,0,0,0,0,.37l.08.05.88.37.62-.15a23.11,23.11,0,0,1,5.78-6.29Z" fill="#434444"/><path id="Path_10954" data-name="Path 10954" d="M245.35,156.13h1.77a21.71,21.71,0,0,0-5.29,5.81l-.58.12-1-.42A43.67,43.67,0,0,1,245.35,156.13Z" fill="#010101"/><circle id="Ellipse_1550" data-name="Ellipse 1550" cx="275.71" cy="173.71" r="4" fill="#333332"/><circle id="Ellipse_1551" data-name="Ellipse 1551" cx="275.71" cy="173.71" r="2.69" fill="#bfbebe"/><circle id="Ellipse_1552" data-name="Ellipse 1552" cx="275.71" cy="173.71" r="2.11" fill="#e5e6e6"/><path id="Path_10955" data-name="Path 10955" d="M274.48,174.45a1.14,1.14,0,0,1-.15-.34.2.2,0,0,0-.15-.12h-.25a.14.14,0,0,0-.15.15v0a3,3,0,0,0,.24.58.17.17,0,0,0,.24,0h0l.18-.18C274.53,174.6,274.53,174.5,274.48,174.45Z" fill="#454856"/><path id="Path_10956" data-name="Path 10956" d="M274.32,173.37a1.33,1.33,0,0,1,.13-.33.17.17,0,0,0,0-.19l-.18-.18a.17.17,0,0,0-.24,0h0a1.35,1.35,0,0,0-.24.61.15.15,0,0,0,.11.18h.28C274.27,173.49,274.32,173.44,274.32,173.37Z" fill="#454856"/><path id="Path_10957" data-name="Path 10957" d="M276,171.94v.27a.14.14,0,0,0,.12.15,1.73,1.73,0,0,1,.37.16.15.15,0,0,0,.18,0l.18-.18a.17.17,0,0,0,0-.24h0a2,2,0,0,0-.65-.27A.17.17,0,0,0,276,171.94Z" fill="#454856"/><path id="Path_10958" data-name="Path 10958" d="M275,172.49a1.73,1.73,0,0,1,.37-.16.19.19,0,0,0,.12-.15v-.24c0-.09-.09-.19-.18-.15a2.48,2.48,0,0,0-.65.27.16.16,0,0,0-.05.22l0,0,.19.18C274.85,172.52,274.91,172.55,275,172.49Z" fill="#454856"/><path id="Path_10959" data-name="Path 10959" d="M276.41,175a2,2,0,0,1-.34.12c-.06,0-.12.06-.12.15v.24a.15.15,0,0,0,.15.16h0a2.06,2.06,0,0,0,.59-.25.16.16,0,0,0,0-.22l0,0-.18-.18A.11.11,0,0,0,276.41,175Z" fill="#454856"/><path id="Path_10960" data-name="Path 10960" d="M277,173a1,1,0,0,1,.12.33.18.18,0,0,0,.15.12h.23a.14.14,0,0,0,.16-.15v0a1.92,1.92,0,0,0-.25-.61.16.16,0,0,0-.23,0h0l-.19.18A.21.21,0,0,0,277,173Z" fill="#454856"/><path id="Path_10961" data-name="Path 10961" d="M275.34,175.09A2,2,0,0,1,275,175a.13.13,0,0,0-.18,0l-.19.18a.17.17,0,0,0,0,.23l0,0a2,2,0,0,0,.58.24.16.16,0,0,0,.18-.12v-.28A.16.16,0,0,0,275.34,175.09Z" fill="#454856"/><path id="Path_10962" data-name="Path 10962" d="M277.08,174.14a1.66,1.66,0,0,1-.15.33.15.15,0,0,0,0,.19l.18.18a.15.15,0,0,0,.22,0,0,0,0,0,0,0,0,1.37,1.37,0,0,0,.25-.58.15.15,0,0,0-.15-.18h-.25C277.14,174,277.11,174.05,277.08,174.14Z" fill="#454856"/><circle id="Ellipse_1553" data-name="Ellipse 1553" cx="275.12" cy="173.62" r="0.28" fill="#454856"/><circle id="Ellipse_1554" data-name="Ellipse 1554" cx="275.34" cy="174.29" r="0.28" fill="#454856"/><circle id="Ellipse_1555" data-name="Ellipse 1555" cx="276.1" cy="174.29" r="0.28" fill="#454856"/><circle id="Ellipse_1556" data-name="Ellipse 1556" cx="276.32" cy="173.62" r="0.28" fill="#454856"/><circle id="Ellipse_1557" data-name="Ellipse 1557" cx="275.7" cy="173.16" r="0.28" fill="#454856"/><circle id="Ellipse_1558" data-name="Ellipse 1558" cx="241.31" cy="173.71" r="4" fill="#333332"/><circle id="Ellipse_1559" data-name="Ellipse 1559" cx="241.31" cy="173.71" r="2.69" fill="#bfbebe"/><circle id="Ellipse_1560" data-name="Ellipse 1560" cx="241.31" cy="173.71" r="2.11" fill="#e5e6e6"/><path id="Path_10963" data-name="Path 10963" d="M240.09,174.45a1.5,1.5,0,0,1-.16-.34.17.17,0,0,0-.15-.12h-.24a.14.14,0,0,0-.16.14s0,0,0,0a2.09,2.09,0,0,0,.24.58.16.16,0,0,0,.23,0h0l.18-.18C240.12,174.6,240.15,174.5,240.09,174.45Z" fill="#454856"/><path id="Path_10964" data-name="Path 10964" d="M239.93,173.37a1.33,1.33,0,0,1,.13-.33.17.17,0,0,0,0-.19l-.19-.18a.17.17,0,0,0-.23,0v0a1.49,1.49,0,0,0-.25.61.15.15,0,0,0,.12.18h.3C239.88,173.49,239.93,173.44,239.93,173.37Z" fill="#454856"/><path id="Path_10965" data-name="Path 10965" d="M241.58,171.94v.27a.16.16,0,0,0,.13.15,1.46,1.46,0,0,1,.36.16.15.15,0,0,0,.18,0l.19-.18a.17.17,0,0,0,0-.24h0a2,2,0,0,0-.65-.27A.17.17,0,0,0,241.58,171.94Z" fill="#454856"/><path id="Path_10966" data-name="Path 10966" d="M240.61,172.48a2.28,2.28,0,0,1,.36-.15.2.2,0,0,0,.13-.16v-.24a.15.15,0,0,0-.15-.15h0a3,3,0,0,0-.64.27.17.17,0,0,0-.05.23l0,0,.18.18A.14.14,0,0,0,240.61,172.48Z" fill="#454856"/><path id="Path_10967" data-name="Path 10967" d="M242,175a2,2,0,0,1-.34.12c-.06,0-.12.06-.12.15v.24a.14.14,0,0,0,.14.16h0a2,2,0,0,0,.58-.25.15.15,0,0,0,.05-.22l0,0-.18-.18A.11.11,0,0,0,242,175Z" fill="#454856"/><path id="Path_10968" data-name="Path 10968" d="M242.56,173a1.33,1.33,0,0,1,.13.33.17.17,0,0,0,.15.12h.24a.14.14,0,0,0,.16-.15v0a2.31,2.31,0,0,0-.25-.61.16.16,0,0,0-.23,0h0l-.19.18A.21.21,0,0,0,242.56,173Z" fill="#454856"/><path id="Path_10969" data-name="Path 10969" d="M240.94,175.09a2.19,2.19,0,0,1-.33-.12.13.13,0,0,0-.18,0l-.19.18a.16.16,0,0,0,0,.23l0,0a1.92,1.92,0,0,0,.57.24.15.15,0,0,0,.18-.13v-.27a.12.12,0,0,0-.07-.17h0Z" fill="#454856"/><path id="Path_10970" data-name="Path 10970" d="M242.7,174.14a1.24,1.24,0,0,1-.15.33.15.15,0,0,0,0,.19l.19.18a.15.15,0,0,0,.22,0s0,0,0,0a1.51,1.51,0,0,0,.25-.58.16.16,0,0,0-.16-.18h-.24A.1.1,0,0,0,242.7,174.14Z" fill="#454856"/><circle id="Ellipse_1561" data-name="Ellipse 1561" cx="240.73" cy="173.62" r="0.28" fill="#454856"/><circle id="Ellipse_1562" data-name="Ellipse 1562" cx="240.94" cy="174.29" r="0.28" fill="#454856"/><circle id="Ellipse_1563" data-name="Ellipse 1563" cx="241.71" cy="174.29" r="0.28" fill="#454856"/><circle id="Ellipse_1564" data-name="Ellipse 1564" cx="241.92" cy="173.62" r="0.28" fill="#454856"/><circle id="Ellipse_1565" data-name="Ellipse 1565" cx="241.31" cy="173.16" r="0.28" fill="#454856"/><path id="Path_10971" data-name="Path 10971" d="M258.2,147H253a.45.45,0,0,0-.28.12l-.27.27a.44.44,0,0,0-.08.45l1.38,2.81a.37.37,0,0,0,.35.22h3.69a.41.41,0,0,1,.39.39v.34h1V147Z" fill="#d2d2d3"/><path id="Path_10972" data-name="Path 10972" d="M263.94,165.07l.42.24v3.33h-.42Z" fill="url(#linear-gradient)"/><path id="Path_10973" data-name="Path 10973" d="M268.88,167.92v.72h-4.15v-3.11Z" fill="url(#linear-gradient-2)"/><path id="Path_10974" data-name="Path 10974" d="M264.73,164.69v.83l-.37-.21v-.41L259,161.8v-.43Z" fill="#4281c3"/><path id="Path_10975" data-name="Path 10975" d="M259,162.21v5.71l4.95-2.85Z" fill="url(#linear-gradient-3)"/><path id="Path_10976" data-name="Path 10976" d="M259,167.92v.72h4.95v-3.57Z" fill="#4281c3"/><path id="Path_10977" data-name="Path 10977" d="M275.73,157.08l1.42-.84.75.46a.19.19,0,0,0,.26-.07.14.14,0,0,0,0-.09v-3.71a.56.56,0,0,0-.29-.49l-2.17-1.26a.58.58,0,0,0-.57,0L273,152.34a.56.56,0,0,0-.29.49v2.51a.57.57,0,0,0,.29.48l2.17,1.26A.53.53,0,0,0,275.73,157.08Zm1.41-2-1.62.94v-1.84l1.62-.94Zm-1.68-2.93,1.62.94-1.62.93-1.62-.93Zm-1.67,1.06,1.58,1V156l-1.62-.94Z" fill="#4281c3"/><path id="Path_10978" data-name="Path 10978" d="M272,158.42a1.09,1.09,0,0,0-.5.1.84.84,0,0,0-.35.3h0l-.15-.29a.15.15,0,0,0-.12-.07h-.12a.14.14,0,0,0-.14.14h0v2.48a.1.1,0,0,0,.1.1h.05L271,161a.29.29,0,0,0,.14-.24v-.94a1.11,1.11,0,0,1,.17-.73.66.66,0,0,1,.53-.22.48.48,0,0,1,.42.16.72.72,0,0,1,.13.38v1.33a.28.28,0,0,0,.13.24l.29.18h0a.1.1,0,0,0,.1-.1V159.4a1.21,1.21,0,0,0-.05-.42A.83.83,0,0,0,272,158.42Z" fill="#4281c3"/><path id="Path_10979" data-name="Path 10979" d="M281,158.6l-.29-.17h-.05a.1.1,0,0,0-.1.1v.89a2.15,2.15,0,0,1-.17,1.09.58.58,0,0,1-.54.21.46.46,0,0,1-.41-.15.72.72,0,0,1-.13-.38v-1.67a.09.09,0,0,0-.1-.1h-.05l-.29.17a.31.31,0,0,0-.13.24v1.35a1.1,1.1,0,0,0,0,.4.67.67,0,0,0,.21.36,1,1,0,0,0,.71.24,1.24,1.24,0,0,0,.5-.1.84.84,0,0,0,.34-.28v0l.24.3a.16.16,0,0,0,.11,0H281a.14.14,0,0,0,.14-.14v-2.14A.28.28,0,0,0,281,158.6Z" fill="#4281c3"/><path id="Path_10980" data-name="Path 10980" d="M283,160.75l-.26,0a.34.34,0,0,1-.27-.1.39.39,0,0,1-.1-.31V158.9h.37a.27.27,0,0,0,.25-.14l.08-.16a.1.1,0,0,0,0-.12h-.66V158a.15.15,0,0,0-.14-.14h-.12a.14.14,0,0,0-.13.1l-.16.48-.33.17a.12.12,0,0,0-.07.12v0a.13.13,0,0,0,.14.13h.23v1.47c0,.58.27.87.84.87a1.63,1.63,0,0,0,.31,0l.15,0a.13.13,0,0,0,.1-.13v-.16a.15.15,0,0,0-.15-.13Z" fill="#4281c3"/><path id="Path_10981" data-name="Path 10981" d="M275.74,158.53a.13.13,0,0,0-.14-.13h-.1a.11.11,0,0,0-.08,0l-.24.26h0a1,1,0,0,0-1.3-.17,1.28,1.28,0,0,0-.56,1.1h0v.29h0a1.26,1.26,0,0,0,.56,1.1,1,1,0,0,0,1.3-.17v.27h0a.54.54,0,0,1-.15.39.83.83,0,0,1-.59.2h-.12a.1.1,0,0,0-.1.09.14.14,0,0,0,0,.06l.2.26a.32.32,0,0,0,.31.12,1.29,1.29,0,0,0,.69-.34,1.11,1.11,0,0,0,.3-.8Zm-.56,1.83h0a.73.73,0,0,1-1,.08.71.71,0,0,1-.25-.5v-.05a0,0,0,0,1,0,0v-.2a0,0,0,0,1,0,0v-.06a.73.73,0,0,1,.8-.66.7.7,0,0,1,.48.24h0Z" fill="#4281c3"/><path id="Path_10982" data-name="Path 10982" d="M277.46,159.64l.67-.72a.09.09,0,0,0,0-.13.11.11,0,0,0-.07,0h-.33a.25.25,0,0,0-.2.09l-.49.49-.31.31v-1.26a.26.26,0,0,0-.1-.19l-.26-.18a.14.14,0,0,0-.19,0,.16.16,0,0,0,0,.08v3a.11.11,0,0,0,.1.1h.05l.29-.18a.27.27,0,0,0,.14-.24v-.46l.31-.32.79,1.08a.25.25,0,0,0,.22.12h.36a.1.1,0,0,0,.09-.1s0,0,0-.05Z" fill="#4281c3"/><path id="Path_10983" data-name="Path 10983" d="M270,158.43H270s-.05,0-.06,0l-.3.27h0a1,1,0,0,0-1.3-.17,1.24,1.24,0,0,0-.56,1.1h0v.28h0a1.24,1.24,0,0,0,.56,1.1,1,1,0,0,0,1.3-.17h0l.24.27a.11.11,0,0,0,.07,0H270a.14.14,0,0,0,.14-.14v-2.46a.14.14,0,0,0-.14-.14Zm-.42,1v1h0v0a.73.73,0,0,1-1,.07.76.76,0,0,1-.24-.49v-.41a.73.73,0,0,1,.79-.67.75.75,0,0,1,.49.25h0Z" fill="#4281c3"/><path id="Path_10984" data-name="Path 10984" d="M286.7,149.06l-.42-.25v-3.33h.42Z" fill="url(#linear-gradient-4)"/><path id="Path_10985" data-name="Path 10985" d="M281.75,146.2v-.72h4.16v3.12Z" fill="url(#linear-gradient-5)"/><path id="Path_10986" data-name="Path 10986" d="M285.91,149.43v-.83l.37.21v.41l5.37,3.11v.42Z" fill="#4281c3"/><path id="Path_10987" data-name="Path 10987" d="M291.65,151.91V146.2l-4.95,2.86Z" fill="url(#linear-gradient-6)"/><path id="Path_10988" data-name="Path 10988" d="M291.65,146.2v-.72H286.7v3.58Z" fill="#4281c3"/></g></g><g id="Layer_2-3" data-name="Layer 2-3"><g id="Layer_1-2-2" data-name="Layer 1-2"><path id="Path_11048" data-name="Path 11048" d="M130.16,124H177.4V163H130.16Z" fill="#fff" fill-opacity="0"/><path id="Path_10990" data-name="Path 10990" d="M156.29,139h.55s0,0,0,0v10.24h-.59Z" fill="#cecdcd"/><path id="Path_10991" data-name="Path 10991" d="M174.37,159.25h-8l-.63-.71s-.44-5.27,4.58-5.27,4.75,5.44,4.75,5.44Z" fill="#21211f"/><path id="Path_10992" data-name="Path 10992" d="M174.34,159.56s2.54.17,2.54-1.42v-.71a.25.25,0,0,0,0-.15.24.24,0,0,0-.14-.05h0a.24.24,0,0,1-.2-.23v-.6a.24.24,0,0,1,.2-.23h0a.26.26,0,0,0,.26-.28v-1.15a.27.27,0,0,0-.26-.28h0a.06.06,0,0,1-.05-.06V154a.3.3,0,0,0-.06-.18.23.23,0,0,0-.17-.07h0v-.39a2.48,2.48,0,0,0-.2-1c-.45-1-1.56-3.2-2.8-3.74l-1.12-.34s-.6-.78-.88-.78a39.92,39.92,0,0,0-4.31-5.14.59.59,0,0,0-.51-.42.68.68,0,0,0-.62-.54,6.77,6.77,0,0,0-3.64-1.34c-2-.18-4.36-.2-5.15-.23a.27.27,0,0,0-.26.28v18.48h0a.28.28,0,0,0-.26.29v.34a.28.28,0,0,0,.26.29h9.5S166,154,170.25,154C175.12,154,174.34,159.56,174.34,159.56Z" fill="#f2f1f1"/><path id="Path_10993" data-name="Path 10993" d="M158.15,149.13v1.71l10.74-1.63Z" fill="#fff"/><path id="Path_10994" data-name="Path 10994" d="M156.85,158.57h9.54a7.53,7.53,0,0,0,0,1h-9.54a.27.27,0,0,1-.26-.28h0v-.34a.25.25,0,0,1,.06-.23A.21.21,0,0,1,156.85,158.57Z" fill="#333332"/><path id="Path_10995" data-name="Path 10995" d="M168.87,148.24a18.68,18.68,0,0,0-2.48-4c-1.56-1.83-2.34-2.28-3.66-2.48a38.69,38.69,0,0,0-4-.23.37.37,0,0,0-.27.13.45.45,0,0,0-.09.3l.36,3.84a2.32,2.32,0,0,0,2,2.2l7.38.63h.52a.3.3,0,0,0,.29-.32h0Z" fill="#434444"/><path id="Path_10996" data-name="Path 10996" d="M158.77,142.76l.36,3.06a2,2,0,0,0,1.77,1.82l5.94.31a.74.74,0,0,0,.69-.38.88.88,0,0,0,0-.85,10.71,10.71,0,0,0-1.78-2.7c-1.48-1.6-1.78-1.65-2.67-1.91a29.93,29.93,0,0,0-4.23-.17c-.1,0-.15.08-.15.2Z" fill="#010101"/><path id="Path_10997" data-name="Path 10997" d="M167.62,146.27v-.45a.48.48,0,0,0-.13-.32l-.21-.23a.44.44,0,0,0-.29-.14h-.46a.28.28,0,0,0-.26.29v1.8a.27.27,0,0,0,.26.28h.83a.28.28,0,0,0,.26-.28v-.39h.08a.28.28,0,0,0,.25-.29h0a.27.27,0,0,0-.2-.28Z" fill="#221f1f" stroke="#221f1f" stroke-miterlimit="10" stroke-width="0.25"/><path id="Path_10998" data-name="Path 10998" d="M157.66,158.59h8.14v0a8.31,8.31,0,0,1,.47-2.37,3.91,3.91,0,0,1,3-2.74h0v-5.27h0a26,26,0,0,0-2-3.37c-1.24-1.77-2.9-3.11-4.18-3.36-1-.2-4.2-.35-5.13-.38a.25.25,0,0,0-.24.12.34.34,0,0,0-.1.26v17.13Zm8.09-.06h-8V141.42a.33.33,0,0,1,.07-.23.32.32,0,0,1,.21-.08c.94,0,4.1.17,5.14.37,1.24.26,2.9,1.6,4.15,3.37a28.91,28.91,0,0,1,2,3.34v5.21a3.39,3.39,0,0,0-2,1,4.8,4.8,0,0,0-1.06,1.74A9,9,0,0,0,165.75,158.53Z" fill="#cecdcd"/><path id="Path_10999" data-name="Path 10999" d="M176,153.32v0a1.43,1.43,0,0,0-.35-1l-.29-.31a2,2,0,0,0-1.4-.63h-1.11a.43.43,0,0,0-.38.21.49.49,0,0,0,0,.47l.39.89a1.32,1.32,0,0,0,1.16.78h1.68A.44.44,0,0,0,176,153.32Z" fill="#fff"/><path id="Path_11000" data-name="Path 11000" d="M172.83,151.35h.31c.11.26.23.51.35.78.21.52.45,1.05.68,1.56H174a1.27,1.27,0,0,1-1.17-.8l-.39-.88a.52.52,0,0,1,0-.44A.42.42,0,0,1,172.83,151.35Z" fill="#f89521"/><path id="Path_11001" data-name="Path 11001" d="M173.85,151.35l0,0a8.28,8.28,0,0,0-1.48-2.4,10.73,10.73,0,0,0-1.92-.78h-1.19v.06h1.19a12.1,12.1,0,0,1,1.89.78A8.09,8.09,0,0,1,173.85,151.35Z" fill="#cecdcd"/><path id="Path_11002" data-name="Path 11002" d="M156.9,158.61l-20.55,0-1.07-1.49H133.5l-1.4-1a.38.38,0,0,0-.25-.09h-.63a.44.44,0,0,1-.38-.45v-.92H156.9Z" fill="#21211f"/><line id="Line_152" data-name="Line 152" x1="174.36" y1="159.25" x2="173.71" y2="159.25" fill="none" stroke="#221f1f" stroke-miterlimit="10" stroke-width="0.25"/><line id="Line_153" data-name="Line 153" x1="166.97" y1="159.25" x2="166.37" y2="159.25" fill="none" stroke="#221f1f" stroke-miterlimit="10" stroke-width="0.25"/><path id="Path_11003" data-name="Path 11003" d="M174,153.72h1.63a.38.38,0,0,0,.36-.39v-.06a1.32,1.32,0,0,0-.36-.94l-.29-.31a1.89,1.89,0,0,0-1.4-.66h-1.11a.48.48,0,0,0-.39.23.6.6,0,0,0,0,.47l.39.89A1.38,1.38,0,0,0,174,153.72Zm-.08-2.37a1.89,1.89,0,0,1,1.4.63l.31.34a1.41,1.41,0,0,1,.36.94v.06a.38.38,0,0,1-.36.39H174a1.33,1.33,0,0,1-1.17-.8l-.39-.88a.47.47,0,0,1,0-.46.4.4,0,0,1,.35-.23Z" fill="#a7a8ab"/><path id="Path_11004" data-name="Path 11004" d="M171.51,148.55a3.16,3.16,0,0,1,.71-.25v-.06a2.77,2.77,0,0,0-.71.26Z" fill="#cecdcd"/><path id="Path_11005" data-name="Path 11005" d="M165.05,141.94h1.47v-.06h-1.47a6,6,0,0,0-2.52-.94c-1.42-.17-5.63-.23-5.69-.23v.06c.06,0,4.23,0,5.66.22a5.9,5.9,0,0,1,2.55.95Z" fill="#cecdcd"/><path id="Path_11006" data-name="Path 11006" d="M158.74,148.92h.91a.57.57,0,0,1,.43.19.73.73,0,0,1,.17.47h0a.69.69,0,0,1-.17.46.57.57,0,0,1-.43.19h-.91a.54.54,0,0,1-.42-.19.62.62,0,0,1-.17-.47h0a.62.62,0,0,1,.17-.46A.57.57,0,0,1,158.74,148.92Z" fill="#5c6060"/><ellipse id="Ellipse_1566" data-name="Ellipse 1566" cx="159.19" cy="149.55" rx="0.75" ry="0.54" fill="#221f1f" stroke="#221f1f" stroke-miterlimit="10" stroke-width="0.25"/><path id="Path_11007" data-name="Path 11007" d="M158.64,149.7h1.09a.14.14,0,0,0,.11-.12v0a.12.12,0,0,0-.11-.11h-1.09a.12.12,0,0,0-.1.11v0C158.51,149.64,158.57,149.7,158.64,149.7Z" fill="#5c6060"/><path id="Path_11008" data-name="Path 11008" d="M174.34,159.56s2.54.17,2.54-1.42v-.72a.24.24,0,0,0,0-.14.16.16,0,0,0-.14-.05.47.47,0,0,1-.15-.06.23.23,0,0,1,0-.17v-.61a.23.23,0,0,1,.2-.22h0a.27.27,0,0,0,.26-.29v-1.14a.27.27,0,0,0-.26-.28s0,0-.05,0a.14.14,0,0,1,0-.06v-.43a.24.24,0,0,0-.11-.2H174a1.36,1.36,0,0,1-.73-.22l-.56,1.2C174.81,156.17,174.34,159.56,174.34,159.56Z" fill="#a7a8ab"/><path id="Path_11009" data-name="Path 11009" d="M174.31,157.68a7,7,0,0,1,0,1.88s2.54.17,2.54-1.42v-.72a.24.24,0,0,0,0-.14.16.16,0,0,0-.14-.05.35.35,0,0,1-.14-.06.13.13,0,0,1-.06-.11A3.44,3.44,0,0,1,174.31,157.68Z" fill="#333332"/><path id="Path_11010" data-name="Path 11010" d="M156.9,157.57h7.58a.14.14,0,0,0,.09-.08.16.16,0,0,0,0-.12l-.24-.26A.35.35,0,0,0,164,157H156.9" fill="#cecdcd"/><path id="Path_11011" data-name="Path 11011" d="M166.63,142.14l-1.5,0A21.5,21.5,0,0,1,170,148l.52.14.71-.34a.24.24,0,0,0,.13-.18.23.23,0,0,0-.05-.21c-.8-.94-3.55-4.08-4.2-5A.56.56,0,0,0,166.63,142.14Z" fill="#434444"/><path id="Path_11012" data-name="Path 11012" d="M167.05,142.33h-1.5a19.19,19.19,0,0,1,4.46,5.4l.49.11.86-.39A39.07,39.07,0,0,0,167.05,142.33Z" fill="#010101"/><path id="Path_11013" data-name="Path 11013" d="M156.85,156.6h-.6a.22.22,0,0,1-.17-.09l-.52-.57a.32.32,0,0,1-.08-.2v-1H144.29l1.56,1.83a.18.18,0,0,1,0,.16.14.14,0,0,1-.12.09h-.55a.13.13,0,0,1-.1-.06l-1.74-2h-4l-1.74,2a.11.11,0,0,1-.1.06H137a.14.14,0,0,1-.13-.09.16.16,0,0,1,0-.16l1.56-1.83h-6.65v1.34a.27.27,0,0,1-.25.29h-.39a.28.28,0,0,1-.26-.29v-1.71h-.21a.08.08,0,0,1-.09,0,.12.12,0,0,1,0-.1v-.42a.12.12,0,0,1,0-.1.08.08,0,0,1,.09,0h.21v-3.88h-.21a.13.13,0,0,1-.09,0,.14.14,0,0,1,0-.1v-.27a.13.13,0,0,1,0-.1.1.1,0,0,1,.09,0H156.9v7.36Z" fill="#cecdcd"/><rect id="Rectangle_4518" data-name="Rectangle 4518" x="131.61" y="149.72" width="24.23" height="3.99" fill="#f2f1f1"/><path id="Path_11014" data-name="Path 11014" d="M156.43,154.6h0a.25.25,0,0,0,.17-.08.28.28,0,0,0,.06-.18v-.74a.3.3,0,0,0-.06-.18.23.23,0,0,0-.17-.07h0a.2.2,0,0,0-.16.07.26.26,0,0,0-.07.18v.75a.26.26,0,0,0,.07.18.2.2,0,0,0,.16.07Z" fill="#a7a8ab"/><rect id="Rectangle_4519" data-name="Rectangle 4519" x="131.58" y="149.75" width="0.05" height="3.93" fill="#e5e6e6"/><rect id="Rectangle_4520" data-name="Rectangle 4520" x="155.79" y="149.75" width="0.05" height="3.93" fill="#e5e6e6"/><rect id="Rectangle_4521" data-name="Rectangle 4521" x="130.88" y="153.66" width="25.33" height="0.06" fill="#e5e6e6"/><path id="Path_11015" data-name="Path 11015" d="M131.35,156.08h0a.18.18,0,0,0,.14,0,.22.22,0,0,0,.06-.15v-.35a.24.24,0,0,0-.05-.14.16.16,0,0,0-.13-.06h0a.16.16,0,0,0-.13.06.16.16,0,0,0-.05.14v.35a.16.16,0,0,0,.05.14.13.13,0,0,0,.13.05Z" fill="#f89521"/><path id="Path_11016" data-name="Path 11016" d="M131.63,153.66v-3.45l2.72,1.72Z" fill="url(#linear-gradient-7)"/><path id="Path_11017" data-name="Path 11017" d="M131.63,150.21v-.43h2.72v2.16Z" fill="url(#linear-gradient-8)"/><path id="Path_11018" data-name="Path 11018" d="M155.79,149.78v3.45l-2.72-1.73Z" fill="url(#linear-gradient-9)"/><path id="Path_11019" data-name="Path 11019" d="M155.79,153.23v.43h-2.72V151.5Z" fill="url(#linear-gradient-10)"/><rect id="Rectangle_4522" data-name="Rectangle 4522" x="131.6" y="150.92" width="24.21" height="0.06" fill="#e5e6e6"/><rect id="Rectangle_4523" data-name="Rectangle 4523" x="131.6" y="152.38" width="24.21" height="0.06" fill="#e5e6e6"/><path id="Path_11020" data-name="Path 11020" d="M148,153.18l-.61-.39L147,153a.11.11,0,0,1-.08,0,.09.09,0,0,1,0-.08v-1.77a.3.3,0,0,1,.12-.24l.94-.59a.23.23,0,0,1,.25,0l.93.59a.31.31,0,0,1,.13.24v1.19a.28.28,0,0,1-.13.23l-.93.6A.23.23,0,0,1,148,153.18Zm-.61-1,.71.44v-.89l-.71-.44Zm.71-1.39-.71.44.71.45.72-.45Zm.75.48-.71.45v.89l.71-.45Z" fill="#4281c3"/><path id="Path_11021" data-name="Path 11021" d="M144.16,151.07a.58.58,0,0,1,.26.06.41.41,0,0,1,.19.18h0l.09-.17a.08.08,0,0,1,.07,0h.06a.07.07,0,0,1,.08.08v1.45a.06.06,0,0,1-.06.06h0l-.16-.1a.17.17,0,0,1-.07-.14v-.55a.8.8,0,0,0-.09-.43.37.37,0,0,0-.28-.13.28.28,0,0,0-.22.09.46.46,0,0,0-.06.23v.78a.16.16,0,0,1-.08.14l-.15.1h0a.06.06,0,0,1-.05-.06v-1a.86.86,0,0,1,0-.23A.45.45,0,0,1,144.16,151.07Z" fill="#4281c3"/><path id="Path_11022" data-name="Path 11022" d="M139.34,151.18l.15-.1a0,0,0,0,1,0,0,.06.06,0,0,1,0,.06v.52a1.77,1.77,0,0,0,.09.64.33.33,0,0,0,.29.12.22.22,0,0,0,.21-.09.34.34,0,0,0,.07-.22v-1a.06.06,0,0,1,.05-.06h0l.15.1a.16.16,0,0,1,.08.14v.78a.85.85,0,0,1,0,.23.57.57,0,0,1-.11.22.52.52,0,0,1-.38.13.42.42,0,0,1-.27-.06.35.35,0,0,1-.18-.16h0l-.13.18a.09.09,0,0,1-.06,0h0a.08.08,0,0,1-.07-.08v-1.27A.15.15,0,0,1,139.34,151.18Z" fill="#4281c3"/><path id="Path_11023" data-name="Path 11023" d="M138.27,152.43h.14a.2.2,0,0,0,.14-.06.2.2,0,0,0,.06-.18v-.84h-.2a.13.13,0,0,1-.13-.08l-.05-.09v-.06l.05,0h.33v-.27a.09.09,0,0,1,.07-.09h.06a.07.07,0,0,1,.07.06l.09.28.17.1a.08.08,0,0,1,.05.07h0a.09.09,0,0,1-.08.08h-.12v.86c0,.34-.15.51-.44.51a.48.48,0,0,1-.17,0h-.08a.1.1,0,0,1,0-.08v-.09a.08.08,0,0,1,0-.08A.07.07,0,0,1,138.27,152.43Z" fill="#4281c3"/><path id="Path_11024" data-name="Path 11024" d="M142.14,151.14a.07.07,0,0,1,0-.06s0,0,.05,0h.1l.13.15h0a.5.5,0,0,1,.69-.1.79.79,0,0,1,.3.65h0v.17h0a.76.76,0,0,1-.3.64.49.49,0,0,1-.69-.08v.16h0a.3.3,0,0,0,.08.23.39.39,0,0,0,.31.11h.07s0,0,0,0a.06.06,0,0,1,0,.06l-.1.15a.17.17,0,0,1-.17.07.59.59,0,0,1-.36-.2.66.66,0,0,1-.16-.47Zm.3,1.06h0a.36.36,0,0,0,.41.13.42.42,0,0,0,.27-.38v-.23a.42.42,0,0,0-.27-.37.34.34,0,0,0-.41.12h0Z" fill="#4281c3"/><path id="Path_11025" data-name="Path 11025" d="M141.22,151.78l-.35-.42s0,0,0-.05,0,0,0,0h.18a.16.16,0,0,1,.11,0l.25.29.16.18v-.74a.12.12,0,0,1,.05-.1l.14-.11a.08.08,0,0,1,.08,0,.08.08,0,0,1,0,.07v1.73a.06.06,0,0,1,0,.06h0l-.16-.1a.17.17,0,0,1-.07-.14v-.27l-.16-.19-.42.64a.16.16,0,0,1-.12.06h-.19a.05.05,0,0,1-.05,0,0,0,0,0,1,0,0Z" fill="#4281c3"/><path id="Path_11026" data-name="Path 11026" d="M145.19,151.08h0a0,0,0,0,1,0,0l.16.16h0a.48.48,0,0,1,.69-.11h0a.79.79,0,0,1,.3.64h0v.16h0a.82.82,0,0,1-.3.67.51.51,0,0,1-.71-.1h0l-.13.16h-.1a.08.08,0,0,1-.07-.09v-1.42A.07.07,0,0,1,145.19,151.08Zm.23.59v.56h0a.37.37,0,0,0,.43.17.43.43,0,0,0,.28-.4v-.23a.45.45,0,0,0-.28-.42.38.38,0,0,0-.43.17h0Z" fill="#4281c3"/><path id="Path_11027" data-name="Path 11027" d="M152.8,149.75v.17H153v.35h.18v-.35h.18v-.17" fill="#a7a8ab"/><path id="Path_11028" data-name="Path 11028" d="M146.26,149.75v.17h.19v.35h.18v-.35h.15v-.17" fill="#a7a8ab"/><path id="Path_11029" data-name="Path 11029" d="M139.72,149.75v.17h.16v.35h.18v-.35h.18v-.17" fill="#a7a8ab"/><path id="Path_11030" data-name="Path 11030" d="M133.16,149.75v.17h.18v.35h.19v-.35h.18v-.17" fill="#a7a8ab"/><rect id="Rectangle_4524" data-name="Rectangle 4524" x="130.88" y="149.72" width="25.97" height="0.06" fill="#e5e6e6"/><ellipse id="Ellipse_1567" data-name="Ellipse 1567" cx="141.15" cy="158.62" rx="3.4" ry="3.73" fill="#333332"/><ellipse id="Ellipse_1568" data-name="Ellipse 1568" cx="141.15" cy="158.62" rx="2.28" ry="2.51" fill="#bfbebe"/><ellipse id="Ellipse_1569" data-name="Ellipse 1569" cx="141.15" cy="158.62" rx="1.82" ry="2" fill="#e5e6e6"/><path id="Path_11031" data-name="Path 11031" d="M142.2,159.31a1,1,0,0,0,.12-.32c0-.05.08-.11.14-.11h.2a.12.12,0,0,1,.1.05.14.14,0,0,1,0,.12,2.11,2.11,0,0,1-.22.54.14.14,0,0,1-.1.07.15.15,0,0,1-.11,0l-.15-.17A.12.12,0,0,1,142.2,159.31Z" fill="#454856"/><path id="Path_11032" data-name="Path 11032" d="M142.35,158.31a1.7,1.7,0,0,0-.1-.32.13.13,0,0,1,0-.17l.16-.17a.15.15,0,0,1,.11,0,.14.14,0,0,1,.1.07,1.61,1.61,0,0,1,.2.57.17.17,0,0,1,0,.12.14.14,0,0,1-.1,0h-.22C142.4,158.42,142.35,158.37,142.35,158.31Z" fill="#454856"/><path id="Path_11033" data-name="Path 11033" d="M141,157v.22a.16.16,0,0,1-.11.15,1.73,1.73,0,0,0-.31.14.1.1,0,0,1-.15,0h0l-.17-.17a.16.16,0,0,1,0-.12.11.11,0,0,1,.06-.1,1.57,1.57,0,0,1,.55-.27.17.17,0,0,1,.15.18Z" fill="#454856"/><path id="Path_11034" data-name="Path 11034" d="M141.78,157.48a1.41,1.41,0,0,0-.31-.14.19.19,0,0,1-.11-.15V157a.13.13,0,0,1,0-.11.11.11,0,0,1,.11,0,2.2,2.2,0,0,1,.54.25.14.14,0,0,1,.06.11.13.13,0,0,1,0,.12l-.16.17a.14.14,0,0,1-.15,0Z" fill="#454856"/><path id="Path_11035" data-name="Path 11035" d="M140.58,159.79a.79.79,0,0,0,.29.11.16.16,0,0,1,.1.15v.23a.16.16,0,0,1-.05.11.11.11,0,0,1-.11,0,1.83,1.83,0,0,1-.49-.23.14.14,0,0,1-.06-.11.17.17,0,0,1,0-.12l.15-.17S140.53,159.76,140.58,159.79Z" fill="#454856"/><path id="Path_11036" data-name="Path 11036" d="M140.12,158a.87.87,0,0,0-.1.31.17.17,0,0,1-.14.11h-.2a.1.1,0,0,1-.1,0,.12.12,0,0,1,0-.12,2.07,2.07,0,0,1,.21-.57.13.13,0,0,1,.1-.06.12.12,0,0,1,.11,0l.16.17C140.12,157.85,140.14,157.91,140.12,158Z" fill="#454856"/><path id="Path_11037" data-name="Path 11037" d="M141.51,159.91a1.62,1.62,0,0,0,.28-.11.1.1,0,0,1,.15,0h0l.15.18a.12.12,0,0,1,0,.12.11.11,0,0,1-.06.1,1.47,1.47,0,0,1-.49.23.11.11,0,0,1-.11,0,.16.16,0,0,1-.05-.11v-.23a.17.17,0,0,1,0-.1A.13.13,0,0,1,141.51,159.91Z" fill="#454856"/><path id="Path_11038" data-name="Path 11038" d="M140,159a1.79,1.79,0,0,0,.13.32.14.14,0,0,1,0,.16l-.16.18a.15.15,0,0,1-.11,0,.14.14,0,0,1-.1-.07,1.38,1.38,0,0,1-.21-.54.12.12,0,0,1,0-.12.13.13,0,0,1,.1-.06h.2C139.93,158.88,140,158.94,140,159Z" fill="#454856"/><ellipse id="Ellipse_1570" data-name="Ellipse 1570" cx="141.67" cy="158.51" rx="0.23" ry="0.26" fill="#454856"/><ellipse id="Ellipse_1571" data-name="Ellipse 1571" cx="141.49" cy="159.14" rx="0.23" ry="0.26" fill="#454856"/><ellipse id="Ellipse_1572" data-name="Ellipse 1572" cx="140.84" cy="159.14" rx="0.23" ry="0.26" fill="#454856"/><ellipse id="Ellipse_1573" data-name="Ellipse 1573" cx="140.66" cy="158.53" rx="0.23" ry="0.26" fill="#454856"/><ellipse id="Ellipse_1574" data-name="Ellipse 1574" cx="141.15" cy="158.11" rx="0.23" ry="0.26" fill="#454856"/><ellipse id="Ellipse_1575" data-name="Ellipse 1575" cx="170.4" cy="158.62" rx="3.4" ry="3.73" fill="#333332"/><ellipse id="Ellipse_1576" data-name="Ellipse 1576" cx="170.4" cy="158.62" rx="2.28" ry="2.51" fill="#bfbebe"/><ellipse id="Ellipse_1577" data-name="Ellipse 1577" cx="170.39" cy="158.62" rx="1.82" ry="2" fill="#e5e6e6"/><path id="Path_11039" data-name="Path 11039" d="M171.43,159.31a1.27,1.27,0,0,0,.13-.32.16.16,0,0,1,.13-.11h.21a.12.12,0,0,1,.1.05.14.14,0,0,1,0,.12,2.52,2.52,0,0,1-.21.54.14.14,0,0,1-.1.07.15.15,0,0,1-.11,0l-.16-.17A.1.1,0,0,1,171.43,159.31Z" fill="#454856"/><path id="Path_11040" data-name="Path 11040" d="M171.56,158.31a1.19,1.19,0,0,0-.1-.32.14.14,0,0,1,0-.17l.15-.17a.15.15,0,0,1,.11,0,.14.14,0,0,1,.1.07,1.46,1.46,0,0,1,.21.57.14.14,0,0,1,0,.12.12.12,0,0,1-.1,0h-.2a.18.18,0,0,1-.16-.11Z" fill="#454856"/><path id="Path_11041" data-name="Path 11041" d="M170.19,157v.22a.15.15,0,0,1-.1.15,1.83,1.83,0,0,0-.32.14.1.1,0,0,1-.15,0h0l-.16-.17a.12.12,0,0,1,0-.12.14.14,0,0,1,.06-.11,1.82,1.82,0,0,1,.54-.27A.2.2,0,0,1,170.19,157Z" fill="#454856"/><path id="Path_11042" data-name="Path 11042" d="M171,157.48a1.3,1.3,0,0,0-.32-.14.21.21,0,0,1-.1-.15V157a.13.13,0,0,1,0-.11.11.11,0,0,1,.11,0,2.2,2.2,0,0,1,.54.25.19.19,0,0,1,.07.11.17.17,0,0,1,0,.12l-.15.17a.15.15,0,0,1-.16,0Z" fill="#454856"/><path id="Path_11043" data-name="Path 11043" d="M169.8,159.79a.75.75,0,0,0,.28.11.15.15,0,0,1,.1.15v.23a.15.15,0,0,1,0,.11.12.12,0,0,1-.11,0,1.58,1.58,0,0,1-.49-.23.19.19,0,0,1-.07-.11.17.17,0,0,1,0-.12l.13-.17A.15.15,0,0,1,169.8,159.79Z" fill="#454856"/><path id="Path_11044" data-name="Path 11044" d="M169.33,158a1.12,1.12,0,0,0-.1.31.16.16,0,0,1-.13.11h-.22a.1.1,0,0,1-.1,0,.13.13,0,0,1,0-.12,2,2,0,0,1,.21-.57.12.12,0,0,1,.1-.06.12.12,0,0,1,.11,0l.13.17a.14.14,0,0,1,0,.17Z" fill="#454856"/><path id="Path_11045" data-name="Path 11045" d="M170.71,159.91a1.88,1.88,0,0,0,.3-.12.11.11,0,0,1,.15,0h0l.16.17a.17.17,0,0,1,0,.23,1.83,1.83,0,0,1-.49.23.11.11,0,0,1-.11,0,.16.16,0,0,1-.05-.11v-.23a.15.15,0,0,1,.07-.17Z" fill="#454856"/><path id="Path_11046" data-name="Path 11046" d="M169.23,159a1.79,1.79,0,0,0,.13.32.12.12,0,0,1,0,.16l-.15.18a.15.15,0,0,1-.11,0,.13.13,0,0,1-.1-.07,1.33,1.33,0,0,1-.21-.54.13.13,0,0,1,0-.12.12.12,0,0,1,.1-.05h.21a.06.06,0,0,1,.08,0A.09.09,0,0,1,169.23,159Z" fill="#454856"/><ellipse id="Ellipse_1578" data-name="Ellipse 1578" cx="170.91" cy="158.51" rx="0.23" ry="0.26" fill="#454856"/><ellipse id="Ellipse_1579" data-name="Ellipse 1579" cx="170.73" cy="159.14" rx="0.23" ry="0.26" fill="#454856"/><ellipse id="Ellipse_1580" data-name="Ellipse 1580" cx="170.08" cy="159.14" rx="0.23" ry="0.26" fill="#454856"/><ellipse id="Ellipse_1581" data-name="Ellipse 1581" cx="169.88" cy="158.53" rx="0.23" ry="0.26" fill="#454856"/><ellipse id="Ellipse_1582" data-name="Ellipse 1582" cx="170.4" cy="158.11" rx="0.23" ry="0.26" fill="#454856"/></g></g></g><g id="Group_5637" data-name="Group 5637"><path id="Path_10924-2" data-name="Path 10924-2" d="M58.32,20.65l3.3-1.91,3.29,1.91v3.94l-3.29,1.89-3.44-2.05Z" fill="#fff"/><g id="Layer_2-4" data-name="Layer 2-4"><path id="Path_3485-4" data-name="Path 3485-4" d="M62.08,27.87l2.47-1.42,1.32.79a.32.32,0,0,0,.44-.11.34.34,0,0,0,0-.17v-6.5a1,1,0,0,0-.5-.86l-3.78-2.19a1,1,0,0,0-1,0L57.3,19.6a1,1,0,0,0-.5.86v4.37a1,1,0,0,0,.5.86l3.79,2.18A1,1,0,0,0,62.08,27.87Zm2.45-3.53L61.7,26V22.71l2.83-1.63Zm-3-5.1,2.83,1.63L61.58,22.5l-2.82-1.63Zm-2.94,1.84,2.82,1.63V26l-2.82-1.64Z" fill="#4281c3"/><path id="Path_3486-4" data-name="Path 3486-4" d="M74.42,21.2a1.86,1.86,0,0,0-.87.18,1.32,1.32,0,0,0-.6.52h0l-.28-.5a.26.26,0,0,0-.21-.12H72.2a.24.24,0,0,0-.24.24v4.32a.18.18,0,0,0,.18.18h0l.09,0,.5-.3a.51.51,0,0,0,.24-.42V23.66a2,2,0,0,1,.3-1.27A1.12,1.12,0,0,1,74.2,22a.82.82,0,0,1,.7.27,1.1,1.1,0,0,1,.21.66v2.32a.48.48,0,0,0,.24.42l.5.3a.19.19,0,0,0,.25-.06.29.29,0,0,0,0-.09V22.93a2.3,2.3,0,0,0-.09-.69A1.45,1.45,0,0,0,74.42,21.2Z" fill="#4281c3"/><path id="Path_3487-4" data-name="Path 3487-4" d="M90.17,21.52l-.5-.3-.09,0a.17.17,0,0,0-.18.17h0v1.54a5.08,5.08,0,0,1-.3,1.9,1.1,1.1,0,0,1-.93.38.86.86,0,0,1-.7-.27,1.19,1.19,0,0,1-.22-.66V21.37a.17.17,0,0,0-.17-.18.16.16,0,0,0-.09,0l-.51.3a.46.46,0,0,0-.24.41v2.35a2.72,2.72,0,0,0,.09.69,1.37,1.37,0,0,0,.36.64,1.73,1.73,0,0,0,1.25.4,1.93,1.93,0,0,0,.88-.18,1.42,1.42,0,0,0,.58-.48l0,0,.43.53a.22.22,0,0,0,.19.09h.12a.24.24,0,0,0,.24-.24V21.93A.49.49,0,0,0,90.17,21.52Z" fill="#4281c3"/><path id="Path_3488-4" data-name="Path 3488-4" d="M93.66,25.25a2.28,2.28,0,0,1-.45,0,.65.65,0,0,1-.48-.17.71.71,0,0,1-.18-.54V22.05h.65a.48.48,0,0,0,.43-.26l.14-.27a.15.15,0,0,0-.06-.22l-.08,0H92.55v-.81a.24.24,0,0,0-.24-.24h-.2a.23.23,0,0,0-.23.16l-.29.85-.57.3a.23.23,0,0,0-.13.21v.06a.24.24,0,0,0,.24.24h.4V24.6c0,1,.48,1.5,1.43,1.51a2.51,2.51,0,0,0,.55-.06,1.22,1.22,0,0,0,.26-.06.24.24,0,0,0,.17-.23v-.27a.24.24,0,0,0-.24-.24Z" fill="#4281c3"/><path id="Path_3489-4" data-name="Path 3489-4" d="M81,21.41a.23.23,0,0,0-.24-.24h-.19a.15.15,0,0,0-.12,0l-.42.46h0a1.77,1.77,0,0,0-2.28-.3,2.25,2.25,0,0,0-1,1.92h0v.51h0a2.24,2.24,0,0,0,1,1.91,1.76,1.76,0,0,0,2.28-.3v.48h0a1,1,0,0,1-.26.69,1.49,1.49,0,0,1-1,.34h-.22a.16.16,0,0,0-.16.16.17.17,0,0,0,0,.1l.35.46a.57.57,0,0,0,.54.21,2.22,2.22,0,0,0,1.2-.6,1.87,1.87,0,0,0,.52-1.4Zm-1,3.18v0l0,0a1.27,1.27,0,0,1-1.8.11,1.21,1.21,0,0,1-.43-.85v-.7A1.28,1.28,0,0,1,80,22.46l0,0Z" fill="#4281c3"/><path id="Path_3490-4" data-name="Path 3490-4" d="M84,23.31l1.17-1.25a.16.16,0,0,0,0-.23.21.21,0,0,0-.11,0h-.58a.51.51,0,0,0-.35.15l-.81.86-.54.54V21.15a.39.39,0,0,0-.17-.33l-.45-.32a.23.23,0,0,0-.38.2v5.14a.18.18,0,0,0,.17.18h0A.14.14,0,0,0,82,26l.5-.3a.47.47,0,0,0,.24-.42v-.78l.55-.55,1.37,1.88a.5.5,0,0,0,.39.2h.62a.17.17,0,0,0,.17-.16.18.18,0,0,0,0-.1Z" fill="#4281c3"/><path id="Path_3491-4" data-name="Path 3491-4" d="M71,21.22h-.11a.16.16,0,0,0-.11.05l-.52.47h0a1.75,1.75,0,0,0-2.27-.3,2.24,2.24,0,0,0-1,1.91h0v.51h0a2.24,2.24,0,0,0,1,1.91,1.75,1.75,0,0,0,2.27-.3h0l.43.47a.17.17,0,0,0,.12,0H71a.24.24,0,0,0,.24-.24V21.46a.24.24,0,0,0-.24-.24ZM70.3,23v1.69l0,0a1.27,1.27,0,0,1-1.81.12A1.34,1.34,0,0,1,68,24v-.69a1.28,1.28,0,0,1,1.38-1.17,1.24,1.24,0,0,1,.86.43l0,0Z" fill="#4281c3"/></g></g></g></g></g></svg>