<svg xmlns="http://www.w3.org/2000/svg" viewBox="0 0 31.21 31.21"><title>date</title><g id="Layer_2" data-name="Layer 2"><g id="Layer_1-2" data-name="Layer 1"><g id="calendar-with-a-clock-time-tools"><path id="Path_190" data-name="Path 190" d="M3.9,4.88V1A1,1,0,1,1,5.85,1v3.9a1,1,0,0,1-1.95,0Zm16.58,1a1,1,0,0,0,1-1h0V1a1,1,0,0,0-1.95,0v3.9a1,1,0,0,0,1,1h0ZM31.21,23.41a7.8,7.8,0,1,1-7.8-7.8h0A7.8,7.8,0,0,1,31.21,23.41Zm-1.95,0a5.85,5.85,0,1,0-5.85,5.85,5.85,5.85,0,0,0,5.85-5.85ZM7.8,11.7H3.9v3.9H7.8ZM3.9,21.46H7.8v-3.9H3.9Zm5.85-5.85h3.9V11.7H9.75Zm0,5.85h3.9v-3.9H9.75ZM2,23.22V9.75H23.41v3.9h1.95V6.05A2.13,2.13,0,0,0,23.25,3.9h-.81v1a2,2,0,1,1-3.9.12.24.24,0,0,1,0-.12v-1H6.83v1A2,2,0,1,1,2.93,5V3.9H2.12A2.13,2.13,0,0,0,0,6H0V23.22a2.13,2.13,0,0,0,2.11,2.14H13.66V23.41H2.12A.19.19,0,0,1,2,23.22Zm17.56-7.61V11.7h-3.9v3.9Zm6.83,7.8H23.41V20.48a1,1,0,0,0-1.95,0h0v3.9a1,1,0,0,0,1,1h3.9a1,1,0,0,0,0-1.95Z" style="fill:#a2a1a1;opacity:0.5;isolation:isolate"/></g></g></g></svg>