<svg xmlns="http://www.w3.org/2000/svg" viewBox="0 0 15.75 18"><title>date_blue</title><g id="Layer_2" data-name="Layer 2"><g id="Layer_1-2" data-name="Layer 1"><g id="Group_680" data-name="Group 680"><path id="calendar-alt-regular" d="M5.2,10.13H3.8a.42.42,0,0,1-.42-.43h0V8.3a.41.41,0,0,1,.42-.42H5.2a.42.42,0,0,1,.42.42V9.7a.44.44,0,0,1-.42.43ZM9,9.7V8.3a.42.42,0,0,0-.42-.42H7.17a.42.42,0,0,0-.42.42V9.7a.42.42,0,0,0,.42.42H8.58A.42.42,0,0,0,9,9.7Zm3.38,0V8.3A.43.43,0,0,0,12,7.88h-1.4a.43.43,0,0,0-.43.42V9.7a.43.43,0,0,0,.43.42H12A.43.43,0,0,0,12.38,9.7ZM9,13.08V11.67a.42.42,0,0,0-.42-.42H7.17a.42.42,0,0,0-.42.42v1.41a.42.42,0,0,0,.42.42H8.58A.42.42,0,0,0,9,13.08Zm-3.38,0V11.67a.42.42,0,0,0-.42-.42H3.8a.42.42,0,0,0-.42.42v1.41a.42.42,0,0,0,.42.42H5.2a.42.42,0,0,0,.42-.42Zm6.76,0V11.67a.43.43,0,0,0-.43-.42h-1.4a.43.43,0,0,0-.43.42v1.41a.43.43,0,0,0,.43.42H12A.43.43,0,0,0,12.38,13.08Zm3.37-9.14V16.31A1.69,1.69,0,0,1,14.06,18H1.69A1.69,1.69,0,0,1,0,16.31V3.94A1.69,1.69,0,0,1,1.69,2.25H3.38V.42A.42.42,0,0,1,3.8,0H5.2a.42.42,0,0,1,.42.42V2.25h4.5V.42A.42.42,0,0,1,10.55,0H12a.43.43,0,0,1,.43.42V2.25h1.68A1.69,1.69,0,0,1,15.75,3.94ZM14.06,16.1V5.63H1.69V16.1a.21.21,0,0,0,.21.21h12A.21.21,0,0,0,14.06,16.1Z" style="fill:#4281c3"/></g></g></g></svg>