<svg xmlns="http://www.w3.org/2000/svg" width="163" height="105.856" viewBox="0 0 163 105.856">
  <g id="Group_1954" data-name="Group 1954" transform="translate(-4434 -949.144)">
    <path id="Path_1298" data-name="Path 1298" d="M69.636,2.144C114.647,2.144,163,24.177,163,54c0,17.3-21.911,13.063-41.258,23.077C108.17,84.1,100.4,108,81.5,108,36.489,108,0,83.823,0,54S24.625,2.144,69.636,2.144Z" transform="translate(4434 947)" fill="#e8f5ff"/>
    <g id="Group_1952" data-name="Group 1952" transform="translate(4308 463)">
      <g id="Group_1898" data-name="Group 1898" transform="translate(-253.007 424.339)">
        <g id="Group_1863" data-name="Group 1863" transform="translate(445.879 102.174)">
          <path id="Path_1235" data-name="Path 1235" d="M484.809,149.814a9.52,9.52,0,0,1,3.458-7.336l.489-6.078H461.3l2.131,27.317h23.23l.594-7.615A9.185,9.185,0,0,1,484.809,149.814Z" transform="translate(-461.3 -136.4)" fill="#bce6fb"/>
        </g>
        <g id="Group_1864" data-name="Group 1864" transform="translate(467.222 102.174)">
          <path id="Path_1236" data-name="Path 1236" d="M528.513,136.4H524.5l-2.1,27.317h3.982l.594-7.615Z" transform="translate(-522.4 -136.4)" fill="#97d5f0"/>
        </g>
        <g id="Group_1865" data-name="Group 1865" transform="translate(437.6 83.8)">
          <rect id="Rectangle_463" data-name="Rectangle 463" width="30.216" height="1.851" transform="translate(40.48 14.256) rotate(93.712)" fill="#282f39"/>
          <path id="Path_1237" data-name="Path 1237" d="M479.88,159.092H451.306l-2.69-34.792-1.816.14,2.76,35.63a.888.888,0,0,0,.908.838h30.286a.914.914,0,0,0,.908-.838l.489-6.113-1.816-.14Z" transform="translate(-443.586 -110.153)" fill="#282f39"/>
          <path id="Path_1238" data-name="Path 1238" d="M481.614,95.5V90.786a.9.9,0,0,0-.908-.908H469.528v-3.6a2.49,2.49,0,0,0-2.48-2.48H452.167a2.49,2.49,0,0,0-2.48,2.48v3.563H438.508a.9.9,0,0,0-.908.908v4.716a.9.9,0,0,0,.908.908h42.128A.893.893,0,0,0,481.614,95.5Zm-14.6-9.886a.626.626,0,0,1,.629.629v3.563h-2.62V86.28a3.457,3.457,0,0,0-.07-.629h2.061Zm-15.44.664a.626.626,0,0,1,.629-.629h2.061a1.935,1.935,0,0,0-.07.629v3.563h-2.62V86.28Zm4.436,0a.626.626,0,0,1,.629-.629h5.9a.626.626,0,0,1,.629.629v3.563h-7.2V86.28Zm23.754,8.279H439.451v-2.9h40.311Z" transform="translate(-437.6 -83.8)" fill="#282f39"/>
          <path id="Path_1239" data-name="Path 1239" d="M486.247,233.472h-25.4V231.9H459v2.48a.9.9,0,0,0,.908.908h27.247a.9.9,0,0,0,.908-.908V231.9h-1.816Z" transform="translate(-451.525 -180.166)" fill="#282f39"/>
          <rect id="Rectangle_464" data-name="Rectangle 464" width="1.851" height="29.343" transform="matrix(-0.999, 0.03, -0.03, -0.999, 16.83, 46.425)" fill="#282f39"/>
          <rect id="Rectangle_465" data-name="Rectangle 465" width="29.343" height="1.851" transform="translate(29.909 17.13) rotate(91.742)" fill="#282f39"/>
          <rect id="Rectangle_466" data-name="Rectangle 466" width="7.44" height="1.851" transform="translate(7.975 25.848) rotate(-94.426)" fill="#282f39"/>
          <rect id="Rectangle_467" data-name="Rectangle 467" width="2.41" height="1.851" transform="matrix(0.077, 0.997, -0.997, 0.077, 9.912, 27.267)" fill="#282f39"/>
        </g>
      </g>
      <g id="Ellipse_132" data-name="Ellipse 132" transform="translate(246 554)" fill="none" stroke="#008af6" stroke-width="2">
        <circle cx="6.5" cy="6.5" r="6.5" stroke="none"/>
        <circle cx="6.5" cy="6.5" r="5.5" fill="none"/>
      </g>
      <g id="Polygon_13" data-name="Polygon 13" transform="translate(267 502)" fill="none">
        <path d="M7.5,0,15,13H0Z" stroke="none"/>
        <path d="M 7.500000476837158 4.002214431762695 L 3.46281623840332 11 L 11.53718376159668 11 L 7.500000476837158 4.002214431762695 M 7.500000476837158 0 L 15 13 L 9.5367431640625e-07 13 L 7.500000476837158 0 Z" stroke="none" fill="#ff8710"/>
      </g>
      <g id="Rectangle_487" data-name="Rectangle 487" transform="translate(139 496)" fill="none" stroke="#00bf5d" stroke-width="2">
        <rect width="13" height="13" stroke="none"/>
        <rect x="1" y="1" width="11" height="11" fill="none"/>
      </g>
      <g id="Group_1899" data-name="Group 1899" transform="matrix(0.839, 0.545, -0.545, 0.839, 346.056, 46.137)">
        <path id="Path_1288" data-name="Path 1288" d="M0,0V9.965" transform="translate(138.282 543.238) rotate(90)" fill="none" stroke="#f71111" stroke-linecap="round" stroke-width="2"/>
        <path id="Path_1289" data-name="Path 1289" d="M3441.189,2265.256v9.965" transform="translate(-3307.89 -1727)" fill="none" stroke="#f71111" stroke-linecap="round" stroke-width="2"/>
      </g>
    </g>
  </g>
</svg>
