<svg xmlns="http://www.w3.org/2000/svg" viewBox="0 0 20.02 19.43"><title>dislike</title><g id="Layer_2" data-name="Layer 2"><g id="Layer_1-2" data-name="Layer 1"><g id="thumb-down"><g id="Group_945" data-name="Group 945"><g id="Group_943" data-name="Group 943"><path id="Path_489" data-name="Path 489" d="M4.6,12.05H1.25A1.37,1.37,0,0,1,0,10.61V1.44A1.36,1.36,0,0,1,1.25,0H4.6A1.35,1.35,0,0,1,5.84,1.44v9.17A1.36,1.36,0,0,1,4.6,12.05Zm-3.35-11c-.07,0-.2.16-.2.4v9.17c0,.24.13.39.2.39H4.6c.06,0,.2-.15.2-.39V1.44c0-.24-.13-.39-.2-.39Z" style="fill:#4281c3"/></g><g id="Group_944" data-name="Group 944"><path id="Path_490" data-name="Path 490" d="M11.12,19.43a1.91,1.91,0,0,1-1.91-1.91,1.62,1.62,0,0,1,0-.22.61.61,0,0,1,0-.19,7.62,7.62,0,0,0-.88-4.56l-.12-.24a.56.56,0,0,0-.29-.16H7.71a1.49,1.49,0,0,1-1.42-1.49V1.49A1.5,1.5,0,0,1,7.79,0H18.11l.13,0a1.89,1.89,0,0,1,1.7,2.09,2,2,0,0,1-.55,1.15A1.91,1.91,0,0,1,19.53,6l-.1.11a1.92,1.92,0,0,1,.07,2.7l-.07.08a1.91,1.91,0,0,1-1.32,3.3H13.7a6.92,6.92,0,0,1-1.06,6.52h0A1.91,1.91,0,0,1,11.12,19.43Zm-.84-2.26a.48.48,0,0,1,0,.17,1.1,1.1,0,0,0,0,.18.86.86,0,0,0,1.56.5l.06-.07a6,6,0,0,0,.58-6.13.54.54,0,0,1,.28-.69.78.78,0,0,1,.21,0h5.17a.86.86,0,1,0,0-1.72.52.52,0,0,1-.53-.52.53.53,0,0,1,.53-.53.86.86,0,0,0,0-1.72.53.53,0,0,1-.53-.53.52.52,0,0,1,.53-.52.86.86,0,0,0,0-1.72.53.53,0,0,1,0-1.06.85.85,0,0,0,.83-.88.87.87,0,0,0-.83-.83H7.79a.45.45,0,0,0-.45.44v9.16a.44.44,0,0,0,.43.44H8a1.53,1.53,0,0,1,1.05.61l0,.07.16.31a8.58,8.58,0,0,1,1,5.09Z" style="fill:#4281c3"/></g></g></g></g></g></svg>