<svg xmlns="http://www.w3.org/2000/svg" viewBox="0 0 163 125.49"><title>driver_favorite</title><g id="Layer_2" data-name="Layer 2"><g id="Layer_1-2" data-name="Layer 1"><g id="Group_3036" data-name="Group 3036"><g id="Group_3030" data-name="Group 3030"><g id="Group_2374" data-name="Group 2374"><g id="Group_2228" data-name="Group 2228"><g id="Group_1954" data-name="Group 1954"><path id="Path_1298" data-name="Path 1298" d="M69.64,19.64c45,0,93.36,22,93.36,51.85,0,17.3-21.91,13.06-41.26,23.08-13.57,7-21.34,30.92-40.24,30.92-45,0-81.5-24.18-81.5-54S24.62,19.64,69.64,19.64Z" style="fill:#e9f5fc"/><g id="Group_1952" data-name="Group 1952"><g id="Ellipse_132" data-name="Ellipse 132"><circle cx="126.5" cy="93.99" r="6.5" style="fill:none"/><circle cx="126.5" cy="93.99" r="5.5" style="fill:none;stroke:#4281c3;stroke-width:2px"/></g><g id="Polygon_13" data-name="Polygon 13"><path d="M148.5,35.49l7.5,13H141Z" style="fill:none"/><path d="M148.5,39.49l-4,7h8.08l-4-7m0-4,7.5,13H141Z" style="fill:#f68720"/></g><g id="Rectangle_487" data-name="Rectangle 487"><rect x="13" y="29.49" width="13" height="13" style="fill:none"/><rect x="14" y="30.49" width="11" height="11" style="fill:none;stroke:#2fb55d;stroke-width:2px"/></g><g id="Group_1899" data-name="Group 1899"><path id="Path_1288" data-name="Path 1288" d="M40,110.77l-8.36-5.43" style="fill:none;stroke:#ed1e24;stroke-linecap:round;stroke-miterlimit:4.0018915443327465;stroke-width:2.0009457721663733px"/><path id="Path_1289" data-name="Path 1289" d="M38.54,103.87l-5.43,8.36" style="fill:none;stroke:#ed1e24;stroke-linecap:round;stroke-miterlimit:4.0018915443327465;stroke-width:2.0009457721663733px"/></g></g></g></g></g></g></g><g id="Group_3037" data-name="Group 3037"><g id="Group_3035" data-name="Group 3035"><path d="M101.22,77.4c-.34.17.24.54.61.44a46.34,46.34,0,0,0,11-4.27,7.76,7.76,0,0,0,2.92-2.35,8.24,8.24,0,0,0,1-3c1.9-10.32.48-21.07-.88-31.5a7.35,7.35,0,0,0-4-1.49,76.78,76.78,0,0,1-4.27,25.22,54.85,54.85,0,0,1-5.54,4C100.75,69.12,101.09,72.61,101.22,77.4Z" style="fill:#fdcd9b"/><path d="M118.36,28.46a6.62,6.62,0,0,0-.91-1.26c-.41-.44-.82-.91-1.19-1.36a1.72,1.72,0,0,0-.71-.57c-.31-.1-.68-.07-1-.27a1.57,1.57,0,0,1-.34-.51,1.53,1.53,0,0,0-1.67-.51c-3.66,1.05-3.08,6.41-1.7,8.79.65,1.08,1.29,2.14,2,3.22a.8.8,0,0,0,0,.27,16.9,16.9,0,0,0,.71,3.67c.1.31.31.68.61.58.14,0,.2-.17.27-.27a21.33,21.33,0,0,0,2.51-5.8c.14-.24.24-.48.38-.72C118.3,32.09,119.18,30.12,118.36,28.46Z" style="fill:#fdcd9b"/><path d="M113,25.81l.07-.13a.32.32,0,0,0-.14,0,.94.94,0,0,0-.31.17,1.52,1.52,0,0,0-.37.3,1.5,1.5,0,0,0-.3.48,2.12,2.12,0,0,0-.17.54,2.59,2.59,0,0,0,0,.48.83.83,0,0,0,.07.34.31.31,0,0,1,0,.13.36.36,0,0,0,.07-.1,1.17,1.17,0,0,0,.14-.3c.13-.24.27-.55.41-.82s.3-.57.4-.81S112.93,25.91,113,25.81Z" style="fill:#bd5227"/><path d="M117.79,30.09c-.07.1-.2.24-.34.4a1.79,1.79,0,0,0-.2.28A1.75,1.75,0,0,1,117,31a1.83,1.83,0,0,1-.31.24.87.87,0,0,1-.33.17c-.1,0-.24.07-.34.1h-.34a1,1,0,0,1-.55-.27A1.12,1.12,0,0,1,115,31c.07-.07.14-.1.2-.17a2.84,2.84,0,0,0,.45-.64c.1-.2.2-.41.27-.58.3-.71.47-1.22.47-1.22s-.34.4-.78,1.05c-.1.17-.24.34-.34.51a6,6,0,0,1-.41.47,1,1,0,0,1-.5.24.46.46,0,0,1-.41-.17,1,1,0,0,1-.17-.54,3.19,3.19,0,0,1,.2-1.33,2.61,2.61,0,0,1,.24-.54c.17-.34.3-.64.4-.85s.11-.2.17-.3a3,3,0,0,1-.27.23,8.29,8.29,0,0,0-.61.72,3.93,3.93,0,0,0-.61,1.25,3.23,3.23,0,0,0-.1.82,1.46,1.46,0,0,0,.3.88,1.14,1.14,0,0,0,.44.31,1.49,1.49,0,0,0,.51.06,1.51,1.51,0,0,0,.41-.13.54.54,0,0,0,.1.3,1.18,1.18,0,0,0,.68.58l.07,0h.07a.14.14,0,0,1,.1,0h.27a1.54,1.54,0,0,0,.51-.1,2.11,2.11,0,0,0,.44-.24,3.64,3.64,0,0,0,.34-.34,2.37,2.37,0,0,0,.4-.71c.07-.2.1-.41.14-.55a.64.64,0,0,0,0-.2A.61.61,0,0,0,117.79,30.09Z" style="fill:#bd5227"/><path d="M120.2,32.33c-.85-.61-1.8-1.09-2.62-1.7a1.58,1.58,0,0,1-1.35,1.12,1.78,1.78,0,0,1-1.6-.95,2.17,2.17,0,0,1-2-1.19,4.43,4.43,0,0,0-1.74.51c2.38,1.7,4.69,3.53,6.89,5.46A23.23,23.23,0,0,1,120.2,32.33Z" style="fill:#ba5b27"/><path d="M109.44,33a7.21,7.21,0,0,1-1-4.51c.07-.72.37-1.56,1.09-1.73a2.24,2.24,0,0,1,1.32.27l2.85,1.32a.74.74,0,0,1,.41.31.72.72,0,0,1,0,.64,1.92,1.92,0,0,1-2.49,1.14l0,0c.4,1.16,1.93,1.77,2,3a9.66,9.66,0,0,1-.17,1.42,3.52,3.52,0,0,0,.24,1.29c.2.75.44,1.46.65,2.21a4.08,4.08,0,0,1,.23,1.43A1.18,1.18,0,0,1,113.43,41a1.17,1.17,0,0,1-.8-.3,2.2,2.2,0,0,1-.68-2.14C112,36.13,110.56,34.94,109.44,33Z" style="fill:#fdcd9b"/><rect x="112.96" y="29.6" width="16.53" height="10.15" transform="translate(18.1 107.22) rotate(-51.09)" style="fill:#b34a27"/><path d="M130.38,31.41,120,44.27l.85,2.86,12.32-15.28Z" style="fill:#82341b"/><rect x="115.51" y="34.86" width="2.99" height="10.15" transform="translate(12.44 105.9) rotate(-51.09)" style="fill:#82341b"/><path d="M102.62,30.16l-.2.17c-5.33,3-13.07,2.1-17.28-1.9a4.6,4.6,0,0,1-1.56-3.94,5.06,5.06,0,0,1,2.75-3.7l1.19-.68a.9.9,0,1,1,1,1.48l-.14.08-1.19.68a3.28,3.28,0,0,0-1.83,2.38,2.86,2.86,0,0,0,1,2.44c3.66,3.5,10.48,4.21,15.17,1.63a.86.86,0,0,1,1.05,1.36Z" style="fill:#f79520"/><path d="M101.53,28.76c-4.69,2.62-11.47,1.87-15.17-1.62a2.94,2.94,0,0,1-1-2.45,3.33,3.33,0,0,1,1.83-2.37l1.19-.68a.9.9,0,0,0-.88-1.56l-1.19.67a5.59,5.59,0,0,0-1.49,1.16.63.63,0,0,1,.47.2.9.9,0,0,1,.14.88,8.25,8.25,0,0,1-.41.85,3.25,3.25,0,0,0,.34,3.09A6.68,6.68,0,0,0,87.78,29a14,14,0,0,0,9.81,1.4,5.18,5.18,0,0,1,2.14-.24,1.7,1.7,0,0,1,1.12.85,11.82,11.82,0,0,0,1.53-.71.55.55,0,0,0,.2-.17.88.88,0,0,0,.13-1.06.83.83,0,0,0-1.13-.36Z" style="fill:#ba5b27"/><path d="M84.46,23.44A8,8,0,0,0,84.32,26a3.46,3.46,0,0,0,1.16,2.21A3.39,3.39,0,0,1,84.05,26a3.26,3.26,0,0,1,0-1.32C84.08,24.22,84.39,23.84,84.46,23.44Z" style="fill:#fbb042"/><path d="M113.44,18.79a1.77,1.77,0,0,0,.17-.24c2.68-5.47,1.46-13.14-2.75-17.14a4.7,4.7,0,0,0-4-1.36A5.08,5.08,0,0,0,103.26,3l-.61,1.22a.89.89,0,0,0,1.6.78l.61-1.22a3.29,3.29,0,0,1,2.27-1.93,2.91,2.91,0,0,1,2.48.88C113.28,6.2,114.36,13,112,17.77a.88.88,0,0,0,.4,1.18A.91.91,0,0,0,113.44,18.79Z" style="fill:#f79520"/><path d="M112,17.77c2.38-4.82,1.29-11.58-2.37-15.07a2.91,2.91,0,0,0-2.48-.88,3.33,3.33,0,0,0-2.28,1.93L104.24,5a.88.88,0,0,1-1.19.41.89.89,0,0,1-.41-1.19L103.25,3a6.1,6.1,0,0,1,1.09-1.53.88.88,0,0,0,.24.48.83.83,0,0,0,.88.07,9.27,9.27,0,0,0,.82-.44,3.38,3.38,0,0,1,3.12.17,6,6,0,0,1,2.2,2.34,13.76,13.76,0,0,1,1.87,9.74,5.14,5.14,0,0,0-.14,2.14,1.66,1.66,0,0,0,.92,1.08,13.42,13.42,0,0,1-.64,1.56,1.46,1.46,0,0,1-.17.24.88.88,0,0,1-1.06.17A.94.94,0,0,1,112,17.77Z" style="fill:#ba5b27"/><path d="M105.81.93a8.13,8.13,0,0,1,2.51-.27,3.27,3.27,0,0,1,2.24,1A3.23,3.23,0,0,0,108.28.42a3.45,3.45,0,0,0-1.32,0A10.28,10.28,0,0,1,105.81.93Z" style="fill:#fbb042"/><path d="M84.05,19.33,101.7.76l10.22,14.12a9.77,9.77,0,0,1-.85,12.46h0A9.76,9.76,0,0,1,98.64,28.8Z" style="fill:#f79520"/><path d="M101.26,2.8A78.34,78.34,0,0,1,107.33,11c2,3.09,3.77,6.49,3.8,10.15A84.77,84.77,0,0,0,98.17,6L96.61,7.65A56.75,56.75,0,0,1,106.89,20c1,1.6,1.66,3.5.68,5.26a4.74,4.74,0,0,1-4.82,1.94,14,14,0,0,1-5-2.31L86.87,17.94l-1.87,2L98.68,28.8A9.78,9.78,0,0,0,112,14.88l-9.6-13.2Z" style="fill:#ba5b27"/><path d="M101.7.76,84.05,19.33l1,.61L102.34,1.68Z" style="fill:#fbb042"/><path d="M101.12,25.27A50.09,50.09,0,0,1,89.38,17.9C90.29,17,91,15.93,92,15,94.54,18.79,97.25,22.89,101.12,25.27Z" style="fill:#fbb042"/><path d="M103,17.63c-2.19-2.5-4.52-4.89-7-7.16.23-.2.61-.37.81-.58A69.3,69.3,0,0,1,103,17.63Z" style="fill:#fbb042"/><path d="M103.17,116.28H43.67l-.93-4S47.33,88,56.41,78.15c.92-2.42,9.52-8.47,10.77-8.39,1.9.1,3.8.24,5.67.2a69.22,69.22,0,0,0,11.54-1.6,89.53,89.53,0,0,0,20.34-7.26c1-.49,6.52-23.68,7.36-24.21,1.63,7.23,6.71.63,6.74,8-.52.21-.91,25.36-1.89,26.07a141.91,141.91,0,0,1-21.1,11.87C98.6,96,103.17,116.28,103.17,116.28Z" style="fill:#35c3df"/><path id="Path_3669" data-name="Path 3669" d="M65.78,84.68a76.86,76.86,0,0,0-5.25,12.24c-1.68,5.08-3.05,11.45-2.28,17.15" style="fill:none;stroke:#00b4cb;stroke-linecap:round;stroke-width:3px"/><g id="Group_3033" data-name="Group 3033"><path id="Path_815" data-name="Path 815" d="M79.62,68.57s3.88,1.3-4.87,6.45c0,0,7.38-.85,10.39,3.77C85.28,78.89,84.9,70.41,79.62,68.57Z" style="fill:#f5fbfe"/><path id="Path_816" data-name="Path 816" d="M68.09,67.87c-4.33,3.54-1.92,14.4-1.83,14.19,1.31-5.39,8.48-7.1,8.48-7.1C64.76,73.18,68.09,67.87,68.09,67.87Z" style="fill:#f5fbfe"/></g><g id="Group_3034" data-name="Group 3034"><g id="Group_2116" data-name="Group 2116"><g id="Group_2104" data-name="Group 2104"><path id="Path_1476" data-name="Path 1476" d="M73.13,47c7.21,0,13.05,6.31,13.05,14.1s-5.84,14.1-13.05,14.1-13-6.32-13-14.1c0-3.35.56-7,2.57-9.7C64.84,48.41,69,47,73.13,47Z" style="fill:#fdcd9b"/></g></g><g id="Group_2117" data-name="Group 2117"><path id="Path_1318" data-name="Path 1318" d="M60.52,57.92s-2.15-9.49,2.75-13.38,13.3-.43,13.3-.43,6.32-4.52,9.64-1.21,0,12.38,0,12.38-5,2.47-9.64-4.07-13.89.54-13.89.54Z" style="fill:#898989"/><ellipse id="Ellipse_158" data-name="Ellipse 158" cx="76.5" cy="44.49" rx="3.5" ry="4" style="fill:#898989"/><ellipse id="Ellipse_159" data-name="Ellipse 159" cx="86" cy="52.99" rx="6" ry="4.5" style="fill:#898989"/></g></g></g><path id="like" d="M85.72,82.91a2,2,0,0,1,1.36-1.81,2.17,2.17,0,0,1,2.63,1.34,2.3,2.3,0,0,1,.2.78,3.57,3.57,0,0,1-.44,2l-1.82,3.26-3.39-1.46a3.59,3.59,0,0,1-1.61-1.35,2.36,2.36,0,0,1,.92-3.41A2,2,0,0,1,85.72,82.91Z" style="fill:#fff"/></g></g></g></svg>