<svg xmlns="http://www.w3.org/2000/svg" viewBox="0 0 163 105.86"><title>edit_order</title><g id="Layer_2" data-name="Layer 2"><g id="Layer_1-2" data-name="Layer 1"><g id="Group_2956" data-name="Group 2956"><g id="Group_2374" data-name="Group 2374"><g id="Group_2228" data-name="Group 2228"><g id="Group_1954" data-name="Group 1954"><path id="Path_1298" data-name="Path 1298" d="M69.64,0C114.65,0,163,22,163,51.86c0,17.3-21.91,13.06-41.26,23.07-13.57,7-21.34,30.93-40.24,30.93-45,0-81.5-24.18-81.5-54S24.62,0,69.64,0Z" style="fill:#e9f5fc"/></g></g></g><g id="edit"><path id="Path_3499" data-name="Path 3499" d="M73.34,78.78,59.73,80.72l2-13.61L90.85,37.94l3.89-3.88,1.94-2a8.21,8.21,0,0,1,3.57-2.1,7.15,7.15,0,0,1,1.38-.26v-18A2.77,2.77,0,0,0,98.88,9H56.26V22.73a2.75,2.75,0,0,1-2.75,2.75H38.38V86a2.75,2.75,0,0,0,2.75,2.75H98.88A2.76,2.76,0,0,0,101.63,86V50.49L73.34,78.77" style="fill:#fcf8c5;stroke:#000"/><g id="Group_2954" data-name="Group 2954"><path id="Path_3500" data-name="Path 3500" d="M109.31,31.14a9.52,9.52,0,0,0-6.31-2.8V11.73a4.12,4.12,0,0,0-4.12-4.12H56.17a1.65,1.65,0,0,0-.32.06l-.14.05a1.11,1.11,0,0,0-.39.24L37.44,24.47a1.46,1.46,0,0,0-.29.41,1.21,1.21,0,0,0,0,.14,1.23,1.23,0,0,0-.08.38s0,.06,0,.09V86a4.12,4.12,0,0,0,4.12,4.13H98.88A4.12,4.12,0,0,0,103,86h0V51.06l6.3-6.3a9.62,9.62,0,0,0,0-13.61v0Zm-54.43-19V22.73a1.38,1.38,0,0,1-1.38,1.38H41.9Zm45.37,41.69V86a1.37,1.37,0,0,1-1.37,1.37H41.13A1.37,1.37,0,0,1,39.75,86h0V26.86H53.5a4.12,4.12,0,0,0,4.12-4.13V10.36H98.88a1.37,1.37,0,0,1,1.37,1.37V28.59a2.93,2.93,0,0,0-.37.1,9.64,9.64,0,0,0-4.18,2.45l-35,35-.12.15,0,0a1.48,1.48,0,0,0-.22.55v0l0,.09L58.38,80.52a1.38,1.38,0,0,0,1.17,1.56,2.41,2.41,0,0,0,.38,0l13.61-2a.15.15,0,0,0,.07,0,.86.86,0,0,0,.23-.06l.08,0a.69.69,0,0,0,.19-.1s0,0,.07-.06l.14-.11Zm-29,23.88-7.64,1.09,1-1a1.38,1.38,0,0,0,0-2,1.39,1.39,0,0,0-1.9,0l-1,1,1.09-7.63L68.43,72l2.15,4.29Zm1.15-3.85-1.28-2.57,16.8-16.8a1.38,1.38,0,0,0-1.9-2l0,.05-16.8,16.8L64,66.73,90.85,39.88l9.71,9.73L73.72,76.45Zm30.1-26.17L92.8,37.94,94.74,36l9.71,9.71Zm4.86-4.86-1,1-9.73-9.71,1-1a7,7,0,0,1,3-1.75,6.59,6.59,0,0,1,1.16-.22,6.87,6.87,0,0,1,5.6,11.7Z"/><path id="Path_3501" data-name="Path 3501" d="M93.76,46.7a1.36,1.36,0,0,0-1.94,0h0l-1.95,1.94a1.38,1.38,0,0,0,1.9,2l0-.05,1.94-1.94a1.36,1.36,0,0,0,0-1.94Z"/><path id="Path_3502" data-name="Path 3502" d="M48,46.11H76.88a1.38,1.38,0,0,0,0-2.75H48a1.38,1.38,0,1,0,0,2.75Z"/><path id="Path_3503" data-name="Path 3503" d="M48,54.35H68.63a1.38,1.38,0,0,0,0-2.75H48a1.38,1.38,0,1,0,0,2.75Z"/><path id="Path_3504" data-name="Path 3504" d="M61.75,61.23a1.37,1.37,0,0,0-1.37-1.38H48a1.38,1.38,0,1,0,0,2.75H60.38a1.37,1.37,0,0,0,1.37-1.37Z"/><path id="Path_3505" data-name="Path 3505" d="M59,37.86H85.13a1.38,1.38,0,0,0,0-2.75H59a1.38,1.38,0,1,0,0,2.75Z"/><path id="Path_3506" data-name="Path 3506" d="M48,37.86h5.5a1.38,1.38,0,0,0,0-2.75H48a1.38,1.38,0,1,0,0,2.75Z"/></g></g><g id="Group_2955" data-name="Group 2955"><g id="Ellipse_132" data-name="Ellipse 132"><circle cx="126.5" cy="74.36" r="6.5" style="fill:none"/><circle cx="126.5" cy="74.36" r="5.5" style="fill:none;stroke:#4281c3;stroke-width:2px"/></g><g id="Polygon_13" data-name="Polygon 13"><path d="M148.5,15.86l7.5,13H141Z" style="fill:none"/><path d="M148.5,19.86l-4,7h8.08l-4-7m0-4,7.5,13H141Z" style="fill:#f68720"/></g><g id="Rectangle_487" data-name="Rectangle 487"><rect x="13" y="9.86" width="13" height="13" style="fill:none"/><rect x="14" y="10.86" width="11" height="11" style="fill:none;stroke:#2fb55d;stroke-width:2px"/></g><g id="Group_1899" data-name="Group 1899"><path id="Path_1288" data-name="Path 1288" d="M40,91.13,31.65,85.7" style="fill:none;stroke:#ed1e24;stroke-linecap:round;stroke-miterlimit:4.0018915443327465;stroke-width:2.0009457721663733px"/><path id="Path_1289" data-name="Path 1289" d="M38.54,84.24,33.11,92.6" style="fill:none;stroke:#ed1e24;stroke-linecap:round;stroke-miterlimit:4.0018915443327465;stroke-width:2.0009457721663733px"/></g></g></g></g></g></svg>