<svg xmlns="http://www.w3.org/2000/svg" viewBox="0 0 163 105.86"><title>exit</title><g id="Layer_2" data-name="Layer 2"><g id="Layer_1-2" data-name="Layer 1"><g id="Group_1954" data-name="Group 1954"><path id="Path_1298" data-name="Path 1298" d="M69.64,0C114.65,0,163,22,163,51.86c0,17.3-21.91,13.06-41.26,23.07-13.57,7-21.34,30.93-40.24,30.93-45,0-81.5-24.18-81.5-54S24.62,0,69.64,0Z" style="fill:#e9f5fc"/><g id="Group_1952" data-name="Group 1952"><g id="Ellipse_132" data-name="Ellipse 132"><circle cx="126.08" cy="74.36" r="6.5" style="fill:none"/><circle cx="126.08" cy="74.36" r="5.5" style="fill:none;stroke:#4281c3;stroke-width:2px"/></g><g id="Polygon_13" data-name="Polygon 13"><path d="M148.08,15.86l7.5,13h-15Z" style="fill:none"/><path d="M148.08,19.86l-4,7h8.08l-4-7m0-4,7.5,13h-15Z" style="fill:#f68720"/></g><g id="Rectangle_487" data-name="Rectangle 487"><rect x="12.58" y="9.86" width="13" height="13" style="fill:none"/><rect x="13.58" y="10.86" width="11" height="11" style="fill:none;stroke:#2fb55d;stroke-width:2px"/></g><g id="Group_1899" data-name="Group 1899"><path id="Path_1288" data-name="Path 1288" d="M40.16,90.91,31.8,85.48" style="fill:none;stroke:#ed1e24;stroke-linecap:round;stroke-miterlimit:4.0018915443327465;stroke-width:2.0009457721663733px"/><path id="Path_1289" data-name="Path 1289" d="M38.7,84l-5.43,8.36" style="fill:none;stroke:#ed1e24;stroke-linecap:round;stroke-miterlimit:4.0018915443327465;stroke-width:2.0009457721663733px"/></g></g></g><g id="Group_2146" data-name="Group 2146"><g id="Group_2143" data-name="Group 2143"><path id="Path_1355" data-name="Path 1355" d="M55.58,20.39V85.46h41.2V20.39Z" style="fill:#4d4d4e;stroke:#fff"/><path id="Path_1356" data-name="Path 1356" d="M55.58,20.49,78.9,27.42v49.3L55.58,85.46Z" style="fill:#4281c3;stroke:#fff"/></g><g id="Group_2145" data-name="Group 2145"><line id="Line_69" data-name="Line 69" x1="61.79" y1="30.56" x2="73.79" y2="33.56" style="fill:none;stroke:#fff;stroke-linecap:round"/><line id="Line_70" data-name="Line 70" x1="61.79" y1="34.56" x2="73.79" y2="36.56" style="fill:none;stroke:#fff;stroke-linecap:round"/></g><path id="Path_1357" data-name="Path 1357" d="M78.54,27.79l-.13,48.57L69,79.81V25.19Z" style="fill:#2e75bb;opacity:0.4970000088214874;isolation:isolate"/><g id="Group_2144" data-name="Group 2144"><circle id="Ellipse_172" data-name="Ellipse 172" cx="75.29" cy="53.06" r="2" style="fill:#fbab19"/><path id="Subtraction_32" data-name="Subtraction 32" d="M75.29,55.06a1.77,1.77,0,0,1-.5-.07,2,2,0,0,0,0-3.87,2.2,2.2,0,0,1,.5-.06,2,2,0,1,1,0,4Z" style="fill:#dd9427"/></g></g></g></g></svg>