<svg xmlns="http://www.w3.org/2000/svg" viewBox="0 0 163 105.86"><title>favorite_driver</title><g id="Layer_2" data-name="Layer 2"><g id="Layer_1-2" data-name="Layer 1"><g id="Group_2374" data-name="Group 2374"><g id="Group_2228" data-name="Group 2228"><g id="Group_1954" data-name="Group 1954"><path id="Path_1298" data-name="Path 1298" d="M69.64,0C114.65,0,163,22,163,51.86c0,17.3-21.91,13.06-41.26,23.07-13.57,7-21.34,30.93-40.24,30.93-45,0-81.5-24.18-81.5-54S24.62,0,69.64,0Z" style="fill:#e9f5fc"/><g id="Group_1952" data-name="Group 1952"><g id="Ellipse_132" data-name="Ellipse 132"><circle cx="126.5" cy="74.36" r="6.5" style="fill:none"/><circle cx="126.5" cy="74.36" r="5.5" style="fill:none;stroke:#4281c3;stroke-width:2px"/></g><g id="Polygon_13" data-name="Polygon 13"><path d="M148.5,15.86l7.5,13H141Z" style="fill:none"/><path d="M148.5,19.86l-4,7h8.08l-4-7m0-4,7.5,13H141Z" style="fill:#f68720"/></g><g id="Rectangle_487" data-name="Rectangle 487"><rect x="13" y="9.86" width="13" height="13" style="fill:none"/><rect x="14" y="10.86" width="11" height="11" style="fill:none;stroke:#2fb55d;stroke-width:2px"/></g><g id="Group_1899" data-name="Group 1899"><path id="Path_1288" data-name="Path 1288" d="M40,91.13,31.65,85.7" style="fill:none;stroke:#ed1e24;stroke-linecap:round;stroke-miterlimit:4.0018915443327465;stroke-width:2.0009457721663733px"/><path id="Path_1289" data-name="Path 1289" d="M38.54,84.24,33.11,92.6" style="fill:none;stroke:#ed1e24;stroke-linecap:round;stroke-miterlimit:4.0018915443327465;stroke-width:2.0009457721663733px"/></g></g></g></g><g id="Group_2373" data-name="Group 2373"><g id="Group_2227" data-name="Group 2227"><g id="Group_2225" data-name="Group 2225"><g id="Group_2194" data-name="Group 2194"><g id="Group_2195" data-name="Group 2195"><g id="Group_2190" data-name="Group 2190"><g id="Group_2177" data-name="Group 2177"><path id="Subtraction_33" data-name="Subtraction 33" d="M116,72.86H47a39.17,39.17,0,0,1,2.71-14.4A37.16,37.16,0,0,1,57.1,46.69a34.45,34.45,0,0,1,11-7.93,32.52,32.52,0,0,1,26.86,0,34.34,34.34,0,0,1,11,7.93,37.27,37.27,0,0,1,7.39,11.77A39.17,39.17,0,0,1,116,72.86Z" style="fill:#6ccde8"/></g><path id="Path_1460" data-name="Path 1460" d="M67.18,52.35s-7.76,10-5.75,19.48" style="fill:none;stroke:#35c3df;stroke-linecap:round"/><path id="Path_1461" data-name="Path 1461" d="M97.5,52.35s7.76,10,5.75,19.48" style="fill:none;stroke:#35c3df;stroke-linecap:round"/></g></g></g><g id="Group_1505" data-name="Group 1505"><path id="Path_815" data-name="Path 815" d="M87.71,35.4s3.39,1.84-5.6,5.19c0,0,7,.42,9,5.21C91.27,45.92,92.31,38,87.71,35.4Z" style="fill:#f5fbfe"/><path id="Path_816" data-name="Path 816" d="M77.1,32.86c-4.61,2.57-4.15,13.06-4,12.88,2.1-4.79,9-5.21,9-5.21C73.13,37.24,77.1,32.86,77.1,32.86Z" style="fill:#f5fbfe"/></g><g id="Group_2224" data-name="Group 2224"><g id="Group_2116" data-name="Group 2116"><g id="Group_2104" data-name="Group 2104"><path id="Path_1476" data-name="Path 1476" d="M81.57,10.25c7.93,0,14.36,6.94,14.36,15.51s-6.43,15.5-14.36,15.5-14.35-6.94-14.35-15.5c0-3.69.62-7.73,2.82-10.68C72.45,11.84,77.05,10.25,81.57,10.25Z" style="fill:#fdcd9b"/></g></g><g id="Group_2117" data-name="Group 2117"><path id="Path_1318" data-name="Path 1318" d="M67.7,22.3s-2.37-10.44,3-14.71,14.64-.48,14.64-.48,7-5,10.61-1.33S96,19.4,96,19.4s-5.53,2.72-10.61-4.48-15.28.59-15.28.59Z" style="fill:#898989"/><ellipse id="Ellipse_158" data-name="Ellipse 158" cx="85.5" cy="7.36" rx="3.5" ry="4.5" style="fill:#898989"/><ellipse id="Ellipse_159" data-name="Ellipse 159" cx="96" cy="16.86" rx="7" ry="5" style="fill:#898989"/></g></g><path id="Path_3553" data-name="Path 3553" d="M83.27,28.16a1.12,1.12,0,0,1,.11.47,1.2,1.2,0,1,1-2.4,0,1.12,1.12,0,0,1,.11-.47,1.27,1.27,0,0,0-.31.83,1.41,1.41,0,0,0,2.81,0A1.26,1.26,0,0,0,83.27,28.16Z" style="fill:#be986c"/></g><g id="Group_2226" data-name="Group 2226"><g id="steering-wheel"><g id="Group_2174" data-name="Group 2174"><g id="Group_2173" data-name="Group 2173"><path id="Path_1442" data-name="Path 1442" d="M81.3,42.92A22.72,22.72,0,1,0,104,65.64,22.72,22.72,0,0,0,81.3,42.92Zm0,5.13A17.57,17.57,0,0,1,98.75,63.44H63.85A17.59,17.59,0,0,1,81.3,48.05ZM64.16,69.62c3.52-1.14,7.24-2,10.55-.32,2.71,1.36,4,10.82,4.3,13.78A17.62,17.62,0,0,1,64.16,69.62ZM83.59,83.08c.33-3,1.59-12.42,4.31-13.78,3.3-1.65,7-.82,10.54.32A17.61,17.61,0,0,1,83.59,83.08Z" style="fill:#7c7b74"/><g id="Group_2172" data-name="Group 2172"><path id="Path_1443" data-name="Path 1443" d="M83.5,85.42A22.72,22.72,0,0,1,64.27,50.6a22.72,22.72,0,1,0,36.26,27.14A22.65,22.65,0,0,1,83.5,85.42Z" style="fill:#5c5a51"/></g><path id="Path_1453" data-name="Path 1453" d="M81.3,65.64a2.93,2.93,0,1,1-2.93,2.93,2.93,2.93,0,0,1,2.93-2.93Z" style="fill:#fbab19"/><path id="Path_1444" data-name="Path 1444" d="M82.77,70A2.92,2.92,0,0,1,80.1,65.9,2.93,2.93,0,1,0,84,69.77,2.8,2.8,0,0,1,82.77,70Z" style="fill:#f68720"/></g></g></g><path id="Path_3493" data-name="Path 3493" d="M102.12,52.81c4.07.79,7.43,4.45,6.74,8s-4.54,5.74-8.6,4.95-6.81-4.29-6.12-7.82c.51-2.61,2.58-2,5.68-2.54C100.48,55.26,99.79,52.71,102.12,52.81Z" style="fill:#fdcd9b"/><path id="Path_1452" data-name="Path 1452" d="M60.69,52.92c1.61-.2,1.32,1.63,2.56,1.8,2.67.34,4.8.17,5.39,2.94A6.62,6.62,0,0,1,67.27,63a7.87,7.87,0,0,1-4.76,2.86c-4.16.89-8.16-1.35-8.94-5S56.53,53.8,60.69,52.92Z" style="fill:#fdcd9b"/></g></g><path id="Path_3494" data-name="Path 3494" d="M53.5,59.31l-1.89,1.52a7.9,7.9,0,0,0,7.13,6.72L60.59,66S54.44,63.75,53.5,59.31Z" style="fill:#fff"/><path id="Path_3495" data-name="Path 3495" d="M103.44,65.64l1.79,1.63a7.89,7.89,0,0,0,5.52-8.1l-1.83-1.57S107.67,64,103.44,65.64Z" style="fill:#fff"/></g></g></g></g></svg>