<svg id="Group_6810" data-name="Group 6810" xmlns="http://www.w3.org/2000/svg" width="15.082" height="15.082" viewBox="0 0 15.082 15.082">
  <g id="Group_6810-2" data-name="Group 6810">
    <path id="Path_13449" data-name="Path 13449" d="M343.848,0a2.516,2.516,0,0,0-2.514,2.514c0,1.2,1.781,3.636,2.2,4.189,0,.179,0,.355,0,.516a.314.314,0,0,0,.306.322h.009a.314.314,0,0,0,.314-.306c0-.165,0-.346,0-.53.415-.55,2.2-2.988,2.2-4.192A2.517,2.517,0,0,0,343.848,0Zm0,3.142a.628.628,0,1,1,.628-.628A.629.629,0,0,1,343.848,3.142Z" transform="translate(-331.279)" fill="#008af6"/>
    <path id="Path_13450" data-name="Path 13450" d="M293.236,306.065a2.553,2.553,0,0,0-.979,1.164.314.314,0,1,0,.566.272,1.877,1.877,0,0,1,.723-.889.314.314,0,1,0-.31-.546Z" transform="translate(-283.618 -297.009)" fill="#008af6"/>
    <path id="Path_13451" data-name="Path 13451" d="M186.222,460.036a3.439,3.439,0,0,1-1.094.574.314.314,0,0,0,.195.6,4.113,4.113,0,0,0,1.29-.679.314.314,0,1,0-.39-.493Z" transform="translate(-179.464 -446.419)" fill="#008af6"/>
    <path id="Path_13452" data-name="Path 13452" d="M256.39,383.728a.313.313,0,0,0-.407.18,7.346,7.346,0,0,1-.554,1.177.314.314,0,0,0,.536.328,7.959,7.959,0,0,0,.6-1.278A.315.315,0,0,0,256.39,383.728Z" transform="translate(-247.86 -372.404)" fill="#008af6"/>
    <path id="Path_13453" data-name="Path 13453" d="M367.424,279.251a.315.315,0,0,0-.436.084c-.1.153-.315.363-.955.42a.314.314,0,0,0,.028.627h.029a1.781,1.781,0,0,0,1.419-.694A.314.314,0,0,0,367.424,279.251Z" transform="translate(-354.972 -270.973)" fill="#008af6"/>
    <path id="Path_13454" data-name="Path 13454" d="M4.515,180.1c.991-1.057,3.026-3.49,3.026-5.66a3.73,3.73,0,0,0-3.77-3.77A3.73,3.73,0,0,0,0,174.437c0,2.787,3.36,6.013,3.548,6.191h0l.006.006a.3.3,0,0,0,.044.028.307.307,0,0,0,.054.034.313.313,0,0,0,.118.024q.343,0,.653-.024a.314.314,0,0,0,.29-.337A.308.308,0,0,0,4.515,180.1Zm-.745-3.775a1.885,1.885,0,1,1,1.885-1.885A1.887,1.887,0,0,1,3.77,176.323Z" transform="translate(0 -165.64)" fill="#008af6"/>
  </g>
</svg>
