<svg xmlns="http://www.w3.org/2000/svg" viewBox="0 0 53.84 34.97"><title>help_account</title><g id="Layer_2" data-name="Layer 2"><g id="Layer_1-2" data-name="Layer 1"><g id="Group_4076" data-name="Group 4076"><path id="Path_3674" data-name="Path 3674" d="M23,0C37.87,0,53.84,7.28,53.84,17.13c0,5.71-7.24,4.31-13.63,7.62C35.73,27.07,33.16,35,26.92,35,12.05,35,0,27,0,17.13S8.13,0,23,0Z" style="fill:#e9f5fc"/><path id="Rectangle_1535" data-name="Rectangle 1535" d="M31.85,16.81h0a6,6,0,0,1,7.75,3.45h0A6,6,0,0,1,36.15,28h0a6,6,0,0,1-7.75-3.45h0A6,6,0,0,1,31.85,16.81Z" style="fill:#fbab19;opacity:0.7039999961853027;isolation:isolate"/><g id="profile"><path id="Path_363" data-name="Path 363" d="M25.17,17.48A5.46,5.46,0,1,0,19.71,12,5.45,5.45,0,0,0,25.17,17.48Zm0-9.49a4,4,0,1,1-4,4h0A4,4,0,0,1,25.17,8Z" style="fill:#4281c3"/><path id="Path_364" data-name="Path 364" d="M15.72,26h19a.73.73,0,0,0,.73-.71h0a6.88,6.88,0,0,0-6.86-6.86h-6.7A6.86,6.86,0,0,0,15,25.29a.71.71,0,0,0,.71.72Zm6.14-6.14h6.7a5.41,5.41,0,0,1,5.36,4.7H16.49a5.42,5.42,0,0,1,5.37-4.69Z" style="fill:#4281c3"/></g></g></g></g></svg>