<svg id="Layer_1" data-name="Layer 1" xmlns="http://www.w3.org/2000/svg" viewBox="0 0 20.73 19.08"><title>help_chat</title><path id="Path_460" data-name="Path 460" d="M20.24,20.54H5.2a2.86,2.86,0,0,0-2.85,2.85v9.2a2.86,2.86,0,0,0,2.84,2.85v4.17l6-4.17h9a2.86,2.86,0,0,0,2.85-2.85v-9.2A2.86,2.86,0,0,0,20.24,20.54Zm1.63,12.05a1.63,1.63,0,0,1-1.63,1.63H10.81l-4.4,3.07V34.22H5.21a1.63,1.63,0,0,1-1.63-1.63v-9.2A1.64,1.64,0,0,1,5.2,21.75h15a1.64,1.64,0,0,1,1.63,1.64Z" transform="translate(-2.35 -20.54)" style="fill:#008af6"/><path id="Path_461" data-name="Path 461" d="M7.9,24.83h9.64v1.22H7.9Z" transform="translate(-2.35 -20.54)" style="fill:#008af6"/><path id="Path_462" data-name="Path 462" d="M7.9,27.42h9.64v1.22H7.9Z" transform="translate(-2.35 -20.54)" style="fill:#008af6"/><path id="Path_463" data-name="Path 463" d="M7.9,30h9.64v1.22H7.9Z" transform="translate(-2.35 -20.54)" style="fill:#008af6"/></svg>