<svg xmlns="http://www.w3.org/2000/svg" viewBox="0 0 53.84 34.97"><title>help_driver</title><g id="Layer_2" data-name="Layer 2"><g id="Layer_1-2" data-name="Layer 1"><g id="Group_4075" data-name="Group 4075"><path id="Path_3672" data-name="Path 3672" d="M23,0C37.87,0,53.84,7.28,53.84,17.13c0,5.71-7.24,4.31-13.63,7.62C35.73,27.07,33.16,35,26.92,35,12.05,35,0,27,0,17.13S8.13,0,23,0Z" style="fill:#e9f5fc"/><path id="Rectangle_1534" data-name="Rectangle 1534" d="M30.85,14.81h0a6,6,0,0,1,7.75,3.45h0A6,6,0,0,1,35.15,26h0a6,6,0,0,1-7.75-3.45h0A6,6,0,0,1,30.85,14.81Z" style="fill:#fbab19;opacity:0.7039999961853027;isolation:isolate"/><g id="Group_3039" data-name="Group 3039"><g id="chauffer"><path id="Path_477" data-name="Path 477" d="M27.12,7.15A10.12,10.12,0,1,0,37.24,17.27h0A10.14,10.14,0,0,0,27.12,7.15Zm0,19.65a9.53,9.53,0,1,1,9.52-9.53A9.53,9.53,0,0,1,27.12,26.8Z" style="fill:#4281c3"/><path id="Path_478" data-name="Path 478" d="M29.68,17.27a2.56,2.56,0,1,0-2.56,2.57A2.56,2.56,0,0,0,29.68,17.27Zm-2.56,2a2,2,0,1,1,2-2,2,2,0,0,1-2,2Z" style="fill:#4281c3"/><path id="Path_479" data-name="Path 479" d="M35.08,19.11h0a5.84,5.84,0,0,0-7.15,4.13,5.9,5.9,0,0,0-.17,2.17h0a.31.31,0,0,0,.3.27h0a8.49,8.49,0,0,0,7.2-6.2.3.3,0,0,0-.22-.37Zm-2.81,4.1A7.76,7.76,0,0,1,28.33,25a5.25,5.25,0,0,1,5-5.53,5.59,5.59,0,0,1,1.35.1,7.89,7.89,0,0,1-2.36,3.61Z" style="fill:#4281c3"/><path id="Path_480" data-name="Path 480" d="M19.16,19.11h0a.31.31,0,0,0-.21.37,8.49,8.49,0,0,0,7.2,6.2h0a.31.31,0,0,0,.3-.27h0a5.85,5.85,0,0,0-7.32-6.3ZM25.91,25a7.87,7.87,0,0,1-6.3-5.42,5.25,5.25,0,0,1,6.2,4.07A5.13,5.13,0,0,1,25.91,25Z" style="fill:#4281c3"/><path id="Path_481" data-name="Path 481" d="M33.06,11.25a8.46,8.46,0,0,0-14.4,5.9.3.3,0,0,0,.53.19,10.27,10.27,0,0,1,7.93-3.43,10.27,10.27,0,0,1,7.93,3.43.28.28,0,0,0,.42,0,.26.26,0,0,0,.1-.22A8.38,8.38,0,0,0,33.06,11.25Zm-5.94,2.06a11.13,11.13,0,0,0-7.81,3,7.87,7.87,0,0,1,15.62,0A11.13,11.13,0,0,0,27.12,13.31Z" style="fill:#4281c3"/></g></g></g></g></g></svg>