<svg xmlns="http://www.w3.org/2000/svg" width="20.262" height="20.262" viewBox="0 0 20.262 20.262">
  <g id="auricular-phone-symbol-in-a-circle" transform="translate(0 2)">
    <path id="Path_442" data-name="Path 442" d="M10.131,1.266a8.864,8.864,0,1,1-8.864,8.864,8.875,8.875,0,0,1,8.864-8.864m0-1.266A10.131,10.131,0,1,0,20.262,10.131,10.131,10.131,0,0,0,10.131,0Zm5.648,13.518-.057-.173a1.6,1.6,0,0,0-.979-.925l-1.5-.409a1.467,1.467,0,0,0-1.282.336l-.542.542A5.753,5.753,0,0,1,7.376,8.842L7.917,8.3a1.469,1.469,0,0,0,.335-1.282l-.408-1.5a1.6,1.6,0,0,0-.926-.979l-.171-.057a1.355,1.355,0,0,0-1.266.3l-.811.811a1.51,1.51,0,0,0-.237.557,9.567,9.567,0,0,0,9.655,9.677,1.493,1.493,0,0,0,.582-.235l.811-.811A1.357,1.357,0,0,0,15.779,13.518Z" transform="translate(0 -2)" fill="#fff"/>
  </g>
</svg>
