<svg xmlns="http://www.w3.org/2000/svg" viewBox="0 0 53.84 34.97"><title>order_help</title><g id="Layer_2" data-name="Layer 2"><g id="Layer_1-2" data-name="Layer 1"><g id="Group_4072" data-name="Group 4072"><path id="Path_3673" data-name="Path 3673" d="M23,0C37.87,0,53.84,7.28,53.84,17.13c0,5.71-7.24,4.31-13.63,7.62C35.73,27.07,33.16,35,26.92,35,12.05,35,0,27,0,17.13S8.13,0,23,0Z" style="fill:#e9f5fc"/><path id="Rectangle_1532" data-name="Rectangle 1532" d="M31.85,15.81h0a6,6,0,0,1,7.75,3.45h0A6,6,0,0,1,36.15,27h0a6,6,0,0,1-7.75-3.45h0A6,6,0,0,1,31.85,15.81Z" style="fill:#fbab19;opacity:0.7039999961853027;isolation:isolate"/><g id="box-closed"><path id="Path_335" data-name="Path 335" d="M37,11v0L26.51,6.85,16,11h0v0h0V24.15l10.5,4.12L37,24.15V11ZM26.49,7.66l3.56,1.27-9.7,3.76-3.29-1.3Zm-.37,19.67-3.93-1.58-2-.74-3.47-1.37V12.08l3.44,1.35v2.89l.3-.08.21.28.29-.07.28.3.24-.09.4.39V14.11l.3.12,3.92,1.55V27.33Zm.38-12.21-3.83-1.51,9.45-3.84L36,11.36Zm9.75,8.52-9.37,3.7V15.78l9.37-3.7V23.64Z" style="fill:#4281c3"/></g></g></g></g></svg>