<svg xmlns="http://www.w3.org/2000/svg" viewBox="0 0 53.84 34.97"><title>help_pay</title><g id="Layer_2" data-name="Layer 2"><g id="Layer_1-2" data-name="Layer 1"><g id="Group_4073" data-name="Group 4073"><path id="Path_1298" data-name="Path 1298" d="M23,0C37.87,0,53.84,7.28,53.84,17.13c0,5.71-7.24,4.31-13.63,7.62C35.73,27.07,33.16,35,26.92,35,12.05,35,0,27,0,17.13S8.13,0,23,0Z" style="fill:#e9f5fc"/><path id="Rectangle_1536" data-name="Rectangle 1536" d="M32.85,15.81h0a6,6,0,0,1,7.75,3.45h0A6,6,0,0,1,37.15,27h0a6,6,0,0,1-7.75-3.45h0A6,6,0,0,1,32.85,15.81Z" style="fill:#fbab19;opacity:0.7039999961853027;isolation:isolate"/><g id="wallet"><path id="Path_360" data-name="Path 360" d="M35.24,15.43H34.8V12.12a2.24,2.24,0,0,0-1.93-2.45h-.4V8.44a1.51,1.51,0,0,0-1.3-1.65H19.58a1.83,1.83,0,0,0-1.58,2V25a1.51,1.51,0,0,0,1.3,1.65H32.88a2.24,2.24,0,0,0,1.93-2.45V20.89h.43a1.17,1.17,0,0,0,1-1.29V16.72A1.18,1.18,0,0,0,35.24,15.43ZM19.58,7.93H31.17a.46.46,0,0,1,.4.51V9.67h-12a.9.9,0,0,1,0-1.74ZM33.91,24.2a1.21,1.21,0,0,1-1,1.31H19.3a.47.47,0,0,1-.4-.51V10.61a1.32,1.32,0,0,0,.69.2H32.87a1.21,1.21,0,0,1,1,1.31v3.31H30.84a1.18,1.18,0,0,0-1,1.29V19.6a1.17,1.17,0,0,0,1,1.29h3.07Zm1.45-4.6a.14.14,0,0,1-.12.15h-4.4a.13.13,0,0,1-.12-.15V16.72a.13.13,0,0,1,.12-.15h4.4a.14.14,0,0,1,.12.15Z" style="fill:#4281c3"/></g></g></g></g></svg>