<svg xmlns="http://www.w3.org/2000/svg" viewBox="0 0 53.84 34.97"><title>help_delivery</title><g id="Layer_2" data-name="Layer 2"><g id="Layer_1-2" data-name="Layer 1"><g id="Group_4074" data-name="Group 4074"><path id="Path_3671" data-name="Path 3671" d="M23,0C37.87,0,53.84,7.28,53.84,17.13c0,5.71-7.24,4.31-13.63,7.62C35.73,27.07,33.16,35,26.92,35,12.05,35,0,27,0,17.13S8.13,0,23,0Z" style="fill:#e9f5fc"/><path id="Rectangle_1533" data-name="Rectangle 1533" d="M35.85,15.81h0a6,6,0,0,1,7.75,3.45h0A6,6,0,0,1,40.15,27h0a6,6,0,0,1-7.75-3.45h0A6,6,0,0,1,35.85,15.81Z" style="fill:#fbab19;opacity:0.7039999961853027;isolation:isolate"/><g id="Group_3038" data-name="Group 3038"><line id="Line_19" data-name="Line 19" x1="10.87" y1="13.35" x2="20.44" y2="13.35" style="fill:none;stroke:#4281c3;stroke-linecap:round"/><line id="Line_20" data-name="Line 20" x1="14.97" y1="18.14" x2="24.54" y2="18.14" style="fill:none;stroke:#4281c3;stroke-linecap:round"/><line id="Line_21" data-name="Line 21" x1="9.5" y1="23.61" x2="19.07" y2="23.61" style="fill:none;stroke:#4281c3;stroke-linecap:round"/><g id="box-closed"><path id="Path_335" data-name="Path 335" d="M40.63,10.35l0,0-10.27-4L20.13,10.35h0v0h0V23.23l10.27,4,10.28-4V10.34ZM30.37,7.09l3.48,1.24L24.36,12l-3.22-1.27ZM30,26.35,26.16,24.8l-1.93-.73-3.4-1.34V11.42l3.36,1.32v2.83l.3-.08.2.28L25,15.7l.28.29.24-.08.38.38V13.41l.3.11L30,15V26.35Zm.37-12-3.76-1.48,9.26-3.75,3.82,1.56Zm9.54,8.34-9.18,3.62V15l9.18-3.62V22.73Z" style="fill:#4281c3"/></g></g></g></g></g></svg>