<svg xmlns="http://www.w3.org/2000/svg" viewBox="0 0 20.26 20.26"><title>help</title><g id="Layer_2" data-name="Layer 2"><g id="Layer_1-2" data-name="Layer 1"><g id="auricular-phone-symbol-in-a-circle"><path id="Path_442" data-name="Path 442" d="M10.13,1.27a8.86,8.86,0,1,1-8.86,8.86h0a8.86,8.86,0,0,1,8.86-8.86m0-1.27A10.13,10.13,0,1,0,20.26,10.13,10.14,10.14,0,0,0,10.13,0Zm5.65,13.52-.06-.18a1.6,1.6,0,0,0-1-.92L13.24,12a1.46,1.46,0,0,0-1.28.34l-.54.54a5.76,5.76,0,0,1-4-4.05l.54-.54A1.46,1.46,0,0,0,8.25,7l-.41-1.5a1.57,1.57,0,0,0-.92-1l-.17-.06a1.36,1.36,0,0,0-1.27.3l-.81.81a1.47,1.47,0,0,0-.24.56,9.58,9.58,0,0,0,9.46,9.68h.2a1.55,1.55,0,0,0,.58-.24l.81-.81A1.35,1.35,0,0,0,15.78,13.52Z" style="fill:#fff"/></g></g></g></svg>