<svg xmlns="http://www.w3.org/2000/svg" viewBox="0 0 20.11 20.12"><title>help_tlp</title><g id="Layer_2" data-name="Layer 2"><g id="Layer_1-2" data-name="Layer 1"><g id="Group_935" data-name="Group 935"><g id="phone-call"><path id="Path_464" data-name="Path 464" d="M16.17,20.11a8.56,8.56,0,0,1-3-.62,22.23,22.23,0,0,1-7.47-5.12A22.12,22.12,0,0,1,.63,6.91c-.84-2.22-.84-4,0-4.87L1,1.66C1.75.86,2.61,0,3.75,0A3.3,3.3,0,0,1,6.07,1.49c2.3,2.86,1.26,3.88.06,5.06l-.21.21c-.2.2-.57,1.1,2.88,4.55a19.51,19.51,0,0,0,2.85,2.45c.49.32,1.35.79,1.7.44l.22-.22c1.18-1.2,2.2-2.23,5.05.07a3.3,3.3,0,0,1,1.49,2.32c.05,1.14-.86,2-1.66,2.76l-.38.36A2.59,2.59,0,0,1,16.17,20.11ZM3.67.68c-.81,0-1.54.77-2.19,1.45-.13.13-.25.27-.38.39-.62.62-.56,2.25.16,4.15a21.66,21.66,0,0,0,5,7.23,21.43,21.43,0,0,0,7.23,5c1.9.72,3.53.78,4.15.16l.39-.38c.69-.66,1.48-1.4,1.45-2.23a2.75,2.75,0,0,0-1.24-1.83c-2.38-1.91-3-1.24-4.15-.12l-.22.22c-.52.53-1.38.41-2.54-.34a20.54,20.54,0,0,1-3-2.54C5.46,8.93,4.55,7.18,5.44,6.28l.22-.21C6.78,5,7.46,4.3,5.54,1.91A2.74,2.74,0,0,0,3.72.68Z" style="fill:#4281c3"/></g></g></g></g></svg>