<svg xmlns="http://www.w3.org/2000/svg" viewBox="0 0 20.33 20.33"><title>help_cs</title><g id="Layer_2" data-name="Layer 2"><g id="Layer_1-2" data-name="Layer 1"><g id="Group_937" data-name="Group 937"><g id="Group_936" data-name="Group 936"><path id="Path_482" data-name="Path 482" d="M4.76,8.06H3.19A7,7,0,0,1,16.72,6.15.79.79,0,0,0,18.2,5.6,8.57,8.57,0,0,0,1.59,8.48,3.19,3.19,0,0,0,0,11.23v2.7a3.18,3.18,0,0,0,3.18,3.18H4.76a.8.8,0,0,0,.8-.8h0V8.85a.79.79,0,0,0-.8-.79ZM4,15.52H3.18a1.59,1.59,0,0,1-1.59-1.59v-2.7A1.59,1.59,0,0,1,3.18,9.65H4Z" style="fill:#4281c3"/><path id="Path_483" data-name="Path 483" d="M17.15,8.06H15.56a.79.79,0,0,0-.79.79h0v8.3a.82.82,0,0,1-.8.8H11.55v0a1.59,1.59,0,1,0-.62,2.16,1.61,1.61,0,0,0,.62-.62v0H14a2.39,2.39,0,0,0,2.39-2.38v0h.79a3.19,3.19,0,0,0,3.18-3.18v-2.7A3.19,3.19,0,0,0,17.15,8.06Zm1.59,5.87a1.6,1.6,0,0,1-1.59,1.59h-.8V9.65h.8a1.6,1.6,0,0,1,1.59,1.58Z" style="fill:#4281c3"/></g></g></g></g></svg>