<svg xmlns="http://www.w3.org/2000/svg" width="43.67" height="41.875" viewBox="0 0 43.67 41.875">
  <g id="Group_4600" data-name="Group 4600" transform="translate(-185.371 -650.122)">
    <g id="Group_2247" data-name="Group 2247" transform="translate(117.371 650.122)">
      <g id="Group_2243" data-name="Group 2243" transform="translate(68)">
        <path id="Path_1322" data-name="Path 1322" d="M24.944,2.112c13.9,0,24.7,10.846,24.7,23.781s-10.8,18.094-24.7,18.094S5.975,34.713,5.975,21.777c0-7.49,1.2-11.591,5.494-15.061A21.837,21.837,0,0,1,24.944,2.112Z" transform="translate(-5.975 -2.112)" fill="#fff"/>
      </g>
      <g id="Group_2244" data-name="Group 2244" transform="translate(70.5 2.513)">
        <path id="path330" d="M1069.012-526.3c-11.656,11.985-5.444,30.808,12.212,31.559a19.585,19.585,0,0,0,10.629-2.31c-.159.176-.326.347-.493.517,6.38-6.469,6.576-17.707.688-24.665a18.728,18.728,0,0,0-23.035-5.1" transform="translate(-1059.055 528.265)" fill="#008af6"/>
        <path id="path364" d="M1055.145-481.939c-17.655-.751-23.868-19.574-12.212-31.559h0q-.2.1-.38.209l-.046.027q-.164.1-.317.19l-.125.081c-.075.049-.151.1-.221.146-.115.079-.224.159-.326.237-5.637,4.384-8.342,10.131-8.529,15.644a17.953,17.953,0,0,0,.115,2.73q.08.674.211,1.336a17.282,17.282,0,0,0,1.232,3.829,16.906,16.906,0,0,0,2.1,3.442,17,17,0,0,0,2.928,2.906,18.583,18.583,0,0,0,6.616,3.244,22.761,22.761,0,0,0,4.949.743c.525.022,1.035.023,1.538.013.139,0,.276-.007.414-.012q.612-.022,1.2-.074c.1-.009.193-.013.287-.023.461-.047.911-.11,1.352-.184.132-.022.261-.049.392-.073q.488-.093.959-.206c.136-.033.274-.064.408-.1.394-.1.781-.219,1.156-.346.134-.046.264-.1.4-.145.255-.093.506-.19.753-.293.162-.068.323-.136.48-.208.233-.106.46-.219.685-.334s.472-.249.7-.381c.185-.106.37-.213.548-.326s.347-.224.516-.34c.135-.093.268-.188.4-.285q.511-.373.985-.779c.068-.059.14-.115.207-.175.176-.156.345-.318.512-.48q.128-.124.252-.25c.168-.17.334-.341.493-.517a19.585,19.585,0,0,1-10.629,2.31" transform="translate(-1032.976 515.466)" fill="#007eba"/>
      </g>
    </g>
    <g id="faq" transform="translate(165.96 657.835)">
      <path id="Path_805" data-name="Path 805" d="M66.386,27.045A10.986,10.986,0,0,1,55.432,38a8.256,8.256,0,0,1-2.425-.313l-5.086,3.443.782-5.4a10.967,10.967,0,1,1,17.682-8.685Z" transform="translate(-13.845 -15.231)" fill="#f8f86b"/>
      <g id="Group_1499" data-name="Group 1499" transform="translate(30.634 0.938)" opacity="0.1">
        <path id="Path_806" data-name="Path 806" d="M66.152,26.217a10.976,10.976,0,0,0-18.23,8.215,9.9,9.9,0,0,0,.235,2.191,10.919,10.919,0,0,1,7.276-19.09A10.773,10.773,0,0,1,66.152,26.217Z" transform="translate(-44.48 -17.532)" fill="#030303"/>
      </g>
      <path id="Path_807" data-name="Path 807" d="M113.781,374.961l-.156,1.017a10.42,10.42,0,0,1-.391-1.487A3.4,3.4,0,0,1,113.781,374.961Z" transform="translate(-78.921 -354.463)" fill="#77c587"/>
      <path id="Path_808" data-name="Path 808" d="M33.686,26.523a.963.963,0,0,1-.391-.782l.782-5.007a11.718,11.718,0,1,1,7.511,2.738,10.62,10.62,0,0,1-2.269-.235l-4.773,3.208C34.233,26.68,33.92,26.758,33.686,26.523Zm7.9-24.88a10.2,10.2,0,0,0-6.259,18.23.849.849,0,0,1,.313.7l-.548,3.677,3.6-2.425a.591.591,0,0,1,.626-.078,11.171,11.171,0,0,0,2.269.235,10.171,10.171,0,0,0,0-20.342Z"/>
      <path id="Path_809" data-name="Path 809" d="M186.971,129.577a.739.739,0,0,1-.782-.782v-2.582a.739.739,0,0,1,.782-.782,1.956,1.956,0,1,0-1.956-1.956.782.782,0,0,1-1.565,0,3.521,3.521,0,1,1,7.042,0,3.594,3.594,0,0,1-2.738,3.443V128.8A.784.784,0,0,1,186.971,129.577Z" transform="translate(-145.383 -113.538)"/>
      <path id="Path_810" data-name="Path 810" d="M234.885,314.382a.775.775,0,1,1,1.1,0A.7.7,0,0,1,234.885,314.382Z" transform="translate(-193.845 -296.309)"/>
    </g>
  </g>
</svg>
