<svg xmlns="http://www.w3.org/2000/svg" viewBox="0 0 192.83 106.45"><title>icon_verification</title><g id="Layer_2" data-name="Layer 2"><g id="Layer_1-2" data-name="Layer 1"><g id="Group_4071" data-name="Group 4071"><g id="Group_2381" data-name="Group 2381"><path id="Path_1302" data-name="Path 1302" d="M192.83,23.38h0A7.87,7.87,0,0,0,185,15.52H75.69a29,29,0,0,0-29,29V57.59a5,5,0,0,1-5,5h-34a3.22,3.22,0,0,0-3.22,3.21h0a3.22,3.22,0,0,0,3.22,3.22h46a3.76,3.76,0,0,1,3.76,3.76h0a3.77,3.77,0,0,1-3.76,3.77H21.08A2.35,2.35,0,0,0,18.73,79h0a2.36,2.36,0,0,0,2.35,2.35H42A4.71,4.71,0,0,1,46.73,86h0A4.71,4.71,0,0,1,42,90.74H7.86A7.87,7.87,0,0,0,0,98.6H0a7.86,7.86,0,0,0,7.86,7.85H127.53a29,29,0,0,0,29-29V64.38a5.06,5.06,0,0,1,5-5h23.61a3.21,3.21,0,0,0,3.21-3.21h0a3.21,3.21,0,0,0-3.21-3.21H149.57a3.79,3.79,0,0,1-3.77-3.77h0a3.78,3.78,0,0,1,3.77-3.76h22.16A2.35,2.35,0,0,0,174.08,43h0a2.35,2.35,0,0,0-2.35-2.35H161.19A4.72,4.72,0,0,1,156.47,36h0a4.72,4.72,0,0,1,4.72-4.72H185A7.87,7.87,0,0,0,192.83,23.38Z" style="fill:#e9f5fc"/><g id="Group_2376" data-name="Group 2376"><g id="Group_1152" data-name="Group 1152"><g id="g10"><g id="g12"><path id="path88" d="M173.23,14.46a3.93,3.93,0,0,0,3.18-1.86c.59-.74.85-1,1.39-1s.8.26,1.4,1a3.65,3.65,0,0,0,6.36,0c.59-.74.84-1,1.39-1a1.15,1.15,0,0,0,0-2.29,3.91,3.91,0,0,0-3.18,1.86c-.59.74-.85,1-1.39,1s-.8-.26-1.4-1a3.65,3.65,0,0,0-6.36,0c-.59.74-.85,1-1.39,1a1.15,1.15,0,1,0,0,2.29" style="fill:#fbd941"/><path id="path94" d="M71,10.13a3.91,3.91,0,0,0,3.18-1.86c.59-.74.85-1,1.39-1s.8.26,1.4,1a3.65,3.65,0,0,0,6.36,0c.59-.74.85-1,1.39-1a1.14,1.14,0,1,0,0-2.28,3.92,3.92,0,0,0-3.18,1.85c-.59.75-.85,1-1.39,1s-.8-.25-1.4-1a3.66,3.66,0,0,0-6.36,0c-.59.75-.84,1-1.39,1A1.15,1.15,0,0,0,69.86,9,1.14,1.14,0,0,0,71,10.13" style="fill:#b1e2f8"/><path id="path96" d="M120.61,8a3.9,3.9,0,0,0-3.56-.94c-.94.1-1.31.11-1.69-.28s-.38-.75-.28-1.69a3.9,3.9,0,0,0-.94-3.56,3.9,3.9,0,0,0-3.56-.94c-.94.1-1.3.11-1.69-.28a1.16,1.16,0,0,0-1.62,0,1.16,1.16,0,0,0,0,1.62,3.92,3.92,0,0,0,3.57.94c.94-.1,1.3-.11,1.69.27s.38.75.28,1.7a3.87,3.87,0,0,0,.93,3.56,3.87,3.87,0,0,0,3.56.93c1-.1,1.31-.1,1.7.28A1.14,1.14,0,1,0,120.61,8" style="fill:#fbd941"/><path id="path98" d="M49,33.29a5.93,5.93,0,0,0,4.16-1.7,3.68,3.68,0,0,1,2.7-1.16,1.15,1.15,0,1,0,0-2.29,6,6,0,0,0-4.16,1.7,3.72,3.72,0,0,1-5.4,0,6,6,0,0,0-4.16-1.7,1.15,1.15,0,1,0,0,2.29,3.68,3.68,0,0,1,2.7,1.16A5.93,5.93,0,0,0,49,33.29" style="fill:#89c540"/><path id="path102" d="M172.18,41.8a5.93,5.93,0,0,0,4.14,1.75,3.71,3.71,0,0,1,2.73,1.08,1.14,1.14,0,0,0,1.62,0,1.13,1.13,0,0,0,0-1.61h0a5.91,5.91,0,0,0-4.14-1.75,3.71,3.71,0,0,1-3.82-3.82A5.92,5.92,0,0,0,171,33.31a1.16,1.16,0,0,0-1.62,0h0a1.14,1.14,0,0,0,0,1.62,3.68,3.68,0,0,1,1.09,2.73,5.89,5.89,0,0,0,1.74,4.14" style="fill:#b1e2f8"/><path id="path104" d="M12.13,25.19a5.9,5.9,0,0,0-1.75,4.14A3.67,3.67,0,0,1,9.3,32.06a1.14,1.14,0,0,0,0,1.62h0a1.15,1.15,0,0,0,1.61,0h0a5.89,5.89,0,0,0,1.75-4.15,3.69,3.69,0,0,1,3.82-3.81A5.93,5.93,0,0,0,20.62,24,1.14,1.14,0,1,0,19,22.36a3.67,3.67,0,0,1-2.73,1.08,5.9,5.9,0,0,0-4.14,1.75" style="fill:#b1e2f8"/><path id="path108" d="M147.32,25.14c-3.77-1-5.19-3.46-6.43-5.62s-2.19-3.79-5-4.56a1.14,1.14,0,1,1,.59-2.2c3.77,1,5.19,3.46,6.44,5.62s2.18,3.79,5,4.55a1.15,1.15,0,0,1,.81,1.4,1.14,1.14,0,0,1-1.4.81" style="fill:#ef3c38"/><path id="path110" d="M40,55.19c-3.9,0-5.9-2-7.67-3.76s-3.1-3.1-6-3.1a1.15,1.15,0,0,1,0-2.29c3.9,0,5.9,2,7.67,3.77s3.1,3.1,6,3.1a1.14,1.14,0,1,1,0,2.28" style="fill:#ef3c38"/><path id="path116" d="M30.82,18.84c3.38-1.95,4.11-4.69,4.76-7.1S36.71,7.51,39.27,6a1.14,1.14,0,1,0-1.14-2c-3.39,2-4.12,4.69-4.76,7.1s-1.14,4.23-3.7,5.71a1.14,1.14,0,1,0,1.15,2" style="fill:#ef3c38"/></g></g></g></g></g><g id="Group_3013" data-name="Group 3013"><g id="Group_2380" data-name="Group 2380"><g id="Group_2376-2" data-name="Group 2376-2"><path id="path22" d="M70,104.06h52s3.21-8.42,1-15.8-5.48-23-5.48-23H76s-5,15.49-6.77,23S70,104.06,70,104.06Z" style="fill:#6ccde8"/><path id="path24" d="M88.07,73.85V65.22A30.24,30.24,0,0,1,57.87,35H49.24A38.89,38.89,0,0,0,88.07,73.85" style="fill:#6ccde8"/><path id="path26" d="M105.33,73.85V65.22a30.31,30.31,0,0,0,22.85-10.47A29.88,29.88,0,0,0,135.54,35h8.63a38.88,38.88,0,0,1-38.84,38.83" style="fill:#6ccde8"/><path id="path28" d="M94.06,72.34h5.28l2.11-6.9H92l2.11,6.9" style="fill:#ed1e24"/><path id="path30" d="M94.06,72.34h5.28L101.45,96,96.7,99.1,92,96l2.11-23.67" style="fill:#f15d5f"/><path id="path48" d="M59,35a5.4,5.4,0,1,1-5.4-5.4A5.39,5.39,0,0,1,59,35" style="fill:#f7d3c2"/><path id="path50" d="M134.46,35a5.39,5.39,0,0,0,5.39,5.39h0a5.39,5.39,0,0,0,5.4-5.39h0a5.4,5.4,0,0,0-5.4-5.4h0a5.4,5.4,0,0,0-5.39,5.4h0" style="fill:#f7d3c2"/></g><g id="Group_2379" data-name="Group 2379"><g id="Group_2377" data-name="Group 2377"><path id="Path_815" data-name="Path 815" d="M102.07,60.43s3.39,1.84-5.59,5.2c0,0,7,.42,9,5.21C105.64,71,106.68,63,102.07,60.43Z" style="fill:#f5fbfe"/><path id="Path_816" data-name="Path 816" d="M91.46,57.89c-4.61,2.57-4.14,13.07-4,12.89,2.1-4.79,9-5.21,9-5.21C87.5,62.27,91.46,57.89,91.46,57.89Z" style="fill:#f5fbfe"/></g><g id="Group_2378" data-name="Group 2378"><g id="Group_2116" data-name="Group 2116"><g id="Group_2104" data-name="Group 2104"><path id="Path_1476" data-name="Path 1476" d="M95.94,35.28c7.93,0,14.36,6.94,14.36,15.51s-6.43,15.5-14.36,15.5-14.36-6.94-14.36-15.5c0-3.69.62-7.73,2.83-10.68C86.82,36.87,91.42,35.28,95.94,35.28Z" style="fill:#fdcd9b"/></g></g><g id="Group_2117" data-name="Group 2117"><path id="Path_1318" data-name="Path 1318" d="M82.07,47.33s-2.37-10.43,3-14.71,14.64-.48,14.64-.48,7-5,10.6-1.33,0,13.62,0,13.62S104.8,47.15,99.73,40s-15.29.58-15.29.58Z" style="fill:#898989"/><ellipse id="Ellipse_158" data-name="Ellipse 158" cx="99.87" cy="32.39" rx="3.5" ry="4.5" style="fill:#898989"/><ellipse id="Ellipse_159" data-name="Ellipse 159" cx="110.37" cy="41.89" rx="7" ry="5" style="fill:#898989"/></g></g></g></g><path id="Path_3553" data-name="Path 3553" d="M96.64,52.19a1.13,1.13,0,0,1,.11.48,1.2,1.2,0,0,1-2.4,0,1.13,1.13,0,0,1,.11-.48,1.34,1.34,0,0,0-.32.83,1.41,1.41,0,0,0,1.5,1.31A1.39,1.39,0,0,0,97,53,1.27,1.27,0,0,0,96.64,52.19Z" style="fill:#be986c"/></g></g></g></g></svg>