<svg xmlns="http://www.w3.org/2000/svg" viewBox="0 0 62.46 59.89"><title>laporan perjalanan3</title><g id="Layer_2" data-name="Layer 2"><g id="Layer_1-2" data-name="Layer 1"><g id="Group_4667" data-name="Group 4667"><g id="Group_2943" data-name="Group 2943"><g id="Group_2111" data-name="Group 2111"><path id="Path_1322-2" data-name="Path 1322-2" d="M27.13,0C47,0,62.46,15.51,62.46,34S47,59.89,27.13,59.89,0,46.63,0,28.13C0,17.42,1.71,11.55,7.86,6.59A31.21,31.21,0,0,1,27.13,0Z" fill="#4281c3"/><g id="Group_2102" data-name="Group 2102"><path id="path330" d="M17.82,6.41C1.15,23.55,10,50.47,35.28,51.55a28.09,28.09,0,0,0,15.2-3.3c-.22.25-.46.5-.7.74,9.12-9.25,9.4-25.33,1-35.28C39.48.38,24.54,2.87,17.82,6.41" fill="#fff"/><path id="path364" d="M35.28,51.55C10,50.47,1.15,23.55,17.82,6.41h0l-.54.3-.07,0L16.76,7l-.18.12-.32.21-.46.33C7.73,14,3.86,22.17,3.6,30.06A25.4,25.4,0,0,0,3.76,34c.08.64.18,1.28.3,1.91a24.38,24.38,0,0,0,4.76,10.4A24.26,24.26,0,0,0,13,50.43a26.62,26.62,0,0,0,9.46,4.64,32.66,32.66,0,0,0,7.08,1.06c.75,0,1.48,0,2.2,0l.59,0c.59,0,1.16-.06,1.72-.11.14,0,.28,0,.41,0,.66-.07,1.3-.16,1.94-.26l.56-.1c.46-.09.92-.19,1.37-.3l.58-.14c.57-.15,1.12-.32,1.66-.5.19-.06.37-.14.56-.21q.55-.19,1.08-.42l.69-.3,1-.47,1-.55.78-.46c.25-.17.5-.32.74-.49l.57-.41q.74-.52,1.41-1.11l.3-.25c.25-.22.49-.46.73-.69l.36-.36c.24-.24.48-.48.71-.74a28,28,0,0,1-15.2,3.3" fill="#d2d2d1"/></g></g></g><g id="Group_4666" data-name="Group 4666"><g id="Group_4665" data-name="Group 4665"><g id="Group_2344" data-name="Group 2344"><g id="Rectangle_511" data-name="Rectangle 511"><path d="M26,17.89h7a9,9,0,0,1,9,9v13a2,2,0,0,1-2,2H26a2,2,0,0,1-2-2v-20A2,2,0,0,1,26,17.89Z" fill="#fff"/><path d="M26,18.39h7a8.49,8.49,0,0,1,8.5,8.5v13a1.5,1.5,0,0,1-1.5,1.5H26a1.5,1.5,0,0,1-1.5-1.5v-20A1.5,1.5,0,0,1,26,18.39Z" fill="none" stroke="#000"/></g><g id="Rectangle_512" data-name="Rectangle 512"><rect x="24.02" y="17.89" width="18" height="24" rx="2" fill="#f4ee71"/><rect x="24.52" y="18.39" width="17" height="23" rx="1.5" fill="none" stroke="#000"/></g><line id="Line_66" data-name="Line 66" x1="27.52" y1="26.39" x2="38.52" y2="26.39" fill="none" stroke="#000" stroke-linecap="round"/><line id="Line_67" data-name="Line 67" x1="27.52" y1="30.39" x2="38.52" y2="30.39" fill="none" stroke="#000" stroke-linecap="round"/><line id="Line_68" data-name="Line 68" x1="27.52" y1="34.39" x2="38.52" y2="34.39" fill="none" stroke="#000" stroke-linecap="round"/><g id="Group_2334" data-name="Group 2334"><path id="Path_1341" data-name="Path 1341" d="M37,20.85l-2.93,0" fill="none" stroke="#000" stroke-linecap="round" stroke-width="1"/><path id="Path_1342" data-name="Path 1342" d="M39.1,20.81h-.7" fill="none" stroke="#000" stroke-linecap="round" stroke-width="1"/></g></g></g><g id="Group_4706" data-name="Group 4706"><g id="Path_9476" data-name="Path 9476"><path d="M32.31,41.74H21.73l4.49-12.29h.92Z" fill="#f15d5f"/><path d="M26.39,29.7,22.08,41.49h9.85L27,29.7h-.58M26,29.2h1.27L32.68,42H21.37Z" fill="#444545"/></g><g id="Path_9478" data-name="Path 9478"><path d="M32.68,42.87H21.37a.31.31,0,0,1-.32-.31V41.43a.32.32,0,0,1,.32-.32H32.68a.32.32,0,0,1,.32.32v1.13A.32.32,0,0,1,32.68,42.87Z" fill="#f04a4b"/><path d="M21.37,41.36a.07.07,0,0,0-.07.07v1.13s0,.06.07.06H32.68s.07,0,.07-.06V41.43a.07.07,0,0,0-.07-.07H21.37m0-.5H32.68a.58.58,0,0,1,.57.57v1.13a.57.57,0,0,1-.57.56H21.37a.57.57,0,0,1-.57-.56V41.43A.58.58,0,0,1,21.37,40.86Z" fill="#444545"/></g><g id="Path_9477" data-name="Path 9477"><path d="M29.92,36.07H23.79l.63-1.75h4.77Z" fill="#fff"/><path d="M24.59,34.57l-.45,1.25h5.41L29,34.57H24.59m-.35-.5h5.12l.93,2.25H23.43Z" fill="#444545"/></g></g></g></g></g></g></svg>