<svg xmlns="http://www.w3.org/2000/svg" viewBox="0 0 14.66 14.66"><title>icon_information</title><g id="Layer_2" data-name="Layer 2"><g id="Layer_1-2" data-name="Layer 1"><g id="Group_4072" data-name="Group 4072"><circle id="Ellipse_351" data-name="Ellipse 351" cx="7" cy="7.42" r="6" style="fill:#fff"/><path id="information" d="M7.33,0a7.33,7.33,0,1,0,7.33,7.33h0A7.34,7.34,0,0,0,7.33,0Zm.48,11.68c-.35.05-1,.2-1.4.23a.87.87,0,0,1-.75-.39.93.93,0,0,1-.11-.84L6.94,6.87H5.5a1.72,1.72,0,0,1,1.36-1.6A5.06,5.06,0,0,1,8.25,5,1.15,1.15,0,0,1,9,5.43a.93.93,0,0,1,.11.84L7.72,10.08H9.16a1.62,1.62,0,0,1-1.36,1.6Zm.43-7.1a.92.92,0,1,1,.92-.92.92.92,0,0,1-.92.92Z" style="fill:#f68720"/></g></g></g></svg>