<svg xmlns="http://www.w3.org/2000/svg" width="43.198" height="41.423" viewBox="0 0 43.198 41.423">
  <g id="Group_2240" data-name="Group 2240" transform="translate(-64.975 -487.112)">
    <g id="Group_2128" data-name="Group 2128" transform="translate(64.975 487.112)">
      <path id="Path_1322" data-name="Path 1322" d="M24.739,2.112c13.751,0,24.435,10.729,24.435,23.524s-10.684,17.9-24.435,17.9S5.975,34.361,5.975,21.565c0-7.409,1.183-11.466,5.435-14.9A21.6,21.6,0,0,1,24.739,2.112Z" transform="translate(-5.975 -2.112)" fill="#fff"/>
      <g id="Group_2102" data-name="Group 2102" transform="translate(2.473 2.486)">
        <path id="path330" d="M1068.948-526.318c-11.53,11.856-5.385,30.475,12.08,31.219a19.373,19.373,0,0,0,10.514-2.285c-.157.175-.322.344-.488.512,6.311-6.4,6.5-17.516.681-24.4a18.525,18.525,0,0,0-22.787-5.047" transform="translate(-1059.098 528.265)" fill="#008af6"/>
        <path id="path364" d="M1054.905-482.28c-17.465-.743-23.61-19.363-12.08-31.219h0q-.195.1-.376.207l-.046.027q-.162.094-.313.188l-.124.08c-.074.048-.149.1-.219.145-.114.079-.222.157-.322.235-5.576,4.337-8.252,10.022-8.437,15.475a17.788,17.788,0,0,0,.113,2.7q.079.666.209,1.322a17.094,17.094,0,0,0,1.218,3.788,16.733,16.733,0,0,0,2.076,3.4,16.821,16.821,0,0,0,2.9,2.874,18.381,18.381,0,0,0,6.545,3.209,22.51,22.51,0,0,0,4.9.735c.519.022,1.024.022,1.521.013.137,0,.273-.007.409-.012q.6-.022,1.188-.073c.094-.008.191-.013.284-.023.456-.047.9-.109,1.338-.182.131-.022.258-.048.387-.073q.483-.091.949-.2c.135-.033.271-.063.4-.1.39-.1.772-.217,1.144-.342.133-.045.261-.1.391-.144.252-.092.5-.188.745-.29.16-.067.319-.135.475-.206.231-.105.456-.216.678-.33s.467-.247.694-.377c.183-.105.366-.211.542-.322s.343-.221.511-.336c.134-.092.265-.186.4-.281q.505-.369.974-.771c.068-.058.139-.114.205-.173.174-.154.341-.314.507-.475q.126-.122.249-.247c.166-.168.331-.337.488-.512a19.374,19.374,0,0,1-10.514,2.285" transform="translate(-1032.976 515.445)" fill="#007eba"/>
      </g>
    </g>
    <g id="Group_2127" data-name="Group 2127" transform="translate(78.652 497.971)">
      <g id="Rectangle_511" data-name="Rectangle 511" transform="translate(-0.283 -0.206)" fill="#fff" stroke="#000" stroke-width="1">
        <path d="M2,0H7a9,9,0,0,1,9,9V19a2,2,0,0,1-2,2H2a2,2,0,0,1-2-2V2A2,2,0,0,1,2,0Z" stroke="none"/>
        <path d="M2,.5H7A8.5,8.5,0,0,1,15.5,9V19A1.5,1.5,0,0,1,14,20.5H2A1.5,1.5,0,0,1,.5,19V2A1.5,1.5,0,0,1,2,.5Z" fill="none"/>
      </g>
      <g id="Rectangle_512" data-name="Rectangle 512" transform="translate(-0.283 -0.206)" fill="#f8f86b" stroke="#000" stroke-width="1">
        <path d="M2,0H7a9,9,0,0,1,9,9V19a2,2,0,0,1-2,2H2a2,2,0,0,1-2-2V2A2,2,0,0,1,2,0Z" stroke="none"/>
        <path d="M2,.5H7A8.5,8.5,0,0,1,15.5,9V19A1.5,1.5,0,0,1,14,20.5H2A1.5,1.5,0,0,1,.5,19V2A1.5,1.5,0,0,1,2,.5Z" fill="none"/>
      </g>
      <path id="Path_1350" data-name="Path 1350" d="M1147.217-1914.238V-1908h5.942" transform="translate(-1138.36 1915.008)" fill="none" stroke="#000" stroke-width="1"/>
      <line id="Line_66" data-name="Line 66" x2="9.581" transform="translate(3.007 10.123)" fill="none" stroke="#000" stroke-linecap="round" stroke-width="1"/>
      <line id="Line_67" data-name="Line 67" x2="9.581" transform="translate(3.007 13.607)" fill="none" stroke="#000" stroke-linecap="round" stroke-width="1"/>
      <line id="Line_68" data-name="Line 68" x2="9.581" transform="translate(3.007 17.091)" fill="none" stroke="#000" stroke-linecap="round" stroke-width="1"/>
    </g>
  </g>
</svg>
