<svg xmlns="http://www.w3.org/2000/svg" width="163" height="105.856" viewBox="0 0 163 105.856">
  <g id="Group_4225" data-name="Group 4225" transform="translate(-126 -505.144)">
    <g id="Group_1954" data-name="Group 1954" transform="translate(-4308 -444)">
      <path id="Path_1298" data-name="Path 1298" d="M69.636,2.144C114.647,2.144,163,24.177,163,54c0,17.3-21.911,13.063-41.258,23.077C108.17,84.1,100.4,108,81.5,108,36.489,108,0,83.823,0,54S24.625,2.144,69.636,2.144Z" transform="translate(4434 947)" fill="#e8f5ff"/>
      <g id="Group_1952" data-name="Group 1952" transform="translate(4308 463)">
        <g id="Ellipse_132" data-name="Ellipse 132" transform="translate(246 554)" fill="none" stroke="#008af6" stroke-width="2">
          <circle cx="6.5" cy="6.5" r="6.5" stroke="none"/>
          <circle cx="6.5" cy="6.5" r="5.5" fill="none"/>
        </g>
        <g id="Polygon_13" data-name="Polygon 13" transform="translate(267 502)" fill="none">
          <path d="M7.5,0,15,13H0Z" stroke="none"/>
          <path d="M 7.500000476837158 4.002214431762695 L 3.46281623840332 11 L 11.53718376159668 11 L 7.500000476837158 4.002214431762695 M 7.500000476837158 0 L 15 13 L 9.5367431640625e-07 13 L 7.500000476837158 0 Z" stroke="none" fill="#ff8710"/>
        </g>
        <g id="Rectangle_487" data-name="Rectangle 487" transform="translate(139 496)" fill="none" stroke="#00bf5d" stroke-width="2">
          <rect width="13" height="13" stroke="none"/>
          <rect x="1" y="1" width="11" height="11" fill="none"/>
        </g>
        <g id="Group_1899" data-name="Group 1899" transform="matrix(0.839, 0.545, -0.545, 0.839, 346.056, 46.137)">
          <path id="Path_1288" data-name="Path 1288" d="M0,0V9.965" transform="translate(138.282 543.238) rotate(90)" fill="none" stroke="#f71111" stroke-linecap="round" stroke-width="2"/>
          <path id="Path_1289" data-name="Path 1289" d="M3441.189,2265.256v9.965" transform="translate(-3307.89 -1727)" fill="none" stroke="#f71111" stroke-linecap="round" stroke-width="2"/>
        </g>
      </g>
    </g>
    <g id="Group_2227" data-name="Group 2227" transform="translate(-100.459 33.5)">
      <g id="Group_2225" data-name="Group 2225" transform="translate(273 475)">
        <g id="Group_2194" data-name="Group 2194" transform="translate(0 32.162)">
          <g id="Group_2195" data-name="Group 2195" transform="translate(0 0)">
            <g id="Group_2190" data-name="Group 2190" transform="translate(0 0)">
              <g id="Group_2177" data-name="Group 2177" transform="translate(0)">
                <path id="Subtraction_33" data-name="Subtraction 33" d="M69,37H0A39.074,39.074,0,0,1,2.711,22.6,37.118,37.118,0,0,1,10.1,10.838,34.376,34.376,0,0,1,21.071,2.906a32.479,32.479,0,0,1,26.859,0A34.378,34.378,0,0,1,58.9,10.838,37.138,37.138,0,0,1,66.289,22.6,39.1,39.1,0,0,1,69,37Z" transform="translate(0.459 0.338)" fill="#39e8ff"/>
              </g>
              <path id="Path_1460" data-name="Path 1460" d="M269.42,189.205s-7.762,9.958-5.751,19.477" transform="translate(-248.783 -172.372)" fill="none" stroke="#00cde8" stroke-linecap="round" stroke-width="1"/>
              <path id="Path_1461" data-name="Path 1461" d="M263.337,189.205s7.762,9.958,5.751,19.477" transform="translate(-212.381 -172.372)" fill="none" stroke="#00cde8" stroke-linecap="round" stroke-width="1"/>
            </g>
          </g>
        </g>
        <g id="Group_1505" data-name="Group 1505" transform="translate(26.459 29.502)">
          <path id="Path_815" data-name="Path 815" d="M259.592,321.964s3.39,1.839-5.592,5.192c0,0,7.006.419,9.042,5.209C263.161,332.485,264.2,324.539,259.592,321.964Z" transform="translate(-244.887 -319.419)" fill="#f5fcff"/>
          <path id="Path_816" data-name="Path 816" d="M192.821,311.708c-4.611,2.575-4.148,13.066-4.028,12.886,2.1-4.79,9.042-5.209,9.042-5.209C188.854,316.091,192.821,311.708,192.821,311.708Z" transform="translate(-188.722 -311.708)" fill="#f5fcff"/>
        </g>
        <g id="Group_2224" data-name="Group 2224" transform="translate(20.641 0)">
          <g id="Group_2116" data-name="Group 2116" transform="translate(0.034 6.892)">
            <g id="Group_2104" data-name="Group 2104" transform="translate(0)">
              <path id="Path_1476" data-name="Path 1476" d="M14.358,0c7.93,0,14.358,6.943,14.358,15.507S22.288,31.014,14.358,31.014,0,24.071,0,15.507C0,11.824.619,7.78,2.823,4.834,5.236,1.594,9.838,0,14.358,0Z" fill="#fdcc9b"/>
            </g>
          </g>
          <g id="Group_2117" data-name="Group 2117" transform="translate(0 0)">
            <path id="Path_1318" data-name="Path 1318" d="M359.029-642.6s-2.365-10.438,3.021-14.716,14.641-.48,14.641-.48,6.949-4.964,10.605-1.327,0,13.621,0,13.621-5.53,2.715-10.605-4.476-15.282.588-15.282.588Z" transform="translate(-358.512 661.546)" fill="#898989"/>
            <ellipse id="Ellipse_158" data-name="Ellipse 158" cx="3.5" cy="4.5" rx="3.5" ry="4.5" transform="translate(14.818 -0.5)" fill="#898989"/>
            <ellipse id="Ellipse_159" data-name="Ellipse 159" cx="7" cy="5" rx="7" ry="5" transform="translate(21.818 8.5)" fill="#898989"/>
          </g>
        </g>
      </g>
      <g id="Group_2226" data-name="Group 2226" transform="translate(274.912 514.56)">
        <g id="steering-wheel_1_" data-name="steering-wheel (1)" transform="translate(10.129)">
          <g id="Group_2174" data-name="Group 2174" transform="translate(0 0)">
            <g id="Group_2173" data-name="Group 2173">
              <path id="Path_1442" data-name="Path 1442" d="M30.22,7.5A22.72,22.72,0,1,0,52.94,30.22,22.72,22.72,0,0,0,30.22,7.5Zm0,5.13A17.592,17.592,0,0,1,47.673,28.021H12.767A17.592,17.592,0,0,1,30.22,12.63ZM13.083,34.2c3.512-1.138,7.234-1.972,10.541-.318C26.339,35.242,27.6,44.7,27.93,47.661A17.605,17.605,0,0,1,13.083,34.2ZM32.51,47.661c.331-2.957,1.591-12.419,4.306-13.777,3.307-1.653,7.028-.82,10.541.318A17.605,17.605,0,0,1,32.51,47.661Z" transform="translate(-7.5 -7.5)" fill="#7c7b74"/>
              <g id="Group_2172" data-name="Group 2172" transform="translate(0 7.681)">
                <path id="Path_1443" data-name="Path 1443" d="M32.419,126.167A22.722,22.722,0,0,1,13.192,91.34a22.72,22.72,0,1,0,36.255,27.147A22.663,22.663,0,0,1,32.419,126.167Z" transform="translate(-7.5 -91.34)" fill="#5c5a51"/>
              </g>
              <path id="Path_1453" data-name="Path 1453" d="M2.932,0A2.932,2.932,0,1,1,0,2.932,2.932,2.932,0,0,1,2.932,0Z" transform="translate(19.788 22.72)" fill="#ffac10"/>
              <path id="Path_1444" data-name="Path 1444" d="M227.9,262.473a2.931,2.931,0,0,1-2.672-4.138,2.932,2.932,0,1,0,3.878,3.878A2.92,2.92,0,0,1,227.9,262.473Z" transform="translate(-203.712 -235.355)" fill="#ff8710"/>
            </g>
          </g>
        </g>
        <ellipse id="Ellipse_177" data-name="Ellipse 177" cx="7.5" cy="6.5" rx="7.5" ry="6.5" transform="translate(49.547 9.94)" fill="#fdcc9b"/>
        <path id="Path_1452" data-name="Path 1452" d="M7.7,0c4.254,0,7.7,3.017,7.7,6.739a6.641,6.641,0,0,1-2.447,4.927A7.872,7.872,0,0,1,7.7,13.479c-4.254,0-7.7-3.017-7.7-6.739S3.448,0,7.7,0Z" transform="translate(0 9.6)" fill="#fdcc9b"/>
      </g>
    </g>
  </g>
</svg>
