<svg id="Layer_1" data-name="Layer 1" xmlns="http://www.w3.org/2000/svg" viewBox="0 0 43.67 41.88"><title>icon_car</title><g id="Group_2242" data-name="Group 2242"><g id="Group_2109" data-name="Group 2109"><g id="Group_2241" data-name="Group 2241"><path id="Path_1322" data-name="Path 1322" d="M19,0c13.9,0,24.7,10.85,24.7,23.78S32.87,41.87,19,41.87,0,32.6,0,19.67C0,12.18,1.2,8.07,5.49,4.6A21.94,21.94,0,0,1,19,0Z" transform="translate(0 0)" style="fill:#fff"/></g><g id="Group_2102" data-name="Group 2102"><path id="path330" d="M12.46,4.48C.8,16.46,7,35.29,24.67,36A19.58,19.58,0,0,0,35.3,33.73l-.5.51c6.38-6.46,6.58-17.7.69-24.66a18.72,18.72,0,0,0-23-5.1" transform="translate(0 0)" style="fill:#008af6"/><path id="path364" d="M24.67,36C7,35.29.8,16.47,12.46,4.48h0l-.38.21-.05,0-.32.19L11.59,5l-.22.14L11,5.37C5.41,9.75,2.7,15.5,2.51,21a17.71,17.71,0,0,0,.12,2.73c.05.45.12.9.21,1.34A17,17,0,0,0,9.1,35.26a18.71,18.71,0,0,0,6.61,3.24,22.44,22.44,0,0,0,4.95.74c.53,0,1,0,1.54,0h.42c.4,0,.8,0,1.2-.08l.28,0c.46,0,.91-.11,1.35-.19l.4-.07,1-.2.4-.1c.4-.1.78-.22,1.16-.35l.4-.14.75-.3c.16-.07.33-.13.48-.21s.46-.22.69-.33l.7-.38c.18-.11.37-.21.55-.33l.51-.34.4-.28q.51-.37,1-.78L34,35c.18-.15.35-.31.52-.48l.25-.25.49-.51A19.56,19.56,0,0,1,24.67,36" transform="translate(0 0)" style="fill:#007eba"/></g></g><g id="delivery-truck"><path id="Path_26" data-name="Path 26" d="M8.74,24.48V12.74a1.18,1.18,0,0,1,1.18-1.18H21.65a1.18,1.18,0,0,1,1.18,1.18V24.48a.39.39,0,0,1-.39.39H9.13A.4.4,0,0,1,8.74,24.48Zm9.47,4a2.45,2.45,0,1,1-2.45-2.45h0A2.44,2.44,0,0,1,18.21,28.5ZM17,28.5a1.23,1.23,0,1,0-1.23,1.22h0A1.23,1.23,0,0,0,17,28.5Zm-3.34-2.45H8.17a.39.39,0,0,0-.4.39v1.19a.4.4,0,0,0,.4.4h4.4A3.21,3.21,0,0,1,13.65,26.05ZM31,28.5a2.45,2.45,0,1,1-2.45-2.45h0A2.45,2.45,0,0,1,31,28.5Zm-1.23,0a1.23,1.23,0,1,0-1.23,1.22A1.23,1.23,0,0,0,29.8,28.5Zm5.56-2.06v1.19a.4.4,0,0,1-.4.4H31.77a3.23,3.23,0,0,0-6.4,0H19a3.22,3.22,0,0,0-1.09-2H24V14.79a.78.78,0,0,1,.78-.79h3.72a3.13,3.13,0,0,1,2.61,1.39l2.4,3.55A3.15,3.15,0,0,1,34,20.7v5.35h1a.38.38,0,0,1,.38.39Zm-4-7.41-1.91-2.72a.4.4,0,0,0-.32-.17h-3a.4.4,0,0,0-.4.39v2.72a.4.4,0,0,0,.4.4H31a.39.39,0,0,0,.39-.39A.33.33,0,0,0,31.36,19Z" transform="translate(0 0)" style="fill:#f8f86b;stroke:#000"/></g></g></svg>