<svg xmlns="http://www.w3.org/2000/svg" viewBox="0 0 19.24 21.47"><title>icon_edit</title><g id="Layer_2" data-name="Layer 2"><g id="Layer_1-2" data-name="Layer 1"><g id="writing"><g id="Group_831" data-name="Group 831"><g id="Group_830" data-name="Group 830"><path id="Path_444" data-name="Path 444" d="M13.66,9.22a.84.84,0,0,0-.84-.84H4.19a.84.84,0,0,0,0,1.68h8.64A.84.84,0,0,0,13.66,9.22Z" style="fill:#4281c3"/><path id="Path_445" data-name="Path 445" d="M4.19,11.74a.84.84,0,0,0,0,1.68H9.44a.84.84,0,0,0,0-1.68Z" style="fill:#4281c3"/><path id="Path_446" data-name="Path 446" d="M6.16,19.79H3.36a1.68,1.68,0,0,1-1.68-1.68V3.35A1.68,1.68,0,0,1,3.36,1.68h10.3a1.68,1.68,0,0,1,1.68,1.67V8.51a.84.84,0,0,0,1.68,0V3.35A3.37,3.37,0,0,0,13.66,0H3.35A3.35,3.35,0,0,0,0,3.35V18.11a3.35,3.35,0,0,0,3.35,3.35h2.8a.84.84,0,1,0,0-1.67Z" style="fill:#4281c3"/><path id="Path_447" data-name="Path 447" d="M18.5,12.14a2.52,2.52,0,0,0-3.56,0l-4.6,4.59a1,1,0,0,0-.21.35l-1,3.3a.85.85,0,0,0,.56,1.05.76.76,0,0,0,.47,0l3.38-.93a.78.78,0,0,0,.37-.22L18.5,15.7A2.52,2.52,0,0,0,18.5,12.14Zm-5.62,6.8-1.7.47.5-1.64,3.1-3.1L16,15.86Zm4.44-4.43-.17.16L16,13.49l.16-.16a.83.83,0,0,1,1.18,0,.84.84,0,0,1,0,1.18Z" style="fill:#4281c3"/><path id="Path_448" data-name="Path 448" d="M12.82,5H4.19a.84.84,0,0,0,0,1.68h8.64a.84.84,0,0,0,0-1.68Z" style="fill:#4281c3"/></g></g></g></g></g></svg>