<svg xmlns="http://www.w3.org/2000/svg" viewBox="0 0 15.2 10.55"><title>icon_delivery</title><g id="Layer_2" data-name="Layer 2"><g id="Layer_1-2" data-name="Layer 1"><g id="Group_1812" data-name="Group 1812"><g id="Group_1811" data-name="Group 1811"><path id="Path_1199" data-name="Path 1199" d="M11.48,6.71a1.92,1.92,0,1,0,1.91,1.92A1.92,1.92,0,0,0,11.48,6.71Zm0,2.88a1,1,0,1,1,.95-1,1,1,0,0,1-.95,1Z" style="fill:#4281c3"/></g></g><g id="Group_1814" data-name="Group 1814"><g id="Group_1813" data-name="Group 1813"><path id="Path_1200" data-name="Path 1200" d="M4.92,6.71A1.92,1.92,0,1,0,6.84,8.63,1.92,1.92,0,0,0,4.92,6.71Zm0,2.88a1,1,0,1,1,1-1,1,1,0,0,1-1,1Z" style="fill:#4281c3"/></g></g><g id="Group_1816" data-name="Group 1816"><g id="Group_1815" data-name="Group 1815"><path id="Path_1201" data-name="Path 1201" d="M12.77,1.22A.48.48,0,0,0,12.34,1H9.81v1H12l1.31,2.6.86-.43Z" style="fill:#4281c3"/></g></g><g id="Group_1818" data-name="Group 1818"><g id="Group_1817" data-name="Group 1817"><rect id="Rectangle_457" data-name="Rectangle 457" x="6.41" y="8.17" width="3.63" height="0.96" style="fill:#4281c3"/></g></g><g id="Group_1820" data-name="Group 1820"><g id="Group_1819" data-name="Group 1819"><path id="Path_1202" data-name="Path 1202" d="M3.48,8.17H1.82a.48.48,0,0,0-.05,1H3.48a.48.48,0,0,0,0-1Z" style="fill:#4281c3"/></g></g><g id="Group_1822" data-name="Group 1822"><g id="Group_1821" data-name="Group 1821"><path id="Path_1203" data-name="Path 1203" d="M15.1,5.24,14.16,4a.49.49,0,0,0-.38-.18H10.29V.48A.47.47,0,0,0,9.81,0h-8a.49.49,0,0,0-.46.5A.48.48,0,0,0,1.81,1H9.33V4.32a.49.49,0,0,0,.48.48h3.73l.7.9V8.17H12.91a.47.47,0,0,0-.45.5.48.48,0,0,0,.45.46h1.81a.47.47,0,0,0,.48-.48h0V5.53A.45.45,0,0,0,15.1,5.24Z" style="fill:#4281c3"/></g></g><g id="Group_1824" data-name="Group 1824"><g id="Group_1823" data-name="Group 1823"><path id="Path_1204" data-name="Path 1204" d="M3.45,5.74H1.24a.49.49,0,0,0-.5.46.47.47,0,0,0,.46.5H3.45a.48.48,0,0,0,.46-.5.49.49,0,0,0-.46-.46Z" style="fill:#4281c3"/></g></g><g id="Group_1826" data-name="Group 1826"><g id="Group_1825" data-name="Group 1825"><path id="Path_1205" data-name="Path 1205" d="M4.55,3.86H.46a.48.48,0,0,0,0,.95H4.55a.48.48,0,0,0,0-.95Z" style="fill:#4281c3"/></g></g><g id="Group_1828" data-name="Group 1828"><g id="Group_1827" data-name="Group 1827"><path id="Path_1206" data-name="Path 1206" d="M5.34,2H1.24a.48.48,0,0,0-.5.46.49.49,0,0,0,.46.5H5.34a.49.49,0,0,0,.5-.46A.48.48,0,0,0,5.38,2Z" style="fill:#4281c3"/></g></g></g></g></svg>