<svg xmlns="http://www.w3.org/2000/svg" xmlns:xlink="http://www.w3.org/1999/xlink" viewBox="0 0 163 110.01"><defs><linearGradient id="linear-gradient" x1="-593.63" y1="-1334.58" x2="-593.63" y2="-1335.58" gradientTransform="matrix(5.06, 0, 0, -2.85, 3077.35, -3744.44)" gradientUnits="userSpaceOnUse"><stop offset="0" stop-color="#59595b"/><stop offset="0.12" stop-color="#575759"/><stop offset="1" stop-color="#4a4b4d"/></linearGradient></defs><title>icon_cs</title><g id="Layer_2" data-name="Layer 2"><g id="Layer_1-2" data-name="Layer 1"><g id="Group_3010" data-name="Group 3010"><g id="Group_2956" data-name="Group 2956"><g id="Group_2374" data-name="Group 2374"><g id="Group_2228" data-name="Group 2228"><g id="Group_1954" data-name="Group 1954"><path id="Path_1298" data-name="Path 1298" d="M69.64,1.15c45,0,93.36,22,93.36,51.85,0,17.3-21.91,13.06-41.26,23.08C108.17,83.1,100.4,107,81.5,107,36.49,107,0,82.82,0,53S24.62,1.15,69.64,1.15Z" style="fill:#e9f5fc"/></g></g></g><g id="Group_2955" data-name="Group 2955"><g id="Ellipse_132" data-name="Ellipse 132"><circle cx="126.5" cy="75.5" r="6.5" style="fill:none"/><circle cx="126.5" cy="75.5" r="5.5" style="fill:none;stroke:#4281c3;stroke-width:2px"/></g><g id="Polygon_13" data-name="Polygon 13"><path d="M148.5,17,156,30H141Z" style="fill:none"/><path d="M148.5,21l-4,7h8.08l-4-7m0-4L156,30H141Z" style="fill:#f68720"/></g><g id="Rectangle_487" data-name="Rectangle 487"><rect x="13" y="11" width="13" height="13" style="fill:none"/><rect x="14" y="12" width="11" height="11" style="fill:none;stroke:#2fb55d;stroke-width:2px"/></g><g id="Group_1899" data-name="Group 1899"><path id="Path_1288" data-name="Path 1288" d="M40,92.28l-8.36-5.43" style="fill:none;stroke:#ed1e24;stroke-linecap:round;stroke-miterlimit:4.0018915443327465;stroke-width:2.0009457721663733px"/><path id="Path_1289" data-name="Path 1289" d="M38.54,85.38l-5.43,8.36" style="fill:none;stroke:#ed1e24;stroke-linecap:round;stroke-miterlimit:4.0018915443327465;stroke-width:2.0009457721663733px"/></g></g></g><g id="Group_3009" data-name="Group 3009"><g id="Group_3015" data-name="Group 3015"><g id="Group_3007" data-name="Group 3007"><g id="Group_3014" data-name="Group 3014"><g id="Group_3004" data-name="Group 3004"><g id="Group_3002" data-name="Group 3002"><path id="Path_3538" data-name="Path 3538" d="M81.17,110c-2.72,0-16.44-.19-19.39-3.68h0l-.18-.23,0,0c-.07-.1-.13-.22-.2-.33l0,0,0,0a2,2,0,0,1-.1-.26l0-.1a2.68,2.68,0,0,1-.07-.27.53.53,0,0,0,0-.12c0-.12,0-.24,0-.35a62.46,62.46,0,0,1,.33-9.67,131.12,131.12,0,0,1-17.12-4.64l-2.76-1,2-2.16a43.28,43.28,0,0,0,6-9c3.51-7.09,4.5-13.82,2.9-20a48.23,48.23,0,0,1-1.4-10.49,11.05,11.05,0,0,1-3.44-7A11.2,11.2,0,0,1,52,30.45c0-.21,0-.46,0-.73a42.6,42.6,0,0,1,.36-4.51,25.78,25.78,0,0,1,4.16-11.55,20.29,20.29,0,0,1,7.67-9.53C68.35,1.4,73.72,0,80.2,0c.29,0,.58,0,.85,0s.51,0,1,0C86,0,99.28.93,105,12.81c4.7,5.71,5.19,14.5,5.2,17.64a11.18,11.18,0,0,1,2.41,15.63,10.74,10.74,0,0,1-1.53,1.7,48.74,48.74,0,0,1-1.4,10.28c-1.6,6.19-.62,12.9,2.9,20a44.18,44.18,0,0,0,5.94,9l2,2.16-2.75,1a130.12,130.12,0,0,1-16.92,4.6,63.22,63.22,0,0,1,.34,9.23,3.27,3.27,0,0,1,0,.44c0,2.73-3.69,3.81-6.9,4.44A71.38,71.38,0,0,1,81.17,110Z" style="fill:none"/></g><g id="Group_3003" data-name="Group 3003"><path id="Path_3540" data-name="Path 3540" d="M98.93,75.93c.59-.14-.6-6.27,0-6.42s2.68,5.15,3.24,5.08a38.35,38.35,0,0,0,10.11-2.47s-8.6,1.55-4.45-14.55-2.47-36.72-2.47-36.72H56.73s-6.64,20.62-2.48,36.72-7.12,15.1-7.12,15.1,4.5,1.17,9.3,2.48c.72.2,1.49-4.42,2.31-4.21.6.15-.64,4.76,0,5C65.21,78.16,92.41,77.42,98.93,75.93Z" style="fill:#646565"/><path id="Path_3541" data-name="Path 3541" d="M99.26,97.32c.91-27.2-13.33-29.9-13.33-29.9H76.36s-14.54,3.29-13.53,30.7c0,2,18.31,2.47,18.31,2.47s18.12-.49,18.12-2.47C99.26,98.05,99.28,97.39,99.26,97.32Z" style="fill:#4281c3"/><path id="Path_3542" data-name="Path 3542" d="M58.79,97.85s5.08.93,6.55,1.44c1-27.68,13.16-31.87,13.16-31.87H76.36L66.23,73.68Z" style="fill:#58bdeb"/><path id="Path_3543" data-name="Path 3543" d="M103.56,98.55a42.18,42.18,0,0,0-6.62.74C96,71.61,83.78,67.42,83.78,67.42h2.15l10.27,6Z" style="fill:#58bdeb"/><path id="Path_3546" data-name="Path 3546" d="M85.74,65.69a4.6,4.6,0,0,1-9.2,0c-5.76,5.1.66,9.19,3.44,10.61a2.54,2.54,0,0,0,2.31,0C85.08,74.88,91.51,70.79,85.74,65.69Z" style="fill:#fff"/><g id="Group_2983" data-name="Group 2983"><g id="Group_2981" data-name="Group 2981"><path id="Path_3547" data-name="Path 3547" d="M76.36,63.35C66.34,70.26,75.2,77,75.2,77l.08-3.61L81,77.2h0l.11,0v-.64C77,72.07,76.36,63.35,76.36,63.35Z" style="fill:#ffef99"/></g><g id="Group_2982" data-name="Group 2982"><path id="Path_3549" data-name="Path 3549" d="M85.93,63.35C96,70.26,87.09,77,87.09,77L87,73.36,81.26,77.2h0l-.12,0v-.64C85.34,72.07,85.93,63.35,85.93,63.35Z" style="fill:#ffef99"/></g></g><g id="Group_3008" data-name="Group 3008"><path id="Path_3545" data-name="Path 3545" d="M99.1,14H63.19s-14.7,29.62,2.47,46a22.33,22.33,0,0,0,31,0C113.8,43.58,99.1,14,99.1,14Z" style="fill:#f2dbc2"/><path id="Path_3553" data-name="Path 3553" d="M82.83,48.79a1.7,1.7,0,0,1,.17.73,1.86,1.86,0,0,1-3.71,0,1.7,1.7,0,0,1,.17-.73A2,2,0,0,0,79,50.07a2.17,2.17,0,0,0,4.34,0A2,2,0,0,0,82.83,48.79Z" style="fill:#be986c"/><g id="Group_2990" data-name="Group 2990"><path id="Path_3555" data-name="Path 3555" d="M57,48s-.59,10.16,17.25,10" style="fill:none;stroke:#707071;stroke-miterlimit:10"/><path id="Path_3556" data-name="Path 3556" d="M76.42,59.33h-2.2a1.44,1.44,0,0,1-1.43-1.43h0a1.43,1.43,0,0,1,1.43-1.42h2.2a1.43,1.43,0,0,1,1.43,1.42h0A1.44,1.44,0,0,1,76.42,59.33Z" style="fill:url(#linear-gradient)"/></g><path id="Path_3557" data-name="Path 3557" d="M105.22,31.83C109.44.37,81.14,2.36,81.14,2.36c-26.85-.53-25.35,22.77-24.23,30-1.81,7.92,2.44,18,2.44,18a43.93,43.93,0,0,1,.57-16c5.67-.89,12.6-6.3,12.6-6.3-2.34,2.89-7.37,5.42-7.37,5.42,8.4,1,10.62,0,12.71-.75,4.78-2,7-5,7.82-5.58.6-.43-2,4.48-1.36,4.08,2.09-1.4,5-2.82,6.83-4.77A17.39,17.39,0,0,0,94.6,21c-.67,4.76,3.12,8.7,6.26,11.1.91,2.85,3.2,11.08,2.08,18.37C102.94,50.45,107.4,39.84,105.22,31.83Z" style="fill:#646565"/><g id="Group_2995" data-name="Group 2995"><g id="Group_2992" data-name="Group 2992"><path id="Path_3558" data-name="Path 3558" d="M108.26,31.89s.56-11.6-5.14-17.93a29.59,29.59,0,0,1,2.21,17.93Z" style="fill:#037eba"/><g id="Group_2991" data-name="Group 2991"><path id="Path_3559" data-name="Path 3559" d="M112.81,40.74a9.21,9.21,0,0,0-5.2-9.19,2.3,2.3,0,0,0-3,1.12,2.21,2.21,0,0,0-.2.74l-1.25,12.91a2.29,2.29,0,0,0,2.06,2.5,2.21,2.21,0,0,0,.77,0A9.17,9.17,0,0,0,112.81,40.74Z" style="fill:#299cd7"/><path id="Path_3560" data-name="Path 3560" d="M107.92,47.23a8.26,8.26,0,0,0-.14-14.84,2,2,0,0,0-1.86.07s9.23,6.27,2,14.76Z" style="fill:#6d6e71;opacity:0.30000001192092896;isolation:isolate"/></g></g><g id="Group_2994" data-name="Group 2994"><path id="Path_3561" data-name="Path 3561" d="M54,31.89S53.47,20.29,59.16,14A29.74,29.74,0,0,0,57,31.89Z" style="fill:#037eba"/><g id="Group_2993" data-name="Group 2993"><path id="Path_3562" data-name="Path 3562" d="M49.48,40.74a9.19,9.19,0,0,1,5.2-9.19,2.3,2.3,0,0,1,3,1.12,2.47,2.47,0,0,1,.2.74l1.24,12.91a2.28,2.28,0,0,1-2,2.5,2.21,2.21,0,0,1-.77,0A9.17,9.17,0,0,1,49.48,40.74Z" style="fill:#299cd7"/><path id="Path_3563" data-name="Path 3563" d="M54.37,47.23a8.26,8.26,0,0,1,.14-14.84,2,2,0,0,1,1.86.07s-9.23,6.27-2,14.76Z" style="fill:#6d6e71;opacity:0.30000001192092896;isolation:isolate"/></g></g></g></g></g></g><g id="Group_3006" data-name="Group 3006"><g id="Group_3005" data-name="Group 3005"><g id="Ellipse_251" data-name="Ellipse 251"><ellipse cx="70" cy="47.5" rx="8" ry="8.5" style="fill:none"/><ellipse cx="70" cy="47.5" rx="7.5" ry="8" style="fill:none;stroke:#707071"/></g><g id="Ellipse_252" data-name="Ellipse 252"><circle cx="92.5" cy="47.5" r="8.5" style="fill:none"/><circle cx="92.5" cy="47.5" r="8" style="fill:none;stroke:#707071"/></g><path id="Path_3564" data-name="Path 3564" d="M77.77,47.42h6.52" style="fill:none;stroke:#707071"/></g><path id="Path_3565" data-name="Path 3565" d="M74.5,38.06S69.47,34,64,37.33" style="fill:none;stroke:#707071;stroke-linecap:round;stroke-miterlimit:4.001807694404397"/><path id="Path_3566" data-name="Path 3566" d="M97.62,37.24S92,34,87.15,38.15" style="fill:none;stroke:#707071;stroke-linecap:round"/></g></g></g><path id="Path_3567" data-name="Path 3567" d="M76.71,65.75s-.13,3.62,4.51,4.57a5.22,5.22,0,0,0,4.47-4.62,21.69,21.69,0,0,1-5.08.45A22.14,22.14,0,0,1,76.71,65.75Z" style="fill:#e6cdb0"/></g></g></g></g></g></svg>