<svg xmlns="http://www.w3.org/2000/svg" viewBox="0 0 391.38 120.19"><title>penerimaan3</title><g id="Layer_2" data-name="Layer 2"><g id="Layer_1-2" data-name="Layer 1"><g id="Group_6984" data-name="Group 6984"><g id="Group_6981" data-name="Group 6981"><g id="Group_6966" data-name="Group 6966"><g id="Group_6953" data-name="Group 6953"><g id="Group_5579" data-name="Group 5579"><path id="Subtraction_49-2" data-name="Subtraction 49-2" d="M385.2,120.15H6.2a6,6,0,0,1-6-6V6.15a6,6,0,0,1,6-6h379a6,6,0,0,1,6,6v108A6,6,0,0,1,385.2,120.15Z" fill="#74b9b6"/></g><g id="Group_6443" data-name="Group 6443"><g id="Group_6441" data-name="Group 6441"><path id="Path_13390" data-name="Path 13390" d="M1,78.63s10.25-37,31.12-15.43S53.94,89.81,69,80.46s19.62-16.25,47.36-4.82,12.15-26.91,43-47.42c9.27-6.17,36.79,1.23,48.4-4.12C234,12,239.91.66,239.91.66" fill="none" stroke="#f4ee71" stroke-width="2"/><g id="Group_6426" data-name="Group 6426"><path id="Path_13391" data-name="Path 13391" d="M141.61,120.09s5-20.24,37.64-31.86,57.9.82,84.06-15.34,10.59-36.18,20.62-49.33S304.19,20,304.19,20l.19,94.68a9.23,9.23,0,0,1-1.58,3.26,9.55,9.55,0,0,1-3.79,2.18Z" fill="#63aaa7"/><g id="Group_6418" data-name="Group 6418"><circle id="Ellipse_1613" data-name="Ellipse 1613" cx="148.2" cy="118.15" r="2" fill="#80c9c6"/><circle id="Ellipse_1614" data-name="Ellipse 1614" cx="153.2" cy="110.15" r="2" fill="#80c9c6"/><circle id="Ellipse_1615" data-name="Ellipse 1615" cx="160.2" cy="104.15" r="2" fill="#80c9c6"/><circle id="Ellipse_1616" data-name="Ellipse 1616" cx="168.2" cy="98.15" r="2" fill="#80c9c6"/><circle id="Ellipse_1617" data-name="Ellipse 1617" cx="177.2" cy="93.15" r="2" fill="#80c9c6"/><circle id="Ellipse_1618" data-name="Ellipse 1618" cx="187.2" cy="90.15" r="2" fill="#80c9c6"/><circle id="Ellipse_1619" data-name="Ellipse 1619" cx="198.2" cy="87.15" r="2" fill="#80c9c6"/><circle id="Ellipse_1620" data-name="Ellipse 1620" cx="208.2" cy="86.15" r="2" fill="#80c9c6"/><circle id="Ellipse_1621" data-name="Ellipse 1621" cx="219.2" cy="85.15" r="2" fill="#80c9c6"/><circle id="Ellipse_1622" data-name="Ellipse 1622" cx="229.2" cy="85.15" r="2" fill="#80c9c6"/><circle id="Ellipse_1623" data-name="Ellipse 1623" cx="240.2" cy="84.15" r="2" fill="#80c9c6"/><circle id="Ellipse_1624" data-name="Ellipse 1624" cx="250.2" cy="82.15" r="2" fill="#80c9c6"/><circle id="Ellipse_1625" data-name="Ellipse 1625" cx="260.2" cy="78.15" r="2" fill="#80c9c6"/><circle id="Ellipse_1626" data-name="Ellipse 1626" cx="269.2" cy="74.15" r="2" fill="#80c9c6"/><circle id="Ellipse_1627" data-name="Ellipse 1627" cx="276.2" cy="67.15" r="2" fill="#80c9c6"/><circle id="Ellipse_1628" data-name="Ellipse 1628" cx="281.2" cy="59.15" r="2" fill="#80c9c6"/><circle id="Ellipse_1629" data-name="Ellipse 1629" cx="283.2" cy="50.15" r="2" fill="#80c9c6"/><circle id="Ellipse_1630" data-name="Ellipse 1630" cx="283.2" cy="40.15" r="2" fill="#80c9c6"/><circle id="Ellipse_1631" data-name="Ellipse 1631" cx="284.2" cy="31.15" r="2" fill="#80c9c6"/><circle id="Ellipse_1632" data-name="Ellipse 1632" cx="288.2" cy="24.15" r="2" fill="#80c9c6"/><circle id="Ellipse_1633" data-name="Ellipse 1633" cx="296.2" cy="20.15" r="2" fill="#80c9c6"/></g></g><g id="Group_6427" data-name="Group 6427"><path id="Path_11491" data-name="Path 11491" d="M.43,53.66s.2-18.31,19-19,34.67,23.71,56.3,16.18S83.4,28.72,96.5,20.19s17.34-15.72,31.62-3.5S164,0,164,0L5.33.24S.75,1.51.43,4.77.43,53.66.43,53.66Z" fill="#80c9c6"/><g id="Group_6405" data-name="Group 6405"><circle id="Ellipse_1592" data-name="Ellipse 1592" cx="9.2" cy="34.15" r="2" fill="#63aaa7"/><circle id="Ellipse_1593" data-name="Ellipse 1593" cx="18.2" cy="31.15" r="2" fill="#63aaa7"/><circle id="Ellipse_1594" data-name="Ellipse 1594" cx="35.2" cy="36.15" r="2" fill="#63aaa7"/><circle id="Ellipse_1596" data-name="Ellipse 1596" cx="43.2" cy="40.15" r="2" fill="#63aaa7"/><circle id="Ellipse_1597" data-name="Ellipse 1597" cx="50.2" cy="44.15" r="2" fill="#63aaa7"/><circle id="Ellipse_1598" data-name="Ellipse 1598" cx="58.2" cy="48.15" r="2" fill="#63aaa7"/><circle id="Ellipse_1599" data-name="Ellipse 1599" cx="68.2" cy="49.15" r="2" fill="#63aaa7"/><circle id="Ellipse_1600" data-name="Ellipse 1600" cx="77.2" cy="46.15" r="2" fill="#63aaa7"/><circle id="Ellipse_1601" data-name="Ellipse 1601" cx="84.2" cy="40.15" r="2" fill="#63aaa7"/><circle id="Ellipse_1602" data-name="Ellipse 1602" cx="86.2" cy="30.15" r="2" fill="#63aaa7"/><circle id="Ellipse_1603" data-name="Ellipse 1603" cx="90.2" cy="21.15" r="2" fill="#63aaa7"/><circle id="Ellipse_1604" data-name="Ellipse 1604" cx="97.2" cy="16.15" r="2" fill="#63aaa7"/><circle id="Ellipse_1605" data-name="Ellipse 1605" cx="104.2" cy="11.15" r="2" fill="#63aaa7"/><circle id="Ellipse_1606" data-name="Ellipse 1606" cx="114.2" cy="7.15" r="2" fill="#63aaa7"/><circle id="Ellipse_1607" data-name="Ellipse 1607" cx="124.2" cy="11.15" r="2" fill="#63aaa7"/><circle id="Ellipse_1608" data-name="Ellipse 1608" cx="131.2" cy="16.15" r="2" fill="#63aaa7"/><circle id="Ellipse_1609" data-name="Ellipse 1609" cx="140.2" cy="17.15" r="2" fill="#63aaa7"/><circle id="Ellipse_1610" data-name="Ellipse 1610" cx="147.2" cy="12.15" r="2" fill="#63aaa7"/><circle id="Ellipse_1611" data-name="Ellipse 1611" cx="154.2" cy="5.15" r="2" fill="#63aaa7"/><circle id="Ellipse_1595" data-name="Ellipse 1595" cx="27.2" cy="33.15" r="2" fill="#63aaa7"/></g></g></g></g></g><g id="Group_6963" data-name="Group 6963"><path id="Path_13495-2" data-name="Path 13495-2" d="M22.65,120c-2.78-2.86-5.22-8.67-3.86-12.65a6.12,6.12,0,0,1,1.43-2.51A6.62,6.62,0,0,1,24.7,103h0c0-.12.2-.27.24-.39-2.09-1-3.87-2.78-3.33-5.26C20,95.71,18.78,93.27,19.87,91c-1.43-2.75-1.78-7.43,2.13-8,2.4-.35,3.86,1.7,4.06,3.87a13.06,13.06,0,0,1,.46-2.48c1.08-3.83,4-8,8.16-8.78a6.54,6.54,0,0,1,3,.23,6.67,6.67,0,0,1,3.87,3.25h0c.12,0,.27-.27.39-.27-.2-2.24.46-4.87,2.86-5.61.62-2.24,2.13-4.56,4.64-4.8,1.66-2.63,5.53-5.3,8-2.2,1.51,1.94.46,4.18-1.31,5.46a15.09,15.09,0,0,1,2.36-.85c3.86-1,8.9-.5,11.72,2.66a6.14,6.14,0,0,1,1.39,2.63A6.61,6.61,0,0,1,70.81,81h0a2.61,2.61,0,0,0,.31.27c1.86-1.32,4.37-2,6.23-.31,2.25-.54,5-.43,6.42,1.66,3.1.12,7.35,2.17,5.88,5.8-.89,2.28-3.4,2.48-5.37,1.59a13.58,13.58,0,0,1,1.93,1.62c2.78,2.87,4.91,7.47,3.56,11.49a6.28,6.28,0,0,1-1.63,2.52,7.15,7.15,0,0,1-4.68,1.81h0a1,1,0,0,1,0,.39c2.09,1,4,2.79,3.4,5.26,1.63,1.67,3.74,6.89,3.74,6.89-3.93.07-7.23,0-10.27,0-6,0-9.21,0-9.21,0Zm4-16.67c0,.19,1.12.46,1.58.81a5.23,5.23,0,0,1,2,4.56,5.37,5.37,0,0,1-2.33,4.3c-.27.23-.46.39-.42.46A7.84,7.84,0,0,0,33.72,116c.5-.08,1.47-.16.92-.74a9.68,9.68,0,0,1-2.4-5.34c-.27-2.43.2-4,1.13-4.91a6.74,6.74,0,0,0-2.56-3.21c-1.35-.74-3.79.15-4.17,1.39a.25.25,0,0,1,0,.12Zm8.47,1h.15a.72.72,0,0,1-.19-.11Zm5.34,1.36A14.28,14.28,0,0,0,47,107a21.89,21.89,0,0,1-2.09-1.35,13.43,13.43,0,0,1-5-6.46,7.23,7.23,0,0,1,.62-6.35A1,1,0,0,1,42.07,94a5.44,5.44,0,0,0-.35,4.64,11.18,11.18,0,0,0,4.33,5.49A19.51,19.51,0,0,0,49.11,106a.9.9,0,0,1,.5.58,12.59,12.59,0,0,0,2.82-1.28c-6.42-3.56-7-8.86-7.42-12.69-.35-3.32-1.32-5.06-4.72-2.55a7.62,7.62,0,0,0-2.71,3.64,2,2,0,0,1-3.21,1.39,4.29,4.29,0,0,1-1.24-1.16,9.79,9.79,0,0,1-1.24-8.36c.58-2,1.59-1.66,3.1-1.12a4,4,0,0,0,3.4,0,3.35,3.35,0,0,0,2-2.47,4.37,4.37,0,0,0-3.21-4.49,4.76,4.76,0,0,0-2.09-.08c-3.44.7-5.84,4.33-6.69,7.47a15.42,15.42,0,0,0,1.86,11.56,19.07,19.07,0,0,0,9.67,8,.87.87,0,0,1,.6,1.08.24.24,0,0,1,0,.08Zm12.8-2.05c-.12-7.35,4.21-10.48,7.27-12.77,2.71-2,3.71-3.63-.12-5.37a7.32,7.32,0,0,0-4.52-.5,2.05,2.05,0,0,1-2.68-1.08,2.19,2.19,0,0,1-.15-1,4.79,4.79,0,0,1,.39-1.67A9.61,9.61,0,0,1,60.13,76c2-.5,2.2.54,2.52,2.13a4,4,0,0,0,1.7,2.94,3.26,3.26,0,0,0,3.13.46,4.34,4.34,0,0,0,2-5.8,4.67,4.67,0,0,0-.71-1c-2.33-2.63-6.66-2.9-9.83-2.09A15.5,15.5,0,0,0,49.84,80a19.14,19.14,0,0,0-2.13,12.41A.91.91,0,0,1,47,93.43h0A13.89,13.89,0,0,0,49,99.77a22.57,22.57,0,0,1,.11-2.47,13.6,13.6,0,0,1,3.1-7.59c1.43-1.58,3.63-2.9,5.84-2.63a1,1,0,0,1-.19,1.9h0c-1.59-.19-3.21.93-4.22,2A11.72,11.72,0,0,0,51,97.49a22.31,22.31,0,0,0-.08,3.56,1.09,1.09,0,0,1-.23.74,17.43,17.43,0,0,0,2.56,1.81ZM45.63,88.28v-.23l-.12.11ZM44,87a6.07,6.07,0,0,0,1.55-3.71c0-1.55-2-3.29-3.25-2.82,0,0,0,0,0,0h0a4.23,4.23,0,0,1,0,1.7,5.08,5.08,0,0,1-3,3.91,5.57,5.57,0,0,1-4.91.12c-.35-.12-.58-.23-.62-.12a7.8,7.8,0,0,0,.93,6.69c.27.39.85,1.2,1.08.43a9.65,9.65,0,0,1,3.4-4.72c2-1.47,3.56-1.9,4.8-1.51ZM26.05,88.7c0,.39-.15.82-.23,1.24a4.42,4.42,0,0,1,.39.47,8.89,8.89,0,0,1-.16-1.7Zm1.24,6v.39a.71.71,0,0,1,.23.19ZM29.61,99a5.28,5.28,0,0,1,.16.66h.34c-.15-.19-.3-.42-.5-.66Zm-1.7,1c-.31-1.39-1.62-4.95-3.63-3.33-2.4,1.94,1,3.56,1.93,4.41a5.52,5.52,0,0,1,1.7-1.08Zm-2.55-5.61c0-1.28-.66-4.45-2.75-3.56s-1,3.45,0,4.72a3.65,3.65,0,0,1,2.71-1.16Zm-1.28-5.49c.23-1.24.27-4.33-1.78-4s-1.58,3.21-1,4.56A3.36,3.36,0,0,1,24.08,88.86Zm31.14,14.66c6.31-3.79,11.18-1.63,14.7-.08,3.1,1.36,5,1.4,4.57-2.78a7.4,7.4,0,0,0-1.82-4.14,2,2,0,0,1-.39-2.86,2,2,0,0,1,.78-.62,5.44,5.44,0,0,1,1.62-.5,9.63,9.63,0,0,1,7.85,3.09c1.43,1.51.62,2.2-.58,3.25a3.92,3.92,0,0,0-1.7,2.94,3.47,3.47,0,0,0,1.16,3,4.51,4.51,0,0,0,5.5-.54A4.33,4.33,0,0,0,88,102.52c1.12-3.33-.85-7.24-3.13-9.56a15.43,15.43,0,0,0-11-4.18,19.19,19.19,0,0,0-11.84,4.34.9.9,0,0,1-1.27-.07h0A14.79,14.79,0,0,0,56.31,98c.77-.43,1.51-.81,2.2-1.12a13.09,13.09,0,0,1,8.08-1.08,7.25,7.25,0,0,1,5.23,3.71,1,1,0,0,1-1.74.77c-.62-1.43-2.4-2.32-3.87-2.63a11.65,11.65,0,0,0-7,1,21.59,21.59,0,0,0-3.09,1.7.88.88,0,0,1-.74.15,23.44,23.44,0,0,0-.19,3Zm9.44-14.31.23-.12h-.15S64.66,89.17,64.66,89.21Zm.27-2a6.13,6.13,0,0,0,4-.55c1.31-.81,1.81-3.44.81-4.21l0,0a6.22,6.22,0,0,1-1.43.89,5.21,5.21,0,0,1-4.92-.62,5.57,5.57,0,0,1-2.55-4.18c-.08-.38-.11-.62-.19-.62A7.7,7.7,0,0,0,55.26,82c-.19.47-.58,1.36.16,1.12a9.63,9.63,0,0,1,5.8.62c2.24,1,3.44,2.17,3.71,3.45ZM54.49,72.46c-.38.16-.77.3-1.16.42-.08.2-.16.35-.23.54.46-.34.92-.65,1.39-1Zm-4.57,4.1a1.44,1.44,0,0,0-.31.19c0,.12,0,.19,0,.31a3,3,0,0,1,.35-.5ZM47.37,80.7c-.16.16-.32.31-.5.46a1.77,1.77,0,0,1,.15.31,8.23,8.23,0,0,0,.35-.78Zm-1.74-1c1.08-1,3.48-3.87,1.08-4.84-2.9-1.12-2.59,2.6-2.86,3.87a5.07,5.07,0,0,1,1.78,1Zm3.6-5c1.08-.66,3.52-2.83,1.7-4.14s-3.52.81-4.1,2.4a3.3,3.3,0,0,1,2.4,1.74Zm4.14-3.87c1.2-.43,3.9-1.93,2.63-3.56s-3.56.19-4.45,1.39A3.57,3.57,0,0,1,53.37,70.87Zm2.86,34.23c6.42,3.56,7,8.86,7.43,12.69.38,3.33,7.12,0,7.42-1.12a2,2,0,0,1,2.3-1.75,2,2,0,0,1,.92.36,4.25,4.25,0,0,1,1.23,1.16c1.28,1.7,5.23,1.39,2.94-2.56a19.1,19.1,0,0,0-9.67-8,.89.89,0,0,1-.54-1.15h0a14.09,14.09,0,0,0-6.54-1.39,20.7,20.7,0,0,1,2.09,1.35,13.34,13.34,0,0,1,5,6.46c.66,2,.7,4.6-.62,6.38a1,1,0,0,1-1.54-1.12,5.44,5.44,0,0,0,.34-4.64,11.33,11.33,0,0,0-4.33-5.53,20.52,20.52,0,0,0-3-1.82,1,1,0,0,1-.5-.58,16.79,16.79,0,0,0-2.94,1.31Zm17.14,1a.87.87,0,0,1,.23.16l-.08-.16Zm1.9-.77a6.49,6.49,0,0,0,2.47,3.21c1.36.73,3.87-.16,4.06-1.4v-.07a5.87,5.87,0,0,1-1.5-.81,5.22,5.22,0,0,1-1.9-4.57,5.48,5.48,0,0,1,2.36-4.29c.3-.24.5-.43.42-.47A7.84,7.84,0,0,0,75,94.4c-.5.08-1.47.15-.89.73a9.64,9.64,0,0,1,2.4,5.34c.2,2.4-.23,4-1.2,4.88ZM82.81,89c-.31-.23-.62-.5-1-.81a2.8,2.8,0,0,1-.58.08c.5.23,1,.46,1.55.73ZM77,87a1.7,1.7,0,0,1-.35-.19l-.27.11A2.57,2.57,0,0,0,77,87Zm-4.91-.12a3.58,3.58,0,0,1-.66-.19,3.21,3.21,0,0,1-.19.31l.85-.12Zm0-2c1.39.43,5.1,1,4.72-1.47-.5-3.06-3.56-.93-4.8-.5a4.23,4.23,0,0,1,.07,2Zm6.15.62c1.12.58,4.21,1.66,4.45-.58s-2.48-2.63-4.1-2.32a3.52,3.52,0,0,1-.35,2.9Zm5.41,1.62c1,.82,3.64,2.4,4.38.47s-2-3-3.45-3.13A3.33,3.33,0,0,1,83.62,87.19ZM55.38,106.81c.12,7.31-4.56,10.37-7.62,12.65,0,0,13.6.81,13.27-1.39a.88.88,0,0,1,.69-1h.05a14.18,14.18,0,0,0-2.09-6.34c0,.83,0,1.65-.12,2.48-.39,3.44-5.34,7-4.33,5.87A10.23,10.23,0,0,0,57.71,113a21.15,21.15,0,0,0,.07-3.56,1.14,1.14,0,0,1,.23-.73,15.62,15.62,0,0,0-2.63-1.86ZM74,117.6c-.31-.38-.89-1.2-1.08-.42-.39,1.47,2,1.78,1.08.42Zm7.39-1.9v-.38a.9.9,0,0,1-.23-.2A3.69,3.69,0,0,0,81.38,115.7Zm-2.32-4.29c0-.19-.12-.43-.16-.66h-.35c.16.2.31.43.5.66Zm1.7-1c.31,1.4,1.62,5,3.63,3.33,2.4-1.93-1-3.56-1.93-4.41a4.37,4.37,0,0,1-1.7,1.08ZM83.27,116c0,1.28.7,4.45,2.75,3.56s1-3.44,0-4.72A3.5,3.5,0,0,1,83.27,116Zm-29.82-9.12c-6.3,3.75-11.18,1.62-14.7.08-3.09-1.36-5-1.4-4.56,2.78A7.48,7.48,0,0,0,36,113.93a2,2,0,0,1,.39,2.86,2,2,0,0,1-.78.62,5.41,5.41,0,0,1-1.63.5,9.64,9.64,0,0,1-7.85-3.09c-1.43-1.51-.62-2.2.54-3.25a3.91,3.91,0,0,0,1.7-2.94,3.35,3.35,0,0,0-1.16-2.94,4.48,4.48,0,0,0-5.49.54A4.36,4.36,0,0,0,20.65,108c-1.12,3.32.81,7.23,3.09,9.55s18.88,2.9,22.75-.19a.9.9,0,0,1,1.27.11h0a14.73,14.73,0,0,0,4.49-5,19.83,19.83,0,0,1-2.2,1.13A13.25,13.25,0,0,1,42,114.78a7.26,7.26,0,0,1-5.23-3.72,1,1,0,0,1,1.75-.77c.61,1.43,2.4,2.32,3.83,2.63a11.25,11.25,0,0,0,7-1,19.74,19.74,0,0,0,3.13-1.7.92.92,0,0,1,.74-.15,12.54,12.54,0,0,0,.31-3.17Z" fill="#fff"/><path id="Path_13496-2" data-name="Path 13496-2" d="M230.48,97.43a9.67,9.67,0,0,1-5.64-8.15c-1-9.36,7-16.8,15.66-18.65,8.35-1.8,15,3.6,19.13,10.35,9.23,15.1,7.72,23.65-.62,38.75a.63.63,0,0,1-.84.26.65.65,0,0,1-.25-.86c8.14-14.73,9.65-22.79.65-37.49-3.85-6.27-10-11.44-17.81-9.77-8,1.72-15.61,8.58-14.68,17.3.56,5.17,5.92,8.45,9.21,8.38,1.55,0,2.63-.81,2.53-2.48-.1-1.95-.22-4.35,3.17-5.46,3.18-1,6.1,2.07,5.94,5.23-.3,5.52-5,9.14-11.46,10.48a2.85,2.85,0,0,1,.91,2.3s0,.07,0,.1a2.21,2.21,0,0,1,.76,2.45,2.82,2.82,0,0,1,.22,3,3.08,3.08,0,0,1-.38,2.86,1.73,1.73,0,0,1-2.44.27,1.53,1.53,0,0,1-.41-.47,6.42,6.42,0,0,1-3.17,3.08,3.45,3.45,0,0,1-2.83,0,3.06,3.06,0,0,1-1.57-3.55,2.76,2.76,0,0,1,3.6-1.5,3.06,3.06,0,0,1,.53.29c.33.2.55-2.18.05-2.88a4.48,4.48,0,0,1-2,1.82,3,3,0,0,1-2.4.12c-1.08-.43-1-1.41-.88-2.73A6.59,6.59,0,0,0,225,107a2.08,2.08,0,0,1-.56,1.42,2.59,2.59,0,0,1-.48,3,3.24,3.24,0,0,1-1.39,3.32,3.52,3.52,0,0,1-1.87,2.78,2.18,2.18,0,0,1-1.82-.08h0a1.83,1.83,0,0,1-.94-1.54v-.23l-.28.23a7.22,7.22,0,0,1-4.83,1.47,4.07,4.07,0,0,1-2.91-1.5,3.5,3.5,0,0,1,.26-4.42c1.51-1.5,3.79-.74,4.83.91.07.12,0,.28.05.23a3.91,3.91,0,0,0,1.77-3c0-.25,0-.58-.13-.43a5.28,5.28,0,0,1-3.08.89,3.61,3.61,0,0,1-2.61-1.11c-.86-1-.28-2,.53-3.24.91-1.47,2.18-3.49,1.14-6.38a3,3,0,0,1-1.8,2.05,2.62,2.62,0,0,1-2,2.28,3.26,3.26,0,0,1-2.94,2.05,3.56,3.56,0,0,1-3.08,1.36,1.92,1.92,0,0,1-1.67-2.16,1.8,1.8,0,0,1,.22-.69,1.37,1.37,0,0,1,.13-.2,2.11,2.11,0,0,1-.35,0,7.22,7.22,0,0,1-4.89-1.34,4,4,0,0,1-1.65-2.83,3.47,3.47,0,0,1,2.58-3.59c2.1-.46,3.59,1.44,3.59,3.36,0,.13-.15.23-.07.23a4.05,4.05,0,0,0,3.11-1.59,2.39,2.39,0,0,0,.2-.43c0-.05,0-.05,0-.05s0,.05-.1.05a5.29,5.29,0,0,1-3.06-.91,3.62,3.62,0,0,1-1.59-2.33c-.2-1.29.81-1.8,2.2-2.46s3.42-1.64,4.23-4.2a2.48,2.48,0,0,1-1.34.43h-.2a2.57,2.57,0,0,1-2.71,1.39,3.22,3.22,0,0,1-3.47.86,3.47,3.47,0,0,1-3.36.16h0a2,2,0,0,1-.77-2.65,1.93,1.93,0,0,1,.44-.54,2.32,2.32,0,0,1,.86-.43q-.33-.08-.66-.18a7.25,7.25,0,0,1-4.07-3,4,4,0,0,1-.51-3.24,3.49,3.49,0,0,1,3.7-2.43c2.1.33,2.83,2.61,2.15,4.43-.05.13-.23.15-.15.18a4,4,0,0,0,3.49-.38,1.48,1.48,0,0,0,.33-.33c0-.05.05-.05.05-.05s0,.05-.1,0a5.08,5.08,0,0,1-2.53-1.94,3.53,3.53,0,0,1-.64-2.76c.28-1.29,1.42-1.37,2.94-1.49a7.34,7.34,0,0,0,5.06-2,2.82,2.82,0,0,1-2-.43,3.06,3.06,0,0,1-3.67,0c-1.47.35-3.26.27-4.2-1.09a4.19,4.19,0,0,1-3.64-1.72,2.24,2.24,0,0,1,.64-3.1,2.27,2.27,0,0,1,.75-.32,3.12,3.12,0,0,1,1.9.28,9.22,9.22,0,0,1-1.21-1A8.49,8.49,0,0,1,190.27,61a4.72,4.72,0,0,1,1.29-3.66,4.14,4.14,0,0,1,5.21-.46c2,1.52,1.46,4.28-.28,5.79-.18.16-.3.28-.28.3a5.08,5.08,0,0,0,4.07,1.67,2,2,0,0,0,.64-.17c.07,0,.12-.08.12-.1a.65.65,0,0,0-.15-.18,6.22,6.22,0,0,1-1.55-3.49,4.1,4.1,0,0,1,.89-3.21c1-1.14,2.2-.61,3.84.13,1.88.81,4.38,1.92,7.52.53-1.22-.08-2.68-.43-3.32-1.62-1.57.23-3.23-.18-3.9-1.75-1.74-.25-3.64-1.16-4-3.06-2.07-1-3-2.3-3.13-3.46a2.49,2.49,0,0,1,2-2.9,2.58,2.58,0,0,1,1,0c1.08.2,2.25,1.17,3.13,3.21a4.81,4.81,0,0,1,.86.28,12.23,12.23,0,0,1-2.8-4.15,10,10,0,0,1-.26-7,5.47,5.47,0,0,1,3-3.29,4.73,4.73,0,0,1,5.69,1.85c1.4,2.5-.4,5.16-2.9,5.94-.33.1-.56.18-.51.33a6,6,0,0,0,3.69,3.72c.43.13,1.27.33,1-.38a7.09,7.09,0,0,1-.08-4.37,4.71,4.71,0,0,1,2.38-3c1.5-.73,2.63.38,4.13,1.85,1.77,1.74,4.2,4.1,8.34,4a3.87,3.87,0,0,1-2.1-2.28c0-.12-.05-.25-.07-.4-1.52-.43-2.89-1.46-2.89-3.16-1.49-.94-2.85-2.53-2.42-4.4-1.52-1.72-1.8-3.29-1.47-4.43a2.5,2.5,0,0,1,3-1.84,2.41,2.41,0,0,1,.85.38c.91.63,1.59,2,1.57,4.2A4.64,4.64,0,0,1,223,33a12.17,12.17,0,0,1-.91-4.91,10.08,10.08,0,0,1,2.61-6.53c3.08-3.16,8.14-1.67,8.52,2.18.28,2.86-2.43,4.55-5,4.27-.36,0-.58-.05-.61.1A6.1,6.1,0,0,0,229.49,33c.36.3,1,.81,1,.05a7.11,7.11,0,0,1,1.7-4,4.78,4.78,0,0,1,3.39-1.8c1.64-.08,2.25,1.39,3,3.36.88,2.18,2,5.09,5.41,6.73a3.22,3.22,0,0,1-.56-2,1.77,1.77,0,0,1,.08-.4,3.63,3.63,0,0,1-1.82-3.17,2.73,2.73,0,0,1,.17-.75c-1.36-1.72-1.51-3.27-1.08-4.4a3.61,3.61,0,0,1,.27-.56c-.83-2.13-.58-3.7.1-4.66a2.54,2.54,0,0,1,3.51-.71,2.48,2.48,0,0,1,.64.61c.64.91.86,2.4.08,4.48a3.36,3.36,0,0,1,.43.79,11.9,11.9,0,0,1,.81-4.94,10,10,0,0,1,4.63-5.28,5.38,5.38,0,0,1,4.45-.33,4.72,4.72,0,0,1,2.86,5.26c-.68,2.78-3.82,3.46-6.2,2.33-.33-.16-.53-.26-.58-.1A6,6,0,0,0,252,28.7a2.27,2.27,0,0,0,.5.61.75.75,0,0,0,.25.13c.06,0,.13-.1.23-.33a7,7,0,0,1,3-3.24,4.64,4.64,0,0,1,3.77-.56c1.6.47,1.64,2.07,1.74,4.17.1,2.5.23,5.89,3.39,8.65a3.83,3.83,0,0,1-.07-2.71A2,2,0,0,1,265,35a4,4,0,0,1-.86-3.9,2.44,2.44,0,0,1,.43-.75c-.84-2.26-.51-3.93.3-4.94a3,3,0,0,1,.5-.5c-.18-2.5.61-4,1.65-4.84a2.66,2.66,0,0,1,3.75.36,2.71,2.71,0,0,1,.5.91c.35,1.14.07,2.76-1.42,4.68a3.7,3.7,0,0,1,.2,1.44,13.22,13.22,0,0,1,2.58-5.31,10.92,10.92,0,0,1,6.58-3.95,5.9,5.9,0,0,1,4.7,1.11,5.13,5.13,0,0,1,1.24,6.38C283.52,28.34,280,28,278,26c-.3-.3-.5-.5-.68-.3a6.66,6.66,0,0,0-1.62,5.57,2.49,2.49,0,0,0,.33.83.61.61,0,0,0,.25.23h0c.1,0,.2-.07.38-.28a7.91,7.91,0,0,1,4.15-2.37,5.16,5.16,0,0,1,4.1.68c1.47,1,1,2.66.38,4.88a13.85,13.85,0,0,0-.53,7.41,2.55,2.55,0,0,1,.81-1.13c-.61-1.62-.58-3.52.94-4.58-.13-1.93.37-4.18,2.35-5,.56-2.45,1.74-3.72,3-4.15a2.68,2.68,0,0,1,3.51,1.45,2.73,2.73,0,0,1,.21,1c0,1.19-.74,2.66-2.73,4.08a3.74,3.74,0,0,1-.2,1.41,13.29,13.29,0,0,1,4-4.32,11.1,11.1,0,0,1,7.44-1.9,7.44,7.44,0,0,1,2.43.78A4.83,4.83,0,0,1,308.25,32,5.34,5.34,0,0,1,309,35.8a1.91,1.91,0,0,1-.06.33,4.33,4.33,0,0,1-1.36,2.28,4.57,4.57,0,0,1-6.93-1.72h0c-.2-.38-.36-.61-.56-.48a6.66,6.66,0,0,0-3.16,4.85c0,.53-.05,1.55.71,1A7.74,7.74,0,0,1,302.3,41c4.76.38,4.88,3.13,2.68,6.6-1.64,2.63-4,6.3-1.77,11.68a.65.65,0,0,1-.2.74,48.43,48.43,0,0,1,10.22,19.73c2.76,11,1.87,24.09-4.48,38.94a.62.62,0,1,1-1.15-.48l0,0c6.22-14.57,7.11-27.35,4.4-38.13a48.22,48.22,0,0,0-12.15-21.65c-14.39-15-39.46-23-59.8-17.89a46.32,46.32,0,0,0-21.2,11.82A42.14,42.14,0,0,0,208.39,69a32.61,32.61,0,0,0-1,17.81,26.91,26.91,0,0,0,6.68,11.89h0l0,0h0a16.58,16.58,0,0,0,2.48,2,0,0,0,0,1,0,0h0a25,25,0,0,0,11.63,3.92c5.19.4,17-2.15,17.41-9.82.13-2.3-2-4.75-4.3-4s-2.38,2.71-2.3,4.23c.25,4.73-6.45,6.12-10.25,5.72h0c-7.21-.81-13.48-6.58-15.86-13.36a22.27,22.27,0,0,1,0-14.4,3.34,3.34,0,0,1-1.77-2.83,4.08,4.08,0,0,1,1.16-3,3.71,3.71,0,0,1,2.68-1.14,4.32,4.32,0,0,1-.58-2.48,3,3,0,0,1,2-2.63,3.63,3.63,0,0,1,1.85-.1,4.27,4.27,0,0,1-.2-2.84A2.93,2.93,0,0,1,220.24,56a3.09,3.09,0,0,1,1.78.13,3.7,3.7,0,0,1,.12-1.75,3.21,3.21,0,0,1,2.2-2,4,4,0,0,1,2.86.43,4.68,4.68,0,0,1,.53-2.91,3.12,3.12,0,0,1,3-1.57,4,4,0,0,1,2.18.94,3.47,3.47,0,0,1,.5-1.72,3.11,3.11,0,0,1,3-1.44,5.18,5.18,0,0,1,3,1.44,4,4,0,0,1,1.11-2.78A3.41,3.41,0,0,1,244,44a5.33,5.33,0,0,1,2.93,2.53,5,5,0,0,1,1.8-2.65,3.28,3.28,0,0,1,3.77,0,5.57,5.57,0,0,1,2,2.66,4.43,4.43,0,0,1,2-2.38,3.49,3.49,0,0,1,3.77.51,6.15,6.15,0,0,1,2,3.08A3.8,3.8,0,0,1,264,46.07a3.75,3.75,0,0,1,4.13.78,5.94,5.94,0,0,1,1.72,3A4.84,4.84,0,0,1,272,47.74a3.38,3.38,0,0,1,4.22,1.59,8.48,8.48,0,0,1,.89,6.27,6.76,6.76,0,0,1,2.73-4.07c2-1.19,4-.2,4.91,1.82a8.77,8.77,0,0,1-.1,6,5.67,5.67,0,0,1,2.15-2.25,3.59,3.59,0,0,1,4.89,1.35,3.41,3.41,0,0,1,.37.93c.71,2.12.25,5.46-2.63,9.56.23.3.48.58.71.89,0,0,0,0,0,.05l0,0h0a50,50,0,0,1,3.17,4.5s0,0,0,0l0,0a44.88,44.88,0,0,1,7.08,22.41.63.63,0,0,1-.61.64.66.66,0,0,1-.66-.61,43.41,43.41,0,0,0-6.6-21.33l-6.65,4a50.4,50.4,0,0,1,9.44,33.72.62.62,0,1,1-1.24-.1c2-22.62-12.78-43.69-33.3-52.09v0h0c-11.18-4.56-23.83-5.32-33.47,3.06-5.59,4.83-10.42,13-9.08,20.54a16.22,16.22,0,0,0,7,10.42,21.74,21.74,0,0,1-4-6.37c-2.5-6.68,2.43-6.12,2.53-12.5,0-2.53.08-4.73,3.64-5.54,2.4-.56,3.37-2.5,4.25-4.28,1.22-2.45,2.33-4.65,6.13-3.69,5.44,1.39,7.76.18,9.66-.84a6.6,6.6,0,0,1,3.9-1.11c3.16.2,3.9,1.92,4.73,3.92a7.82,7.82,0,0,0,4.46,4.86c1.54.66,3.46.45,5.36.25,2.3-.25,4.58-.5,6.4.74,3.87,2.63.71,11.61,3.29,15,2.83,3.67,9.84,3.24,13,7.11,2.27,2.86,3.33,6.75,3.71,11a75.94,75.94,0,0,1-.25,13,.62.62,0,0,1-1.24-.1,74.5,74.5,0,0,0,.23-12.76c-.35-4-1.34-7.74-3.46-10.35-2.86-3.54-9.89-3.08-13-7.13-2.81-3.67,0-12.63-3-14.7-1.45-1-3.47-.76-5.57-.53s-4.12.43-6-.36c-3.36-1.41-4.3-3.61-5.11-5.51-.68-1.62-1.26-3-3.67-3.16A5.83,5.83,0,0,0,248,63c-2.1,1.11-4.66,2.45-10.58,1-2.83-.71-3.71,1.06-4.7,3s-2.13,4.25-5.09,4.94c-2.6.6-2.63,2.32-2.65,4.32-.1,6.56-4.78,6.25-2.61,12,1.12,2.9,4.5,8.2,8.07,9.13ZM269.72,29a8.46,8.46,0,0,1-.53,1.32,4.76,4.76,0,0,1,.46,1.09,12,12,0,0,1,.07-2.4Zm0,4a10.32,10.32,0,0,1-.2,1.65,4.63,4.63,0,0,1,.69.55,18,18,0,0,1-.49-2.2Zm2.36,6.33a9.4,9.4,0,0,1,.05,1.19l1,.3c-.38-.51-.73-1-1-1.5Zm3.36,2.25c1.21.43,2.4.88,3.59,1.36-1.36-2.68-1.74-7.26.89-9.28a4,4,0,0,1,.4-.28.63.63,0,1,1,.63,1.09,2.55,2.55,0,0,0-.28.18c-2.25,1.74-1.57,6-.35,8.12.21.35.44.7.68,1,1.16.54,2.33,1.09,3.47,1.67-2.26-4.14-1.24-7.89-.46-10.65.48-1.72.84-3,.1-3.51a4,4,0,0,0-3.14-.48,6.28,6.28,0,0,0-3.41,1.94,1.6,1.6,0,0,1-1.64.71h0a1.76,1.76,0,0,1-1-.73,3.94,3.94,0,0,1-.53-1.27,8,8,0,0,1,1.9-6.65c1-1.19,1.62-.63,2.48.2,1.47,1.39,4.05,1.82,5.24-.13a3.88,3.88,0,0,0-1-4.75,4.67,4.67,0,0,0-3.72-.84,9.83,9.83,0,0,0-5.79,3.52,12.82,12.82,0,0,0-2.66,9.44,16,16,0,0,0,4.58,9.31Zm10.32,3.62a16.56,16.56,0,0,0,1.07,1.56c.93.54,1.87,1.09,2.75,1.67,1.09-3.46-.63-5.86-2.12-6.24-1.11-.3-2.13.55-1.7,3Zm6-8a10.74,10.74,0,0,1-.91,1.11,4.13,4.13,0,0,1,.13,1.16,13,13,0,0,1,.78-2.27ZM290.7,41a10.74,10.74,0,0,1-.66,1.52c.18.23.35.48.51.73A13.09,13.09,0,0,1,290.7,41Zm.43,6.73a10.27,10.27,0,0,1-.38,1.42c.38.25.76.5,1.14.78-.29-.72-.54-1.45-.76-2.2Zm2.71,3.59c1,.79,2.05,1.6,3,2.46l0-.08c-.71-3.14.25-8.45,3.92-9.26a.62.62,0,0,1,.73.49.64.64,0,0,1-.45.73c-2.91.65-3.52,5.36-3,7.79a8.27,8.27,0,0,0,.4,1.31.72.72,0,0,1,0,.46c.79.73,1.54,1.47,2.28,2.25.28.28.53.56.78.84-1.57-5.22.71-8.8,2.36-11.44s2-4.4-1.75-4.71a6.65,6.65,0,0,0-3.85.86c-1.77,1.22-2.78-.45-2.65-2.12A8,8,0,0,1,299.37,35c1.32-.86,1.72-.13,2.33.88h0a3.2,3.2,0,0,0,2.25,2,2.14,2.14,0,0,0,.43.07,2.81,2.81,0,0,0,2.35-.6,3.24,3.24,0,0,0,1-1.65,1.74,1.74,0,0,1,.05-.22,4.24,4.24,0,0,0-.56-3,4,4,0,0,0-1.37-1.24,5.73,5.73,0,0,0-2-.66,9.75,9.75,0,0,0-6.58,1.7A12.87,12.87,0,0,0,292,40.53a15.92,15.92,0,0,0,1.72,10.35.91.91,0,0,1,.1.4ZM246.22,28.89a4.15,4.15,0,0,1-.07.79,2.46,2.46,0,0,1,.43.48C246.43,29.73,246.33,29.3,246.22,28.89Zm1.27,3.39a9.62,9.62,0,0,1,.15,1l.53.2c-.23-.35-.45-.75-.68-1.16Zm3.77,4.56c.1.25.2.53.28.78h.76C251.94,37.37,251.59,37.12,251.26,36.84Zm3.46.81c1.12,0,2.23.1,3.34.17a9.19,9.19,0,0,1-2.3-4.17,5.23,5.23,0,0,1,.56-4.12,2.6,2.6,0,0,1,.3-.36.64.64,0,0,1,.89,0,.6.6,0,0,1,0,.86l0,0-.18.23a4.15,4.15,0,0,0-.35,3.16,7.77,7.77,0,0,0,2.3,3.92,6.81,6.81,0,0,0,.94.74c1.08.12,2.17.28,3.26.45-3-3-3.19-6.47-3.29-9.08,0-1.62-.13-2.81-.86-3a3.48,3.48,0,0,0-2.78.43,5.67,5.67,0,0,0-2.4,2.61,1.53,1.53,0,0,1-1.27,1.11,1.71,1.71,0,0,1-1.11-.35,3.12,3.12,0,0,1-.81-1,7.2,7.2,0,0,1-.2-6.35c.56-1.37,1.26-1,2.28-.56,1.61.79,3.94.48,4.42-1.49a3.46,3.46,0,0,0-2.12-3.8,4.3,4.3,0,0,0-3.42.3,8.66,8.66,0,0,0-4,4.63,11.73,11.73,0,0,0,.33,8.88,13.74,13.74,0,0,0,6.48,6.78Zm-30.53-2.56a7,7,0,0,1,.2.79,3,3,0,0,1,.56.3c-.28-.36-.53-.74-.76-1.09Zm2.35,2.79c.15.25.33.55.48.86a3.88,3.88,0,0,1,.59,0,12.82,12.82,0,0,1-1.07-.88Zm5.06,3a6.82,6.82,0,0,1,.63.79c.28-.13.56-.23.84-.36a12.38,12.38,0,0,1-1.47-.43Zm3.62-.45c1-.26,2-.66,3.06-.94-2.5-1.26-5.49-4.68-4.22-7.64a.61.61,0,0,1,.8-.33h0a.61.61,0,0,1,.35.76l0,0c-1,2.46,2.07,5.42,4.12,6.3a4.5,4.5,0,0,0,1,.36c1.06-.26,2.18-.49,3.29-.66-3.84-1.8-5.14-5-6.1-7.44-.61-1.49-1-2.61-1.82-2.56a3.54,3.54,0,0,0-2.48,1.35A5.77,5.77,0,0,0,231.83,33c-.05,2-1.87,1.87-3.09.86a7.22,7.22,0,0,1-2.32-5.92c.1-1.49.83-1.42,2-1.29,1.8.2,3.87-.86,3.67-2.91-.28-2.83-4.08-3.84-6.4-1.44A8.93,8.93,0,0,0,223.41,28a11.54,11.54,0,0,0,3.28,8.22,12.66,12.66,0,0,0,8.53,4.25ZM206.13,50.3c.15.2.33.4.5.66a4.56,4.56,0,0,1,.64,0,9.27,9.27,0,0,1-1.14-.68Zm3.26,1.62c.25.17.51.38.78.6l.54-.22A11.75,11.75,0,0,1,209.39,51.92Zm5.84.76a6.5,6.5,0,0,1,.94.5c.2-.23.4-.45.63-.68C216.3,52.57,215.77,52.62,215.23,52.68Zm3.22-1.83c.76-.73,1.54-1.44,2.38-2.12-2.74-.15-6.43-1.87-6.91-4.86a3.4,3.4,0,0,1,0-.45.63.63,0,0,1,.62-.63h0a.63.63,0,0,1,.63.6.86.86,0,0,0,0,.28c.38,2.53,4,3.85,6.28,3.82.33,0,.68,0,1-.05.88-.68,1.8-1.32,2.73-1.92-4.2-.13-6.65-2.56-8.5-4.35-1.16-1.12-2-2-2.71-1.62a3.5,3.5,0,0,0-1.74,2.22,5.78,5.78,0,0,0,0,3.54c.76,1.88-1,2.48-2.48,2a7.32,7.32,0,0,1-4.5-4.48c-.53-1.39.2-1.62,1.29-2,1.72-.53,3.19-2.36,2.2-4.13a3.5,3.5,0,0,0-4.14-1.31A4.09,4.09,0,0,0,202.36,38a8.75,8.75,0,0,0,.23,6.15,11.72,11.72,0,0,0,6.32,6.25,14.26,14.26,0,0,0,9.51.46ZM195.27,68.18l.53.45a1.88,1.88,0,0,1,.33,0,4.48,4.48,0,0,1-.86-.4Zm3.79,1.24a.14.14,0,0,0,.1,0l.1,0c-.07,0-.12,0-.2,0Zm3.16,0,.26.08a.64.64,0,0,0,.1-.13,1.49,1.49,0,0,0-.36,0ZM206.85,68a3.41,3.41,0,0,1,.46,0,1.48,1.48,0,0,1,.13-.35,5.43,5.43,0,0,1-.59.3Zm1.39-2.37c.3-.73.66-1.49,1-2.23a7,7,0,0,1-3.8.23,4.71,4.71,0,0,1-3-1.92,2,2,0,0,1-.2-.38.61.61,0,0,1,.3-.82l0,0a.65.65,0,0,1,.84.33.76.76,0,0,0,.13.23,3.38,3.38,0,0,0,2.2,1.37,6.06,6.06,0,0,0,3.66-.4l.79-.4c.38-.71.81-1.39,1.24-2.1-3.29,1.21-5.9.05-7.84-.81-1.17-.51-2-.89-2.4-.46a2.93,2.93,0,0,0-.59,2.28,4.91,4.91,0,0,0,1.19,2.71,1.42,1.42,0,0,1,.46,1.46,1.38,1.38,0,0,1-.71.79,4,4,0,0,1-1.06.33,6.3,6.3,0,0,1-5.14-2c-.94-1-.4-1.44.38-2.12,1.11-1,1.67-2.81.33-3.85a2.93,2.93,0,0,0-3.59.36,3.52,3.52,0,0,0-.91,2.7,7.38,7.38,0,0,0,2.22,4.68c3.9,4.08,10.27,3.32,14.45.08Zm-3,14.55c0-.64,0-1.27,0-1.9a5.82,5.82,0,0,1-2.66,1.62,4,4,0,0,1-3-.23c-.1-.05-.2-.13-.33-.2a.61.61,0,0,1-.12-.86l0,0a.63.63,0,0,1,.88-.1l.16.13a2.87,2.87,0,0,0,2,.12A4.7,4.7,0,0,0,204.75,77a3.68,3.68,0,0,0,.46-.7.64.64,0,0,1,.28-.26c.07-.63.15-1.29.27-1.92-2,2.58-4.52,2.78-6.4,2.94-1,.07-1.72.15-1.8.53a2.19,2.19,0,0,0,.46,1.77,3.76,3.76,0,0,0,1.87,1.44,1.27,1.27,0,0,1,1,1,1.32,1.32,0,0,1-.23.94,2.45,2.45,0,0,1-.68.68,5.3,5.3,0,0,1-4.58.56c-1.19-.38-1-1-.63-1.82.4-1.07.12-2.56-1.17-2.76a2.25,2.25,0,0,0-2.33,1.57,2.89,2.89,0,0,0,.38,2.22A6.1,6.1,0,0,0,195,85.62a8.05,8.05,0,0,0,6-.74,9.65,9.65,0,0,0,4.23-4.75Zm.2-7.9a.64.64,0,0,1,.69-.25c.2-.91.45-1.85.73-2.76a4,4,0,0,0-3.64,1.29.35.35,0,0,0,0,.08l-.05,0c-.33.51-.69,1.49,0,1.87a2.64,2.64,0,0,0,2.3-.28Zm3.19,21.36c0-.46-.45-.94-.68-1.42a5.94,5.94,0,0,1-1.8,2.35,4,4,0,0,1-2.86.86,1.4,1.4,0,0,1-.35-.1.61.61,0,0,1-.41-.75h0a.62.62,0,0,1,.78-.4,1,1,0,0,0,.2,0,2.76,2.76,0,0,0,1.95-.63,4.65,4.65,0,0,0,1.64-2.43,3.52,3.52,0,0,0,.15-.66c-.2-.5-.38-1-.55-1.54-1,2.48-3.09,3.44-4.6,4.2-.89.43-1.57.76-1.5,1.14a2.29,2.29,0,0,0,1.07,1.49,3.83,3.83,0,0,0,2.25.69,1.24,1.24,0,0,1,1.26.55,1.19,1.19,0,0,1,.13.94,2.17,2.17,0,0,1-.38.88,5.3,5.3,0,0,1-4.1,2.15c-1.24.08-1.24-.53-1.24-1.46,0-1.12-.76-2.43-2.07-2.15a2.22,2.22,0,0,0-1.6,2.3,2.75,2.75,0,0,0,1.17,1.92,6.11,6.11,0,0,0,4,1.09,8.08,8.08,0,0,0,5.34-2.87,9.22,9.22,0,0,0,2.2-6.15s0,0,0,0Zm10,9.68c-.46-.22-.89-.45-1.34-.7a6,6,0,0,1-.28,3,4,4,0,0,1-2,2.28c-.1.05-.23.08-.36.13a.64.64,0,0,1-.76-.43.6.6,0,0,1,.4-.75h0l.2,0a2.64,2.64,0,0,0,1.29-1.57,4.56,4.56,0,0,0,.1-2.94c0-.2-.12-.4-.2-.63-.48-.33-.94-.68-1.39-1.06a8.33,8.33,0,0,1-1.7,5.69c-.53.83-.91,1.47-.65,1.77a2.35,2.35,0,0,0,1.7.71,3.89,3.89,0,0,0,2.27-.63c1.24-.94,2.15.2,2.13,1.46a5.41,5.41,0,0,1-2.3,4c-1,.7-1.34.2-1.82-.59-.64-1-2-1.62-2.91-.7a2.26,2.26,0,0,0-.13,2.8,2.74,2.74,0,0,0,2,1,5.93,5.93,0,0,0,4-1.24,8,8,0,0,0,3-5.29,9.81,9.81,0,0,0-1.32-6.33Zm10.9,2.64c-.33,0-.63,0-1-.06a5.32,5.32,0,0,1,1.11,2.64,3.39,3.39,0,0,1-.61,2.47c-.27.38-.75.66-1.13.23s-.13-.71.17-1a2.35,2.35,0,0,0,.36-1.59,4.09,4.09,0,0,0-1.55-2.66.82.82,0,0,1-.2-.25c-.35-.05-.73-.1-1.08-.18a7.12,7.12,0,0,1,1,5.11c-.08.78-.13,1.39.13,1.47a1.86,1.86,0,0,0,1.41-.08,3.17,3.17,0,0,0,1.47-1.31c.61-1.27,1.82-.76,2.33.27a4.46,4.46,0,0,1-.2,4c-.53,1-1,.73-1.72.3a1.54,1.54,0,0,0-2.17.27,2.26,2.26,0,0,0-.16.26,1.81,1.81,0,0,0,.94,2,2.18,2.18,0,0,0,1.82,0,4.78,4.78,0,0,0,2.45-2.4,6.58,6.58,0,0,0,.23-5.06,8.12,8.12,0,0,0-3.44-4.23c-.08,0-.15-.1-.2-.18Zm-6-.84s-1.8-.53-2-.61a3.15,3.15,0,0,0,.71,2.81c.33.28,1,.71,1.39.25s.3-1-.07-2.12a.74.74,0,0,1,0-.33Zm10.65.51c-.5.07-1,.15-1.56.2a2.52,2.52,0,0,0,1.49,1.82c.3.1,1,.17,1.09-.23s-.15-.81-.84-1.49a.46.46,0,0,1-.17-.3Zm1.45,3.13a2.69,2.69,0,0,1-1,.26,1.52,1.52,0,0,0,.5,1.13c.36.23.81-.12.86-.48a1,1,0,0,0-.4-.91Zm.68,2.48s0,0-.05,0a2.06,2.06,0,0,1-1,.2,1.53,1.53,0,0,0,.22,1.26c.3.33.79.08.94-.25a1.46,1.46,0,0,0-.1-1.24Zm0,2.81-.1,0a2,2,0,0,1-.94-.06,1.6,1.6,0,0,0,0,1.27.5.5,0,0,0,.69.14.38.38,0,0,0,.14-.14,1.51,1.51,0,0,0,.23-1.24Zm-12.93-5.06a2.24,2.24,0,0,1-1.29-.3,2.06,2.06,0,0,0-.12,1.7.84.84,0,0,0,1.18.15.86.86,0,0,0,.18-.2,1.36,1.36,0,0,0,.05-1.34Zm-.58,3h-.18a2.11,2.11,0,0,1-1.21-.38,2,2,0,0,0-.51,1.67.84.84,0,0,0,1.1.44,1.64,1.64,0,0,0,.22-.14,2,2,0,0,0,.58-1.6Zm-1.49,3a2,2,0,0,1-1.22-.66,2,2,0,0,0-.83,1.49.7.7,0,0,0,.78.63.77.77,0,0,0,.26-.07,2.06,2.06,0,0,0,1-1.39Zm-9.44-17c-.45-.53-.91-1.09-1.31-1.65a3.06,3.06,0,0,0-.89,2.66c.1.43.48,1.24,1.06,1,.38-.16.79-.69,1.07-1.83a1.87,1.87,0,0,1,.07-.22Zm-2.15,3.11a2.34,2.34,0,0,1-.93-.94,2.06,2.06,0,0,0-1,1.37c0,.61.69.88,1.19.71A1.48,1.48,0,0,0,209.68,101.1Zm-2.07,2.2a.53.53,0,0,1-.15-.08,2,2,0,0,1-.84-1,2,2,0,0,0-1.26,1.09l0,0h0c-.51.59.38,1,.91.94a1.8,1.8,0,0,0,1.32-1ZM204.72,105a2,2,0,0,1-.68-1.18,2.14,2.14,0,0,0-1.52.81.69.69,0,0,0,.28.93.9.9,0,0,0,.28.08,2,2,0,0,0,1.64-.63Zm1.22-19.12a23.63,23.63,0,0,1-.4-2.38,3,3,0,0,0-1.67,2.07,1.69,1.69,0,0,0,.15,1,.58.58,0,0,0,.48.3c.35,0,.86-.28,1.44-1Zm-2.76,1.72a2.44,2.44,0,0,1-.56-1.22,2.19,2.19,0,0,0-1.39.84.79.79,0,0,0,.34,1l.09,0h0a1,1,0,0,0,.38.07,1.61,1.61,0,0,0,1.14-.78Zm-2.76,1.29a2,2,0,0,1-.53-1.34,2.06,2.06,0,0,0-1.59.53s0,0,0,0a.8.8,0,0,0,.26,1.1.64.64,0,0,0,.3.11,1.85,1.85,0,0,0,1.59-.45Zm-3.31.61a2,2,0,0,1-.2-1.37,2.19,2.19,0,0,0-1.7.2c-.63.53.12,1.11.17,1.16.3.28.94.28,1.72,0Zm4.5-17.13a2.63,2.63,0,0,1,.15-1.77,2.75,2.75,0,0,0-2.33.12,1.15,1.15,0,0,0,0,1.62,1.27,1.27,0,0,0,.36.26,1.92,1.92,0,0,0,1.85-.23Zm-3.7-.15c0-.13,0-.23-.07-.36a2.13,2.13,0,0,1,.3-1.57,2.88,2.88,0,0,0-2.3-.43h-.05a1.15,1.15,0,0,0-.43,1.57,1.07,1.07,0,0,0,.25.31,2.57,2.57,0,0,0,2.3.48ZM194,71a2.43,2.43,0,0,1,.63-1.75,2.78,2.78,0,0,0-2.17-.88,1,1,0,0,0-.58,1.54A2.55,2.55,0,0,0,194,71Zm19.13-14.09c.68-1,1.44-1.9,2.22-2.81a4.83,4.83,0,0,0-4.8-.38c-.71.38-1.7,1.44-1,2.28.4.53,1.42.88,3.19.75a.67.67,0,0,1,.43.16ZM208,55.21a2.74,2.74,0,0,1,.18-.71,3.27,3.27,0,0,1,.86-1.22,3.7,3.7,0,0,0-2.68-1,1.44,1.44,0,0,0-1,1.78,1.4,1.4,0,0,0,.32.57,2.61,2.61,0,0,0,2.3.61Zm-3.9-1.83a2.61,2.61,0,0,1,1.19-2.07,3.51,3.51,0,0,0-2.4-1.64,1.41,1.41,0,0,0-1.38,1.43,1.33,1.33,0,0,0,.17.64,3.09,3.09,0,0,0,2.43,1.64Zm-3.69-3.11A2.56,2.56,0,0,1,202,48.6c-.63-1.36-1.39-2-2-2.1A1.26,1.26,0,0,0,198.49,48c.08.71.66,1.52,1.95,2.25Zm27.42-6.4c1-.58,2.1-1.11,3.19-1.64a4.88,4.88,0,0,0-4.2-2.23c-.81.08-2.12.63-1.87,1.67.18.66.94,1.39,2.61,2A.45.45,0,0,1,227.86,43.87ZM224,40.36A3.28,3.28,0,0,1,225.71,39,4.2,4.2,0,0,0,224,37.17a1.32,1.32,0,0,0-1.82.4,1.33,1.33,0,0,0-.08,1.27c.15.61.71,1.19,1.85,1.52Zm-2.86-3.24a2.6,2.6,0,0,1,1.93-1.42c-.38-1.49-1-2.25-1.62-2.5a1.42,1.42,0,0,0-1.8.9,1.24,1.24,0,0,0-.07.54,3.05,3.05,0,0,0,1.56,2.48ZM219,32.79a1.9,1.9,0,0,1,.45-.4,2.58,2.58,0,0,1,1.65-.5,3.31,3.31,0,0,0-1-2.74,1.27,1.27,0,0,0-1.95.79A3.35,3.35,0,0,0,219,32.8ZM246.41,38c1.26-.15,2.53-.23,3.82-.3a4.64,4.64,0,0,0-3.14-3.26c-.78-.2-2.22-.13-2.33.93-.07.66.38,1.54,1.65,2.63Zm-2.15-4.2a2.32,2.32,0,0,1,.63-.4,3.37,3.37,0,0,1,1.47-.3,3.5,3.5,0,0,0-1.22-2.56,1.29,1.29,0,0,0-1.39,0,1.65,1.65,0,0,0-.73,1.24,2.49,2.49,0,0,0,1.24,2Zm-1.6-4c.13-.12.27-.23.4-.33a2.6,2.6,0,0,1,1.88-.38c.12-1.52-.18-2.45-.69-2.88a1.43,1.43,0,0,0-2,.23,1.57,1.57,0,0,0-.25.5,3.19,3.19,0,0,0,.66,2.86ZM242.11,25a2.56,2.56,0,0,1,2.3-.15,3.4,3.4,0,0,0,0-2.94,1.27,1.27,0,0,0-1.76-.28,1.12,1.12,0,0,0-.34.38,3.29,3.29,0,0,0-.16,3Zm44.57,15.94a3.43,3.43,0,0,1,2.4.68c.46-.91,1-2.32.48-3.31a1.65,1.65,0,0,0-2.73-.08,2.71,2.71,0,0,0-.15,2.71Zm1-4.6a2.78,2.78,0,0,1,2.56.81c1.11-1.32,1.41-2.4,1.24-3.16a1.61,1.61,0,0,0-2-1.08,1.57,1.57,0,0,0-.58.32,3.48,3.48,0,0,0-1.22,3.11Zm2.45-4.71a2.76,2.76,0,0,1,2.23,1.32c1.37-1,1.87-2,1.85-2.78a1.43,1.43,0,0,0-2.05-1.27,3.73,3.73,0,0,0-2,2.73Zm-23.5,7.52c1.42.3,2.84.63,4.23,1a5.29,5.29,0,0,0-2.23-4.57h0a.42.42,0,0,0-.12-.08s0,0-.05,0a2.87,2.87,0,0,0-1.62-.37,1.23,1.23,0,0,0-1,.7c-.27.66-.12,1.77.81,3.32Zm-.75-5a2.21,2.21,0,0,1,.81-.22,3.54,3.54,0,0,1,1.67.2,4.08,4.08,0,0,0-.4-3.22l-.06-.05-.05-.05a1.42,1.42,0,0,0-1.41-.38,1.86,1.86,0,0,0-.76.4l-.05,0a1.9,1.9,0,0,0-.4.61,2.76,2.76,0,0,0,.65,2.66Zm-.36-4.68a3.14,3.14,0,0,1,.58-.22,2.7,2.7,0,0,1,2.08.25c.68-1.6.66-2.71.28-3.37a1.65,1.65,0,0,0-2.71,0,3.66,3.66,0,0,0-.23,3.34Zm1-5.23a2.71,2.71,0,0,1,2.53.6c1-1.39,1.19-2.48,1-3.21a1.43,1.43,0,0,0-1.83-.91,1.33,1.33,0,0,0-.49.28,3.84,3.84,0,0,0-1.17,3.24ZM233.38,99.1a13.69,13.69,0,0,1-3.54-.56l-.2,1a10.73,10.73,0,0,0,3.74-.4Zm-5,.28.23-1.24a18,18,0,0,1-2.15-1l-.76,1.54a15.43,15.43,0,0,0,2.68.66Zm-3.85-1.11.84-1.7a17.74,17.74,0,0,1-2.08-1.47l-1.26,1.82a16.72,16.72,0,0,0,2.5,1.35Zm-3.51-2,1.34-1.95a21.83,21.83,0,0,1-1.7-1.77l-1.72,2A23,23,0,0,0,221,96.24Zm-2.94-2.65,1.8-2.1a17.78,17.78,0,0,1-1.19-1.9l-2.37,1.74a17.52,17.52,0,0,0,1.77,2.25Zm-2.43-3.29,2.48-1.82a16.14,16.14,0,0,1-.88-2.5l-3,1.49a19.38,19.38,0,0,0,1.36,2.83Zm-1.8-4L217,84.68c-.08-.4-.13-.84-.18-1.27l-3.49.54a20.76,20.76,0,0,0,.55,2.3Zm-.73-3.52,3.62-.55c0-.36,0-.71,0-1.09l-3.74.25a12.81,12.81,0,0,0,.1,1.39Zm-.13-2.6,3.87-.28c.06-.47.13-.93.23-1.39l-4,.07c-.05.54-.08,1.07-.08,1.6Zm.2-2.86,4.15-.08c.13-.45.28-.91.43-1.39h-4.32c-.08.51-.18,1-.26,1.47Zm.56-2.71h4.5c.28-.66.56-1.32.91-2l-4.48-.81a25,25,0,0,0-.93,2.81Zm1.44-4,4.6.84c.26-.43.51-.86.79-1.29l-4.48-1.45c-.33.64-.63,1.27-.91,1.9Zm.26-3.31a2.64,2.64,0,0,0-2.23.76,2.76,2.76,0,0,0-.81,2,2.13,2.13,0,0,0,.94,1.69,33.69,33.69,0,0,1,2.1-4.47ZM286.1,67l-5.76,5.72c.66.68,1.32,1.39,2,2.1l6.4-4.83c-.81-1-1.67-2-2.58-3Zm2.38.81c2.45-3.59,2.86-6.42,2.27-8.17-.5-1.57-1.94-2.43-3.46-1.59-1.27.71-2.43,2.5-2.76,5.64a53,53,0,0,1,4,4.12ZM282,63h-.18l.05,0-4.88,6.55c.86.73,1.7,1.52,2.5,2.3l5.79-5.74c-1.06-1-2.15-1.83-3.29-3.09Zm1.47-.33a11.1,11.1,0,0,1,.3-1.39c-.18.38-.38.74-.59,1.14.1.08.18.18.28.25Zm6,8.3-6.35,4.81c.71.86,1.39,1.72,2.08,2.61l6.73-4c-.79-1.16-1.6-2.32-2.46-3.44Zm-73.11-5.18c.3-.51.66-1,1-1.52,0,0,0,0,0,0q.69-1,1.44-2a2.9,2.9,0,0,0-2-.15,1.71,1.71,0,0,0-1.16,1.55,3.76,3.76,0,0,0,.68,2.15ZM219.82,61l.53-.61a29.56,29.56,0,0,1,2.38-2.5,2.73,2.73,0,0,0-2.23-.79,1.72,1.72,0,0,0-1.16,1.22,3.13,3.13,0,0,0,.48,2.68Zm3.87-4a37.67,37.67,0,0,1,3.51-2.79,3.16,3.16,0,0,0-2.63-.78,1.94,1.94,0,0,0-1.34,1.24,2.74,2.74,0,0,0,.46,2.33Zm4.88-3.65a36.85,36.85,0,0,1,4.23-2.2l0,0L233,51a3.53,3.53,0,0,0-2.4-1.62,1.84,1.84,0,0,0-1.77,1,3.63,3.63,0,0,0-.2,2.94Zm5.69-2.8A34.81,34.81,0,0,1,239.15,49a4.3,4.3,0,0,0-2.89-1.82,1.9,1.9,0,0,0-1.87.86,2.91,2.91,0,0,0-.13,2.43Zm6.4-1.77a40.49,40.49,0,0,1,5.59-.61,4.44,4.44,0,0,0-2.7-3.06,2.21,2.21,0,0,0-2.23.43A3.54,3.54,0,0,0,240.66,48.71Zm7.09-.64a47.76,47.76,0,0,1,6,.4,5.57,5.57,0,0,0-2-3.72,2,2,0,0,0-2.37,0,4.77,4.77,0,0,0-1.62,3.34Zm7.38.64a51.56,51.56,0,0,1,6.23,1.44,5.63,5.63,0,0,0-1.95-4.63,2.35,2.35,0,0,0-2.46-.38c-.83.43-1.56,1.57-1.82,3.57Zm7.47,1.84a61.71,61.71,0,0,1,6,2.36,5.67,5.67,0,0,0-1.37-5.29,2.46,2.46,0,0,0-2.76-.58c-.86.43-1.59,1.54-1.87,3.51Zm7.18,2.91a54.58,54.58,0,0,1,5.64,3.16c1-2.88.64-5.33-.33-6.78a2.19,2.19,0,0,0-2.68-1.11c-1,.46-2,1.85-2.6,4.53,0,.05,0,.12,0,.2Zm6.73,3.85.13.07.15-.88c-.1.25-.18.53-.28.81Zm1.27.86a51,51,0,0,1,4.37,3.39c1.93-3.52,2.05-6.25,1.34-7.87-.55-1.32-1.8-2-3.11-1.24-1.16.68-2.25,2.53-2.6,5.72Zm3.16,4c-.89-.74-1.77-1.44-2.68-2.1l-4.53,6.83c.78.58,1.54,1.19,2.3,1.82Zm-3.7-2.83c-1.13-.81-2.3-1.57-3.49-2.28l-3.64,7.31q1.32.84,2.61,1.8Zm-4.55-2.91c-.94-.56-1.92-1.07-2.88-1.55L266.1,62c1,.53,2,1.09,3,1.69Zm-4-2.1c-1.27-.61-2.56-1.14-3.85-1.65l-3,7.29c1.06.45,2.12.93,3.14,1.47Zm-5-2.08c-1.54-.55-3.09-1-4.68-1.44l-1.54,7.54c1.08.33,2.15.73,3.23,1.14Zm-5.87-1.72c-.94-.2-1.87-.4-2.78-.55l-.79,7.46c.69.15,1.37.35,2,.53Zm-4-.73c-1.22-.18-2.44-.3-3.67-.36l.15,7.29c.91.13,1.82.28,2.73.48Zm-4.91-.43c-1.24,0-2.48,0-3.72,0l.89,6.93a29.42,29.42,0,0,1,3,.2Zm-5,.18c-.91.07-1.82.2-2.73.35l1.57,6.53c.68,0,1.34-.08,2-.08Zm-4,.58c-.86.17-1.7.38-2.53.63l2.64,6c.48-.08,1-.13,1.44-.18Zm-3.71,1c-.76.25-1.52.53-2.28.83l3.14,5.39c.55-.15,1.11-.27,1.69-.4Zm-3.45,1.34c-.6.28-1.21.58-1.82.91l3.12,5c.58-.23,1.16-.43,1.77-.64Zm-2.9,1.49a25.21,25.21,0,0,0-2.3,1.5l3.69,4.22a15.26,15.26,0,0,1,1.67-.83Zm-3.32,2.23c-.56.43-1.11.88-1.64,1.34l4,3.57c.4-.28.81-.56,1.21-.79ZM224,58.37c-.43.4-.83.81-1.26,1.24l4.17,3.09c.33-.3.68-.59,1-.86Zm-2.12,2.15c-.18.2-.38.43-.56.66s-.36.43-.53.63l4.35,2.55.83-.83ZM220,62.8l-1.12,1.49,4.63,1.95c.26-.3.51-.61.79-.91Zm-1.85,2.53c-.51.73-1,1.49-1.39,2.22L221.31,69c.4-.58.86-1.19,1.34-1.8ZM263,67.45l-.23.13a2.17,2.17,0,0,1-1.42.15,2,2,0,0,1-1.13-.78l-.13-.2A2.14,2.14,0,0,1,260,65.2a3.08,3.08,0,0,1,.94-1.29,2.1,2.1,0,0,1,2.3-.23,2,2,0,0,1,.73.61,1.69,1.69,0,0,1,.36.91A2.28,2.28,0,0,1,263,67.45Zm-.76-1s.05,0,.08,0c.6-.4.81-.78.78-1.08A.46.46,0,0,0,263,65a.94.94,0,0,0-.3-.26.85.85,0,0,0-1,.1,1.52,1.52,0,0,0-.53.69.89.89,0,0,0,0,.6s0,0,0,0a.87.87,0,0,0,1,.26Zm17.41,18.62c-2.61-.68-2.41-3.66-.51-5.16a2.84,2.84,0,0,1,4,.39,2.75,2.75,0,0,1,.61,1.33,3.54,3.54,0,0,1-3.59,3.49,2.94,2.94,0,0,1-.51,0Zm2.83-3.31a1.6,1.6,0,0,0-2.58-.88c-1,.83-1.55,2.58.05,3a2.31,2.31,0,0,0,2.52-2.07v-.06ZM241.67,62.59a2,2,0,0,1-1.41-2.36,1,1,0,0,1,0-.14,2.68,2.68,0,0,1,.94-1.29,2.08,2.08,0,0,1,2.93.28,2.12,2.12,0,0,1,.46,1,2.54,2.54,0,0,1-2.54,2.54,2,2,0,0,1-.42,0Zm1.72-2.4a.84.84,0,0,0-1-.62.87.87,0,0,0-.37.19,1.57,1.57,0,0,0-.53.69.68.68,0,0,0,.38.9l.1,0a1.31,1.31,0,0,0,1.42-1.17v0Zm-16.22,8.6a1.61,1.61,0,0,1-1.18-2s0-.09,0-.14a2.6,2.6,0,0,1,.76-1.06,1.75,1.75,0,0,1,2.46.25,1.64,1.64,0,0,1,.37.84,2.08,2.08,0,0,1-2.05,2.11,1.81,1.81,0,0,1-.4,0Zm1.21-1.94c0-.33-.53-.46-.81-.23a1.28,1.28,0,0,0-.35.45.38.38,0,0,0,.2.51l.08,0a.9.9,0,0,0,.88-.75Zm-8,13.23a1.63,1.63,0,0,1-1.18-2c0-.05,0-.1,0-.14a2.52,2.52,0,0,1,.75-1.07,1.77,1.77,0,0,1,2.47.27,1.8,1.8,0,0,1,.37.82,2.06,2.06,0,0,1-2,2.11,1.78,1.78,0,0,1-.46,0Zm1.24-2a.21.21,0,0,0-.07-.15.52.52,0,0,0-.74-.08,1,1,0,0,0-.35.46.37.37,0,0,0,.2.5l.08,0c.35.1.91-.46.88-.76Zm5.59-1.77a1.63,1.63,0,0,1-1.17-2,.74.74,0,0,1,0-.14,2.42,2.42,0,0,1,.76-1.06,1.74,1.74,0,0,1,2.46.27,1.8,1.8,0,0,1,.37.82,2.08,2.08,0,0,1-2,2.13,3,3,0,0,1-.42,0Zm1.22-2c0-.33-.53-.45-.81-.23a1.16,1.16,0,0,0-.36.46.4.4,0,0,0,.24.51l0,0a.93.93,0,0,0,.89-.76Zm7-5.39a1.61,1.61,0,0,1-1.18-2,.74.74,0,0,1,0-.14,2.51,2.51,0,0,1,.76-1.06A1.75,1.75,0,0,1,237.82,67a2.07,2.07,0,0,1-2,2.11,2,2,0,0,1-.43,0Zm1.21-2c0-.33-.53-.45-.81-.22a.87.87,0,0,0-.35.45.37.37,0,0,0,.18.5.16.16,0,0,0,.09,0c.38.1.91-.45.89-.76Zm14.9.86-.23.13a2.17,2.17,0,0,1-1.42.15,2,2,0,0,1-1.13-.78.54.54,0,0,1-.1-.18,2.06,2.06,0,0,1-.13-1.54,2.59,2.59,0,0,1,.94-1.29,2.14,2.14,0,0,1,2.3-.26,2.53,2.53,0,0,1,.73.61,1.6,1.6,0,0,1,.35.91,2.26,2.26,0,0,1-1.31,2.25Zm-.76-1s.05,0,.08,0c.6-.4.83-.79.78-1.09a.48.48,0,0,0-.13-.3.62.62,0,0,0-.3-.23.85.85,0,0,0-1,.1,1.54,1.54,0,0,0-.53.68.86.86,0,0,0,.05.61.05.05,0,0,1,0,0,.81.81,0,0,0,.4.28.78.78,0,0,0,.58,0Zm16,12.5A2.28,2.28,0,0,1,265,76.7a2.17,2.17,0,0,1,.07-.24,3.09,3.09,0,0,1,1.14-1.57,2.51,2.51,0,0,1,3.52.35,2.66,2.66,0,0,1,.53,1.17,3.1,3.1,0,0,1-3.09,3.08,4.38,4.38,0,0,1-.51,0ZM269,76.54a1.27,1.27,0,0,0-1.53-.93,1.36,1.36,0,0,0-.5.24,2.2,2.2,0,0,0-.73,1,1.07,1.07,0,0,0,.62,1.38l.11,0a1.86,1.86,0,0,0,2-1.68v0ZM278,101.18c-2.48-.66-2.48-3.59-.51-5.19a2.84,2.84,0,0,1,4,.39,2.75,2.75,0,0,1,.61,1.33,3.52,3.52,0,0,1-3.52,3.52,3.68,3.68,0,0,1-.58,0Zm2.86-3.34a1.59,1.59,0,0,0-2.58-.86c-1.12.88-1.45,2.61.05,3a2.32,2.32,0,0,0,2.52-2.1v0Z" fill="#fff"/><g id="Group_6962" data-name="Group 6962"><path id="Path_13385-2" data-name="Path 13385-2" d="M79.28,13.59c-3.1-.12-7.35-2.17-5.88-5.8.89-2.29,3.4-2.48,5.38-1.59a12.6,12.6,0,0,1-1.94-1.63,13.54,13.54,0,0,1-3-4.4L143,.07c1.43,2.74,2,12.51-1.94,13.09-2.43.35-3.86-1.7-4.06-3.87a17.36,17.36,0,0,1-.42,2.48c-1.09,3.83-4,8-8.17,8.82a6.35,6.35,0,0,1-3-.08,6.7,6.7,0,0,1-3.87-3.09h0l-.43.11c.2,2.28-.46,4.8-2.86,5.53-.62,2.25-2.13,4.53-4.64,4.72-1.67,2.63-5.53,5.26-8,2.2-1.51-1.93-.47-4.18,1.31-5.45a16.18,16.18,0,0,1-2.36.85c-3.86,1-8.93.5-11.72-2.67a6,6,0,0,1-1.39-2.63,6.64,6.64,0,0,1,.73-4.91h0c-.11-.08-.19-.2-.3-.27-1.86,1.31-4.38,2-6.23.31-2.28.61-5,.46-6.46-1.63Zm3-13.4c2.05,2.12,4.35,1.8,6,1.6.47-.08,1.47-.16.89-.74a4.74,4.74,0,0,1-.78-.89s-6.12,0-6.09,0ZM117.61.07a24.27,24.27,0,0,1,.55,3.5c.34,3.32,1.31,5.06,4.71,2.55a7.56,7.56,0,0,0,2.71-3.64,2,2,0,0,1,2.3-1.75,2,2,0,0,1,.91.36A4.89,4.89,0,0,1,130,2.25a9.75,9.75,0,0,1,1.24,8.36c-.58,2-1.59,1.66-3.1,1.12a4,4,0,0,0-3.4,0,3.32,3.32,0,0,0-2,2.47A4.39,4.39,0,0,0,126,18.69a4.23,4.23,0,0,0,2.09,0c3.4-.7,5.84-4.33,6.69-7.47a14.18,14.18,0,0,0-1.4-11.2H124a5.07,5.07,0,0,1-1.27,3.19,1,1,0,0,1-1.55-1.12,3.27,3.27,0,0,0,.81-2.07ZM107.9.64a42.65,42.65,0,0,1-5.33,4.71c-2.71,2-3.76,3.63.11,5.33a7.35,7.35,0,0,0,4.53.5,2,2,0,0,1,2.67,1.08,2,2,0,0,1,.15,1,5,5,0,0,1-.38,1.67A9.62,9.62,0,0,1,103,20.16c-2,.5-2.2-.54-2.51-2.13a3.92,3.92,0,0,0-1.7-2.94,3.26,3.26,0,0,0-3.13-.46,4.33,4.33,0,0,0-2,5.8,4.39,4.39,0,0,0,.72,1c2.32,2.63,6.65,2.9,9.82,2.09a15.41,15.41,0,0,0,9.09-7.39,19.14,19.14,0,0,0,2.13-12.41.91.91,0,0,1,.73-1h0A25.88,25.88,0,0,0,115.41,0a76.2,76.2,0,0,1-4.56,6.43C109.42,8,107.21,9.33,105,9.06a1,1,0,1,1,.23-1.9,5.34,5.34,0,0,0,4.21-2c1.28-1.39-.34-6.6-1.55-4.51Zm9.64,7.26v.23l.07-.11S117.57,7.94,117.54,7.9Zm1.62,1.24a6.59,6.59,0,0,0-1.55,3.71c0,1.55,2,3.29,3.25,2.83a0,0,0,0,0,0,0h0a4.23,4.23,0,0,1,0-1.7,5.08,5.08,0,0,1,3-3.91,5.59,5.59,0,0,1,4.92-.12c.34.12.58.24.61.12a7.83,7.83,0,0,0-.92-6.69c-.27-.39-.85-1.2-1.09-.43A9.59,9.59,0,0,1,124,7.63c-2,1.47-3.6,1.9-4.8,1.51Zm18-1.67c0-.38.16-.81.23-1.23L137,5.77c0,.58.08,1.12.12,1.7Zm-1.24-6V1.09c-.07-.08-.15-.12-.23-.2A3.69,3.69,0,0,0,135.87,1.47Zm1.9.31c0,1.28.66,4.45,2.75,3.56s1-3.44,0-4.72a3.56,3.56,0,0,1-2.71,1.16Zm1.28,5.5c-.23,1.23-.27,4.33,1.78,4s1.58-3.21,1-4.53a3.35,3.35,0,0,1-2.78.5ZM90.75.16c.91.92.79,2.17-.64,3a6.09,6.09,0,0,1-1.62.5c-2.13.27-5.61-.85-8.12-3.48H75.91a11,11,0,0,0,2.37,3.13A15.24,15.24,0,0,0,89.22,7.43a19.18,19.18,0,0,0,11.83-4.32.94.94,0,0,1,1.28.07,14.71,14.71,0,0,0,3.44-3.1ZM98.51,7l-.23.12h.15S98.51,7,98.51,7Zm-.27,2a6.13,6.13,0,0,0-4,.55c-1.31.81-1.82,3.44-.81,4.21l0,0a6,6,0,0,1,1.43-.89,5.19,5.19,0,0,1,4.91.62,5.56,5.56,0,0,1,2.56,4.18c.07.35.11.62.19.58a7.7,7.7,0,0,0,5.34-4.14c.19-.47.58-1.36-.16-1.12a9.62,9.62,0,0,1-5.8-.62c-2.28-.93-3.44-2.13-3.71-3.4Zm10.4,14.7c.38-.16.77-.3,1.16-.42.08-.19.16-.35.23-.54a8.38,8.38,0,0,1-1.39,1Zm4.57-4.06c.11-.08.23-.11.35-.19s0-.19,0-.31a2.28,2.28,0,0,1-.38.5Zm2.55-4.14c.16-.16.33-.32.5-.46a1.77,1.77,0,0,0-.15-.31c-.12.23-.24.5-.35.77Zm1.74,1c-1.08,1-3.48,3.87-1.08,4.83,2.9,1.13,2.59-2.59,2.86-3.86a5.82,5.82,0,0,1-1.78-1Zm-3.6,5c-1.08.66-3.52,2.82-1.7,4.14s3.52-.81,4.1-2.4a3.68,3.68,0,0,1-2.4-1.74Zm-4.14,3.87c-1.16.42-3.87,1.93-2.59,3.56s3.56-.2,4.45-1.4a3.65,3.65,0,0,1-1.86-2.16ZM80.36,7.2c.31.23.62.5,1,.81a2.8,2.8,0,0,1,.58-.08C81.37,7.7,80.87,7.43,80.36,7.2Zm5.8,1.9c.12.07.23.11.35.19l.27-.12A3.27,3.27,0,0,1,86.16,9.1ZM91,9.21l.65.2a1.1,1.1,0,0,1,.2-.31,2.76,2.76,0,0,1-.85.11Zm0,2c-1.4-.42-5.11-1-4.72,1.47.5,3.06,3.56.93,4.8.5a4.84,4.84,0,0,1-.08-2ZM85,10.6c-1.12-.58-4.21-1.66-4.44.58s2.47,2.64,4.1,2.33a3.34,3.34,0,0,1,.34-2.9ZM79.55,9c-1-.81-3.64-2.4-4.37-.46s2,3,3.44,3.13A3.2,3.2,0,0,1,79.55,9Z" fill="#fff"/></g></g><g id="Group_6964" data-name="Group 6964"><path id="Rectangle_3997" data-name="Rectangle 3997" d="M.2,87.15h316v33H6.2a6,6,0,0,1-6-6v-27Z" fill="#48807e" opacity="0.8" style="isolation:isolate"/><g id="Group_6959" data-name="Group 6959"><g id="Group_6432" data-name="Group 6432"><circle id="Ellipse_1636" data-name="Ellipse 1636" cx="28.7" cy="94.65" r="2" fill="#fff"/><circle id="Ellipse_1637" data-name="Ellipse 1637" cx="21.7" cy="94.65" r="2" fill="#fff"/><circle id="Ellipse_1638" data-name="Ellipse 1638" cx="14.7" cy="94.65" r="2" fill="#fff"/><circle id="Ellipse_1639" data-name="Ellipse 1639" cx="7.7" cy="94.65" r="2" fill="#fff"/></g><g id="Group_6433" data-name="Group 6433"><circle id="Ellipse_1636-2" data-name="Ellipse 1636-2" cx="28.7" cy="100.65" r="2" fill="#fff"/><circle id="Ellipse_1637-2" data-name="Ellipse 1637-2" cx="21.7" cy="100.65" r="2" fill="#fff"/><circle id="Ellipse_1638-2" data-name="Ellipse 1638-2" cx="14.7" cy="100.65" r="2" fill="#fff"/><circle id="Ellipse_1639-2" data-name="Ellipse 1639-2" cx="7.7" cy="100.65" r="2" fill="#fff"/></g><g id="Group_6434" data-name="Group 6434"><circle id="Ellipse_1636-3" data-name="Ellipse 1636-3" cx="28.7" cy="106.65" r="2" fill="#fff"/><circle id="Ellipse_1637-3" data-name="Ellipse 1637-3" cx="21.7" cy="106.65" r="2" fill="#fff"/><circle id="Ellipse_1638-3" data-name="Ellipse 1638-3" cx="14.7" cy="106.65" r="2" fill="#fff"/><circle id="Ellipse_1639-3" data-name="Ellipse 1639-3" cx="7.7" cy="106.65" r="2" fill="#fff"/></g><g id="Group_6435" data-name="Group 6435"><circle id="Ellipse_1636-4" data-name="Ellipse 1636-4" cx="28.7" cy="112.65" r="2" fill="#fff"/><circle id="Ellipse_1637-4" data-name="Ellipse 1637-4" cx="21.7" cy="112.65" r="2" fill="#fff"/><circle id="Ellipse_1638-4" data-name="Ellipse 1638-4" cx="14.7" cy="112.65" r="2" fill="#fff"/><circle id="Ellipse_1639-4" data-name="Ellipse 1639-4" cx="7.7" cy="112.65" r="2" fill="#fff"/></g></g></g><g id="Group_6965" data-name="Group 6965"><g id="Group_6960" data-name="Group 6960"><g id="Group_6684" data-name="Group 6684"><g id="Group_6442" data-name="Group 6442"><path id="Path_13396" data-name="Path 13396" d="M391.38,3.86V116.47c0,2.06-1.32,3.72-3,3.72H299.1L299,120l4.77-6L299,108l4.77-6-4.77-6,4.77-6-4.77-6,4.77-6-4.77-6,4.77-6-4.77-6,4.77-6-4.77-6,4.77-6-4.77-6,4.77-6-4.77-6,4.77-6-4.77-6,4.77-6L299,.34l.15-.19h89.32C390.05.15,391.38,1.81,391.38,3.86Z" fill="#fff"/></g></g></g></g></g></g><g id="Group_6983" data-name="Group 6983"><g id="Group_6977" data-name="Group 6977"><g id="Group_6961" data-name="Group 6961"><g id="Group_6743" data-name="Group 6743"><g id="Group_6744" data-name="Group 6744" opacity="0.2"><g id="Group_6714" data-name="Group 6714"><path id="Path_13402" data-name="Path 13402" d="M366.81,65.53c0,8.25-8.37,15-18.7,15s-18.71-6.69-18.71-15,8.38-19.4,18.71-19.4S366.81,57.27,366.81,65.53Z" fill="#14375e"/><path id="Path_13403" data-name="Path 13403" d="M345,47.61a4.91,4.91,0,0,1,.24-1.2c-9,1.81-15.82,11.65-15.82,19.12a12.54,12.54,0,0,0,1.86,6.5A12.43,12.43,0,0,1,330,66.54C330,59.29,336.41,49.81,345,47.61Z" fill="#14375e" opacity="0.3" style="isolation:isolate"/><path id="Path_13404" data-name="Path 13404" d="M355.68,48.15a18.81,18.81,0,0,1,3.08,9.59c0,8.25-8.38,14.94-18.71,14.94a22.19,22.19,0,0,1-9.55-2.09c2.6,5.76,9.5,9.88,17.6,9.88,10.34,0,18.71-6.69,18.71-14.94C366.81,59.42,362.24,51.74,355.68,48.15Z" fill="#14375e" opacity="0.1" style="isolation:isolate"/><path id="Path_13405" data-name="Path 13405" d="M362.75,54.48a18.24,18.24,0,0,1,2.49,8.6c0,8.25-8.37,14.94-18.7,14.94-6.65,0-12.48-2.77-15.8-6.94,2.76,5.5,9.5,9.39,17.37,9.39,10.33,0,18.7-6.69,18.7-14.94A19.64,19.64,0,0,0,362.75,54.48Z" fill="#14375e" opacity="0.15" style="isolation:isolate"/><path id="Path_13406" data-name="Path 13406" d="M354.21,49.53s6.55-7.43,3.93-9-8.39,3.85-13.29,1.58-11.18-2-3.58,6.46S354.21,49.53,354.21,49.53Z" fill="#14375e"/><path id="Path_13407" data-name="Path 13407" d="M337.88,43.5a14.11,14.11,0,0,0,3,4.62,24.86,24.86,0,0,0,14,.66c1.57-1.92,5.41-7,3.3-8.25a2.3,2.3,0,0,0-1.28-.29c3.29.25-.06,5.35-1.19,6.19s-6.21,2-11.76.9C339.63,46.49,338.28,44.4,337.88,43.5Z" fill="#14375e" opacity="0.2" style="isolation:isolate"/><g id="Group_6704" data-name="Group 6704"><g id="Group_6703" data-name="Group 6703"><path id="Path_13408" data-name="Path 13408" d="M348.67,50.8a22.73,22.73,0,0,1-9.6-2.15,1.18,1.18,0,0,1,1.08-2.1h0c.08,0,7.86,3.94,15.84.33A1.18,1.18,0,1,1,357,49,20.13,20.13,0,0,1,348.67,50.8Z" fill="#14375e"/></g></g><path id="Path_13409" data-name="Path 13409" d="M338.56,47.23a1.18,1.18,0,0,1,1.59-.51c.08,0,7.86,3.94,15.84.33a1.16,1.16,0,0,1,1.66,1,1.1,1.1,0,0,0-.1-.56,1.18,1.18,0,0,0-1.56-.59h0c-8,3.61-15.77-.28-15.84-.32a1.18,1.18,0,0,0-1.59.51,1.12,1.12,0,0,0-.13.6A1.25,1.25,0,0,1,338.56,47.23Z" fill="#14375e" opacity="0.1" style="isolation:isolate"/><path id="Path_13410" data-name="Path 13410" d="M357,48.22A20,20,0,0,1,348.74,50a22.65,22.65,0,0,1-9.61-2.14,1.19,1.19,0,0,1-.59-.73,1.17,1.17,0,0,0,.53,1.53,22.58,22.58,0,0,0,9.6,2.15A20,20,0,0,0,357,49a1.18,1.18,0,0,0,.64-1.4A1.15,1.15,0,0,1,357,48.22Z" fill="#14375e" opacity="0.1" style="isolation:isolate"/><circle id="Ellipse_1643" data-name="Ellipse 1643" cx="351.02" cy="43.81" r="0.61" fill="#14375e" opacity="0.3" style="isolation:isolate"/><path id="Path_13412" data-name="Path 13412" d="M355.3,40.53c-2.93.85-6.92,3.21-10.45,1.57A13.55,13.55,0,0,0,341.27,41a12.56,12.56,0,0,1,1.61.78c.62.35,1.16.84,1.8,1.19,1.7.92,3.82.61,5.59.07l.45-.15A20.62,20.62,0,0,0,355.3,40.53Z" fill="#14375e" opacity="0.3" style="isolation:isolate"/><g id="Group_6708" data-name="Group 6708" opacity="0.3"><g id="Group_6707" data-name="Group 6707"><path id="Path_13413" data-name="Path 13413" d="M346.63,45.34A7.26,7.26,0,0,1,341.52,43a.65.65,0,0,1,1-.83,6.23,6.23,0,0,0,6.22,1.65.65.65,0,0,1,.81.45.66.66,0,0,1-.45.81h-.05A8.62,8.62,0,0,1,346.63,45.34Z" fill="#14375e"/></g></g><path id="Path_13414" data-name="Path 13414" d="M339.85,47.12a.29.29,0,1,0-.28.28h0A.28.28,0,0,0,339.85,47.12Z" fill="#14375e" opacity="0.1" style="isolation:isolate"/><g id="Group_6709" data-name="Group 6709" opacity="0.1"><path id="Path_13415" data-name="Path 13415" d="M348.55,49.2a20.8,20.8,0,0,1-8.3-1.74.19.19,0,0,1,0-.28.21.21,0,0,1,.21-.07c.08,0,7.81,3.74,15.37.09a.2.2,0,1,1,.23.33l-.06,0A17,17,0,0,1,348.55,49.2Z" fill="#14375e"/></g><g id="Group_6711" data-name="Group 6711"><g id="Group_6710" data-name="Group 6710"><path id="Path_13416" data-name="Path 13416" d="M341.38,56a.92.92,0,0,1-.92-.92.81.81,0,0,1,.06-.31,9.8,9.8,0,0,1,7.64-6,.92.92,0,0,1,1,.76.93.93,0,0,1-.76,1.06h0a7.93,7.93,0,0,0-6.17,4.83A.92.92,0,0,1,341.38,56Z" fill="#14375e"/></g><path id="Path_13417" data-name="Path 13417" d="M348,49.21a.92.92,0,0,1,1,.77.88.88,0,0,1,0,.23.91.91,0,0,0-.88-1.42,9.77,9.77,0,0,0-7.64,6,.56.56,0,0,0,0,.12A9.75,9.75,0,0,1,348,49.21Z" fill="#14375e" opacity="0.1" style="isolation:isolate"/><path id="Path_13418" data-name="Path 13418" d="M349.19,49.58a.9.9,0,0,0-.24-.51.92.92,0,0,1-.78.78A7.91,7.91,0,0,0,342,54.67a.91.91,0,0,1-1.17.55.88.88,0,0,1-.36-.24.93.93,0,0,0,.78,1.05.92.92,0,0,0,1-.59,7.93,7.93,0,0,1,6.17-4.83A.91.91,0,0,0,349.19,49.58Z" fill="#14375e" opacity="0.1" style="isolation:isolate"/><path id="Path_13419" data-name="Path 13419" d="M341.55,54.67a.28.28,0,1,0-.28.28h0A.28.28,0,0,0,341.55,54.67Z" fill="#14375e" opacity="0.15" style="isolation:isolate"/></g><g id="Group_6713" data-name="Group 6713"><g id="Group_6712" data-name="Group 6712"><path id="Path_13420" data-name="Path 13420" d="M355.16,56a.92.92,0,0,0,.91-.92,1.06,1.06,0,0,0-.05-.31,9.8,9.8,0,0,0-7.65-6,.92.92,0,0,0-1.05.76.93.93,0,0,0,.76,1.06h.05a7.93,7.93,0,0,1,6.16,4.83A.93.93,0,0,0,355.16,56Z" fill="#14375e"/></g><path id="Path_13421" data-name="Path 13421" d="M348.53,49.21a.92.92,0,0,0-1,.79.81.81,0,0,0,0,.22.92.92,0,0,1,.88-1.43,9.8,9.8,0,0,1,7.65,6l0,.12A9.73,9.73,0,0,0,348.53,49.21Z" fill="#14375e" opacity="0.1" style="isolation:isolate"/><path id="Path_13422" data-name="Path 13422" d="M347.35,49.58a.9.9,0,0,1,.24-.51.92.92,0,0,0,.78.78,7.91,7.91,0,0,1,6.17,4.82.91.91,0,0,0,1.53.31.94.94,0,0,1-.78,1.05.92.92,0,0,1-1-.59,7.93,7.93,0,0,0-6.17-4.83A.91.91,0,0,1,347.35,49.58Z" fill="#14375e" opacity="0.1" style="isolation:isolate"/><path id="Path_13423" data-name="Path 13423" d="M355,54.67a.29.29,0,1,1,.28.28h0A.29.29,0,0,1,355,54.67Z" fill="#14375e" opacity="0.15" style="isolation:isolate"/></g><circle id="Ellipse_1644" data-name="Ellipse 1644" cx="348.28" cy="49.7" r="1.68" fill="#14375e"/><path id="Path_13424" data-name="Path 13424" d="M346.64,49.94a1.68,1.68,0,0,1,3.32-.37,1.68,1.68,0,1,0-3.35.27,1,1,0,0,0,0,.24Z" fill="#14375e" opacity="0.1" style="isolation:isolate"/><path id="Path_13425" data-name="Path 13425" d="M349.57,48.61a1.69,1.69,0,0,1-3,1.06v0a1.69,1.69,0,0,0,3.37,0,1.71,1.71,0,0,0-.4-1.1Z" fill="#14375e" opacity="0.1" style="isolation:isolate"/><path id="Path_13426" data-name="Path 13426" d="M349.92,49.34a1.68,1.68,0,0,1-3.28.37l0,0v0a1.69,1.69,0,0,0,3.37,0,1.75,1.75,0,0,0,0-.4Z" fill="#14375e" opacity="0.1" style="isolation:isolate"/></g><g id="Rp" style="isolation:isolate"><text transform="translate(342.2 67.15) rotate(15.01)" font-size="9" fill="#14375e" font-family="Roboto-Bold, Roboto" font-weight="700" style="isolation:isolate">Rp</text></g></g><g id="Group_6742" data-name="Group 6742"><g id="Group_6740" data-name="Group 6740"><g id="Group_6702" data-name="Group 6702"><g id="Group_6701" data-name="Group 6701"><circle id="Ellipse_1640" data-name="Ellipse 1640" cx="345.82" cy="41.01" r="5.57" fill="#f7cf11"/><circle id="Ellipse_1641" data-name="Ellipse 1641" cx="345.72" cy="40.94" r="5.46" fill="#f8d60a"/><circle id="Ellipse_1642" data-name="Ellipse 1642" cx="345.82" cy="41.01" r="4.45" fill="#fabe14"/><path id="Path_13397" data-name="Path 13397" d="M341.55,41.09A4.42,4.42,0,0,1,349,37.86a4.45,4.45,0,1,0-4.23,7.47A4.42,4.42,0,0,1,341.55,41.09Z" fill="#fabe14" opacity="0.3" style="isolation:isolate"/><g id="Group_6700" data-name="Group 6700" opacity="0.3"><g id="Group_6699" data-name="Group 6699"><path id="Path_13400" data-name="Path 13400" d="M348.05,36l-7.38,7a5.57,5.57,0,0,0,1.43,2L350,37.52A5.62,5.62,0,0,0,348.05,36Z" fill="#f8d60a"/><path id="Path_13401" data-name="Path 13401" d="M350.49,38.28l-7.66,7.3a5.4,5.4,0,0,0,.9.45l7.17-6.84A6.18,6.18,0,0,0,350.49,38.28Z" fill="#f8d60a"/></g></g></g></g><g id="Group_6727" data-name="Group 6727"><g id="Group_6723" data-name="Group 6723"><g id="Group_6722" data-name="Group 6722"><circle id="Ellipse_1645" data-name="Ellipse 1645" cx="338.74" cy="29.8" r="5.57" fill="#f7cf11"/><circle id="Ellipse_1646" data-name="Ellipse 1646" cx="338.63" cy="29.74" r="5.46" fill="#f8d60a"/><circle id="Ellipse_1647" data-name="Ellipse 1647" cx="338.74" cy="29.8" r="4.45" fill="#fabe14"/><path id="Path_13427" data-name="Path 13427" d="M334.46,29.88a4.42,4.42,0,0,1,7.43-3.23,4.46,4.46,0,1,0-4.24,7.47A4.4,4.4,0,0,1,334.46,29.88Z" fill="#fabe14" opacity="0.3" style="isolation:isolate"/></g></g><g id="Group_6724" data-name="Group 6724"><path id="Path_13432" data-name="Path 13432" d="M338.84,21.26a.34.34,0,0,1-.34-.34V8.57a.34.34,0,0,1,.68,0V20.92a.34.34,0,0,1-.34.34Z" fill="#bababa"/></g><g id="Group_6725" data-name="Group 6725"><path id="Path_13433" data-name="Path 13433" d="M337.26,23.56a.34.34,0,0,1-.34-.34v-2.5a.34.34,0,0,1,.67,0v2.54A.34.34,0,0,1,337.26,23.56Z" fill="#bababa"/></g><g id="Group_6726" data-name="Group 6726"><path id="Path_13434" data-name="Path 13434" d="M337.26,17.38a.34.34,0,0,1-.34-.34V10.87a.34.34,0,0,1,.32-.36.34.34,0,0,1,.35.32V17A.34.34,0,0,1,337.26,17.38Z" fill="#bababa"/></g><path id="Path_13435" data-name="Path 13435" d="M337.59,18.84a.35.35,0,0,0-.35-.35.35.35,0,0,0-.35.35.35.35,0,0,0,.35.35h0A.34.34,0,0,0,337.59,18.84Z" fill="#fff" opacity="0.2" style="isolation:isolate"/><path id="Path_13436" data-name="Path 13436" d="M339.19,22.32a.35.35,0,0,0-.35-.35.35.35,0,0,0-.35.35.34.34,0,0,0,.35.35h0A.35.35,0,0,0,339.19,22.32Z" fill="#bababa"/></g><g id="Group_6739" data-name="Group 6739"><g id="Group_6736" data-name="Group 6736"><g id="Group_6735" data-name="Group 6735"><path id="Path_13502" data-name="Path 13502" d="M337.74,29.48l-.46-.12-.26,1-.57-.16.74-2.74,1,.27a1.22,1.22,0,0,1,.69.42.78.78,0,0,1,.1.68.92.92,0,0,1-.25.44.84.84,0,0,1-.45.2l.3,1.28v0l-.61-.16Zm-.33-.58.45.12a.45.45,0,0,0,.36,0,.35.35,0,0,0,.2-.26.41.41,0,0,0,0-.34.47.47,0,0,0-.31-.2l-.45-.12ZM341,30.36a1.34,1.34,0,0,1-.42.7.74.74,0,0,1-.66.12.65.65,0,0,1-.44-.35l-.26,1-.54-.15.76-2.82.5.13,0,.21a.64.64,0,0,1,.58-.1.71.71,0,0,1,.51.43,1.31,1.31,0,0,1,0,.83Zm-.54-.19a.83.83,0,0,0,0-.47.35.35,0,0,0-.24-.23.39.39,0,0,0-.41.1l-.22.84a.37.37,0,0,0,.3.3c.26.07.45-.11.56-.54Z" fill="#f9dc31"/></g></g></g></g><path id="Path_13503" data-name="Path 13503" d="M344.74,40.48l-.46-.12-.26,1-.57-.16.74-2.74,1,.27a1.22,1.22,0,0,1,.69.42.78.78,0,0,1,.1.68.92.92,0,0,1-.25.44.84.84,0,0,1-.45.2l.3,1.28v0l-.61-.16Zm-.33-.58.45.12a.5.5,0,0,0,.36,0,.39.39,0,0,0,.2-.27.41.41,0,0,0,0-.34.47.47,0,0,0-.31-.2l-.45-.12ZM348,41.36a1.34,1.34,0,0,1-.42.7.74.74,0,0,1-.66.12.65.65,0,0,1-.44-.35l-.26,1-.54-.15.76-2.82.5.13,0,.21a.64.64,0,0,1,.58-.1.71.71,0,0,1,.51.43,1.31,1.31,0,0,1,0,.83Zm-.54-.19a.83.83,0,0,0,0-.47.35.35,0,0,0-.24-.23.39.39,0,0,0-.41.1l-.22.84a.37.37,0,0,0,.3.3c.26.07.45-.11.56-.54Z" fill="#f9dc31"/></g><g id="Group_6741" data-name="Group 6741"><g id="Group_6714-2" data-name="Group 6714-2"><path id="Path_13402-2" data-name="Path 13402-2" d="M361.81,64.53c0,8.25-8.37,15-18.7,15s-18.71-6.69-18.71-15,8.38-19.4,18.71-19.4S361.81,56.27,361.81,64.53Z" fill="#fdcd9b"/><path id="Path_13403-2" data-name="Path 13403-2" d="M340,46.61a4.91,4.91,0,0,1,.24-1.2c-9,1.81-15.82,11.65-15.82,19.12a12.54,12.54,0,0,0,1.86,6.5A12.43,12.43,0,0,1,325,65.54C325,58.29,331.41,48.81,340,46.61Z" fill="#ba7c33" opacity="0.3" style="isolation:isolate"/><path id="Path_13404-2" data-name="Path 13404-2" d="M350.68,47.15a18.81,18.81,0,0,1,3.08,9.59c0,8.25-8.38,14.94-18.71,14.94a22.19,22.19,0,0,1-9.55-2.09c2.6,5.76,9.5,9.88,17.6,9.88,10.34,0,18.71-6.69,18.71-14.94C361.81,58.42,357.24,50.74,350.68,47.15Z" fill="#ba7c33" opacity="0.1" style="isolation:isolate"/><path id="Path_13405-2" data-name="Path 13405-2" d="M357.75,53.48a18.24,18.24,0,0,1,2.49,8.6c0,8.25-8.37,14.94-18.7,14.94-6.65,0-12.48-2.77-15.8-6.94,2.76,5.5,9.5,9.39,17.37,9.39,10.33,0,18.7-6.69,18.7-14.94A19.64,19.64,0,0,0,357.75,53.48Z" fill="#ba7c33" opacity="0.15" style="isolation:isolate"/><path id="Path_13406-2" data-name="Path 13406-2" d="M349.21,48.53s6.55-7.43,3.93-9-8.39,3.85-13.29,1.58-11.18-2-3.58,6.46S349.21,48.53,349.21,48.53Z" fill="#fdcd9b"/><path id="Path_13407-2" data-name="Path 13407-2" d="M332.88,42.5a14.11,14.11,0,0,0,3,4.62,24.86,24.86,0,0,0,14,.66c1.57-1.92,5.41-7,3.3-8.25a2.3,2.3,0,0,0-1.28-.29c3.29.25-.06,5.35-1.19,6.19s-6.21,2-11.76.9C334.63,45.49,333.28,43.4,332.88,42.5Z" fill="#ba7c33" opacity="0.2" style="isolation:isolate"/><g id="Group_6704-2" data-name="Group 6704-2"><g id="Group_6703-2" data-name="Group 6703-2"><path id="Path_13408-2" data-name="Path 13408-2" d="M343.67,49.8a22.73,22.73,0,0,1-9.6-2.15,1.18,1.18,0,0,1,1.08-2.1h0c.08,0,7.86,3.94,15.84.33A1.18,1.18,0,1,1,352,48,20.13,20.13,0,0,1,343.67,49.8Z" fill="#f79f46"/></g></g><path id="Path_13409-2" data-name="Path 13409-2" d="M333.56,46.23a1.18,1.18,0,0,1,1.59-.51c.08,0,7.86,3.94,15.84.33a1.16,1.16,0,0,1,1.66,1,1.1,1.1,0,0,0-.1-.56,1.18,1.18,0,0,0-1.56-.59h0c-8,3.61-15.77-.28-15.84-.32a1.18,1.18,0,0,0-1.59.51,1.12,1.12,0,0,0-.13.6A1.25,1.25,0,0,1,333.56,46.23Z" fill="#9f5424" opacity="0.1" style="isolation:isolate"/><path id="Path_13410-2" data-name="Path 13410-2" d="M352,47.22A20,20,0,0,1,343.74,49a22.65,22.65,0,0,1-9.61-2.14,1.19,1.19,0,0,1-.59-.73,1.17,1.17,0,0,0,.53,1.53,22.58,22.58,0,0,0,9.6,2.15A20,20,0,0,0,352,48a1.18,1.18,0,0,0,.64-1.4A1.15,1.15,0,0,1,352,47.22Z" fill="#9f5424" opacity="0.1" style="isolation:isolate"/><circle id="Ellipse_1643-2" data-name="Ellipse 1643-2" cx="346.02" cy="42.81" r="0.61" fill="#ba7c33" opacity="0.3" style="isolation:isolate"/><path id="Path_13412-2" data-name="Path 13412-2" d="M350.3,39.53c-2.93.85-6.92,3.21-10.45,1.57A13.55,13.55,0,0,0,336.27,40a12.56,12.56,0,0,1,1.61.78c.62.35,1.16.84,1.8,1.19,1.7.92,3.82.61,5.59.07l.45-.15A20.62,20.62,0,0,0,350.3,39.53Z" fill="#ba7c33" opacity="0.3" style="isolation:isolate"/><g id="Group_6708-2" data-name="Group 6708-2" opacity="0.3"><g id="Group_6707-2" data-name="Group 6707-2"><path id="Path_13413-2" data-name="Path 13413-2" d="M341.63,44.34A7.26,7.26,0,0,1,336.52,42a.65.65,0,0,1,1-.83,6.23,6.23,0,0,0,6.22,1.65.65.65,0,0,1,.81.45.66.66,0,0,1-.45.81h-.05A8.62,8.62,0,0,1,341.63,44.34Z" fill="#ba7c33"/></g></g><path id="Path_13414-2" data-name="Path 13414-2" d="M334.85,46.12a.29.29,0,1,0-.28.28h0A.28.28,0,0,0,334.85,46.12Z" fill="#9f5424" opacity="0.1" style="isolation:isolate"/><g id="Group_6709-2" data-name="Group 6709-2" opacity="0.1"><path id="Path_13415-2" data-name="Path 13415-2" d="M343.55,48.2a20.8,20.8,0,0,1-8.3-1.74.19.19,0,0,1,0-.28.21.21,0,0,1,.21-.07c.08,0,7.81,3.74,15.37.09a.2.2,0,1,1,.23.33l-.06,0A17,17,0,0,1,343.55,48.2Z" fill="#9f5424"/></g><g id="Group_6711-2" data-name="Group 6711-2"><g id="Group_6710-2" data-name="Group 6710-2"><path id="Path_13416-2" data-name="Path 13416-2" d="M336.38,55a.92.92,0,0,1-.92-.92.81.81,0,0,1,.06-.31,9.8,9.8,0,0,1,7.64-6,.92.92,0,0,1,1,.76.93.93,0,0,1-.76,1.06h0a7.93,7.93,0,0,0-6.17,4.83A.92.92,0,0,1,336.38,55Z" fill="#f79f46"/></g><path id="Path_13417-2" data-name="Path 13417-2" d="M343,48.21a.92.92,0,0,1,1,.77.88.88,0,0,1,0,.23.91.91,0,0,0-.88-1.42,9.77,9.77,0,0,0-7.64,6,.56.56,0,0,0,0,.12A9.75,9.75,0,0,1,343,48.21Z" fill="#f79f46" opacity="0.1" style="isolation:isolate"/><path id="Path_13418-2" data-name="Path 13418-2" d="M344.19,48.58a.9.9,0,0,0-.24-.51.92.92,0,0,1-.78.78A7.91,7.91,0,0,0,337,53.67a.91.91,0,0,1-1.17.55.88.88,0,0,1-.36-.24.93.93,0,0,0,.78,1.05.92.92,0,0,0,1-.59,7.93,7.93,0,0,1,6.17-4.83A.91.91,0,0,0,344.19,48.58Z" fill="#f79f46" opacity="0.1" style="isolation:isolate"/><path id="Path_13419-2" data-name="Path 13419-2" d="M336.55,53.67a.28.28,0,1,0-.28.28h0A.28.28,0,0,0,336.55,53.67Z" fill="#f79f46" opacity="0.15" style="isolation:isolate"/></g><g id="Group_6713-2" data-name="Group 6713-2"><g id="Group_6712-2" data-name="Group 6712-2"><path id="Path_13420-2" data-name="Path 13420-2" d="M350.16,55a.92.92,0,0,0,.91-.92,1.06,1.06,0,0,0-.05-.31,9.8,9.8,0,0,0-7.65-6,.92.92,0,0,0-1.05.76.93.93,0,0,0,.76,1.06h.05a7.93,7.93,0,0,1,6.16,4.83A.93.93,0,0,0,350.16,55Z" fill="#f79f46"/></g><path id="Path_13421-2" data-name="Path 13421-2" d="M343.53,48.21a.92.92,0,0,0-1,.79.81.81,0,0,0,0,.22.92.92,0,0,1,.88-1.43,9.8,9.8,0,0,1,7.65,6l0,.12A9.73,9.73,0,0,0,343.53,48.21Z" fill="#f79f46" opacity="0.1" style="isolation:isolate"/><path id="Path_13422-2" data-name="Path 13422-2" d="M342.35,48.58a.9.9,0,0,1,.24-.51.92.92,0,0,0,.78.78,7.91,7.91,0,0,1,6.17,4.82.91.91,0,0,0,1.53.31.94.94,0,0,1-.78,1.05.92.92,0,0,1-1-.59,7.93,7.93,0,0,0-6.17-4.83A.91.91,0,0,1,342.35,48.58Z" fill="#f79f46" opacity="0.1" style="isolation:isolate"/><path id="Path_13423-2" data-name="Path 13423-2" d="M350,53.67a.29.29,0,1,1,.28.28h0A.29.29,0,0,1,350,53.67Z" fill="#f79f46" opacity="0.15" style="isolation:isolate"/></g><circle id="Ellipse_1644-2" data-name="Ellipse 1644-2" cx="343.28" cy="48.7" r="1.68" fill="#fdc88e"/><path id="Path_13424-2" data-name="Path 13424-2" d="M341.64,48.94a1.68,1.68,0,0,1,3.32-.37,1.68,1.68,0,1,0-3.35.27,1,1,0,0,0,0,.24Z" fill="#9f5424" opacity="0.1" style="isolation:isolate"/><path id="Path_13425-2" data-name="Path 13425-2" d="M344.57,47.61a1.69,1.69,0,0,1-3,1.06v0a1.69,1.69,0,0,0,3.37,0,1.71,1.71,0,0,0-.4-1.1Z" fill="#9f5424" opacity="0.1" style="isolation:isolate"/><path id="Path_13426-2" data-name="Path 13426-2" d="M344.92,48.34a1.68,1.68,0,0,1-3.28.37l0,0v0a1.69,1.69,0,0,0,3.37,0,1.75,1.75,0,0,0,0-.4Z" fill="#9f5424" opacity="0.1" style="isolation:isolate"/></g><path id="Path_13504" data-name="Path 13504" d="M340.65,64.65l-1-.27L339,66.64l-1.27-.34,1.65-6.19,2.3.62a2.7,2.7,0,0,1,1.56.94,1.72,1.72,0,0,1,.22,1.54,1.92,1.92,0,0,1-.55,1,2,2,0,0,1-1,.46l.66,2.88,0,.06-1.37-.37Zm-.74-1.31,1,.28a1.09,1.09,0,0,0,.81,0,.85.85,0,0,0,.44-.6,1,1,0,0,0-.06-.76,1.08,1.08,0,0,0-.7-.45l-1-.27Zm8,3.28a2.84,2.84,0,0,1-.94,1.57,1.62,1.62,0,0,1-1.47.29,1.46,1.46,0,0,1-1-.79L344,69.86l-1.23-.33,1.7-6.36,1.14.3-.08.47a1.5,1.5,0,0,1,1.31-.23,1.65,1.65,0,0,1,1.15,1,3,3,0,0,1,0,1.86Zm-1.2-.42a1.88,1.88,0,0,0,0-1,.77.77,0,0,0-.57-.53.86.86,0,0,0-.91.23l-.51,1.88a.84.84,0,0,0,.69.67q.87.24,1.26-1.2Z" fill="#fff"/></g></g></g><g id="Group_6976" data-name="Group 6976"><path id="Path_13506" data-name="Path 13506" d="M345.57,97.29l-.66.66a.4.4,0,0,0,0,.56l5.15,5.15H338.73a.4.4,0,0,0-.4.4V105a.4.4,0,0,0,.4.4h11.33l-5.15,5.15a.42.42,0,0,0,0,.57l.66.65a.39.39,0,0,0,.56,0l7-7a.42.42,0,0,0,0-.57l-7-6.95A.39.39,0,0,0,345.57,97.29Z" fill="#74b9b6"/><g id="Group_6975" data-name="Group 6975"><line id="Line_148" data-name="Line 148" x1="332.7" y1="104.65" x2="336.7" y2="104.65" fill="none" stroke="#74b9b6" stroke-width="1.5"/></g></g></g><g id="Group_6979" data-name="Group 6979" opacity="0.3"><g id="Group_6720" data-name="Group 6720"><path id="Path_13430" data-name="Path 13430" d="M341,24.8l-7.37,7a5.46,5.46,0,0,0,1.42,2l7.88-7.51A5.39,5.39,0,0,0,341,24.8Z" fill="#f8d60a"/><path id="Path_13431" data-name="Path 13431" d="M343.4,27.07l-7.65,7.3a4.73,4.73,0,0,0,.9.45L343.81,28A4.46,4.46,0,0,0,343.4,27.07Z" fill="#f8d60a"/></g></g></g></g></g></g></svg>