<svg xmlns="http://www.w3.org/2000/svg" viewBox="0 0 19.93 20.5"><title>like</title><g id="Layer_2" data-name="Layer 2"><g id="Layer_1-2" data-name="Layer 1"><g id="like"><path id="Path_488" data-name="Path 488" d="M19.32,13.94a2.54,2.54,0,0,0,.61-1.7,2.64,2.64,0,0,0-.56-1.48,2.29,2.29,0,0,0-.55-2.64,4.72,4.72,0,0,0-3.44-.82,12.56,12.56,0,0,0-2.11.27h0l-.67.14a7.53,7.53,0,0,1,.52-2.49c.6-1.83.57-3.23-.11-4.16A2.71,2.71,0,0,0,10.84,0,1.1,1.1,0,0,0,10,.38a2.86,2.86,0,0,0-.36,2C9.08,3.94,7.5,7.66,6.16,8.69l-.07.06A4.62,4.62,0,0,0,5.25,10,1.81,1.81,0,0,0,4.4,9.8H1.78A1.78,1.78,0,0,0,0,11.58v7a1.78,1.78,0,0,0,1.78,1.78H4.4a1.79,1.79,0,0,0,1-.32l1,.12a43.77,43.77,0,0,0,5.72.31c.51,0,1,.06,1.43.06a9.6,9.6,0,0,0,2-.18,3.75,3.75,0,0,0,2.66-1.66A2.66,2.66,0,0,0,18.53,17a2.74,2.74,0,0,0,1-2.22A2.49,2.49,0,0,0,19.32,13.94ZM1.78,19.17a.62.62,0,0,1-.62-.62v-7A.63.63,0,0,1,1.78,11H4.4a.63.63,0,0,1,.62.63v7a.63.63,0,0,1-.62.63Zm16.45-5.74a.59.59,0,0,0-.08.7,1.64,1.64,0,0,1-.6,2.2.57.57,0,0,0-.2.66,1.53,1.53,0,0,1-.12,1.11,2.72,2.72,0,0,1-1.89,1.09,11.33,11.33,0,0,1-3.13.09h-.06A43.23,43.23,0,0,1,6.58,19h0l-.43-.05a2.33,2.33,0,0,0,0-.38v-7a1.9,1.9,0,0,0-.09-.53,3.77,3.77,0,0,1,.8-1.47c1.92-1.53,3.8-6.68,3.88-6.9a.48.48,0,0,0,0-.29,2.6,2.6,0,0,1,.06-1.24,1.55,1.55,0,0,1,1.21.58c.43.6.42,1.68-.06,3.11-.72,2.19-.78,3.34-.21,3.84a1,1,0,0,0,.94.17l.74-.15h.06C14.87,8.4,17.22,8.22,18,9a1.23,1.23,0,0,1,.15,1.56.57.57,0,0,0,.1.75,1.59,1.59,0,0,1,.47,1A1.54,1.54,0,0,1,18.23,13.43Z" style="fill:#4281c3"/></g></g></g></svg>