<svg xmlns="http://www.w3.org/2000/svg" viewBox="0 0 144.4 40.99"><title>logo_text_angkut</title><g id="Layer_2" data-name="Layer 2"><g id="Layer_1-2" data-name="Layer 1"><g id="Group_4110" data-name="Group 4110"><path id="Path_4837" data-name="Path 4837" d="M39.57,5.2a11,11,0,0,0-4.7,1A7.53,7.53,0,0,0,31.64,9h-.28L29.88,6.34a1.29,1.29,0,0,0-1.14-.65H27.65A1.3,1.3,0,0,0,26.35,7v23.2a.94.94,0,0,0,.94.93,1,1,0,0,0,.49-.12l2.7-1.61a2.6,2.6,0,0,0,1.29-2.24V18.43c0-3.17.54-5.44,1.59-6.79s2.73-2,5-2a4.58,4.58,0,0,1,3.77,1.44,6.18,6.18,0,0,1,1.15,3.55V27.11a2.59,2.59,0,0,0,1.29,2.25L47.29,31a1,1,0,0,0,1.44-.82V14.51a13.23,13.23,0,0,0-.47-3.7Q46.67,5.18,39.57,5.2Z" style="fill:#fff"/><path id="Path_4838" data-name="Path 4838" d="M124.12,6.94l-2.7-1.6a.85.85,0,0,0-.47-.13.93.93,0,0,0-1,.92v8.3c0,3.17-.54,8.88-1.59,10.22a6,6,0,0,1-5,2,4.62,4.62,0,0,1-3.77-1.45,6.28,6.28,0,0,1-1.15-3.55V6.15a1,1,0,0,0-.94-1,1,1,0,0,0-.48.13L104.34,7A2.59,2.59,0,0,0,103,9.2V21.78a13.18,13.18,0,0,0,.47,3.7,7.52,7.52,0,0,0,1.94,3.44c1.53,1.45,3.77,2.17,6.72,2.18a11,11,0,0,0,4.7-1A7.59,7.59,0,0,0,120,27.52l.13-.19,2.27,2.85a1.31,1.31,0,0,0,1,.48h.68a1.29,1.29,0,0,0,1.29-1.29V9.18A2.56,2.56,0,0,0,124.12,6.94Z" style="fill:#fff"/><path id="Path_4839" data-name="Path 4839" d="M142.87,27a12.06,12.06,0,0,1-2.4.24,3.61,3.61,0,0,1-2.59-.95,3.8,3.8,0,0,1-1-2.88V9.76h3.5a2.58,2.58,0,0,0,2.3-1.39l.77-1.44a.86.86,0,0,0-.33-1.18.81.81,0,0,0-.43-.11H136.9V1.29A1.29,1.29,0,0,0,135.61,0h-1.1a1.28,1.28,0,0,0-1.23.89l-1.54,4.52L128.7,7A1.29,1.29,0,0,0,128,8.18v.3a1.29,1.29,0,0,0,1.29,1.29h2.17v13.7q0,8.1,7.68,8.1a14.41,14.41,0,0,0,2.93-.28,12.75,12.75,0,0,0,1.39-.32,1.3,1.3,0,0,0,.93-1.25V28.24A1.29,1.29,0,0,0,143.11,27a1,1,0,0,0-.24,0Z" style="fill:#fff"/><path id="Path_4840" data-name="Path 4840" d="M75,6.33A1.3,1.3,0,0,0,73.73,5h-1a.86.86,0,0,0-.64.28l-2.29,2.5h0c-2.58-3.3-8.06-4.26-12.2-1.63A12,12,0,0,0,52.3,16.47h0v2.74h0a12,12,0,0,0,5.26,10.28c4.15,2.63,9.64,1.67,12.21-1.63v2.58h0a5.13,5.13,0,0,1-1.38,3.67c-1.13,1.13-3,1.74-5.54,1.85H61.68a.85.85,0,0,0-.87.85.87.87,0,0,0,.17.54l1.88,2.44a3,3,0,0,0,2.9,1.15,11.56,11.56,0,0,0,6.46-3.23A10.22,10.22,0,0,0,75,30.21ZM69.77,23.41v.1l-.16.18c-4,4.52-11.64,2.06-12-4V16c.35-6,8-8.5,12-4l.16.18V23.41Z" style="fill:#fff"/><path id="Path_4841" data-name="Path 4841" d="M91,16.59l6.28-6.71a.87.87,0,0,0,0-1.23.9.9,0,0,0-.6-.23h-3.1a2.62,2.62,0,0,0-1.9.82l-4.33,4.6-2.88,2.87V5a2.16,2.16,0,0,0-.91-1.77L81.12,1.47a1.3,1.3,0,0,0-1.81.29,1.37,1.37,0,0,0-.24.76V30.16a.94.94,0,0,0,.94.94,1,1,0,0,0,.48-.13l2.7-1.6a2.6,2.6,0,0,0,1.3-2.25V22.88L87.41,20,94.8,30a2.58,2.58,0,0,0,2.09,1.06h3.32a.86.86,0,0,0,.87-.85.84.84,0,0,0-.17-.53Z" style="fill:#fff"/><path id="Path_4842" data-name="Path 4842" d="M21.43,5.34h-.6a.85.85,0,0,0-.58.23L17.46,8.12h0C14.87,4.83,9.4,3.86,5.26,6.5A12,12,0,0,0,0,16.77H0v2.74H0A12,12,0,0,0,5.27,29.79c4.14,2.64,9.63,1.68,12.2-1.62h0l2.28,2.5a.85.85,0,0,0,.65.28h1a1.28,1.28,0,0,0,1.29-1.29v-23a1.29,1.29,0,0,0-1.28-1.3Zm-4,9.4v9L17.3,24c-4,4.52-11.64,2.06-12-4V16.27c.35-6,8-8.5,12-4l.16.18Z" style="fill:#fff"/></g></g></g></svg>