<?xml version="1.0" encoding="utf-8"?>
<!-- Generator: Adobe Illustrator 24.0.2, SVG Export Plug-In . SVG Version: 6.00 Build 0)  -->
<svg version="1.1" id="Layer_1" xmlns="http://www.w3.org/2000/svg" xmlns:xlink="http://www.w3.org/1999/xlink" x="0px" y="0px"
	 viewBox="0 0 711.3 517.6" style="enable-background:new 0 0 711.3 517.6;" xml:space="preserve">
<style type="text/css">
	.st0{fill:#FFFFFF;}
</style>
<title>Logo Angkut</title>
<path class="st0" d="M368.8,280.3l65.5-37.8l34.7,20.9c4.1,2.5,9.4,1.2,11.8-2.9c0.8-1.3,1.2-2.9,1.2-4.5V84.1c0-9.4-5-18-13.1-22.7
	L368.8,3.5c-8.1-4.7-18.1-4.7-26.2,0L242.3,61.4c-8.1,4.7-13.1,13.3-13.1,22.7v115.7c0,9.4,5,18,13.1,22.7l100.2,57.8
	C350.6,285,360.6,285,368.8,280.3z M433.6,186.9L358.9,230v-86.2l74.7-43.1V186.9z M355.6,51.9L430.4,95l-74.7,43.1L280.9,95
	L355.6,51.9z M277.7,100.6l74.7,43.2v86.3l-74.7-43.1V100.6z"/>
<path class="st0" d="M194.8,341.4c-8-0.1-15.9,1.5-23.1,4.9c-6.6,3-12.2,7.7-16.1,13.8h-1.4l-7.2-13.1c-1.1-2.1-3.2-3.3-5.6-3.3
	h-5.4c-3.5,0-6.4,2.9-6.4,6.4v114.2c0,2.6,2.1,4.6,4.6,4.6c0.8,0,1.7-0.2,2.4-0.6l13.3-7.9c3.9-2.3,6.3-6.5,6.3-11v-42.8
	c0-15.6,2.6-26.8,7.8-33.4s13.4-10,24.7-10c8.5,0,14.6,2.4,18.6,7.1c3.3,4,5.1,9.8,5.7,17.5c0.1,1.3,0.1,2.7,0.1,4.2v57.4
	c0,4.5,2.4,8.7,6.3,11.1l13.4,7.9c0.7,0.4,1.5,0.6,2.4,0.6c2.6,0,4.7-2.1,4.7-4.7v-77c0.1-6.2-0.7-12.3-2.3-18.2
	C232.4,350.6,218.2,341.4,194.8,341.4z"/>
<path class="st0" d="M611.2,350l-13.3-7.9c-0.7-0.4-1.5-0.6-2.3-0.6c-2.6,0-4.7,2-4.7,4.6c0,0,0,0.1,0,0.1v40.7
	c0,15.6-0.2,39.8-7.8,50.4c-5,6.9-13.4,10-24.7,10c-8.5,0-14.6-2.4-18.6-7.1c-3.3-4-5.1-9.8-5.7-17.5c-0.1-1.3-0.1-2.7-0.1-4.2
	v-72.3c0-2.6-2-4.7-4.6-4.7c0,0-0.1,0-0.1,0c-0.8,0-1.6,0.2-2.3,0.6l-13.4,8c-3.9,2.3-6.3,6.5-6.3,11v62c-0.1,6.2,0.7,12.3,2.3,18.2
	c1.6,6.4,4.9,12.3,9.6,16.9c7.5,7.1,18.5,10.7,33.1,10.7c8,0.1,15.9-1.6,23.1-4.9c6.2-2.8,11.6-7.2,15.4-12.8c0.2-0.3,0.5-0.6,0.6-1
	l11.2,14c1.2,1.5,3.1,2.4,5,2.4h3.3c3.5,0,6.4-2.9,6.4-6.4V361C617.5,356.5,615.1,352.3,611.2,350z"/>
<path class="st0" d="M703.6,448.6c-3.9,0.7-7.8,1.1-11.8,1.1c-5.2,0-9.4-1.5-12.7-4.6s-4.8-7.8-4.8-14.2v-67.1h17.2
	c4.7,0,9.1-2.6,11.3-6.8l3.8-7.1c1.1-2.1,0.3-4.7-1.7-5.8c-0.6-0.3-1.3-0.5-2-0.5h-28.6v-21.4c0-3.5-2.9-6.4-6.4-6.4h-5.4
	c-2.7,0-5.2,1.7-6.1,4.3l-7.6,22.1l-15,8c-2.1,1.1-3.4,3.3-3.4,5.7v1.5c0,3.5,2.9,6.4,6.4,6.4c0,0,0,0,0,0h10.7v67.5
	c0,26.6,12.7,39.9,37.8,39.9c4.9,0,9.7-0.4,14.5-1.3c2.3-0.4,4.6-0.9,6.8-1.6c2.7-0.8,4.6-3.3,4.5-6.2v-7.3c0-3.5-2.8-6.4-6.4-6.4
	C704.5,448.5,704.1,448.5,703.6,448.6z"/>
<path class="st0" d="M369.5,346.9c0-3.5-2.9-6.4-6.4-6.4l0,0H358c-1.2,0-2.3,0.5-3.1,1.4l-11.2,12.3l0,0c-12.7-16.2-39.7-21-60.1-8
	c-16.4,10.5-25.9,29.6-25.9,50.6v13.5l0,0c0,21,9.5,40.2,25.9,50.6c20.4,13,47.4,8.2,60.1-8v12.7l0,0c0,0.4,0.6,10.6-6.8,18.1
	c-5.5,5.5-14.7,8.6-27.2,9.1c-1.3,0-3.4,0.1-5.8,0c-2.4,0-4.3,1.9-4.3,4.2c0,0.9,0.3,1.9,0.9,2.6l9.2,12c3.3,4.4,8.8,6.6,14.3,5.7
	c13.2-2.4,23.8-7.7,31.8-15.9c9.4-9.9,14.5-23.2,13.9-36.9L369.5,346.9z M343.6,430.9v0.5l-0.8,0.9c-19.8,22.3-57.5,10.2-59.2-19.6
	c0-0.8-0.1-1.6-0.1-2.5s-0.1-1.4,0-2.1v-9.2c0-0.7,0-1.4,0-2.1s0-1.7,0.1-2.5c1.7-29.7,39.4-41.9,59.2-19.6l0.8,0.9v0.2V430.9z"/>
<path class="st0" d="M448.3,397.5l31-33c1.6-1.7,1.5-4.4-0.2-6c-0.8-0.7-1.8-1.1-2.9-1.1h-15.3c-3.5,0-6.9,1.4-9.3,4L430.2,384
	L416,398.1v-57.9c0-3.5-1.7-6.7-4.5-8.7l-12-8.5c-2.9-2-6.9-1.4-8.9,1.5c-0.8,1.1-1.2,2.4-1.2,3.7v136.1c0,2.6,2.1,4.6,4.6,4.6
	c0.8,0,1.7-0.2,2.4-0.6l13.3-7.9c3.9-2.3,6.3-6.5,6.3-11.1v-20.9l14.4-14.5l36.4,49.7c2.4,3.3,6.2,5.2,10.3,5.2h16.3
	c2.4,0,4.3-1.9,4.3-4.3c0-0.9-0.3-1.8-0.9-2.6L448.3,397.5z"/>
<path class="st0" d="M105.5,342.1h-2.9c-1.1,0-2.1,0.4-2.9,1.1L86,355.8l0,0c-12.7-16.2-39.7-21-60.1-8C9.5,358.2,0,377.4,0,398.4
	v13.5l0,0c0,21,9.5,40.2,25.9,50.6c20.4,13,47.4,8.2,60.1-8v0.1l11.2,12.3c0.8,0.9,1.9,1.4,3.1,1.4h5.1c3.5,0,6.4-2.9,6.4-6.4l0,0
	V348.5C111.9,345,109,342.1,105.5,342.1L105.5,342.1z M86,388.3v44.5v0.2l-0.8,0.9c-19.8,22.3-57.4,10.2-59.2-19.6
	c-0.1-0.8-0.1-1.6-0.1-2.5s-0.1-1.4,0-2.1v-9.2c0-0.7,0-1.4,0-2.1s0-1.6,0.1-2.5c1.7-29.7,39.4-41.9,59.2-19.6l0.8,0.9v0.1V388.3z"
	/>
</svg>
