<svg id="Layer_1" data-name="Layer 1" xmlns="http://www.w3.org/2000/svg" viewBox="0 0 91.29 25.56"><title>angkut_logo2</title><g id="Layer_2" data-name="Layer 2"><g id="Layer_2-2" data-name="Layer 2-2"><path id="Path_3497" data-name="Path 3497" d="M95.49,25.24l5.9-3.4,3.13,1.89a.78.78,0,0,0,1.07-.27.8.8,0,0,0,.11-.4V7.57a2.36,2.36,0,0,0-1.18-2l-9-5.21a2.32,2.32,0,0,0-2.36,0l-9,5.21a2.34,2.34,0,0,0-1.19,2V18A2.39,2.39,0,0,0,84.11,20l9,5.2a2.37,2.37,0,0,0,2.36,0Zm5.84-8.4L94.6,20.72V13l6.73-3.88Zm-7-12.16L101,8.56l-6.73,3.89L87.58,8.56Zm-7,4.39L94,13v7.77l-6.73-3.88Z" transform="translate(-82.92)" style="fill:#fff"/><path id="Path_3498" data-name="Path 3498" d="M127.7,8.09a4.8,4.8,0,0,0-2.08.44,3.3,3.3,0,0,0-1.45,1.24h-.12l-.65-1.16a.56.56,0,0,0-.5-.3h-.48a.57.57,0,0,0-.58.57h0V19.16a.43.43,0,0,0,.42.42.39.39,0,0,0,.21-.06l1.18-.71a1.16,1.16,0,0,0,.58-1V14a5,5,0,0,1,.71-3,2.63,2.63,0,0,1,2.22-.91,2,2,0,0,1,1.67.64,2.71,2.71,0,0,1,.51,1.58v5.53a1.17,1.17,0,0,0,.57,1l1.2.71a.43.43,0,0,0,.22.06.42.42,0,0,0,.42-.42V12.22a5.68,5.68,0,0,0-.21-1.64C131.09,8.92,129.8,8.09,127.7,8.09Z" transform="translate(-82.92)" style="fill:#fff"/><path id="Path_3499" data-name="Path 3499" d="M165.2,8.86,164,8.15a.36.36,0,0,0-.2-.06.43.43,0,0,0-.43.41h0v3.67c0,1.41-.23,3.94-.7,4.54a2.71,2.71,0,0,1-2.22.9,2.08,2.08,0,0,1-1.68-.65,2.76,2.76,0,0,1-.5-1.57V8.51a.42.42,0,0,0-.42-.42h0a.46.46,0,0,0-.2.05l-1.21.72a1.16,1.16,0,0,0-.58,1v5.59a6.1,6.1,0,0,0,.21,1.64,3.35,3.35,0,0,0,.86,1.52,4.21,4.21,0,0,0,3,1,4.68,4.68,0,0,0,2.08-.43A3.38,3.38,0,0,0,163.38,18a.47.47,0,0,1,.06-.09l1,1.27a.59.59,0,0,0,.45.22h.28a.58.58,0,0,0,.58-.58h0v-9a1.17,1.17,0,0,0-.55-1Z" transform="translate(-82.92)" style="fill:#fff"/><path id="Path_3500" data-name="Path 3500" d="M173.53,17.74a5.44,5.44,0,0,1-1.06.1,1.6,1.6,0,0,1-1.15-.41,1.69,1.69,0,0,1-.43-1.28v-6h1.55a1.14,1.14,0,0,0,1-.61l.35-.64a.38.38,0,0,0-.15-.52.26.26,0,0,0-.19-.05h-2.58V6.37a.58.58,0,0,0-.58-.58h-.48a.58.58,0,0,0-.55.39l-.68,2-1.35.7a.57.57,0,0,0-.29.5v.13a.58.58,0,0,0,.57.58h1v6.08c0,2.4,1.15,3.6,3.41,3.6a7.07,7.07,0,0,0,1.3-.12,6.23,6.23,0,0,0,.62-.15.58.58,0,0,0,.41-.55V18.3a.59.59,0,0,0-.57-.58l-.13,0Z" transform="translate(-82.92)" style="fill:#fff"/><path id="Path_3501" data-name="Path 3501" d="M143.44,8.58a.58.58,0,0,0-.58-.58h-.46a.41.41,0,0,0-.29.13l-1,1.1h0a4.19,4.19,0,0,0-5.41-.72,5.34,5.34,0,0,0-2.34,4.56h0v1.22h0a5.36,5.36,0,0,0,2.34,4.56,4.18,4.18,0,0,0,5.41-.73v1.15h0a2.29,2.29,0,0,1-.61,1.63,3.63,3.63,0,0,1-2.45.81h-.53a.4.4,0,0,0-.39.38.41.41,0,0,0,.08.24l.84,1.09a1.33,1.33,0,0,0,1.28.51,5.15,5.15,0,0,0,2.87-1.44,4.52,4.52,0,0,0,1.25-3.31Zm-2.33,7.57v0l-.08.08a3,3,0,0,1-4.3.28,3.08,3.08,0,0,1-1-2V12.85A3,3,0,0,1,141,11.09l.08.08Z" transform="translate(-82.92)" style="fill:#fff"/><path id="Path_3502" data-name="Path 3502" d="M150.53,13.14l2.79-3a.38.38,0,0,0,0-.54.37.37,0,0,0-.28-.1h-1.37a1.14,1.14,0,0,0-.84.36l-1.93,2-1.27,1.26V8a1,1,0,0,0-.4-.78l-1.08-.77a.56.56,0,0,0-.8.13.6.6,0,0,0-.11.34V19.16a.41.41,0,0,0,.42.41.31.31,0,0,0,.21-.05l1.2-.71a1.15,1.15,0,0,0,.57-1V15.93l1.29-1.3,3.28,4.48a1.17,1.17,0,0,0,.93.47h1.47a.4.4,0,0,0,.39-.38.41.41,0,0,0-.08-.24Z" transform="translate(-82.92)" style="fill:#fff"/><path id="Path_3503" data-name="Path 3503" d="M119.65,8.15h-.26a.4.4,0,0,0-.26.1l-1.24,1.13h0a4.19,4.19,0,0,0-5.41-.72,5.34,5.34,0,0,0-2.33,4.57h0v1.21h0A5.34,5.34,0,0,0,112.48,19a4.18,4.18,0,0,0,5.41-.72h0l1,1.11a.38.38,0,0,0,.28.12h.46a.58.58,0,0,0,.58-.57V8.73a.58.58,0,0,0-.57-.57h0Zm-1.76,4.16v4l-.07.08a3.05,3.05,0,0,1-4.3.28,3,3,0,0,1-1-2.05V13a3,3,0,0,1,3.29-2.79,3,3,0,0,1,2,1l.07.08v1Z" transform="translate(-82.92)" style="fill:#fff"/></g></g></svg>