<svg xmlns="http://www.w3.org/2000/svg" viewBox="0 0 86.69 63.11"><title>logo_angkut</title><g id="Layer_2" data-name="Layer 2"><g id="Layer_1-2" data-name="Layer 1"><g id="Group_4077" data-name="Group 4077"><rect id="Rectangle_1705" data-name="Rectangle 1705" x="32.67" y="5.25" width="21" height="23" rx="8" style="fill:#4281c3"/><path id="Path_3485" data-name="Path 3485" d="M45,34.16l8-4.6,4.23,2.55a1.05,1.05,0,0,0,1.44-.35,1.08,1.08,0,0,0,.15-.55v-21a3.2,3.2,0,0,0-1.6-2.77L45,.43a3.21,3.21,0,0,0-3.2,0L29.55,7.48A3.2,3.2,0,0,0,28,10.25v14.1a3.19,3.19,0,0,0,1.6,2.77l12.21,7A3.21,3.21,0,0,0,45,34.16Zm7.9-11.39L43.75,28V17.53l9.11-5.26ZM43.36,6.33l9.11,5.26-9.11,5.26-9.11-5.26Zm-9.5,5.94L43,17.53V28.05l-9.11-5.26Z" style="fill:#fff"/><path id="Path_3486" data-name="Path 3486" d="M23.76,41.63a6.57,6.57,0,0,0-2.83.59A4.6,4.6,0,0,0,19,43.91h-.16l-.89-1.6a.77.77,0,0,0-.69-.39H16.6a.78.78,0,0,0-.78.78h0V56.62a.56.56,0,0,0,.56.56h0a.51.51,0,0,0,.3-.07l1.62-1a1.55,1.55,0,0,0,.77-1.34V49.57a6.77,6.77,0,0,1,1-4.07,3.62,3.62,0,0,1,3-1.22,2.78,2.78,0,0,1,2.26.87A3.71,3.71,0,0,1,26,47.28v7.5a1.54,1.54,0,0,0,.78,1.35l1.62,1a.58.58,0,0,0,.79-.2.59.59,0,0,0,.07-.29V47.22A7.9,7.9,0,0,0,29,45C28.34,42.75,26.6,41.62,23.76,41.63Z" style="fill:#fff"/><path id="Path_3487" data-name="Path 3487" d="M74.52,42.67l-1.62-1a.46.46,0,0,0-.28-.08.55.55,0,0,0-.57.55v5c0,1.91-.33,5.34-1,6.14a3.62,3.62,0,0,1-3,1.22,2.79,2.79,0,0,1-2.26-.87,3.78,3.78,0,0,1-.69-2.13V42.2a.57.57,0,0,0-.56-.57.47.47,0,0,0-.29.08l-1.64,1A1.54,1.54,0,0,0,61.87,44v7.56a7.56,7.56,0,0,0,.28,2.22,4.33,4.33,0,0,0,1.16,2.06,5.65,5.65,0,0,0,4,1.31,6.55,6.55,0,0,0,2.82-.59A4.59,4.59,0,0,0,72.05,55l.07-.11,1.37,1.71a.76.76,0,0,0,.61.29h.41a.77.77,0,0,0,.77-.77h0V44A1.52,1.52,0,0,0,74.52,42.67Z" style="fill:#fff"/><path id="Path_3488" data-name="Path 3488" d="M85.78,54.69a7,7,0,0,1-1.44.14,2.11,2.11,0,0,1-1.55-.56,2.26,2.26,0,0,1-.59-1.73V44.36h2.1a1.56,1.56,0,0,0,1.38-.83l.46-.87a.51.51,0,0,0-.2-.7.48.48,0,0,0-.26-.07H82.19V39.28a.78.78,0,0,0-.78-.78h-.65A.77.77,0,0,0,80,39l-.93,2.71-1.82,1a.78.78,0,0,0-.42.69v.18a.78.78,0,0,0,.78.78h1.3v8.22q0,4.86,4.61,4.87a9.46,9.46,0,0,0,1.76-.17,8.45,8.45,0,0,0,.84-.19.78.78,0,0,0,.55-.75v-.89a.77.77,0,0,0-.77-.78h-.14Z" style="fill:#fff"/><path id="Path_3489" data-name="Path 3489" d="M45.05,42.31a.78.78,0,0,0-.78-.78h-.62a.52.52,0,0,0-.39.17l-1.37,1.5h0a5.68,5.68,0,0,0-7.33-1A7.24,7.24,0,0,0,31.4,48.4h0V50h0a7.25,7.25,0,0,0,3.16,6.17,5.66,5.66,0,0,0,7.33-1v1.54h0a3,3,0,0,1-.83,2.2,4.84,4.84,0,0,1-3.32,1.11H37a.53.53,0,0,0-.53.52.56.56,0,0,0,.11.32l1.12,1.46a1.79,1.79,0,0,0,1.74.69,6.86,6.86,0,0,0,3.88-1.94,6.1,6.1,0,0,0,1.7-4.5ZM41.89,52.56v.06l-.1.11A4.12,4.12,0,0,1,36,53.1a4.06,4.06,0,0,1-1.39-2.76V48.1A4.12,4.12,0,0,1,39,44.32a4.17,4.17,0,0,1,2.77,1.39l.1.11Z" style="fill:#fff"/><path id="Path_3490" data-name="Path 3490" d="M54.66,48.46l3.77-4a.52.52,0,0,0-.39-.87H56.18a1.59,1.59,0,0,0-1.14.49l-2.6,2.77-1.73,1.72V41.48a1.31,1.31,0,0,0-.54-1.06l-1.47-1a.77.77,0,0,0-1.08.18.75.75,0,0,0-.15.46V56.61a.56.56,0,0,0,.57.56h0a.59.59,0,0,0,.29-.07l1.62-1a1.55,1.55,0,0,0,.77-1.35V52.24l1.76-1.76,4.43,6.06a1.56,1.56,0,0,0,1.26.63h2a.52.52,0,0,0,.53-.51.54.54,0,0,0-.11-.32Z" style="fill:#fff"/><path id="Path_3491" data-name="Path 3491" d="M12.87,41.71h-.36a.5.5,0,0,0-.35.14l-1.68,1.53h0a5.65,5.65,0,0,0-7.32-1A7.25,7.25,0,0,0,0,48.58H0v1.64H0a7.2,7.2,0,0,0,3.16,6.17,5.65,5.65,0,0,0,7.33-1h0l1.37,1.5a.52.52,0,0,0,.39.17h.62a.78.78,0,0,0,.78-.78h0V42.49a.77.77,0,0,0-.77-.78h0Zm-2.39,5.64v5.44l-.1.11a4.12,4.12,0,0,1-7.21-2.39V48.27A4.11,4.11,0,0,1,7.62,44.5a4.06,4.06,0,0,1,2.76,1.39l.1.11Z" style="fill:#fff"/></g></g></g></svg>