<svg xmlns="http://www.w3.org/2000/svg" width="126.14" height="40.557" viewBox="0 0 126.14 40.557">
  <g id="Group_4767" data-name="Group 4767" transform="translate(-175.646 -236.125)">
    <g id="Group_4766" data-name="Group 4766" transform="translate(-75 -27)">
      <path id="Path_3666" data-name="Path 3666" d="M88-817.348V-797.7l51.241.023c28.146.023,50.958.068,50.676.136q-1.036.2-.094.75c.345.2.471.2.471.023s.314-.136.941.091c1.161.432,1.694.25,1.475-.477l-.126-.545H214.14v-30.648l-.722-.068c-.471-.045-.722-.25-.753-.636-.094-.568-.094-.568.22-.068.6,1.045,1.1.591,1.192-1.045.063-1.272-.031-1.59-.439-1.7-.753-.2-.847-.045-.471.909.408,1.045.251,1.2-.628.636l-.659-.432.063,2.158c.063,1.181.063,8.27.031,15.721l-.031,13.586H189.007l.345-.477c.314-.386.439-.409.847-.159.439.25.471.25.345-.045a1.637,1.637,0,0,0-.847-.591c-2.008-.727-1.506-.772,9.006-.772H209.12v-24.082l-.847-.023-.879-.023.784-.182.784-.182-.69-.159c-.408-.091-.722-.25-.722-.363,0-.3.753-.25,1.192.068.282.2.377-.023.377-1.022,0-1.045-.126-1.318-.628-1.522-.784-.318-.816-.682-.031-.682.5,0,.6-.182.6-1.113.031-.909-.094-1.136-.6-1.227a.674.674,0,0,1-.6-.591c0-.636.847-.613,1.036.023.094.386.157.318.188-.227.031-.568-.094-.727-.565-.727a1.1,1.1,0,0,0-.784.273c-.157.227-.22.227-.377,0-.126-.2-4.864-.273-22.153-.273-19.957,0-21.9.023-21.463.364.6.432.6.364.063,1.09-.345.5-.471.545-.628.25a.435.435,0,0,0-.565-.2c-.251.114-.282,0-.157-.341.408-1.181.659-1.159-11.233-1.159-10.982,0-11.077,0-11.233.477a.432.432,0,0,1-.847-.159c0-.273-3.2-.318-23.063-.318H93.021v32.034h85.349l.314.568a.88.88,0,0,0,1.538.182c.251-.341.345-.341.847-.068.471.3.533.3.377,0-.094-.227-.5-.318-1.161-.273-.533.023-.973-.045-.973-.182,0-.3,7.437-.318,7.688-.023.094.114.031.273-.157.364a.6.6,0,0,0-.314.477c0,.25.188.3.69.2.533-.136.628-.091.471.227a1.793,1.793,0,0,0-.22.477c0,.045-21.965.091-48.793.091H89.883V-835.41h33.041c26.013,0,33.135-.068,33.449-.3.345-.227.439-.227.565,0,.22.454,4.613.386,5.146-.068.345-.318.408-.318.659,0s2.573.364,20.459.364c17.572,0,20.239-.045,20.584-.341.314-.273.314-.341-.063-.341a2.109,2.109,0,0,1-1.036-.454c-.565-.432-.973-.454-14.057-.454H175.169l.157.636c.188.659.157.659-1.757.523-.157-.023-.188-.2-.063-.454.126-.318,0-.454-.533-.545-1.192-.227-32.508-.182-32.7.023a2.04,2.04,0,0,1-1.632-.023c-.126-.091-11.579-.159-25.448-.159H88Zm66.585-14.495a1.515,1.515,0,0,0,.847.3,3.257,3.257,0,0,1,1.914,2.067c0,.341.22.432,1.1.432a15.392,15.392,0,0,0,2.51-.273c1.13-.227,1.569-.227,2.04,0,.722.318,1.569.364,1.569.068,0-.114.314-.25.722-.3.5-.045.659-.2.628-.545-.063-.341.157-.545.628-.636,1.255-.25,1.475-.159,1.475.545a.83.83,0,0,1-.69.909c-.439.114,6.338.2,17.572.2l18.262.023v23.4h-5.3c-5.648,0-6.276-.114-5.9-1.136.251-.727-.628-.545-1.757.341l-1,.8H98.982v-23.4h26.044c21.62,0,26.013-.045,25.856-.3-.094-.182.063-.454.345-.613.408-.25.471-.2.471.318,0,.591.031.591,2.228.591h2.228l-1-.863c-.533-.454-1.349-1.045-1.757-1.318l-.784-.454.722-.659c.659-.613.722-.613.847-.227A1.705,1.705,0,0,0,154.585-831.843Zm50.77.8c0,.591-.753.409-.879-.227-.094-.364.031-.454.377-.364A.663.663,0,0,1,205.355-831.048Z" transform="translate(162.646 1100.125)" fill="#008af6"/>
      <g id="Component_7_1889" data-name="Component 7 – 1889" transform="translate(295 274)">
        <text id="Lunas" transform="translate(0 15)" fill="#008af6" font-size="14" font-family="Roboto-Bold, Roboto" font-weight="700"><tspan x="0" y="0">Lunas</tspan></text>
      </g>
    </g>
  </g>
</svg>
