<svg xmlns="http://www.w3.org/2000/svg" viewBox="0 0 192.83 133"><title>message_lupa_pass</title><g id="Layer_2" data-name="Layer 2"><g id="Layer_1-2" data-name="Layer 1"><g id="Group_3960" data-name="Group 3960"><path id="Path_1302" data-name="Path 1302" d="M192.83,24.49h0A7.87,7.87,0,0,0,185,16.63H75.69a29,29,0,0,0-29,29V58.7a5,5,0,0,1-5,5h-34A3.22,3.22,0,0,0,4.46,67h0a3.22,3.22,0,0,0,3.22,3.21h46a3.76,3.76,0,0,1,3.76,3.76h0a3.76,3.76,0,0,1-3.76,3.77H21.08a2.35,2.35,0,0,0-2.35,2.35h0a2.35,2.35,0,0,0,2.35,2.35H42a4.72,4.72,0,0,1,4.72,4.72h0A4.71,4.71,0,0,1,42,91.85H7.86A7.87,7.87,0,0,0,0,99.71H0a7.87,7.87,0,0,0,7.86,7.86H127.53a29,29,0,0,0,29-29V65.5a5,5,0,0,1,5-5h23.61a3.22,3.22,0,0,0,3.21-3.22h0A3.21,3.21,0,0,0,185.16,54H149.57a3.78,3.78,0,0,1-3.77-3.76h0a3.78,3.78,0,0,1,3.77-3.77h22.16a2.35,2.35,0,0,0,2.35-2.35h0a2.35,2.35,0,0,0-2.35-2.35H161.19a4.72,4.72,0,0,1-4.72-4.72h0a4.72,4.72,0,0,1,4.72-4.72H185A7.86,7.86,0,0,0,192.83,24.49Z" style="fill:#e9f5fc"/><g id="Group_2100" data-name="Group 2100"><path id="Subtraction_30" data-name="Subtraction 30" d="M115.37,41h-40a20,20,0,0,1,40,0Z" style="fill:#6ccde8"/></g><ellipse id="Ellipse_165" data-name="Ellipse 165" cx="97.37" cy="122.5" rx="45" ry="10.5" style="fill:#e8e8e8"/><g id="Group_2097" data-name="Group 2097"><path id="path92" d="M80.88,118.77,80.23,101V58.72L81.09,52l17.23-.66.63,11L90.39,101l-5.22,19.23-4.29-1.45" style="fill:#6958a5"/><path id="path92-2" d="M110.57,118.77l.65-17.77V58.72L110.36,52l-17.23-.66-.62,11L101.06,101l5.22,19.23,4.29-1.45" style="fill:#6958a5"/><ellipse id="Ellipse_142" data-name="Ellipse 142" cx="81.87" cy="120" rx="4.5" ry="3" transform="translate(-50.11 59.3) rotate(-31)" style="fill:#5d9fd6"/><ellipse id="Ellipse_143" data-name="Ellipse 143" cx="109.87" cy="120" rx="3" ry="4.5" transform="translate(-39.36 184.81) rotate(-71)" style="fill:#5d9fd6"/></g><g id="Group_2101" data-name="Group 2101"><g id="envelope"><g id="Group_2093" data-name="Group 2093"><path id="Path_1319" data-name="Path 1319" d="M70.06,47.63l7.11,4.94q5.94,4.11,9.09,6.33L87.74,60c.75.55,1.37,1,1.87,1.32s1.1.71,1.8,1.13a10.39,10.39,0,0,0,2,.93,5.4,5.4,0,0,0,1.73.32h.07A5.69,5.69,0,0,0,97,63.35a10.43,10.43,0,0,0,2-.94c.71-.41,1.31-.79,1.8-1.12s1.12-.78,1.87-1.32l1.48-1.06,16.24-11.28a16.51,16.51,0,0,0,4.23-4.27,9.12,9.12,0,0,0,1.7-5.24,5.61,5.61,0,0,0-5.55-5.55H69.64a5,5,0,0,0-4.11,1.8,7,7,0,0,0-1.44,4.51A8.1,8.1,0,0,0,66,43.62,17.18,17.18,0,0,0,70.06,47.63Z" style="fill:#4281c3"/><path id="Path_1320" data-name="Path 1320" d="M122.8,48.34q-11.39,7.69-17.28,12c-1.32,1-2.39,1.73-3.21,2.27A19.47,19.47,0,0,1,99,64.25a10,10,0,0,1-3.82.85h-.07a10,10,0,0,1-3.81-.85,19.47,19.47,0,0,1-3.28-1.67c-.82-.54-1.89-1.3-3.21-2.27q-4.68-3.44-17.25-12a18.37,18.37,0,0,1-3.5-3V72.87a5.57,5.57,0,0,0,5.55,5.55h51.08a5.57,5.57,0,0,0,5.55-5.55V45.32A19.2,19.2,0,0,1,122.8,48.34Z" style="fill:#4281c3"/></g></g><g id="Group_2098" data-name="Group 2098"><circle id="Ellipse_160" data-name="Ellipse 160" cx="120.37" cy="72" r="9" style="fill:#fff"/><circle id="Ellipse_161" data-name="Ellipse 161" cx="120.37" cy="72" r="8" style="fill:#fbab19"/><g id="_1" data-name=" 1" style="isolation:isolate"><text transform="translate(117.37 77)" style="isolation:isolate;font-size:12px;fill:#fff;font-family:Roboto-Bold, Roboto;font-weight:700">1</text></g></g></g><path id="Path_1321" data-name="Path 1321" d="M79.37,29a3.78,3.78,0,0,1,4,3.5,3.46,3.46,0,0,1-1.28,2.56,4.08,4.08,0,0,1-2.72.94,3.77,3.77,0,0,1-4-3.5A3.77,3.77,0,0,1,79.37,29Z" style="fill:#ffda95"/><ellipse id="Ellipse_166" data-name="Ellipse 166" cx="111.37" cy="32.5" rx="4" ry="3.5" style="fill:#ffda95"/><g id="Group_2118" data-name="Group 2118"><g id="Group_2116" data-name="Group 2116"><g id="Group_2104" data-name="Group 2104"><ellipse id="Ellipse_167" data-name="Ellipse 167" cx="95.87" cy="11.5" rx="7.5" ry="8.5" style="fill:#ffda95"/></g></g><g id="Group_2117" data-name="Group 2117"><path id="Path_1318" data-name="Path 1318" d="M88.4,10.38S87.19,5,90,2.85s7.49-.25,7.49-.25,3.55-2.54,5.42-.68,0,7,0,7S100,10.28,97.44,6.6s-7.82.3-7.82.3Z" style="fill:#898989"/><circle id="Ellipse_158" data-name="Ellipse 158" cx="97.87" cy="2.5" r="2.5" style="fill:#898989"/><circle id="Ellipse_159" data-name="Ellipse 159" cx="102.87" cy="6.5" r="2.5" style="fill:#898989"/></g></g></g></g></g></svg>