<svg xmlns="http://www.w3.org/2000/svg" viewBox="0 0 43.71 20.51"><title>mini_bus</title><g id="Layer_2" data-name="Layer 2"><g id="Layer_1-2" data-name="Layer 1"><g id="mini_bus" data-name="mini bus"><path id="Path_1531" data-name="Path 1531" d="M5,17.84,13,17.76s.48-4.25-3.85-4.25S5,17.28,5,17.28Z" style="fill:#231f20"/><path id="Path_1532" data-name="Path 1532" d="M27.28,17.84l8.08-.06s.48-4.25-3.85-4.25-4.23,3.77-4.23,3.77Z" style="fill:#231f20"/><path id="Path_1533" data-name="Path 1533" d="M43.69,15.16c-.06.36-.46,1.84-.46,1.84s0,.32-.6.38L35.22,18s.34-4.37-3.51-4.37S27.48,17.46,27.48,18a.32.32,0,0,1-.27.36H13s-.18,0-.18-.28-.14-4.59-3.67-4.59a3.81,3.81,0,0,0-3.51,1.7l-.06.08a5.55,5.55,0,0,0-.66,2.79H1.72s-.24.06-.24-.24c0,0-.06.26-.26.26h-1s-.22,0-.22-.22V15.63a.53.53,0,0,1,.18-.28l.08-.06.12-.08a.35.35,0,0,1-.22-.08A.23.23,0,0,1,.1,15v-1.8a.37.37,0,0,1,0-.18.13.13,0,0,1,.12-.08l-.08-.08a.32.32,0,0,1,0-.14v-.34s-.1,0-.1-.14.1-.14.1-.14v-.66a.11.11,0,0,1-.08-.12V11a10,10,0,0,1,.26-1.8,23.7,23.7,0,0,1,3.17-6C5,1.45,6.07,1.49,8.88.7A31.13,31.13,0,0,1,16,0h24a4.73,4.73,0,0,1,1.71.25,6.57,6.57,0,0,1,1.28,2.86,25.73,25.73,0,0,1,.6,4.45,20.78,20.78,0,0,1-.18,4.73,4.59,4.59,0,0,0-.06,1.28s0,.6.12.7.2.16.2.5S43.75,14.79,43.69,15.16Z" style="fill:#f1f2f2"/><path id="Path_1534" data-name="Path 1534" d="M11.4,2.34c-1.26,0-5.45-.1-6.43,0C3.83,2.46,2.72,4.41,2,6a10.39,10.39,0,0,0-.6,3.45v3.33H.16l.08.08A.13.13,0,0,0,.12,13H1.4v4.87h.16V13h9.72a.47.47,0,0,0,.48-.48V2.71a.36.36,0,0,0-.35-.37Zm.2,10.17a.31.31,0,0,1-.3.3H1.56V9.48a10.08,10.08,0,0,1,.6-3.36C2.74,4.83,3.86,2.65,5,2.53s5.53,0,6.41,0a.21.21,0,0,1,.2.2Z" style="fill:#d2d3d4"/><path id="Path_1535" data-name="Path 1535" d="M11.6,12.51a.3.3,0,0,1-.3.3H1.56V9.48a10.17,10.17,0,0,1,.6-3.36C2.74,4.83,3.86,2.65,5,2.53s5.53,0,6.41,0a.21.21,0,0,1,.2.2Z" style="fill:#f1f2f2"/><path id="Path_1536" data-name="Path 1536" d="M23.45,17.52H13.23V2.67a.36.36,0,0,1,.35-.36h9.51a.36.36,0,0,1,.36.35h0Zm-10.06-.16h9.88V2.67a.2.2,0,0,0-.2-.2H13.59a.2.2,0,0,0-.2.2Z" style="fill:#d2d3d4"/><path id="Path_1537" data-name="Path 1537" d="M10.52,10.63H9.66a.44.44,0,0,0-.44.44h0a.44.44,0,0,0,.44.44h.86a.44.44,0,0,0,.44-.44h0a.42.42,0,0,0-.42-.44Z" style="fill:#231f20"/><path id="Path_1538" data-name="Path 1538" d="M10.86,11.11a.38.38,0,0,0-.38-.38H9.72a.39.39,0,0,0-.38.38Z" style="fill:#333332"/><circle id="Ellipse_151" data-name="Ellipse 151" cx="11.12" cy="11.73" r="0.16" style="fill:#231f20"/><path id="Path_1539" data-name="Path 1539" d="M22.22,10.63h-.86a.44.44,0,0,0-.44.44h0a.44.44,0,0,0,.44.44h.86a.45.45,0,0,0,.45-.44h0A.45.45,0,0,0,22.22,10.63Z" style="fill:#231f20"/><path id="Path_1540" data-name="Path 1540" d="M22.55,11.11a.39.39,0,0,0-.38-.38H21.4a.39.39,0,0,0-.38.38Z" style="fill:#333332"/><circle id="Ellipse_152" data-name="Ellipse 152" cx="22.81" cy="11.73" r="0.16" style="fill:#231f20"/><path id="Path_1541" data-name="Path 1541" d="M5.67,15.13v.16H.26l.12-.08a.3.3,0,0,1-.22-.08Z" style="fill:#d2d3d4"/><path id="Path_1542" data-name="Path 1542" d="M.1,15a.23.23,0,0,0,.21.25h.83a.1.1,0,0,0,.1-.1v-.7c-.38,0-.76.1-1.14.12Z" style="fill:#f79520"/><path id="Path_1543" data-name="Path 1543" d="M.24,12.89A.15.15,0,0,0,.1,13h0v1.48l1.14-.12V13a.1.1,0,0,0-.1-.1Z" style="fill:#fff"/><path id="Path_1544" data-name="Path 1544" d="M27.24,15.3H12.09v-.16h15A4,4,0,0,1,28,13.79a4.67,4.67,0,0,1,3.55-1.4,4.43,4.43,0,0,1,3.43,1.3,3.47,3.47,0,0,1,.72,1.25l8-.2v.16l-8.12.2,0-.06a3,3,0,0,0-.7-1.25,4.35,4.35,0,0,0-3.29-1.22,4.16,4.16,0,0,0-4.23,2.71Z" style="fill:#d2d3d4"/><path id="Path_1545" data-name="Path 1545" d="M43.53,7.56a25.6,25.6,0,0,0-.6-4.45,3.83,3.83,0,0,0-.16-.58h-.16a.16.16,0,0,0-.17.15.17.17,0,0,0,0,.07A19.4,19.4,0,0,1,43,6.62v1l.56,0a.19.19,0,0,1,0-.08Z" style="fill:#333332"/><path id="Path_1546" data-name="Path 1546" d="M43.53,7.62a5.27,5.27,0,0,1-.56,0V9l.6.06C43.57,8.56,43.57,8.06,43.53,7.62Z" style="fill:#fbab19"/><path id="Path_1547" data-name="Path 1547" d="M43,9v1.16a.23.23,0,0,0,.22.24h.34c0-.42,0-.88,0-1.36A4,4,0,0,1,43,9Z" style="fill:#e41e26"/><path id="Path_1548" data-name="Path 1548" d="M12.63,6.74h-.42A.22.22,0,0,0,12,7a.23.23,0,0,0,.21.21h.42A.22.22,0,0,0,12.86,7a.21.21,0,0,0-.2-.23Z" style="fill:#e41e26"/><path id="Path_1549" data-name="Path 1549" d="M7.66,7.9l3-.08a.29.29,0,0,0,.28-.3V3.21a.36.36,0,0,0-.36-.36H5.07a1,1,0,0,0-.76.34A10.78,10.78,0,0,0,2.24,7.5a7.74,7.74,0,0,0-.16,1.27v1.46a.31.31,0,0,0,.3.3h1A2,2,0,0,0,4.59,10c.52-.54,1.8-1.69,1.8-1.69A2.11,2.11,0,0,1,7.66,7.9Z" style="fill:#333332"/><path id="Path_1550" data-name="Path 1550" d="M7.38,7.62l3.06-.08a.26.26,0,0,0,.26-.26V3.41a.31.31,0,0,0-.31-.32H5.11a.92.92,0,0,0-.68.3A9.28,9.28,0,0,0,2.55,7.28,7.26,7.26,0,0,0,2.4,8.42V9.94a.29.29,0,0,0,.27.29h.82a1.53,1.53,0,0,0,.92-.5C4.87,9.24,6.23,8,6.23,8A1.83,1.83,0,0,1,7.38,7.62Z" style="fill:#010101"/><path id="Path_1551" data-name="Path 1551" d="M14.39,2.87h8.34a.24.24,0,0,1,.24.24v5a.24.24,0,0,1-.24.24H15.61a.28.28,0,0,1-.26-.2L14.11,3.17a.28.28,0,0,1,.26-.3Z" style="fill:#333332"/><path id="Path_1552" data-name="Path 1552" d="M14.55,3.11h7.94a.23.23,0,0,1,.24.22V7.84a.23.23,0,0,1-.22.24H15.73A.13.13,0,0,1,15.61,8L14.43,3.25A.14.14,0,0,1,14.55,3.11Z" style="fill:#010101"/><path id="Path_1553" data-name="Path 1553" d="M40.49,8.32H24a.22.22,0,0,1-.22-.22v-5A.22.22,0,0,1,24,2.87H41a.73.73,0,0,1,.72.74v0l-.24,3.73a1,1,0,0,1-1,.94Z" style="fill:#d2d3d4"/><path id="Path_1554" data-name="Path 1554" d="M40.47,8.16H24.13a.22.22,0,0,1-.22-.22V3.25A.22.22,0,0,1,24.13,3H41a.57.57,0,0,1,.56.58v0l-.26,3.75A.82.82,0,0,1,40.47,8.16Z" style="fill:#f1f2f2"/><path id="Path_1555" data-name="Path 1555" d="M0,17H5A8,8,0,0,0,5,18.08H1.72s-.24.06-.24-.24c0,0-.06.26-.26.26h-1s-.22,0-.22-.22Z" style="fill:#333332"/><path id="Path_1556" data-name="Path 1556" d="M27.54,17.44a5.7,5.7,0,0,0-.06.58.32.32,0,0,1-.27.36H13s-.18,0-.18-.28a3.68,3.68,0,0,0-.06-.66Z" style="fill:#333332"/><path id="Path_1557" data-name="Path 1557" d="M43.69,15.15c0,.24-.2.9-.32,1.36l-1.26.08.28-2.86.9-.08c0,.16,0,.54.12.62s.2.16.2.5S43.75,14.79,43.69,15.15Z" style="fill:#a8a9ac"/><path id="Path_1558" data-name="Path 1558" d="M43.37,16.52c-.08.28-.12.48-.12.48s0,.32-.6.38c-.08,0-.3,0-.6.06l.08-.82Z" style="fill:#333332"/><path id="Path_1559" data-name="Path 1559" d="M42.12,16.62l-.08.82-6.8.58a6.76,6.76,0,0,0,0-.9Z" style="fill:#333332"/><path id="Path_1560" data-name="Path 1560" d="M2.81,7.52v.66a.26.26,0,0,0,.26.26h.8a.26.26,0,0,0,.26-.26V6.58a.26.26,0,0,0-.26-.26H3.41a.4.4,0,0,0-.29.12l-.2.2a.45.45,0,0,0-.12.28v.42H2.64a.15.15,0,0,0-.14.13h0V8.6a0,0,0,0,1,0,0h-.1s-.07,0-.08.08h0s0,.08.08.08h.16a.09.09,0,0,0,.1-.1V7.58a0,0,0,0,1,0,0h0Z" style="fill:#333332"/><circle id="Ellipse_153" data-name="Ellipse 153" cx="0.42" cy="14.87" r="0.18" style="fill:#fbab19"/><circle id="Ellipse_154" data-name="Ellipse 154" cx="0.9" cy="14.83" r="0.22" style="fill:#fbab19"/><g id="Group_408" data-name="Group 408"><path id="Path_1561" data-name="Path 1561" d="M29.76,17.32A1.73,1.73,0,1,1,31.49,19a1.68,1.68,0,0,1-1.21-.5A1.74,1.74,0,0,1,29.76,17.32Z" style="fill:#434856"/><g id="Group_407" data-name="Group 407"><g id="Group_401" data-name="Group 401"><path id="Path_1562" data-name="Path 1562" d="M30.91,17.34v0A.46.46,0,0,1,31,17l-.75-1a2.45,2.45,0,0,1,.52-.34l.53,1.12.14,0,.2,0,.6-1.1a1.43,1.43,0,0,1,.52.36l-.85,1a.51.51,0,0,1,.1.32v0l1.27.34a1.49,1.49,0,0,1-.24.58l-1.17-.6a.55.55,0,0,1-.26.18l.16,1.26a1,1,0,0,1-.3,0l-.32,0,.12-1.26a.68.68,0,0,1-.26-.18l-1.1.58a2.39,2.39,0,0,1-.22-.58Z" style="fill:#e6e7e8"/></g><g id="Group_406" data-name="Group 406"><g id="Group_404" data-name="Group 404"><g id="Group_402" data-name="Group 402"><ellipse id="Ellipse_155" data-name="Ellipse 155" cx="31.49" cy="17.02" rx="0.12" ry="0.1" style="fill:#434856"/><path id="Path_1563" data-name="Path 1563" d="M31.37,17.58c0,.06,0,.1.12.1s.12,0,.12-.1,0-.1-.12-.1S31.37,17.52,31.37,17.58Z" style="fill:#434856"/></g><g id="Group_403" data-name="Group 403"><path id="Path_1564" data-name="Path 1564" d="M31.21,17.42a.12.12,0,0,0,.12-.1c0-.06,0-.1-.12-.1a.11.11,0,0,0-.12.1A.12.12,0,0,0,31.21,17.42Z" style="fill:#434856"/><ellipse id="Ellipse_156" data-name="Ellipse 156" cx="31.77" cy="17.3" rx="0.12" ry="0.1" style="fill:#434856"/></g></g><g id="Group_405" data-name="Group 405"><path id="Path_1565" data-name="Path 1565" d="M28.34,17.32a3.17,3.17,0,1,0,3.19-3.15h0A3.17,3.17,0,0,0,28.34,17.32Zm1.3,0a1.89,1.89,0,1,1,1.9,1.86h0A1.88,1.88,0,0,1,29.64,17.32Z" style="fill:#333332"/></g></g></g><path id="Path_1566" data-name="Path 1566" d="M29.46,17.32a2,2,0,1,0,2.05-2A2.05,2.05,0,0,0,29.46,17.32Zm.3,0a1.72,1.72,0,1,1,.51,1.22A1.73,1.73,0,0,1,29.76,17.32Z" style="fill:#d2d3d4"/></g><g id="Group_416" data-name="Group 416"><path id="Path_1567" data-name="Path 1567" d="M7.1,17.32A1.73,1.73,0,1,1,8.83,19,1.72,1.72,0,0,1,7.1,17.32Z" style="fill:#434856"/><g id="Group_415" data-name="Group 415"><g id="Group_409" data-name="Group 409"><path id="Path_1568" data-name="Path 1568" d="M8.24,17.34v0A.46.46,0,0,1,8.36,17l-.74-1a2,2,0,0,1,.52-.33l.52,1.12a.22.22,0,0,1,.14,0,.48.48,0,0,1,.2,0l.6-1.1a1.35,1.35,0,0,1,.52.36l-.84,1a.75.75,0,0,1,.1.32v0l1.26.34a1.35,1.35,0,0,1-.24.58l-1.16-.6a.51.51,0,0,1-.26.18l.16,1.27-.3,0-.33,0,.12-1.27a.51.51,0,0,1-.26-.18l-1.1.56a2.25,2.25,0,0,1-.22-.58Z" style="fill:#e6e7e8"/></g><g id="Group_414" data-name="Group 414"><g id="Group_412" data-name="Group 412"><g id="Group_410" data-name="Group 410"><ellipse id="Ellipse_157" data-name="Ellipse 157" cx="8.82" cy="17.02" rx="0.12" ry="0.1" style="fill:#434856"/><path id="Path_1569" data-name="Path 1569" d="M8.7,17.58c0,.06,0,.1.12.1a.12.12,0,0,0,.12-.1c0-.06,0-.1-.12-.1A.12.12,0,0,0,8.7,17.58Z" style="fill:#434856"/></g><g id="Group_411" data-name="Group 411"><path id="Path_1570" data-name="Path 1570" d="M8.54,17.42a.12.12,0,0,0,.12-.1c0-.06,0-.1-.12-.1a.11.11,0,0,0-.12.1A.12.12,0,0,0,8.54,17.42Z" style="fill:#434856"/><ellipse id="Ellipse_158" data-name="Ellipse 158" cx="9.1" cy="17.3" rx="0.12" ry="0.1" style="fill:#434856"/></g></g><g id="Group_413" data-name="Group 413"><path id="Path_1571" data-name="Path 1571" d="M5.67,17.32a3.16,3.16,0,1,0,.94-2.24A3.19,3.19,0,0,0,5.67,17.32Zm1.29,0a1.88,1.88,0,1,1,1.9,1.86h0A1.88,1.88,0,0,1,7,17.32Z" style="fill:#333332"/></g></g></g><path id="Path_1572" data-name="Path 1572" d="M6.79,17.32a2,2,0,1,0,2.05-2.05,2.05,2.05,0,0,0-2,2.05Zm.3,0a1.74,1.74,0,1,1,.52,1.22A1.74,1.74,0,0,1,7.09,17.32Z" style="fill:#d2d3d4"/></g></g></g></g></svg>