<svg xmlns="http://www.w3.org/2000/svg" xmlns:xlink="http://www.w3.org/1999/xlink" width="33.651" height="27.032" viewBox="0 0 33.651 27.032">
  <defs>
    <filter id="Path_4868" x="0" y="3.361" width="33.651" height="23.67" filterUnits="userSpaceOnUse">
      <feOffset dy="3" input="SourceAlpha"/>
      <feGaussianBlur stdDeviation="3" result="blur"/>
      <feFlood flood-opacity="0.161"/>
      <feComposite operator="in" in2="blur"/>
      <feComposite in="SourceGraphic"/>
    </filter>
    <filter id="Path_4869" x="0" y="0" width="33.651" height="22.931" filterUnits="userSpaceOnUse">
      <feOffset dy="3" input="SourceAlpha"/>
      <feGaussianBlur stdDeviation="3" result="blur-2"/>
      <feFlood flood-opacity="0.161"/>
      <feComposite operator="in" in2="blur-2"/>
      <feComposite in="SourceGraphic"/>
    </filter>
  </defs>
  <g id="fast-forward" transform="translate(88.664 -52.771) rotate(90)">
    <g id="Group_4191" data-name="Group 4191" transform="translate(62.132 64.013)">
      <g id="Group_4190" data-name="Group 4190">
        <g transform="matrix(0, -1, 1, 0, -9.36, 24.65)" filter="url(#Path_4868)">
          <path id="Path_4868-2" data-name="Path 4868" d="M213.585,71.363l-3-7.114c-.064-.151-.153-.236-.248-.236h-2c-.131,0-.251.165-.3.421a1.382,1.382,0,0,0,.057.765l2.8,6.639-2.8,6.637a1.378,1.378,0,0,0-.057.765c.054.258.173.423.3.423h2c.095,0,.184-.087.248-.235l3-7.114A1.367,1.367,0,0,0,213.585,71.363Z" transform="translate(88.66 -198.64) rotate(90)" fill="#008af6"/>
        </g>
      </g>
    </g>
    <g id="Group_4195" data-name="Group 4195" transform="translate(66.201 64.013)" opacity="0">
      <g id="Group_4190-2" data-name="Group 4190">
        <path id="Path_4868-3" data-name="Path 4868" d="M213.585,71.363l-3-7.114c-.064-.151-.153-.236-.248-.236h-2c-.131,0-.251.165-.3.421a1.382,1.382,0,0,0,.057.765l2.8,6.639-2.8,6.637a1.378,1.378,0,0,0-.057.765c.054.258.173.423.3.423h2c.095,0,.184-.087.248-.235l3-7.114A1.367,1.367,0,0,0,213.585,71.363Z" transform="translate(-208 -64.013)" fill="#008af6"/>
      </g>
    </g>
    <g id="Group_4193" data-name="Group 4193" transform="translate(58.771 64.013)" opacity="0.412">
      <g id="Group_4192" data-name="Group 4192">
        <g transform="matrix(0, -1, 1, 0, -6, 24.65)" filter="url(#Path_4869)">
          <path id="Path_4869-2" data-name="Path 4869" d="M4.856,71.363l-2.61-7.114c-.056-.151-.133-.236-.216-.236H.29c-.114,0-.218.165-.265.421a1.579,1.579,0,0,0,.049.765L2.51,71.838.075,78.476a1.574,1.574,0,0,0-.049.765c.047.258.151.423.265.423H2.03c.082,0,.16-.087.216-.235l2.61-7.114A1.56,1.56,0,0,0,4.856,71.363Z" transform="translate(88.66 6) rotate(90)" fill="#008af6"/>
        </g>
      </g>
    </g>
  </g>
</svg>
