<svg xmlns="http://www.w3.org/2000/svg" width="29.242" height="28.242" viewBox="0 0 29.242 28.242">
  <g id="Group_4424" data-name="Group 4424" transform="translate(-6608.379 -5619.379)">
    <g id="edit_3_" data-name="edit (3)" transform="translate(6611 5619.739)">
      <path id="Path_831" data-name="Path 831" d="M22.731,52.163a.613.613,0,0,0-.613.613v5.446a1.842,1.842,0,0,1-1.84,1.84H3.067a1.842,1.842,0,0,1-1.84-1.84V42.239a1.842,1.842,0,0,1,1.84-1.84H8.513a.613.613,0,0,0,0-1.227H3.067A3.07,3.07,0,0,0,0,42.239V58.223A3.07,3.07,0,0,0,3.067,61.29H20.278a3.07,3.07,0,0,0,3.067-3.067V52.777A.613.613,0,0,0,22.731,52.163Zm0,0" transform="translate(0 -36.524)" fill="#fff"/>
      <path id="Path_832" data-name="Path 832" d="M124.655,1.069a2.76,2.76,0,0,0-3.9,0L109.809,12.012a.613.613,0,0,0-.157.27l-1.439,5.2a.613.613,0,0,0,.755.755l5.2-1.439a.613.613,0,0,0,.27-.157L125.375,5.693a2.763,2.763,0,0,0,0-3.9Zm-13.51,11.342L120.1,3.455l2.888,2.888L114.033,15.3Zm-.577,1.158,2.308,2.308-3.192.884Zm13.94-8.744-.651.651-2.889-2.889.651-.651a1.533,1.533,0,0,1,2.168,0l.72.72A1.536,1.536,0,0,1,124.508,4.825Zm0,0" transform="translate(-101.554 0)" fill="#fff"/>
    </g>
    <line id="Line_79" data-name="Line 79" x1="25" y1="24" transform="translate(6610.5 5621.5)" fill="none" stroke="#ff5c5c" stroke-linecap="round" stroke-width="3"/>
  </g>
</svg>
