<svg id="Layer_1" data-name="Layer 1" xmlns="http://www.w3.org/2000/svg" viewBox="0 0 84.58 27.19"><title>notpayed</title><g id="Group_4435" data-name="Group 4435"><path id="Path_3666" data-name="Path 3666" d="M0,13.18V26.35l34.36,0c18.87,0,34.16,0,34,.09-.46.09-.48.26-.06.5.23.14.32.14.32,0s.21-.09.63.06c.78.29,1.13.17,1-.31l-.09-.37H84.58V5.8l-.49,0c-.31,0-.48-.16-.5-.42s-.06-.38.15,0c.4.7.74.4.8-.7,0-.85,0-1.06-.29-1.14-.5-.14-.57,0-.32.61s.17.81-.42.43l-.44-.29,0,1.45c0,.79,0,5.54,0,10.54l0,9.11H67.72L68,25c.21-.26.29-.28.56-.11s.32.17.24,0a1.19,1.19,0,0,0-.57-.4c-1.35-.49-1-.52,6-.52h7V7.77l-.57,0h-.59l.53-.12.53-.13-.47-.1c-.27-.06-.48-.17-.48-.25s.5-.16.8.05.25,0,.25-.68-.08-.89-.42-1c-.53-.21-.55-.45,0-.45.34,0,.4-.12.4-.75s-.06-.76-.4-.82a.46.46,0,0,1-.4-.4c0-.43.57-.41.69,0,.07.26.11.22.13-.15s-.06-.49-.38-.49a.75.75,0,0,0-.53.19c-.1.15-.14.15-.25,0s-3.26-.19-14.85-.19c-13.38,0-14.69,0-14.39.25s.4.24,0,.73c-.23.33-.32.37-.42.17A.3.3,0,0,0,50,3.44c-.17.08-.19,0-.11-.23.28-.79.45-.77-7.53-.77-7.36,0-7.43,0-7.53.32a.29.29,0,0,1-.34.22.28.28,0,0,1-.23-.33c0-.18-2.14-.21-15.46-.21H3.37V23.92H60.59l.21.38a.6.6,0,0,0,.77.33.54.54,0,0,0,.26-.21c.17-.23.23-.23.57-.05s.36.2.25,0-.33-.21-.77-.18-.66,0-.66-.12a22.27,22.27,0,0,1,5.16,0c.06.08,0,.19-.11.25a.41.41,0,0,0-.21.32c0,.16.13.2.47.13s.42-.06.31.16a1,1,0,0,0-.14.32S52,25.29,34,25.29H1.26V1.07H23.42c17.44,0,22.21-.05,22.42-.2s.3-.16.38,0,3.1.25,3.45-.05.28-.21.45,0,1.72.24,13.71.24c11.78,0,13.57,0,13.8-.22s.21-.23,0-.23A1.49,1.49,0,0,1,76.9.3C76.52,0,76.25,0,67.47,0h-9l.1.43c.13.44.11.44-1.18.35-.1,0-.12-.14,0-.3s0-.3-.36-.37C56.17,0,35.17,0,35.05.13A1.38,1.38,0,0,1,34,.11C33.87.05,26.19,0,16.89,0H0ZM44.65,3.46a1,1,0,0,0,.56.2A2.18,2.18,0,0,1,46.5,5c0,.23.15.29.74.29a10.65,10.65,0,0,0,1.68-.18,2,2,0,0,1,1.37,0c.48.21,1.05.24,1.05,0s.21-.16.48-.2.44-.13.42-.36.11-.37.43-.43c.84-.17,1-.11,1,.37a.55.55,0,0,1-.46.61c-.29.07,4.25.13,11.78.13l12.25,0V21H73.66c-3.79,0-4.21-.08-4-.76.17-.49-.42-.37-1.18.22l-.67.54H7.36V5.33H24.83c14.5,0,17.44,0,17.33-.2s0-.3.23-.41.32-.14.32.21,0,.4,1.49.4h1.5L45,4.75c-.36-.3-.9-.7-1.18-.88l-.53-.3.49-.44c.44-.41.48-.41.57-.15A1,1,0,0,0,44.65,3.46Zm34,.53c0,.4-.5.27-.59-.15-.07-.24,0-.3.25-.24A.45.45,0,0,1,78.69,4Z" style="fill:#ff5c5c"/></g></svg>