<svg xmlns="http://www.w3.org/2000/svg" viewBox="0 0 126.14 40.56"><title>paid off</title><g id="Layer_2" data-name="Layer 2"><g id="Layer_1-2" data-name="Layer 1"><g id="Group_3012" data-name="Group 3012"><path id="Path_3666" data-name="Path 3666" d="M0,19.66V39.3l51.24,0c28.15,0,51,.06,50.68.13-.69.14-.73.39-.1.75.35.2.47.2.47,0s.32-.14.94.09c1.17.43,1.7.25,1.48-.48l-.13-.55h21.56V8.66l-.72-.07c-.47-.05-.72-.25-.76-.64-.09-.57-.09-.57.22-.07.61,1,1.11.6,1.2-1,.06-1.27,0-1.59-.44-1.7-.76-.2-.85,0-.47.91s.25,1.2-.63.63l-.66-.43.06,2.16c.07,1.18.07,8.27,0,15.72l0,13.59H101l.34-.48c.32-.39.44-.41.85-.16s.47.25.34,0a1.57,1.57,0,0,0-.84-.59c-2-.73-1.51-.78,9-.78h10.42V11.59l-.85,0-.88,0,.79-.19.78-.18-.69-.16c-.41-.09-.72-.25-.72-.36,0-.3.75-.25,1.19.07.28.2.38,0,.38-1s-.13-1.32-.63-1.53c-.78-.31-.82-.68,0-.68.5,0,.6-.18.6-1.11s-.09-1.14-.6-1.23a.68.68,0,0,1-.6-.59c0-.63.85-.61,1,0,.09.39.15.32.18-.22s-.09-.73-.56-.73a1.14,1.14,0,0,0-.79.27c-.15.23-.22.23-.37,0s-4.87-.27-22.16-.27c-20,0-21.9,0-21.46.36.6.44.6.37.06,1.09-.34.5-.47.55-.62.25a.45.45,0,0,0-.57-.2c-.25.12-.28,0-.16-.34.41-1.18.66-1.16-11.23-1.16-11,0-11.08,0-11.23.48A.43.43,0,0,1,51.14,4c0-.27-3.2-.32-23.06-.32H5v32H90.37l.31.57a.88.88,0,0,0,1.15.49.85.85,0,0,0,.39-.31c.25-.34.35-.34.85-.07s.53.3.38,0-.5-.32-1.17-.27-1-.05-1-.18c0-.3,7.44-.32,7.69,0,.09.12,0,.28-.16.37a.58.58,0,0,0-.31.47c0,.25.19.3.69.2s.63-.09.47.23a1.74,1.74,0,0,0-.22.48s-22,.09-48.79.09H1.88V1.59h33c26,0,33.14-.06,33.45-.3s.44-.22.57,0c.22.46,4.61.39,5.14-.06.35-.32.41-.32.66,0s2.58.36,20.46.36c17.57,0,20.24-.05,20.59-.34s.31-.34-.07-.34a2.06,2.06,0,0,1-1-.46c-.57-.43-1-.45-14.06-.45H87.17l.16.64c.18.65.15.65-1.76.52-.16,0-.19-.2-.06-.45s0-.46-.54-.55C83.78-.07,52.46,0,52.27.18a2.05,2.05,0,0,1-1.63,0C50.51.07,39.06,0,25.19,0H0ZM66.58,5.16a1.56,1.56,0,0,0,.85.3,3.27,3.27,0,0,1,1.92,2.07c0,.34.22.43,1.1.43A15.17,15.17,0,0,0,73,7.69c1.13-.23,1.56-.23,2,0,.72.31,1.56.36,1.56.06,0-.11.32-.25.73-.3s.66-.2.62-.54.16-.55.63-.64C79.8,6,80,6.11,80,6.82a.83.83,0,0,1-.69.91c-.44.11,6.34.2,17.57.2l18.26,0v23.4h-5.3c-5.65,0-6.27-.11-5.9-1.14.25-.72-.63-.54-1.75.35l-1,.8H11V8H37c21.62,0,26,0,25.85-.3S63,7.2,63.23,7s.47-.2.47.32,0,.59,2.23.59h2.22l-1-.86c-.53-.45-1.35-1-1.75-1.32l-.79-.45.72-.66c.66-.61.73-.61.85-.23a1.66,1.66,0,0,0,.41.73Zm50.77.8c0,.59-.75.41-.87-.23-.1-.36,0-.45.37-.36a.65.65,0,0,1,.5.59Z" style="fill:#4281c3"/><g id="Component_7_542" data-name="Component 7 542"><g id="Lunas" style="isolation:isolate"><text transform="translate(44.35 25.88)" style="isolation:isolate;font-size:14px;fill:#4281c3;font-family:Roboto-Bold, Roboto;font-weight:700"><tspan style="letter-spacing:-0.0068359375em">L</tspan><tspan x="7.49" y="0">unas</tspan></text></g></g></g></g></g></svg>