<svg xmlns="http://www.w3.org/2000/svg" viewBox="0 0 15.71 13.49"><title>pay_blue</title><g id="Layer_2" data-name="Layer 2"><g id="Layer_1-2" data-name="Layer 1"><g id="wallet"><path id="Path_360" data-name="Path 360" d="M14.83,5.86h-.37V3.62A1.66,1.66,0,0,0,12.8,2h-.35V1.12A1.12,1.12,0,0,0,11.33,0h-10A1.36,1.36,0,0,0,0,1.34v11a1.13,1.13,0,0,0,1.12,1.13H12.8a1.67,1.67,0,0,0,1.66-1.67V9.57h.38a.87.87,0,0,0,.87-.87v-2A.89.89,0,0,0,14.83,5.86ZM1.36.77h10a.35.35,0,0,1,.35.35V2H1.36a.6.6,0,0,1,0-1.19ZM13.69,11.82a.9.9,0,0,1-.89.89H1.12a.35.35,0,0,1-.35-.35V2.59a1.35,1.35,0,0,0,.59.14H12.8a.89.89,0,0,1,.89.89V5.86H11.05a.88.88,0,0,0-.88.88v2a.87.87,0,0,0,.88.87h2.64ZM14.94,8.7a.11.11,0,0,1-.1.1H11.05a.1.1,0,0,1-.1-.1v-2a.1.1,0,0,1,.1-.1h3.78a.1.1,0,0,1,.1.1v2Z" style="fill:#4281c3"/></g></g></g></svg>