<svg xmlns="http://www.w3.org/2000/svg" viewBox="0 0 163 105.86"><title>pay customer</title><g id="Layer_2" data-name="Layer 2"><g id="Layer_1-2" data-name="Layer 1"><g id="Group_2185" data-name="Group 2185"><g id="Group_1954" data-name="Group 1954"><path id="Path_1298" data-name="Path 1298" d="M69.64,0C114.65,0,163,22,163,51.86c0,17.3-21.91,13.06-41.26,23.07-13.57,7-21.34,30.93-40.24,30.93-45,0-81.5-24.18-81.5-54S24.62,0,69.64,0Z" fill="#e9f5fc"/></g></g><g id="Group_4658" data-name="Group 4658"><g id="Group_4657" data-name="Group 4657"><g id="Group_4656" data-name="Group 4656"><path id="Path_9441" data-name="Path 9441" d="M121.11,22.19,105.22,8.89l-14.74,7.7L87.15,26.84l26.61,3.6Z" fill="#d3a977" fill-rule="evenodd"/><path id="Path_9442" data-name="Path 9442" d="M91,34.08h0a3.44,3.44,0,0,1-1.78-4.53l0-.05,7-16.53c.74-1.75,3.74-2.35,5.48-1.58h0A3.48,3.48,0,0,1,103.43,16l-7.9,16.35A3.52,3.52,0,0,1,91,34.08Z" fill="#d3a977" fill-rule="evenodd"/><path id="Path_9443" data-name="Path 9443" d="M98.65,34.5h0a3.45,3.45,0,0,1-2.48-4.19v0l5.19-17.4a3.54,3.54,0,0,1,4.24-2.47h0a3.49,3.49,0,0,1,2.47,4.24L102.89,32A3.52,3.52,0,0,1,98.65,34.5Z" fill="#d3a977" fill-rule="evenodd"/><path id="Path_9444" data-name="Path 9444" d="M106.81,34.39h0A3.43,3.43,0,0,1,103.29,31V31l.27-18.15A3.52,3.52,0,0,1,107,9.31h0a3.48,3.48,0,0,1,3.52,3.41l-.27,18.15A3.52,3.52,0,0,1,106.81,34.39Z" fill="#d3a977" fill-rule="evenodd"/><path id="Path_9445" data-name="Path 9445" d="M126.48,15.64C115.78,7,101.39,17.4,95.15,27.56l19.49,2.64Z" fill="#c29562" fill-rule="evenodd"/><path id="Path_9446" data-name="Path 9446" d="M121.77,16.89c6.68-2.07,13.09,6.79,12.37,11.77s-6.69,7.89-13.71,7.27-11-6.47-10.53-9.08S115.08,19,121.77,16.89Z" fill="#eec394" fill-rule="evenodd"/><path id="Path_9447" data-name="Path 9447" d="M129.45,21.39h0c-1,1.65-3.32,2.54-4.74,1.27L107.41,7.21C106,6,105.19,4.13,106.14,2.48h0a3.47,3.47,0,0,1,4.73-1.27l17.3,15.44C129.59,17.93,130.4,19.74,129.45,21.39Z" fill="#eec394" fill-rule="evenodd"/><path id="Path_9448" data-name="Path 9448" d="M91.87,11.42h0a3.51,3.51,0,0,1,2-4.48L107.62,1.1A3.44,3.44,0,0,1,112.07,3l0,.06h0a3.49,3.49,0,0,1-2,4.48L96.35,13.42a3.45,3.45,0,0,1-4.46-1.94Z" fill="#eec394" fill-rule="evenodd"/><path id="Path_9449" data-name="Path 9449" d="M77.72,24.35h0A3.45,3.45,0,0,1,78,19.49l0,0L92,7.87a3.52,3.52,0,0,1,4.9.3h0a3.48,3.48,0,0,1-.3,4.89l-14,11.59A3.51,3.51,0,0,1,77.72,24.35Z" fill="#eec394" fill-rule="evenodd"/><path id="Path_9450" data-name="Path 9450" d="M104.43,10.24c2.72,1.79,13.52,9.23,6.33,13.28s14.17,4.27,14.17,4.27l-1.86-13.41S113.33-.12,104.43,10.24Z" fill="#eec394" fill-rule="evenodd"/><path id="Path_9451" data-name="Path 9451" d="M123.61,14.64c.47,15.41,9,21.09,12,4.29Z" fill="#eec394" fill-rule="evenodd"/><path id="Path_9452" data-name="Path 9452" d="M134.71,17.61l-7.05,20.73,20.47,6.84a29.41,29.41,0,0,0,1.32-3.37V22.59Z" fill="#fff" fill-rule="evenodd"/><path id="Path_9453" data-name="Path 9453" d="M140,17.34l-8.14,24.38,18.39,5.91V20.71Z" fill="#515659" fill-rule="evenodd"/><g id="Group_4655" data-name="Group 4655"><rect id="Rectangle_3358" data-name="Rectangle 3358" x="55.15" y="29.59" width="49.97" height="24.28" transform="matrix(0.31, -0.95, 0.95, 0.31, 15.53, 104.89)" fill="#4281c3"/><path id="Path_9454" data-name="Path 9454" d="M96.66,23,83.36,63.61h0a3.18,3.18,0,0,0-4,2L63.6,60.45,76.9,19.84a3.17,3.17,0,0,0,4-2Z" fill="#6ec4ee" fill-rule="evenodd"/><path id="Path_9455" data-name="Path 9455" d="M87.36,44.1a7.61,7.61,0,1,1-4.86-9.6h0A7.6,7.6,0,0,1,87.36,44.1Z" fill="#4281c3" fill-rule="evenodd"/></g><path id="Path_9457" data-name="Path 9457" d="M117.53,28.15h0A4,4,0,0,1,113.38,32h-.13L91.82,30.84c-2.37-.13-4.35-1.65-4.37-3.72h0a4.07,4.07,0,0,1,4.28-3.8l21.43,1.11C115.53,24.56,117.5,26.08,117.53,28.15Z" fill="#eec394" fill-rule="evenodd"/><path id="Path_9458" data-name="Path 9458" d="M71.16,87.22c-6.3,4.37-33-.56-33.91-6s4.37-10.45,11.91-12.13,30.7,3.66,31.09,6.53S77.46,82.85,71.16,87.22Z" fill="#eec394" fill-rule="evenodd"/><path id="Path_9459" data-name="Path 9459" d="M61.17,88.1h0a3.9,3.9,0,0,1,.95-5.44l.13-.09,35.23-12c4-1.38,7.36,2.34,8,5.31L66.7,89.18C64.63,89.9,62.39,89.92,61.17,88.1Z" fill="#eec394" fill-rule="evenodd"/><path id="Path_9460" data-name="Path 9460" d="M53.68,74h0a3.92,3.92,0,0,1,3.83-4h.16L77.4,71.41a4.11,4.11,0,0,1,4,4h0a4,4,0,0,1-4,4L57.66,78A4.11,4.11,0,0,1,53.68,74Z" fill="#d3a977" fill-rule="evenodd"/><path id="Path_9461" data-name="Path 9461" d="M48.28,72.78h0a3.92,3.92,0,0,1,3.83-4h.16L77,70.5a4.1,4.1,0,0,1,4,4h0a4,4,0,0,1-4,4l-24.74-1.7A4.1,4.1,0,0,1,48.28,72.78Z" fill="#eec394" fill-rule="evenodd"/><path id="Path_9462" data-name="Path 9462" d="M28.66,83.56h0a3.92,3.92,0,0,1,4-3.79h.16l31.7,1.94a4,4,0,0,1,3.79,4.18h0a4,4,0,0,1-4.18,3.79l-31.7-1.94A4,4,0,0,1,28.66,83.56Z" fill="#eec394" fill-rule="evenodd"/><path id="Path_9463" data-name="Path 9463" d="M40.08,72.35l.27,21.3H23.19a118.77,118.77,0,0,1,.84-20c.58-3,.18-.88.27-1.31Z" fill="#fff" fill-rule="evenodd"/><path id="Path_9464" data-name="Path 9464" d="M34.71,70.54l.29,25H21.66v-25Z" fill="#4281c3" fill-rule="evenodd"/><path id="Path_9465" data-name="Path 9465" d="M29.08,92.92a2.14,2.14,0,1,0-2.14-2.14h0A2.14,2.14,0,0,0,29.08,92.92Z" fill="#fff" fill-rule="evenodd"/><path id="Path_9466" data-name="Path 9466" d="M139.05,42a2.15,2.15,0,1,0-2.14-2.14h0A2.16,2.16,0,0,0,139.05,42Z" fill="#fff" fill-rule="evenodd"/><path id="Path_9467" data-name="Path 9467" d="M92.77,30.2h-.89c-5.32-.07-4.81-6.5,0-6.22l.94.05C94.66,24.13,94,30.22,92.77,30.2Z" fill="#f1dcc3" fill-rule="evenodd"/><path id="Path_9468" data-name="Path 9468" d="M75.24,77.55l.89.11c5.27.69,5.65-6.08.84-6.49l-1-.08C73.93,70.91,73.73,77.38,75.24,77.55Z" fill="#f1dcc3" fill-rule="evenodd"/><path id="Path_9469" data-name="Path 9469" d="M104.92,74.27c-1.81.6-3.5,1.17-3.79,1.3-.62.26-.75,1-.6,2l5-1.7A6.68,6.68,0,0,0,104.92,74.27Z" fill="#f1dcc3" fill-rule="evenodd"/></g></g><path id="Path_9475" data-name="Path 9475" d="M79.85,45.92l-.51,1.42,3.17,1.16-.65,1.79-8.68-3.16,1.17-3.23a3.93,3.93,0,0,1,1.55-2.12,2.55,2.55,0,0,1,2.25-.13,2.89,2.89,0,0,1,1.34.92A2.83,2.83,0,0,1,80,44.08l4.23-.58.09,0-.7,1.92Zm-2,.9.52-1.45a1.58,1.58,0,0,0,0-1.17,1.32,1.32,0,0,0-.82-.71,1.38,1.38,0,0,0-1.09,0,1.55,1.55,0,0,0-.74.94l-.52,1.44Zm5.72-11.18a4.16,4.16,0,0,1,2.14,1.55A2.31,2.31,0,0,1,86,39.35a2.13,2.13,0,0,1-1.26,1.33l3,1.11-.63,1.72-8.93-3.25.58-1.6.65.17a2.13,2.13,0,0,1-.16-1.9,2.32,2.32,0,0,1,1.56-1.54,4.29,4.29,0,0,1,2.67.23Zm-.75,1.68a2.79,2.79,0,0,0-1.51-.18,1.11,1.11,0,0,0-.83.75,1.21,1.21,0,0,0,.22,1.34l2.64,1a1.22,1.22,0,0,0,1.05-.89C84.73,38.47,84.2,37.81,82.86,37.32Z" fill="#fff"/></g></g></g></svg>