<svg xmlns="http://www.w3.org/2000/svg" width="86.567" height="27.833" viewBox="0 0 86.567 27.833">
  <g id="Group_4418" data-name="Group 4418" transform="translate(-250.646 -263.125)">
    <path id="Path_3666" data-name="Path 3666" d="M0,13.486V26.973l35.165.016c19.316.016,34.971.047,34.778.094q-.711.14-.065.514c.237.14.323.14.323.016s.215-.094.646.062c.8.3,1.163.172,1.012-.327l-.086-.374H86.567V5.94l-.5-.047c-.323-.031-.5-.171-.517-.436-.065-.39-.065-.39.151-.047.409.717.754.405.818-.717.043-.873-.022-1.091-.3-1.169-.517-.14-.581-.031-.323.624.28.717.172.826-.431.437l-.452-.3.043,1.481c.043.811.043,5.675.022,10.789l-.022,9.324H69.318l.237-.327c.215-.265.3-.281.581-.109.3.171.323.171.237-.031a1.124,1.124,0,0,0-.581-.405c-1.378-.5-1.034-.53,6.18-.53h7.149V7.952l-.581-.016-.6-.016.538-.125.538-.125-.474-.109c-.28-.062-.5-.171-.5-.249,0-.2.517-.172.818.047.194.14.258-.016.258-.7,0-.717-.086-.9-.431-1.045-.538-.218-.56-.468-.022-.468.345,0,.409-.125.409-.764.022-.624-.065-.78-.409-.842a.463.463,0,0,1-.409-.405c0-.437.581-.421.711.016.065.265.108.218.129-.156.022-.39-.065-.5-.388-.5a.754.754,0,0,0-.538.187c-.108.156-.151.156-.258,0-.086-.14-3.338-.187-15.2-.187-13.7,0-15.031.016-14.729.249.409.3.409.249.043.748-.237.343-.323.374-.431.171a.3.3,0,0,0-.388-.14c-.172.078-.194,0-.108-.234.28-.811.452-.8-7.709-.8-7.537,0-7.6,0-7.709.327a.3.3,0,0,1-.581-.109c0-.187-2.2-.218-15.828-.218H3.445V24.478H62.018l.215.39a.6.6,0,0,0,1.055.125c.172-.234.237-.234.581-.047.323.2.366.2.258,0-.065-.156-.345-.218-.8-.187-.366.016-.668-.031-.668-.125a22.923,22.923,0,0,1,5.276-.016c.065.078.022.187-.108.249a.41.41,0,0,0-.215.327c0,.172.129.2.474.14.366-.094.431-.062.323.156a1.231,1.231,0,0,0-.151.327c0,.031-15.074.062-33.486.062H1.292V1.091H23.967c17.852,0,22.74-.047,22.955-.2.237-.156.3-.156.388,0,.151.312,3.166.265,3.532-.047.237-.218.28-.218.452,0s1.766.249,14.04.249c12.059,0,13.889-.031,14.126-.234.215-.187.215-.234-.043-.234a1.448,1.448,0,0,1-.711-.312C78.319.016,78.04,0,69.06,0H59.822l.108.437c.129.452.108.452-1.206.359-.108-.016-.129-.14-.043-.312.086-.218,0-.312-.366-.374C57.5-.047,36-.016,35.876.125a1.4,1.4,0,0,1-1.12-.016C34.67.047,26.81,0,17.292,0H0ZM45.7,3.539a1.04,1.04,0,0,0,.581.2A2.235,2.235,0,0,1,47.59,5.161c0,.234.151.3.754.3a10.566,10.566,0,0,0,1.723-.187c.775-.156,1.077-.156,1.4,0,.5.218,1.077.249,1.077.047,0-.078.215-.172.5-.2.345-.031.452-.14.431-.374-.043-.234.108-.374.431-.437.861-.171,1.012-.109,1.012.374a.57.57,0,0,1-.474.624c-.3.078,4.35.14,12.059.14l12.533.016V21.516H75.391c-3.876,0-4.307-.078-4.048-.78.172-.5-.431-.374-1.206.234l-.689.546H7.537V5.457H25.41c14.837,0,17.852-.031,17.744-.2-.065-.125.043-.312.237-.421.28-.172.323-.14.323.218,0,.405.022.405,1.529.405h1.529l-.689-.592c-.366-.312-.926-.717-1.206-.9l-.538-.312.5-.452c.452-.421.5-.421.581-.156A1.171,1.171,0,0,0,45.7,3.539Zm34.842.546c0,.405-.517.281-.6-.156-.065-.249.022-.312.258-.249A.455.455,0,0,1,80.537,4.085Z" transform="translate(250.646 263.125)" fill="#008af6"/>
    <g id="Component_7_1894" data-name="Component 7 – 1894" transform="translate(281.213 270.638)">
      <text id="Lunas" transform="translate(0 9)" fill="#008af6" font-size="9" font-family="Roboto-Bold, Roboto" font-weight="700"><tspan x="0" y="0">Lunas</tspan></text>
    </g>
  </g>
</svg>
