<svg xmlns="http://www.w3.org/2000/svg" viewBox="0 0 391.65 121.64"><title>pembayaran3</title><g id="Layer_2" data-name="Layer 2"><g id="Layer_1-2" data-name="Layer 1"><g id="Group_6988" data-name="Group 6988"><g id="Group_6984" data-name="Group 6984"><g id="Group_6981" data-name="Group 6981"><g id="Group_6966" data-name="Group 6966"><g id="Group_6953" data-name="Group 6953"><g id="Group_5579" data-name="Group 5579"><path id="Subtraction_49-2" data-name="Subtraction 49-2" d="M385.49,120l-379,1.63a6,6,0,0,1-6-6L0,7.67a6,6,0,0,1,6-6L385,0a6,6,0,0,1,6,6l.46,108A6,6,0,0,1,385.49,120Z" fill="#7389ba"/></g><g id="Group_6443" data-name="Group 6443"><g id="Group_6441" data-name="Group 6441"><path id="Path_13390" data-name="Path 13390" d="M1.07,80.15s10.09-37,31.05-15.57,22,26.52,37,17.11,19.56-16.34,47.34-5,12-27,42.77-47.61c9.25-6.21,36.79,1.07,48.38-4.33C233.86,12.5,239.68,1.15,239.68,1.15" fill="none" stroke="#75b9e6" stroke-width="2"/><g id="Group_6426" data-name="Group 6426"><path id="Path_13391" data-name="Path 13391" d="M141.9,121s4.9-20.26,37.5-32,57.9.57,84-15.7,10.43-36.23,20.4-49.42,20.25-3.68,20.25-3.68l.59,94.68a9.32,9.32,0,0,1-1.56,3.27,9.53,9.53,0,0,1-3.79,2.2Z" fill="#60719a"/><g id="Group_6418" data-name="Group 6418"><circle id="Ellipse_1613" data-name="Ellipse 1613" cx="148.48" cy="119.03" r="2" fill="#829bcf"/><circle id="Ellipse_1614" data-name="Ellipse 1614" cx="153.45" cy="111.01" r="2" fill="#829bcf"/><circle id="Ellipse_1615" data-name="Ellipse 1615" cx="160.42" cy="104.98" r="2" fill="#829bcf"/><circle id="Ellipse_1616" data-name="Ellipse 1616" cx="168.39" cy="98.95" r="2" fill="#829bcf"/><circle id="Ellipse_1617" data-name="Ellipse 1617" cx="177.37" cy="93.91" r="2" fill="#829bcf"/><circle id="Ellipse_1618" data-name="Ellipse 1618" cx="187.36" cy="90.87" r="2" fill="#829bcf"/><circle id="Ellipse_1619" data-name="Ellipse 1619" cx="198.35" cy="87.82" r="2" fill="#829bcf"/><circle id="Ellipse_1620" data-name="Ellipse 1620" cx="208.34" cy="86.78" r="2" fill="#829bcf"/><circle id="Ellipse_1621" data-name="Ellipse 1621" cx="219.34" cy="85.73" r="2" fill="#829bcf"/><circle id="Ellipse_1622" data-name="Ellipse 1622" cx="229.34" cy="85.68" r="2" fill="#829bcf"/><circle id="Ellipse_1623" data-name="Ellipse 1623" cx="240.33" cy="84.64" r="2" fill="#829bcf"/><circle id="Ellipse_1624" data-name="Ellipse 1624" cx="250.33" cy="82.59" r="2" fill="#829bcf"/><circle id="Ellipse_1625" data-name="Ellipse 1625" cx="260.31" cy="78.55" r="2" fill="#829bcf"/><circle id="Ellipse_1626" data-name="Ellipse 1626" cx="269.29" cy="74.51" r="2" fill="#829bcf"/><circle id="Ellipse_1627" data-name="Ellipse 1627" cx="276.26" cy="67.48" r="2" fill="#829bcf"/><circle id="Ellipse_1628" data-name="Ellipse 1628" cx="281.23" cy="59.46" r="2" fill="#829bcf"/><circle id="Ellipse_1629" data-name="Ellipse 1629" cx="283.19" cy="50.45" r="2" fill="#829bcf"/><circle id="Ellipse_1630" data-name="Ellipse 1630" cx="283.14" cy="40.45" r="2" fill="#829bcf"/><circle id="Ellipse_1631" data-name="Ellipse 1631" cx="284.11" cy="31.45" r="2" fill="#829bcf"/><circle id="Ellipse_1632" data-name="Ellipse 1632" cx="288.07" cy="24.43" r="2" fill="#829bcf"/><circle id="Ellipse_1633" data-name="Ellipse 1633" cx="296.06" cy="20.4" r="2" fill="#829bcf"/></g></g><g id="Group_6427" data-name="Group 6427"><path id="Path_11491" data-name="Path 11491" d="M.43,55.18s.12-18.31,19-19.1S54.16,59.64,75.74,52,83.3,29.88,96.35,21.29,113.62,5.51,128,17.66,163.77.85,163.77.85L5.1,1.74S.53,3,.22,6.29.43,55.18.43,55.18Z" fill="#829bcf"/><g id="Group_6405" data-name="Group 6405"><circle id="Ellipse_1592" data-name="Ellipse 1592" cx="9.12" cy="35.63" r="2" fill="#61729b"/><circle id="Ellipse_1593" data-name="Ellipse 1593" cx="18.11" cy="32.59" r="2" fill="#61729b"/><circle id="Ellipse_1594" data-name="Ellipse 1594" cx="35.13" cy="37.52" r="2" fill="#61729b"/><circle id="Ellipse_1596" data-name="Ellipse 1596" cx="43.15" cy="41.49" r="2" fill="#61729b"/><circle id="Ellipse_1597" data-name="Ellipse 1597" cx="50.16" cy="45.46" r="2" fill="#61729b"/><circle id="Ellipse_1598" data-name="Ellipse 1598" cx="58.18" cy="49.42" r="2" fill="#61729b"/><circle id="Ellipse_1599" data-name="Ellipse 1599" cx="68.18" cy="50.38" r="2" fill="#61729b"/><circle id="Ellipse_1600" data-name="Ellipse 1600" cx="77.17" cy="47.34" r="2" fill="#61729b"/><circle id="Ellipse_1601" data-name="Ellipse 1601" cx="84.15" cy="41.31" r="2" fill="#61729b"/><circle id="Ellipse_1602" data-name="Ellipse 1602" cx="86.1" cy="31.3" r="2" fill="#61729b"/><circle id="Ellipse_1603" data-name="Ellipse 1603" cx="90.06" cy="22.28" r="2" fill="#61729b"/><circle id="Ellipse_1604" data-name="Ellipse 1604" cx="97.04" cy="17.25" r="2" fill="#61729b"/><circle id="Ellipse_1605" data-name="Ellipse 1605" cx="104.02" cy="12.22" r="2" fill="#61729b"/><circle id="Ellipse_1606" data-name="Ellipse 1606" cx="114" cy="8.18" r="2" fill="#61729b"/><circle id="Ellipse_1607" data-name="Ellipse 1607" cx="124.02" cy="12.14" r="2" fill="#61729b"/><circle id="Ellipse_1608" data-name="Ellipse 1608" cx="131.04" cy="17.11" r="2" fill="#61729b"/><circle id="Ellipse_1609" data-name="Ellipse 1609" cx="140.05" cy="18.07" r="2" fill="#61729b"/><circle id="Ellipse_1610" data-name="Ellipse 1610" cx="147.02" cy="13.04" r="2" fill="#61729b"/><circle id="Ellipse_1611" data-name="Ellipse 1611" cx="153.99" cy="6.01" r="2" fill="#61729b"/><circle id="Ellipse_1595" data-name="Ellipse 1595" cx="27.12" cy="34.56" r="2" fill="#61729b"/></g></g></g></g></g><g id="Group_6963" data-name="Group 6963"><path id="Path_13495-2" data-name="Path 13495-2" d="M22.94,121.42c-2.8-2.85-5.26-8.64-3.92-12.63a6.2,6.2,0,0,1,1.42-2.52,6.73,6.73,0,0,1,4.48-1.84h0c0-.11.19-.27.23-.38-2.1-1-3.88-2.77-3.35-5.25C20.17,97.14,19,94.71,20,92.42c-1.44-2.74-1.81-7.41,2.09-8,2.4-.36,3.88,1.68,4.08,3.85a13,13,0,0,1,.45-2.48c1.07-3.83,4-8,8.13-8.82a6.53,6.53,0,0,1,3,.22,6.66,6.66,0,0,1,3.88,3.24h0c.12,0,.27-.28.39-.28-.21-2.24.44-4.87,2.83-5.62C45.47,72.28,47,70,49.49,69.7c1.65-2.63,5.5-5.32,8-2.23,1.51,1.93.48,4.17-1.3,5.46a15.13,15.13,0,0,1,2.36-.86c3.86-1,8.9-.54,11.73,2.62a6,6,0,0,1,1.41,2.62,6.67,6.67,0,0,1-.72,4.92h0a3.88,3.88,0,0,0,.31.26c1.85-1.32,4.37-2,6.23-.33,2.24-.55,5-.45,6.43,1.63,3.09.11,7.36,2.14,5.9,5.78-.88,2.28-3.39,2.49-5.37,1.61a13.06,13.06,0,0,1,1.94,1.61c2.8,2.86,4.95,7.45,3.61,11.48a6.13,6.13,0,0,1-1.61,2.52,7.23,7.23,0,0,1-4.68,1.84h0a1.2,1.2,0,0,1,0,.38c2.09,1,4,2.77,3.42,5.25,1.63,1.66,3.77,6.87,3.77,6.87-3.93.09-7.24,0-10.28,0-6,0-9.2,0-9.2,0l-48.43.21Zm3.95-16.68c0,.19,1.13.45,1.59.8a5.22,5.22,0,0,1,2,4.56,5.33,5.33,0,0,1-2.3,4.3c-.27.23-.46.39-.42.47A7.84,7.84,0,0,0,34,117.39c.5-.08,1.47-.16.92-.74a9.65,9.65,0,0,1-2.42-5.32c-.28-2.44.17-4,1.1-4.92a6.69,6.69,0,0,0-2.57-3.2c-1.36-.73-3.79.17-4.17,1.41,0,.08,0,.08,0,.12Zm8.48.93h.15a.52.52,0,0,1-.19-.11ZM40.71,107a14.32,14.32,0,0,0,6.54,1.36A23.93,23.93,0,0,1,45.16,107a13.39,13.39,0,0,1-5.06-6.44,7.22,7.22,0,0,1,.59-6.35A1,1,0,0,1,42,94.06a1,1,0,0,1,.22,1.29,5.37,5.37,0,0,0-.33,4.64,11,11,0,0,0,4.35,5.47,18.4,18.4,0,0,0,3.07,1.85.93.93,0,0,1,.5.58,13.31,13.31,0,0,0,2.82-1.29c-6.44-3.53-7-8.83-7.48-12.66-.37-3.32-1.34-5.06-4.73-2.53a7.58,7.58,0,0,0-2.7,3.65,2,2,0,0,1-2.28,1.76,1.94,1.94,0,0,1-.92-.36,4.26,4.26,0,0,1-1.24-1.15A9.78,9.78,0,0,1,32,87c.57-2,1.58-1.67,3.09-1.14a4,4,0,0,0,3.4,0,3.36,3.36,0,0,0,2-2.49,4.38,4.38,0,0,0-3.23-4.47,4.75,4.75,0,0,0-2.09-.07c-3.44.72-5.82,4.36-6.66,7.5a15.48,15.48,0,0,0,1.91,11.56,19.1,19.1,0,0,0,9.71,8,.88.88,0,0,1,.61,1.08l0,.08Zm12.79-2.11c-.15-7.35,4.17-10.5,7.22-12.79,2.7-2,3.7-3.66-.14-5.38a7.42,7.42,0,0,0-4.53-.48,2,2,0,0,1-2.83-2.08,4.78,4.78,0,0,1,.38-1.66,9.54,9.54,0,0,1,6.63-5.25c2-.51,2.2.53,2.52,2.11a4,4,0,0,0,1.71,2.94,3.31,3.31,0,0,0,3.14.45,4.34,4.34,0,0,0,2-5.82,4.08,4.08,0,0,0-.71-1c-2.34-2.62-6.67-2.87-9.84-2A15.57,15.57,0,0,0,50,81.27,19.18,19.18,0,0,0,47.88,93.7a.91.91,0,0,1-.72,1h0a14,14,0,0,0,2.08,6.33c0-.82,0-1.65.1-2.47A13.51,13.51,0,0,1,52.39,91c1.43-1.59,3.63-2.91,5.83-2.65a1,1,0,0,1,.86,1,1,1,0,0,1-1,.86h0c-1.59-.19-3.21.94-4.21,2a11.68,11.68,0,0,0-2.6,6.51,21.15,21.15,0,0,0-.06,3.56,1.14,1.14,0,0,1-.23.73,16.26,16.26,0,0,0,2.57,1.8ZM45.78,89.61v-.24l-.12.12Zm-1.63-1.27a6.18,6.18,0,0,0,1.53-3.72c0-1.55-2.07-3.28-3.26-2.81,0,0,0,0,0,0h0a4.18,4.18,0,0,1,0,1.69,5.07,5.07,0,0,1-3,3.92,5.54,5.54,0,0,1-4.91.14c-.35-.11-.58-.23-.62-.11a7.81,7.81,0,0,0,1,6.69c.27.38.85,1.19,1.08.42a9.65,9.65,0,0,1,3.38-4.74c2-1.48,3.55-1.91,4.79-1.53ZM26.2,90.11c0,.39-.15.82-.22,1.24a4.42,4.42,0,0,1,.39.47,8.83,8.83,0,0,1-.17-1.7Zm1.27,6v.38a1.06,1.06,0,0,1,.23.19Zm2.34,4.28A6.37,6.37,0,0,1,30,101h.34c-.15-.2-.31-.43-.5-.66Zm-1.7,1c-.31-1.39-1.64-4.94-3.65-3.31-2.39,2,1,3.56,1.95,4.4a5.74,5.74,0,0,1,1.7-1.09Zm-2.58-5.6c0-1.27-.67-4.44-2.76-3.54s-1,3.45.06,4.72a3.67,3.67,0,0,1,2.71-1.18Zm-1.3-5.48c.23-1.24.26-4.34-1.79-4s-1.57,3.22-1,4.57A3.4,3.4,0,0,1,24.23,90.28ZM55.44,104.8c6.29-3.81,11.17-1.67,14.7-.14,3.1,1.34,5,1.38,4.55-2.8a7.33,7.33,0,0,0-1.84-4.13,2,2,0,0,1-.4-2.86,2,2,0,0,1,.78-.62,5.77,5.77,0,0,1,1.62-.51,9.59,9.59,0,0,1,7.86,3.06c1.44,1.5.63,2.2-.56,3.25a4,4,0,0,0-1.69,3,3.46,3.46,0,0,0,1.17,3,4.49,4.49,0,0,0,5.49-.56,4.26,4.26,0,0,0,1.08-1.75c1.11-3.33-.88-7.23-3.17-9.54a15.41,15.41,0,0,0-11-4.13,19.22,19.22,0,0,0-11.82,4.38A.9.9,0,0,1,61,94.31h0a14.7,14.7,0,0,0-4.47,5c.77-.43,1.51-.82,2.2-1.13A13.16,13.16,0,0,1,66.78,97,7.25,7.25,0,0,1,72,100.71a.95.95,0,0,1-1.73.78,5.47,5.47,0,0,0-3.88-2.61,11.62,11.62,0,0,0-7,1,20.23,20.23,0,0,0-3.09,1.71.87.87,0,0,1-.73.16,21.76,21.76,0,0,0-.18,3Zm9.37-14.35.24-.12h-.16S64.81,90.41,64.81,90.45Zm.27-2a6.1,6.1,0,0,0,4-.56c1.31-.82,1.8-3.45.79-4.22l0,0a5.88,5.88,0,0,1-1.42.9,5.21,5.21,0,0,1-4.92-.6,5.6,5.6,0,0,1-2.57-4.17c-.08-.38-.12-.62-.2-.61a7.67,7.67,0,0,0-5.32,4.16c-.19.46-.57,1.35.16,1.12a9.58,9.58,0,0,1,5.81.59c2.24,1,3.45,2.15,3.72,3.43ZM54.57,73.74a9.54,9.54,0,0,1-1.16.44c-.08.19-.15.34-.23.54.46-.35.93-.66,1.39-1ZM50,77.86a1.49,1.49,0,0,0-.31.2c0,.11,0,.19,0,.31a2.45,2.45,0,0,1,.34-.5ZM47.49,82c-.16.17-.33.32-.5.47a1.77,1.77,0,0,1,.15.31c.12-.23.23-.5.35-.78Zm-1.75-1c1.08-1,3.47-3.88,1.06-4.83-2.9-1.11-2.58,2.6-2.84,3.88a5,5,0,0,1,1.78,1Zm3.58-5c1.08-.66,3.51-2.84,1.68-4.15s-3.51.83-4.09,2.42a3.3,3.3,0,0,1,2.41,1.73Zm4.12-3.89c1.2-.43,3.9-2,2.62-3.57S52.5,68.8,51.61,70A3.49,3.49,0,0,1,53.44,72.16Zm3,34.22c6.44,3.54,7,8.83,7.48,12.66.41,3.33,7.12,0,7.43-1.15a2,2,0,0,1,3.2-1.41,4.26,4.26,0,0,1,1.24,1.15c1.29,1.7,5.23,1.38,2.93-2.56a19.06,19.06,0,0,0-9.7-8,.88.88,0,0,1-.55-1.14h0a14.2,14.2,0,0,0-6.54-1.37A21.89,21.89,0,0,1,64,105.89a13.3,13.3,0,0,1,5.06,6.44,7.25,7.25,0,0,1-.59,6.38A1,1,0,0,1,67,117.6a5.42,5.42,0,0,0,.32-4.65,11.32,11.32,0,0,0-4.35-5.51,22,22,0,0,0-3-1.81.94.94,0,0,1-.5-.57,16.42,16.42,0,0,0-2.93,1.32Zm17.14.94a.75.75,0,0,1,.24.15l-.08-.15Zm1.9-.79A6.54,6.54,0,0,0,78,109.74c1.36.72,3.87-.18,4.06-1.42v-.07a5.51,5.51,0,0,1-1.51-.81,5.24,5.24,0,0,1-1.92-4.55,5.55,5.55,0,0,1,2.34-4.31c.31-.23.5-.43.43-.46a7.84,7.84,0,0,0-6.24-2.52c-.5.08-1.47.16-.89.74a9.66,9.66,0,0,1,2.43,5.33c.2,2.39-.22,4-1.18,4.87ZM83,90.14c-.31-.23-.62-.5-1-.81a2.8,2.8,0,0,1-.58.08c.5.23,1,.46,1.55.73Zm-5.81-1.91A1.7,1.7,0,0,1,76.8,88l-.27.12A3.37,3.37,0,0,0,77.15,88.23Zm-4.91-.09a5.46,5.46,0,0,1-.66-.19c-.06.1-.12.21-.19.31l.85-.12Zm0-2c1.4.42,5.11,1,4.72-1.49-.52-3-3.57-.91-4.81-.48a4.14,4.14,0,0,1,.09,2Zm6.16.6c1.12.57,4.22,1.64,4.44-.6s-2.49-2.62-4.11-2.31a3.52,3.52,0,0,1-.33,2.9Zm5.42,1.6c1,.8,3.65,2.38,4.37.44s-2-3-3.45-3.12A3.43,3.43,0,0,1,83.77,88.36ZM55.61,108.1c.15,7.31-4.52,10.38-7.56,12.68,0,0,13.6.75,13.26-1.45a.88.88,0,0,1,.68-1h0A14,14,0,0,0,59.92,112c0,.82,0,1.65-.1,2.47-.37,3.45-5.31,7-4.31,5.9A10.12,10.12,0,0,0,58,114.24a21.19,21.19,0,0,0,.06-3.56,1.14,1.14,0,0,1,.23-.74,15.59,15.59,0,0,0-2.64-1.84Zm18.66,10.71c-.32-.39-.9-1.2-1.09-.42-.38,1.47,2.06,1.77,1.09.42Zm7.38-1.93v-.39a1.37,1.37,0,0,1-.23-.19A4.17,4.17,0,0,0,81.65,116.88Zm-2.34-4.29c0-.19-.12-.42-.16-.65H78.8c.16.19.31.42.5.65Zm1.69-1c.32,1.39,1.65,4.94,3.65,3.31,2.39-1.94-1-3.55-2-4.4a4.43,4.43,0,0,1-1.7,1.09Zm2.54,5.6c0,1.27.72,4.44,2.76,3.54s1-3.44-.06-4.71a3.54,3.54,0,0,1-2.7,1.17Zm-29.86-9c-6.29,3.78-11.17,1.67-14.7.14-3.1-1.34-5-1.37-4.55,2.81a7.5,7.5,0,0,0,1.84,4.17,2,2,0,0,1,.4,2.85,2,2,0,0,1-.78.63,5.67,5.67,0,0,1-1.62.51,9.65,9.65,0,0,1-7.86-3.06c-1.44-1.51-.63-2.2.52-3.26A3.87,3.87,0,0,0,28.62,110a3.39,3.39,0,0,0-1.17-2.94,4.5,4.5,0,0,0-5.49.57,4.36,4.36,0,0,0-1.08,1.78c-1.11,3.33.85,7.23,3.14,9.54s18.89,2.82,22.74-.29a.91.91,0,0,1,1.28.11h0a14.7,14.7,0,0,0,4.47-5,19.83,19.83,0,0,1-2.2,1.13,13.18,13.18,0,0,1-8.08,1.16A7.28,7.28,0,0,1,37,112.43a1,1,0,0,1,1.74-.78,5.45,5.45,0,0,0,3.84,2.61,11.24,11.24,0,0,0,7-1,21.12,21.12,0,0,0,3.13-1.71.9.9,0,0,1,.73-.16,12.06,12.06,0,0,0,.3-3.17Z" fill="#fff"/><path id="Path_13496-2" data-name="Path 13496-2" d="M230.67,98A9.66,9.66,0,0,1,225,89.83c-1.06-9.35,6.88-16.83,15.58-18.71,8.34-1.83,15,3.53,19.17,10.27,9.29,15.06,7.82,23.61-.46,38.75a.62.62,0,0,1-.84.26.65.65,0,0,1-.25-.86c8.08-14.76,9.56-22.83.49-37.49-3.88-6.26-10.05-11.39-17.86-9.69-8,1.75-15.57,8.64-14.59,17.36.58,5.16,5.95,8.43,9.24,8.34,1.54,0,2.63-.82,2.52-2.49-.11-1.95-.25-4.35,3.14-5.48,3.18-1,6.11,2,6,5.21-.28,5.52-5,9.16-11.42,10.52a2.87,2.87,0,0,1,.92,2.3s0,.08,0,.1a2.22,2.22,0,0,1,.77,2.45,2.84,2.84,0,0,1,.24,3,3.11,3.11,0,0,1-.37,2.86,1.75,1.75,0,0,1-2.45.28,1.85,1.85,0,0,1-.41-.47,6.3,6.3,0,0,1-3.15,3.1,3.45,3.45,0,0,1-2.83,0,3.05,3.05,0,0,1-1.58-3.54,2.76,2.76,0,0,1,3.59-1.52,3.06,3.06,0,0,1,.53.29c.33.2.54-2.18,0-2.88a4.38,4.38,0,0,1-2,1.82,3,3,0,0,1-2.4.14c-1.09-.42-1-1.41-.9-2.73a6.59,6.59,0,0,0-.39-3.54,2.1,2.1,0,0,1-.55,1.42,2.6,2.6,0,0,1-.47,3,3.22,3.22,0,0,1-1.38,3.32A3.48,3.48,0,0,1,221,118a2.15,2.15,0,0,1-1.82-.07h0a1.82,1.82,0,0,1-.94-1.54v-.22l-.28.22a7.19,7.19,0,0,1-4.83,1.49,4,4,0,0,1-2.91-1.48,3.51,3.51,0,0,1,.23-4.43c1.51-1.5,3.8-.75,4.84.89.08.13,0,.28.05.23a3.9,3.9,0,0,0,1.76-3c0-.25.05-.58-.13-.43a5.29,5.29,0,0,1-3.08.9,3.56,3.56,0,0,1-2.61-1.1c-.87-1-.29-2,.52-3.24.9-1.47,2.16-3.5,1.11-6.38a3,3,0,0,1-1.8,2.06,2.61,2.61,0,0,1-2,2.28,3.26,3.26,0,0,1-2.93,2.06,3.54,3.54,0,0,1-3.08,1.38,1.94,1.94,0,0,1-1.68-2.16,2.16,2.16,0,0,1,.23-.69,1.37,1.37,0,0,1,.13-.2,2.19,2.19,0,0,1-.36,0,7.18,7.18,0,0,1-4.89-1.32,4,4,0,0,1-1.66-2.83,3.47,3.47,0,0,1,2.56-3.6c2.1-.46,3.6,1.43,3.61,3.35,0,.13-.15.23-.08.23a4.06,4.06,0,0,0,3.11-1.61,2.11,2.11,0,0,0,.2-.43c0-.05,0-.05,0-.05s0,.05-.1.05a5.2,5.2,0,0,1-3.06-.9,3.55,3.55,0,0,1-1.6-2.32c-.21-1.29.8-1.8,2.19-2.46s3.41-1.66,4.21-4.22a2.58,2.58,0,0,1-1.34.44h-.2a2.6,2.6,0,0,1-2.71,1.4,3.21,3.21,0,0,1-3.46.87,3.44,3.44,0,0,1-3.36.17h0a2,2,0,0,1-.34-3.19,2.28,2.28,0,0,1,.85-.43c-.22-.05-.44-.1-.66-.17a7.29,7.29,0,0,1-4.08-3,4,4,0,0,1-.52-3.23,3.48,3.48,0,0,1,3.68-2.45c2.1.32,2.85,2.6,2.17,4.42,0,.13-.23.15-.15.18a4,4,0,0,0,3.49-.4,1.29,1.29,0,0,0,.33-.33s0,0,0,0,0,0-.1,0A5.15,5.15,0,0,1,197,80.82a3.52,3.52,0,0,1-.64-2.75c.27-1.3,1.41-1.38,2.92-1.51a7.3,7.3,0,0,0,5.06-2,2.79,2.79,0,0,1-2-.42,3,3,0,0,1-3.66,0c-1.47.36-3.27.3-4.21-1.07a4.18,4.18,0,0,1-3.65-1.7,2.24,2.24,0,0,1,.63-3.1,2.27,2.27,0,0,1,.75-.32,3.12,3.12,0,0,1,1.9.27,10.9,10.9,0,0,1-1.22-1,8.56,8.56,0,0,1-2.6-5.48A4.76,4.76,0,0,1,191.57,58a4.14,4.14,0,0,1,5.21-.47c2,1.51,1.49,4.27-.25,5.79-.18.15-.3.28-.28.3a5.08,5.08,0,0,0,4.08,1.65,1.75,1.75,0,0,0,.63-.18c.08,0,.13-.07.13-.1l-.15-.17a6.18,6.18,0,0,1-1.57-3.48,4.11,4.11,0,0,1,.87-3.22c1-1.14,2.2-.62,3.85.11,1.88.8,4.38,1.9,7.52.5-1.22-.07-2.69-.42-3.33-1.61-1.56.24-3.23-.16-3.9-1.72-1.75-.25-3.65-1.15-4-3.05-2.07-.95-3-2.29-3.15-3.45a2.5,2.5,0,0,1,2-2.91,2.58,2.58,0,0,1,1,0c1.09.2,2.26,1.16,3.15,3.2a3.61,3.61,0,0,1,.86.28,12.24,12.24,0,0,1-2.82-4.14,10,10,0,0,1-.29-7,5.47,5.47,0,0,1,3-3.3,4.74,4.74,0,0,1,5.7,1.82c1.4,2.49-.38,5.16-2.88,6-.33.1-.56.17-.51.33a6,6,0,0,0,3.71,3.7c.43.12,1.27.32,1-.38a7.05,7.05,0,0,1-.1-4.38,4.7,4.7,0,0,1,2.37-3c1.49-.74,2.63.37,4.13,1.83,1.78,1.74,4.22,4.09,8.36,3.94a3.87,3.87,0,0,1-2.11-2.27c0-.12-.05-.25-.07-.4-1.52-.42-2.89-1.45-2.9-3.15-1.5-.93-2.87-2.52-2.45-4.39-1.53-1.71-1.81-3.28-1.49-4.42a2.52,2.52,0,0,1,3-1.86,2.41,2.41,0,0,1,.85.38c.91.63,1.6,2,1.58,4.19a4.82,4.82,0,0,1,.69.58,11.94,11.94,0,0,1-.93-4.9,10.08,10.08,0,0,1,2.58-6.54c3.07-3.18,8.13-1.71,8.53,2.14.29,2.86-2.41,4.56-5,4.29-.36,0-.59,0-.61.11a6.09,6.09,0,0,0,1.89,4.9c.36.3,1,.8,1,0a7.14,7.14,0,0,1,1.68-4,4.81,4.81,0,0,1,3.38-1.82c1.65-.08,2.26,1.39,3.05,3.36.9,2.17,2.08,5.07,5.45,6.7a3.22,3.22,0,0,1-.57-2,1.89,1.89,0,0,1,.08-.4,3.63,3.63,0,0,1-1.84-3.15,2.48,2.48,0,0,1,.18-.76c-1.38-1.72-1.54-3.26-1.11-4.4a5.77,5.77,0,0,1,.27-.56c-.84-2.12-.59-3.69.08-4.65a2.54,2.54,0,0,1,3.51-.73,2.48,2.48,0,0,1,.64.61c.64.91.87,2.4.1,4.48a3.3,3.3,0,0,1,.43.78,11.91,11.91,0,0,1,.79-4.94,10,10,0,0,1,4.61-5.3,5.34,5.34,0,0,1,4.45-.35,4.72,4.72,0,0,1,2.88,5.25c-.67,2.78-3.8,3.48-6.19,2.35-.33-.15-.53-.25-.58-.1a6,6,0,0,0,.15,5.24,2.13,2.13,0,0,0,.51.61.58.58,0,0,0,.25.12c.05,0,.13-.1.23-.33a7,7,0,0,1,2.94-3.25,4.64,4.64,0,0,1,3.77-.57c1.6.46,1.65,2.06,1.76,4.16.11,2.5.25,5.89,3.43,8.63a3.81,3.81,0,0,1-.09-2.7,2.18,2.18,0,0,1,.22-.43,4,4,0,0,1-.87-3.9,2.83,2.83,0,0,1,.42-.76c-.84-2.25-.52-3.92.28-4.93a3.08,3.08,0,0,1,.51-.51c-.19-2.5.59-4.05,1.62-4.84a2.67,2.67,0,0,1,3.76.34,2.64,2.64,0,0,1,.49.9c.36,1.14.09,2.76-1.39,4.69a3.7,3.7,0,0,1,.2,1.44,13.42,13.42,0,0,1,2.56-5.32,10.91,10.91,0,0,1,6.56-4,5.84,5.84,0,0,1,4.71,1.1A5.11,5.11,0,0,1,285,26c-1.61,2.67-5.1,2.33-7.16.39-.3-.3-.51-.5-.68-.3a6.68,6.68,0,0,0-1.6,5.58,2.85,2.85,0,0,0,.34.83.69.69,0,0,0,.25.23h0c.1,0,.2-.08.38-.28a7.86,7.86,0,0,1,4.14-2.4,5.15,5.15,0,0,1,4.1.67c1.47,1,1,2.65.4,4.88a13.84,13.84,0,0,0-.5,7.41,2.43,2.43,0,0,1,.81-1.14c-.62-1.62-.6-3.51.91-4.58-.13-1.93.36-4.18,2.33-5,.55-2.45,1.73-3.72,2.95-4.16a2.67,2.67,0,0,1,3.51,1.43,2.59,2.59,0,0,1,.22,1c0,1.19-.73,2.66-2.72,4.09a3.62,3.62,0,0,1-.19,1.42,13.33,13.33,0,0,1,4-4.35,11.2,11.2,0,0,1,7.43-1.93,7.66,7.66,0,0,1,2.43.77,4.76,4.76,0,0,1,1.78,1.64,5.31,5.31,0,0,1,.78,3.84c0,.11,0,.22-.05.33a4.4,4.4,0,0,1-1.36,2.28,4.48,4.48,0,0,1-3.87.83,4.53,4.53,0,0,1-3.07-2.52h0c-.2-.37-.35-.6-.56-.47a6.68,6.68,0,0,0-3.14,4.87c0,.53,0,1.54.71,1a7.77,7.77,0,0,1,4.65-1.11c4.76.36,4.9,3.11,2.71,6.59-1.63,2.63-3.94,6.31-1.72,11.69a.64.64,0,0,1-.19.74,48.37,48.37,0,0,1,10.3,19.69c2.81,11,2,24.07-4.31,39a.62.62,0,0,1-1.15-.47v0c6.16-14.6,7-27.38,4.24-38.15a48.17,48.17,0,0,0-12.24-21.6C285.43,43.68,260.33,35.82,240,41A46.36,46.36,0,0,0,218.86,52.9a42.13,42.13,0,0,0-10.4,16.71,32.55,32.55,0,0,0-.88,17.82,26.76,26.76,0,0,0,6.73,11.86h0l.05,0h0a15.92,15.92,0,0,0,2.48,2,0,0,0,0,1,0,0h0a25,25,0,0,0,11.65,3.87c5.19.38,17-2.22,17.37-9.89.11-2.3-2-4.75-4.32-4s-2.37,2.71-2.28,4.23c.27,4.73-6.43,6.15-10.22,5.76h0c-7.22-.78-13.52-6.52-15.92-13.29a22.24,22.24,0,0,1,0-14.39,3.37,3.37,0,0,1-1.78-2.83,4.11,4.11,0,0,1,1.15-3,3.74,3.74,0,0,1,2.67-1.15,4.28,4.28,0,0,1-.59-2.47,3,3,0,0,1,2-2.64,3.75,3.75,0,0,1,1.85-.11,4.3,4.3,0,0,1-.21-2.83,2.92,2.92,0,0,1,2.06-2.09,3.18,3.18,0,0,1,1.78.12,3.54,3.54,0,0,1,.11-1.74,3.22,3.22,0,0,1,2.2-2.06,3.92,3.92,0,0,1,2.86.42,4.63,4.63,0,0,1,.52-2.92,3.12,3.12,0,0,1,2.95-1.58,4,4,0,0,1,2.18.93,3.37,3.37,0,0,1,.5-1.72,3.11,3.11,0,0,1,3-1.46,5.29,5.29,0,0,1,3,1.43,4.14,4.14,0,0,1,1.1-2.79,3.45,3.45,0,0,1,3.47-.75A5.36,5.36,0,0,1,246.85,47a5,5,0,0,1,1.79-2.66,3.26,3.26,0,0,1,3.77,0,5.65,5.65,0,0,1,2,2.64,4.47,4.47,0,0,1,2-2.38,3.48,3.48,0,0,1,3.78.49,6.22,6.22,0,0,1,2.06,3.07,3.85,3.85,0,0,1,1.71-1.7,3.75,3.75,0,0,1,4.13.77,5.89,5.89,0,0,1,1.73,3,4.89,4.89,0,0,1,2.14-2.13,3.38,3.38,0,0,1,4.23,1.57,8.49,8.49,0,0,1,.92,6.27,6.75,6.75,0,0,1,2.71-4.08c2-1.2,4-.22,4.92,1.8a8.77,8.77,0,0,1-.08,6,5.68,5.68,0,0,1,2.14-2.26,3.59,3.59,0,0,1,4.9,1.33,3.48,3.48,0,0,1,.37.92c.72,2.13.28,5.47-2.59,9.58.23.3.49.58.72.88,0,0,0,0,.05,0s0,0,0,0h0a48.39,48.39,0,0,1,3.18,4.48s0,0,0,0l0,0a44.73,44.73,0,0,1,7.18,22.38.62.62,0,0,1-.6.64.64.64,0,0,1-.66-.61,43.58,43.58,0,0,0-6.69-21.3l-6.64,4a50.35,50.35,0,0,1,9.58,33.68.61.61,0,0,1-.66.57.62.62,0,0,1-.58-.66c1.85-22.63-13-43.64-33.51-51.95v0h0C249.68,57,237,56.31,227.43,64.72c-5.57,4.86-10.37,13.1-9,20.58a16.23,16.23,0,0,0,7,10.4,21.78,21.78,0,0,1-4.05-6.36c-2.53-6.67,2.4-6.13,2.48-12.51,0-2.53.05-4.73,3.62-5.56,2.39-.57,3.35-2.51,4.23-4.29,1.2-2.46,2.31-4.67,6.1-3.72,5.45,1.37,7.77.14,9.67-.88a6.56,6.56,0,0,1,3.89-1.13c3.16.19,3.91,1.91,4.75,3.9A7.78,7.78,0,0,0,260.62,70c1.55.65,3.47.44,5.37.23,2.3-.26,4.57-.53,6.4.71,3.88,2.61.76,11.61,3.35,14.93,2.85,3.66,9.86,3.2,13,7.06,2.29,2.85,3.37,6.74,3.77,11a77.08,77.08,0,0,1-.2,13,.62.62,0,1,1-1.24-.1,75.52,75.52,0,0,0,.18-12.76c-.37-4-1.38-7.74-3.51-10.33-2.88-3.53-9.91-3-13-7.08C271.89,83,274.69,74,271.64,72c-1.44-1-3.47-.74-5.57-.51s-4.12.45-6-.32c-3.37-1.41-4.31-3.6-5.13-5.5-.69-1.61-1.28-3-3.68-3.14a5.82,5.82,0,0,0-3.21,1c-2.1,1.12-4.65,2.48-10.57,1-2.84-.7-3.72,1.08-4.69,3.05s-2.11,4.26-5.07,5c-2.6.62-2.62,2.34-2.64,4.34-.07,6.55-4.75,6.27-2.55,12,1.13,2.9,4.54,8.18,8.11,9.1Zm38.94-68.55a8.71,8.71,0,0,1-.52,1.31,5,5,0,0,1,.46,1.09,12.84,12.84,0,0,1,.06-2.4Zm.07,3.94a10,10,0,0,1-.19,1.65,5.11,5.11,0,0,1,.68.55,18,18,0,0,1-.49-2.2Zm2.38,6.32a7.84,7.84,0,0,1,.06,1.19l1,.29c-.38-.5-.74-1-1.05-1.49Zm3.38,2.24c1.21.42,2.4.87,3.59,1.35-1.37-2.68-1.77-7.26.85-9.29a3.6,3.6,0,0,1,.4-.28.63.63,0,1,1,.64,1.08,2.55,2.55,0,0,0-.28.18c-2.25,1.76-1.55,6-.32,8.12a11.71,11.71,0,0,0,.69,1c1.16.52,2.33,1.08,3.47,1.65-2.27-4.14-1.27-7.89-.5-10.65.47-1.72.82-3,.08-3.51a4,4,0,0,0-3.14-.47,6.29,6.29,0,0,0-3.4,2,1.62,1.62,0,0,1-1.64.72h0a1.76,1.76,0,0,1-1-.73,3.94,3.94,0,0,1-.53-1.27,7.94,7.94,0,0,1,1.87-6.66c1-1.19,1.61-.64,2.48.19,1.47,1.39,4.05,1.81,5.23-.15a3.89,3.89,0,0,0-1-4.75,4.65,4.65,0,0,0-3.72-.82,9.88,9.88,0,0,0-5.78,3.54,12.88,12.88,0,0,0-2.61,9.45,15.91,15.91,0,0,0,4.61,9.29Zm10.33,3.57A18.69,18.69,0,0,0,286.84,47c.94.53,1.88,1.08,2.77,1.66,1.07-3.47-.66-5.87-2.15-6.24-1.12-.29-2.13.57-1.69,3Zm6-8a10.85,10.85,0,0,1-.91,1.12,3.8,3.8,0,0,1,.13,1.16,13.34,13.34,0,0,1,.78-2.28Zm-1.1,3.8a9.27,9.27,0,0,1-.65,1.52,6.09,6.09,0,0,1,.51.74,13.13,13.13,0,0,1,.14-2.26ZM291.1,48a10.23,10.23,0,0,1-.37,1.42c.38.25.76.5,1.14.78-.29-.72-.55-1.45-.77-2.2Zm2.72,3.58c1.05.78,2.06,1.59,3.05,2.44l0-.08c-.73-3.13.21-8.45,3.88-9.27a.62.62,0,0,1,.73.49.61.61,0,0,1-.45.72c-2.91.67-3.49,5.38-2.95,7.81a9,9,0,0,0,.4,1.31.66.66,0,0,1,0,.46c.78.73,1.55,1.46,2.28,2.24.28.27.54.55.79.83-1.59-5.2.67-8.8,2.3-11.45s2-4.4-1.76-4.69a6.46,6.46,0,0,0-3.84.87c-1.77,1.22-2.79-.44-2.67-2.11a8,8,0,0,1,3.72-5.86c1.31-.87,1.72-.13,2.33.87h0a3.18,3.18,0,0,0,2.26,1.94,3.25,3.25,0,0,0,.43.08,2.85,2.85,0,0,0,2.35-.62,3.26,3.26,0,0,0,1-1.65c0-.07,0-.15.05-.23a4.27,4.27,0,0,0-.57-3,4.14,4.14,0,0,0-1.37-1.23,5.63,5.63,0,0,0-2-.65,9.71,9.71,0,0,0-6.57,1.72A12.88,12.88,0,0,0,292,40.8a15.85,15.85,0,0,0,1.77,10.34,1.07,1.07,0,0,1,.1.39Zm-47.7-22.18a4.13,4.13,0,0,1-.08.78,2.51,2.51,0,0,1,.44.48A11.58,11.58,0,0,1,246.12,29.36Zm1.28,3.38a9.19,9.19,0,0,1,.15,1,4.81,4.81,0,0,1,.53.2c-.23-.35-.45-.76-.68-1.16Zm3.78,4.54a8.21,8.21,0,0,1,.29.78h.76C251.87,37.81,251.52,37.56,251.18,37.28Zm3.47.79c1.12,0,2.23.09,3.34.17a9,9,0,0,1-2.31-4.17,5.22,5.22,0,0,1,.54-4.12,2,2,0,0,1,.29-.36.64.64,0,0,1,.89,0,.61.61,0,0,1,.05.86l0,0a1,1,0,0,0-.18.23,4.14,4.14,0,0,0-.34,3.16,7.89,7.89,0,0,0,2.32,3.91,6.74,6.74,0,0,0,.94.73c1.09.12,2.17.27,3.26.44-3.05-3-3.21-6.46-3.33-9.07-.05-1.62-.13-2.8-.87-3a3.49,3.49,0,0,0-2.78.44,5.68,5.68,0,0,0-2.39,2.62A1.53,1.53,0,0,1,252.8,31a1.77,1.77,0,0,1-1.11-.35,3,3,0,0,1-.82-1,7.26,7.26,0,0,1-.23-6.35c.56-1.37,1.27-1,2.28-.57,1.62.78,4,.47,4.42-1.51a3.45,3.45,0,0,0-2.14-3.78,4.26,4.26,0,0,0-3.42.31,8.66,8.66,0,0,0-4,4.65,11.73,11.73,0,0,0,.37,8.88,13.87,13.87,0,0,0,6.51,6.75Zm-30.54-2.42a7.44,7.44,0,0,1,.2.78,2.73,2.73,0,0,1,.56.3c-.28-.35-.53-.73-.76-1.08Zm2.36,2.77c.16.26.34.56.49.86a5.62,5.62,0,0,1,.58,0,11.1,11.1,0,0,1-1.07-.88Zm5.08,3q.33.38.63.78c.28-.13.56-.23.84-.36a12.34,12.34,0,0,1-1.47-.42Zm3.61-.47c1-.26,2-.67,3.06-.95-2.51-1.26-5.51-4.66-4.26-7.62a.61.61,0,0,1,.8-.34h0a.59.59,0,0,1,.35.76.08.08,0,0,1,0,0c-1,2.46,2.1,5.41,4.15,6.28a4.25,4.25,0,0,0,1,.35c1.06-.25,2.17-.49,3.28-.67-3.85-1.78-5.15-5-6.13-7.41-.61-1.49-1-2.6-1.83-2.55a3.54,3.54,0,0,0-2.47,1.35,5.85,5.85,0,0,0-1.38,3.27c0,2-1.86,1.88-3.08.88a7.22,7.22,0,0,1-2.36-5.91c.1-1.5.83-1.42,2-1.3,1.8.19,3.87-.88,3.66-2.93-.29-2.83-4.09-3.82-6.41-1.41a9,9,0,0,0-2.23,5.73,11.49,11.49,0,0,0,3.33,8.2A12.63,12.63,0,0,0,235.16,41Zm-29,10c.16.2.33.4.51.66a4.42,4.42,0,0,1,.63,0,9.52,9.52,0,0,1-1.14-.68Zm3.27,1.61a9.18,9.18,0,0,1,.79.6l.53-.23A11.71,11.71,0,0,1,209.38,52.54Zm5.85.73a10.54,10.54,0,0,1,.94.5c.2-.23.4-.45.63-.68C216.29,53.17,215.76,53.22,215.23,53.27Zm3.2-1.83c.76-.74,1.54-1.45,2.37-2.14-2.73-.14-6.43-1.84-6.92-4.83a2.27,2.27,0,0,1,0-.45.63.63,0,0,1,.62-.64h0a.64.64,0,0,1,.63.61,1.33,1.33,0,0,0,0,.28c.39,2.53,4,3.82,6.29,3.79.33,0,.68,0,1-.06.88-.68,1.8-1.32,2.73-1.93-4.2-.11-6.67-2.53-8.52-4.31-1.17-1.11-2-2-2.72-1.61a3.53,3.53,0,0,0-1.73,2.23,5.71,5.71,0,0,0,0,3.54c.76,1.87-1,2.49-2.47,2a7.28,7.28,0,0,1-4.52-4.46c-.54-1.39.19-1.62,1.28-2,1.72-.54,3.18-2.37,2.18-4.13a3.5,3.5,0,0,0-4.15-1.3,4.14,4.14,0,0,0-2.27,2.57,8.72,8.72,0,0,0,.26,6.14A11.72,11.72,0,0,0,208.9,51a14.19,14.19,0,0,0,9.51.42Zm-23.1,17.42.53.45a1.26,1.26,0,0,1,.33,0,6.1,6.1,0,0,1-.86-.39Zm3.8,1.22a.13.13,0,0,0,.1.06s.05,0,.1,0l-.2,0Zm3.16,0,.26.08a.6.6,0,0,0,.09-.13,2.27,2.27,0,0,0-.35.05Zm4.63-1.54a3.44,3.44,0,0,1,.45,0,2.06,2.06,0,0,1,.12-.35,3.52,3.52,0,0,1-.58.3Zm1.37-2.37c.3-.74.66-1.5,1-2.23a7.12,7.12,0,0,1-3.8.24,4.77,4.77,0,0,1-3-1.91,2,2,0,0,1-.2-.38.61.61,0,0,1,.3-.82l0,0a.65.65,0,0,1,.84.33.76.76,0,0,0,.13.23A3.38,3.38,0,0,0,205.8,63a5.94,5.94,0,0,0,3.67-.41c.25-.13.53-.26.78-.41.38-.7.8-1.39,1.23-2.1-3.28,1.23-5.89.08-7.84-.78-1.17-.5-2-.87-2.41-.44a3,3,0,0,0-.57,2.28,4.86,4.86,0,0,0,1.2,2.7,1.42,1.42,0,0,1,.46,1.47,1.31,1.31,0,0,1-.7.78,3.65,3.65,0,0,1-1.06.34,6.3,6.3,0,0,1-5.15-2c-.94-1-.4-1.44.37-2.12,1.11-1,1.66-2.82.32-3.85a2.94,2.94,0,0,0-3.59.37,3.51,3.51,0,0,0-.9,2.71,7.4,7.4,0,0,0,2.24,4.67c3.92,4.06,10.29,3.27,14.45,0ZM205.4,80.77c0-.64,0-1.27,0-1.91a5.69,5.69,0,0,1-2.65,1.64,4,4,0,0,1-3-.22c-.1,0-.2-.12-.33-.2a.61.61,0,0,1-.12-.86v0a.65.65,0,0,1,.89-.11l.15.13a2.9,2.9,0,0,0,2.05.12,4.85,4.85,0,0,0,2.42-1.68,4.1,4.1,0,0,0,.46-.71.68.68,0,0,1,.27-.26c.08-.63.15-1.29.27-1.92-2,2.59-4.51,2.8-6.39,3-1,.08-1.71.16-1.79.54a2.15,2.15,0,0,0,.46,1.77A3.67,3.67,0,0,0,200,81.47a1.19,1.19,0,0,1,.77,1.89,2.39,2.39,0,0,1-.69.69,5.24,5.24,0,0,1-4.57.58c-1.19-.38-1-1-.64-1.82.39-1.07.11-2.56-1.18-2.75a2.24,2.24,0,0,0-2.32,1.57,2.87,2.87,0,0,0,.39,2.23,6,6,0,0,0,3.38,2.44,8.06,8.06,0,0,0,6-.76,9.61,9.61,0,0,0,4.2-4.78Zm.16-7.9a.61.61,0,0,1,.68-.25c.2-.92.45-1.85.73-2.77a4,4,0,0,0-3.64,1.31s0,0-.05.08l-.05.05c-.33.5-.68,1.49,0,1.87.43.25,1.19.22,2.3-.29Zm3.28,21.34c0-.46-.46-.93-.69-1.41a5.92,5.92,0,0,1-1.79,2.36,4.06,4.06,0,0,1-2.85.87,2.42,2.42,0,0,1-.36-.1.59.59,0,0,1-.4-.74v0a.63.63,0,0,1,.78-.4c.05,0,.13,0,.2,0a2.8,2.8,0,0,0,2-.64,4.7,4.7,0,0,0,1.63-2.44,3.52,3.52,0,0,0,.15-.66c-.2-.5-.38-1-.56-1.54-1,2.49-3.07,3.46-4.58,4.22-.89.44-1.57.77-1.49,1.15a2.29,2.29,0,0,0,1.07,1.49,3.84,3.84,0,0,0,2.25.67,1.25,1.25,0,0,1,1.27.55,1.19,1.19,0,0,1,.13.94,2.23,2.23,0,0,1-.38.88,5.3,5.3,0,0,1-4.09,2.17c-1.24.08-1.24-.52-1.24-1.46,0-1.11-.77-2.43-2.09-2.14a2.22,2.22,0,0,0-1.58,2.31,2.73,2.73,0,0,0,1.17,1.91,6.08,6.08,0,0,0,4,1.07,8.05,8.05,0,0,0,5.33-2.89,9.23,9.23,0,0,0,2.17-6.15s0,0,0-.06Zm10,9.65-1.34-.71a6,6,0,0,1-.27,3,4,4,0,0,1-2,2.29c-.1,0-.23.07-.35.12a.62.62,0,0,1-.76-.42.6.6,0,0,1,.39-.76h0a.66.66,0,0,0,.2-.06,2.68,2.68,0,0,0,1.29-1.57,4.55,4.55,0,0,0,.08-2.94c0-.19-.12-.39-.2-.63a14.19,14.19,0,0,1-1.4-1,8.33,8.33,0,0,1-1.67,5.7c-.53.83-.91,1.47-.65,1.77a2.32,2.32,0,0,0,1.7.7,3.92,3.92,0,0,0,2.28-.64c1.23-.94,2.15.19,2.13,1.46a5.34,5.34,0,0,1-2.29,4c-1,.71-1.34.2-1.82-.58-.63-1-2-1.61-2.91-.69a2.28,2.28,0,0,0-.12,2.81,2.72,2.72,0,0,0,2,1,5.89,5.89,0,0,0,4-1.26,8,8,0,0,0,3-5.3,9.82,9.82,0,0,0-1.35-6.32Zm10.91,2.58c-.33,0-.63,0-1,0a5.35,5.35,0,0,1,1.13,2.63,3.47,3.47,0,0,1-.6,2.48c-.28.38-.76.66-1.14.23s-.13-.7.18-1a2.36,2.36,0,0,0,.34-1.6,4,4,0,0,0-1.55-2.64.63.63,0,0,1-.2-.26c-.36,0-.74-.09-1.09-.17a7.08,7.08,0,0,1,1,5.11c-.07.78-.12,1.39.14,1.46a1.78,1.78,0,0,0,1.41-.08,3.17,3.17,0,0,0,1.46-1.32c.61-1.27,1.82-.77,2.33.27a4.44,4.44,0,0,1-.18,4c-.53,1-1,.74-1.72.31a1.55,1.55,0,0,0-2.17.29,1,1,0,0,0-.15.25,1.81,1.81,0,0,0,.94,2,2.22,2.22,0,0,0,1.82,0,4.82,4.82,0,0,0,2.45-2.42,6.62,6.62,0,0,0,.2-5.06,8.1,8.1,0,0,0-3.46-4.21c-.07,0-.15-.1-.2-.17Zm-6-.81s-1.8-.52-2-.6a3.16,3.16,0,0,0,.72,2.81c.33.27,1,.7,1.39.24s.3-1-.08-2.12a.93.93,0,0,1,0-.33Zm10.66.46c-.51.08-1,.16-1.57.21a2.52,2.52,0,0,0,1.5,1.81c.3.1,1,.17,1.09-.23s-.16-.81-.84-1.49a.45.45,0,0,1-.18-.3Zm1.45,3.13a2.45,2.45,0,0,1-1,.26,1.57,1.57,0,0,0,.51,1.13c.36.23.81-.13.86-.48a1,1,0,0,0-.4-.91Zm.7,2.48s0,0-.05,0a2,2,0,0,1-1,.21,1.53,1.53,0,0,0,.24,1.26c.3.33.78.07.93-.26a1.5,1.5,0,0,0-.1-1.24Zm0,2.81-.1,0a2,2,0,0,1-.94,0,1.6,1.6,0,0,0,0,1.27.51.51,0,0,0,.7.14.93.93,0,0,0,.14-.14,1.54,1.54,0,0,0,.22-1.25Zm-12.95-5a2.31,2.31,0,0,1-1.29-.29,2,2,0,0,0-.12,1.7.84.84,0,0,0,1.18.14.73.73,0,0,0,.19-.2,1.42,1.42,0,0,0,0-1.34Zm-.57,3h-.18a2.16,2.16,0,0,1-1.21-.37,2,2,0,0,0-.5,1.67.82.82,0,0,0,1.09.43.79.79,0,0,0,.23-.14,2,2,0,0,0,.57-1.59Zm-1.48,3a2,2,0,0,1-1.22-.66,2,2,0,0,0-.82,1.5.71.71,0,0,0,.78.63.67.67,0,0,0,.25-.08,2,2,0,0,0,1-1.39ZM212,98.6c-.46-.53-.91-1.09-1.32-1.64a3,3,0,0,0-.87,2.66c.1.43.48,1.24,1.06,1,.38-.15.78-.69,1.06-1.83a1.87,1.87,0,0,1,.07-.22Zm-2.13,3.12a2.34,2.34,0,0,1-.94-.93,2,2,0,0,0-1,1.37c0,.6.69.88,1.19.7A1.53,1.53,0,0,0,209.89,101.72Zm-2.07,2.21-.15-.08a2,2,0,0,1-.84-1,2,2,0,0,0-1.26,1.1l0,0h0c-.5.59.39,1,.92.93a1.78,1.78,0,0,0,1.31-1Zm-2.88,1.76a2,2,0,0,1-.68-1.19,2.17,2.17,0,0,0-1.52.82.69.69,0,0,0,.29.93.84.84,0,0,0,.27.08,2,2,0,0,0,1.64-.64Zm1.14-19.14a23,23,0,0,1-.41-2.37A3.05,3.05,0,0,0,204,86.26a1.7,1.7,0,0,0,.16,1,.57.57,0,0,0,.48.29c.36,0,.86-.28,1.44-1Zm-2.75,1.74a2.46,2.46,0,0,1-.57-1.22,2.12,2.12,0,0,0-1.38.85.76.76,0,0,0,.34,1l.09,0h0a1,1,0,0,0,.38.08,1.6,1.6,0,0,0,1.13-.79Zm-2.76,1.3a2,2,0,0,1-.53-1.34,2.09,2.09,0,0,0-1.6.54s0,0,0,0a.8.8,0,0,0,.26,1.1.77.77,0,0,0,.3.11,1.81,1.81,0,0,0,1.59-.46Zm-3.31.62a2,2,0,0,1-.2-1.37,2.23,2.23,0,0,0-1.7.21c-.63.54.13,1.11.18,1.16.3.28.94.28,1.72,0Zm4.43-17.15a2.63,2.63,0,0,1,.14-1.77,2.73,2.73,0,0,0-2.32.14,1.14,1.14,0,0,0,0,1.62,1.45,1.45,0,0,0,.36.25,1.89,1.89,0,0,0,1.85-.24Zm-3.7-.13c0-.13-.05-.23-.07-.36a2.12,2.12,0,0,1,.29-1.57,2.84,2.84,0,0,0-2.3-.42h0a1.16,1.16,0,0,0-.43,1.57,1.1,1.1,0,0,0,.26.31,2.57,2.57,0,0,0,2.3.47Zm-3.92-1.23a2.33,2.33,0,0,1,.62-1.74,2.8,2.8,0,0,0-2.18-.88,1,1,0,0,0-.74,1.19.88.88,0,0,0,.17.35,2.5,2.5,0,0,0,2.13,1.08Zm19.06-14.17c.68-1,1.44-1.91,2.22-2.82a4.87,4.87,0,0,0-4.81-.36c-.71.39-1.7,1.45-1,2.29.4.53,1.42.87,3.19.74a.66.66,0,0,1,.43.15ZM208,55.83a2.54,2.54,0,0,1,.17-.71,3.23,3.23,0,0,1,.86-1.21,3.72,3.72,0,0,0-2.69-1,1.45,1.45,0,0,0-.65,2.36,2.59,2.59,0,0,0,2.31.59ZM204.13,54A2.58,2.58,0,0,1,205.31,52a3.5,3.5,0,0,0-2.41-1.63,1.39,1.39,0,0,0-1.37,1.43,1.28,1.28,0,0,0,.17.64A3.07,3.07,0,0,0,204.14,54Zm-3.71-3.1A2.54,2.54,0,0,1,202,49.26c-.64-1.37-1.4-2-2.06-2.1a1.26,1.26,0,0,0-1.47,1,1.14,1.14,0,0,0,0,.52c.08.71.66,1.51,2,2.24Zm27.4-6.52c1-.58,2.1-1.12,3.18-1.65a4.85,4.85,0,0,0-4.21-2.21c-.81.08-2.12.64-1.86,1.68.18.65.94,1.38,2.61,2A.4.4,0,0,1,227.82,44.41Zm-3.89-3.5a3.33,3.33,0,0,1,1.72-1.37A4.2,4.2,0,0,0,224,37.73a1.32,1.32,0,0,0-1.82.4,1.31,1.31,0,0,0-.07,1.27c.15.61.71,1.19,1.85,1.51Zm-2.87-3.22A2.62,2.62,0,0,1,223,36.26c-.39-1.49-1-2.24-1.63-2.49a1.43,1.43,0,0,0-1.87,1.45,3.08,3.08,0,0,0,1.58,2.47Zm-2.14-4.32a1.72,1.72,0,0,1,.45-.4,2.6,2.6,0,0,1,1.64-.51,3.27,3.27,0,0,0-1-2.73,1.27,1.27,0,0,0-1.75.33,1.32,1.32,0,0,0-.19.46,3.33,3.33,0,0,0,.9,2.86Zm27.42,5.07c1.26-.16,2.53-.24,3.82-.32A4.68,4.68,0,0,0,247,34.87c-.79-.19-2.23-.11-2.33,1-.07.66.39,1.54,1.66,2.62Zm-2.17-4.19a2.32,2.32,0,0,1,.63-.4,3.38,3.38,0,0,1,1.47-.31A3.5,3.5,0,0,0,245,31a1.26,1.26,0,0,0-1.39,0,1.68,1.68,0,0,0-.73,1.24,2.5,2.5,0,0,0,1.25,2Zm-1.61-4a4.12,4.12,0,0,1,.4-.33,2.53,2.53,0,0,1,1.87-.39c.12-1.52-.19-2.45-.7-2.88a1.41,1.41,0,0,0-2,.24,1.38,1.38,0,0,0-.25.5,3.16,3.16,0,0,0,.67,2.86ZM242,25.45a2.56,2.56,0,0,1,2.3-.16,3.38,3.38,0,0,0-.06-2.93,1.25,1.25,0,0,0-1.75-.28,1.16,1.16,0,0,0-.35.38,3.29,3.29,0,0,0-.14,3ZM286.63,41.2a3.4,3.4,0,0,1,2.4.67c.45-.91,1-2.33.47-3.32a1.66,1.66,0,0,0-2.27-.51,1.83,1.83,0,0,0-.47.45,2.71,2.71,0,0,0-.14,2.71Zm1-4.61a2.77,2.77,0,0,1,2.56.8c1.11-1.32,1.41-2.4,1.23-3.16a1.6,1.6,0,0,0-2-1.07,1.38,1.38,0,0,0-.58.32,3.45,3.45,0,0,0-1.2,3.11Zm2.44-4.71a2.73,2.73,0,0,1,2.23,1.3c1.36-1,1.86-2,1.83-2.79A1.42,1.42,0,0,0,292.67,29a1.3,1.3,0,0,0-.58.14,3.71,3.71,0,0,0-2,2.74Zm-23.47,7.61c1.42.3,2.84.62,4.23,1a5.31,5.31,0,0,0-2.25-4.57h0a.47.47,0,0,0-.12-.07s0,0-.05,0a2.89,2.89,0,0,0-1.62-.37,1.21,1.21,0,0,0-1,.71c-.28.66-.12,1.77.82,3.31Zm-.78-5a2.28,2.28,0,0,1,.81-.23,3.52,3.52,0,0,1,1.67.19,4,4,0,0,0-.41-3.21l-.06-.05,0-.05a1.41,1.41,0,0,0-1.42-.37,1.76,1.76,0,0,0-.75.4l-.05.05a1.9,1.9,0,0,0-.4.61,2.75,2.75,0,0,0,.67,2.65Zm-.37-4.68a2.92,2.92,0,0,1,.58-.23,2.68,2.68,0,0,1,2.07.25c.68-1.6.65-2.71.27-3.37a1.65,1.65,0,0,0-2.29-.41,1.53,1.53,0,0,0-.42.42,3.62,3.62,0,0,0-.21,3.34Zm1-5.24a2.72,2.72,0,0,1,2.53.6c1-1.4,1.18-2.49.95-3.22a1.46,1.46,0,0,0-1.84-.91,1.56,1.56,0,0,0-.5.29,3.85,3.85,0,0,0-1.15,3.24ZM233.58,99.62a14.26,14.26,0,0,1-3.55-.54l-.19,1a10.74,10.74,0,0,0,3.74-.42Zm-5,.3.23-1.24a17.32,17.32,0,0,1-2.16-1l-.75,1.55a14.46,14.46,0,0,0,2.69.65Zm-3.85-1.1.83-1.7a17.31,17.31,0,0,1-2.08-1.46l-1.25,1.83a16.61,16.61,0,0,0,2.5,1.33Zm-3.52-2,1.33-2a21.83,21.83,0,0,1-1.7-1.77l-1.72,2a21.55,21.55,0,0,0,2.09,1.73Zm-2.95-2.64,1.79-2.11a16.19,16.19,0,0,1-1.19-1.89l-2.37,1.75a16.13,16.13,0,0,0,1.79,2.24Zm-2.44-3.28,2.47-1.83a16.88,16.88,0,0,1-.89-2.5l-3,1.51a20,20,0,0,0,1.38,2.83Zm-1.82-4,3.11-1.58c-.08-.4-.13-.84-.18-1.27l-3.49.55a20.28,20.28,0,0,0,.56,2.3Zm-.75-3.51,3.62-.58c0-.35,0-.7,0-1.08l-3.74.27a13,13,0,0,0,.1,1.39Zm-.13-2.61,3.87-.29a12.58,12.58,0,0,1,.22-1.39l-4,.09c0,.53-.07,1.06-.07,1.59Zm.18-2.86,4.15-.09c.13-.46.28-.91.43-1.39h-4.33c-.07.51-.17,1-.25,1.47Zm.55-2.71,4.5,0c.28-.66.55-1.32.9-2l-4.48-.79a25.61,25.61,0,0,0-.92,2.81Zm1.42-4,4.61.81c.25-.43.5-.86.78-1.29l-4.49-1.42c-.32.63-.62,1.26-.9,1.9Zm.24-3.32a2.66,2.66,0,0,0-2.22.77,2.79,2.79,0,0,0-.8,2,2.18,2.18,0,0,0,.94,1.69,34.52,34.52,0,0,1,2.08-4.49Zm70.63-.56L280.42,73c.67.69,1.33,1.39,2,2.1l6.38-4.86c-.81-1-1.68-2-2.59-3Zm2.39.8c2.43-3.6,2.83-6.43,2.24-8.18a2.36,2.36,0,0,0-3.48-1.58c-1.26.72-2.41,2.51-2.73,5.66a51.23,51.23,0,0,1,4,4.1ZM282,63.28h-.18l.05,0L277,69.83c.86.73,1.7,1.51,2.51,2.29l5.77-5.77c-1.07-1-2.16-1.81-3.31-3.07Zm1.46-.34a13.8,13.8,0,0,1,.3-1.39c-.18.38-.38.74-.58,1.14.1.08.18.18.28.25Zm6.09,8.28-6.33,4.83c.71.86,1.39,1.72,2.08,2.6l6.71-4c-.79-1.16-1.6-2.32-2.47-3.43ZM216.4,66.35c.3-.51.66-1,1-1.52,0,0,0,0,0-.06.45-.66.93-1.32,1.43-2a3,3,0,0,0-2-.14,1.71,1.71,0,0,0-1.16,1.55,3.77,3.77,0,0,0,.69,2.15Zm3.45-4.8.53-.61a32.89,32.89,0,0,1,2.36-2.51,2.73,2.73,0,0,0-2.23-.77,1.72,1.72,0,0,0-1.16,1.22,3.2,3.2,0,0,0,.5,2.68Zm3.85-4.06a36.07,36.07,0,0,1,3.5-2.8,3.12,3.12,0,0,0-2.63-.77,1.94,1.94,0,0,0-1.34,1.24,2.77,2.77,0,0,0,.47,2.33Zm4.87-3.67a36.72,36.72,0,0,1,4.21-2.22l.05,0,.1,0a3.51,3.51,0,0,0-2.4-1.61,1.83,1.83,0,0,0-1.77,1,3.65,3.65,0,0,0-.19,2.93ZM234.25,51a36.45,36.45,0,0,1,4.87-1.49,4.3,4.3,0,0,0-2.89-1.81,1.91,1.91,0,0,0-1.87.87,2.91,2.91,0,0,0-.11,2.43Zm6.39-1.8a40.35,40.35,0,0,1,5.59-.63,4.47,4.47,0,0,0-2.72-3.05,2.24,2.24,0,0,0-2.23.44A3.51,3.51,0,0,0,240.64,49.19Zm7.08-.66a47.61,47.61,0,0,1,6,.37,5.53,5.53,0,0,0-2-3.71,2,2,0,0,0-2.37,0,4.84,4.84,0,0,0-1.61,3.34Zm7.39.6a55.53,55.53,0,0,1,6.23,1.41,5.67,5.67,0,0,0-2-4.62,2.35,2.35,0,0,0-2.45-.37c-.84.44-1.56,1.58-1.81,3.58Zm7.47,1.81a61.67,61.67,0,0,1,6,2.33A5.64,5.64,0,0,0,267.2,48a2.46,2.46,0,0,0-2.76-.57c-.86.43-1.58,1.55-1.85,3.52Zm7.2,2.88A53.9,53.9,0,0,1,275.44,57c1-2.89.6-5.34-.36-6.78a2.2,2.2,0,0,0-2.69-1.1c-1,.46-2,1.86-2.59,4.54,0,.05,0,.13,0,.2Zm6.75,3.82.12.07.15-.88c-.1.25-.18.53-.28.81Zm1.26.85a53.35,53.35,0,0,1,4.4,3.37c1.9-3.52,2-6.25,1.3-7.87-.56-1.31-1.81-2-3.11-1.23s-2.25,2.54-2.59,5.73Zm3.18,4c-.89-.73-1.77-1.43-2.69-2.09l-4.5,6.85c.79.58,1.55,1.19,2.31,1.82Zm-3.7-2.82c-1.15-.8-2.31-1.55-3.5-2.26l-3.62,7.33c.89.55,1.76,1.16,2.62,1.79Zm-4.57-2.89c-.94-.55-1.93-1.05-2.89-1.53l-3.67,7.15c1,.52,2,1.08,3,1.68Zm-4-2.08c-1.27-.6-2.56-1.12-3.85-1.63l-3,7.3c1.07.45,2.13.93,3.15,1.46Zm-5-2c-1.54-.55-3.09-1-4.68-1.42l-1.52,7.54c1.09.33,2.16.73,3.25,1.13Zm-5.88-1.69c-.93-.2-1.87-.4-2.78-.55l-.75,7.47c.68.15,1.37.34,2.05.52Zm-4-.72a34.76,34.76,0,0,0-3.67-.34l.18,7.29c.92.12,1.83.27,2.74.46Zm-4.91-.41c-1.24,0-2.48,0-3.72.07l.92,6.92c1,0,2,.08,3,.19Zm-5,.2c-.91.08-1.82.21-2.73.36l1.6,6.52c.68,0,1.34-.08,2.05-.08Zm-3.94.6c-.86.18-1.7.38-2.53.64l2.66,6c.48-.08,1-.13,1.44-.18Zm-3.72,1c-.75.25-1.51.53-2.27.84l3.16,5.38c.56-.16,1.11-.29,1.69-.41ZM232.79,53c-.61.28-1.21.59-1.82.92l3.13,5c.59-.23,1.17-.43,1.77-.64Zm-2.9,1.51a23.26,23.26,0,0,0-2.3,1.5l3.71,4.21a17.38,17.38,0,0,1,1.67-.84Zm-3.31,2.24c-.55.43-1.11.89-1.64,1.34l4,3.55a13.7,13.7,0,0,1,1.21-.78ZM224,58.93c-.43.4-.83.81-1.26,1.24l4.19,3.07c.33-.3.68-.58,1-.86Zm-2.12,2.16c-.17.2-.37.43-.55.66s-.35.43-.53.63l4.36,2.54.84-.84ZM220,63.37l-1.1,1.5,4.64,1.93c.25-.3.5-.61.78-.92Zm-1.83,2.54c-.5.74-1,1.5-1.38,2.23l4.58,1.45c.4-.58.86-1.19,1.34-1.81Zm44.91,1.93-.23.13a2.17,2.17,0,0,1-1.42.16,2.07,2.07,0,0,1-1.14-.78l-.13-.2a2.16,2.16,0,0,1-.13-1.54,3,3,0,0,1,.93-1.3,2.12,2.12,0,0,1,2.3-.24,2,2,0,0,1,.74.61,1.77,1.77,0,0,1,.36.91,2.28,2.28,0,0,1-1.29,2.25Zm-.77-1s.05,0,.08,0c.6-.41.81-.79.78-1.09a.52.52,0,0,0-.13-.3.94.94,0,0,0-.3-.26.87.87,0,0,0-1,.11,1.54,1.54,0,0,0-.53.68,1.06,1.06,0,0,0,0,.61s0,0,0,0a.89.89,0,0,0,.41.28.7.7,0,0,0,.6,0ZM279.8,85.4c-2.61-.67-2.42-3.65-.53-5.16a2.84,2.84,0,0,1,4,.38,3,3,0,0,1,.61,1.32,3.55,3.55,0,0,1-3.57,3.51,4.36,4.36,0,0,1-.52,0Zm2.82-3.32a1.62,1.62,0,0,0-1.95-1.19,1.73,1.73,0,0,0-.64.31c-1,.84-1.53,2.59.07,3a2.3,2.3,0,0,0,2.51-2.08v0Zm-40.92-19a2,2,0,0,1-1.41-2.36,1,1,0,0,1,0-.14,2.62,2.62,0,0,1,.93-1.29,2.08,2.08,0,0,1,2.93.26,2.12,2.12,0,0,1,.46,1,2.54,2.54,0,0,1-2.53,2.55,3,3,0,0,1-.42,0Zm1.71-2.41a.82.82,0,0,0-1-.62.75.75,0,0,0-.37.2,1.47,1.47,0,0,0-.53.68.68.68,0,0,0,.38.9.19.19,0,0,0,.1,0,1.29,1.29,0,0,0,1.41-1.17v0Zm-16.18,8.67a1.62,1.62,0,0,1-1.18-2,1,1,0,0,1,0-.14,2.48,2.48,0,0,1,.75-1.06,1.76,1.76,0,0,1,2.84,1.07,2.08,2.08,0,0,1-2,2.12,2.83,2.83,0,0,1-.41,0Zm1.21-2c0-.33-.53-.46-.81-.23a1.23,1.23,0,0,0-.35.46.37.37,0,0,0,.19.5l.09,0a.94.94,0,0,0,.88-.77Zm-8,13.26a1.62,1.62,0,0,1-1.19-2,.57.57,0,0,1,0-.14,2.46,2.46,0,0,1,.75-1.07,1.76,1.76,0,0,1,2.47.26,1.66,1.66,0,0,1,.37.82,2.06,2.06,0,0,1-2,2.12,2.28,2.28,0,0,1-.45,0Zm1.23-2a.2.2,0,0,0-.08-.15.51.51,0,0,0-.73-.08.84.84,0,0,0-.35.46.37.37,0,0,0,.19.5.32.32,0,0,0,.09,0c.35.1.9-.46.88-.76Zm5.58-1.8a1.63,1.63,0,0,1-1.19-2,.74.74,0,0,0,0-.14,2.6,2.6,0,0,1,.76-1.06,1.75,1.75,0,0,1,2.47.26,1.72,1.72,0,0,1,.37.81,2.09,2.09,0,0,1-2,2.14,1.49,1.49,0,0,1-.42,0Zm1.21-2c0-.33-.54-.45-.81-.23a1.16,1.16,0,0,0-.36.46.41.41,0,0,0,.24.52h0a.93.93,0,0,0,.89-.76Zm6.93-5.42a1.62,1.62,0,0,1-1.19-2l0-.13a2.56,2.56,0,0,1,.76-1.07,1.76,1.76,0,0,1,2.84,1.08,2.07,2.07,0,0,1-2,2.11,1.56,1.56,0,0,1-.43,0Zm1.21-2c0-.33-.54-.46-.81-.23a.91.91,0,0,0-.36.46.39.39,0,0,0,.19.5l.09,0c.38.1.91-.46.89-.76Zm14.9.79-.23.13a2.15,2.15,0,0,1-1.41.16,2.09,2.09,0,0,1-1.15-.78.77.77,0,0,1-.1-.18,2.16,2.16,0,0,1-.13-1.54,2.63,2.63,0,0,1,.93-1.29,2.16,2.16,0,0,1,2.3-.27,2.54,2.54,0,0,1,.74.61,1.74,1.74,0,0,1,.36.91,2.3,2.3,0,0,1-1.31,2.25Zm-.76-1s.05,0,.07,0c.61-.4.83-.79.78-1.09a.48.48,0,0,0-.13-.3.69.69,0,0,0-.3-.23.85.85,0,0,0-1,.1,1.53,1.53,0,0,0-.52.69.77.77,0,0,0,.05.61.08.08,0,0,1,0,0,.76.76,0,0,0,.41.27.78.78,0,0,0,.58,0Zm16,12.43a2.26,2.26,0,0,1-1.67-2.74,1.09,1.09,0,0,1,.07-.24,3.08,3.08,0,0,1,1.13-1.57,2.5,2.5,0,0,1,3.52.34,2.47,2.47,0,0,1,.53,1.16,3.07,3.07,0,0,1-3.07,3.09,2.92,2.92,0,0,1-.51,0Zm2.34-2.92a1.25,1.25,0,0,0-2-.67,2.1,2.1,0,0,0-.73,1,1.07,1.07,0,0,0,.62,1.38l.12,0a1.87,1.87,0,0,0,2-1.7Zm9,24.6c-2.48-.64-2.49-3.58-.53-5.18a2.85,2.85,0,0,1,4,.37,3,3,0,0,1,.61,1.33,3.53,3.53,0,0,1-3.51,3.53,3.79,3.79,0,0,1-.58,0ZM281,98.15a1.6,1.6,0,0,0-2.58-.85c-1.11.89-1.43,2.62.06,3A2.32,2.32,0,0,0,281,98.2v0Z" fill="#fff"/><g id="Group_6962" data-name="Group 6962"><path id="Path_13385-2" data-name="Path 13385-2" d="M79.11,14.77C76,14.66,71.75,12.63,73.2,9c.88-2.28,3.39-2.49,5.37-1.61a13.48,13.48,0,0,1-1.94-1.61,13.49,13.49,0,0,1-3.07-4.4L142.8,1c1.44,2.74,2,12.51-1.88,13.11-2.44.35-3.88-1.69-4.08-3.85a15.91,15.91,0,0,1-.41,2.47c-1.07,3.84-4,8-8.13,8.86a6.39,6.39,0,0,1-3-.07,6.68,6.68,0,0,1-3.88-3.07h0c-.11,0-.27.07-.42.11.2,2.28-.45,4.81-2.84,5.55-.61,2.24-2.11,4.53-4.62,4.74-1.66,2.63-5.51,5.28-8,2.23-1.52-1.93-.49-4.17,1.29-5.46a15.13,15.13,0,0,1-2.36.86c-3.86,1-8.93.54-11.73-2.62a6,6,0,0,1-1.4-2.62,6.61,6.61,0,0,1,.71-4.92h0c-.12-.07-.19-.19-.31-.27-1.85,1.33-4.36,2-6.23.34-2.28.63-5,.49-6.46-1.6ZM82,1.35c2,2.12,4.36,1.79,6,1.58.47-.08,1.47-.16.89-.74a4.41,4.41,0,0,1-.79-.88s-6.12,0-6.09,0Zm35.37-.27a23,23,0,0,1,.56,3.5c.36,3.33,1.34,5.06,4.73,2.53a7.52,7.52,0,0,0,2.69-3.64,2.05,2.05,0,0,1,2.29-1.77,2.17,2.17,0,0,1,.92.36,4.86,4.86,0,0,1,1.24,1.15,9.74,9.74,0,0,1,1.27,8.35c-.57,2-1.57,1.67-3.09,1.14a4,4,0,0,0-3.4,0,3.33,3.33,0,0,0-2,2.49,4.38,4.38,0,0,0,3.23,4.47,4.11,4.11,0,0,0,2.09,0c3.4-.71,5.82-4.36,6.66-7.49A14.23,14.23,0,0,0,133.16,1l-9.44,0a5.05,5.05,0,0,1-1.26,3.2,1,1,0,0,1-1.34.18,1,1,0,0,1-.21-1.3,3.26,3.26,0,0,0,.8-2.07Zm-9.7.62a43.44,43.44,0,0,1-5.32,4.73c-2.7,2-3.74,3.65.14,5.34a7.41,7.41,0,0,0,4.53.48,2,2,0,0,1,2.67,1.06,2.07,2.07,0,0,1,.16,1,5,5,0,0,1-.38,1.67,9.61,9.61,0,0,1-6.63,5.25c-2,.51-2.2-.53-2.52-2.12a3.91,3.91,0,0,0-1.72-2.93,3.26,3.26,0,0,0-3.13-.45,4.34,4.34,0,0,0-2,5.81,4.39,4.39,0,0,0,.72,1c2.33,2.62,6.67,2.87,9.83,2.05a15.45,15.45,0,0,0,9.06-7.43A19.12,19.12,0,0,0,115.2,4.78a.89.89,0,0,1,.72-1h0A25.27,25.27,0,0,0,115.18,1a73.92,73.92,0,0,1-4.54,6.44c-1.42,1.6-3.62,2.92-5.83,2.66a1,1,0,1,1,.23-1.9,5.32,5.32,0,0,0,4.2-2c1.27-1.39-.37-6.6-1.56-4.5Zm9.66,7.22v.23l.08-.12S117.38,9,117.34,8.92ZM119,10.15a6.55,6.55,0,0,0-1.53,3.72c0,1.54,2.06,3.28,3.26,2.81a0,0,0,0,0,0,0h0a4.24,4.24,0,0,1,0-1.7,5.09,5.09,0,0,1,3-3.92,5.63,5.63,0,0,1,4.92-.14c.35.12.58.23.62.12a7.88,7.88,0,0,0-1-6.69c-.27-.39-.86-1.2-1.08-.42a9.75,9.75,0,0,1-3.38,4.73c-2,1.48-3.6,1.92-4.8,1.53Zm17.94-1.74c0-.39.15-.82.23-1.24l-.35-.46c0,.58.08,1.12.12,1.7Zm-1.26-6V2c-.08-.08-.16-.12-.24-.2A5,5,0,0,0,135.65,2.41Zm1.9.3c0,1.28.68,4.45,2.76,3.55s1-3.45-.06-4.72a3.55,3.55,0,0,1-2.7,1.17Zm1.3,5.49c-.23,1.24-.25,4.33,1.8,4s1.57-3.22,1-4.53a3.42,3.42,0,0,1-2.78.51ZM90.52,1.29c.91.92.8,2.16-.62,3a5.83,5.83,0,0,1-1.63.51c-2.12.28-5.61-.82-8.13-3.44l-4.46,0a11.15,11.15,0,0,0,2.38,3.12A15.28,15.28,0,0,0,89,8.57a19.17,19.17,0,0,0,11.81-4.38,1,1,0,0,1,1.28.07,14.72,14.72,0,0,0,3.43-3.11Zm7.79,6.77-.23.12h.15S98.31,8.1,98.31,8.06Zm-.27,2a6.16,6.16,0,0,0-4,.56c-1.31.82-1.8,3.45-.79,4.22l0,0a6.05,6.05,0,0,1,1.43-.9,5.22,5.22,0,0,1,4.91.6,5.6,5.6,0,0,1,2.57,4.17c.08.35.12.62.2.58a7.7,7.7,0,0,0,5.32-4.16c.19-.47.57-1.36-.16-1.12a9.58,9.58,0,0,1-5.81-.6c-2.28-.92-3.45-2.11-3.72-3.38Zm10.47,14.66a10.14,10.14,0,0,1,1.16-.43c.08-.19.16-.35.23-.54a9.08,9.08,0,0,1-1.39,1Zm4.55-4.08c.12-.08.23-.12.35-.2s0-.19,0-.31a2.4,2.4,0,0,1-.39.5Zm2.54-4.15a5.44,5.44,0,0,1,.49-.47,1.77,1.77,0,0,0-.15-.31c-.12.24-.23.5-.35.78Zm1.74,1c-1.08,1-3.46,3.88-1.06,4.84,2.9,1.11,2.58-2.61,2.85-3.88a5.73,5.73,0,0,1-1.79-1Zm-3.58,5c-1.08.66-3.5,2.84-1.68,4.15s3.52-.83,4.09-2.42a3.68,3.68,0,0,1-2.41-1.73Zm-4.12,3.89c-1.16.43-3.86,1.95-2.58,3.57s3.56-.21,4.45-1.41a3.7,3.7,0,0,1-1.87-2.16Zm-29.48-18c.31.24.62.5,1,.81a3.85,3.85,0,0,1,.58-.08C81.17,8.87,80.67,8.61,80.16,8.37ZM86,10.25c.12.08.23.11.35.19l.27-.12A2.56,2.56,0,0,1,86,10.25Zm4.88.09c.23.08.42.12.65.19a1.49,1.49,0,0,1,.2-.31,2.5,2.5,0,0,1-.85.12Zm0,2c-1.39-.42-5.11-1-4.71,1.49.51,3,3.56.91,4.8.47a4.84,4.84,0,0,1-.08-2Zm-6.11-.6c-1.13-.57-4.22-1.64-4.45.6s2.49,2.62,4.11,2.31a3.4,3.4,0,0,1,.34-2.91Zm-5.42-1.6c-1-.81-3.65-2.38-4.38-.44s2,3,3.46,3.11A3.23,3.23,0,0,1,79.36,10.16Z" fill="#fff"/></g></g><g id="Group_6964" data-name="Group 6964"><path id="Path_13507" data-name="Path 13507" d="M.35,88.67l316-1.36.14,33-310,1.33a6,6,0,0,1-6-6Z" fill="#4a5a7b" opacity="0.8" style="isolation:isolate"/><g id="Group_6959" data-name="Group 6959"><g id="Group_6432" data-name="Group 6432"><circle id="Ellipse_1636" data-name="Ellipse 1636" cx="28.88" cy="96.05" r="2" fill="#fff"/><circle id="Ellipse_1637" data-name="Ellipse 1637" cx="21.88" cy="96.08" r="2" fill="#fff"/><circle id="Ellipse_1638" data-name="Ellipse 1638" cx="14.88" cy="96.11" r="2" fill="#fff"/><circle id="Ellipse_1639" data-name="Ellipse 1639" cx="7.88" cy="96.14" r="2" fill="#fff"/></g><g id="Group_6433" data-name="Group 6433"><circle id="Ellipse_1636-2" data-name="Ellipse 1636-2" cx="28.91" cy="102.05" r="2" fill="#fff"/><circle id="Ellipse_1637-2" data-name="Ellipse 1637-2" cx="21.91" cy="102.08" r="2" fill="#fff"/><circle id="Ellipse_1638-2" data-name="Ellipse 1638-2" cx="14.91" cy="102.11" r="2" fill="#fff"/><circle id="Ellipse_1639-2" data-name="Ellipse 1639-2" cx="7.91" cy="102.14" r="2" fill="#fff"/></g><g id="Group_6434" data-name="Group 6434"><circle id="Ellipse_1636-3" data-name="Ellipse 1636-3" cx="28.93" cy="108.05" r="2" fill="#fff"/><circle id="Ellipse_1637-3" data-name="Ellipse 1637-3" cx="21.93" cy="108.08" r="2" fill="#fff"/><circle id="Ellipse_1638-3" data-name="Ellipse 1638-3" cx="14.93" cy="108.11" r="2" fill="#fff"/><circle id="Ellipse_1639-3" data-name="Ellipse 1639-3" cx="7.93" cy="108.14" r="2" fill="#fff"/></g><g id="Group_6435" data-name="Group 6435"><circle id="Ellipse_1636-4" data-name="Ellipse 1636-4" cx="28.96" cy="114.05" r="2" fill="#fff"/><circle id="Ellipse_1637-4" data-name="Ellipse 1637-4" cx="21.96" cy="114.08" r="2" fill="#fff"/><circle id="Ellipse_1638-4" data-name="Ellipse 1638-4" cx="14.96" cy="114.11" r="2" fill="#fff"/><circle id="Ellipse_1639-4" data-name="Ellipse 1639-4" cx="7.96" cy="114.14" r="2" fill="#fff"/></g></g></g><g id="Group_6965" data-name="Group 6965"><g id="Group_6960" data-name="Group 6960"><g id="Group_6684" data-name="Group 6684"><g id="Group_6442" data-name="Group 6442"><path id="Path_13396" data-name="Path 13396" d="M391.16,3.7l.49,112.61c0,2-1.31,3.72-2.94,3.73l-89.33.38-.14-.18,4.74-6-4.8-6,4.74-6-4.79-6,4.74-6-4.79-6,4.74-6-4.79-6,4.74-6-4.79-6,4.74-6-4.79-6,4.74-6-4.8-6,4.74-6-4.79-6,4.74-6-4.79-6,4.74-6-4.79-6,.15-.19L388.19,0C389.82,0,391.15,1.65,391.16,3.7Z" fill="#fff"/></g></g></g></g></g></g></g><g id="Group_6987" data-name="Group 6987"><g id="Group_6685" data-name="Group 6685"><g id="Group_6682" data-name="Group 6682"><path id="Path_9576" data-name="Path 9576" d="M355.65,63.37a2.94,2.94,0,0,0-2.9-3h-.28c0-.1.06-.19.08-.28l2-.24a2.89,2.89,0,0,0,2-1.18l2.2.69a2.24,2.24,0,0,0,2.81-1.47h0l9.31-29.74a2.24,2.24,0,0,0-1.47-2.81h0l-18.64-5.84h0l-.51-.16a1.71,1.71,0,0,0-2.14,1.12h0l-4.81,15.39-.25.77c-6.62-2.07-9.6-.08-13.81,9.61-.48,1-1,2.31-1.56,3.8l-.17.42h0a34.62,34.62,0,0,0-1.9,9,9.51,9.51,0,0,0,1.78,6.21l-1.93,3.1-.88-.55c-.7-.44-.63,1.11.89,2.8,3.2,3.64,10.06,5.59,9.25,4.59l5-4.2c4.51.7,8.7-1.25,10.24-4.24.14-.28.28-.59.43-.93l2.2,0a2.93,2.93,0,0,0,3-2.89h0Z" fill="#14375e" opacity="0.2" style="isolation:isolate"/><g id="Group_4715" data-name="Group 4715"><path id="Path_9577" data-name="Path 9577" d="M353.16,46c-.27,3.56-2.69,12.64-4.43,16s-6.87,5.45-12,3.83l-5.19-1.62a9.6,9.6,0,0,1-7.14-9.92,39.06,39.06,0,0,1,4.93-15.77C330.77,33.8,353.44,42.41,353.16,46Z" fill="#fdcd9b"/><path id="Path_9578" data-name="Path 9578" d="M353.26,54.67l-2.27.26a2.94,2.94,0,0,1-3.27-2.58h0a2.94,2.94,0,0,1,2.58-3.26h0l2.27-.27a3,3,0,0,1,3.27,2.58h0a3,3,0,0,1-2.58,3.27Z" fill="#fcbe7e"/><path id="Path_9580" data-name="Path 9580" d="M351.37,61.07l-2.29,0a2.94,2.94,0,0,1-2.9-3h0a3,3,0,0,1,3-2.9l2.29,0a3,3,0,0,1,2.9,3h0a2.94,2.94,0,0,1-3,2.91Z" fill="#fcbe7e"/><path id="Path_9582" data-name="Path 9582" d="M326.24,45.26c5.93-15.1,8.75-16.74,18.8-12.63l-2.55,6.76c-2.42-.91-3.2,0-3.61,1.66" fill="#fdcd9b"/><rect id="Rectangle_3384" data-name="Rectangle 3384" x="335.66" y="22.24" width="35.65" height="24.01" rx="6.18" transform="translate(215.21 361.36) rotate(-72.62)" stroke-width="1.39" stroke="#14375e" stroke-linecap="round" stroke-linejoin="round" fill="#fff"/><path id="Path_9587" data-name="Path 9587" d="M337,46.72,347.05,14.6a1,1,0,0,1,1.26-.65l21,6.57a1,1,0,0,1,.66,1.26L359.92,53.89a1,1,0,0,1-1.26.66l-21-6.58A1,1,0,0,1,337,46.72Z" fill="#70b3e2" stroke="#8bc4eb" stroke-linecap="round" stroke-width="1.39"/><g id="Group_4708" data-name="Group 4708"><rect id="Rectangle_3387" data-name="Rectangle 3387" x="346.48" y="24.13" width="7.94" height="6.79" rx="1.55" transform="translate(219.44 353.73) rotate(-72.61)" fill="#fff"/><rect id="Rectangle_3388" data-name="Rectangle 3388" x="349.02" y="25.03" width="2.85" height="4.99" rx="0.84" transform="translate(219.5 353.75) rotate(-72.62)" fill="#d1d151"/><g id="Group_4706" data-name="Group 4706"><path id="Rectangle_3389" data-name="Rectangle 3389" d="M348.7,24.77l.2-.65a.36.36,0,0,1,.44-.24h0l.66.21a.36.36,0,0,1,.23.44h0l-.21.65a.35.35,0,0,1-.44.24h0l-.65-.21A.35.35,0,0,1,348.7,24.77Z" fill="#d1d151"/><path id="Rectangle_3390" data-name="Rectangle 3390" d="M350.84,24.49h.68a.35.35,0,0,1,.35.35v.68a.36.36,0,0,1-.36.36h-.68a.35.35,0,0,1-.35-.35v-.68A.35.35,0,0,1,350.84,24.49Z" transform="translate(222.25 352.81) rotate(-72.62)" fill="#d1d151"/><path id="Rectangle_3391" data-name="Rectangle 3391" d="M352.13,25.84l.21-.65a.34.34,0,0,1,.44-.23h0l.65.2a.35.35,0,0,1,.23.45l-.2.65a.36.36,0,0,1-.44.23l-.65-.2a.36.36,0,0,1-.24-.45Z" fill="#d1d151"/></g><g id="Group_4707" data-name="Group 4707"><path id="Rectangle_3392" data-name="Rectangle 3392" d="M347.23,29.44l.21-.65a.34.34,0,0,1,.44-.23h0l.65.2a.36.36,0,0,1,.24.44l-.21.66a.36.36,0,0,1-.44.23l-.65-.2a.36.36,0,0,1-.24-.45Z" fill="#d1d151"/><path id="Rectangle_3393" data-name="Rectangle 3393" d="M349,30l.21-.65a.35.35,0,0,1,.44-.24l.65.21a.35.35,0,0,1,.23.44l-.2.65a.36.36,0,0,1-.44.24l-.66-.21A.35.35,0,0,1,349,30Z" fill="#d1d151"/><rect id="Rectangle_3394" data-name="Rectangle 3394" x="350.74" y="29.7" width="1.39" height="1.39" rx="0.35" transform="translate(217.45 356.71) rotate(-72.62)" fill="#d1d151"/></g></g><rect id="Rectangle_3395" data-name="Rectangle 3395" x="342.44" y="33.71" width="35.65" height="5.31" transform="translate(217.94 369.33) rotate(-72.62)" fill="#fff"/><path id="Path_9583" data-name="Path 9583" d="M328.33,44.21c3.07-4,5.56-4.74,10.31-5.18l13.52-3.35c5.33-1.74,7.51,5,2.19,6.71l-9.31,4c-2.76,1-4.25,3.52-4.79,6.42A12.22,12.22,0,0,1,335.81,60" fill="#fdcd9b"/><g id="Group_4710" data-name="Group 4710"><g id="Group_4709" data-name="Group 4709"><path id="Path_9584" data-name="Path 9584" d="M335.67,71l-1.15,1.76L323,65.55l1.31-1.8" fill="#6fb4e3"/><path id="Rectangle_3396" data-name="Rectangle 3396" d="M324.77,63.92l10.43,6.49a3.2,3.2,0,0,1,1,4.41h0a3.19,3.19,0,0,1-4.41,1l-10.42-6.48a3.21,3.21,0,0,1-1-4.41h0A3.21,3.21,0,0,1,324.77,63.92Z" fill="#6fb4e3"/></g></g><path id="Path_9586" data-name="Path 9586" d="M334,36.65s3.47.69,4.13,2.23" fill="none" stroke="#fcbe7e" stroke-linecap="round" stroke-linejoin="round" stroke-width="1.39"/></g></g></g><g id="Group_6986" data-name="Group 6986"><path id="Path_13506" data-name="Path 13506" d="M345.73,91.32l-.65.67a.39.39,0,0,0,0,.56l5.17,5.13-11.34,0a.39.39,0,0,0-.39.4v.93a.4.4,0,0,0,.4.4l11.34,0-5.13,5.17a.4.4,0,0,0,0,.56l.66.66a.41.41,0,0,0,.57,0l6.92-7a.42.42,0,0,0,0-.57l-7-6.92A.4.4,0,0,0,345.73,91.32Z" fill="#7389ba"/><g id="Group_6975" data-name="Group 6975"><line id="Line_148" data-name="Line 148" x1="332.9" y1="98.74" x2="336.9" y2="98.72" fill="none" stroke="#7389ba" stroke-width="1.5"/></g></g></g></g></g></g></svg>