<svg xmlns="http://www.w3.org/2000/svg" viewBox="0 0 17.24 17.24"><title>phone</title><g id="Layer_2" data-name="Layer 2"><g id="Layer_1-2" data-name="Layer 1"><g id="phone"><g id="Group_4022" data-name="Group 4022"><g id="Group_4021" data-name="Group 4021"><path id="Path_4811" data-name="Path 4811" d="M16.91,13.71,15,12.43,13.3,11.3a.75.75,0,0,0-1,.16l-1,1.36a.77.77,0,0,1-1,.2,12.35,12.35,0,0,1-3.42-2.64A12.43,12.43,0,0,1,4.22,7a.76.76,0,0,1,.2-1L5.77,5a.76.76,0,0,0,.17-1L4.84,2.3,3.53.33a.75.75,0,0,0-1-.22L1,1A1.84,1.84,0,0,0,.17,2.1C-.24,3.6-.33,6.92,5,12.24s8.64,5.24,10.15,4.83a1.85,1.85,0,0,0,1.08-.84l.91-1.51A.76.76,0,0,0,16.91,13.71Z" style="fill:#4281c3"/><path id="Path_4812" data-name="Path 4812" d="M9.81,2.67a5.06,5.06,0,0,1,5,5.06.3.3,0,0,0,.26.33.3.3,0,0,0,.34-.25V7.73A5.66,5.66,0,0,0,9.81,2.08a.3.3,0,0,0-.34.26.3.3,0,0,0,.26.33A.11.11,0,0,0,9.81,2.67Z" style="fill:#4281c3"/><path id="Path_4813" data-name="Path 4813" d="M9.81,4.46a3.27,3.27,0,0,1,3.27,3.27.3.3,0,0,0,.34.26.3.3,0,0,0,.25-.26A3.88,3.88,0,0,0,9.81,3.86a.32.32,0,0,0-.26.34.3.3,0,0,0,.26.26Z" style="fill:#4281c3"/><path id="Path_4814" data-name="Path 4814" d="M9.81,6.24a1.49,1.49,0,0,1,1.48,1.49.32.32,0,0,0,.34.26.31.31,0,0,0,.26-.26A2.08,2.08,0,0,0,9.81,5.65a.29.29,0,0,0-.34.25.3.3,0,0,0,.25.34Z" style="fill:#4281c3"/></g></g></g></g></g></svg>