<svg xmlns="http://www.w3.org/2000/svg" viewBox="0 0 16.33 18.55"><title>phone_book</title><g id="Layer_2" data-name="Layer 2"><g id="Layer_1-2" data-name="Layer 1"><g id="contact"><path id="Path_4815" data-name="Path 4815" d="M14.13,0H3.69A2.21,2.21,0,0,0,1.48,2.21v1h-1a.45.45,0,0,0,0,.89h1V7h-1A.44.44,0,0,0,0,7.39a.44.44,0,0,0,.44.44h1v2.9h-1a.44.44,0,0,0-.44.44H0a.44.44,0,0,0,.44.44h1v2.9h-1A.45.45,0,0,0,0,15H0a.44.44,0,0,0,.44.44h1v1a2.2,2.2,0,0,0,2.2,2.2H14.12a2.21,2.21,0,0,0,2.21-2.21V2.21A2.21,2.21,0,0,0,14.13,0Zm1.32,16.34a1.33,1.33,0,0,1-1.32,1.33H3.69a1.35,1.35,0,0,1-1.33-1.33v-.95h1a.44.44,0,0,0,.42-.46.46.46,0,0,0-.42-.43h-1V11.6h1a.44.44,0,0,0,.42-.46.44.44,0,0,0-.42-.42h-1V7.82h1a.44.44,0,0,0,0-.88h-1V4h1a.44.44,0,0,0,0-.88h-1v-1A1.35,1.35,0,0,1,3.69.88H14.13a1.33,1.33,0,0,1,1.32,1.33Z" style="fill:#4281c3"/><path id="Path_4816" data-name="Path 4816" d="M8.9,9.15A2.15,2.15,0,1,0,6.76,7h0A2.14,2.14,0,0,0,8.9,9.15Zm0-3.41A1.26,1.26,0,1,1,7.64,7,1.26,1.26,0,0,1,8.9,5.74Z" style="fill:#4281c3"/><path id="Path_4817" data-name="Path 4817" d="M8.9,9.86a3.29,3.29,0,0,0-3.27,3.32v.07a.44.44,0,0,0,.44.44h5.67a.44.44,0,0,0,.44-.44A3.3,3.3,0,0,0,9,9.86Zm-2.36,3a2.38,2.38,0,0,1,4.72,0Z" style="fill:#4281c3"/></g></g></g></svg>