<svg xmlns="http://www.w3.org/2000/svg" viewBox="0 0 41.92 19.58"><title>pick_up</title><g id="Layer_2" data-name="Layer 2"><g id="Layer_1-2" data-name="Layer 1"><g id="Group_2" data-name="Group 2"><g id="Group_573" data-name="Group 573"><g id="Group_572" data-name="Group 572"><g id="Group_637" data-name="Group 637"><g id="pick_up" data-name="pick up"><path id="Path_1374" data-name="Path 1374" d="M18.56,0h-.38s0,0,0,0V8.79h.4Z" style="fill:#a8a9ac"/><path id="Path_1375" data-name="Path 1375" d="M2.35,17H9.57l.57-.59A3.92,3.92,0,0,0,6,12.11c-4.51,0-4.26,4.49-4.26,4.49Z" style="fill:#3a3a3a"/><path id="Path_1376" data-name="Path 1376" d="M2.37,17.3S.08,17.44.08,16.12v-.59a.18.18,0,0,1,.17-.17h0a.18.18,0,0,0,.19-.18h0v-.49a.19.19,0,0,0-.19-.19h0A.25.25,0,0,1,0,14.25V13.3a.25.25,0,0,1,.25-.25h0A.06.06,0,0,0,.31,13h0v-.36a.21.21,0,0,1,.21-.21h0V12.1a1.87,1.87,0,0,1,.18-.8c.4-.82,1.41-2.62,2.52-3.06l1-.27s.55-.65.8-.65A33,33,0,0,1,9,3.1s.13-.37.46-.37A.59.59,0,0,1,10,2.28a6.29,6.29,0,0,1,3.28-1.09c1.76-.12,3.94-.14,4.66-.14a.25.25,0,0,1,.25.25V16.48h0a.25.25,0,0,1,.25.25V17a.25.25,0,0,1-.25.25H9.57s.38-4.53-3.48-4.53C1.7,12.7,2.37,17.3,2.37,17.3Z" style="fill:#f1f2f2"/><path id="Path_1377" data-name="Path 1377" d="M17,8.73v1.41L7.3,8.79Z" style="fill:#fff"/><path id="Path_1378" data-name="Path 1378" d="M18.18,16.48H9.55q0,.38,0,.75h8.61a.25.25,0,0,0,.25-.25V16.7a.22.22,0,0,0-.22-.22Z" style="fill:#333332"/><path id="Path_1379" data-name="Path 1379" d="M7.3,8A15.44,15.44,0,0,1,9.59,4.74c1.41-1.49,2.1-1.87,3.3-2,.93-.12,2.84-.16,3.63-.16a.34.34,0,0,1,.34.33v0l-.32,3.17A2,2,0,0,1,14.7,7.87L8,8.37H7.58a.26.26,0,0,1-.25-.26V8Z" style="fill:#434343"/><path id="Path_1380" data-name="Path 1380" d="M16.43,3.48,16.14,6a1.7,1.7,0,0,1-1.6,1.49l-5.35.27a.7.7,0,0,1-.72-.68.66.66,0,0,1,.07-.33,8.54,8.54,0,0,1,1.6-2.22c1.34-1.3,1.61-1.37,2.41-1.55a25.68,25.68,0,0,1,3.82-.13A.12.12,0,0,1,16.5,3V3Z" style="fill:#010101"/><path id="Path_1381" data-name="Path 1381" d="M8.44,6.38V6a.35.35,0,0,1,.1-.25l.17-.17A.37.37,0,0,1,9,5.48h.42a.25.25,0,0,1,.25.25V7.2a.25.25,0,0,1-.25.25H8.64a.25.25,0,0,1-.25-.25V6.89H8.31a.24.24,0,0,1-.23-.24h0a.25.25,0,0,1,.18-.23Z" style="fill:#231f20;stroke:#231f20;stroke-miterlimit:10;stroke-width:0.25px"/><path id="Path_1382" data-name="Path 1382" d="M17.44,16.5H10.1v0a6.29,6.29,0,0,0-.42-1.93,3.42,3.42,0,0,0-2.75-2.27h0V8h0A19.48,19.48,0,0,1,8.71,5.21a7.36,7.36,0,0,1,3.76-2.78c.92-.16,3.8-.29,4.64-.31a.3.3,0,0,1,.23.08.28.28,0,0,1,.08.21V16.5Zm-7.3,0h7.28V2.39a.21.21,0,0,0-.08-.19.41.41,0,0,0-.19-.08c-.86,0-3.71.15-4.64.31A7.29,7.29,0,0,0,8.78,5.18,24.59,24.59,0,0,0,7,7.93v4.29a3.18,3.18,0,0,1,1.8.84,3.94,3.94,0,0,1,1,1.43,7.67,7.67,0,0,1,.41,2Z" style="fill:#cfcfce"/><path id="Path_1383" data-name="Path 1383" d="M.88,12.16v0a1.19,1.19,0,0,1,.32-.78l.25-.25a1.81,1.81,0,0,1,1.28-.53h1a.41.41,0,0,1,.39.41.32.32,0,0,1,0,.16l-.35.71a1.19,1.19,0,0,1-1.07.65H1.2A.32.32,0,0,1,.88,12.16Z" style="fill:#fff"/><path id="Path_1384" data-name="Path 1384" d="M3.74,10.54H3.46c-.1.21-.23.42-.33.65-.19.44-.4.86-.61,1.28h.14a1.23,1.23,0,0,0,1.07-.65l.36-.72a.39.39,0,0,0-.2-.53Z" style="fill:#f79520"/><path id="Path_1385" data-name="Path 1385" d="M2.81,10.56l0,0A7.08,7.08,0,0,1,4.11,8.58a13.61,13.61,0,0,1,1.75-.65H6.93V8H5.86a10.09,10.09,0,0,0-1.72.63A7.46,7.46,0,0,0,2.81,10.56Z" style="fill:#cfcfce"/><path id="Path_1386" data-name="Path 1386" d="M18.18,16.2l7.57-.63a.08.08,0,0,1,.07,0v.92l.52.52h.42l.5-.46v-.34h1.93l5.92-.6,4.07-.36,1.28-.82a.39.39,0,0,1,.24-.06h.56a.36.36,0,0,0,.36-.35h0v-.73H18.18Z" style="fill:#434343"/><line id="Line_16" data-name="Line 16" x1="2.35" y1="17.04" x2="2.94" y2="17.04" style="fill:none;stroke:#231f20;stroke-miterlimit:10;stroke-width:0.25px"/><line id="Line_17" data-name="Line 17" x1="9.02" y1="17.04" x2="9.57" y2="17.04" style="fill:none;stroke:#231f20;stroke-miterlimit:10;stroke-width:0.25px"/><path id="Path_1387" data-name="Path 1387" d="M18.18,15.49,21,14.42h3.65l1.16,1.13v1l.52.54h.42l.46-.46V15l.61-.63H39.5l1.3-1.07-12.9,0H25l-.26.25H21.08l-2.84,1.07Z" style="fill:#333"/><path id="Path_1388" data-name="Path 1388" d="M2.66,12.49H1.2a.34.34,0,0,1-.34-.33h0v0a1.12,1.12,0,0,1,.34-.77l.25-.25a1.81,1.81,0,0,1,1.28-.53h1a.35.35,0,0,1,.33.19.38.38,0,0,1,0,.4l-.35.71a1.23,1.23,0,0,1-1.07.63Zm.06-1.93a1.77,1.77,0,0,0-1.25.52l-.27.26a1.06,1.06,0,0,0-.32.77v.05a.32.32,0,0,0,.32.31H2.66a1.17,1.17,0,0,0,1-.65l.36-.71a.37.37,0,0,0,0-.38.35.35,0,0,0-.34-.19h-1Z" style="fill:#a8a9ac"/><path id="Path_1389" data-name="Path 1389" d="M4.93,8.27a2.36,2.36,0,0,0-.65-.21V8A3.73,3.73,0,0,1,5,8.23Z" style="fill:#cfcfce"/><path id="Path_1390" data-name="Path 1390" d="M10.77,2.81H9.42V2.75h1.35A5.54,5.54,0,0,1,13,2c1.3-.12,5.08-.19,5.12-.19v.07S14.33,1.89,13,2a5.84,5.84,0,0,0-2.26.77Z" style="fill:#cfcfce"/><path id="Path_1391" data-name="Path 1391" d="M27,16.88h-.48L26,16.39v-.9l-1.23-1.24v-.5l.42-.44h2.7v1.1h-.06l-.61.63v1.57Z" style="fill:#4f4f4f"/><path id="Path_1392" data-name="Path 1392" d="M21.53,13.79H21.3l-.12.21.12.19h.23l.1-.19Z" style="fill:#4f4f4f"/><path id="Path_1393" data-name="Path 1393" d="M24,13.79h-.24l-.1.21.1.19H24l.12-.19Z" style="fill:#4f4f4f"/><path id="Path_1394" data-name="Path 1394" d="M26.85,13.79h-.24l-.12.21.12.19h.24l.09-.19Z" style="fill:#434343"/><path id="Path_1395" data-name="Path 1395" d="M19.88,14.27h-.24l-.1.19.1.21h.23l.13-.21Z" style="fill:#4f4f4f"/><path id="Path_1396" data-name="Path 1396" d="M26.47,16.88v-2l-.5-.52H24.89L26,15.49v.9Z" style="fill:#434343"/><path id="Path_1397" data-name="Path 1397" d="M35.74,14.42H40.8" style="fill:none;stroke:#231f20;stroke-miterlimit:10;stroke-width:0.25px"/><path id="Path_1398" data-name="Path 1398" d="M16.48,8.54h-.84a.52.52,0,0,0-.53.52h0a.52.52,0,0,0,.52.52h.85A.51.51,0,0,0,17,9.08h0A.54.54,0,0,0,16.48,8.54Z" style="fill:#5b5f60"/><ellipse id="Ellipse_100" data-name="Ellipse 100" cx="16.08" cy="9.09" rx="0.67" ry="0.44" style="fill:#231f20;stroke:#231f20;stroke-miterlimit:10;stroke-width:0.25px"/><path id="Path_1399" data-name="Path 1399" d="M16.56,9.19h-1a.09.09,0,0,1-.1-.1h0a.1.1,0,0,1,.1-.1h1a.11.11,0,0,1,.1.1h0A.1.1,0,0,1,16.56,9.19Z" style="fill:#5b5f60"/><path id="Path_1400" data-name="Path 1400" d="M2.37,17.29S.08,17.44.08,16.12v-.59a.19.19,0,0,1,.17-.17.14.14,0,0,0,.13-.06.17.17,0,0,0,.06-.12V14.7a.18.18,0,0,0-.19-.19h0A.26.26,0,0,1,0,14.25v-.94a.25.25,0,0,1,.25-.25s0,0,0,0,0,0,0,0v-.35a.21.21,0,0,1,.09-.17H2.69a1.26,1.26,0,0,0,.65-.19l.52,1C2,14.52,2.37,17.29,2.37,17.29Z" style="fill:#a8a9ac"/><path id="Path_1401" data-name="Path 1401" d="M2.41,15.74a6,6,0,0,0,0,1.53S.08,17.42.08,16.1v-.57a.19.19,0,0,1,.17-.17.14.14,0,0,0,.13-.06s.06,0,.06-.08A3.2,3.2,0,0,0,2.41,15.74Z" style="fill:#333332"/><path id="Path_1402" data-name="Path 1402" d="M18.18,15.66H11.29a.09.09,0,0,1-.09-.08.11.11,0,0,1,0-.07l.21-.21a.39.39,0,0,1,.25-.1h6.47" style="fill:#cfcfce"/><path id="Path_1403" data-name="Path 1403" d="M9.37,3l1.36,0A18,18,0,0,0,6.34,7.81l-.46.1-.67-.28a.19.19,0,0,1-.1-.27.21.21,0,0,1,0-.06C5.88,6.52,8.36,4,9,3.18A.55.55,0,0,1,9.37,3Z" style="fill:#434343"/><path id="Path_1404" data-name="Path 1404" d="M9,3.15H10.3a16.38,16.38,0,0,0-4,4.43l-.44.1-.77-.31A33.18,33.18,0,0,1,9,3.15Z" style="fill:#010101"/><path id="Path_1405" data-name="Path 1405" d="M18.18,14.86h.52a.27.27,0,0,0,.17-.06l.46-.47a.24.24,0,0,0,.07-.16v-.82H29.5l-1.41,1.51a.13.13,0,0,0,0,.18.11.11,0,0,0,.07,0h.49a.12.12,0,0,0,.08,0l1.55-1.68h3.59L35.43,15l.08,0H36a.12.12,0,0,0,.12-.12.11.11,0,0,0,0-.09l-1.4-1.51h6.07v1.09a.25.25,0,0,0,.25.25h.36a.25.25,0,0,0,.25-.25V13h.19a.13.13,0,0,0,.12-.12v-.34a.12.12,0,0,0-.12-.12h-.19V9.26h.19a.14.14,0,0,0,.12-.13V8.9a.14.14,0,0,0-.12-.13H18.18Z" style="fill:#cfcfce"/><rect id="Rectangle_226" data-name="Rectangle 226" x="19.08" y="9.21" width="21.89" height="3.27" style="fill:#f1f2f2"/><path id="Path_1406" data-name="Path 1406" d="M18.56,13.22h0a.2.2,0,0,1-.21-.19v-.62a.2.2,0,0,1,.19-.21h0a.19.19,0,0,1,.21.18V13A.22.22,0,0,1,18.56,13.22Z" style="fill:#a8a9ac"/><rect id="Rectangle_227" data-name="Rectangle 227" x="40.93" y="9.23" width="0.04" height="3.23" style="fill:#e6e7e8"/><rect id="Rectangle_228" data-name="Rectangle 228" x="19.08" y="9.23" width="0.04" height="3.23" style="fill:#e6e7e8"/><rect id="Rectangle_229" data-name="Rectangle 229" x="18.76" y="12.45" width="22.86" height="0.04" style="fill:#e6e7e8"/><path id="Path_1407" data-name="Path 1407" d="M41.2,14.44h0a.17.17,0,0,1-.17-.16h0V14a.18.18,0,0,1,.17-.17h0a.17.17,0,0,1,.17.17h0v.27a.17.17,0,0,1-.16.17Z" style="fill:#f79520"/><rect id="Rectangle_230" data-name="Rectangle 230" x="19.1" y="10.18" width="21.85" height="0.04" style="fill:#e6e7e8"/><rect id="Rectangle_231" data-name="Rectangle 231" x="19.1" y="11.4" width="21.85" height="0.04" style="fill:#e6e7e8"/><path id="Path_1408" data-name="Path 1408" d="M21.83,9.24v.14h-.17v.27h-.17V9.38h-.14V9.24" style="fill:#a8a9ac"/><path id="Path_1409" data-name="Path 1409" d="M27.73,9.24v.14h-.15v.27h-.17V9.38h-.15V9.24" style="fill:#a8a9ac"/><path id="Path_1410" data-name="Path 1410" d="M33.65,9.24v.14H33.5v.27h-.17V9.38h-.17V9.24" style="fill:#a8a9ac"/><path id="Path_1411" data-name="Path 1411" d="M39.56,9.24v.14H39.4v.27h-.17V9.38h-.15V9.24" style="fill:#a8a9ac"/><rect id="Rectangle_232" data-name="Rectangle 232" x="18.18" y="9.21" width="23.47" height="0.04" style="fill:#e6e7e8"/><g id="Group_380" data-name="Group 380"><circle id="Ellipse_101" data-name="Ellipse 101" cx="32.34" cy="16.52" r="3.06" style="fill:#232323"/><circle id="Ellipse_102" data-name="Ellipse 102" cx="32.34" cy="16.52" r="2.06" style="fill:#bfbfbf"/><circle id="Ellipse_103" data-name="Ellipse 103" cx="32.34" cy="16.52" r="1.64" style="fill:#e6e7e8"/><g id="Group_378" data-name="Group 378"><path id="Path_1412" data-name="Path 1412" d="M31.4,17.09a1.39,1.39,0,0,1-.1-.26.14.14,0,0,0-.1-.08H31a.1.1,0,0,0-.11.1s0,0,0,0a2,2,0,0,0,.19.46.13.13,0,0,0,.19,0h0l.15-.15A.57.57,0,0,0,31.4,17.09Z" style="fill:#434856"/><path id="Path_1413" data-name="Path 1413" d="M31.27,16.27a2.31,2.31,0,0,1,.1-.28.11.11,0,0,0,0-.14l-.14-.15a.12.12,0,0,0-.17,0l0,0a1.78,1.78,0,0,0-.19.48.12.12,0,0,0,.09.15h.2C31.21,16.35,31.27,16.31,31.27,16.27Z" style="fill:#434856"/><path id="Path_1414" data-name="Path 1414" d="M32.53,15.15v.19a.11.11,0,0,0,.09.1.68.68,0,0,1,.27.13.14.14,0,0,0,.15,0l.14-.15a.12.12,0,0,0,0-.17l0,0a2.06,2.06,0,0,0-.48-.21A.18.18,0,0,0,32.53,15.15Z" style="fill:#434856"/><path id="Path_1415" data-name="Path 1415" d="M31.78,15.59c.08,0,.19-.08.27-.13a.13.13,0,0,0,.09-.1v-.19a.11.11,0,0,0-.11-.1h0a1.33,1.33,0,0,0-.49.21.14.14,0,0,0,0,.18h0l.15.15Z" style="fill:#434856"/><path id="Path_1416" data-name="Path 1416" d="M32.87,17.48a.87.87,0,0,1-.25.1.15.15,0,0,0-.09.1v.19a.11.11,0,0,0,.11.11h0a1.16,1.16,0,0,0,.44-.19.11.11,0,0,0,0-.16s0,0,0,0L33,17.45a.27.27,0,0,0-.12,0Z" style="fill:#434856"/><path id="Path_1417" data-name="Path 1417" d="M33.29,16a1.33,1.33,0,0,1,.1.28.11.11,0,0,0,.1.08h.19a.1.1,0,0,0,.11-.1s0,0,0-.05a2.18,2.18,0,0,0-.19-.48.12.12,0,0,0-.16,0l0,0-.15.15A.33.33,0,0,0,33.29,16Z" style="fill:#434856"/><path id="Path_1418" data-name="Path 1418" d="M32.05,17.59l-.25-.1a.12.12,0,0,0-.15,0l-.15.15a.1.1,0,0,0,0,.16l0,0A2.44,2.44,0,0,0,32,18a.13.13,0,0,0,.15-.08v-.22C32.14,17.64,32.11,17.59,32.05,17.59Z" style="fill:#434856"/><path id="Path_1419" data-name="Path 1419" d="M33.39,16.83a.93.93,0,0,1-.1.26.14.14,0,0,0,0,.14l.15.15a.12.12,0,0,0,.17,0s0,0,0,0a1.66,1.66,0,0,0,.19-.46.12.12,0,0,0-.08-.15h-.22C33.46,16.75,33.39,16.79,33.39,16.83Z" style="fill:#434856"/></g><g id="Group_379" data-name="Group 379"><circle id="Ellipse_104" data-name="Ellipse 104" cx="31.88" cy="16.44" r="0.21" style="fill:#434856"/><circle id="Ellipse_105" data-name="Ellipse 105" cx="32.05" cy="16.96" r="0.21" style="fill:#434856"/><circle id="Ellipse_106" data-name="Ellipse 106" cx="32.64" cy="16.96" r="0.21" style="fill:#434856"/><circle id="Ellipse_107" data-name="Ellipse 107" cx="32.81" cy="16.46" r="0.21" style="fill:#434856"/><circle id="Ellipse_108" data-name="Ellipse 108" cx="32.35" cy="16.1" r="0.21" style="fill:#434856"/></g></g><g id="Group_383" data-name="Group 383"><circle id="Ellipse_109" data-name="Ellipse 109" cx="5.94" cy="16.52" r="3.06" style="fill:#232323"/><circle id="Ellipse_110" data-name="Ellipse 110" cx="5.94" cy="16.52" r="2.06" style="fill:#bfbfbf"/><circle id="Ellipse_111" data-name="Ellipse 111" cx="5.94" cy="16.52" r="1.64" style="fill:#e6e7e8"/><g id="Group_381" data-name="Group 381"><path id="Path_1420" data-name="Path 1420" d="M5,17.09a.93.93,0,0,1-.1-.26.16.16,0,0,0-.1-.08H4.63a.11.11,0,0,0-.11.1s0,0,0,0a2,2,0,0,0,.19.46.13.13,0,0,0,.19,0h0l.15-.15a.33.33,0,0,0,0-.14Z" style="fill:#434856"/><path id="Path_1421" data-name="Path 1421" d="M4.89,16.27A2.31,2.31,0,0,1,5,16a.12.12,0,0,0,0-.15l-.15-.14a.12.12,0,0,0-.17,0l0,0a2,2,0,0,0-.19.48.13.13,0,0,0,.1.15h.19a.15.15,0,0,0,.16-.09Z" style="fill:#434856"/><path id="Path_1422" data-name="Path 1422" d="M6.15,15.15v.19a.1.1,0,0,0,.08.1.72.72,0,0,1,.28.13.12.12,0,0,0,.14,0l.15-.15a.12.12,0,0,0,0-.17l0,0A2.06,2.06,0,0,0,6.3,15,.18.18,0,0,0,6.15,15.15Z" style="fill:#434856"/><path id="Path_1423" data-name="Path 1423" d="M5.37,15.59l.28-.13a.12.12,0,0,0,.08-.1v-.19a.1.1,0,0,0-.1-.1h0a1.28,1.28,0,0,0-.48.21.12.12,0,0,0,0,.18h0l.15.15A.32.32,0,0,0,5.37,15.59Z" style="fill:#434856"/><path id="Path_1424" data-name="Path 1424" d="M6.49,17.48a.82.82,0,0,1-.26.1.16.16,0,0,0-.08.1v.19a.11.11,0,0,0,.1.11h0a1.31,1.31,0,0,0,.44-.19.12.12,0,0,0,0-.16s0,0,0,0l-.15-.14A.24.24,0,0,0,6.49,17.48Z" style="fill:#434856"/><path id="Path_1425" data-name="Path 1425" d="M6.91,16a1.33,1.33,0,0,1,.1.28.11.11,0,0,0,.1.08h.18a.1.1,0,0,0,.11-.1.09.09,0,0,0,0-.05,2.15,2.15,0,0,0-.18-.48.13.13,0,0,0-.17,0l0,0-.13.14A.25.25,0,0,0,6.91,16Z" style="fill:#434856"/><path id="Path_1426" data-name="Path 1426" d="M5.67,17.59l-.25-.1a.12.12,0,0,0-.15,0l-.13.13a.11.11,0,0,0,0,.16l0,0a1.77,1.77,0,0,0,.45.18.11.11,0,0,0,.14-.07v-.21C5.75,17.64,5.71,17.59,5.67,17.59Z" style="fill:#434856"/><path id="Path_1427" data-name="Path 1427" d="M7,16.83a1.39,1.39,0,0,1-.1.26.12.12,0,0,0,0,.14l.15.15a.11.11,0,0,0,.16,0h0a2.62,2.62,0,0,0,.19-.46.13.13,0,0,0-.08-.15H7.14A.16.16,0,0,0,7,16.83Z" style="fill:#434856"/></g><g id="Group_382" data-name="Group 382"><circle id="Ellipse_112" data-name="Ellipse 112" cx="5.48" cy="16.44" r="0.21" style="fill:#434856"/><circle id="Ellipse_113" data-name="Ellipse 113" cx="5.65" cy="16.96" r="0.21" style="fill:#434856"/><circle id="Ellipse_114" data-name="Ellipse 114" cx="6.23" cy="16.96" r="0.21" style="fill:#434856"/><circle id="Ellipse_115" data-name="Ellipse 115" cx="6.4" cy="16.46" r="0.21" style="fill:#434856"/><circle id="Ellipse_116" data-name="Ellipse 116" cx="5.94" cy="16.1" r="0.21" style="fill:#434856"/></g></g></g></g></g></g></g></g></g></svg>