<svg xmlns="http://www.w3.org/2000/svg" width="115.644" height="120.038" viewBox="0 0 115.644 120.038">
  <g id="Group_4765" data-name="Group 4765" transform="translate(-59.14 -466.381)">
    <path id="Path_9588" data-name="Path 9588" d="M773.2,210.163V322.775a3.707,3.707,0,0,0,3.7,3.713H888.659l.186-.186-5.963-5.985,5.963-5.982-5.963-5.982,5.963-5.985-5.963-5.982,5.963-5.982-5.963-5.985,5.963-5.982-5.963-5.982,5.963-5.985-5.963-5.982,5.963-5.982-5.963-5.985,5.963-5.982-5.963-5.982,5.963-5.985-5.963-5.982,5.963-5.982-5.963-5.985,5.963-5.982-.188-.189H776.9A3.709,3.709,0,0,0,773.2,210.163Z" transform="translate(-714.06 259.931)" fill="#fff"/>
    <g id="Group_4720" data-name="Group 4720" transform="translate(78.66 486.988)">
      <g id="Group_4640" data-name="Group 4640" transform="translate(0 0)">
        <g id="Group_4669" data-name="Group 4669" transform="translate(0 0)">
          <g id="Group_4662" data-name="Group 4662" transform="translate(39.584)">
            <g id="Group_4647" data-name="Group 4647" transform="translate(0 0)">
              <path id="Path_9534" data-name="Path 9534" d="M340.866,203.537a9.567,9.567,0,1,0,6.046,12.1A9.568,9.568,0,0,0,340.866,203.537Z" transform="translate(-328.266 -203.042)" fill="#e8af2e"/>
              <path id="Path_9535" data-name="Path 9535" d="M345.982,210.842a7.839,7.839,0,1,0,4.953,9.918A7.841,7.841,0,0,0,345.982,210.842Z" transform="translate(-333.93 -208.708)" fill="#f9ca35"/>
              <text id="Rp" transform="matrix(0.966, 0.259, -0.259, 0.966, 5.757, 10.393)" fill="#444" font-size="6" font-family="Roboto-Bold, Roboto" font-weight="700"><tspan x="0" y="0">Rp</tspan></text>
            </g>
            <g id="Group_4651" data-name="Group 4651" transform="translate(0.094 0.905)">
              <g id="Group_4648" data-name="Group 4648" transform="translate(0.351)">
                <path id="Path_9537" data-name="Path 9537" d="M332.877,206.913a3.933,3.933,0,0,1-.615,2.17,3.721,3.721,0,0,1-2.1.541,2.22,2.22,0,0,1,2.71,2.711,2.22,2.22,0,0,1,2.711-2.711,4.121,4.121,0,0,1-2.133-.577A4.031,4.031,0,0,1,332.877,206.913Z" transform="translate(-330.167 -206.913)" fill="#fff"/>
              </g>
              <g id="Group_4649" data-name="Group 4649" transform="translate(3.906 3.911)">
                <path id="Path_9538" data-name="Path 9538" d="M346.334,223.638a1.411,1.411,0,0,1-.219.773,1.333,1.333,0,0,1-.746.192.791.791,0,0,1,.966.965.79.79,0,0,1,.964-.965,1.469,1.469,0,0,1-.759-.206A1.441,1.441,0,0,1,346.334,223.638Z" transform="translate(-345.369 -223.638)" fill="#fff"/>
              </g>
              <g id="Group_4650" data-name="Group 4650" transform="translate(0 5.204)">
                <path id="Path_9539" data-name="Path 9539" d="M330.006,229.17a1.946,1.946,0,0,1-.3,1.072,1.841,1.841,0,0,1-1.036.267,1.1,1.1,0,0,1,1.34,1.339,1.1,1.1,0,0,1,1.338-1.339,2.043,2.043,0,0,1-1.054-.285A1.994,1.994,0,0,1,330.006,229.17Z" transform="translate(-328.666 -229.17)" fill="#fff"/>
              </g>
            </g>
          </g>
          <g id="Group_4668" data-name="Group 4668" transform="translate(0 18.915)">
            <g id="Group_4667" data-name="Group 4667" transform="translate(57.571 12.847)">
              <path id="Path_9565" data-name="Path 9565" d="M5094.867,8104.888s6.245-3.918,9.085-1.922.378,6.924,3.431,10.183,8.762,2.083,8.762,2.083v.566s-6.174,1.159-9.712-1.677-2.286-7.439-4.443-8.958-5.216,3.16-5.216,3.16Z" transform="translate(-5094.867 -8102.399)" fill="#f8f8f8" stroke="#707070" stroke-width="1"/>
              <path id="Path_9566" data-name="Path 9566" d="M5185.634,8151.151a2.05,2.05,0,0,1,1.158-1.117,6.482,6.482,0,0,1,1.947-.189c.072,0-.235.35-.088.356a8.556,8.556,0,0,0,1.635-.167,5.953,5.953,0,0,1-1.4,2.127c-.874.726-1.331.938-2.092.771S5185.344,8151.683,5185.634,8151.151Z" transform="translate(-5164.591 -8138.513)" fill="#585858"/>
            </g>
            <g id="Group_4663" data-name="Group 4663" transform="translate(0 0)">
              <path id="Path_9557" data-name="Path 9557" d="M0,3.968s2.193,6.267,11.235,5.006A16.023,16.023,0,0,1,15.083,1.32C14.1.839,6.417-2.581,0,3.968Z" transform="matrix(0.719, 0.695, -0.695, 0.719, 7.732, 0.066)" fill="#5c5c5c"/>
              <g id="Group_4666" data-name="Group 4666" transform="translate(0 0)">
                <g id="Group_4663-2" data-name="Group 4663">
                  <g id="Group_4655" data-name="Group 4655">
                    <g id="Group_4644" data-name="Group 4644">
                      <g id="Group_4643" data-name="Group 4643">
                        <path id="Path_9507" data-name="Path 9507" d="M212.055,516.4c-6.989,0-11.983,1.009-11.983,2.253s4.994,2.254,11.983,2.254,13.327-1.008,13.327-2.254S219.044,516.4,212.055,516.4Z" transform="translate(-190.465 -462.042)" fill="#221f1f" opacity="0.2"/>
                        <path id="Path_9508" data-name="Path 9508" d="M318.84,504.195c-6.989,0-11.758,1.008-11.758,2.253s4.769,2.253,11.758,2.253,12.655-1.008,12.655-2.253S325.829,504.195,318.84,504.195Z" transform="translate(-272.452 -452.69)" fill="#221f1f" opacity="0.2"/>
                        <path id="Path_9511" data-name="Path 9511" d="M208.525,480.763l1.726,9.626a9.468,9.468,0,0,0,7.682.806c4.708-1.3,2.079-5.992,2.079-5.992Z" transform="translate(-196.941 -434.737)" fill="#ebebeb" stroke="#707070" stroke-width="1"/>
                        <path id="Path_9512" data-name="Path 9512" d="M320.967,483.2l1.136,5.717a9.477,9.477,0,0,0,6.494,0c3.41-1.3.812-8.158.812-8.158Z" transform="translate(-283.09 -434.737)" fill="#ebebeb" stroke="#707070" stroke-width="1"/>
                        <path id="Path_9514" data-name="Path 9514" d="M209.774,283.943c-.66.188.353,5.85.176,8.035s4.355-2.269,4.355-2.269-1.739-1.971-2.245-2.719S210.383,283.738,209.774,283.943Z" transform="translate(-197.725 -283.931)" fill="#f7c36b"/>
                        <path id="Path_9515" data-name="Path 9515" d="M346.639,459.687l1.79,6.819a9.272,9.272,0,0,0,9.417-1.281c.487-4.116.9-14.143.9-14.143l-12.1,7.961Z" transform="translate(-302.759 -411.996)" fill="#fafafa" stroke="#707070" stroke-width="1"/>
                        <path id="Path_9516" data-name="Path 9516" d="M197.842,286.992c-16,0-29.216,12.894-29.216,27s10.788,23.344,28,23.344,32.626-8.337,31.408-25.293C227.023,297.974,214.8,286.992,197.842,286.992Z" transform="translate(-166.372 -286.276)" fill="#fff" stroke="#707070" stroke-width="1"/>
                        <path id="Path_9518" data-name="Path 9518" d="M256,296.233c-.848-.012-.982,1.635-1.854,3.889a11.938,11.938,0,0,1-2.822,3.584c-.092.974,3.052,2.222,4.676,3.551S258.63,297.153,256,296.233Z" transform="translate(-229.496 -290.784)" fill="#f7c36b"/>
                        <path id="Path_9519" data-name="Path 9519" d="M287.13,296.734a7.358,7.358,0,0,1,.73,2.148,33.539,33.539,0,0,1,17.5,3.26,2.991,2.991,0,0,0-.73-1.786A29.445,29.445,0,0,0,287.13,296.734Z" transform="translate(-257.166 -293.614)"/>
                        <path id="Path_9520" data-name="Path 9520" d="M245.592,494.863c6.673.787,9.3-.453,9.3-.453l1.624-6.273-13.313-3.729S244.5,493.013,245.592,494.863Z" transform="translate(-223.512 -437.529)" fill="#fafafa" stroke="#707070" stroke-width="1"/>
                        <g id="Path_9551" data-name="Path 9551" transform="translate(-19.662 21.422)" fill="#f59486">
                          <path d="M 31.45879173278809 22.58354949951172 C 29.74014282226563 22.58354949951172 28.12174224853516 22.16148948669434 26.64855194091797 21.3290901184082 C 25.31610298156738 20.57621002197266 24.12497138977051 19.50536918640137 23.10826301574707 18.14628982543945 C 21.29686164855957 15.72491931915283 20.17160224914551 12.46671962738037 20.17160224914551 9.643178939819336 C 20.17160224914551 9.27217960357666 20.1690616607666 8.907938957214355 20.16661262512207 8.555688858032227 C 20.14697265625 5.734189510345459 20.1314525604248 3.505589246749878 21.41541290283203 2.212659358978271 C 22.38421249389648 1.237089276313782 24.07035255432129 0.7827193140983582 26.72181129455566 0.7827193140983582 C 30.35721206665039 0.7827193140983582 34.38201141357422 1.863619327545166 37.76421356201172 3.748279333114624 C 41.18731307983398 5.655709266662598 43.42526245117188 8.127809524536133 43.90425109863281 10.53069972991943 C 44.33848190307617 12.70903968811035 43.50063323974609 15.28332901000977 41.60553359985352 17.59347915649414 C 40.41136169433594 19.0491886138916 38.8846321105957 20.27952003479004 37.19040298461914 21.15145874023438 C 35.36997222900391 22.08833885192871 33.38801193237305 22.58354949951172 31.45879173278809 22.58354949951172 Z" stroke="none"/>
                          <path d="M 26.7218132019043 1.282709121704102 C 24.24673080444336 1.282709121704102 22.62704086303711 1.702138900756836 21.77019119262695 2.564970016479492 C 20.63289260864258 3.71021842956543 20.64777374267578 5.846979141235352 20.66660308837891 8.55220890045166 C 20.66906356811523 8.905319213867188 20.67160034179688 9.270439147949219 20.67160034179688 9.643178939819336 C 20.67160034179688 12.36412906646729 21.75869369506836 15.50755882263184 23.50863265991211 17.84677886962891 C 24.95453262329102 19.77956962585449 27.50751113891602 22.08353996276855 31.45879364013672 22.08353996276855 C 33.30878448486328 22.08353996276855 35.21162414550781 21.60748863220215 36.96160125732422 20.70686912536621 C 38.5955924987793 19.86592864990234 40.06776428222656 18.67967987060547 41.21896362304688 17.2763500213623 C 42.09461212158203 16.20891952514648 42.75797271728516 15.03866958618164 43.13732147216797 13.89209938049316 C 43.52123260498047 12.7317590713501 43.61428070068359 11.63370895385742 43.41389465332031 10.62843894958496 C 42.9636116027832 8.369539260864258 40.815673828125 6.02100944519043 37.52083206176758 4.185039520263672 C 34.21074295043945 2.340568542480469 30.27465057373047 1.282709121704102 26.7218132019043 1.282709121704102 M 26.7218132019043 0.2827091217041016 C 34.34127044677734 0.2827091217041016 43.30684280395508 4.976079940795898 44.39459991455078 10.43294906616211 C 45.48237228393555 15.88981914520264 39.07823944091797 23.08353996276855 31.45879364013672 23.08353996276855 C 23.83933258056641 23.08353996276855 19.67160034179688 15.19634914398193 19.67160034179688 9.643178939819336 C 19.67160034179688 4.090019226074219 19.10235214233398 0.2827091217041016 26.7218132019043 0.2827091217041016 Z" stroke="none" fill="#707070"/>
                        </g>
                        <g id="Group_4661" data-name="Group 4661" transform="translate(11.603 15.568)">
                          <path id="Path_9552" data-name="Path 9552" d="M211.939,350.617a2.67,2.67,0,1,0,1.606,3.3A2.6,2.6,0,0,0,211.939,350.617Z" transform="translate(-208.607 -350.507)" fill="#221f1f"/>
                          <path id="Path_9553" data-name="Path 9553" d="M223.368,355.093a.588.588,0,1,0,.588.588A.588.588,0,0,0,223.368,355.093Z" transform="translate(-219.466 -354.021)" fill="#fff"/>
                        </g>
                        <g id="Group_4660" data-name="Group 4660" transform="translate(5.966 14.305)">
                          <path id="Path_9554" data-name="Path 9554" d="M186.813,345.2c-.627-.322-1.528.181-2.013,1.123s-.371,1.969.256,2.291,1.528-.181,2.013-1.123S187.438,345.526,186.813,345.2Z" transform="translate(-184.5 -345.106)" fill="#221f1f"/>
                          <path id="Path_9555" data-name="Path 9555" d="M192.51,348.514a.294.294,0,1,0,.156.386A.293.293,0,0,0,192.51,348.514Z" transform="translate(-190.323 -347.699)" fill="#fff"/>
                        </g>
                      </g>
                    </g>
                  </g>
                  <g id="Group_4658" data-name="Group 4658" transform="translate(2.225 23.625)">
                    <g id="Group_4659" data-name="Group 4659" transform="translate(7.216 1.991)">
                      <circle id="Ellipse_1587" data-name="Ellipse 1587" cx="1.714" cy="1.714" r="1.714" transform="translate(0.13 1.408)"/>
                      <path id="Path_9547" data-name="Path 9547" d="M0,1.024s4.342-3.37,4.9,2.116" transform="matrix(0.995, -0.105, 0.105, 0.995, 0, 0.512)" fill="none" stroke="#ce6f62" stroke-linecap="round" stroke-width="0.5"/>
                    </g>
                    <g id="Group_4658-2" data-name="Group 4658" transform="translate(0 0)">
                      <circle id="Ellipse_1586" data-name="Ellipse 1586" cx="0.857" cy="0.857" r="0.857" transform="translate(0.49 1.685)"/>
                      <path id="Path_9548" data-name="Path 9548" d="M0,.04A1.975,1.975,0,0,1,2.471,2.1" transform="matrix(0.914, -0.407, 0.407, 0.914, 0, 1.005)" fill="none" stroke="#ce6f62" stroke-linecap="round" stroke-width="0.5"/>
                    </g>
                  </g>
                  <path id="Path_9556" data-name="Path 9556" d="M18.41,6.61C10.117-2.428,3.694-.027,0,1.37,3.022,7.786,3.381,7.75,1.76,15.088,12.8,17.321,18.41,6.61,18.41,6.61Z" transform="translate(22.182 14.584) rotate(-42)" fill="#5c5c5c"/>
                </g>
                <g id="Group_4664" data-name="Group 4664" transform="translate(25.567 23.524)">
                  <path id="Path_9558" data-name="Path 9558" d="M5071.479,8148.233c-3.389-.744-5.635.929-9.092,4.754s.7,4.911-.926,9.934.642,6.6,2.054,6.225,7.2-5.1,7.964-8.354S5074.869,8148.979,5071.479,8148.233Z" transform="translate(-5036.836 -8148.061)" fill="#5c5c5c"/>
                  <path id="Path_9559" data-name="Path 9559" d="M2.806,0A2.806,2.806,0,0,1,5.612,2.806,2.816,2.816,0,0,1,4.558,4.781,4.332,4.332,0,0,1,1.809,5.959C.259,5.959,0,4.356,0,2.806A2.806,2.806,0,0,1,2.806,0Z" transform="translate(16.602 9.105)" fill="#5c5c5c"/>
                  <path id="Path_9560" data-name="Path 9560" d="M2.1,0C3.267,0,5.4.942,5.4,2.1s-2.134,2.1-3.3,2.1A2.1,2.1,0,1,1,2.1,0Z" transform="translate(0 18.926)" fill="#5c5c5c"/>
                </g>
                <g id="Group_4665" data-name="Group 4665" transform="translate(0.718 32.761)">
                  <path id="Path_9561" data-name="Path 9561" d="M4854.572,8191.026s6.7,4.786,12.206,1.753,5.333.333,4.424,1.648-3.586,3.261-8.962.911A86.558,86.558,0,0,1,4854.572,8191.026Z" transform="translate(-4853.908 -8190.217)" fill="#fff" stroke="#000" stroke-width="0.5"/>
                  <path id="Path_9562" data-name="Path 9562" d="M4852.4,8187.658s-1.137.624-.437,1.346" transform="translate(-4851.731 -8187.636)" fill="none" stroke="#000" stroke-linecap="round" stroke-width="0.3"/>
                  <path id="Path_9563" data-name="Path 9563" d="M4889.342,8201.459l2.666-.408v-.461l.354.461,2.12-.682v-.533l.408.533,2.234-.887v-.672l.385.453.831-.387" transform="translate(-4880.547 -8196.182)" fill="none" stroke="#000" stroke-width="0.5"/>
                  <path id="Path_9564" data-name="Path 9564" d="M4926.769,8187.586a1.784,1.784,0,0,1,2.182,1.82" transform="translate(-4909.223 -8187.564)" fill="none" stroke="#000" stroke-linecap="round" stroke-width="0.5"/>
                </g>
              </g>
            </g>
          </g>
        </g>
        <g id="Ellipse_1588" data-name="Ellipse 1588" transform="translate(43.846 3.094)" fill="none" stroke="#e8af2e" stroke-width="0.3">
          <circle cx="5.998" cy="5.998" r="5.998" stroke="none"/>
          <circle cx="5.998" cy="5.998" r="5.848" fill="none"/>
        </g>
      </g>
    </g>
  </g>
</svg>
