<svg xmlns="http://www.w3.org/2000/svg" viewBox="0 0 192.83 91.37"><title>prepare_akun</title><g id="Layer_2" data-name="Layer 2"><g id="Layer_1-2" data-name="Layer 1"><g id="Group_3961" data-name="Group 3961"><g id="Group_2221" data-name="Group 2221"><g id="Group_2218" data-name="Group 2218"><g id="Movers"><path id="Path_1302" data-name="Path 1302" d="M192.83,7.86h0A7.86,7.86,0,0,0,185,0H75.69a29,29,0,0,0-29,29V42.07a5,5,0,0,1-5,5h-34a3.22,3.22,0,0,0-3.22,3.21h0a3.22,3.22,0,0,0,3.22,3.22h46a3.76,3.76,0,0,1,3.76,3.76h0a3.77,3.77,0,0,1-3.76,3.77H21.08a2.35,2.35,0,0,0-2.35,2.35h0a2.36,2.36,0,0,0,2.35,2.35H42a4.71,4.71,0,0,1,4.72,4.71h0A4.71,4.71,0,0,1,42,75.22H7.86A7.87,7.87,0,0,0,0,83.08H0a7.86,7.86,0,0,0,7.86,7.85H127.53a29,29,0,0,0,29-29V48.86a5.06,5.06,0,0,1,5-5h23.61a3.21,3.21,0,0,0,3.21-3.21h0a3.21,3.21,0,0,0-3.21-3.21H149.57a3.79,3.79,0,0,1-3.77-3.77h0a3.77,3.77,0,0,1,3.77-3.76h22.16a2.35,2.35,0,0,0,2.35-2.35h0a2.35,2.35,0,0,0-2.35-2.35H161.19a4.72,4.72,0,0,1-4.72-4.72h0a4.72,4.72,0,0,1,4.72-4.72H185A7.87,7.87,0,0,0,192.83,7.86Z" style="fill:#e9f5fc"/></g></g></g><g id="Group_2402" data-name="Group 2402"><g id="Group_2405" data-name="Group 2405"><path id="Subtraction_34" data-name="Subtraction 34" d="M96.37,65.37h-48v-.25a25.22,25.22,0,0,1,1.88-9.63,24.81,24.81,0,0,1,5.14-7.87A24,24,0,0,1,63,42.32a23.37,23.37,0,0,1,18.69,0,24,24,0,0,1,7.63,5.3,24.87,24.87,0,0,1,5.14,7.86,25.47,25.47,0,0,1,1.89,9.64Z" style="fill:#4281c3"/><ellipse id="Ellipse_242" data-name="Ellipse 242" cx="72.37" cy="29.87" rx="10" ry="9.5" style="fill:#bcbcbc"/></g><g id="Group_2404" data-name="Group 2404"><path id="Subtraction_34-2" data-name="Subtraction 34-2" d="M119.37,72.37h-48v-.25a25.22,25.22,0,0,1,1.88-9.63,24.81,24.81,0,0,1,5.14-7.87A24,24,0,0,1,86,49.32a23.37,23.37,0,0,1,18.69,0,23.91,23.91,0,0,1,7.63,5.3,24.87,24.87,0,0,1,5.14,7.86,25.47,25.47,0,0,1,1.89,9.64Z" style="fill:#35c3df"/><ellipse id="Ellipse_242-2" data-name="Ellipse 242-2" cx="96.37" cy="35.87" rx="10" ry="9.5" style="fill:#bcbcbc"/></g></g><g id="Group_2415" data-name="Group 2415"><g id="Group_2413" data-name="Group 2413"><g id="Group_2411" data-name="Group 2411"><g id="Group_2409" data-name="Group 2409"><g id="Group_2408" data-name="Group 2408"><path id="Path_3294" data-name="Path 3294" d="M110.25,36.69V29.13s-.51-5.15,3.66-5.32,23.13,0,23.13,0,4.43-.2,4.49,4.19,0,19.36,0,19.36H136.2V31.72s.24-2.74-2.92-2.59-14.8,0-14.8,0-2.37.09-2.32,2.28,0,5.28,0,5.28Z" style="fill:#b4b4b5;stroke:#000"/><g id="Group_2406" data-name="Group 2406"><g id="Rectangle_529" data-name="Rectangle 529"><rect x="100.37" y="45.37" width="52" height="46" rx="10" style="fill:#fee366"/><rect x="100.87" y="45.87" width="51" height="45" rx="9.5" style="fill:none;stroke:#000"/></g></g></g></g><path id="Subtraction_40" data-name="Subtraction 40" d="M143.37,91.32h0V45.42a10,10,0,0,1,9,9.95v26a10,10,0,0,1-9,9.95Z" style="fill:#fec558"/><path id="Path_3310" data-name="Path 3310" d="M141.75,45.9s10.22-.8,10.33,7.53,0,30.4,0,30.4-.2,7.08-9.78,7" style="fill:none;stroke:#000"/></g><g id="Group_2412" data-name="Group 2412"><g id="Subtraction_42" data-name="Subtraction 42"><path d="M130.63,79.94h-9.2l1.76-13.44,0-.33L123,66A5.93,5.93,0,0,1,120,60.86a6,6,0,1,1,9.24,5l-.26.16,0,.31Z" style="fill:#b4b4b5"/><path d="M130.07,79.44l-1.53-13-.07-.62.53-.34a5.5,5.5,0,1,0-7.74-1.87,5.55,5.55,0,0,0,1.95,2l.56.34-.08.65L122,79.44h8.07m1.12,1H120.86l1.83-14a6.51,6.51,0,1,1,6.84-.1Z" style="fill:#b4b4b5"/></g><g id="Ellipse_250" data-name="Ellipse 250"><ellipse cx="126.03" cy="60.86" rx="2.92" ry="2.91" style="fill:#fff"/><ellipse cx="126.03" cy="60.86" rx="2.42" ry="2.41" style="fill:none;stroke:#000"/></g></g></g><g id="Group_2414" data-name="Group 2414"><path id="Path_3312" data-name="Path 3312" d="M105.08,66.69v8.73" style="fill:none;stroke:#000;stroke-linecap:round;stroke-width:2px"/><path id="Path_3313" data-name="Path 3313" d="M105.08,60.47v3" style="fill:none;stroke:#000;stroke-linecap:round;stroke-width:2px"/></g></g></g></g></g></svg>