<svg xmlns="http://www.w3.org/2000/svg" viewBox="0 0 11.34 13.8"><title>price</title><g id="Layer_2" data-name="Layer 2"><g id="Layer_1-2" data-name="Layer 1"><path id="discount" d="M8.54,12.76a1.52,1.52,0,0,1-1.88,1L1,11.83a1.52,1.52,0,0,1-1-1.93h0L2.3,3.33a1.57,1.57,0,0,1,.6-.79L5.57.32A1.54,1.54,0,0,1,7,.08L9,.75a1.53,1.53,0,0,1,1,1.16l.78,3.39a1.64,1.64,0,0,1,0,.88L10.4,7.23c.24.08.49.15.74.21a.25.25,0,0,1,.18.33A.26.26,0,0,1,11,8a5.57,5.57,0,0,1-.8-.22ZM4.11,9.42a.26.26,0,0,0-.19-.25l-1.4-.48a.27.27,0,0,0-.34.17.26.26,0,0,0,.16.34h0l1.4.47h.1A.28.28,0,0,0,4.11,9.42Zm1.82.42a.28.28,0,0,0-.34.2s0,0,0,.06a.26.26,0,0,0,.18.25h0l1.38.46a.27.27,0,0,0,.35-.16.26.26,0,0,0-.16-.34h0ZM4.84,9.5a.27.27,0,1,0,.27.27A.27.27,0,0,0,4.84,9.5ZM6.73,3.36a.27.27,0,0,1,.54,0,3.24,3.24,0,0,0,.11.82h0a.91.91,0,1,0-.81-1.62.9.9,0,0,0-.4,1.21.88.88,0,0,0,.52.46l.13,0A3.89,3.89,0,0,1,6.73,3.36Zm.82,1.35A4.23,4.23,0,0,0,9.9,7l.35-1a1.37,1.37,0,0,0,.05-.28.92.92,0,0,0,0-.29L9.48,2a1,1,0,0,0-.22-.48,1.13,1.13,0,0,0-.43-.29l-2-.67a1.11,1.11,0,0,0-.48,0,2.35,2.35,0,0,0-.43.19L3.21,3a1,1,0,0,0-.4.51L.59,10.08a1,1,0,0,0,.62,1.24h0l5.57,1.89A1,1,0,0,0,8,12.59H8l1.7-5A4.74,4.74,0,0,1,7,4.81,1.44,1.44,0,0,1,5.55,3.38a1.45,1.45,0,1,1,2.9,0,1.44,1.44,0,0,1-.81,1.3ZM3.34,6.29,8.15,7.9a.26.26,0,0,0,.34-.16.27.27,0,0,0-.16-.35h0L3.51,5.77A.27.27,0,0,0,3.17,6a.28.28,0,0,0,.17.34Zm-.5,1.46L7.65,9.37A.28.28,0,0,0,8,9.2a.26.26,0,0,0-.16-.34h0L3,7.23a.27.27,0,0,0-.33.18.27.27,0,0,0,.16.34Z" style="fill:#4281c3;fill-rule:evenodd"/></g></g></svg>