<svg xmlns="http://www.w3.org/2000/svg" viewBox="0 0 192.83 90.93"><title>profile_avatar</title><g id="Layer_2" data-name="Layer 2"><g id="Layer_1-2" data-name="Layer 1"><path id="Path_1302" data-name="Path 1302" d="M192.83,7.86h0A7.86,7.86,0,0,0,185,0H75.69a29,29,0,0,0-29,29V42.07a5,5,0,0,1-5,5h-34a3.22,3.22,0,0,0-3.22,3.21h0a3.22,3.22,0,0,0,3.22,3.22h46a3.76,3.76,0,0,1,3.76,3.76h0a3.77,3.77,0,0,1-3.76,3.77H21.08a2.35,2.35,0,0,0-2.35,2.35h0a2.36,2.36,0,0,0,2.35,2.35H42a4.71,4.71,0,0,1,4.72,4.71h0A4.71,4.71,0,0,1,42,75.22H7.86A7.87,7.87,0,0,0,0,83.08H0a7.86,7.86,0,0,0,7.86,7.85H127.53a29,29,0,0,0,29-29V48.86a5.06,5.06,0,0,1,5-5h23.61a3.21,3.21,0,0,0,3.21-3.21h0a3.21,3.21,0,0,0-3.21-3.21H149.57a3.79,3.79,0,0,1-3.77-3.77h0a3.77,3.77,0,0,1,3.77-3.76h22.16a2.35,2.35,0,0,0,2.35-2.35h0a2.35,2.35,0,0,0-2.35-2.35H161.19a4.72,4.72,0,0,1-4.72-4.72h0a4.72,4.72,0,0,1,4.72-4.72H185A7.87,7.87,0,0,0,192.83,7.86Z" style="fill:#e9f5fc"/><g id="Group_2751" data-name="Group 2751"><g id="Path_3458" data-name="Path 3458"><path d="M96.37,71.87a34.37,34.37,0,1,1,13.42-2.71A34.43,34.43,0,0,1,96.37,71.87Z" style="fill:#fff"/><path d="M96.37,3.37A33.88,33.88,0,1,0,109.6,6,33.86,33.86,0,0,0,96.37,3.37m0-1a35,35,0,1,1-35,35A35,35,0,0,1,96.37,2.37Z" style="fill:#fff"/></g><g id="Group_2225" data-name="Group 2225"><g id="Group_2194" data-name="Group 2194"><g id="Group_2195" data-name="Group 2195"><g id="Group_2190" data-name="Group 2190"><g id="Group_2177" data-name="Group 2177"><path id="Subtraction_33" data-name="Subtraction 33" d="M119.37,61.37h-47a26.12,26.12,0,0,1,1.84-9.73,24.92,24.92,0,0,1,5-8,23.51,23.51,0,0,1,7.47-5.36,22.29,22.29,0,0,1,18.3,0,23.51,23.51,0,0,1,7.47,5.36,25.07,25.07,0,0,1,5,8A26.13,26.13,0,0,1,119.37,61.37Z" style="fill:#6ccde8"/></g></g></g></g><g id="Group_1505" data-name="Group 1505"><path id="Path_815" data-name="Path 815" d="M99.89,35.72s2.31,1.26-3.81,3.54c0,0,4.78.29,6.16,3.55C102.33,42.89,103,37.48,99.89,35.72Z" style="fill:#fff"/><path id="Path_816" data-name="Path 816" d="M92.66,34c-3.14,1.75-2.82,8.91-2.74,8.78,1.43-3.26,6.16-3.55,6.16-3.55C90,37,92.66,34,92.66,34Z" style="fill:#fff"/></g><g id="Group_2224" data-name="Group 2224"><g id="Group_2116" data-name="Group 2116"><g id="Group_2104" data-name="Group 2104"><ellipse id="Ellipse_167" data-name="Ellipse 167" cx="95.37" cy="28.87" rx="10" ry="10.5" style="fill:#fdcd9b"/></g></g><g id="Group_2117" data-name="Group 2117"><path id="Path_1318" data-name="Path 1318" d="M85.63,27.45s-1-7.77,2.69-10.69,10-.32,10-.32,4.73-3.39,7.22-.9,0,9.28,0,9.28-3.77,1.85-7.22-3.05-10.42.4-10.42.4Z" style="fill:#898989"/><ellipse id="Ellipse_158" data-name="Ellipse 158" cx="98.87" cy="16.87" rx="2.5" ry="3.5" style="fill:#898989"/><ellipse id="Ellipse_159" data-name="Ellipse 159" cx="105.87" cy="23.87" rx="4.5" ry="3.5" style="fill:#898989"/></g></g></g><path id="Path_3455" data-name="Path 3455" d="M72.37,61.37s2.89,3.65,9.38,6.74a36,36,0,0,0,16.49,3.4,38.86,38.86,0,0,0,12.7-3.24,28.33,28.33,0,0,0,8.5-6s-.16-.79,0-1Z" style="fill:#6ccde8"/><path id="Path_3456" data-name="Path 3456" d="M85.9,48.27a49.17,49.17,0,0,0-4.52,11.67,14.23,14.23,0,0,0-.22,5.7" style="fill:none;stroke:#35c3df;stroke-linecap:round"/><path id="Path_3457" data-name="Path 3457" d="M106.65,49.26A41.93,41.93,0,0,1,110,58.48a19.3,19.3,0,0,1,0,8.15" style="fill:none;stroke:#35c3df;stroke-linecap:round"/></g></g></g></svg>