<svg xmlns="http://www.w3.org/2000/svg" viewBox="0 0 163 115"><title>report_blokir_driver</title><g id="Layer_2" data-name="Layer 2"><g id="Layer_1-2" data-name="Layer 1"><g id="Group_2374" data-name="Group 2374"><g id="Group_2228" data-name="Group 2228"><g id="Group_1954" data-name="Group 1954"><path id="Path_1298" data-name="Path 1298" d="M69.64,9.14c45,0,93.36,22,93.36,51.86,0,17.3-21.91,13.06-41.26,23.08C108.17,91.1,100.4,115,81.5,115,36.49,115,0,90.82,0,61S24.62,9.14,69.64,9.14Z" style="fill:#e9f5fc"/><g id="Group_1952" data-name="Group 1952"><g id="Ellipse_132" data-name="Ellipse 132"><circle cx="126.5" cy="83.5" r="6.5" style="fill:none"/><circle cx="126.5" cy="83.5" r="5.5" style="fill:none;stroke:#4281c3;stroke-width:2px"/></g><g id="Polygon_13" data-name="Polygon 13"><path d="M148.5,25,156,38H141Z" style="fill:none"/><path d="M148.5,29l-4,7h8.08l-4-7m0-4L156,38H141Z" style="fill:#f68720"/></g><g id="Rectangle_487" data-name="Rectangle 487"><rect x="13" y="19" width="13" height="13" style="fill:none"/><rect x="14" y="20" width="11" height="11" style="fill:none;stroke:#2fb55d;stroke-width:2px"/></g><g id="Group_1899" data-name="Group 1899"><path id="Path_1288" data-name="Path 1288" d="M40,100.28l-8.36-5.43" style="fill:none;stroke:#ed1e24;stroke-linecap:round;stroke-miterlimit:4.0018915443327465;stroke-width:2.0009457721663733px"/><path id="Path_1289" data-name="Path 1289" d="M38.54,93.38l-5.43,8.36" style="fill:none;stroke:#ed1e24;stroke-linecap:round;stroke-miterlimit:4.0018915443327465;stroke-width:2.0009457721663733px"/></g></g></g></g></g><g id="Group_3018" data-name="Group 3018"><g id="Group_3017" data-name="Group 3017"><rect id="Rectangle_1525" data-name="Rectangle 1525" x="112" y="17" width="4" height="50" style="fill:#818181"/><g id="Group_3016" data-name="Group 3016"><g id="Ellipse_256" data-name="Ellipse 256"><circle cx="114" cy="12" r="12" style="fill:#fff"/><circle cx="114" cy="12" r="11.5" style="fill:none;stroke:#707071"/></g><g id="Group_3016-2" data-name="Group 3016-2"><g id="Group_3016-3" data-name="Group 3016-3"><g id="Group_3016-4" data-name="Group 3016-4"><g id="Ellipse_255" data-name="Ellipse 255"><circle cx="114" cy="12" r="8" style="fill:none"/><circle cx="114" cy="12" r="7" style="fill:none;stroke:#f15d5f;stroke-width:2px"/></g><path id="Path_3667" data-name="Path 3667" d="M108.8,17.18,119.08,6.52" style="fill:none;stroke:#f15d5f;stroke-width:2px"/></g></g></g></g></g><path id="Path_3668" data-name="Path 3668" d="M108.55,68.74l-4.18-8.38L109.3,66l.43-3,.76,2.14,5.32-7.88s-2.72,5.7-2.38,7.23,1.95-2.13,1.95-2.13l.43,3.62,6.24-10.24s-3.12,9.5-3.79,10.24,2.88-1.49,2.88-1.49-1.91,4-1.91,4.25S108.55,68.74,108.55,68.74Z" style="fill:#73c37c"/></g><g id="Group_3019" data-name="Group 3019"><g id="Group_2227" data-name="Group 2227"><g id="Group_2225" data-name="Group 2225"><g id="Group_2194" data-name="Group 2194"><g id="Group_2195" data-name="Group 2195"><g id="Group_2190" data-name="Group 2190"><g id="Group_2177" data-name="Group 2177"><path id="Subtraction_33" data-name="Subtraction 33" d="M116,82H47a39.21,39.21,0,0,1,2.71-14.4A37.12,37.12,0,0,1,57.1,55.84a34.3,34.3,0,0,1,11-7.93,32.45,32.45,0,0,1,26.86,0,34.19,34.19,0,0,1,11,7.93,37.12,37.12,0,0,1,7.39,11.76A39.21,39.21,0,0,1,116,82Z" style="fill:#6ccde8"/></g><path id="Path_1460" data-name="Path 1460" d="M67.18,61.5s-7.76,10-5.75,19.47" style="fill:none;stroke:#35c3df;stroke-linecap:round"/><path id="Path_1461" data-name="Path 1461" d="M97.5,61.5s7.76,10,5.75,19.47" style="fill:none;stroke:#35c3df;stroke-linecap:round"/></g></g></g><g id="Group_1505" data-name="Group 1505"><path id="Path_815" data-name="Path 815" d="M87.71,44.55s3.39,1.84-5.6,5.19c0,0,7,.42,9,5.21C91.27,55.07,92.31,47.12,87.71,44.55Z" style="fill:#f5fbfe"/><path id="Path_816" data-name="Path 816" d="M77.1,42c-4.61,2.58-4.15,13.07-4,12.89,2.1-4.79,9-5.21,9-5.21C73.13,46.39,77.1,42,77.1,42Z" style="fill:#f5fbfe"/></g><g id="Group_2224" data-name="Group 2224"><g id="Group_2116" data-name="Group 2116"><g id="Group_2104" data-name="Group 2104"><path id="Path_1476" data-name="Path 1476" d="M81.57,19.39c7.93,0,14.36,7,14.36,15.51S89.5,50.41,81.57,50.41,67.22,43.46,67.22,34.9c0-3.68.62-7.73,2.82-10.67C72.45,21,77.05,19.39,81.57,19.39Z" style="fill:#fdcd9b"/></g></g><g id="Group_2117" data-name="Group 2117"><path id="Path_1318" data-name="Path 1318" d="M67.7,31.45s-2.37-10.44,3-14.72,14.64-.48,14.64-.48,7-5,10.61-1.33,0,13.62,0,13.62-5.53,2.72-10.61-4.47-15.28.59-15.28.59Z" style="fill:#898989"/><ellipse id="Ellipse_158" data-name="Ellipse 158" cx="85.5" cy="16.5" rx="3.5" ry="4.5" style="fill:#898989"/><ellipse id="Ellipse_159" data-name="Ellipse 159" cx="96" cy="26" rx="7" ry="5" style="fill:#898989"/></g></g></g><g id="Group_2226" data-name="Group 2226"><g id="steering-wheel"><g id="Group_2174" data-name="Group 2174"><g id="Group_2173" data-name="Group 2173"><path id="Path_1442" data-name="Path 1442" d="M81.3,52.06A22.72,22.72,0,1,0,104,74.78,22.72,22.72,0,0,0,81.3,52.06Zm0,5.13A17.58,17.58,0,0,1,98.75,72.58H63.85A17.6,17.6,0,0,1,81.3,57.19ZM64.16,78.76c3.52-1.14,7.24-2,10.55-.32,2.71,1.36,4,10.82,4.3,13.78A17.62,17.62,0,0,1,64.16,78.76ZM83.59,92.22c.33-3,1.59-12.42,4.31-13.78,3.3-1.65,7-.82,10.54.32A17.61,17.61,0,0,1,83.59,92.22Z" style="fill:#7c7b74"/><g id="Group_2172" data-name="Group 2172"><path id="Path_1443" data-name="Path 1443" d="M83.5,94.57A22.73,22.73,0,0,1,64.27,59.74,22.72,22.72,0,0,0,98.33,89.82a23.1,23.1,0,0,0,2.2-2.93A22.65,22.65,0,0,1,83.5,94.57Z" style="fill:#5c5a51"/></g><path id="Path_1453" data-name="Path 1453" d="M81.3,74.78a2.93,2.93,0,1,1-2.93,2.93,2.93,2.93,0,0,1,2.93-2.93Z" style="fill:#fbab19"/><path id="Path_1444" data-name="Path 1444" d="M82.77,79.18A2.93,2.93,0,0,1,80.1,75a2.93,2.93,0,1,0,2.41,5.35A3,3,0,0,0,84,78.92,3,3,0,0,1,82.77,79.18Z" style="fill:#f68720"/></g></g></g><path id="Path_3493" data-name="Path 3493" d="M102.12,62c4.07.79,7.43,4.46,6.74,8s-4.54,5.74-8.6,4.95-6.81-4.29-6.12-7.81c.51-2.62,2.58-2,5.68-2.55C100.48,64.4,99.79,61.85,102.12,62Z" style="fill:#fdcd9b"/><path id="Path_1452" data-name="Path 1452" d="M60.69,62.06c1.61-.2,1.32,1.63,2.56,1.8,2.67.34,4.8.17,5.39,3a6.58,6.58,0,0,1-1.37,5.32A7.87,7.87,0,0,1,62.51,75c-4.16.89-8.16-1.34-8.94-5S56.53,63,60.69,62.06Z" style="fill:#fdcd9b"/></g></g><path id="Path_3494" data-name="Path 3494" d="M53.5,68.46,51.61,70a7.88,7.88,0,0,0,7.13,6.72l1.85-1.56S54.44,72.89,53.5,68.46Z" style="fill:#fff"/><path id="Path_3495" data-name="Path 3495" d="M103.44,74.79l1.79,1.63a7.9,7.9,0,0,0,5.52-8.1l-1.83-1.58S107.67,73.17,103.44,74.79Z" style="fill:#fff"/></g></g></g></svg>