<svg xmlns="http://www.w3.org/2000/svg" viewBox="0 0 23.83 19.14"><title>report_problem</title><g id="Layer_2" data-name="Layer 2"><g id="Layer_1-2" data-name="Layer 1"><g id="Group_1119" data-name="Group 1119"><g id="envelope"><g id="Group_868" data-name="Group 868"><path id="Path_456" data-name="Path 456" d="M18.29,3.29H2.55A2.55,2.55,0,0,0,0,5.84V16.6a2.55,2.55,0,0,0,2.55,2.54H18.28a2.55,2.55,0,0,0,2.55-2.54V5.84A2.56,2.56,0,0,0,18.29,3.29Zm1.38,13.3A1.39,1.39,0,0,1,18.29,18H2.55a1.4,1.4,0,0,1-1.39-1.39V5.84A1.39,1.39,0,0,1,2.55,4.46H18.28a1.39,1.39,0,0,1,1.39,1.38V16.6Z" style="fill:#4281c3"/><path id="Path_457" data-name="Path 457" d="M13.14,11.09l5.09-4.57a.59.59,0,0,0,0-.83.59.59,0,0,0-.8,0l-7,6.31L9.06,10.73h0L9,10.64l-5.58-5a.57.57,0,0,0-.82,0,.6.6,0,0,0,.05.83h0l5.15,4.6L2.62,15.93a.58.58,0,0,0,0,.82.58.58,0,0,0,.83,0l5.21-4.87L10,13.17a.58.58,0,0,0,.78,0l1.45-1.3,5.18,4.92a.59.59,0,0,0,.83,0,.57.57,0,0,0,0-.82Z" style="fill:#4281c3"/></g></g><path id="Path_675" data-name="Path 675" d="M20.05,0a3.78,3.78,0,1,1-3.78,3.78h0A3.78,3.78,0,0,1,20.05,0Z" style="fill:#ed1e24"/><g id="Group_1118" data-name="Group 1118"><path id="Path_672" data-name="Path 672" d="M20.07,4.9a.48.48,0,0,0-.49.48v0a.48.48,0,0,0,.44.51h.05a.48.48,0,0,0,.5-.47v0a.5.5,0,0,0-.49-.51Z" style="fill:#fff"/><path id="Path_673" data-name="Path 673" d="M20.06,4.71a.29.29,0,0,0,.29-.26c.1-1.13.32-2.34.32-2.45,0-.3-.33-.36-.62-.36s-.6.07-.6.35c0,.11.22,1.35.32,2.46A.28.28,0,0,0,20.06,4.71Z" style="fill:#fff"/></g></g></g></g></svg>