<svg xmlns="http://www.w3.org/2000/svg" viewBox="0 0 163 105.86"><title>report_problem_man</title><g id="Layer_2" data-name="Layer 2"><g id="Layer_1-2" data-name="Layer 1"><g id="Group_3030" data-name="Group 3030"><g id="Group_2374" data-name="Group 2374"><g id="Group_2228" data-name="Group 2228"><g id="Group_1954" data-name="Group 1954"><path id="Path_1298" data-name="Path 1298" d="M69.64,0C114.65,0,163,22,163,51.86c0,17.3-21.91,13.06-41.26,23.07-13.57,7-21.34,30.93-40.24,30.93-45,0-81.5-24.18-81.5-54S24.62,0,69.64,0Z" style="fill:#e9f5fc"/><g id="Group_1952" data-name="Group 1952"><g id="Ellipse_132" data-name="Ellipse 132"><circle cx="126.5" cy="74.36" r="6.5" style="fill:none"/><circle cx="126.5" cy="74.36" r="5.5" style="fill:none;stroke:#4281c3;stroke-width:2px"/></g><g id="Polygon_13" data-name="Polygon 13"><path d="M148.5,15.86l7.5,13H141Z" style="fill:none"/><path d="M148.5,19.86l-4,7h8.08l-4-7m0-4,7.5,13H141Z" style="fill:#f68720"/></g><g id="Rectangle_487" data-name="Rectangle 487"><rect x="13" y="9.86" width="13" height="13" style="fill:none"/><rect x="14" y="10.86" width="11" height="11" style="fill:none;stroke:#2fb55d;stroke-width:2px"/></g><g id="Group_1899" data-name="Group 1899"><path id="Path_1288" data-name="Path 1288" d="M40,91.13,31.65,85.7" style="fill:none;stroke:#ed1e24;stroke-linecap:round;stroke-miterlimit:4.0018915443327465;stroke-width:2.0009457721663733px"/><path id="Path_1289" data-name="Path 1289" d="M38.54,84.24,33.11,92.6" style="fill:none;stroke:#ed1e24;stroke-linecap:round;stroke-miterlimit:4.0018915443327465;stroke-width:2.0009457721663733px"/></g></g></g></g></g><g id="Group_3028" data-name="Group 3028"><g id="Group_3024" data-name="Group 3024"><path id="path586" d="M46.76,34.85c-2.69-6.36,20.4-10.17,22-10.92V15.45S31.6,23.5,35.8,36.75,57.13,59.92,60.19,64c2,2.68,13.58-2.92,13.58-2.92L66.49,49.29s-16.2-6.1-19.73-14.44" style="fill:#35c3df"/><path id="path588" d="M89,46.27l-13.82-.51L61.07,51.09V85.35h41.31V51.09L89,46.27" style="fill:#35c3df"/><path id="path622" d="M61.71,47.57l-2.85,6.52.85,8.68a91.46,91.46,0,0,0-2.65,22.59H82.68L72,45.76,61.71,47.57" style="fill:#35c3df"/><path id="path626" d="M106.43,48.89c-3.26-1.51-14.76-3.13-14.76-3.13l12,17.36S113.78,73,115.59,81.73c.24,1.18.46,2.4.66,3.63h9.53c-.16-1.06-.32-2.17-.5-3.33-2.58-16.36-15.59-31.62-18.85-33.14" style="fill:#35c3df"/><path id="path628" d="M101.91,47.57,91.67,45.76,81,85.36h26.23a78.18,78.18,0,0,0-3.26-22.59l-2-15.2" style="fill:#35c3df"/></g><path id="path582" d="M63.48,16.69l-.34,8.56,3.59,0,.55-10-3.8,1.43" style="fill:#f4f5f5"/><g id="Group_3026" data-name="Group 3026"><path id="Path_815" data-name="Path 815" d="M88.82,41.49s4.32,2.35-7.13,6.62c0,0,8.93.53,11.52,6.64C93.37,54.9,94.69,44.78,88.82,41.49Z" style="fill:#f5fbfe"/><path id="Path_816" data-name="Path 816" d="M75.3,38.25C69.43,41.53,70,54.9,70.17,54.67,72.84,48.57,81.69,48,81.69,48,70.24,43.84,75.3,38.25,75.3,38.25Z" style="fill:#f5fbfe"/></g><g id="Group_3027" data-name="Group 3027"><g id="Group_2116" data-name="Group 2116"><g id="Group_2104" data-name="Group 2104"><path id="Path_1476" data-name="Path 1476" d="M81.71,14.63c8.55,0,15.48,7.49,15.48,16.72S90.26,48.07,81.71,48.07,66.23,40.58,66.23,31.35c0-4,.67-8.33,3-11.51C71.87,16.35,76.83,14.63,81.71,14.63Z" style="fill:#fdcd9b"/></g></g><g id="Group_2117" data-name="Group 2117"><path id="Path_1318" data-name="Path 1318" d="M66.75,27.64S64.2,16.38,70,11.77s15.78-.52,15.78-.52S93.28,5.9,97.22,9.82s0,14.69,0,14.69-6,2.92-11.43-4.83-16.47.64-16.47.64Z" style="fill:#898989"/><ellipse id="Ellipse_158" data-name="Ellipse 158" cx="85.5" cy="11.86" rx="3.5" ry="5" style="fill:#898989"/><ellipse id="Ellipse_159" data-name="Ellipse 159" cx="97" cy="21.86" rx="8" ry="5" style="fill:#898989"/></g></g></g></g></g></g></svg>