<svg xmlns="http://www.w3.org/2000/svg" viewBox="0 0 14.34 14.34"><title>route_blue</title><g id="Layer_2" data-name="Layer 2"><g id="Layer_1-2" data-name="Layer 1"><g id="Page-1"><g id="_029---Lane-Split" data-name=" 029---Lane-Split"><path id="Shape" d="M3,.1l-3,4.21a.24.24,0,0,0,.05.34.25.25,0,0,0,.15,0H1.73v.74a6.39,6.39,0,0,0,2.18,4.81l.61.53a3.43,3.43,0,0,1,1.17,2.57v.75a.24.24,0,0,0,.24.24H8.41a.24.24,0,0,0,.24-.24v-.75a6.39,6.39,0,0,0-2.18-4.8L5.86,8A3.4,3.4,0,0,1,4.69,5.44V4.7H6.18a.25.25,0,0,0,.25-.24.24.24,0,0,0,0-.14L3.41.1a.25.25,0,0,0-.35,0Z" style="fill:#4281c3"/><path id="Shape-2" d="M7.91,4.45a.25.25,0,0,0,.25.25H9.64v.74A3.41,3.41,0,0,1,8.48,8l-.61.54-.37.34,0,.06A6.89,6.89,0,0,1,9,11.88a3.44,3.44,0,0,1,.83-1.1l.61-.53a6.4,6.4,0,0,0,2.18-4.81V4.7h1.48a.25.25,0,0,0,.25-.24.24.24,0,0,0-.05-.14L11.32.1a.25.25,0,0,0-.35,0,.12.12,0,0,0-.05.05L8,4.31a.24.24,0,0,0,0,.14Z" style="fill:#4281c3"/></g></g></g></g></svg>