<svg xmlns="http://www.w3.org/2000/svg" width="21" height="21" viewBox="0 0 21 21">
  <g id="route" transform="translate(0 0)">
    <path id="Path_11081" data-name="Path 11081" d="M3.886,12.148a1.23,1.23,0,1,0,1.786,1.469H8.859a1.23,1.23,0,1,1,0,2.461H3.937a2.051,2.051,0,1,0,0,4.1h4.1a.41.41,0,0,0,0-.82h-4.1a1.23,1.23,0,1,1,0-2.461H8.859a2.051,2.051,0,1,0,0-4.1H5.672a1.237,1.237,0,0,0-.534-.649L8.27,7.008a4.512,4.512,0,1,0-7.517,0Zm.626,1.469a.41.41,0,1,1,.41-.41A.411.411,0,0,1,4.512,13.617Zm0-12.8A3.692,3.692,0,0,1,7.583,6.56l-.009.014L4.512,11.6,1.44,6.56A3.692,3.692,0,0,1,4.512.82Z" fill="#fff"/>
    <path id="Path_11082" data-name="Path 11082" d="M62.051,64.1A2.051,2.051,0,1,0,60,62.051,2.053,2.053,0,0,0,62.051,64.1Zm0-3.281a1.23,1.23,0,1,1-1.23,1.23A1.232,1.232,0,0,1,62.051,60.82Z" transform="translate(-57.539 -57.539)" fill="#fff"/>
    <path id="Path_11083" data-name="Path 11083" d="M281.168,166a4.512,4.512,0,0,0-3.756,7.012l3.121,4.9a1.237,1.237,0,0,0-.525.643h-3.6a.41.41,0,0,0,0,.82h3.6a1.23,1.23,0,1,0,1.795-1.464l3.121-4.9A4.512,4.512,0,0,0,281.168,166Zm0,13.371a.41.41,0,1,1,.41-.41A.411.411,0,0,1,281.168,179.371Zm3.071-6.811-3.071,4.818L278.1,172.56a6.8,6.8,0,0,1-.62-2.048,3.691,3.691,0,1,1,6.763,2.048Z" transform="translate(-264.68 -159.191)" fill="#fff"/>
    <path id="Path_11084" data-name="Path 11084" d="M354.051,226a2.051,2.051,0,1,0,2.051,2.051A2.053,2.053,0,0,0,354.051,226Zm0,3.281a1.23,1.23,0,1,1,1.23-1.23A1.232,1.232,0,0,1,354.051,229.281Z" transform="translate(-337.563 -216.73)" fill="#fff"/>
    <circle id="Ellipse_1589" data-name="Ellipse 1589" cx="0.5" cy="0.5" r="0.5" transform="translate(9.5 19.5)" fill="#fff"/>
  </g>
</svg>
