<svg xmlns="http://www.w3.org/2000/svg" viewBox="0 0 157.64 74.34"><title>search_order</title><g id="Layer_2" data-name="Layer 2"><g id="Layer_1-2" data-name="Layer 1"><g id="Group_3047" data-name="Group 3047"><g id="Group_2221" data-name="Group 2221"><g id="Group_2218" data-name="Group 2218"><g id="Movers"><path id="Path_1302" data-name="Path 1302" d="M157.64,6.43h0A6.43,6.43,0,0,0,151.22,0H61.88A23.69,23.69,0,0,0,38.19,23.69v10.7a4.13,4.13,0,0,1-4.12,4.13H6.27a2.62,2.62,0,0,0-2.62,2.62h0a2.62,2.62,0,0,0,2.62,2.63H43.85a3.09,3.09,0,0,1,3.08,3.08h0a3.09,3.09,0,0,1-3.08,3.08H17.23a1.92,1.92,0,0,0-1.92,1.92h0a1.92,1.92,0,0,0,1.92,1.92H34.35a3.85,3.85,0,0,1,3.86,3.85h0a3.87,3.87,0,0,1-3.86,3.86H6.43A6.43,6.43,0,0,0,0,67.91H0a6.43,6.43,0,0,0,6.43,6.43h97.83A23.69,23.69,0,0,0,128,50.65V40a4.12,4.12,0,0,1,4.12-4.13h19.29A2.63,2.63,0,0,0,154,33.19h0a2.62,2.62,0,0,0-2.63-2.62H122.27a3.07,3.07,0,0,1-3.07-3.08h0a3.08,3.08,0,0,1,3.07-3.08h18.12a1.92,1.92,0,0,0,1.92-1.92h0a1.92,1.92,0,0,0-1.92-1.92h-8.62a3.85,3.85,0,0,1-3.85-3.86h0a3.86,3.86,0,0,1,3.85-3.86H151.2A6.43,6.43,0,0,0,157.64,6.43Z" style="fill:#e9f5fc"/></g></g></g><g id="Group_2087" data-name="Group 2087"><g id="Group_1939" data-name="Group 1939"><g id="Group_1935" data-name="Group 1935"><g id="Group_1932" data-name="Group 1932"><path id="Union_6-2" data-name="Union 6-2" d="M108.08,52.09h-2v0H41.18v0H38.93l.5-1.06-1.08-2.3,1.07-2.3-1.07-2.31,1.07-2.3-1.07-2.31,1.07-2.3-1.07-2.3,1.07-2.3L38.35,30.3,39.42,28l-1.07-2.3,1.07-2.3L38.77,22H40.9v-.09h65.22v-.1h2.1l-.57,1.43.93,2.31-.93,2.32.93,2.32-.93,2.32.93,2.31-.93,2.32.93,2.32-.93,2.31.93,2.32-.93,2.32.93,2.32L107.65,51l.44,1.08h0Z" style="fill:#fff"/></g></g><g id="Group_1913" data-name="Group 1913"><path id="path130" d="M82.68,47.13a.5.5,0,1,1,.5.56.53.53,0,0,1-.5-.56" style="fill:#eaeaea"/><path id="path132" d="M67.57,47.84a1.13,1.13,0,1,1,1.11,1.28,1.2,1.2,0,0,1-1.11-1.28" style="fill:#eaeaea"/><path id="path132-2" d="M95.61,39.51a2,2,0,1,1,1.94,2.22,2.09,2.09,0,0,1-1.94-2.22" style="fill:#eaeaea"/><path id="path132-3" d="M103.36,43.82a.94.94,0,1,1,.94,1.08,1,1,0,0,1-.94-1.08" style="fill:#eaeaea"/><path id="path132-4" d="M105.76,34.72a.61.61,0,0,1,.58-.66.67.67,0,1,1-.58.66" style="fill:#eaeaea"/><path id="path134" d="M73.13,44.53a.77.77,0,1,1,1.52,0,.77.77,0,1,1-1.52,0" style="fill:#eaeaea"/><path id="path136" d="M82.68,28.33a.5.5,0,1,1,1,0,.5.5,0,1,1-1,0" style="fill:#eaeaea"/><path id="path138" d="M59.44,25.17a.45.45,0,1,1,.89,0,.49.49,0,0,1-.44.5.48.48,0,0,1-.44-.5" style="fill:#eaeaea"/><path id="path140" d="M57,42.07a1.36,1.36,0,1,1,1.35,1.54A1.46,1.46,0,0,1,57,42.07" style="fill:#eaeaea"/><path id="path142" d="M59.85,49.37a.22.22,0,1,0,.44,0,.24.24,0,0,0-.22-.24.23.23,0,0,0-.22.24" style="fill:#eaeaea"/></g></g></g><g id="Group_3046" data-name="Group 3046"><rect id="Rectangle_522" data-name="Rectangle 522" x="98.59" y="53.36" width="3.59" height="7.32" transform="translate(-10.91 87.69) rotate(-45)" style="fill:#2b3b4e"/><path id="Path_1467" data-name="Path 1467" d="M91.81,37A11.39,11.39,0,1,1,80.42,48.42h0A11.38,11.38,0,0,1,91.81,37Z" style="fill:#4d4d4e"/><path id="Path_1468" data-name="Path 1468" d="M104.12,56.86l-3.87,3.87a.38.38,0,0,0,0,.51L110.7,71.69a.38.38,0,0,0,.51,0l3.87-3.87a.38.38,0,0,0,0-.51L104.62,56.86A.37.37,0,0,0,104.12,56.86Z" style="fill:#e6e9ed"/><rect id="Rectangle_523" data-name="Rectangle 523" x="104.57" y="58.39" width="6.19" height="10.18" transform="translate(-13.35 94.73) rotate(-45)" style="fill:#bcbcbc"/><circle id="Ellipse_182" data-name="Ellipse 182" cx="91.81" cy="48.42" r="8.8" style="fill:#8ad7f8"/><g id="Group_2219" data-name="Group 2219"><line id="Line_71" data-name="Line 71" x1="90.63" y1="43.22" x2="87.36" y2="48.94" style="fill:none;stroke:#fff;stroke-linecap:round"/><line id="Line_72" data-name="Line 72" x1="90.63" y1="46.49" x2="88.18" y2="50.58" style="fill:none;stroke:#fff;stroke-linecap:round"/></g></g></g></g></g></svg>