<svg xmlns="http://www.w3.org/2000/svg" viewBox="0 0 20.34 21.31"><title>send_file</title><g id="Layer_2" data-name="Layer 2"><g id="Layer_1-2" data-name="Layer 1"><path id="attachment" d="M20.21,7.94a.41.41,0,0,0-.58,0h0L8.34,19.23A4.43,4.43,0,0,1,2.08,13L13.37,1.69a3,3,0,0,1,4.29.07l.09.1A3,3,0,0,1,18,6.14l-.08.09L7.31,16.84a1.52,1.52,0,0,1-2.15-2.15L12.35,7.5a.42.42,0,0,0-.59-.59L4.58,14.1A2.35,2.35,0,1,0,7.9,17.42L18.5,6.82a3.84,3.84,0,0,0-.05-5.44l-.12-.11A3.83,3.83,0,0,0,12.91,1l-.12.11L1.5,12.39a5.25,5.25,0,0,0,7.42,7.43L20.21,8.53a.41.41,0,0,0,0-.59Z" style="fill:#bcbcbc"/></g></g></svg>