<svg xmlns="http://www.w3.org/2000/svg" viewBox="0 0 15 15.41"><title>service_gray</title><g id="Layer_2" data-name="Layer 2"><g id="Layer_1-2" data-name="Layer 1"><g id="edit"><g id="Group_765" data-name="Group 765"><g id="Group_764" data-name="Group 764"><path id="Path_361" data-name="Path 361" d="M11.77,2.36A.38.38,0,0,0,12.14,2V.81A.81.81,0,0,0,11.33,0H3.46a.39.39,0,0,0-.27.11L.11,3.19A.38.38,0,0,0,0,3.45V14.6a.81.81,0,0,0,.81.81H11.33a.81.81,0,0,0,.81-.81V8.92a.38.38,0,0,0-.37-.37.36.36,0,0,0-.37.37h0V14.6a.07.07,0,0,1-.07.07H.81a.08.08,0,0,1-.07-.07V3.83H3A.82.82,0,0,0,3.83,3V.74h7.5a.08.08,0,0,1,.07.07h0V2a.37.37,0,0,0,.37.37ZM3.08,3A.07.07,0,0,1,3,3.08H1.27L3.08,1.27Z" style="fill:#bcbcbc"/></g></g><g id="Group_767" data-name="Group 767"><g id="Group_766" data-name="Group 766"><path id="Path_362" data-name="Path 362" d="M14.63,3l-.44-.43a1.26,1.26,0,0,0-1.78,0L8.94,6.06h-6a.37.37,0,0,0-.37.37.36.36,0,0,0,.37.37H8.19L6,9h-3a.38.38,0,0,0,0,.75H5.2a.48.48,0,0,0-.1.17L4.53,12H2.91a.36.36,0,0,0-.37.37.37.37,0,0,0,.37.37h2l2.35-.65a.44.44,0,0,0,.16-.1L14.63,4.8A1.26,1.26,0,0,0,14.63,3ZM5.35,11.87l.3-1.1.79.79Zm1.81-.65L6,10.06l6-5.95,1.16,1.16Zm7-6.94-.47.47L12.47,3.58l.47-.47a.52.52,0,0,1,.73,0l.44.44A.52.52,0,0,1,14.11,4.28Z" style="fill:#bcbcbc"/></g></g></g></g></g></svg>