<svg xmlns="http://www.w3.org/2000/svg" viewBox="0 0 20.26 20.26"><title>setting</title><g id="Layer_2" data-name="Layer 2"><g id="Layer_1-2" data-name="Layer 1"><g id="settings"><g id="Group_822" data-name="Group 822"><path id="Path_440" data-name="Path 440" d="M19.22,8,17.8,7.76a9.12,9.12,0,0,0-.57-1.38l.84-1.17a1.25,1.25,0,0,0-.14-1.61L16.67,2.34A1.22,1.22,0,0,0,15.79,2a1.26,1.26,0,0,0-.73.23L13.89,3a8.45,8.45,0,0,0-1.43-.59l-.24-1.4A1.25,1.25,0,0,0,11,0H9.2A1.25,1.25,0,0,0,8,1.05L7.72,2.49a7.6,7.6,0,0,0-1.38.58L5.18,2.23a1.25,1.25,0,0,0-1.61.13L2.3,3.62a1.26,1.26,0,0,0-.13,1.62L3,6.43a7.53,7.53,0,0,0-.56,1.38l-1.4.24A1.25,1.25,0,0,0,0,9.28v1.79A1.25,1.25,0,0,0,1.05,12.3l1.43.25a8.66,8.66,0,0,0,.58,1.37l-.83,1.16a1.23,1.23,0,0,0,.14,1.61L3.63,18a1.25,1.25,0,0,0,.88.36,1.29,1.29,0,0,0,.73-.23l1.18-.85a7.41,7.41,0,0,0,1.34.55L8,19.22a1.25,1.25,0,0,0,1.24,1H11a1.26,1.26,0,0,0,1.24-1l.24-1.42a7.6,7.6,0,0,0,1.38-.58l1.17.84a1.27,1.27,0,0,0,.73.24h0a1.26,1.26,0,0,0,.88-.37l1.27-1.26a1.27,1.27,0,0,0,.13-1.62l-.84-1.17a7.44,7.44,0,0,0,.57-1.38l1.43-.24a1.25,1.25,0,0,0,1-1.24V9.24A1.24,1.24,0,0,0,19.22,8Zm-.1,3a.11.11,0,0,1-.09.11l-1.78.3a.54.54,0,0,0-.45.42,6.71,6.71,0,0,1-.74,1.77.54.54,0,0,0,0,.62l1,1.48a.12.12,0,0,1,0,.14l-1.26,1.26a.12.12,0,0,1-.08,0l-.06,0-1.47-1.05a.56.56,0,0,0-.62,0,7.1,7.1,0,0,1-1.78.73.58.58,0,0,0-.42.46L11.13,19a.1.1,0,0,1-.11.09H9.24A.12.12,0,0,1,9.13,19l-.3-1.78a.58.58,0,0,0-.42-.46,7.08,7.08,0,0,1-1.73-.71A.6.6,0,0,0,6.39,16a.55.55,0,0,0-.33.11L4.58,17.17a.07.07,0,0,1-.06,0,.11.11,0,0,1-.08,0L3.17,15.9a.12.12,0,0,1,0-.14l1-1.47a.58.58,0,0,0,0-.62,6.42,6.42,0,0,1-.75-1.77A.57.57,0,0,0,3,11.48l-1.79-.3a.11.11,0,0,1-.1-.11V9.28a.12.12,0,0,1,.1-.11L3,8.88a.59.59,0,0,0,.46-.43,6.68,6.68,0,0,1,.73-1.77.58.58,0,0,0,0-.62L3.1,4.58a.14.14,0,0,1,0-.15L4.38,3.17a.11.11,0,0,1,.08,0,.07.07,0,0,1,.06,0L6,4.2a.6.6,0,0,0,.63,0,6.29,6.29,0,0,1,1.77-.75A.6.6,0,0,0,8.8,3l.3-1.79a.12.12,0,0,1,.11-.09H11a.11.11,0,0,1,.11.09L11.4,3a.58.58,0,0,0,.42.46,6.73,6.73,0,0,1,1.82.75.58.58,0,0,0,.62,0l1.46-1,.06,0a.11.11,0,0,1,.08,0L17.13,4.4a.12.12,0,0,1,0,.14L16.09,6a.56.56,0,0,0,0,.62,7,7,0,0,1,.73,1.77.56.56,0,0,0,.46.42l1.78.3a.12.12,0,0,1,.09.11V11Z" style="fill:#fff"/><path id="Path_441" data-name="Path 441" d="M10.13,5.76a4.37,4.37,0,1,0,4.37,4.37h0A4.36,4.36,0,0,0,10.13,5.76Zm0,7.6a3.23,3.23,0,1,1,3.23-3.23A3.23,3.23,0,0,1,10.13,13.36Z" style="fill:#fff"/></g></g></g></g></svg>