<svg xmlns="http://www.w3.org/2000/svg" width="20.262" height="20.261" viewBox="0 0 20.262 20.261">
  <g id="settings_1_" data-name="settings (1)" transform="translate(0 3.999)">
    <g id="Group_822" data-name="Group 822" transform="translate(0 -3.999)">
      <path id="Path_440" data-name="Path 440" d="M19.224,8,17.8,7.764a8.03,8.03,0,0,0-.571-1.38l.838-1.172A1.248,1.248,0,0,0,17.934,3.6L16.672,2.337a1.242,1.242,0,0,0-.885-.368,1.23,1.23,0,0,0-.724.233l-1.177.838a7.947,7.947,0,0,0-1.431-.588L12.22,1.046A1.25,1.25,0,0,0,10.984,0H9.2A1.25,1.25,0,0,0,7.966,1.046L7.72,2.486a7.832,7.832,0,0,0-1.376.58L5.181,2.227a1.25,1.25,0,0,0-1.613.135L2.3,3.624a1.253,1.253,0,0,0-.135,1.613l.847,1.189A7.844,7.844,0,0,0,2.451,7.81l-1.405.237A1.25,1.25,0,0,0,0,9.283v1.782A1.25,1.25,0,0,0,1.045,12.3l1.439.245a7.832,7.832,0,0,0,.58,1.376l-.834,1.16a1.248,1.248,0,0,0,.135,1.613l1.261,1.261a1.242,1.242,0,0,0,.885.368,1.23,1.23,0,0,0,.724-.233l1.189-.847a8.007,8.007,0,0,0,1.338.55L8,19.217a1.25,1.25,0,0,0,1.236,1.045h1.786a1.25,1.25,0,0,0,1.236-1.045l.241-1.422a8.03,8.03,0,0,0,1.38-.571l1.172.838a1.243,1.243,0,0,0,.728.233h0a1.242,1.242,0,0,0,.885-.368l1.261-1.261a1.253,1.253,0,0,0,.135-1.613l-.838-1.177a7.973,7.973,0,0,0,.571-1.38l1.422-.237a1.25,1.25,0,0,0,1.045-1.236V9.241A1.235,1.235,0,0,0,19.224,8Zm-.1,3.018a.11.11,0,0,1-.093.11l-1.778.3a.568.568,0,0,0-.457.419,6.776,6.776,0,0,1-.736,1.773.572.572,0,0,0,.025.622l1.045,1.473a.115.115,0,0,1-.013.144L15.86,17.122a.107.107,0,0,1-.08.034.1.1,0,0,1-.063-.021l-1.469-1.045a.572.572,0,0,0-.622-.025,6.776,6.776,0,0,1-1.773.736.562.562,0,0,0-.419.457l-.3,1.778a.11.11,0,0,1-.11.093H9.24a.11.11,0,0,1-.11-.093l-.3-1.778a.568.568,0,0,0-.419-.457,7.036,7.036,0,0,1-1.735-.711.586.586,0,0,0-.288-.076.557.557,0,0,0-.33.106L4.58,17.173a.126.126,0,0,1-.063.021.113.113,0,0,1-.08-.034L3.174,15.9a.115.115,0,0,1-.013-.144L4.2,14.294a.579.579,0,0,0,.025-.626A6.712,6.712,0,0,1,3.483,11.9a.58.58,0,0,0-.457-.419l-1.79-.3a.11.11,0,0,1-.093-.11V9.283a.11.11,0,0,1,.093-.11L3,8.877a.572.572,0,0,0,.461-.423,6.769,6.769,0,0,1,.724-1.778.565.565,0,0,0-.03-.618L3.1,4.576a.115.115,0,0,1,.013-.144L4.377,3.171a.107.107,0,0,1,.08-.034.1.1,0,0,1,.063.021L5.981,4.2a.579.579,0,0,0,.626.025A6.712,6.712,0,0,1,8.376,3.48.58.58,0,0,0,8.8,3.023l.3-1.79a.11.11,0,0,1,.11-.093h1.782a.11.11,0,0,1,.11.093L11.4,3a.572.572,0,0,0,.423.461,6.87,6.87,0,0,1,1.816.745.572.572,0,0,0,.622-.025l1.46-1.05a.126.126,0,0,1,.063-.021.113.113,0,0,1,.08.034L17.125,4.4a.115.115,0,0,1,.013.144L16.092,6.016a.572.572,0,0,0-.025.622A6.776,6.776,0,0,1,16.8,8.411a.562.562,0,0,0,.457.419l1.778.3a.11.11,0,0,1,.093.11v1.782Z" transform="translate(0 -0.001)" fill="#fff"/>
      <path id="Path_441" data-name="Path 441" d="M140.472,136a4.372,4.372,0,1,0,4.372,4.372A4.375,4.375,0,0,0,140.472,136Zm0,7.6a3.229,3.229,0,1,1,3.229-3.229A3.232,3.232,0,0,1,140.472,143.6Z" transform="translate(-130.339 -130.245)" fill="#fff"/>
    </g>
  </g>
</svg>
