<svg xmlns="http://www.w3.org/2000/svg" viewBox="0 0 354.38 120.15"><title>saldo penerimaan</title><g id="Layer_2" data-name="Layer 2"><g id="Layer_1-2" data-name="Layer 1"><g id="Group_6997" data-name="Group 6997"><g id="Group_6990" data-name="Group 6990"><g id="Group_6984" data-name="Group 6984"><g id="Group_6981" data-name="Group 6981"><g id="Group_6966" data-name="Group 6966"><g id="Group_6953" data-name="Group 6953"><g id="Group_5579" data-name="Group 5579"><path id="Subtraction_49-2" data-name="Subtraction 49-2" d="M348.2,120.15H6.2a6,6,0,0,1-6-6V6.15a6,6,0,0,1,6-6h342a6,6,0,0,1,6,6v108A6,6,0,0,1,348.2,120.15Z" fill="#74b9b6"/></g><g id="Group_6443" data-name="Group 6443"><g id="Group_6441" data-name="Group 6441"><g id="Group_6426" data-name="Group 6426"><path id="Path_13391" data-name="Path 13391" d="M191.61,120.09s5-20.24,37.64-31.86,57.9.82,84.06-15.34,10.59-36.18,20.62-49.33S354.19,20,354.19,20l.19,94.68a9.23,9.23,0,0,1-1.58,3.26,9.55,9.55,0,0,1-3.79,2.18Z" fill="#63aaa7"/><g id="Group_6418" data-name="Group 6418"><circle id="Ellipse_1613" data-name="Ellipse 1613" cx="198.2" cy="118.15" r="2" fill="#80c9c6"/><circle id="Ellipse_1614" data-name="Ellipse 1614" cx="203.2" cy="110.15" r="2" fill="#80c9c6"/><circle id="Ellipse_1615" data-name="Ellipse 1615" cx="210.2" cy="104.15" r="2" fill="#80c9c6"/><circle id="Ellipse_1616" data-name="Ellipse 1616" cx="218.2" cy="98.15" r="2" fill="#80c9c6"/><circle id="Ellipse_1617" data-name="Ellipse 1617" cx="227.2" cy="93.15" r="2" fill="#80c9c6"/><circle id="Ellipse_1618" data-name="Ellipse 1618" cx="237.2" cy="90.15" r="2" fill="#80c9c6"/><circle id="Ellipse_1619" data-name="Ellipse 1619" cx="248.2" cy="87.15" r="2" fill="#80c9c6"/><circle id="Ellipse_1620" data-name="Ellipse 1620" cx="258.2" cy="86.15" r="2" fill="#80c9c6"/><circle id="Ellipse_1621" data-name="Ellipse 1621" cx="269.2" cy="85.15" r="2" fill="#80c9c6"/><circle id="Ellipse_1622" data-name="Ellipse 1622" cx="279.2" cy="85.15" r="2" fill="#80c9c6"/><circle id="Ellipse_1623" data-name="Ellipse 1623" cx="290.2" cy="84.15" r="2" fill="#80c9c6"/><circle id="Ellipse_1624" data-name="Ellipse 1624" cx="300.2" cy="82.15" r="2" fill="#80c9c6"/><circle id="Ellipse_1625" data-name="Ellipse 1625" cx="310.2" cy="78.15" r="2" fill="#80c9c6"/><circle id="Ellipse_1626" data-name="Ellipse 1626" cx="319.2" cy="74.15" r="2" fill="#80c9c6"/><circle id="Ellipse_1627" data-name="Ellipse 1627" cx="326.2" cy="67.15" r="2" fill="#80c9c6"/><circle id="Ellipse_1628" data-name="Ellipse 1628" cx="331.2" cy="59.15" r="2" fill="#80c9c6"/><circle id="Ellipse_1629" data-name="Ellipse 1629" cx="333.2" cy="50.15" r="2" fill="#80c9c6"/><circle id="Ellipse_1630" data-name="Ellipse 1630" cx="333.2" cy="40.15" r="2" fill="#80c9c6"/><circle id="Ellipse_1631" data-name="Ellipse 1631" cx="334.2" cy="31.15" r="2" fill="#80c9c6"/><circle id="Ellipse_1632" data-name="Ellipse 1632" cx="338.2" cy="24.15" r="2" fill="#80c9c6"/><circle id="Ellipse_1633" data-name="Ellipse 1633" cx="346.2" cy="20.15" r="2" fill="#80c9c6"/></g></g><g id="Group_6427" data-name="Group 6427"><path id="Path_11491" data-name="Path 11491" d="M.43,53.66s.2-18.31,19-19,34.67,23.71,56.3,16.18S83.4,28.72,96.5,20.19s17.34-15.72,31.62-3.5S164,0,164,0L5.33.24S.75,1.51.43,4.77.43,53.66.43,53.66Z" fill="#80c9c6"/><g id="Group_6405" data-name="Group 6405"><circle id="Ellipse_1592" data-name="Ellipse 1592" cx="9.2" cy="34.15" r="2" fill="#63aaa7"/><circle id="Ellipse_1593" data-name="Ellipse 1593" cx="18.2" cy="31.15" r="2" fill="#63aaa7"/><circle id="Ellipse_1594" data-name="Ellipse 1594" cx="35.2" cy="36.15" r="2" fill="#63aaa7"/><circle id="Ellipse_1596" data-name="Ellipse 1596" cx="43.2" cy="40.15" r="2" fill="#63aaa7"/><circle id="Ellipse_1597" data-name="Ellipse 1597" cx="50.2" cy="44.15" r="2" fill="#63aaa7"/><circle id="Ellipse_1598" data-name="Ellipse 1598" cx="58.2" cy="48.15" r="2" fill="#63aaa7"/><circle id="Ellipse_1599" data-name="Ellipse 1599" cx="68.2" cy="49.15" r="2" fill="#63aaa7"/><circle id="Ellipse_1600" data-name="Ellipse 1600" cx="77.2" cy="46.15" r="2" fill="#63aaa7"/><circle id="Ellipse_1601" data-name="Ellipse 1601" cx="84.2" cy="40.15" r="2" fill="#63aaa7"/><circle id="Ellipse_1602" data-name="Ellipse 1602" cx="86.2" cy="30.15" r="2" fill="#63aaa7"/><circle id="Ellipse_1603" data-name="Ellipse 1603" cx="90.2" cy="21.15" r="2" fill="#63aaa7"/><circle id="Ellipse_1604" data-name="Ellipse 1604" cx="97.2" cy="16.15" r="2" fill="#63aaa7"/><circle id="Ellipse_1605" data-name="Ellipse 1605" cx="104.2" cy="11.15" r="2" fill="#63aaa7"/><circle id="Ellipse_1606" data-name="Ellipse 1606" cx="114.2" cy="7.15" r="2" fill="#63aaa7"/><circle id="Ellipse_1607" data-name="Ellipse 1607" cx="124.2" cy="11.15" r="2" fill="#63aaa7"/><circle id="Ellipse_1608" data-name="Ellipse 1608" cx="131.2" cy="16.15" r="2" fill="#63aaa7"/><circle id="Ellipse_1609" data-name="Ellipse 1609" cx="140.2" cy="17.15" r="2" fill="#63aaa7"/><circle id="Ellipse_1610" data-name="Ellipse 1610" cx="147.2" cy="12.15" r="2" fill="#63aaa7"/><circle id="Ellipse_1611" data-name="Ellipse 1611" cx="154.2" cy="5.15" r="2" fill="#63aaa7"/><circle id="Ellipse_1595" data-name="Ellipse 1595" cx="27.2" cy="33.15" r="2" fill="#63aaa7"/></g></g></g></g></g></g></g></g></g><g id="Group_6995" data-name="Group 6995"><path id="Path_13508" data-name="Path 13508" d="M1,76.63s10.25-37,31.12-15.43S53.94,87.81,69,78.46s19.62-16.25,47.36-4.82,9.14,37.09,50.05,43.9" fill="none" stroke="#f4ee71" stroke-width="2"/><g id="Group_6994" data-name="Group 6994"><path id="Path_13495-2" data-name="Path 13495-2" d="M22.65,120c-2.78-2.86-5.22-8.67-3.86-12.65a6.12,6.12,0,0,1,1.43-2.51A6.62,6.62,0,0,1,24.7,103h0c0-.12.2-.27.24-.39-2.09-1-3.87-2.78-3.33-5.26C20,95.71,18.78,93.27,19.87,91c-1.43-2.75-1.78-7.43,2.13-8,2.4-.35,3.86,1.7,4.06,3.87a13.06,13.06,0,0,1,.46-2.48c1.08-3.83,4-8,8.16-8.78a6.54,6.54,0,0,1,3,.23,6.67,6.67,0,0,1,3.87,3.25h0c.12,0,.27-.27.39-.27-.2-2.24.46-4.87,2.86-5.61.62-2.24,2.13-4.56,4.64-4.8,1.66-2.63,5.53-5.3,8-2.2,1.51,1.94.46,4.18-1.31,5.46a15.09,15.09,0,0,1,2.36-.85c3.86-1,8.9-.5,11.72,2.66a6.14,6.14,0,0,1,1.39,2.63A6.61,6.61,0,0,1,70.81,81h0a2.61,2.61,0,0,0,.31.27c1.86-1.32,4.37-2,6.23-.31,2.25-.54,5-.43,6.42,1.66,3.1.12,7.35,2.17,5.88,5.8-.89,2.28-3.4,2.48-5.37,1.59a13.58,13.58,0,0,1,1.93,1.62c2.78,2.87,4.91,7.47,3.56,11.49a6.28,6.28,0,0,1-1.63,2.52,7.15,7.15,0,0,1-4.68,1.81h0a1,1,0,0,1,0,.39c2.09,1,4,2.79,3.4,5.26,1.63,1.67,3.74,6.89,3.74,6.89-3.93.07-7.23,0-10.27,0-6,0-9.21,0-9.21,0Zm4-16.67c0,.19,1.12.46,1.58.81a5.23,5.23,0,0,1,2,4.56,5.37,5.37,0,0,1-2.33,4.3c-.27.23-.46.39-.42.46A7.84,7.84,0,0,0,33.72,116c.5-.08,1.47-.16.92-.74a9.68,9.68,0,0,1-2.4-5.34c-.27-2.43.2-4,1.13-4.91a6.74,6.74,0,0,0-2.56-3.21c-1.35-.74-3.79.15-4.17,1.39a.25.25,0,0,1,0,.12Zm8.47,1h.15a.72.72,0,0,1-.19-.11Zm5.34,1.36A14.28,14.28,0,0,0,47,107a21.89,21.89,0,0,1-2.09-1.35,13.43,13.43,0,0,1-5-6.46,7.23,7.23,0,0,1,.62-6.35A1,1,0,0,1,42.07,94a5.44,5.44,0,0,0-.35,4.64,11.18,11.18,0,0,0,4.33,5.49A19.51,19.51,0,0,0,49.11,106a.9.9,0,0,1,.5.58,12.59,12.59,0,0,0,2.82-1.28c-6.42-3.56-7-8.86-7.42-12.69-.35-3.32-1.32-5.06-4.72-2.55a7.62,7.62,0,0,0-2.71,3.64,2,2,0,0,1-3.21,1.39,4.29,4.29,0,0,1-1.24-1.16,9.79,9.79,0,0,1-1.24-8.36c.58-2,1.59-1.66,3.1-1.12a4,4,0,0,0,3.4,0,3.35,3.35,0,0,0,2-2.47,4.37,4.37,0,0,0-3.21-4.49,4.76,4.76,0,0,0-2.09-.08c-3.44.7-5.84,4.33-6.69,7.47a15.42,15.42,0,0,0,1.86,11.56,19.07,19.07,0,0,0,9.67,8,.87.87,0,0,1,.6,1.08.24.24,0,0,1,0,.08Zm12.8-2.05c-.12-7.35,4.21-10.48,7.27-12.77,2.71-2,3.71-3.63-.12-5.37a7.32,7.32,0,0,0-4.52-.5,2.05,2.05,0,0,1-2.68-1.08,2.19,2.19,0,0,1-.15-1,4.79,4.79,0,0,1,.39-1.67A9.61,9.61,0,0,1,60.13,76c2-.5,2.2.54,2.52,2.13a4,4,0,0,0,1.7,2.94,3.26,3.26,0,0,0,3.13.46,4.34,4.34,0,0,0,2-5.8,4.67,4.67,0,0,0-.71-1c-2.33-2.63-6.66-2.9-9.83-2.09A15.5,15.5,0,0,0,49.84,80a19.14,19.14,0,0,0-2.13,12.41A.91.91,0,0,1,47,93.43h0A13.89,13.89,0,0,0,49,99.77a22.57,22.57,0,0,1,.11-2.47,13.6,13.6,0,0,1,3.1-7.59c1.43-1.58,3.63-2.9,5.84-2.63a1,1,0,0,1-.19,1.9h0c-1.59-.19-3.21.93-4.22,2A11.72,11.72,0,0,0,51,97.49a22.31,22.31,0,0,0-.08,3.56,1.09,1.09,0,0,1-.23.74,17.43,17.43,0,0,0,2.56,1.81ZM45.63,88.28v-.23l-.12.11ZM44,87a6.07,6.07,0,0,0,1.55-3.71c0-1.55-2-3.29-3.25-2.82,0,0,0,0,0,0h0a4.23,4.23,0,0,1,0,1.7,5.08,5.08,0,0,1-3,3.91,5.57,5.57,0,0,1-4.91.12c-.35-.12-.58-.23-.62-.12a7.8,7.8,0,0,0,.93,6.69c.27.39.85,1.2,1.08.43a9.65,9.65,0,0,1,3.4-4.72c2-1.47,3.56-1.9,4.8-1.51ZM26.05,88.7c0,.39-.15.82-.23,1.24a4.42,4.42,0,0,1,.39.47,8.89,8.89,0,0,1-.16-1.7Zm1.24,6v.39a.71.71,0,0,1,.23.19ZM29.61,99a5.28,5.28,0,0,1,.16.66h.34c-.15-.19-.3-.42-.5-.66Zm-1.7,1c-.31-1.39-1.62-4.95-3.63-3.33-2.4,1.94,1,3.56,1.93,4.41a5.52,5.52,0,0,1,1.7-1.08Zm-2.55-5.61c0-1.28-.66-4.45-2.75-3.56s-1,3.45,0,4.72a3.65,3.65,0,0,1,2.71-1.16Zm-1.28-5.49c.23-1.24.27-4.33-1.78-4s-1.58,3.21-1,4.56A3.36,3.36,0,0,1,24.08,88.86Zm31.14,14.66c6.31-3.79,11.18-1.63,14.7-.08,3.1,1.36,5,1.4,4.57-2.78a7.4,7.4,0,0,0-1.82-4.14,2,2,0,0,1-.39-2.86,2,2,0,0,1,.78-.62,5.44,5.44,0,0,1,1.62-.5,9.63,9.63,0,0,1,7.85,3.09c1.43,1.51.62,2.2-.58,3.25a3.92,3.92,0,0,0-1.7,2.94,3.47,3.47,0,0,0,1.16,3,4.51,4.51,0,0,0,5.5-.54A4.33,4.33,0,0,0,88,102.52c1.12-3.33-.85-7.24-3.13-9.56a15.43,15.43,0,0,0-11-4.18,19.19,19.19,0,0,0-11.84,4.34.9.9,0,0,1-1.27-.07h0A14.79,14.79,0,0,0,56.31,98c.77-.43,1.51-.81,2.2-1.12a13.09,13.09,0,0,1,8.08-1.08,7.25,7.25,0,0,1,5.23,3.71,1,1,0,0,1-1.74.77c-.62-1.43-2.4-2.32-3.87-2.63a11.65,11.65,0,0,0-7,1,21.59,21.59,0,0,0-3.09,1.7.88.88,0,0,1-.74.15,23.44,23.44,0,0,0-.19,3Zm9.44-14.31.23-.12h-.15S64.66,89.17,64.66,89.21Zm.27-2a6.13,6.13,0,0,0,4-.55c1.31-.81,1.81-3.44.81-4.21l0,0a6.22,6.22,0,0,1-1.43.89,5.21,5.21,0,0,1-4.92-.62,5.57,5.57,0,0,1-2.55-4.18c-.08-.38-.11-.62-.19-.62A7.7,7.7,0,0,0,55.26,82c-.19.47-.58,1.36.16,1.12a9.63,9.63,0,0,1,5.8.62c2.24,1,3.44,2.17,3.71,3.45ZM54.49,72.46c-.38.16-.77.3-1.16.42-.08.2-.16.35-.23.54.46-.34.92-.65,1.39-1Zm-4.57,4.1a1.44,1.44,0,0,0-.31.19c0,.12,0,.19,0,.31a3,3,0,0,1,.35-.5ZM47.37,80.7c-.16.16-.32.31-.5.46a1.77,1.77,0,0,1,.15.31,8.23,8.23,0,0,0,.35-.78Zm-1.74-1c1.08-1,3.48-3.87,1.08-4.84-2.9-1.12-2.59,2.6-2.86,3.87a5.07,5.07,0,0,1,1.78,1Zm3.6-5c1.08-.66,3.52-2.83,1.7-4.14s-3.52.81-4.1,2.4a3.3,3.3,0,0,1,2.4,1.74Zm4.14-3.87c1.2-.43,3.9-1.93,2.63-3.56s-3.56.19-4.45,1.39A3.57,3.57,0,0,1,53.37,70.87Zm2.86,34.23c6.42,3.56,7,8.86,7.43,12.69.38,3.33,7.12,0,7.42-1.12a2,2,0,0,1,2.3-1.75,2,2,0,0,1,.92.36,4.25,4.25,0,0,1,1.23,1.16c1.28,1.7,5.23,1.39,2.94-2.56a19.1,19.1,0,0,0-9.67-8,.89.89,0,0,1-.54-1.15h0a14.09,14.09,0,0,0-6.54-1.39,20.7,20.7,0,0,1,2.09,1.35,13.34,13.34,0,0,1,5,6.46c.66,2,.7,4.6-.62,6.38a1,1,0,0,1-1.54-1.12,5.44,5.44,0,0,0,.34-4.64,11.33,11.33,0,0,0-4.33-5.53,20.52,20.52,0,0,0-3-1.82,1,1,0,0,1-.5-.58,16.79,16.79,0,0,0-2.94,1.31Zm17.14,1a.87.87,0,0,1,.23.16l-.08-.16Zm1.9-.77a6.49,6.49,0,0,0,2.47,3.21c1.36.73,3.87-.16,4.06-1.4v-.07a5.87,5.87,0,0,1-1.5-.81,5.22,5.22,0,0,1-1.9-4.57,5.48,5.48,0,0,1,2.36-4.29c.3-.24.5-.43.42-.47A7.84,7.84,0,0,0,75,94.4c-.5.08-1.47.15-.89.73a9.64,9.64,0,0,1,2.4,5.34c.2,2.4-.23,4-1.2,4.88ZM82.81,89c-.31-.23-.62-.5-1-.81a2.8,2.8,0,0,1-.58.08c.5.23,1,.46,1.55.73ZM77,87a1.7,1.7,0,0,1-.35-.19l-.27.11A2.57,2.57,0,0,0,77,87Zm-4.91-.12a3.58,3.58,0,0,1-.66-.19,3.21,3.21,0,0,1-.19.31l.85-.12Zm0-2c1.39.43,5.1,1,4.72-1.47-.5-3.06-3.56-.93-4.8-.5a4.23,4.23,0,0,1,.07,2Zm6.15.62c1.12.58,4.21,1.66,4.45-.58s-2.48-2.63-4.1-2.32a3.52,3.52,0,0,1-.35,2.9Zm5.41,1.62c1,.82,3.64,2.4,4.38.47s-2-3-3.45-3.13A3.33,3.33,0,0,1,83.62,87.19ZM55.38,106.81c.12,7.31-4.56,10.37-7.62,12.65,0,0,13.6.81,13.27-1.39a.88.88,0,0,1,.69-1h.05a14.18,14.18,0,0,0-2.09-6.34c0,.83,0,1.65-.12,2.48-.39,3.44-5.34,7-4.33,5.87A10.23,10.23,0,0,0,57.71,113a21.15,21.15,0,0,0,.07-3.56,1.14,1.14,0,0,1,.23-.73,15.62,15.62,0,0,0-2.63-1.86ZM74,117.6c-.31-.38-.89-1.2-1.08-.42-.39,1.47,2,1.78,1.08.42Zm7.39-1.9v-.38a.9.9,0,0,1-.23-.2A3.69,3.69,0,0,0,81.38,115.7Zm-2.32-4.29c0-.19-.12-.43-.16-.66h-.35c.16.2.31.43.5.66Zm1.7-1c.31,1.4,1.62,5,3.63,3.33,2.4-1.93-1-3.56-1.93-4.41a4.37,4.37,0,0,1-1.7,1.08ZM83.27,116c0,1.28.7,4.45,2.75,3.56s1-3.44,0-4.72A3.5,3.5,0,0,1,83.27,116Zm-29.82-9.12c-6.3,3.75-11.18,1.62-14.7.08-3.09-1.36-5-1.4-4.56,2.78A7.48,7.48,0,0,0,36,113.93a2,2,0,0,1,.39,2.86,2,2,0,0,1-.78.62,5.41,5.41,0,0,1-1.63.5,9.64,9.64,0,0,1-7.85-3.09c-1.43-1.51-.62-2.2.54-3.25a3.91,3.91,0,0,0,1.7-2.94,3.35,3.35,0,0,0-1.16-2.94,4.48,4.48,0,0,0-5.49.54A4.36,4.36,0,0,0,20.65,108c-1.12,3.32.81,7.23,3.09,9.55s18.88,2.9,22.75-.19a.9.9,0,0,1,1.27.11h0a14.73,14.73,0,0,0,4.49-5,19.83,19.83,0,0,1-2.2,1.13A13.25,13.25,0,0,1,42,114.78a7.26,7.26,0,0,1-5.23-3.72,1,1,0,0,1,1.75-.77c.61,1.43,2.4,2.32,3.83,2.63a11.25,11.25,0,0,0,7-1,19.74,19.74,0,0,0,3.13-1.7.92.92,0,0,1,.74-.15,12.54,12.54,0,0,0,.31-3.17Z" fill="#fff"/><g id="Group_6962" data-name="Group 6962"><path id="Path_13385-2" data-name="Path 13385-2" d="M79.28,13.59c-3.1-.12-7.35-2.17-5.88-5.8.89-2.29,3.4-2.48,5.38-1.59a12.6,12.6,0,0,1-1.94-1.63,13.54,13.54,0,0,1-3-4.4L143,.07c1.43,2.74,2,12.51-1.94,13.09-2.43.35-3.86-1.7-4.06-3.87a17.36,17.36,0,0,1-.42,2.48c-1.09,3.83-4,8-8.17,8.82a6.35,6.35,0,0,1-3-.08,6.7,6.7,0,0,1-3.87-3.09h0l-.43.11c.2,2.28-.46,4.8-2.86,5.53-.62,2.25-2.13,4.53-4.64,4.72-1.67,2.63-5.53,5.26-8,2.2-1.51-1.93-.47-4.18,1.31-5.45a16.18,16.18,0,0,1-2.36.85c-3.86,1-8.93.5-11.72-2.67a6,6,0,0,1-1.39-2.63,6.64,6.64,0,0,1,.73-4.91h0c-.11-.08-.19-.2-.3-.27-1.86,1.31-4.38,2-6.23.31-2.28.61-5,.46-6.46-1.63Zm3-13.4c2.05,2.12,4.35,1.8,6,1.6.47-.08,1.47-.16.89-.74a4.74,4.74,0,0,1-.78-.89s-6.12,0-6.09,0ZM117.61.07a24.27,24.27,0,0,1,.55,3.5c.34,3.32,1.31,5.06,4.71,2.55a7.56,7.56,0,0,0,2.71-3.64,2,2,0,0,1,2.3-1.75,2,2,0,0,1,.91.36A4.89,4.89,0,0,1,130,2.25a9.75,9.75,0,0,1,1.24,8.36c-.58,2-1.59,1.66-3.1,1.12a4,4,0,0,0-3.4,0,3.32,3.32,0,0,0-2,2.47A4.39,4.39,0,0,0,126,18.69a4.23,4.23,0,0,0,2.09,0c3.4-.7,5.84-4.33,6.69-7.47a14.18,14.18,0,0,0-1.4-11.2H124a5.07,5.07,0,0,1-1.27,3.19,1,1,0,0,1-1.55-1.12,3.27,3.27,0,0,0,.81-2.07ZM107.9.64a42.65,42.65,0,0,1-5.33,4.71c-2.71,2-3.76,3.63.11,5.33a7.35,7.35,0,0,0,4.53.5,2,2,0,0,1,2.67,1.08,2,2,0,0,1,.15,1,5,5,0,0,1-.38,1.67A9.62,9.62,0,0,1,103,20.16c-2,.5-2.2-.54-2.51-2.13a3.92,3.92,0,0,0-1.7-2.94,3.26,3.26,0,0,0-3.13-.46,4.33,4.33,0,0,0-2,5.8,4.39,4.39,0,0,0,.72,1c2.32,2.63,6.65,2.9,9.82,2.09a15.41,15.41,0,0,0,9.09-7.39,19.14,19.14,0,0,0,2.13-12.41.91.91,0,0,1,.73-1h0A25.88,25.88,0,0,0,115.41,0a76.2,76.2,0,0,1-4.56,6.43C109.42,8,107.21,9.33,105,9.06a1,1,0,1,1,.23-1.9,5.34,5.34,0,0,0,4.21-2c1.28-1.39-.34-6.6-1.55-4.51Zm9.64,7.26v.23l.07-.11S117.57,7.94,117.54,7.9Zm1.62,1.24a6.59,6.59,0,0,0-1.55,3.71c0,1.55,2,3.29,3.25,2.83a0,0,0,0,0,0,0h0a4.23,4.23,0,0,1,0-1.7,5.08,5.08,0,0,1,3-3.91,5.59,5.59,0,0,1,4.92-.12c.34.12.58.24.61.12a7.83,7.83,0,0,0-.92-6.69c-.27-.39-.85-1.2-1.09-.43A9.59,9.59,0,0,1,124,7.63c-2,1.47-3.6,1.9-4.8,1.51Zm18-1.67c0-.38.16-.81.23-1.23L137,5.77c0,.58.08,1.12.12,1.7Zm-1.24-6V1.09c-.07-.08-.15-.12-.23-.2A3.69,3.69,0,0,0,135.87,1.47Zm1.9.31c0,1.28.66,4.45,2.75,3.56s1-3.44,0-4.72a3.56,3.56,0,0,1-2.71,1.16Zm1.28,5.5c-.23,1.23-.27,4.33,1.78,4s1.58-3.21,1-4.53a3.35,3.35,0,0,1-2.78.5ZM90.75.16c.91.92.79,2.17-.64,3a6.09,6.09,0,0,1-1.62.5c-2.13.27-5.61-.85-8.12-3.48H75.91a11,11,0,0,0,2.37,3.13A15.24,15.24,0,0,0,89.22,7.43a19.18,19.18,0,0,0,11.83-4.32.94.94,0,0,1,1.28.07,14.71,14.71,0,0,0,3.44-3.1ZM98.51,7l-.23.12h.15S98.51,7,98.51,7Zm-.27,2a6.13,6.13,0,0,0-4,.55c-1.31.81-1.82,3.44-.81,4.21l0,0a6,6,0,0,1,1.43-.89,5.19,5.19,0,0,1,4.91.62,5.56,5.56,0,0,1,2.56,4.18c.07.35.11.62.19.58a7.7,7.7,0,0,0,5.34-4.14c.19-.47.58-1.36-.16-1.12a9.62,9.62,0,0,1-5.8-.62c-2.28-.93-3.44-2.13-3.71-3.4Zm10.4,14.7c.38-.16.77-.3,1.16-.42.08-.19.16-.35.23-.54a8.38,8.38,0,0,1-1.39,1Zm4.57-4.06c.11-.08.23-.11.35-.19s0-.19,0-.31a2.28,2.28,0,0,1-.38.5Zm2.55-4.14c.16-.16.33-.32.5-.46a1.77,1.77,0,0,0-.15-.31c-.12.23-.24.5-.35.77Zm1.74,1c-1.08,1-3.48,3.87-1.08,4.83,2.9,1.13,2.59-2.59,2.86-3.86a5.82,5.82,0,0,1-1.78-1Zm-3.6,5c-1.08.66-3.52,2.82-1.7,4.14s3.52-.81,4.1-2.4a3.68,3.68,0,0,1-2.4-1.74Zm-4.14,3.87c-1.16.42-3.87,1.93-2.59,3.56s3.56-.2,4.45-1.4a3.65,3.65,0,0,1-1.86-2.16ZM80.36,7.2c.31.23.62.5,1,.81a2.8,2.8,0,0,1,.58-.08C81.37,7.7,80.87,7.43,80.36,7.2Zm5.8,1.9c.12.07.23.11.35.19l.27-.12A3.27,3.27,0,0,1,86.16,9.1ZM91,9.21l.65.2a1.1,1.1,0,0,1,.2-.31,2.76,2.76,0,0,1-.85.11Zm0,2c-1.4-.42-5.11-1-4.72,1.47.5,3.06,3.56.93,4.8.5a4.84,4.84,0,0,1-.08-2ZM85,10.6c-1.12-.58-4.21-1.66-4.44.58s2.47,2.64,4.1,2.33a3.34,3.34,0,0,1,.34-2.9ZM79.55,9c-1-.81-3.64-2.4-4.37-.46s2,3,3.44,3.13A3.2,3.2,0,0,1,79.55,9Z" fill="#fff"/></g></g></g></g></g></g></svg>