<svg xmlns="http://www.w3.org/2000/svg" width="20.592" height="20.597" viewBox="0 0 20.592 20.597">
  <g id="Group_4116" data-name="Group 4116" transform="translate(-836 -3439)">
    <g id="box-closed" transform="translate(840.586 3443.586)">
      <path id="Path_335" data-name="Path 335" d="M14.189,1.751l.006-.016L9.756,0,5.324,1.752,5.31,1.746v.011h0V7.322L9.754,9.064,14.2,7.322V1.746ZM9.752.341,11.258.88l-4.1,1.594-1.39-.548ZM9.6,8.671,7.931,8,7.1,7.686,5.627,7.106V2.213l1.454.573V4.01l.13-.036.088.12.122-.028.118.125.1-.035.166.165V3.073l.129.051L9.6,3.778V8.671ZM9.754,3.5,8.131,2.86l4-1.622,1.651.673Zm4.127,3.606L9.913,8.671V3.778l3.968-1.565V7.106Z" transform="translate(-5.309)" fill="#fff"/>
    </g>
    <g id="Group_4116-2" data-name="Group 4116" transform="translate(836 3439)">
      <g id="magnifying-glass" transform="translate(0 0)">
        <path id="Path_310" data-name="Path 310" d="M20.464,19.546l-5.005-5.005a8.789,8.789,0,1,0-.868.868L19.6,20.414a.621.621,0,0,0,.434.183.6.6,0,0,0,.434-.183A.617.617,0,0,0,20.464,19.546ZM1.279,8.782a7.549,7.549,0,1,1,7.549,7.554A7.557,7.557,0,0,1,1.279,8.782Z" transform="translate(-0.05)" fill="#fff"/>
      </g>
    </g>
  </g>
</svg>
