<svg xmlns="http://www.w3.org/2000/svg" viewBox="0 0 24.69 20.06"><title>use_maps</title><g id="Layer_2" data-name="Layer 2"><g id="Layer_1-2" data-name="Layer 1"><path id="Path_437" data-name="Path 437" d="M20.06,0a3.86,3.86,0,0,0-3.5,5.47l3.5,6.87,3.5-6.87A3.86,3.86,0,0,0,20.06,0Zm0,6.17a2.32,2.32,0,1,1,2.31-2.31h0A2.3,2.3,0,0,1,20.06,6.17Zm1.15,7.3,1.4,2.81-3.56,1.78-1.19-6,.2-.2,0,0-.74-1.45L17,10.8,12.34,7.71,7.72,10.8,4.63,7.72,0,17l6.17,3.09L12.34,17l6.18,3.09L24.69,17l-2.6-5.2ZM5.63,18.06,2.07,16.28l3-6,1.57,1.57.2.2Zm5.94-2.43L7.26,17.79l1.11-5.57.2-.14,3-2Zm1.55,0V10.08l3,2,.2.14,1.11,5.57Z" style="fill:#4281c3"/></g></g></svg>