<svg xmlns="http://www.w3.org/2000/svg" viewBox="0 0 39.52 18.82"><title>van</title><g id="Layer_2" data-name="Layer 2"><g id="Layer_1-2" data-name="Layer 1"><g id="van_angkut" data-name="van angkut"><path id="Path_1479" data-name="Path 1479" d="M2.36,16.25H9.7l.57-.6s.36-4.4-4.21-4.4S1.72,15.8,1.72,15.8Z" style="fill:#3a3a3a"/><path id="Path_1480" data-name="Path 1480" d="M28.28,16.25l7.89-.32.58-.6s.15-4.08-4.45-4.08S28,15.8,28,15.8Z" style="fill:#3a3a3a"/><path id="Path_1481" data-name="Path 1481" d="M39.51,11.55c0-.81-.19-.85-.19-.85s0-1.47-.17-3.3C38.94,4.55,38.51.83,37.6.49,36.11-.08,26.75,0,26.75,0,26,0,15.25,0,13.46.2a6.16,6.16,0,0,0-3.32,1.08.59.59,0,0,0-.57.45.52.52,0,0,0-.47.38,32.18,32.18,0,0,0-3.95,4.3c-.26,0-.81.66-.81.66l-1,.27c-1.15.43-2.17,2.28-2.58,3.1a1.89,1.89,0,0,0-.19.81v.32h0a.21.21,0,0,0-.21.21h0v.36s0,.06-.07.07a.23.23,0,0,0-.23.23v1a.27.27,0,0,0,.26.26.19.19,0,0,1,.19.19v.49a.2.2,0,0,1-.19.19.16.16,0,0,0-.17.16h0v.6c0,1.34,2.31,1.19,2.31,1.19s-.7-4.66,3.77-4.66c3.93,0,3.53,4.59,3.53,4.59H28.56V16s-.17-4.24,3.83-4.24a3.39,3.39,0,0,1,3.55,2.64,12.8,12.8,0,0,0,3.55-.81v-2Z" style="fill:#f1f2f2"/><path id="Path_1482" data-name="Path 1482" d="M35.94,14.42a5.41,5.41,0,0,1,.21,1.6l2.51-.38a.93.93,0,0,0,.83-.94V13.59A13.2,13.2,0,0,1,35.94,14.42Z" style="fill:#f1f2f2"/><path id="Path_1483" data-name="Path 1483" d="M35.83,14.1A9.63,9.63,0,0,1,36.15,16l2.51-.39a.92.92,0,0,0,.83-.93V13.59C39.51,14.1,37.09,14.1,35.83,14.1Z" style="fill:#333332"/><path id="Path_1484" data-name="Path 1484" d="M17.27,7.79v.78L7.4,7.87Z" style="fill:#fff"/><rect id="Rectangle_260" data-name="Rectangle 260" x="18.2" y="7.87" width="8.4" height="0.64" style="fill:#fff"/><path id="Path_1485" data-name="Path 1485" d="M28.56,16.44H9.7v-.36H28.58Z" style="fill:#333332"/><path id="Path_1486" data-name="Path 1486" d="M7.4,7A15.89,15.89,0,0,1,9.72,3.73c1.42-1.54,2.15-1.88,3.36-2,.93-.14,2.87-.17,3.68-.19a.34.34,0,0,1,.34.34v0l-.32,3.23a2.06,2.06,0,0,1-1.89,1.85l-6.77.51H7.66a.24.24,0,0,1-.26-.23V7Z" style="fill:#434343"/><path id="Path_1487" data-name="Path 1487" d="M16.69,2.47,16.39,5a1.71,1.71,0,0,1-1.61,1.51l-5.45.28a.7.7,0,0,1-.73-.68.77.77,0,0,1,.07-.34,9.25,9.25,0,0,1,1.62-2.26c1.36-1.34,1.64-1.38,2.45-1.6a33.22,33.22,0,0,1,3.87-.12.12.12,0,0,1,.13.12s0,0,0,0Z" style="fill:#010101"/><path id="Path_1488" data-name="Path 1488" d="M8.57,5.43V5a.36.36,0,0,1,.11-.25l.17-.17a.41.41,0,0,1,.25-.11h.45a.26.26,0,0,1,.25.26V6.26a.25.25,0,0,1-.25.25H8.8a.25.25,0,0,1-.25-.25V5.94H8.46a.24.24,0,0,1-.23-.24h0a.24.24,0,0,1,.19-.23Z" style="fill:#231f20;stroke:#231f20;stroke-miterlimit:10;stroke-width:0.25px"/><path id="Path_1489" data-name="Path 1489" d="M17.71,15.7H10.23v0a6.38,6.38,0,0,0-.43-2A3.45,3.45,0,0,0,7,11.4H7V7H7A19.9,19.9,0,0,1,8.83,4.19a7.36,7.36,0,0,1,3.82-2.8,44.4,44.4,0,0,1,4.75-.32.29.29,0,0,1,.23.08.31.31,0,0,1,.09.22Zm-7.44,0h7.4V1.37a.24.24,0,0,0-.08-.19.37.37,0,0,0-.19-.09c-.88,0-3.79.15-4.73.32a7.37,7.37,0,0,0-3.8,2.81A22.22,22.22,0,0,0,7,7v4.37a3.33,3.33,0,0,1,1.85.85,4,4,0,0,1,1,1.47,6,6,0,0,1,.42,2Z" style="fill:#cfcfce"/><path id="Path_1490" data-name="Path 1490" d="M.87,11.3v-.07a1.23,1.23,0,0,1,.32-.79l.26-.25a1.84,1.84,0,0,1,1.3-.53h1a.41.41,0,0,1,.41.4.47.47,0,0,1,0,.17L3.76,11a1.17,1.17,0,0,1-1.08.66H1.19A.33.33,0,0,1,.87,11.3Z" style="fill:#fff"/><path id="Path_1491" data-name="Path 1491" d="M3.76,9.64H3.49c-.11.21-.24.42-.34.66-.19.44-.4.87-.62,1.31h.15A1.24,1.24,0,0,0,3.77,11l.36-.72A.41.41,0,0,0,4,9.69.35.35,0,0,0,3.76,9.64Z" style="fill:#f79520"/><path id="Path_1492" data-name="Path 1492" d="M2.85,9.66l0,0a7.22,7.22,0,0,1,1.36-2A11.33,11.33,0,0,1,5.93,7H7V7H5.93a10.74,10.74,0,0,0-1.74.66A7,7,0,0,0,2.85,9.66Z" style="fill:#cfcfce"/><path id="Path_1493" data-name="Path 1493" d="M5.15,6.45l.78.27V7" style="fill:#cfcfce"/><path id="Path_1494" data-name="Path 1494" d="M5,7.32a2.54,2.54,0,0,0-.66-.21V7.06A5.39,5.39,0,0,1,5,7.28Z" style="fill:#cfcfce"/><path id="Path_1495" data-name="Path 1495" d="M10.93,1.75H9.57V1.7h1.34A5.47,5.47,0,0,1,13.23.92C14.55.79,18.39.73,18.44.73v0c-.05,0-3.89,0-5.19.19A5.67,5.67,0,0,0,10.93,1.75Z" style="fill:#cfcfce"/><path id="Path_1496" data-name="Path 1496" d="M16.71,7.62h-.85a.55.55,0,0,0-.55.55h0a.55.55,0,0,0,.55.55h.85a.55.55,0,0,0,.55-.55h0a.54.54,0,0,0-.54-.55Z" style="fill:#5b5f60"/><ellipse id="Ellipse_134" data-name="Ellipse 134" cx="16.31" cy="8.15" rx="0.68" ry="0.45" style="fill:#a8a9ac"/><path id="Path_1497" data-name="Path 1497" d="M16.82,8.28h-1a.1.1,0,0,1-.1-.1h0a.09.09,0,0,1,.09-.11h1a.11.11,0,0,1,.11.1h0A.17.17,0,0,1,16.82,8.28Z" style="fill:#5b5f60"/><path id="Path_1498" data-name="Path 1498" d="M2.4,16.48S.09,16.63.09,15.29v-.57a.16.16,0,0,1,.16-.17h0a.11.11,0,0,0,.12-.06.19.19,0,0,0,.07-.15v-.49a.19.19,0,0,0-.19-.19h0A.26.26,0,0,1,0,13.4v-1a.26.26,0,0,1,.26-.26l0,0s0,0,0,0v-.37a.2.2,0,0,1,.11-.17h2.3a1.08,1.08,0,0,0,.65-.19l.54,1C2,13.68,2.4,16.48,2.4,16.48Z" style="fill:#a8a9ac"/><path id="Path_1499" data-name="Path 1499" d="M2.51,14.53a6.27,6.27,0,0,0-.11,2S.06,16.63.06,15.29v-.57a.18.18,0,0,1,.17-.17h0a.12.12,0,0,0,.13-.06.13.13,0,0,0,.07-.09A13.13,13.13,0,0,0,2.51,14.53Z" style="fill:#333332"/><path id="Path_1500" data-name="Path 1500" d="M2.68,11.62H1.19a.36.36,0,0,1-.34-.32v-.05a1.1,1.1,0,0,1,.34-.78l.26-.26a1.84,1.84,0,0,1,1.3-.53h1a.36.36,0,0,1,.34.19.41.41,0,0,1,0,.4L3.76,11A1.24,1.24,0,0,1,2.68,11.62Zm.06-2a1.77,1.77,0,0,0-1.27.53l-.26.26a1.1,1.1,0,0,0-.32.79v0a.34.34,0,0,0,.32.32H2.7a1.18,1.18,0,0,0,1.06-.66l.37-.73a.4.4,0,0,0-.36-.57h-1Z" style="fill:#cfcfce"/><path id="Path_1501" data-name="Path 1501" d="M9.48,2l1.39,0A18.2,18.2,0,0,0,6.4,6.85L5.93,7l-.68-.28a.22.22,0,0,1-.1-.28.21.21,0,0,1,0-.06c.74-.79,3.25-3.4,3.87-4.19A.49.49,0,0,1,9.48,2Z" style="fill:#434343"/><path id="Path_1502" data-name="Path 1502" d="M9.1,2.13h1.38A16.73,16.73,0,0,0,6.4,6.64L6,6.74l-.78-.31A28.62,28.62,0,0,1,9.1,2.13Z" style="fill:#010101"/><g id="Group_396" data-name="Group 396"><circle id="Ellipse_135" data-name="Ellipse 135" cx="5.98" cy="15.74" r="3.08" style="fill:#232323"/><circle id="Ellipse_136" data-name="Ellipse 136" cx="5.98" cy="15.74" r="2.08" style="fill:#bfbfbf"/><circle id="Ellipse_137" data-name="Ellipse 137" cx="5.98" cy="15.74" r="1.64" style="fill:#e6e7e8"/><g id="Group_394" data-name="Group 394"><path id="Path_1503" data-name="Path 1503" d="M5,16.29A1.89,1.89,0,0,1,4.93,16a.12.12,0,0,0-.1-.09H4.64a.12.12,0,0,0-.12.1.07.07,0,0,0,0,.05,1.93,1.93,0,0,0,.19.47.13.13,0,0,0,.19,0h0l.15-.15A.39.39,0,0,0,5,16.29Z" style="fill:#434856"/><path id="Path_1504" data-name="Path 1504" d="M4.91,15.46A1.12,1.12,0,0,1,5,15.21a.14.14,0,0,0,0-.15l-.15-.15a.11.11,0,0,0-.16,0h0a1.72,1.72,0,0,0-.19.49.12.12,0,0,0,.1.15h.2A.13.13,0,0,0,4.91,15.46Z" style="fill:#434856"/><path id="Path_1505" data-name="Path 1505" d="M6.17,14.36v.19s0,.1.08.1a.72.72,0,0,1,.28.13.12.12,0,0,0,.15,0l.15-.15a.12.12,0,0,0,0-.17l0,0a2.33,2.33,0,0,0-.49-.21C6.25,14.23,6.17,14.29,6.17,14.36Z" style="fill:#434856"/><path id="Path_1506" data-name="Path 1506" d="M5.4,14.78l.28-.12a.15.15,0,0,0,.08-.11v-.19a.11.11,0,0,0-.1-.12h0a1.23,1.23,0,0,0-.48.22.13.13,0,0,0,0,.18h0l.15.15C5.31,14.8,5.36,14.83,5.4,14.78Z" style="fill:#434856"/><path id="Path_1507" data-name="Path 1507" d="M6.51,16.7a1.17,1.17,0,0,1-.26.1.15.15,0,0,0-.08.11v.19a.1.1,0,0,0,.1.11h.05a1.46,1.46,0,0,0,.44-.2.12.12,0,0,0,0-.16l0,0-.14-.15A.28.28,0,0,0,6.51,16.7Z" style="fill:#434856"/><path id="Path_1508" data-name="Path 1508" d="M6.93,15.21a1.12,1.12,0,0,1,.11.25.11.11,0,0,0,.1.09h.2a.11.11,0,0,0,.11-.1.07.07,0,0,0,0,0,1.72,1.72,0,0,0-.19-.49.11.11,0,0,0-.16,0l0,0L6.91,15A.52.52,0,0,0,6.93,15.21Z" style="fill:#434856"/><path id="Path_1509" data-name="Path 1509" d="M5.7,16.8a1.39,1.39,0,0,1-.26-.1.11.11,0,0,0-.14,0l-.15.15a.12.12,0,0,0,0,.17l0,0a1.89,1.89,0,0,0,.44.19.12.12,0,0,0,.15-.08V17A.13.13,0,0,0,5.7,16.8Z" style="fill:#434856"/><path id="Path_1510" data-name="Path 1510" d="M7,16.06a1.12,1.12,0,0,1-.11.25.16.16,0,0,0,0,.15l.15.15a.13.13,0,0,0,.19,0,2,2,0,0,0,.2-.47.13.13,0,0,0-.1-.15H7.18A.12.12,0,0,0,7,16Z" style="fill:#434856"/></g><g id="Group_395" data-name="Group 395"><circle id="Ellipse_138" data-name="Ellipse 138" cx="5.51" cy="15.66" r="0.21" style="fill:#434856"/><circle id="Ellipse_139" data-name="Ellipse 139" cx="5.68" cy="16.17" r="0.21" style="fill:#434856"/><circle id="Ellipse_140" data-name="Ellipse 140" cx="6.27" cy="16.17" r="0.21" style="fill:#434856"/><circle id="Ellipse_141" data-name="Ellipse 141" cx="6.44" cy="15.66" r="0.21" style="fill:#434856"/><circle id="Ellipse_142" data-name="Ellipse 142" cx="5.98" cy="15.32" r="0.21" style="fill:#434856"/></g></g><g id="Group_399" data-name="Group 399"><circle id="Ellipse_143" data-name="Ellipse 143" cx="32.37" cy="15.74" r="3.08" style="fill:#232323"/><circle id="Ellipse_144" data-name="Ellipse 144" cx="32.37" cy="15.74" r="2.08" style="fill:#bfbfbf"/><circle id="Ellipse_145" data-name="Ellipse 145" cx="32.37" cy="15.74" r="1.64" style="fill:#e6e7e8"/><g id="Group_397" data-name="Group 397"><path id="Path_1511" data-name="Path 1511" d="M31.41,16.29A1.12,1.12,0,0,1,31.3,16a.15.15,0,0,0-.1-.09H31a.11.11,0,0,0-.12.1.07.07,0,0,0,0,.05,1.6,1.6,0,0,0,.19.47.13.13,0,0,0,.19,0h0l.15-.15A.14.14,0,0,0,31.41,16.29Z" style="fill:#434856"/><path id="Path_1512" data-name="Path 1512" d="M31.3,15.46a.8.8,0,0,1,.11-.25.16.16,0,0,0,0-.15l-.15-.15a.12.12,0,0,0-.17,0l0,0a1.47,1.47,0,0,0-.19.49.13.13,0,0,0,.09.15h.2a.15.15,0,0,0,.15-.11Z" style="fill:#434856"/><path id="Path_1513" data-name="Path 1513" d="M32.56,14.36v.19s0,.1.08.1a.72.72,0,0,1,.28.13.12.12,0,0,0,.15,0l.15-.15a.12.12,0,0,0,0-.17l0,0a2.06,2.06,0,0,0-.48-.21C32.64,14.23,32.56,14.29,32.56,14.36Z" style="fill:#434856"/><path id="Path_1514" data-name="Path 1514" d="M31.79,14.78l.28-.12a.15.15,0,0,0,.08-.11v-.19a.11.11,0,0,0-.1-.12h0a1.35,1.35,0,0,0-.49.22.14.14,0,0,0,0,.18h0l.15.15C31.69,14.8,31.75,14.83,31.79,14.78Z" style="fill:#434856"/><path id="Path_1515" data-name="Path 1515" d="M32.9,16.7a1.17,1.17,0,0,1-.26.1.13.13,0,0,0-.08.11v.19a.1.1,0,0,0,.1.11h0a1.41,1.41,0,0,0,.45-.2.11.11,0,0,0,0-.16s0,0,0,0L33,16.67A.27.27,0,0,0,32.9,16.7Z" style="fill:#434856"/><path id="Path_1516" data-name="Path 1516" d="M33.32,15.21a1.12,1.12,0,0,1,.11.25.11.11,0,0,0,.1.09h.2a.11.11,0,0,0,.11-.1.07.07,0,0,0,0,0,1.72,1.72,0,0,0-.19-.49.11.11,0,0,0-.16,0l0,0L33.3,15A.52.52,0,0,0,33.32,15.21Z" style="fill:#434856"/><path id="Path_1517" data-name="Path 1517" d="M32.07,16.8a1.17,1.17,0,0,1-.26-.1.12.12,0,0,0-.15,0l-.15.15a.12.12,0,0,0,0,.17l0,0a1.79,1.79,0,0,0,.45.19.12.12,0,0,0,.15-.08v-.23A.09.09,0,0,0,32.07,16.8Z" style="fill:#434856"/><path id="Path_1518" data-name="Path 1518" d="M33.43,16.06a1.12,1.12,0,0,1-.11.25.16.16,0,0,0,0,.15l.15.15a.13.13,0,0,0,.19,0,1.6,1.6,0,0,0,.19-.47.12.12,0,0,0-.09-.15h-.21C33.49,16,33.43,16,33.43,16.06Z" style="fill:#434856"/></g><g id="Group_398" data-name="Group 398"><circle id="Ellipse_146" data-name="Ellipse 146" cx="31.9" cy="15.66" r="0.21" style="fill:#434856"/><circle id="Ellipse_147" data-name="Ellipse 147" cx="32.07" cy="16.17" r="0.21" style="fill:#434856"/><circle id="Ellipse_148" data-name="Ellipse 148" cx="32.66" cy="16.17" r="0.21" style="fill:#434856"/><circle id="Ellipse_149" data-name="Ellipse 149" cx="32.83" cy="15.66" r="0.21" style="fill:#434856"/><circle id="Ellipse_150" data-name="Ellipse 150" cx="32.37" cy="15.32" r="0.21" style="fill:#434856"/></g></g><path id="Path_1519" data-name="Path 1519" d="M37.49,1.13C36,.71,29,.79,28.92.79H18.44V.73H28.9c.06,0,7.06-.09,8.59.34Z" style="fill:#cfcfce"/><path id="Path_1520" data-name="Path 1520" d="M26.07,15.7H17.69v-.07h8.4a1,1,0,0,0,1.05-1V1.36a.25.25,0,0,0-.24-.25H18.16a.63.63,0,0,0-.38.11.19.19,0,0,0-.07.12h-.06a.27.27,0,0,1,.06-.17.74.74,0,0,1,.43-.12h8.72a.29.29,0,0,1,.3.28V14.57a1.08,1.08,0,0,1-1,1.13Z" style="fill:#cfcfce"/><path id="Path_1521" data-name="Path 1521" d="M25.75,6.84H18.88a.61.61,0,0,1-.61-.62V2.15a.61.61,0,0,1,.61-.61h6.89a.61.61,0,0,1,.62.61V6.21A.65.65,0,0,1,25.75,6.84ZM18.88,1.6a.56.56,0,0,0-.55.55V6.21a.57.57,0,0,0,.55.56h6.89a.57.57,0,0,0,.56-.56V2.15a.56.56,0,0,0-.56-.55Z" style="fill:#cfcfce"/><path id="Path_1522" data-name="Path 1522" d="M25.37,6.43h-6.1a.62.62,0,0,1-.62-.62V2.56a.62.62,0,0,1,.62-.62h6.1a.62.62,0,0,1,.62.62V5.83a.62.62,0,0,1-.61.6ZM19.27,2a.56.56,0,0,0-.55.56V5.83a.55.55,0,0,0,.55.55h6.1a.55.55,0,0,0,.55-.55V2.56A.56.56,0,0,0,25.37,2Z" style="fill:#cfcfce"/><path id="Path_1523" data-name="Path 1523" d="M35.49,6.43h-6.1a.61.61,0,0,1-.61-.62h0V2.56a.61.61,0,0,1,.61-.62h6.1a.62.62,0,0,1,.62.62h0V5.83a.6.6,0,0,1-.61.6ZM29.39,2a.56.56,0,0,0-.55.56V5.83a.55.55,0,0,0,.55.55h6.1a.56.56,0,0,0,.56-.55V2.56A.57.57,0,0,0,35.49,2Z" style="fill:#cfcfce"/><path id="Path_1524" data-name="Path 1524" d="M19.25,9.13h-.47a.29.29,0,0,1-.28-.28v-1a.28.28,0,0,1,.28-.27h.47a.27.27,0,0,1,.27.27v1a.27.27,0,0,1-.26.28Z" style="fill:#5b5f60"/><path id="Path_1525" data-name="Path 1525" d="M19.1,9.08H19a.15.15,0,0,1-.15-.14h0V7.83a.15.15,0,0,1,.14-.15h.16a.15.15,0,0,1,.15.14h0V8.94a.19.19,0,0,1-.15.14Z" style="fill:#a8a9ac"/><rect id="Rectangle_261" data-name="Rectangle 261" x="27.16" y="7.79" width="9.12" height="0.36" style="fill:#a8a9ac"/><path id="Path_1526" data-name="Path 1526" d="M36.92,8.25h-.64a.19.19,0,0,1-.21-.18V7.89a.19.19,0,0,1,.18-.21h.67a.2.2,0,0,1,.21.19V8a.19.19,0,0,1-.19.21Z" style="fill:#434343"/><path id="Path_1527" data-name="Path 1527" d="M36.17,6.81h-9V6.75h9a.36.36,0,0,0,.26-.11,1.22,1.22,0,0,0,.15-.7s-.11-2.74-.13-3.47-.53-.76-.55-.76c-1.13-.17-8.66-.07-8.74-.07V1.58c.08,0,7.61-.11,8.74.06a.79.79,0,0,1,.6.81c0,.72.12,3.44.12,3.47a1.13,1.13,0,0,1-.17.74.28.28,0,0,1-.28.15Z" style="fill:#cfcfce"/><path id="Path_1528" data-name="Path 1528" d="M39.51,11.55v.28h-1c0-.94-.21-4.45-.21-4.45h.83c0,.68.08,1.32.11,1.83,0,.9.06,1.47.06,1.47a.05.05,0,0,1,0,0A1.56,1.56,0,0,1,39.51,11.55Z" style="fill:#ce2027"/><path id="Path_1529" data-name="Path 1529" d="M39.36,10.72H38.6s-.05-.78-.09-1.49h.77c0,.9.06,1.47.06,1.47Z" style="fill:#fbab19"/><path id="Path_1530" data-name="Path 1530" d="M38.62,15.63h-.06c0-.06,0-5.59-.39-9.74A24.24,24.24,0,0,0,37.26.41l0,0a23.87,23.87,0,0,1,.92,5.5C38.62,10,38.62,15.57,38.62,15.63Z" style="fill:#cfcfce"/></g></g></g></svg>