<svg xmlns="http://www.w3.org/2000/svg" viewBox="0 0 166.52 107.1"><title>waiting pay</title><g id="Layer_2" data-name="Layer 2"><g id="Layer_1-2" data-name="Layer 1"><g id="Group_2371" data-name="Group 2371"><g id="Group_2228" data-name="Group 2228"><g id="Group_1954" data-name="Group 1954"><path id="Path_1298" data-name="Path 1298" d="M73.15,1.24c45,0,93.37,22,93.37,51.86,0,17.3-21.92,13.06-41.26,23.07-13.57,7-21.34,30.93-40.24,30.93-45,0-81.5-24.18-81.5-54S28.14,1.24,73.15,1.24Z" style="fill:#e9f5fc"/><g id="Group_1952" data-name="Group 1952"><g id="Ellipse_132" data-name="Ellipse 132"><circle cx="130.02" cy="75.6" r="6.5" style="fill:none"/><circle cx="130.02" cy="75.6" r="5.5" style="fill:none;stroke:#4281c3;stroke-width:2px"/></g><g id="Polygon_13" data-name="Polygon 13"><path d="M152,17.1l7.5,13h-15Z" style="fill:none"/><path d="M152,21.1l-4,7h8.07l-4-7m0-4,7.5,13h-15Z" style="fill:#f68720"/></g><g id="Rectangle_487" data-name="Rectangle 487"><rect x="16.52" y="11.1" width="13" height="13" style="fill:none"/><rect x="17.52" y="12.1" width="11" height="11" style="fill:none;stroke:#2fb55d;stroke-width:2px"/></g><g id="Group_1899" data-name="Group 1899"><path id="Path_1288" data-name="Path 1288" d="M43.53,92.37l-8.36-5.43" style="fill:none;stroke:#ed1e24;stroke-linecap:round;stroke-miterlimit:4.0018915443327465;stroke-width:2.0009457721663733px"/><path id="Path_1289" data-name="Path 1289" d="M42.06,85.48l-5.43,8.36" style="fill:none;stroke:#ed1e24;stroke-linecap:round;stroke-miterlimit:4.0018915443327465;stroke-width:2.0009457721663733px"/></g></g></g></g><g id="Group_2370" data-name="Group 2370"><g id="Group_2367" data-name="Group 2367"><g id="Group_2360" data-name="Group 2360"><g id="Group_2358" data-name="Group 2358"><path id="path68" d="M122.81,36.53a1.69,1.69,0,0,1-.86,2.24h0l-70.09,31a1.69,1.69,0,0,1-2.24-.87h0L33.92,33.35a1.7,1.7,0,0,1,.86-2.25h0L104.89.15a1.69,1.69,0,0,1,2.24.86h0l15.68,35.51" style="fill:#58bdeb"/><path id="path70" d="M46,30.14,42.32,40.43,50,57.88l10.07,4.24,52.13-23,4-10.18-7.53-17L98.1,7.12,46,30.14" style="fill:#99dbf8"/></g><path id="path58" d="M105.29,5.91a3.46,3.46,0,1,1-4.89.34,3.47,3.47,0,0,1,4.89-.34" style="fill:#58bdeb"/><path id="path58-2" d="M117.17,31.47a3.46,3.46,0,1,1-4.88.34,3.48,3.48,0,0,1,4.88-.34" style="fill:#58bdeb"/><path id="path58-3" d="M45.6,32.8a3.46,3.46,0,1,1-4.89.34,3.47,3.47,0,0,1,4.89-.34" style="fill:#58bdeb"/><path id="path58-4" d="M57.22,58.92a3.46,3.46,0,1,1-4.89.34,3.45,3.45,0,0,1,4.89-.34" style="fill:#58bdeb"/></g><g id="Component_7_953" data-name="Component 7 953"><g id="Rp" style="isolation:isolate"><text transform="translate(74.64 40.17) rotate(-25)" style="isolation:isolate;font-size:14px;fill:#fff;font-family:Roboto-Bold, Roboto;font-weight:700">Rp</text></g></g></g><g id="Group_2368" data-name="Group 2368"><g id="Group_2359" data-name="Group 2359"><g id="Group_2358-2" data-name="Group 2358-2"><path id="path68-2" d="M119.86,83.25A1.7,1.7,0,0,1,118,84.73h0l-76-9.56a1.7,1.7,0,0,1-1.47-1.9h0l4.84-38.52a1.7,1.7,0,0,1,1.89-1.48h0l76,9.57a1.69,1.69,0,0,1,1.48,1.89h0l-4.85,38.51" style="fill:#58bdeb"/><path id="path70-2" d="M57.29,38.2l-8.43,6.95L46.48,64.07l6.44,8.82L109.46,80l8.62-6.69,2.32-18.48-6.57-9.52L57.29,38.2" style="fill:#99dbf8"/></g><path id="path58-5" d="M120.61,48a3.46,3.46,0,1,1-4.36-2.23A3.45,3.45,0,0,1,120.61,48" style="fill:#58bdeb"/><path id="path58-6" d="M117.63,76a3.46,3.46,0,1,1-4.36-2.23A3.46,3.46,0,0,1,117.63,76" style="fill:#58bdeb"/><path id="path58-7" d="M55.6,40.3a3.46,3.46,0,1,1-4.36-2.23A3.46,3.46,0,0,1,55.6,40.3" style="fill:#58bdeb"/><path id="path58-8" d="M52.11,68.67a3.46,3.46,0,1,1-4.36-2.23,3.46,3.46,0,0,1,4.36,2.23" style="fill:#58bdeb"/></g><g id="Component_7_954" data-name="Component 7 954"><g id="Rp-2" style="isolation:isolate"><text transform="translate(75.91 61.02) rotate(7)" style="isolation:isolate;font-size:14px;fill:#fff;font-family:Roboto-Bold, Roboto;font-weight:700">Rp</text></g></g></g><g id="Group_2369" data-name="Group 2369"><path id="Path_3492" data-name="Path 3492" d="M42.93,33.62c2.33-.21,2,5.24,4.17,5.79C55,41.48,62.37,42,63.13,50.58a19.9,19.9,0,0,1-39.65,3.47C22.52,43.1,32,34.57,42.93,33.62Z" style="fill:#fdcd9b"/><g id="Group_2357" data-name="Group 2357"><path id="path90" d="M25.61,38.3,8.92,39.76l2.37,33.13s9.3-1,17.19-1.68,4.44-33.55-2.87-32.91" style="fill:#f8f4f4"/><path id="path92" d="M19.67,36.68S27.86,66.5,23.77,74L3.1,74.94,0,39.42l19.67-2.74" style="fill:#35c3df"/><path id="path100" d="M1.77,57.26.21,39.39l19.46-2.72s.21.77.55,2.1C21,42,22.61,48.48,23.71,55.13L1.77,57.25" style="fill:#35c3df"/></g></g></g></g></g></g></svg>