<svg id="Layer_1" data-name="Layer 1" xmlns="http://www.w3.org/2000/svg" xmlns:xlink="http://www.w3.org/1999/xlink" viewBox="0 0 65.44 72.08"><defs><linearGradient id="linear-gradient" x1="-257.98" y1="436.65" x2="-258.98" y2="436.64" gradientTransform="matrix(65.44, 0, 0, -72.08, 16957.9, 31514.96)" gradientUnits="userSpaceOnUse"><stop offset="0" stop-color="#00a651"/><stop offset="1" stop-color="#54b948"/></linearGradient></defs><title>egg_1</title><path id="Subtraction_45-2" data-name="Subtraction 45-2" d="M37.65,78.08a34.4,34.4,0,0,1-22.32-7.89A35.78,35.78,0,0,1,9,63.34V6H64.27A64.77,64.77,0,0,1,74,32.23,51.48,51.48,0,0,1,73.28,50,37.13,37.13,0,0,1,67,63.84a33.39,33.39,0,0,1-10.65,9.45,37.28,37.28,0,0,1-13.85,4.48h-.07A40.77,40.77,0,0,1,37.65,78.08Z" transform="translate(-9 -6)" style="fill:url(#linear-gradient)"/></svg>