<svg id="Layer_1" data-name="Layer 1" xmlns="http://www.w3.org/2000/svg" xmlns:xlink="http://www.w3.org/1999/xlink" viewBox="0 0 213.52 232.44"><defs><linearGradient id="linear-gradient" x1="-191.77" y1="520.34" x2="-192.77" y2="520.34" gradientTransform="matrix(157.16, 0, 0, -232.44, 30305.01, 121071.25)" gradientUnits="userSpaceOnUse"><stop offset="0" stop-color="#00a651"/><stop offset="1" stop-color="#54b948"/></linearGradient></defs><title>egg_3</title><g id="Group_3407" data-name="Group 3407"><g id="Sierad_Logo_gram" data-name="Sierad Logo gram" style="opacity:0.30000001192092896"><path id="Path_3748" data-name="Path 3748" d="M95.33,137.3c-1.34-.59-1.49-.5-1.54,1a2.77,2.77,0,0,1-.47,1.55c-1,.95-2.29.42-3.43.56-.44.05-1-.31-1.24.5l0,0c-.13.06-.45-.08-.22.31a1.65,1.65,0,0,1-1.77,1.1A58.68,58.68,0,0,1,64.1,138.7c-8.71-3.37-16.17-8.67-21-17.83-2-3.76-2.83-8-3.47-12.23a8.07,8.07,0,0,1-.28-2.19c0-.28,0-.56-.22-.75l0-.06,0-.08c0-.37.13-.76-.3-1l0,0c.22-1.4-.55-3.23,1.29-4,.17-.7-.37-.87-.69-1.18-1.24-1.29-1.27-2.47.1-3.67a6.37,6.37,0,0,0,1.71-3.12c.32-1.09.07-1.76-1-2-.4-.08-1,0-1.11-.64s.47-.65.77-.9.62-.73.3-1.29c0-.09,0-.17-.1-.25-1.74-3-1.42-6-.23-9.2,1.29-3.45,2.16-7.13,4-10.27A11.75,11.75,0,0,1,51,62.64c.89-.25,1.66.5,2,1.55.07.14.15.25.22.39h0c0,.22.05.45.3.56l0,0c.07.11.12.23.2.34a.12.12,0,0,1,0,.16h0c.07.14.12.25.2.39a.21.21,0,0,1,0,.2c.07.11.12.22.2.36a2.87,2.87,0,0,0,0,.31c.07.84-.2,1.8.47,2.5v.56a22.76,22.76,0,0,0,0,7,29.63,29.63,0,0,1-.45,4.2c-.4.37-.24.84-.24,1.29,0,2.13,0,4.24,0,6.37,0,.45-.13.92.24,1.29.33,2.52.57,5.07,1,7.57C57.76,111.42,64,122,75.47,128.18c2,1.07,4.07,1.83,6.1,2.7,1.36.59,2.83.7,4.22,1.15,3.15,1,6.44.9,9.67,1.4-.32.14-.7-.14-1,.28h7.71l.45-.09c0-.05-.08-.11-.13-.17s-.07,0-.12,0a2.05,2.05,0,0,1,1.21-.26c3.38.06,6.62-1,9.92-1.57a43,43,0,0,0,8.61-2.52,104.27,104.27,0,0,0,21-11.3c12.08-8.41,22.74-18.79,32.56-30.28,15.06-17.67,27.63-37.44,38.84-58.33,1.46-2.72,2.53-5.72,3.8-8.61a1.77,1.77,0,0,1,2.18-1.24,1.94,1.94,0,0,1,.42.17,1.27,1.27,0,0,0,.72.12c.67,0,.79.47.89,1a.73.73,0,0,1-.49.9.71.71,0,0,1-.21,0c-.94,0-1.06.73-1.31,1.48A135.28,135.28,0,0,1,214.1,38.4a3,3,0,0,0-.5,2c.35,1.26-.6,2-.82,3.11-.07.34-.42.23-.64.2a1,1,0,0,0-1.07.5A7.59,7.59,0,0,0,211,48.1,6.54,6.54,0,0,0,209.76,52c.1,1.07.2,1.57,1.21,1.15a2.36,2.36,0,0,1,.65,0,26.2,26.2,0,0,0-1.84,6.48c-.05.31-.37.59-.6.87Q197.09,75,184.58,89a2.68,2.68,0,0,0-.84,2.3c.13.87-.2,1.23-.94,1.09-1.51-.33-2.18,1.07-3.05,2-.37.36-.18.78.37.75s.47.37.47.73c0,.56-.32.65-.64.56-1.86-.47-3,.82-4.15,2.08-1.68,1.79-3.44,3.51-5.28,5.13a2.11,2.11,0,0,1-1.76.73c-1.34-.25-2.16.62-2.88,1.63a17.13,17.13,0,0,1-3.57,3.84,3.35,3.35,0,0,0-.94,1.74c-.67,1.82-1.81,2.63-3.5,2.21-.75-.2-1-.17-.84.76a1.48,1.48,0,0,1-.72,1.35,7.66,7.66,0,0,0-1.39,1.15,1.57,1.57,0,0,1-2.09.5c-.94-.45-1.88-.54-2.25,1.15-.32,1.4-.8,2.74-2.43,3.11a4.22,4.22,0,0,1-2.24-.39c-.62-.2-1.09-.26-1.26.61a5.17,5.17,0,0,1-2.53,3.23c-2.85,1.9-5.63,4-8.9,4.93a27.5,27.5,0,0,1-4.76.79,10.43,10.43,0,0,0-4,1.76c-.25.14-.52.28-.77.43-1.51,0-3,0-4.54,0-1,0-1.73,0-1.69,1.46,0,.56-.52.5-.74.78-.77.11-1.83-.36-1.79,1.29,0,.48-.47.39-.79.39-1.19,0-2.38.09-3.57,0-1-.09-1.79,0-1.76,1.54-1.79-1.85-3-2-5-.62-.62.42-1.24.76-1.22-.59,0-.5-.24-.64-.62-.64a10.29,10.29,0,0,1-1.36,0c-.72-.09-1,.2-1.09,1,0,.47.07,1.4-.87,1-.35-.45-.82-.25-1.24-.28-.67-.06-1.36.14-2-.28v-.53c.12-.09.24-.17.17-.37A.43.43,0,0,0,95.33,137.3Z" transform="translate(-9 -6)" style="fill:#cd1143"/><path id="Path_3749" data-name="Path 3749" d="M93.61,90.57c1.6-1,3.25-2,4.81-3.16.7-.52.79-1.54,1.3-2.27.3-.4.49-.62,1-.6a1.48,1.48,0,0,0,1.69-1,.54.54,0,0,1,.21-.24,14.1,14.1,0,0,1,3.59-1.43A35,35,0,0,0,111,80.82a11,11,0,0,1,2.22-.08.39.39,0,0,1,.41.38v0c0,.34-.22.4-.47.4a9.55,9.55,0,0,1-1.07,0c-.58,0-1.07,0-1.18.73-.06.51-.42.57-.85.55a12.82,12.82,0,0,1-1.39,0,2.28,2.28,0,0,0-2.56,1.41,3.7,3.7,0,0,1-3.27,2c-.24,0-.62-.09-.69.13-.36,1.07-1.21.83-2,.9a1.32,1.32,0,0,0-1.27,1.36s0,0,0,.07c0,.81,0,1.62,0,2.46,0,.47-.11.83-.7.83s-.73-.28-.75-.79.3-1.24-.22-1.48-1,.41-1.55.7a3.25,3.25,0,0,0-1.5,2.42c-.41,1.92-1.59,3.54-2.29,5.36a19.11,19.11,0,0,0-1.71,7.69,5.65,5.65,0,0,0,4.06,5.58,23.34,23.34,0,0,0,10.21.74A37.88,37.88,0,0,0,118.26,108a39.76,39.76,0,0,0,13.38-10.74,36.1,36.1,0,0,0,5.51-8.91c1.34-3.46,1.13-7.13-1.65-9.72a13.06,13.06,0,0,0-6.92-3.25,20.78,20.78,0,0,0-2.22-.19c-.41,0-.79,0-.77-.6s.26-.7.73-.64a2.24,2.24,0,0,0,1.41-.53,4.26,4.26,0,0,1,3.61-.15c3.48,1.32,6.79,3,9.12,6.13a16.23,16.23,0,0,1,3.46,10.79,5.73,5.73,0,0,1-1.28,3.43,6.55,6.55,0,0,0-1.46,5.32,2.06,2.06,0,0,1-.81,2,14.69,14.69,0,0,1-3,2c-.21.09-.42.17-.47.39-.3,1.75-1.83,2.33-3,3.25-.19.15-.47.21-.58.44a2.94,2.94,0,0,1-1.17,1.2,2.72,2.72,0,0,1-1.63.86c-.23,0-.21-.22-.14-.41.25-.72.17-1.6,1.11-2a11.49,11.49,0,0,0,3.29-2.09,1.82,1.82,0,0,0,.64-.92c.24-.76.56-1.47,1.54-1.47a.89.89,0,0,0,.79-.49c.38-1.13,1.56-1.67,1.94-2.78.15-.4.32-.92,0-1.17a1.17,1.17,0,0,0-1.39.08,1.43,1.43,0,0,0-.53.64c-.34,1.3-1.71,1.84-2.22,3-.13.3-.49.36-.79.47a2,2,0,0,0-1.46,1.11.84.84,0,0,1-.79.6.75.75,0,0,0-.77.62.51.51,0,0,1-.6.34,3.29,3.29,0,0,0-3.22,1.71,2.38,2.38,0,0,1-1.67.87c-.55.07-.87.28-1,.79-.11.73-.55.94-1.22.88a1.43,1.43,0,0,0-1.64.88c-.3.64-.94.51-1.41.51a6.21,6.21,0,0,0-3.16.73,1.47,1.47,0,0,1-.6.23,6.72,6.72,0,0,0-4.3,2,1.77,1.77,0,0,1-1.41.3,18.08,18.08,0,0,0-6.2.75,25.68,25.68,0,0,1-11.23.68C88.48,114,85,109.11,84,104a28.88,28.88,0,0,1-.21-5.09c0-.3-.11-.68.38-.72s.77-.11.85.38.5.54.9.47.39-.51.41-.85c0-.7,0-1.41,0-2.14,0-1.38.83-2.54,2.73-3,.54.43,0,.88,0,1.3,0,1.75-1.52,3-1.44,4.79,0,.21-.19.47-.36.62a3.37,3.37,0,0,0-1,2.5c-.11.81.36,1.09,1,1.17a.91.91,0,0,0,1.11-.69,1,1,0,0,0,0-.25,1.93,1.93,0,0,1,.38-1.2,7.91,7.91,0,0,0,1-2.41c.79-1.88.7-4,1.79-5.79a1.44,1.44,0,0,0,.6-.9l0,0,.13-.15a2.26,2.26,0,0,1,.11-.22.72.72,0,0,0,.4-.45l0,0a.66.66,0,0,0,.41-.42A.42.42,0,0,0,93.61,90.57Z" transform="translate(-9 -6)" style="fill:#f8bf5c"/><path id="Path_3751" data-name="Path 3751" d="M90.9,87.27c-.15.09-.3.2-.45.28l-.19.15c-.22.15-.43.3-.64.47a.64.64,0,0,0-.41.41c-.83.7-1.82,1.3-2.07,2.52a.55.55,0,0,1-.52.47c0-.43.5-.88,0-1.3.49-.88,1.52-1.35,1.82-2.39.13-.41.58-.6,1-.75a1.39,1.39,0,0,0,.84-.62c.12-.23.17-.68.66-.45s.49.64.21,1Z" transform="translate(-9 -6)" style="fill:#efc571"/><path id="Path_3752" data-name="Path 3752" d="M216.18,46.57c.28,1.2-.94,1.5-1.11,2.37-.06.28-.74.41-.87.08a1.14,1.14,0,0,1,.15-1.43,1.33,1.33,0,0,0,.64-1c.08-.43-.09-1.18.79-1.09S215.93,46.4,216.18,46.57Z" transform="translate(-9 -6)" style="fill:#c21948"/><path id="Path_3753" data-name="Path 3753" d="M167.46,109.06a2.35,2.35,0,0,0-1.9,1c-.3.49-1,1.2-1.85.54a3.67,3.67,0,0,1,1.88-1.88Z" transform="translate(-9 -6)" style="fill:#b41d49"/><path id="Path_3754" data-name="Path 3754" d="M167.64,108.49c-.62-.1-1.24-.23-1.86-.34.49-.45.73-1.09,1.3-1.5.36-.26.45-.3.66,0s.3.56.45.83C168.54,108.13,168.26,108.41,167.64,108.49Z" transform="translate(-9 -6)" style="fill:#c21948"/><path id="Path_3755" data-name="Path 3755" d="M219.39,34.16c0,.77,0,1.56,0,2.33,0,.36-.15.49-.49.49s-.41-.19-.39-.47a4.43,4.43,0,0,0,0-1.15c-.17-.77.26-1,.9-1.16Z" transform="translate(-9 -6)" style="fill:#b81646"/><path id="Path_3756" data-name="Path 3756" d="M119.38,116.55c.09.84-.12,1.14-.68,1.11-.38,0-.73,0-.7-.53s.55-.79,1-.9S119.38,116.57,119.38,116.55Z" transform="translate(-9 -6)" style="fill:#ecc267"/><path id="Path_3757" data-name="Path 3757" d="M117.08,137c.22-.22.67-.18.64-.6,0-1.07.62-1.16,1.46-1.11,1.3,0,2.6,0,3.91,0-1.26.42-2.57.12-3.85.15-.79,0-1.3.12-1.28,1C118,137.22,117.49,137.05,117.08,137Z" transform="translate(-9 -6)" style="fill:#a74c65"/><path id="Path_3758" data-name="Path 3758" d="M101.53,135.51a.2.2,0,0,1,.11,0,.69.69,0,0,0,.11.13,2.63,2.63,0,0,1-.39.06H94.72c.3-.32.64-.12.9-.21Z" transform="translate(-9 -6)" style="fill:#891737"/><path id="Path_3759" data-name="Path 3759" d="M52.05,89.07c-.32-.27-.21-.64-.21-1V83.24c0-.34-.13-.7.21-1Z" transform="translate(-9 -6)" style="fill:#bb0337"/><path id="Path_3760" data-name="Path 3760" d="M219.41,34.18c0-.28,0-.57,0-.85,0-.49.11-.66.64-.69s.7.26.66.75.11.9-.6.81a4.53,4.53,0,0,0-.74,0Zm.64-1.22c-.21.11-.21.37-.19.6s.15.43.41.33.21-.35.21-.54-.06-.43-.43-.39Z" transform="translate(-9 -6)" style="fill:#9f153f"/><path id="Path_3761" data-name="Path 3761" d="M52.46,75.93a15.84,15.84,0,0,1,0-5.32Z" transform="translate(-9 -6)" style="fill:#bb0337"/><path id="Path_3762" data-name="Path 3762" d="M218.41,43.6c-.11.26.19.7-.3.75s-.36-.47-.36-.75-.24-.81.34-.79S218.28,43.32,218.41,43.6Z" transform="translate(-9 -6)" style="fill:#a50b3e"/><path id="Path_3763" data-name="Path 3763" d="M39.9,101.3c-1.59.57-.92,2-1.12,3a4.51,4.51,0,0,1-.15-2.67C38.7,101,39.47,101.43,39.9,101.3Z" transform="translate(-9 -6)" style="fill:#a50b3e"/><path id="Path_3764" data-name="Path 3764" d="M88.84,141.24c.17-.62.68-.35,1.06-.39,1-.11,2.06.28,2.95-.43-.12.54-.47.67-1,.69A9.23,9.23,0,0,0,88.84,141.24Z" transform="translate(-9 -6)" style="fill:#952646"/><path id="Path_3765" data-name="Path 3765" d="M212.53,47.33a5.08,5.08,0,0,1,.07-3A17.55,17.55,0,0,1,212.53,47.33Z" transform="translate(-9 -6)" style="fill:#a50b3e"/><path id="Path_3766" data-name="Path 3766" d="M95.49,139.14c.53.34,1.13.17,1.71.22.36,0,.77-.13,1.06.21-.74,0-1.47,0-2.22,0C95.73,139.63,95.36,139.66,95.49,139.14Z" transform="translate(-9 -6)" style="fill:#bb0337"/><path id="Path_3767" data-name="Path 3767" d="M52.46,69c-.58-.54-.37-1.24-.41-1.9A3,3,0,0,1,52.46,69Z" transform="translate(-9 -6)" style="fill:#bb0337"/><path id="Path_3768" data-name="Path 3768" d="M38.76,104.76c.37.15.26.45.26.73A1.12,1.12,0,0,1,38.76,104.76Z" transform="translate(-9 -6)" style="fill:#a50b3e"/><path id="Path_3769" data-name="Path 3769" d="M51.45,65c-.19-.07-.23-.24-.25-.43C51.28,64.76,51.37,64.91,51.45,65Z" transform="translate(-9 -6)" style="fill:#bb0337"/><path id="Path_3770" data-name="Path 3770" d="M95.34,138.5l.15-.06c.08.15,0,.21-.15.28A.41.41,0,0,0,95.34,138.5Z" transform="translate(-9 -6)" style="fill:#bb0337"/><path id="Path_3771" data-name="Path 3771" d="M39,105.8c.22.13.2.36.2.57C39,106.25,39,106,39,105.8Z" transform="translate(-9 -6)" style="fill:#a50b3e"/><path id="Path_3772" data-name="Path 3772" d="M88.41,141.49c-.19-.3.11-.19.19-.23A2.11,2.11,0,0,1,88.41,141.49Z" transform="translate(-9 -6)" style="fill:#952646"/><path id="Path_3773" data-name="Path 3773" d="M52,66.47a2.61,2.61,0,0,1-.17-.28C51.9,66.3,52,66.38,52,66.47Z" transform="translate(-9 -6)" style="fill:#bb0337"/><path id="Path_3774" data-name="Path 3774" d="M51.82,65.93c-.07-.1-.11-.19-.18-.3C51.71,65.72,51.75,65.83,51.82,65.93Z" transform="translate(-9 -6)" style="fill:#bb0337"/><path id="Path_3775" data-name="Path 3775" d="M51.6,65.38c-.06-.08-.1-.17-.17-.26C51.5,65.21,51.54,65.3,51.6,65.38Z" transform="translate(-9 -6)" style="fill:#bb0337"/><path id="Path_3776" data-name="Path 3776" d="M51.22,64.5l-.2-.3A.88.88,0,0,0,51.22,64.5Z" transform="translate(-9 -6)" style="fill:#bb0337"/><path id="Path_3777" data-name="Path 3777" d="M91.4,86.66l.21-.19v.19Z" transform="translate(-9 -6)" style="fill:#f9f6e1"/><path id="Path_3778" data-name="Path 3778" d="M89.45,90.49c0-.45-.26-1,.6-.9C89.9,90,89.81,90.3,89.45,90.49Z" transform="translate(-9 -6)" style="fill:#f9f6e1"/><path id="Path_3779" data-name="Path 3779" d="M90.44,88.87a.4.4,0,0,1,.33-.45h.07A.77.77,0,0,1,90.44,88.87Z" transform="translate(-9 -6)" style="fill:#f9f6e1"/><path id="Path_3780" data-name="Path 3780" d="M90.91,88.28a.41.41,0,0,1,.4-.42C91.21,88.05,91.12,88.22,90.91,88.28Z" transform="translate(-9 -6)" style="fill:#f9f6e1"/><path id="Path_3781" data-name="Path 3781" d="M90.15,89.39c0-.07.09-.11.13-.15Z" transform="translate(-9 -6)" style="fill:#f9f6e1"/><path id="Path_3782" data-name="Path 3782" d="M89.44,88.31a.65.65,0,0,1,.41-.4C89.85,88.16,89.7,88.29,89.44,88.31Z" transform="translate(-9 -6)" style="fill:#f9f6e1"/><path id="Path_3783" data-name="Path 3783" d="M90.67,87.23c.07,0,.13-.11.2-.15A1,1,0,0,0,90.67,87.23Z" transform="translate(-9 -6)" style="fill:#f9f6e1"/><path id="Path_3784" data-name="Path 3784" d="M220.05,33c.36,0,.43.17.45.38s0,.45-.21.53-.39-.08-.41-.32S219.84,33.07,220.05,33Z" transform="translate(-9 -6)" style="fill:#cd1143"/></g><path id="Subtraction_53-2" data-name="Subtraction 53-2" d="M131.85,238.45H9V43.13A126.12,126.12,0,0,1,33.26,19.2,76.55,76.55,0,0,1,50.57,9.53a46.5,46.5,0,0,1,35.52,0A76.77,76.77,0,0,1,103.4,19.2a116.09,116.09,0,0,1,16.34,14.67,157,157,0,0,1,14.85,18.75,187.08,187.08,0,0,1,12.74,21.93,193.5,193.5,0,0,1,10,24.28,180.05,180.05,0,0,1,6.51,25.77A154.54,154.54,0,0,1,166.16,151c0,17.05-2.55,32.83-7.61,46.91a100.06,100.06,0,0,1-21,34.91c-1.82,2-3.76,3.85-5.75,5.64Z" transform="translate(-9 -6)" style="fill:url(#linear-gradient)"/></g></svg>