<svg id="Layer_1" data-name="Layer 1" xmlns="http://www.w3.org/2000/svg" xmlns:xlink="http://www.w3.org/1999/xlink" viewBox="0 0 45.99 58.17"><defs><linearGradient id="linear-gradient" x1="-229.84" y1="74.89" x2="-230.84" y2="74.89" gradientTransform="matrix(45.99, 0, 0, -58.17, 10615.31, 4385.8)" gradientUnits="userSpaceOnUse"><stop offset="0" stop-color="#00a64f"/><stop offset="1" stop-color="#54b948"/></linearGradient></defs><title>egg_9</title><path id="Subtraction_45-2" data-name="Subtraction 45-2" d="M46,58.17H4.07c-.3-.93-.59-1.88-.85-2.81C-.14,43.52-.9,31.75,1.07,22.22a36,36,0,0,1,3-8.8,23.21,23.21,0,0,1,5.07-6.8,23.19,23.19,0,0,1,7.3-4.33,35.3,35.3,0,0,1,9.07-2A49.39,49.39,0,0,1,30.43,0,67.91,67.91,0,0,1,46,1.94V58.17Z" style="fill:url(#linear-gradient)"/></svg>