<svg id="Layer_1" data-name="Layer 1" xmlns="http://www.w3.org/2000/svg" xmlns:xlink="http://www.w3.org/1999/xlink" viewBox="0 0 157.34 232.44"><defs><linearGradient id="linear-gradient" x1="-122.86" y1="258.92" x2="-123.86" y2="258.91" gradientTransform="matrix(157.16, 0, 0, -232.44, 19465.85, 60299.29)" gradientUnits="userSpaceOnUse"><stop offset="0" stop-color="#00a64f"/><stop offset="1" stop-color="#54b948"/></linearGradient></defs><title>egg_8</title><g id="Group_3445" data-name="Group 3445"><path id="Subtraction_43-2" data-name="Subtraction 43-2" d="M122.84,232.44H0V37.13A126.12,126.12,0,0,1,24.26,13.2,76.55,76.55,0,0,1,41.57,3.53,49.35,49.35,0,0,1,59.33,0,49.35,49.35,0,0,1,77.09,3.53,76.77,76.77,0,0,1,94.4,13.2a115.47,115.47,0,0,1,16.34,14.67,157.67,157.67,0,0,1,14.85,18.74,186.55,186.55,0,0,1,12.73,21.94,190.54,190.54,0,0,1,10,24.28,179,179,0,0,1,6.52,25.76A155.68,155.68,0,0,1,157.16,145c0,17.05-2.55,32.83-7.61,46.91a100.28,100.28,0,0,1-21,34.92c-1.83,1.95-3.76,3.85-5.76,5.63Z" transform="translate(0.18)" style="fill:url(#linear-gradient)"/><path id="Path_3756" data-name="Path 3756" d="M142.5,82.2l-28,37.46L95.83,94.51l-26,55.4L48.14,119.66,19.44,141,1.32,119.66" transform="translate(0.18)" style="fill:none;stroke:#06964b;stroke-linecap:round;stroke-width:3px"/></g></svg>