<svg xmlns="http://www.w3.org/2000/svg" xmlns:xlink="http://www.w3.org/1999/xlink" width="39.655" height="46.546" viewBox="0 0 39.655 46.546">
  <defs>
    <filter id="Path_2939" x="0" y="0" width="39.655" height="46.546" filterUnits="userSpaceOnUse">
      <feOffset dy="3" input="SourceAlpha"/>
      <feGaussianBlur stdDeviation="3" result="blur"/>
      <feFlood flood-opacity="0.161"/>
      <feComposite operator="in" in2="blur"/>
      <feComposite in="SourceGraphic"/>
    </filter>
  </defs>
  <g id="Group_3338" data-name="Group 3338" transform="translate(-336.669 -535.91)">
    <g id="Group_3333" data-name="Group 3333" transform="translate(345.177 541.417)">
      <g id="Group_3219" data-name="Group 3219" transform="translate(0 0)">
        <g id="Group_1356" data-name="Group 1356" transform="translate(0)">
          <g id="Group_1342" data-name="Group 1342">
            <g id="egg">
              <g transform="matrix(1, 0, 0, 1, -8.51, -5.51)" filter="url(#Path_2939)">
                <path id="Path_2939-2" data-name="Path 2939" d="M28.78,23.07c0-7.883-5.906-16.242-10.828-16.242S7.125,15.187,7.125,23.07s4.848,12.3,10.828,12.3S28.78,30.952,28.78,23.07" transform="translate(1.87 -0.83)" fill="#00a651"/>
              </g>
              <path id="Path_2940" data-name="Path 2940" d="M22.445,16.734h.492A20.914,20.914,0,0,0,19.283,5.38a15.679,15.679,0,0,0-3.609-3.857A7.044,7.044,0,0,0,11.617,0,7.043,7.043,0,0,0,7.559,1.523,17.652,17.652,0,0,0,2.476,7.912,20.282,20.282,0,0,0,.3,16.734a13.47,13.47,0,0,0,3.3,9.444,10.787,10.787,0,0,0,8.015,3.351,10.788,10.788,0,0,0,8.015-3.351,13.476,13.476,0,0,0,3.3-9.444h-.985a12.5,12.5,0,0,1-3.038,8.771,9.807,9.807,0,0,1-7.3,3.041,9.806,9.806,0,0,1-7.3-3.041,12.5,12.5,0,0,1-3.038-8.771,19.939,19.939,0,0,1,3.483-10.8A14.7,14.7,0,0,1,8.138,2.319,6.085,6.085,0,0,1,11.617.984a6.081,6.081,0,0,1,3.478,1.335,16.688,16.688,0,0,1,4.78,6.029,19.308,19.308,0,0,1,2.078,8.385Z" transform="translate(-0.297)" fill="#00a651"/>
            </g>
            <path id="Subtraction_7" data-name="Subtraction 7" d="M11.31,25.734a11.953,11.953,0,0,1-2.273-.215,11.021,11.021,0,0,1-2.125-.638,10.367,10.367,0,0,1-3.607-2.5A11.553,11.553,0,0,1,.88,18.353,15.945,15.945,0,0,1,0,12.938,18.516,18.516,0,0,1,.592,8.391,21.876,21.876,0,0,1,3.425,1.929,18.953,18.953,0,0,1,4.856,0a15.547,15.547,0,0,0-1.29,2.222,17.709,17.709,0,0,0-.972,2.53A19.468,19.468,0,0,0,1.98,7.535a20.895,20.895,0,0,0,0,5.938,19.489,19.489,0,0,0,.6,2.764,17.751,17.751,0,0,0,.958,2.516,15.61,15.61,0,0,0,1.272,2.214,13.281,13.281,0,0,0,1.546,1.856,11.091,11.091,0,0,0,1.78,1.444,9.382,9.382,0,0,0,1.974.977,8.437,8.437,0,0,0,2.127.455c-.3.022-.605.033-.908.033H11.31Z" transform="translate(0 3.795)" fill="#008943"/>
          </g>
        </g>
      </g>
    </g>
  </g>
</svg>
