<svg id="Layer_1" data-name="Layer 1" xmlns="http://www.w3.org/2000/svg" viewBox="0 0 52.73 53.6"><title>icon_egg_order</title><g id="Group_3265" data-name="Group 3265"><g id="Group_3240" data-name="Group 3240"><g id="Group_3237" data-name="Group 3237"><g id="Group_3219" data-name="Group 3219"><g id="Group_1356" data-name="Group 1356"><g id="Group_1342" data-name="Group 1342"><g id="egg"><path id="Path_2939-2" data-name="Path 2939-2" d="M51.83,30.89c0-14.31-10.72-29.48-19.65-29.48S12.53,16.58,12.53,30.89s8.8,22.33,19.65,22.33,19.65-8,19.65-22.33" transform="translate(0 -0.52)" style="fill:#ffbe86"/><path id="Path_2940" data-name="Path 2940" d="M51.83,30.89h.89a38,38,0,0,0-6.63-20.6,28.33,28.33,0,0,0-6.55-7A12.84,12.84,0,0,0,32.18.52a12.77,12.77,0,0,0-7.37,2.77,31.89,31.89,0,0,0-9.22,11.6,36.82,36.82,0,0,0-4,16c0,7.34,2.27,13.16,6,17.15a19.62,19.62,0,0,0,14.55,6.08A19.6,19.6,0,0,0,46.73,48c3.73-4,6-9.81,6-17.15h-1.8c0,7-2.13,12.32-5.51,15.92a17.78,17.78,0,0,1-13.24,5.52,17.8,17.8,0,0,1-13.25-5.52c-3.38-3.6-5.51-8.94-5.51-15.92a36.27,36.27,0,0,1,6.31-19.6,26.93,26.93,0,0,1,6.13-6.56,11.12,11.12,0,0,1,6.32-2.42,11.12,11.12,0,0,1,6.31,2.42,30.36,30.36,0,0,1,8.67,11,35,35,0,0,1,3.77,15.21Z" transform="translate(0 -0.52)" style="fill:#ffbe86"/></g><path id="Subtraction_7" data-name="Subtraction 7" d="M32.16,54.12A22,22,0,0,1,28,53.73a20.91,20.91,0,0,1-3.86-1.16A18.79,18.79,0,0,1,17.63,48a21,21,0,0,1-4.4-7.31,28.82,28.82,0,0,1-1.6-9.83,33.83,33.83,0,0,1,1.08-8.25,39.5,39.5,0,0,1,5.14-11.73,34,34,0,0,1,2.59-3.5,28.94,28.94,0,0,0-2.34,4A32.79,32.79,0,0,0,16.34,16a34.74,34.74,0,0,0-1.12,5.05,38.1,38.1,0,0,0,0,10.77,34.3,34.3,0,0,0,1.1,5,31.58,31.58,0,0,0,1.74,4.57,28.65,28.65,0,0,0,2.31,4,24.34,24.34,0,0,0,2.8,3.36,20.3,20.3,0,0,0,3.23,2.63A17.28,17.28,0,0,0,30,53.23a15.09,15.09,0,0,0,3.87.82c-.55,0-1.1.07-1.65.07Z" transform="translate(0 -0.52)" style="fill:#f2b27b"/></g></g></g></g><g id="Group_3239" data-name="Group 3239"><path id="Path_3685" data-name="Path 3685" d="M1,15.42H25.15" transform="translate(0 -0.52)" style="fill:none;stroke:#707070;stroke-linecap:round;stroke-width:2px"/><path id="Path_3686" data-name="Path 3686" d="M12.86,30H37" transform="translate(0 -0.52)" style="fill:none;stroke:#707070;stroke-linecap:round;stroke-width:2px"/><path id="Path_3687" data-name="Path 3687" d="M1,42.79H25.15" transform="translate(0 -0.52)" style="fill:none;stroke:#707070;stroke-linecap:round;stroke-width:2px"/></g></g><g id="Group_3246" data-name="Group 3246"><path id="Path_3692-2" data-name="Path 3692-2" d="M32.1,21.66a14.78,14.78,0,0,1,14.55,15,14.77,14.77,0,0,1-14.55,15,14.77,14.77,0,0,1-14.56-15A14.78,14.78,0,0,1,32.1,21.66Z" transform="translate(0 -0.52)" style="fill:#fff"/></g></g></svg>