<svg id="Layer_1" data-name="Layer 1" xmlns="http://www.w3.org/2000/svg" viewBox="0 0 29.16 25.52"><title>icon_notification</title><g id="alarm"><path id="Path_2955" data-name="Path 2955" d="M24.15,19.19a6.36,6.36,0,0,1-.46-2.36V10.94a9.09,9.09,0,0,0-6.42-8.67,2.73,2.73,0,0,0-5.38,0,9.1,9.1,0,0,0-6.42,8.67v5.88A6.41,6.41,0,0,1,5,19.19l-1.3,3.26a.91.91,0,0,0,.51,1.18,1,1,0,0,0,.34.07h6.93a3.55,3.55,0,0,0,6.19,0h6.93a.92.92,0,0,0,.91-.92.75.75,0,0,0-.07-.33ZM5.9,21.87l.8-2a8.14,8.14,0,0,0,.59-3V10.94a7.29,7.29,0,1,1,14.58-.17v6.05a8.16,8.16,0,0,0,.59,3.05l.8,2Z" transform="translate(0 0)" style="fill:#00a651"/><path id="Path_2956" data-name="Path 2956" d="M1.72,5.9a14.56,14.56,0,0,0,0,13.72l1.6-.86a12.77,12.77,0,0,1,0-12Z" transform="translate(0 0)" style="fill:#fdaf00"/><path id="Path_2957" data-name="Path 2957" d="M27.45,5.9l-1.61.86a12.75,12.75,0,0,1,0,12l1.61.86a14.62,14.62,0,0,0,0-13.72Z" transform="translate(0 0)" style="fill:#fdaf00"/></g></svg>