<svg id="Layer_1" data-name="Layer 1" xmlns="http://www.w3.org/2000/svg" viewBox="0 0 30.81 27.28"><title>icon_map</title><g id="location-on-map"><path id="Path_2967" data-name="Path 2967" d="M14.72,17.51a1,1,0,0,0,1.37,0c.24-.22,6.05-5.4,6.05-10.77a6.74,6.74,0,0,0-13.48,0h0C8.66,12.11,14.47,17.29,14.72,17.51ZM15.4,5a1.76,1.76,0,1,1-1.74,1.78v0A1.74,1.74,0,0,1,15.4,5Z" transform="translate(0 0)" style="fill:#fdaf00"/><path id="Path_2968" data-name="Path 2968" d="M28.35,17.51l-.78-2.74a1,1,0,0,0-1-.75H21c-.2.3-.41.6-.64.9A25.14,25.14,0,0,1,17,18.59a2.47,2.47,0,0,1-3.28,0,25.2,25.2,0,0,1-3.33-3.67c-.22-.3-.44-.6-.64-.9H4.23a1.05,1.05,0,0,0-1,.75L2.3,18l20.8,3.81Z" transform="translate(0 0)" style="fill:#00a651"/><path id="Path_2969" data-name="Path 2969" d="M30.77,26l-2-7-9.9,8.31h10.9a1,1,0,0,0,1-1,1.35,1.35,0,0,0,0-.29Z" transform="translate(0 0)" style="fill:#00a651"/><path id="Path_2970" data-name="Path 2970" d="M5.06,20,1.9,19.43,0,26a1,1,0,0,0,.71,1.28.9.9,0,0,0,.28,0h4Z" transform="translate(0 0)" style="fill:#00a651"/><path id="Path_2971" data-name="Path 2971" d="M6.51,20.27v7H16.62l5.05-4.23Z" transform="translate(0 0)" style="fill:#00a651"/></g></svg>