<svg id="Layer_1" data-name="Layer 1" xmlns="http://www.w3.org/2000/svg" viewBox="0 0 29.91 28.04"><title>icon_emergency</title><g id="siren"><g id="Group_478" data-name="Group 478"><g id="Group_477" data-name="Group 477"><path id="Path_215" data-name="Path 215" d="M24.3,23.37h-.7L21.7,12.7a4.08,4.08,0,0,0-4-3.35H12.23a4.08,4.08,0,0,0-4,3.36L6.31,23.37h-.7a1.75,1.75,0,0,0-1.75,1.75v2.34a.58.58,0,0,0,.58.58h21a.58.58,0,0,0,.58-.58V25.12A1.75,1.75,0,0,0,24.3,23.37ZM9.36,12.91a2.92,2.92,0,0,1,2.87-2.4h5.45a2.92,2.92,0,0,1,2.87,2.4l1.87,10.46H7.49Zm15.52,14H5V25.12a.59.59,0,0,1,.59-.58H24.3a.59.59,0,0,1,.59.58Z" transform="translate(0)" style="fill:#00a651"/></g></g><g id="Group_482" data-name="Group 482"><g id="Group_481" data-name="Group 481"><path id="Path_217" data-name="Path 217" d="M29.33,14h-5a.59.59,0,0,0,0,1.17h5a.59.59,0,0,0,0-1.17Z" transform="translate(0)" style="fill:#faaf4a"/></g></g><g id="Group_484" data-name="Group 484"><g id="Group_483" data-name="Group 483"><path id="Path_218" data-name="Path 218" d="M5.61,14h-5a.59.59,0,0,0,0,1.17h5a.59.59,0,0,0,0-1.17Z" transform="translate(0)" style="fill:#faaf4a"/></g></g><g id="Group_486" data-name="Group 486"><g id="Group_485" data-name="Group 485"><path id="Path_219" data-name="Path 219" d="M25.28,4.28a.57.57,0,0,0-.82,0h0l-3.3,3.3A.58.58,0,0,0,22,8.4h0l3.3-3.3a.57.57,0,0,0,0-.82Z" transform="translate(0)" style="fill:#faaf4a"/></g></g><g id="Group_488" data-name="Group 488"><g id="Group_487" data-name="Group 487"><path id="Path_220" data-name="Path 220" d="M8.76,7.58l-3.3-3.3a.59.59,0,0,0-.83.83l3.3,3.3a.59.59,0,0,0,.83-.83Z" transform="translate(0)" style="fill:#faaf4a"/></g></g><g id="Group_490" data-name="Group 490"><g id="Group_489" data-name="Group 489"><path id="Path_221" data-name="Path 221" d="M15,0a.58.58,0,0,0-.58.58V5.26a.59.59,0,0,0,1.17,0h0V.58A.58.58,0,0,0,15,0Z" transform="translate(0)" style="fill:#faaf4a"/></g></g></g></svg>