<svg id="Layer_1" data-name="Layer 1" xmlns="http://www.w3.org/2000/svg" viewBox="0 0 30.35 30.35"><title>icon_setting</title><g id="settings"><g id="Group_1244" data-name="Group 1244"><path id="Path_2972" data-name="Path 2972" d="M28.8,12l-2.13-.36a12.05,12.05,0,0,0-.86-2.07l1.26-1.75a1.88,1.88,0,0,0-.2-2.42L25,3.5A1.88,1.88,0,0,0,23.65,3a1.81,1.81,0,0,0-1.08.35L20.81,4.55a12.94,12.94,0,0,0-2.15-.88l-.35-2.1A1.88,1.88,0,0,0,16.45,0H13.78a1.88,1.88,0,0,0-1.85,1.56l-.37,2.16a12,12,0,0,0-2.06.87L7.76,3.33a1.87,1.87,0,0,0-2.41.21L3.45,5.43a1.86,1.86,0,0,0-.2,2.41L4.51,9.63a12.46,12.46,0,0,0-.84,2.07l-2.1.35A1.88,1.88,0,0,0,0,13.91v2.67a1.88,1.88,0,0,0,1.57,1.85l2.15.37a12.85,12.85,0,0,0,.87,2.06L3.34,22.59A1.88,1.88,0,0,0,3.54,25L5.43,26.9a1.88,1.88,0,0,0,1.33.55,1.81,1.81,0,0,0,1.08-.35l1.79-1.27a12,12,0,0,0,2,.83L12,28.79a1.88,1.88,0,0,0,1.85,1.56h2.68a1.87,1.87,0,0,0,1.85-1.56l.36-2.13a12.54,12.54,0,0,0,2.07-.86l1.76,1.25a1.77,1.77,0,0,0,1.09.35h0A1.84,1.84,0,0,0,25,26.85L26.85,25a1.87,1.87,0,0,0,.2-2.41L25.8,20.79a12.05,12.05,0,0,0,.86-2.07l2.13-.36a1.86,1.86,0,0,0,1.56-1.85V13.84A1.86,1.86,0,0,0,28.8,12Zm-.15,4.52a.16.16,0,0,1-.14.17l-2.66.44a.85.85,0,0,0-.68.63,10.31,10.31,0,0,1-1.1,2.66.85.85,0,0,0,0,.93l1.57,2.21a.16.16,0,0,1,0,.21l-1.89,1.89a.17.17,0,0,1-.12.05.17.17,0,0,1-.1,0l-2.2-1.57a.85.85,0,0,0-.93,0,10.17,10.17,0,0,1-2.66,1.1.85.85,0,0,0-.63.68l-.45,2.66a.15.15,0,0,1-.16.14H13.84a.16.16,0,0,1-.17-.14l-.44-2.66a.85.85,0,0,0-.63-.68A10.72,10.72,0,0,1,10,24.1.92.92,0,0,0,9.57,24a.78.78,0,0,0-.49.16L6.86,25.73a.17.17,0,0,1-.1,0,.18.18,0,0,1-.12-.05L4.75,23.82a.18.18,0,0,1,0-.22L6.3,21.41a.85.85,0,0,0,0-.93,10.3,10.3,0,0,1-1.12-2.65.86.86,0,0,0-.68-.63l-2.68-.46a.15.15,0,0,1-.14-.17V13.9a.15.15,0,0,1,.14-.16L4.5,13.3a.86.86,0,0,0,.69-.63A10.18,10.18,0,0,1,6.27,10a.87.87,0,0,0,0-.93L4.65,6.85a.16.16,0,0,1,0-.21L6.56,4.75a.17.17,0,0,1,.12,0,.19.19,0,0,1,.1,0L9,6.29a.87.87,0,0,0,.94,0,10.3,10.3,0,0,1,2.65-1.12.85.85,0,0,0,.63-.68l.46-2.68a.15.15,0,0,1,.16-.14h2.67a.16.16,0,0,1,.17.14l.44,2.64a.85.85,0,0,0,.63.69A10.27,10.27,0,0,1,20.43,6.3a.85.85,0,0,0,.93,0l2.19-1.57a.19.19,0,0,1,.1,0,.13.13,0,0,1,.12,0L25.66,6.6a.16.16,0,0,1,0,.21L24.11,9a.87.87,0,0,0,0,.94,10.1,10.1,0,0,1,1.1,2.65.83.83,0,0,0,.68.63l2.66.45a.15.15,0,0,1,.14.17v2.67Z" transform="translate(0 0)" style="fill:#00a651"/><path id="Path_2973" data-name="Path 2973" d="M15.18,8.62a6.55,6.55,0,1,0,6.55,6.55A6.55,6.55,0,0,0,15.18,8.62Zm0,11.39A4.84,4.84,0,1,1,20,15.17h0A4.84,4.84,0,0,1,15.18,20Z" transform="translate(0 0)" style="fill:#fdaf00"/></g></g></svg>