<svg id="Layer_1" data-name="Layer 1" xmlns="http://www.w3.org/2000/svg" viewBox="0 0 41.1 56.62"><title>icon_egg_canceled</title><g id="Group_3739" data-name="Group 3739"><g id="Group_3738" data-name="Group 3738"><ellipse id="Ellipse_310" data-name="Ellipse 310" cx="21.63" cy="53.62" rx="17" ry="3" style="fill:#eaeaea"/><g id="Group_3244" data-name="Group 3244"><g id="Group_3235" data-name="Group 3235"><g id="Group_3219" data-name="Group 3219"><g id="Group_1356" data-name="Group 1356"><g id="Group_1342" data-name="Group 1342"><g id="egg"><path id="Path_2939-2" data-name="Path 2939-2" d="M40.81,31.9c0-14.31-10.72-29.48-19.65-29.48S1.51,17.59,1.51,31.9s8.8,22.33,19.65,22.33,19.65-8,19.65-22.33" transform="translate(-0.61 -1.53)" style="fill:#ffbe86"/><path id="Path_2940" data-name="Path 2940" d="M40.81,31.91h.89A37.88,37.88,0,0,0,35.07,11.3a28.14,28.14,0,0,0-6.55-7,12.84,12.84,0,0,0-7.36-2.77A12.84,12.84,0,0,0,13.8,4.3,32,32,0,0,0,4.57,15.9a36.82,36.82,0,0,0-3.95,16c0,7.33,2.26,13.16,6,17.14a19.6,19.6,0,0,0,14.55,6.08,19.6,19.6,0,0,0,14.54-6.08c3.74-4,6-9.81,6-17.14H39.92c0,7-2.14,12.31-5.52,15.91a17.78,17.78,0,0,1-13.24,5.52A17.78,17.78,0,0,1,7.92,47.82c-3.38-3.6-5.51-8.94-5.52-15.91A36.29,36.29,0,0,1,8.72,12.3a26.93,26.93,0,0,1,6.13-6.56,11.09,11.09,0,0,1,6.31-2.42,11.09,11.09,0,0,1,6.31,2.42,30.28,30.28,0,0,1,8.68,11,35,35,0,0,1,3.77,15.22Z" transform="translate(-0.61 -1.53)" style="fill:#ffbe86"/></g><path id="Subtraction_7" data-name="Subtraction 7" d="M21.14,55.13A21.94,21.94,0,0,1,17,54.74a20.46,20.46,0,0,1-3.86-1.16,18.81,18.81,0,0,1-6.54-4.53,20.68,20.68,0,0,1-4.4-7.32A28.82,28.82,0,0,1,.62,31.9a33.34,33.34,0,0,1,1.07-8.25A39.76,39.76,0,0,1,6.83,11.92a34.1,34.1,0,0,1,2.6-3.5,28,28,0,0,0-2.34,4,31.64,31.64,0,0,0-1.77,4.6A36.08,36.08,0,0,0,4.21,22.1a37.73,37.73,0,0,0,0,10.77,37.11,37.11,0,0,0,1.1,5A33.59,33.59,0,0,0,7,42.46a28.65,28.65,0,0,0,2.31,4,24.38,24.38,0,0,0,2.81,3.37,19.9,19.9,0,0,0,3.23,2.62A17,17,0,0,0,19,54.24a15.47,15.47,0,0,0,3.86.83c-.54,0-1.1.06-1.65.06Z" transform="translate(-0.61 -1.53)" style="fill:#f2b27b"/></g></g></g></g></g></g><path id="Path_3653" data-name="Path 3653" d="M36.15,14l-8.63,9.64-5.64-5.92-7.2,10.39L10,17.67,2.54,19.78" transform="translate(-0.61 -1.53)" style="fill:none;stroke:#fff;stroke-linecap:round"/><g id="Group_3660" data-name="Group 3660"><g id="Path_3691-2" data-name="Path 3691-2"><path d="M21.75,52.65a14,14,0,1,1,9.9-4.1A13.89,13.89,0,0,1,21.75,52.65Z" transform="translate(-0.61 -1.53)" style="fill:#fff"/><path d="M21.75,25.15a13.5,13.5,0,1,0,9.55,4,13.41,13.41,0,0,0-9.55-4m0-1a14.5,14.5,0,1,1-14.5,14.5A14.5,14.5,0,0,1,21.75,24.15Z" transform="translate(-0.61 -1.53)" style="fill:#f49d00"/></g></g></g></svg>