<svg id="Group_3275" data-name="Group 3275" xmlns="http://www.w3.org/2000/svg" viewBox="0 0 24.26 29.74"><title>icon_list</title><g id="Group_3274" data-name="Group 3274"><path id="Path_3693" data-name="Path 3693" d="M23.18,0h-5l.34,1.57a1.67,1.67,0,0,1,0,.59h3.6V27.58h-20V2.16H20a1.88,1.88,0,0,1,0-.58L20.34,0H1.08A1.07,1.07,0,0,0,0,1.08H0V28.66a1.08,1.08,0,0,0,1.08,1.08h22.1a1.08,1.08,0,0,0,1.08-1.07h0V1.08A1.08,1.08,0,0,0,23.18,0Z" transform="translate(0)" style="fill:#00a651"/><path id="Path_3694" data-name="Path 3694" d="M19.56,7.8H12.2a1.08,1.08,0,1,0,0,2.15h7.36a1.08,1.08,0,1,0,0-2.15Z" transform="translate(0)" style="fill:#ffac10"/><path id="Path_3695" data-name="Path 3695" d="M19.56,14.41H12.2a1.08,1.08,0,0,0,0,2.16h7.36a1.08,1.08,0,0,0,0-2.16Z" transform="translate(0)" style="fill:#ffac10"/><path id="Path_3697" data-name="Path 3697" d="M6.58,13.87A1.62,1.62,0,1,0,8.2,15.49a1.63,1.63,0,0,0-1.62-1.62Z" transform="translate(0)" style="fill:#ffac10"/><path id="Path_3701" data-name="Path 3701" d="M6.58,7.39A1.62,1.62,0,1,0,8.2,9,1.62,1.62,0,0,0,6.58,7.39Z" transform="translate(0)" style="fill:#ffac10"/><path id="Path_3698" data-name="Path 3698" d="M19.56,20.88H12.2a1.08,1.08,0,0,0,0,2.16h7.36a1.08,1.08,0,1,0,0-2.16Z" transform="translate(0)" style="fill:#ffac10"/><path id="Path_3699" data-name="Path 3699" d="M6.58,20.34A1.62,1.62,0,1,0,8.2,22a1.63,1.63,0,0,0-1.62-1.62Z" transform="translate(0)" style="fill:#ffac10"/></g></svg>