<svg id="Layer_1" data-name="Layer 1" xmlns="http://www.w3.org/2000/svg" viewBox="0 0 51 64.89"><title>icon_contact_transporter</title><g id="Group_3811" data-name="Group 3811"><ellipse id="Ellipse_333" data-name="Ellipse 333" cx="25.5" cy="59.39" rx="25.5" ry="5.5" style="fill:#e0e0e0"/><g id="Group_3810" data-name="Group 3810"><g id="Group_3809" data-name="Group 3809"><g id="Group_3788" data-name="Group 3788"><g id="Group_3786" data-name="Group 3786"><g id="Group_529" data-name="Group 529"><g id="Group_527" data-name="Group 527"><g id="Group_524" data-name="Group 524"><line id="Line_9" data-name="Line 9" x1="19.76" y1="45.05" x2="18.11" y2="54.96" style="fill:none;stroke:#fdaf00;stroke-linecap:round;stroke-width:2px"/><line id="Line_10" data-name="Line 10" x1="31.33" y1="45.05" x2="32.98" y2="54.96" style="fill:none;stroke:#fdaf00;stroke-linecap:round;stroke-width:2px"/></g><path id="Path_251-2" data-name="Path 251-2" d="M17.34,55.14l-2,1.39,1.83-.15.22,1.5,1.43-1.37,1.78.31-1.82-1.53Z" transform="translate(0 0)" style="fill:#fdaf00"/><path id="Path_252-2" data-name="Path 252-2" d="M32.55,55.28,31,57.14l1.76-.54,1.83,1.5-.17-1.73,1.81-.1L33.68,55Z" transform="translate(0 0)" style="fill:#fdaf00"/></g><path id="Union_4-2" data-name="Union 4-2" d="M20.92,54c-.75-.16-1.5-.36-2.23-.59A32.88,32.88,0,0,1,9.5,50a19.8,19.8,0,0,1-5.12-3.93,6.34,6.34,0,0,1-1.86-4V37.42a4.77,4.77,0,0,1,.07-1.06c-.13-.57-.31-1.16-.39-1.76a26.28,26.28,0,0,1,0-10,25.56,25.56,0,0,1,3.62-9,23.73,23.73,0,0,1,6.5-6.69A23.31,23.31,0,0,1,35.13,6.6a24.2,24.2,0,0,1,4.09,2.3A25.16,25.16,0,0,1,49.33,24.6a25.75,25.75,0,0,1,0,10,3.58,3.58,0,0,1-.18.85c.09.45.18,1,.27,1.72.2,1.61.31,3.31.31,3.91a6.74,6.74,0,0,1-2,4.14,23,23,0,0,1-5.52,4.29,35.47,35.47,0,0,1-7.44,3.2A23.46,23.46,0,0,1,20.92,54Z" transform="translate(0 0)" style="fill:#ffce00"/><g id="Group_528" data-name="Group 528"><g id="Group_526" data-name="Group 526"><g id="Group_506" data-name="Group 506"><path id="Path_240" data-name="Path 240" d="M25.75,23.17l4.15,4.21-4.15.94-4.12-.94Z" transform="translate(0 0)" style="fill:#9b6e42"/><path id="Path_241" data-name="Path 241" d="M25.72,31.14l-4.09-3.22,4.09.68,4.18-.68Z" transform="translate(0 0)" style="fill:#9b6e42"/></g><ellipse id="Ellipse_45" data-name="Ellipse 45" cx="39" cy="28.39" rx="4" ry="1.5" style="fill:#ff6e6e"/><ellipse id="Ellipse_46" data-name="Ellipse 46" cx="12.5" cy="28.39" rx="3.5" ry="1.5" style="fill:#ff6e6e"/><g id="Group_509" data-name="Group 509"><g id="Group_507" data-name="Group 507"><path id="Path_238" data-name="Path 238" d="M10.79,23.14a6.29,6.29,0,0,1,6.89,0" transform="translate(0 0)" style="fill:none;stroke:#707070;stroke-linecap:round;stroke-width:2px"/><rect id="Rectangle_216" data-name="Rectangle 216" x="10.93" y="21.68" width="0.68" height="1.35" transform="translate(-4.41 2.84) rotate(-12.01)" style="fill:#707070"/><rect id="Rectangle_217" data-name="Rectangle 217" x="14" y="20.89" height="1" style="fill:#707070"/><rect id="Rectangle_218" data-name="Rectangle 218" x="16.41" y="21.88" width="1.36" height="0.68" transform="translate(-9.91 29.75) rotate(-68)" style="fill:#707070"/></g><g id="Group_508" data-name="Group 508"><path id="Path_238-2" data-name="Path 238-2" d="M34,23.14a6.29,6.29,0,0,1,6.89,0" transform="translate(0 0)" style="fill:none;stroke:#707070;stroke-linecap:round;stroke-width:2px"/><rect id="Rectangle_216-2" data-name="Rectangle 216-2" x="34.1" y="21.68" width="0.68" height="1.35" transform="translate(-3.9 7.66) rotate(-12.01)" style="fill:#707070"/><rect id="Rectangle_217-2" data-name="Rectangle 217-2" x="37" y="20.89" width="1" height="1" style="fill:#707070"/><rect id="Rectangle_218-2" data-name="Rectangle 218-2" x="39.58" y="21.9" width="1.36" height="0.68" transform="translate(4.56 51.24) rotate(-68)" style="fill:#707070"/></g></g></g></g></g></g><path id="Subtraction_45" data-name="Subtraction 45" d="M25.77,9.32h0L23.5,7.07A3.44,3.44,0,0,1,22.77,6a3.19,3.19,0,0,1-.25-1.29V3.31A3.3,3.3,0,0,1,24,.6l.43.33V.31A3.22,3.22,0,0,1,27.33.4V.89L27.68.6a3.31,3.31,0,0,1,1.37,2.69V4.7A3.37,3.37,0,0,1,28.8,6a3.44,3.44,0,0,1-.73,1.08Z" transform="translate(0 0)" style="fill:#ff6e6e"/></g><g id="_01-steer" data-name=" 01-steer"><path id="Path_3891" data-name="Path 3891" d="M26,29.67A16.22,16.22,0,1,0,42.22,45.89h0A16.22,16.22,0,0,0,26,29.67ZM14.65,49.75a48.67,48.67,0,0,1,7.31-1,53.28,53.28,0,0,1,1.15,8.8A12,12,0,0,1,14.65,49.75ZM26,48.6a1.35,1.35,0,1,1,1.35-1.35h0A1.34,1.34,0,0,1,26,48.6Zm2.89,8.94A53.28,53.28,0,0,1,30,48.74a46.22,46.22,0,0,1,7.31,1,12,12,0,0,1-8.46,7.79ZM26,43.18a35.63,35.63,0,0,0-12,2.15,12,12,0,0,1,24,.09h0a33.72,33.72,0,0,0-12-2.23Z" transform="translate(0 0)" style="fill:#535456"/></g></g><path id="Path_3892" data-name="Path 3892" d="M16.63,36.07l-2.77.74.78,2.67-2.22.5L12,43.08l-5.8-4.83,4.76-5Z" transform="translate(0 0)" style="fill:#ffce00"/><path id="Path_3893" data-name="Path 3893" d="M37.74,43.15l1.35-2.55L36.6,39.36l1.15-2-2-2.46L43.28,34l.41,6.87Z" transform="translate(0 0)" style="fill:#ffce00"/></g></g></svg>