<svg id="Capa_1" data-name="Capa 1" xmlns="http://www.w3.org/2000/svg" viewBox="0 0 512 450"><title>icon_contact</title><path d="M256,31C115.39,31,0,145.39,0,286V406a45.05,45.05,0,0,0,45,45H60V301H45a44.54,44.54,0,0,0-15,2.76V286C30,161.93,131.93,61,256,61S482,161.93,482,286v17.76A44.49,44.49,0,0,0,467,301H452V451h15a45.05,45.05,0,0,0,45-45V286C512,145.39,396.61,31,256,31Z" transform="translate(0 -31)" style="fill:#00a651"/><path d="M135,271H120a30,30,0,0,0-30,30V451a30,30,0,0,0,30,30h15a15,15,0,0,0,15-15V286A15,15,0,0,0,135,271Z" transform="translate(0 -31)" style="fill:#fdaf00"/><path d="M392,271H377a15,15,0,0,0-15,15V466a15,15,0,0,0,15,15h15a30,30,0,0,0,30-30V301A30,30,0,0,0,392,271Z" transform="translate(0 -31)" style="fill:#fdaf00"/></svg>