<svg id="Layer_1" data-name="Layer 1" xmlns="http://www.w3.org/2000/svg" viewBox="0 0 52.73 57.62"><title>icon_egg_shipped</title><g id="Group_3736" data-name="Group 3736"><g id="Group_3258" data-name="Group 3258"><g id="Group_3263" data-name="Group 3263"><g id="Group_3255" data-name="Group 3255"><ellipse id="Ellipse_308" data-name="Ellipse 308" cx="32.09" cy="53.62" rx="19" ry="4" style="fill:#eaeaea"/></g></g></g><g id="Group_3265" data-name="Group 3265"><g id="Group_3240" data-name="Group 3240"><g id="Group_3237" data-name="Group 3237"><g id="Group_3219" data-name="Group 3219"><g id="Group_1356" data-name="Group 1356"><g id="Group_1342" data-name="Group 1342"><g id="egg"><path id="Path_2939-2" data-name="Path 2939-2" d="M51.83,30.41C51.83,16.11,41.11.94,32.18.94S12.53,16.11,12.53,30.41s8.8,22.33,19.65,22.33,19.65-8,19.65-22.33" transform="translate(0 -0.05)" style="fill:#ffbe86"/><path id="Path_2940" data-name="Path 2940" d="M51.83,30.42h.89A38,38,0,0,0,46.09,9.81a28.68,28.68,0,0,0-6.55-7A12.76,12.76,0,0,0,32.18.05a12.76,12.76,0,0,0-7.37,2.76,32,32,0,0,0-9.22,11.6,36.83,36.83,0,0,0-4,16c0,7.33,2.27,13.16,6,17.14a19.58,19.58,0,0,0,14.55,6.08,19.57,19.57,0,0,0,14.55-6.08c3.73-4,6-9.81,6-17.14h-1.8c0,7-2.13,12.31-5.51,15.92a17.81,17.81,0,0,1-13.24,5.52,17.83,17.83,0,0,1-13.25-5.52c-3.38-3.61-5.51-9-5.51-15.92a36.22,36.22,0,0,1,6.31-19.6,26.57,26.57,0,0,1,6.13-6.56,11,11,0,0,1,6.32-2.42,11,11,0,0,1,6.31,2.42A30.33,30.33,0,0,1,47.16,15.2a35,35,0,0,1,3.77,15.22Z" transform="translate(0 -0.05)" style="fill:#ffbe86"/></g><path id="Subtraction_7" data-name="Subtraction 7" d="M32.16,53.64A22,22,0,0,1,28,53.25a19.48,19.48,0,0,1-3.86-1.16,18.77,18.77,0,0,1-6.54-4.53,21,21,0,0,1-4.4-7.31,28.86,28.86,0,0,1-1.6-9.83,33.85,33.85,0,0,1,1.08-8.26,39.34,39.34,0,0,1,5.14-11.72,34,34,0,0,1,2.59-3.5,27.83,27.83,0,0,0-2.34,4,32.66,32.66,0,0,0-1.76,4.59,35,35,0,0,0-1.12,5,38.17,38.17,0,0,0,0,10.78,34.88,34.88,0,0,0,1.1,5A31,31,0,0,0,18.06,41a28.09,28.09,0,0,0,2.31,4,24.43,24.43,0,0,0,2.8,3.37A20.8,20.8,0,0,0,26.4,51,17.28,17.28,0,0,0,30,52.75a15.54,15.54,0,0,0,3.87.83q-.83.06-1.65.06Z" transform="translate(0 -0.05)" style="fill:#f2b27b"/></g></g></g></g><g id="Group_3239" data-name="Group 3239"><path id="Path_3685" data-name="Path 3685" d="M1,14.94H25.15" transform="translate(0 -0.05)" style="fill:none;stroke:#707070;stroke-linecap:round;stroke-width:2px"/><path id="Path_3686" data-name="Path 3686" d="M12.86,29.54H37" transform="translate(0 -0.05)" style="fill:none;stroke:#707070;stroke-linecap:round;stroke-width:2px"/><path id="Path_3687" data-name="Path 3687" d="M1,42.31H25.15" transform="translate(0 -0.05)" style="fill:none;stroke:#707070;stroke-linecap:round;stroke-width:2px"/></g></g><g id="Group_3246" data-name="Group 3246"><g id="Path_3692-2" data-name="Path 3692-2"><path d="M32.32,51.47a13.43,13.43,0,0,1-9.7-4.14,14.46,14.46,0,0,1,0-20A13.45,13.45,0,0,1,42,27.3a14.46,14.46,0,0,1,0,20A13.44,13.44,0,0,1,32.32,51.47Z" transform="translate(0 -0.05)" style="fill:#fff"/><path d="M32.32,23.66a13,13,0,0,0-9.34,4A14,14,0,0,0,23,47a12.94,12.94,0,0,0,18.69,0,14,14,0,0,0,0-19.33,13,13,0,0,0-9.35-4m0-1A14.45,14.45,0,0,1,46.56,37.32,14.45,14.45,0,0,1,32.32,52,14.44,14.44,0,0,1,18.09,37.32,14.45,14.45,0,0,1,32.32,22.66Z" transform="translate(0 -0.05)" style="fill:#f49d00"/></g></g></g></g></svg>