<svg id="Layer_1" data-name="Layer 1" xmlns="http://www.w3.org/2000/svg" viewBox="0 0 44.53 61.79"><title>icon_egg_rest</title><g id="Group_3696" data-name="Group 3696"><g id="Group_3235" data-name="Group 3235"><g id="Group_3219" data-name="Group 3219"><g id="Group_1356" data-name="Group 1356"><g id="Group_1342" data-name="Group 1342"><g id="egg"><path id="Path_2939-2" data-name="Path 2939-2" d="M44.5,40.47C44.5,26.17,33.78,11,24.85,11S5.2,26.17,5.2,40.47,14,62.8,24.85,62.8s19.65-8,19.65-22.33" transform="translate(-0.88 -1.91)" style="fill:#ffbe86"/><path id="Path_2940" data-name="Path 2940" d="M44.51,40.48h.89a38,38,0,0,0-6.63-20.61,28.68,28.68,0,0,0-6.55-7,12.76,12.76,0,0,0-7.36-2.76,12.76,12.76,0,0,0-7.37,2.76,32,32,0,0,0-9.22,11.6,36.69,36.69,0,0,0-4,16c0,7.33,2.27,13.16,6,17.14A19.58,19.58,0,0,0,24.86,63.7a19.58,19.58,0,0,0,14.55-6.08c3.73-4,6-9.81,6-17.14h-1.8c0,7-2.13,12.31-5.51,15.92a17.83,17.83,0,0,1-13.24,5.52A17.83,17.83,0,0,1,11.61,56.4C8.23,52.79,6.1,47.45,6.1,40.48a36.13,36.13,0,0,1,6.31-19.6,26.57,26.57,0,0,1,6.13-6.56,11.06,11.06,0,0,1,6.32-2.43,11.06,11.06,0,0,1,6.31,2.43,30.33,30.33,0,0,1,8.67,10.94,35,35,0,0,1,3.77,15.22Z" transform="translate(-0.88 -1.91)" style="fill:#ffbe86"/></g><path id="Subtraction_7" data-name="Subtraction 7" d="M24.84,63.7a22,22,0,0,1-4.13-.39,19.48,19.48,0,0,1-3.86-1.16,18.67,18.67,0,0,1-6.54-4.53,21,21,0,0,1-4.4-7.31,28.86,28.86,0,0,1-1.6-9.83,33.37,33.37,0,0,1,1.08-8.26A39.34,39.34,0,0,1,10.53,20.5,34,34,0,0,1,13.12,17a27.83,27.83,0,0,0-2.34,4A32.66,32.66,0,0,0,9,25.62,35,35,0,0,0,7.9,30.67a38.17,38.17,0,0,0,0,10.78,34.45,34.45,0,0,0,1.1,5A30.72,30.72,0,0,0,10.74,51a28.09,28.09,0,0,0,2.31,4,24.43,24.43,0,0,0,2.8,3.37A20.8,20.8,0,0,0,19.08,61a17,17,0,0,0,3.58,1.77,15.54,15.54,0,0,0,3.87.83q-.83.06-1.65.06Z" transform="translate(-0.88 -1.91)" style="fill:#f2b27b"/></g></g></g></g><path id="Path_3688" data-name="Path 3688" d="M1.26,17.92l3.4-2v4.16l3.88-4.16" transform="translate(-0.88 -1.91)" style="fill:none;stroke:#707070;stroke-width:1.5px"/><path id="Path_3689" data-name="Path 3689" d="M18.76,2.64l3.83.93-2.89,3,5.69-.29" transform="translate(-0.88 -1.91)" style="fill:none;stroke:#707070;stroke-width:1.5px"/><path id="Path_3690" data-name="Path 3690" d="M32.32,14.68,36,13.17l-.58,4.13,4.42-3.59" transform="translate(-0.88 -1.91)" style="fill:none;stroke:#707070;stroke-width:1.5px"/><g id="Group_3243" data-name="Group 3243"><path id="Path_3691-2" data-name="Path 3691-2" d="M25.32,32.72A14.38,14.38,0,1,1,10.94,47.1h0A14.38,14.38,0,0,1,25.32,32.72Z" transform="translate(-0.88 -1.91)" style="fill:#fff"/></g></g></svg>