<svg id="Layer_1" data-name="Layer 1" xmlns="http://www.w3.org/2000/svg" viewBox="0 0 41.1 70.89"><title>icon_egg_finish</title><g id="Group_3737" data-name="Group 3737"><ellipse id="Ellipse_310" data-name="Ellipse 310" cx="21.63" cy="66.89" rx="19" ry="4" style="fill:#eaeaea"/><g id="Group_3244" data-name="Group 3244"><g id="Group_3235" data-name="Group 3235"><g id="Group_3219" data-name="Group 3219"><g id="Group_1356" data-name="Group 1356"><g id="Group_1342" data-name="Group 1342"><g id="egg"><path id="Path_2939-2" data-name="Path 2939-2" d="M40.51,43.64c0-14.3-10.72-29.47-19.65-29.47S1.21,29.34,1.21,43.64,10,66,20.86,66s19.65-8,19.65-22.34" transform="translate(-0.31 0)" style="fill:#ffbe86"/><path id="Path_2940" data-name="Path 2940" d="M40.51,43.64h.89A37.88,37.88,0,0,0,34.77,23a28.49,28.49,0,0,0-6.55-7,12.76,12.76,0,0,0-7.36-2.76A12.76,12.76,0,0,0,13.5,16a32.19,32.19,0,0,0-9.23,11.6,36.86,36.86,0,0,0-3.95,16c0,7.33,2.26,13.16,6,17.14a19.53,19.53,0,0,0,14.55,6.08,19.56,19.56,0,0,0,14.54-6.08c3.74-4,6-9.81,6-17.14H39.62c0,7-2.14,12.31-5.52,15.92a17.78,17.78,0,0,1-13.24,5.52A17.78,17.78,0,0,1,7.62,59.56C4.24,56,2.11,50.61,2.1,43.64A36.23,36.23,0,0,1,8.42,24a26.57,26.57,0,0,1,6.13-6.56,11,11,0,0,1,6.31-2.42,11,11,0,0,1,6.31,2.42,30.25,30.25,0,0,1,8.68,10.94,35.06,35.06,0,0,1,3.77,15.22Z" transform="translate(-0.31 0)" style="fill:#ffbe86"/></g><path id="Subtraction_7" data-name="Subtraction 7" d="M20.84,66.86a21.94,21.94,0,0,1-4.12-.39,19.28,19.28,0,0,1-3.86-1.16,18.67,18.67,0,0,1-6.54-4.53,20.88,20.88,0,0,1-4.4-7.31,28.86,28.86,0,0,1-1.6-9.83,33.22,33.22,0,0,1,1.07-8.25A39.54,39.54,0,0,1,6.53,23.66a34.1,34.1,0,0,1,2.6-3.5,28.38,28.38,0,0,0-2.34,4A31.52,31.52,0,0,0,5,28.78a36.72,36.72,0,0,0-1.11,5A36.84,36.84,0,0,0,5,49.63a33.46,33.46,0,0,0,1.74,4.56,28.09,28.09,0,0,0,2.31,4,23.26,23.26,0,0,0,2.81,3.37,19.9,19.9,0,0,0,3.23,2.62A16.57,16.57,0,0,0,18.67,66a15,15,0,0,0,3.86.83c-.54,0-1.1.06-1.65.06Z" transform="translate(-0.31 0)" style="fill:#f2b27b"/></g></g></g></g><g id="Group_3243" data-name="Group 3243"><g id="Path_3691-2" data-name="Path 3691-2"><path d="M20.43,64.35a14,14,0,1,1,9.89-4.1A13.89,13.89,0,0,1,20.43,64.35Z" transform="translate(-0.31 0)" style="fill:#fff"/><path d="M20.43,36.89a13.49,13.49,0,1,0,9.53,4,13.38,13.38,0,0,0-9.53-4m0-1A14.48,14.48,0,1,1,6,50.37,14.48,14.48,0,0,1,20.43,35.89Z" transform="translate(-0.31 0)" style="fill:#f49d00"/></g></g></g><path id="Fill_3" data-name="Fill 3" d="M20.48,0A.47.47,0,0,0,20,.33L18.94,3.6a.48.48,0,0,1-.46.33H15a.48.48,0,0,0-.49.46.46.46,0,0,0,.2.4l2.83,2a.47.47,0,0,1,.18.53l-1.08,3.29a.48.48,0,0,0,.31.6l.15,0a.52.52,0,0,0,.29-.09l2.81-2a.51.51,0,0,1,.58,0l2.81,2a.49.49,0,0,0,.77-.38.36.36,0,0,0,0-.15L23.25,7.36a.47.47,0,0,1,.18-.53l2.83-2a.48.48,0,0,0,.11-.66.47.47,0,0,0-.4-.19H22.48A.49.49,0,0,1,22,3.61L20.94.33A.47.47,0,0,0,20.48,0" transform="translate(-0.31 0)" style="fill:#faaf4a"/></g></svg>