<svg id="Layer_1" data-name="Layer 1" xmlns="http://www.w3.org/2000/svg" viewBox="0 0 58.33 65.01"><title>icon_contact_admin</title><g id="Group_3812-2" data-name="Group 3812-2"><ellipse id="Ellipse_332" data-name="Ellipse 332" cx="27.97" cy="59.51" rx="25.5" ry="5.5" style="fill:#b1e6c8"/><g id="Group_3795" data-name="Group 3795"><g id="Group_3786" data-name="Group 3786"><g id="Group_529" data-name="Group 529"><g id="Group_527" data-name="Group 527"><g id="Group_524" data-name="Group 524"><line id="Line_9" data-name="Line 9" x1="23.17" y1="46.94" x2="21.51" y2="56.85" style="fill:none;stroke:#fdaf00;stroke-linecap:round;stroke-width:2px"/><line id="Line_10" data-name="Line 10" x1="34.73" y1="46.94" x2="36.38" y2="56.85" style="fill:none;stroke:#fdaf00;stroke-linecap:round;stroke-width:2px"/></g><path id="Path_251-2" data-name="Path 251-2" d="M20.67,57.79l-2,1.39L20.44,59l.22,1.5,1.44-1.36,1.78.31-1.79-1.54Z" transform="translate(0.07 -0.75)" style="fill:#fdaf00"/><path id="Path_252-2" data-name="Path 252-2" d="M35.88,57.94l-1.54,1.85,1.76-.56,1.83,1.5L37.76,59l1.81-.09L37,57.65Z" transform="translate(0.07 -0.75)" style="fill:#fdaf00"/></g><path id="Union_4-2" data-name="Union 4-2" d="M24.26,56.65A18.91,18.91,0,0,1,22,56.06a32.84,32.84,0,0,1-9.19-3.41,19.34,19.34,0,0,1-5.11-3.92,6.34,6.34,0,0,1-1.86-4V40.08a4,4,0,0,1,.07-1c-.16-.59-.3-1.19-.42-1.79a26.14,26.14,0,0,1,0-10,25.5,25.5,0,0,1,3.62-8.91,26.16,26.16,0,0,1,2.94-3.69,24.91,24.91,0,0,1,3.56-3,24.07,24.07,0,0,1,4.11-2.39,23.37,23.37,0,0,1,22.79,2.3,24.72,24.72,0,0,1,8.72,11,25.86,25.86,0,0,1,1.4,14.73c-.06.28-.12.56-.19.85.09.44.18,1,.27,1.71.2,1.61.31,3.31.31,3.92a6.59,6.59,0,0,1-2,4.13,22.52,22.52,0,0,1-5.52,4.29,35.47,35.47,0,0,1-7.44,3.2A23.36,23.36,0,0,1,24.26,56.65Z" transform="translate(0.07 -0.75)" style="fill:#ffce00"/><g id="Group_528" data-name="Group 528"><g id="Group_526" data-name="Group 526"><g id="Group_506" data-name="Group 506"><path id="Path_240" data-name="Path 240" d="M29.08,25.82,33.23,30,29.08,31,25,30Z" transform="translate(0.07 -0.75)" style="fill:#9b6e42"/><path id="Path_241" data-name="Path 241" d="M29.05,33.78,25,30.57l4.09.67,4.18-.67Z" transform="translate(0.07 -0.75)" style="fill:#9b6e42"/></g><ellipse id="Ellipse_45" data-name="Ellipse 45" cx="42.4" cy="30.28" rx="4" ry="1.5" style="fill:#ff6e6e"/><ellipse id="Ellipse_46" data-name="Ellipse 46" cx="15.9" cy="30.28" rx="3.5" ry="1.5" style="fill:#ff6e6e"/><g id="Group_509" data-name="Group 509"><g id="Group_507" data-name="Group 507"><path id="Path_238" data-name="Path 238" d="M14.12,25.78a6.29,6.29,0,0,1,6.89,0" transform="translate(0.07 -0.75)" style="fill:none;stroke:#707070;stroke-linecap:round;stroke-width:2px"/><rect id="Rectangle_216" data-name="Rectangle 216" x="14.25" y="24.33" width="0.68" height="1.35" transform="translate(-4.81 2.83) rotate(-12.01)" style="fill:#707070"/><rect id="Rectangle_217" data-name="Rectangle 217" x="17.4" y="22.78" height="1" style="fill:#707070"/><rect id="Rectangle_218" data-name="Rectangle 218" x="19.75" y="24.53" width="1.36" height="0.68" transform="translate(-10.22 33.74) rotate(-68)" style="fill:#707070"/></g><g id="Group_508" data-name="Group 508"><path id="Path_238-2" data-name="Path 238-2" d="M37.29,25.78a6.29,6.29,0,0,1,6.89,0" transform="translate(0.07 -0.75)" style="fill:none;stroke:#707070;stroke-linecap:round;stroke-width:2px"/><rect id="Rectangle_216-2" data-name="Rectangle 216-2" x="37.43" y="24.33" width="0.68" height="1.35" transform="translate(-4.31 7.65) rotate(-12.01)" style="fill:#707070"/><rect id="Rectangle_217-2" data-name="Rectangle 217-2" x="40.4" y="22.78" width="1" height="1" style="fill:#707070"/><rect id="Rectangle_218-2" data-name="Rectangle 218-2" x="42.92" y="24.53" width="1.36" height="0.68" transform="translate(4.28 55.22) rotate(-68)" style="fill:#707070"/></g></g></g></g><path id="Path_257" data-name="Path 257" d="M51.78,39l5.58-4.75-2.69-.72,3.59-2.64-15,1.66Z" transform="translate(0.07 -0.75)" style="fill:#ffce00"/><path id="Path_258" data-name="Path 258" d="M6.44,39.21.83,34.48l2.67-.71L-.07,31.13l14.92,1.66Z" transform="translate(0.07 -0.75)" style="fill:#ffce00"/></g></g><g id="Group_1243" data-name="Group 1243"><g id="Ellipse_92" data-name="Ellipse 92"><ellipse cx="29.47" cy="23.65" rx="22.93" ry="22.86" transform="translate(-7.91 27.88) rotate(-46.33)" style="fill:none"/><path d="M50.84,24.21a1.49,1.49,0,0,1-1.49-1.44A19.9,19.9,0,0,0,9.65,22a1.5,1.5,0,1,1-3-.27A23,23,0,0,1,12.93,7.86,22.85,22.85,0,0,1,52.34,22.65a1.49,1.49,0,0,1-1.43,1.56Z" transform="translate(0.07 -0.75)" style="fill:#a2a2a2"/></g><path id="Subtraction_8" data-name="Subtraction 8" d="M8.19,19.93V32.65H7.74A6.19,6.19,0,0,1,1.8,26.26a6.2,6.2,0,0,1,5.94-6.34Z" transform="translate(0.07 -0.75)" style="fill:#0064ad"/><path id="Subtraction_9" data-name="Subtraction 9" d="M50.82,19.93V32.65h.45a6.19,6.19,0,0,0,5.94-6.39,6.2,6.2,0,0,0-5.94-6.4h-.45Z" transform="translate(0.07 -0.75)" style="fill:#0064ad"/></g><path id="Subtraction_45" data-name="Subtraction 45" d="M29.11,12h0L26.83,9.71a3.24,3.24,0,0,1-.73-1.06,3.37,3.37,0,0,1-.25-1.29V6A3.3,3.3,0,0,1,27.3,3.2l.43.33V3a3.26,3.26,0,0,1,1.38-.3,3.22,3.22,0,0,1,1.55.4v.49L31,3.28a3.35,3.35,0,0,1,1,1.15A3.39,3.39,0,0,1,32.38,6V7.34a3.27,3.27,0,0,1-.27,1.31,3.33,3.33,0,0,1-.73,1.08Z" transform="translate(0.07 -0.75)" style="fill:#ff6e6e"/></g></g></svg>