<svg id="Layer_1" data-name="Layer 1" xmlns="http://www.w3.org/2000/svg" viewBox="0 0 41.1 57.62"><title>icon_egg_process</title><g id="Group_3735" data-name="Group 3735"><ellipse id="Ellipse_309" data-name="Ellipse 309" cx="20.05" cy="53.62" rx="20" ry="4" style="fill:#eaeaea"/><g id="Group_3734" data-name="Group 3734"><g id="Group_3236" data-name="Group 3236"><g id="Group_3219" data-name="Group 3219"><g id="Group_1356" data-name="Group 1356"><g id="Group_1342" data-name="Group 1342"><g id="egg"><path id="Path_2939-2" data-name="Path 2939-2" d="M40.65,30.4C40.65,16.1,29.93.93,21,.93S1.35,16.1,1.35,30.4,10.15,52.73,21,52.73s19.65-8,19.65-22.33" transform="translate(-0.45 -0.04)" style="fill:#ffbe86"/><path id="Path_2940" data-name="Path 2940" d="M40.65,30.41h.89A37.88,37.88,0,0,0,34.91,9.8a28.49,28.49,0,0,0-6.55-7A12.76,12.76,0,0,0,21,0,12.78,12.78,0,0,0,13.63,2.8,32,32,0,0,0,4.41,14.4a36.82,36.82,0,0,0-3.95,16c0,7.33,2.26,13.16,6,17.14A19.56,19.56,0,0,0,21,53.63a19.57,19.57,0,0,0,14.55-6.08c3.73-4,6-9.81,6-17.14H39.76c0,7-2.14,12.31-5.52,15.92A17.81,17.81,0,0,1,21,51.85,17.81,17.81,0,0,1,7.76,46.33c-3.38-3.61-5.51-8.95-5.52-15.92a36.14,36.14,0,0,1,6.32-19.6,26.53,26.53,0,0,1,6.12-6.56A11,11,0,0,1,21,1.83a11,11,0,0,1,6.31,2.42A30.25,30.25,0,0,1,36,15.19a35,35,0,0,1,3.77,15.22Z" transform="translate(-0.45 -0.04)" style="fill:#ffbe86"/></g><path id="Subtraction_7" data-name="Subtraction 7" d="M21,53.63a22.05,22.05,0,0,1-4.13-.39A19.19,19.19,0,0,1,13,52.08a18.8,18.8,0,0,1-6.55-4.53,21,21,0,0,1-4.4-7.31,29.36,29.36,0,0,1-1.6-9.83,33.85,33.85,0,0,1,1.08-8.26A39.59,39.59,0,0,1,6.67,10.43a34.1,34.1,0,0,1,2.6-3.5,26.94,26.94,0,0,0-2.34,4,31.52,31.52,0,0,0-1.77,4.59A35,35,0,0,0,4.05,20.6,37.8,37.8,0,0,0,4,31.38a36,36,0,0,0,1.1,5A32.2,32.2,0,0,0,6.88,41a28.09,28.09,0,0,0,2.31,4A23.81,23.81,0,0,0,12,48.35,19.9,19.9,0,0,0,15.23,51a17,17,0,0,0,3.58,1.77,15.37,15.37,0,0,0,3.86.83q-.83.06-1.65.06Z" transform="translate(-0.45 -0.04)" style="fill:#f2b27b"/></g></g></g></g><g id="Group_3241" data-name="Group 3241"><g id="Ellipse_307-2" data-name="Ellipse 307-2"><circle cx="21.55" cy="37.11" r="14.5" style="fill:#fff"/><circle cx="21.55" cy="37.11" r="14" style="fill:none;stroke:#f49d00"/></g></g><g id="history"><g id="Group_1242" data-name="Group 1242"><g id="Group_1241" data-name="Group 1241"><path id="Path_2965" data-name="Path 2965" d="M22.33,10.86v3.47l3,1.77.5-.85-2.44-1.44v-3Z" transform="translate(-0.45 -0.04)" style="fill:#fff"/><path id="Path_2966" data-name="Path 2966" d="M23,7.38a6.25,6.25,0,0,0-6.25,6.25H14.69l2.7,2.7.05.1,2.8-2.8H18.16A4.88,4.88,0,1,1,23,18.5a4.82,4.82,0,0,1-3.45-1.43l-1,1A6.25,6.25,0,1,0,23,7.38Z" transform="translate(-0.45 -0.04)" style="fill:#fff"/></g></g></g></g></g></svg>