<svg id="Layer_1" data-name="Layer 1" xmlns="http://www.w3.org/2000/svg" viewBox="0 0 41.1 53.6"><title>icon_egg_srady</title><g id="Group_3242" data-name="Group 3242"><g id="Group_3236" data-name="Group 3236"><g id="Group_3219" data-name="Group 3219"><g id="Group_1356" data-name="Group 1356"><g id="Group_1342" data-name="Group 1342"><g id="egg"><path id="Path_2939-2" data-name="Path 2939-2" d="M40.87,31.31C40.87,17,30.15,1.83,21.21,1.83S1.56,17,1.56,31.31s8.8,22.33,19.65,22.33,19.66-8,19.66-22.33" transform="translate(-0.67 -0.94)" style="fill:#ffbe86"/><path id="Path_2940" data-name="Path 2940" d="M40.86,31.31h.9a38,38,0,0,0-6.63-20.6,28.52,28.52,0,0,0-6.55-7A12.8,12.8,0,0,0,21.21.94a12.77,12.77,0,0,0-7.36,2.77,32,32,0,0,0-9.23,11.6,36.78,36.78,0,0,0-3.95,16c0,7.33,2.26,13.16,6,17.14a19.58,19.58,0,0,0,14.55,6.09,19.59,19.59,0,0,0,14.55-6.09c3.73-4,6-9.8,6-17.14H40c0,7-2.13,12.31-5.51,15.92a17.8,17.8,0,0,1-13.25,5.52A17.79,17.79,0,0,1,8,47.23c-3.38-3.61-5.51-8.95-5.51-15.92a36.16,36.16,0,0,1,6.31-19.6A26.75,26.75,0,0,1,14.9,5.15a11.05,11.05,0,0,1,6.31-2.42,11.05,11.05,0,0,1,6.32,2.42A30.33,30.33,0,0,1,36.2,16.09,35.06,35.06,0,0,1,40,31.31Z" transform="translate(-0.67 -0.94)" style="fill:#ffbe86"/></g><path id="Subtraction_7" data-name="Subtraction 7" d="M21.19,54.53a20.39,20.39,0,0,1-4.12-.39A20.14,20.14,0,0,1,13.21,53a18.83,18.83,0,0,1-6.54-4.54,21,21,0,0,1-4.4-7.31,28.86,28.86,0,0,1-1.6-9.83,33.28,33.28,0,0,1,1.07-8.25A39.91,39.91,0,0,1,6.88,11.33a34.1,34.1,0,0,1,2.6-3.5,28.94,28.94,0,0,0-2.34,4,33.14,33.14,0,0,0-1.76,4.59,35.17,35.17,0,0,0-1.12,5.06,38.1,38.1,0,0,0,0,10.77,34.58,34.58,0,0,0,1.1,5A31.58,31.58,0,0,0,7.1,41.87a27.93,27.93,0,0,0,2.3,4,23.92,23.92,0,0,0,2.81,3.37,19.8,19.8,0,0,0,3.23,2.62A17.08,17.08,0,0,0,19,53.65a15.55,15.55,0,0,0,3.86.82c-.54,0-1.1.06-1.64.06h0Z" transform="translate(-0.67 -0.94)" style="fill:#f2b27b"/></g></g></g></g><g id="Group_3241" data-name="Group 3241"><circle id="Ellipse_307-2" data-name="Ellipse 307-2" cx="20.54" cy="37.12" r="14.5" style="fill:#fff"/></g></g></svg>