<svg id="Layer_1" data-name="Layer 1" xmlns="http://www.w3.org/2000/svg" viewBox="0 0 409.91 99.81"><title>logo_sreeya</title><g id="Layer_1-2" data-name="Layer 1-2"><circle cx="58.86" cy="22.09" r="22.09" style="fill:#fbaa19"/><path d="M48.93,68A55.63,55.63,0,0,0,59,74.7c-2.42,1.32-4.21,2.15-4.21,2.15s-10.31,5.36-25.44,4.4c0,0-14.77-.82-23.19-10.65S.45,50.6.45,50.6A17.87,17.87,0,0,1,8.51,40.1a23.63,23.63,0,0,1,22.5.13c7.08,4,8.51,7.35,17.57,12A53.74,53.74,0,0,0,54,54.67a6.66,6.66,0,0,0-4,0,6.37,6.37,0,0,0-3,2.42,7.67,7.67,0,0,0-1.33,4.06A9,9,0,0,0,48.93,68Z" transform="translate(-0.03)" style="fill:#27a9e0"/><path d="M111.82,70.6c-8.42,9.83-23.19,10.65-23.19,10.65-15.13,1-25.45-4.4-25.45-4.4S61.39,76,59,74.7A55.62,55.62,0,0,0,69,68a9.07,9.07,0,0,0,3.3-6.86,7.78,7.78,0,0,0-1.3-4,6.37,6.37,0,0,0-3.09-2.42,6.66,6.66,0,0,0-4,0,52.49,52.49,0,0,0,5.49-2.54c9.06-4.6,10.49-8,17.57-12a23.63,23.63,0,0,1,22.5-.13,17.87,17.87,0,0,1,8.06,10.5S120.25,60.77,111.82,70.6Z" transform="translate(-0.03)" style="fill:#a5cd39"/><path d="M72.31,61.14A9,9,0,0,1,69,68a55.92,55.92,0,0,1-10,6.69A55,55,0,0,1,49,68a9,9,0,0,1-3.3-6.86A7.7,7.7,0,0,1,47,57.07a6.24,6.24,0,0,1,3-2.41,6.84,6.84,0,0,1,4.15,0h0c1,.26,2,.6,3.07.78l.37.06a10.06,10.06,0,0,0,3-.06,16.26,16.26,0,0,0,3.07-.78h0a6.84,6.84,0,0,1,4.15,0A6.29,6.29,0,0,1,71,57.07,7.59,7.59,0,0,1,72.31,61.14Z" transform="translate(-0.03)" style="fill:#008541"/><path d="M188.42,38.62H177.7s-.66-8-10.79-8c-9.66,0-9.1,7.34-9.1,7.34s-.23,4.69,5.72,6.44c6.61,2,9.72,2.58,9.72,2.58s8.66,1.93,13.49,7.23c0,0,3.37,3.43,3.37,9.91a17.84,17.84,0,0,1-4,10.94s-4.89,6.42-18.29,6.42-18.61-7.08-18.61-7.08a18.62,18.62,0,0,1-3.34-5.64c-1.15-3.23-1-4.61-1-4.61h10.68s1.28,9,12.94,9c9.29,0,10.5-5,10.5-7.71s-1.41-7-9.16-8.75-14.24-3.8-18.42-7.21c-2.92-2.39-4.62-5.84-4.62-10.6a15.75,15.75,0,0,1,4.29-10.69c2.52-2.79,7.73-5.63,16.4-5.63a25.7,25.7,0,0,1,14.07,3.89S188.42,31.13,188.42,38.62Z" transform="translate(-0.03)" style="fill:#fff"/><path d="M207.32,80.15h-9.83V37.43h4.91s5-.46,5,7A13.43,13.43,0,0,1,222,36.67V46.94s-7.12-1.43-11.23,3.51c-3.87,4.66-3.38,12.17-3.38,12.17Z" transform="translate(-0.03)" style="fill:#fff"/><path d="M264.89,45.19a20.17,20.17,0,0,0-16.9-9c-12.45,0-22.36,8.72-22.36,22.65S235.54,81.37,248,81.37c8.26,0,15.27-3.44,19.41-11.07l-8.34-4a12.78,12.78,0,0,1-11,6.57c-6.28,0-12-4.19-12.4-11h33.06S270,52.64,264.89,45.19Zm-29.2,9.28a12.1,12.1,0,0,1,11.53-9.89s9.87-.33,11.52,9.89Z" transform="translate(-0.03)" style="fill:#fff"/><path d="M314.27,45.19a20.17,20.17,0,0,0-16.9-9C284.92,36.18,275,44.9,275,58.83s9.91,22.54,22.36,22.54c8.26,0,15.28-3.44,19.41-11.07l-8.34-4a12.78,12.78,0,0,1-11,6.57c-6.28,0-12-4.19-12.4-11h33.06S319.42,52.64,314.27,45.19Zm-29.2,9.28a12.1,12.1,0,0,1,11.53-9.89s9.87-.33,11.52,9.89Z" transform="translate(-0.03)" style="fill:#fff"/><path d="M319.39,37.4l17.25,42.25L334,86.07a8.52,8.52,0,0,1-11.42,3.87l-.17-.08v8.65s1.25,1.28,6,1.28A13,13,0,0,0,338.3,96c2.48-2.36,4.17-5.47,5.91-9.55s20.23-49,20.23-49h-4.36s-5.7-.22-7.27,3.64C351.67,43.84,342,68.21,342,68.21l-9.84-25.93a7.4,7.4,0,0,0-2.34-3.23,10.34,10.34,0,0,0-5.92-1.69Z" transform="translate(-0.03)" style="fill:#fff"/><path d="M405.16,37.32a5.25,5.25,0,0,0-5.25,5.25v.61c-3.34-4.44-8.11-7-15-7-11.41,0-20.67,10.09-20.67,22.55S373.55,81.3,385,81.3c7.21,0,11.19-2.68,15-7v6h9.94v-43Zm-17.74,35a13.46,13.46,0,0,1,0-26.91,13,13,0,0,1,12.49,9.79,14,14,0,0,1,0,7.32,13.07,13.07,0,0,1-12.49,9.78Z" transform="translate(-0.03)" style="fill:#fff"/></g></svg>