<svg id="Layer_1" data-name="Layer 1" xmlns="http://www.w3.org/2000/svg" viewBox="0 0 1597.08 622.41"><title>logo_sierad</title><path d="M1659.16,658l-2,0q0-13,.08-26l1.94.06Z" transform="translate(-62.08 -82.68)" style="fill:#eedd9c"/><path d="M1039.09,203.66c-4,7.59-5.95,14.94-7.34,22.42-.35,1.86-1.51,2.86-2.62,4q-48.81,51.66-99.3,101.68c-2.45,2.43-3.9,4.79-3.38,8.23.4,2.58-.36,4.44-3.37,3.82-6.07-1.25-8.93,3.34-12.44,6.65-1.65,1.55-1.53,3.06,1.23,3.05,2.1,0,1.82,1.38,1.88,2.7.08,2-1.39,2.2-2.69,1.92-7.23-1.56-11.72,2.73-16.36,7.17a253.25,253.25,0,0,1-21.53,18.51c-2.33,1.78-4.81,3.13-7.62,2.69-4.8-.76-7.83,1.81-10.47,5-4.57,5.55-9.42,10.75-15.43,14.75-2.14,1.42-2.56,3.81-3.42,5.89-2.66,6.45-7.37,9.43-14.1,8-2.78-.58-4.32-.91-3.36,2.64.6,2.24-.89,3.36-2.36,4.46-2.52,1.9-5.09,3.72-7.61,5.62-1.78,1.35-3.3,2-5.83,1-6.52-2.46-8.05-1.72-10.63,4.89-1.87,4.8-4,8.6-9.67,10-3.61.91-6.09-.86-9-1.51-2.35-.51-4.15-1-4.83,2-1.39,6.06-6,9.17-10.92,12.11-11.24,6.66-22.16,14-35.09,17.14a118.73,118.73,0,0,1-19.66,2.88c-4.44.32-8.76,2.27-12.57,4.75a24.69,24.69,0,0,1-16.06,3.89c-3.31-.28-6.67.14-10-.08-2.64-.18-4.38.66-4.3,3.33.1,3.77-1.84,4.24-5,4s-6.58-1.06-6.49,4.14c0,2.13-2.12,1.65-3.53,1.67-4.5,0-9,.24-13.49,0-4.24-.27-7.9-.19-8,5.67-7.22-7.69-12.5-7.58-23.56.09-.27-.15-.66-.23-.79-.46-1.11-1.87.57-5.16-1.57-5.88-2.71-.92-5.9-.46-8.89-.48s-2.07,2.68-2.4,4.1c-.58,2.46-1.34,3.71-4.16,3.39a50.61,50.61,0,0,0-8,0c-2.86.13-5.43.26-4.82-3.93.37-2.52-1.59-2.31-3.3-2.43-2-.15-2.74.68-2.7,2.52,0,.84.11,1.67,0,2.5-.42,5.54-3.16,8.07-8.73,8.09a60.33,60.33,0,0,1-7-.05,6.35,6.35,0,0,0-6.71,3.16,5.31,5.31,0,0,1-4.86,2.71c-37.4.82-73.88-4-108.41-19-29.58-12.83-54.64-31.34-70.36-60.45-7.76-14.38-10.68-30.2-13.46-46-.91-5.19-3.9-9.85-3.31-15.42.44-4.23-1.74-9.94,6.46-7.74-.52-3.12-2.6-3.87-4-5.17-3.59-3.45-3.48-8.11.29-11.38,1.87-1.62,4.09-3.16,5.21-5.25,1.85-3.44,4.44-7.42,2.89-11.22s-6.8-2.28-9.85-4.45c.09-.31.1-.75.31-.92,6.19-5,6.55-5.16,3-12.42-3.74-7.54-4.35-14.59-1.15-22.63,5.81-14.56,9.63-30,18.73-43.06a49.63,49.63,0,0,1,27.9-19.54c2.29-.66,3.8-.3,5.25,1.34,6,6.74,9.92,14.26,10.36,23.57,1.07,22.64-3.34,45.1-2.06,67.72,2.11,37.27,11.16,72.21,34.89,102.14,16.85,21.25,38.61,35.54,63.81,44.94a202,202,0,0,0,28.15,8c25.78,5.57,51.85,6,78,3.93,18.63-1.44,36.8-5.55,54.72-10.68,58.51-16.77,109.42-47.54,156.67-85.05,42.2-33.5,79.72-71.75,114.45-112.76,43.32-51.15,81.56-106,115.94-163.43,5.68-9.5,9.94-19.84,14.84-29.81,2.26-4.61,5.53-5.85,10.24-3.82a3.4,3.4,0,0,0,1.4.46c2.73-.19,5,.23,5.3,3.57.29,3.73-2.62,3.55-5,3.95-1.42.23-1.59,1.32-2,2.46-7.46,20.07-17.11,39.12-27.25,57.93-1.34,2.49-2.26,5.11-1.46,7.58,1.44,4.46-2.84,6.55-3.52,10,0,.24-.85.53-1.25.47-5.86-.83-5.61,3.07-5.34,6.89.38,5.42-.28,10.31-4.07,14.8-2.71,3.21-.91,7.69-1.09,11.6-.08,1.48,1.14,1.24,2.15,1.08C1035.19,204.21,1036.65,204,1039.09,203.66Z" transform="translate(-62.08 -82.68)" style="fill:#cd1143"/><path d="M166.49,565.12a68.53,68.53,0,0,1,13.41.9c2.26.36,3,.94,2.95,3.4q-.51,16.2-.5,32.41c0,3-.7,3.93-3.89,3.84a329.24,329.24,0,0,0-44.85,1.51c-1.31.14-2.58.56-3.88.79-3.7.66-8,1.54-8.1,5.89s4.3,5.55,7.69,6.68c7.67,2.55,15.67,2.64,23.67,2.53a36.43,36.43,0,0,1,20.32,5.6c7.86,5,12.23,12.35,14,21.38A54.46,54.46,0,0,1,185.21,679c-5,14.48-16.77,19.41-30.84,21.08C127,703.3,99.55,702.36,72.11,702c-2,0-3-.45-3-2.76,0-9.47,0-19-.26-28.42-.12-3.95,2.54-2.79,4.35-2.67,14.8,1,29.62.9,44.44,1a33.14,33.14,0,0,0,8.91-.8c2.89-.76,4.93-2.41,5.38-5.23s-1.45-4.67-3.59-6.09c-3.66-2.44-7.84-3.45-12.15-4a150.25,150.25,0,0,0-19.91-.75c-23.21.16-32.12-12.43-33.91-32.48-.37-4.12.17-8.33-.18-12.46-1.42-16.93,7.35-27.72,21.48-34.77a70.76,70.76,0,0,1,30.17-7.48Z" transform="translate(-62.08 -82.68)" style="fill:#036d52"/><path d="M828.6,698.67l-52.6,0c-.38-2.28-1.09-4.56-1.09-6.84q0-57.79.08-115.58c1.61-1.28,3.51-.73,5.27-.71,21.83.2,43.67-.6,65.49.52,6.62,2.27,13.43.59,20.13,1,20.27,2,34.87,17.71,36,37.93.55,9.71.24,19.07-3.79,28.1-6.55,14.68-18.37,22.18-33.69,24.88-9.23,1.63-18.53,1.4-27.83.39-6.32-.68-6.85-.2-6.88,6.15,0,7.48,0,15,0,22.44Zm-.82-76c0,3,0,6,0,8.93,0,1.3-.06,2.53,1.65,3.16,5,1.84,14-.28,17.59-4.29a11.54,11.54,0,0,0,1-13.83c-2.48-4-12.26-7.19-18.09-5-4.34,1.6-1.26,6.05-2.11,9.09A7.28,7.28,0,0,0,827.78,622.62Z" transform="translate(-62.08 -82.68)" style="fill:#fabd59"/><path d="M588.63,604.46c1.71-4.42,1.08-7.78,1-11-.08-2.69.86-3.33,3.44-3.31q20.72.18,41.43,0c2.64,0,3.38.82,3.38,3.4q-.11,51.6,0,103.21c0,3-1.18,3.54-3.82,3.52-13.47-.11-27-.15-40.43,0-2.84,0-4.44-.34-4-3.7.26-1.94-.4-3.74-2.69-1.68-9.05,8.13-20.27,7.14-31.13,7.39-5.29.12-10.68-.17-15.67-2.21-11-4.48-16.88-13.6-19-24.45-2.84-14.7-1.71-29.74-1.43-44.68.21-11,4.11-20.31,11-28.53,6.05-7.2,13.68-11.38,23.32-11.31,1.67,0,3.33,0,5,0C570.89,590.54,581.75,592.23,588.63,604.46Zm.18,45a24.62,24.62,0,0,0,0-3.65c-.88-7-4.8-11-11-11.25s-10.25,3.32-11.93,10.33a24.2,24.2,0,0,0,.93,14.62c1.59,4.2,4.43,6.36,8.93,6.62,4.91.29,8.87-1,11.12-5.74A19.59,19.59,0,0,0,588.81,649.42Z" transform="translate(-62.08 -82.68)" style="fill:#036d53"/><path d="M774,698.08c-3.12,1.69-6.47.65-9.7.72-8.49.18-17-.17-25.47.17-4.45.18-6.6-.92-5.77-5.65a7,7,0,0,0-.17-1.91c-1.79-.13-2.29,1.35-3.18,2.2a27.88,27.88,0,0,1-16.82,7.75c-7.8.88-15.59,1.67-23.29,0-15.5-3.25-23.67-14.22-27.13-28.56-4.62-19.14-4.67-38.42,2.39-57.2,11.12-29.56,45-29.87,59.93-16.69a58.35,58.35,0,0,1,4.75,5.06c.77.85,1.39,2.15,2.71,1.76s.95-2,1-3c.08-7.65.24-15.31,0-22.95-.11-3.48.85-4.6,4.43-4.52,10.82.22,21.65,0,32.47.07,1.3,0,2.68-.25,3.8.75Zm-67.69-46.56A53.14,53.14,0,0,0,707,657c1.36,6.07,4.65,9.06,10,9.37,6,.34,10.2-2.34,12.13-8.21a25.52,25.52,0,0,0,0-16.18c-1.92-5.83-6.92-8.46-13-7.25C709.83,636,706.43,641.41,706.29,651.52Z" transform="translate(-62.08 -82.68)" style="fill:#036d53"/><path d="M1266.46,637c0,18.63-.12,37.26.1,55.89,0,4.56-1.31,6.1-6,5.94-9.65-.33-19.31-.2-29-.06-3.32,0-5.42-.44-5.26-4.5.14-3.66-2.26-2.81-3.85-1.34-13.66,12.68-29.86,10.79-45.47,6.47-10.7-2.95-17-12.26-20.25-22.89-6.28-20.61-6.38-41.2,1.62-61.39,7.06-17.86,23.34-26.73,42.31-23.65a31.73,31.73,0,0,1,20.65,11.8c1,1.25,1.93,3.23,3.87,2.55s1.17-2.88,1.18-4.41c.06-7.15.1-14.31-.07-21.45-.08-3.48,1.28-4.65,4.72-4.59,10.15.16,20.32.21,30.47,0,4.09-.1,5.39,1.51,4.91,5.28a23,23,0,0,0,0,3Zm-66.94,13.44c0,1.36,0,2.19,0,3,.08,6.68,3.76,11.86,9,12.56,7.42,1,12.35-2.38,14.27-9.92a24.94,24.94,0,0,0-.66-14.22,10.47,10.47,0,0,0-10.14-7.49c-5.84-.24-8.5,1.89-10.9,7.37A18.28,18.28,0,0,0,1199.52,650.47Z" transform="translate(-62.08 -82.68)" style="fill:#fabe5a"/><path d="M1412.27,634.93c0,13-.09,25.94.07,38.9a13.18,13.18,0,0,1-3.1,8.62c-9.8,12.74-23.34,18.94-38.68,21.17-20.4,3-40.47,2.08-58.94-8.71-6.12-3.57-10.81-8.71-15.19-14.13a10,10,0,0,1-1.86-6.57c.06-23.44,0-46.88.06-70.32a19.29,19.29,0,0,1,.53-4.42c.74-3-1.58-7.15,1.46-8.77,2.47-1.33,6.17-.42,9.33-.43,10.48,0,21,.27,31.45-.11,4.81-.18,5.89,1.53,5.87,6-.13,22.77.11,45.54,0,68.32,0,4.33,1.18,6,5.59,5.65a63.84,63.84,0,0,1,10,.08c4.2.3,5.55-1.65,5.5-5.61-.15-9.64-.06-19.29-.06-28.93,0-13.3.12-26.6,0-39.9,0-3.94.91-5.63,5.31-5.53,12.64.26,25.3.17,37.94,0,3.67,0,5,1.11,4.91,4.86C1412.15,608.33,1412.27,621.63,1412.27,634.93Z" transform="translate(-62.08 -82.68)" style="fill:#fabe5a"/><path d="M509.08,373.73c0-3.09,0-5.92,0-8.75,0-1.39-.49-3.24,1.85-3.34,1.62-.06,3.56-.49,4,1.82.53,2.6,2.29,2.44,4.2,2.13,2.13-.36,1.83-2,1.85-3.5,0-3,0-6,0-9,0-7.41,3.44-12.81,10.44-15.21,5-1.7,7.37-5.76,9.89-9.57,1.53-2.32,3-4.32,5.53-5.37,1.87-.75,3.65-1.52,4.43-3.67.63-1.75,1.82-2.18,3.43-1a2.42,2.42,0,0,1,.39,3.89,26,26,0,0,1-4.18,3.39c-8.9,6.5-16.27,14-18.11,25.55-.28,1.74-1.55,3.29-2.1,5-2.58,8.07-7.87,15.08-9.36,23.57-.78,4.43,1.66,6.75,5.93,6,1.44-.24,3-1.05,3-2.23,0-5.37,4.65-8.82,5.55-13.54,1.64-8.63,5-16.73,6.89-25.34,1.71-7.89,7.49-15,14.66-20.05,6.53-4.62,13.2-9,19.89-13.4,3.47-2.28,3.76-7.17,6.24-10.55,1.49-2,2.42-3.12,4.86-3,3.38.15,6.23-.8,7.61-4.32a2.46,2.46,0,0,1,1.28-1.41c7-1.55,12.46-7.58,20.29-7.09,5.91.37,11.33-2.31,16.83-3.86,4-1.13,7.85-.79,11.76-1.08,1.44-.1,2.74.25,2.67,2.12-.08,2-1.7,1.67-2.95,1.72a45.71,45.71,0,0,1-5.49,0c-2.11-.16-3.55.39-4,2.67-.49,2.89-2.36,3.64-5,3.36-1.65-.18-3.34.11-5-.06-5.84-.6-9.76.55-13,6.75a16.44,16.44,0,0,1-15.38,9.24c-1.12-.05-2.83-.4-3.2.77-1.53,4.86-5.45,3.84-9,4.07-4.29.26-6,3-6.2,7s-.07,7.64-.06,11.46c0,2.36-.79,3.76-3.5,3.66s-3.12-1.66-3.29-3.94,1.45-5.68-1.16-6.81-4.62,1.87-6.86,3.18c-4.54,2.65-6.27,6.74-7.34,11.71-1.89,8.84-7.14,16.37-10.56,24.63-5.45,13.16-9.14,26.54-8,41,.69,8.82,8.53,17.79,19.09,21.47,15.65,5.46,31.77,5.06,47.83,3.47,22.53-2.22,43.77-9.22,63.86-19.52,24.6-12.59,46.27-28.83,63.54-50.74,10.22-13,19.75-26.18,25.77-41.71,6.33-16.33,5.1-33.47-7.87-45.48-9.08-8.41-20.25-13.11-32.47-15.12-3.59-.59-7.21-1.25-10.9-.92-2.06.18-3-.7-3-2.89s1-3.09,3.07-2.85c2.84.35,4.75-1.19,7.11-2.53,5.11-2.89,11.52-2.61,16.44-.77C748.14,251,763.92,259.22,774.9,274s16.62,31.24,15.83,49.71a33.25,33.25,0,0,1-7.56,19.14,23.35,23.35,0,0,0-5.39,16.88c.3,4.85,1.27,10.29-3.09,13.94a148.35,148.35,0,0,1-13.62,9.62c-.88.58-2.73.38-2.8,1.64-.36,6.85-6,9.7-10.47,12.74-5.87,4-9.66,10.29-16.19,13.41-1.33.64-2.46,2.08-3.91,1s0-2.48.23-3.68c.58-3.72,2.16-6.55,6.16-8.11,5.56-2.17,11.48-5,14.6-9.91,3.58-5.62,8-9.23,13.16-13.2A28.94,28.94,0,0,0,770.94,365c.76-2.12,1.81-4.68,0-5.92a5.42,5.42,0,0,0-7.23,1.13c-.66.74-1.58,1.46-1.81,2.34-1.53,6.12-8.07,8.53-10.37,14.11-.55,1.34-2.3,1.67-3.77,2.13-2.89.88-5.58,2.15-6.8,5.29a3.8,3.8,0,0,1-3.27,2.68c-1.83.23-3.55.69-4,3-.27,1.32-1.63,1.58-2.85,1.51-6.69-.39-11.43,2.44-15.12,8-1.6,2.42-4.83,3.72-7.8,4-2.65.29-4.08,1.43-4.46,3.78-.55,3.43-2.74,4.3-5.71,4-3.33-.33-6,.61-7.4,3.76s-4.58,2.73-6.93,2.78c-5.24.1-10.19.75-14.77,3.42a6.31,6.31,0,0,1-2.78,1.08c-8.14.17-14.31,4.46-20.12,9.49-1.83,1.58-3.94,1.47-6.13,1.32-10.05-.69-20,.94-29.49,3.56-18.78,5.21-37.67,6.94-56.43,2.21-25.36-6.4-37.81-25.18-43.46-49.4A52.52,52.52,0,0,1,509.08,373.73Z" transform="translate(-62.08 -82.68)" style="fill:#f8bf5c"/><path d="M328,662c3.94,9.32,11.68,11,19.42,11.85,10.72,1.12,21.35,1,31.94-2.47,4.68-1.52,10.23-.33,15.39-.38,1.17,0,1.66.53,2,1.69,2.31,8.08-.43,15.6-7.52,20.31a49,49,0,0,1-22.86,7.73c-16.07,1.47-32.17,1.87-48.12-1.55-24.55-5.25-33.58-22.51-36-41.39-1.47-11.55-1.3-23.21,2.13-34.5,5.36-17.57,17.56-28.06,35.15-32.25a98.57,98.57,0,0,1,48.83.55c21.48,5.79,29.27,17.85,31.77,38.78a124,124,0,0,1,.19,26.34c-.36,3.84-1.43,5.13-5.21,5.12-18.13,0-36.27.1-54.41.17Zm22.76-30.06c3.33,0,6.67.1,10,0,2.05-.09,4.86,1.08,6-1,1.22-2.31-.6-4.75-1.75-6.93a7.73,7.73,0,0,0-4.05-3.52c-5.6-2.32-11.28-2.15-17-.61a12.32,12.32,0,0,0-8.29,7.3c-1.25,2.84-1.22,5.18,3.16,4.87C342.75,631.67,346.77,631.9,350.76,631.9Z" transform="translate(-62.08 -82.68)" style="fill:#046d53"/><path d="M1077,586.1c12.7-.29,24.79,2,35.72,8.78,14.56,9,21.88,22.6,24.1,39.2,2.44,18.16.34,35.43-11.14,50.47-8.24,10.8-19.76,16.67-32.8,19-13.49,2.39-27,2.25-40.34-2.14-20.93-6.9-32.13-21.78-35.84-42.83a72.86,72.86,0,0,1,1.58-33.46c6.45-22.05,21.78-33.84,43.84-38A80.79,80.79,0,0,1,1077,586.1Zm20.65,60.19c.29-13.87-6.83-20.46-21.66-20-15.57.53-19.47,6.95-20,23-.35,10.89,8.54,17.8,22,17.64C1090.65,666.85,1098.94,659.36,1097.63,646.29Z" transform="translate(-62.08 -82.68)" style="fill:#fabe5a"/><path d="M1657.22,632q0,13-.08,26c-.12,2.92-1.62,3.91-4.53,3.84-19.28-.45-38.58.76-57.86-.63a30,30,0,0,0-6.9.73c-2.67.45-1.91,2.28-1.18,3.78,2.22,4.55,6.88,6,11,6.92,11.61,2.46,23.45,2.91,35-.28,6-1.64,11.86-1.17,17.81-1.34,1.86,0,2.5.87,2.76,2.69,1.55,11.16-2.2,17.59-12.72,22.27-8.21,3.66-16.88,4.78-25.69,5.36-14,.92-28,1-41.56-2.72-22.45-6.17-31.76-21.17-33.91-42.61-1.09-10.8-1.16-21.79,2.18-32.56,5.77-18.62,19-28.89,37.13-32.94a95.38,95.38,0,0,1,46.35,1.14c17.45,4.76,28.12,15.45,31,33.49C1656.5,627.41,1656.86,629.71,1657.22,632Zm-49.27-.14v0c3.49,0,7,.11,10.47,0,1.85-.08,4.34,1.07,5.39-1.23,1-2.07-.23-4.29-1.3-6.11a9.2,9.2,0,0,0-4.62-4.34c-5.81-2.15-11.58-2.53-17.47-.32-3.57,1.34-6.54,3.28-7.85,7-1.1,3.15-.59,5.15,3.42,5S1604,631.86,1608,631.86Z" transform="translate(-62.08 -82.68)" style="fill:#fabe5a"/><path d="M1523.4,617.49c0,5.15,0,10.31,0,15.46,0,3.72-2,5.44-5,3.39-10.1-6.93-21.07-5.85-32.18-4.24-8.16,1.18-14.48,7.18-14.85,13.86-.52,9.57,4.12,15.35,13.71,17.65a58,58,0,0,0,23.18.57,14.7,14.7,0,0,0,9.06-4.7,4.14,4.14,0,0,1,5-1.25c1.75.76,1,2.6,1.07,4,.29,8.12-.43,16.24.42,24.37a5.56,5.56,0,0,1-3.13,5.68,72.83,72.83,0,0,1-41.14,9.22c-12.35-.75-24.3-3.1-34.79-10.44-13.25-9.26-19.83-22-21.63-37.89-1.28-11.27-.55-22.14,3.5-32.7,7.34-19.1,22.36-28.66,41.61-32.17a83.24,83.24,0,0,1,38,1.76c5.32,1.5,10.07,4.15,15,6.37,2.08.93,2.15,2.75,2.15,4.61,0,5.48,0,11,0,16.45Z" transform="translate(-62.08 -82.68)" style="fill:#fabe5a"/><path d="M920.83,644.76c0-16.12.12-32.24-.08-48.36,0-4,1.28-5.33,5.18-5a259,259,0,0,0,36.85-.06c4-.23,5.51,1.06,5,5-.16,1.2-.64,2.89.78,3.63,1.61.84,3-.43,3.91-1.46,6.83-8,16-7.6,25.24-7.41,2.49.06,3.13,1.13,3.14,3.31,0,14.43,0,28.87.17,43.3,0,3.44-1.2,4.58-4.7,4.3-7-.56-13.87.16-20.27,3.7-5.44,3-8.36,7.15-8.28,13.51.13,11.63-.08,23.26.12,34.89.06,3.58-.78,5-4.68,4.9-12.3-.24-24.62-.22-36.92,0-4.06.06-5.57-1.16-5.52-5.39C921,677.32,920.83,661,920.83,644.76Z" transform="translate(-62.08 -82.68)" style="fill:#fabe5a"/><path d="M455.07,698.8h-29a6.15,6.15,0,0,1-3.05-5.72q.17-47.87,0-95.72c0-3.22,1-4.35,4.27-4.3,11.81.15,23.62.21,35.43,0,4-.09,5.92.89,5.37,5.2-.23,1.81.12,4.2,2.17,4.49,2.39.33,2.44-2.1,2.7-3.88a20.51,20.51,0,0,1,13.09-7.56c3.13,1.68,6.52.8,9.75.75,3.83-.06,5.34,1.19,5.29,5.17q-.27,19.68,0,39.36c0,3.5-1.12,4.46-4.56,4.58s-7.25-1.69-10.38,1.24a43.73,43.73,0,0,0-10,3.65c-.89,0-1.71.17-2,1.22l.1-.07c-5.64.81-6.1,5.18-6.16,9.45-.15,10.94,0,21.89,0,32.84,0,3.14.26,6.3-1,9.31H457C456.38,697.9,455.72,697.91,455.07,698.8Z" transform="translate(-62.08 -82.68)" style="fill:#026d52"/><path d="M219.23,698.8l-2,0c0-29.56.05-59.12-.09-88.68,0-3.83.93-5.21,5-5.12,12.3.27,24.61.12,36.91.14q.07,45.4.21,90.81c0,2.44-.74,3.09-3.09,3-12-.15-24-.16-36-.22C219.89,698.29,219.56,698.3,219.23,698.8Z" transform="translate(-62.08 -82.68)" style="fill:#026d52"/><path d="M215.37,568.18c.4-1.42,1.59-.9,2.45-.9q19.91-.06,39.81,0c.86,0,2.05-.53,2.42.9a12.24,12.24,0,0,0,0,10v3c-.29.73-.94,1.53-.83,2.2.79,5.06-1.62,6-6.19,5.86-8.75-.34-17.54-.1-26.31-.1-10.53,0-10.41,0-10.59-10.28C216.11,575.3,217.2,571.61,215.37,568.18Z" transform="translate(-62.08 -82.68)" style="fill:#046d53"/><path d="M473,598.86c-.26,1.78-.31,4.21-2.7,3.88-2.05-.29-2.4-2.68-2.17-4.49.55-4.31-1.36-5.29-5.37-5.2-11.81.23-23.62.17-35.43,0-3.3-.05-4.28,1.08-4.27,4.3q.15,47.86,0,95.72a6.15,6.15,0,0,0,3.05,5.72c-3.27.86-4.19-.33-4.18-3.71q.18-49.77,0-99.55c0-3.49,1-4.45,4.44-4.39,12.28.21,24.58.29,36.87,0,4.59-.11,6.8.8,6,5.85C468.47,601.11,470.27,601.1,473,598.86Z" transform="translate(-62.08 -82.68)" style="fill:#0d634a"/><path d="M846.94,410.63c-1.83-.55-3.47-.49-1.65-3.4a17,17,0,0,1,4.86-5c3.77-2.51,6-6.38,9.46-9.09.34-.26.72-.92.91-.86,2.45.81,2.38,3.68,4.11,5.23.7.63,1,3.56-.61,3.81-6.48,1-10.9,5.27-15.68,9.06C848,410.64,847.4,410.56,846.94,410.63Z" transform="translate(-62.08 -82.68)" style="fill:#cd1143"/><path d="M259.06,605.16c-12.3,0-24.61.13-36.91-.14-4.06-.09-5,1.29-5,5.12.14,29.56.09,59.12.09,88.68-2-.82-1-2.56-1-3.81-.06-28.87,0-57.73-.12-86.6,0-3.35.61-4.51,4.25-4.42,11.45.26,22.92,0,34.38.16C256.16,604.17,258.07,603,259.06,605.16Z" transform="translate(-62.08 -82.68)" style="fill:#0d634a"/><path d="M774,698.08l-.08-121.94,1.09.06q-.07,57.78-.08,115.58c0,2.28.71,4.56,1.09,6.84Z" transform="translate(-62.08 -82.68)" style="fill:#eedd9c"/><path d="M1053.43,180.57c1.2,5.64-4.13,7.42-5.36,11.36-.42,1.36-3.49,1.83-4,.28-.71-2-1.7-5.1.9-6.63,2-1.18,2.46-2.58,2.9-4.62s-.18-5.51,3.86-4.92C1055.47,176.6,1052.3,179.73,1053.43,180.57Z" transform="translate(-62.08 -82.68)" style="fill:#cd1143"/><path d="M166.49,565.12l-52.61,0c7.42-1.83,15-1.35,22.54-1.36C146.45,563.7,156.53,563.28,166.49,565.12Z" transform="translate(-62.08 -82.68)" style="fill:#0d634a"/><path d="M486.15,642.4c3.13-2.93,6.94-1.12,10.38-1.24s4.6-1.08,4.56-4.58q-.25-19.68,0-39.36c.05-4-1.46-5.23-5.29-5.17-3.23.05-6.62.93-9.75-.75,4.31-.06,8.63,0,12.93-.26,2.87-.19,3.16,1.11,3.14,3.48-.08,14.75-.12,29.51,0,44.27,0,2.86-.77,3.56-3.58,3.4C494.45,642,490.29,642.3,486.15,642.4Z" transform="translate(-62.08 -82.68)" style="fill:#0d634a"/><path d="M215.37,568.18c1.83,3.43.74,7.12.8,10.67.18,10.28.06,10.28,10.59,10.28,8.77,0,17.56-.24,26.31.1,4.57.18,7-.8,6.19-5.86-.11-.67.54-1.47.83-2.2.51,9.18.51,9.18-8.52,9.18-10.76,0-21.52-.09-32.27.07-3,.05-4.46-.4-4.24-3.92C215.43,580.41,215.3,574.29,215.37,568.18Z" transform="translate(-62.08 -82.68)" style="fill:#0d634a"/><path d="M467,698.8c1.27-3,1-6.17,1-9.31,0-11-.1-21.9,0-32.84.06-4.27.52-8.64,6.16-9.45-4.21,4-5.48,8.87-5.27,14.69.4,11,.18,22.11,0,33.17C469,696.38,470.58,699.13,467,698.8Z" transform="translate(-62.08 -82.68)" style="fill:#0d634a"/><path d="M1064.41,159.66c1-1.61-2.05-5.8,2.13-5.69,4,.1,1.18,4.16,2,6.3a4.27,4.27,0,0,1,0,1.95c-.21,1.56.93,4-2.2,3.84s-1.51-2.59-1.88-4.05A11,11,0,0,1,1064.41,159.66Z" transform="translate(-62.08 -82.68)" style="fill:#cd1143"/><path d="M664.42,434.4c-1.91,0-3.61,0-3.57-2.42,0-3.05,2.51-3.61,4.65-4.19,1.91-.51,2,1,2,2.45C667.58,432.58,667.44,434.67,664.42,434.4Z" transform="translate(-62.08 -82.68)" style="fill:#f8bf5c"/><path d="M1068.74,149.57c-.46-2.53.1-3.7,2.94-3.74s3,1.32,3.07,3.56c0,2.45-.15,3.91-3.32,3.87S1068.53,151.43,1068.74,149.57Z" transform="translate(-62.08 -82.68)" style="fill:#cd1143"/><path d="M865.88,577c-6.7-.4-13.51,1.28-20.13-1A40.41,40.41,0,0,1,865.88,577Z" transform="translate(-62.08 -82.68)" style="fill:#eedd9c"/><path d="M1060.49,170.5c.44-1.38-.93-3.84,1.69-3.83s1.46,2.46,1.5,3.84c0,1.22,1,3.32-1.28,3.52C1059.5,174.27,1061,171.8,1060.49,170.5Z" transform="translate(-62.08 -82.68)" style="fill:#cd1143"/><path d="M260.09,578.15a12.24,12.24,0,0,1,0-10Q260.08,573.17,260.09,578.15Z" transform="translate(-62.08 -82.68)" style="fill:#0d634a"/><path d="M474.15,647.27c.25-1,1.07-1.19,2-1.22C475.77,647,475,647.11,474.15,647.27Z" transform="translate(-62.08 -82.68)" style="fill:#0d634a"/><path d="M828.6,698.67l1.1-1.78C829.83,697.79,829.72,698.54,828.6,698.67Z" transform="translate(-62.08 -82.68)" style="fill:#eedd9c"/><path d="M455.07,698.8c.65-.89,1.31-.9,2,0Z" transform="translate(-62.08 -82.68)" style="fill:#0d634a"/><path d="M219.23,698.8c.33-.5.66-.51,1,0Z" transform="translate(-62.08 -82.68)" style="fill:#0d634a"/></svg>