<svg xmlns="http://www.w3.org/2000/svg" width="20.113" height="20.113" viewBox="0 0 20.113 20.113">
  <path id="Path_464" data-name="Path 464" d="M16.165,20.113a8.638,8.638,0,0,1-2.959-.629,22.2,22.2,0,0,1-7.465-5.112A22.216,22.216,0,0,1,.628,6.906C-.208,4.69-.21,2.872.623,2.04c.12-.12.242-.248.367-.381C1.75.86,2.609-.039,3.746,0A3.3,3.3,0,0,1,6.068,1.489c2.3,2.859,1.262,3.878.063,5.059l-.212.21c-.2.2-.567,1.1,2.882,4.554a19.124,19.124,0,0,0,2.853,2.448c.483.314,1.347.789,1.7.434l.213-.215c1.18-1.2,2.2-2.23,5.056.067a3.3,3.3,0,0,1,1.487,2.322c.047,1.137-.859,2-1.659,2.757-.132.126-.26.248-.38.367A2.635,2.635,0,0,1,16.165,20.113ZM3.665.677c-.808,0-1.538.769-2.184,1.448-.13.137-.256.269-.38.393-.62.62-.557,2.248.16,4.15A21.535,21.535,0,0,0,6.22,13.895a21.52,21.52,0,0,0,7.226,4.957c1.9.718,3.53.779,4.149.16.124-.124.256-.25.393-.379.695-.66,1.483-1.408,1.448-2.239A2.735,2.735,0,0,0,18.2,14.571c-2.381-1.915-3.046-1.239-4.15-.119l-.216.219c-.528.528-1.385.411-2.548-.345a19.754,19.754,0,0,1-2.962-2.538C5.461,8.926,4.546,7.175,5.442,6.277l.216-.213c1.122-1.1,1.8-1.77-.116-4.152A2.744,2.744,0,0,0,3.718.677Z" transform="translate(0 0)" fill="#00a651"/>
</svg>
