<?xml version="1.0" encoding="iso-8859-1"?>
<!-- Generator: Adobe Illustrator 19.0.0, SVG Export Plug-In . SVG Version: 6.00 Build 0)  -->
<svg version="1.1" id="Capa_1" xmlns="http://www.w3.org/2000/svg" xmlns:xlink="http://www.w3.org/1999/xlink" x="0px" y="0px"
	 viewBox="0 0 512 512" style="enable-background:new 0 0 512 512;" xml:space="preserve">
<g>
	<g>
		<path d="M472,196h-8c-4.418,0-8,3.582-8,8s3.582,8,8,8h8c4.418,0,8-3.582,8-8S476.418,196,472,196z"/>
	</g>
</g>
<g>
	<g>
		<path d="M440,196h-8c-4.418,0-8,3.582-8,8s3.582,8,8,8h8c4.418,0,8-3.582,8-8S444.418,196,440,196z"/>
	</g>
</g>
<g>
	<g>
		<path d="M408,196h-8c-4.418,0-8,3.582-8,8s3.582,8,8,8h8c4.418,0,8-3.582,8-8S412.418,196,408,196z"/>
	</g>
</g>
<g>
	<g>
		<path d="M96,324c-17.673,0-32,14.327-32,32c0,17.673,14.327,32,32,32s32-14.327,32-32C128,338.327,113.673,324,96,324z M96,372
			c-8.837,0-16-7.163-16-16s7.163-16,16-16s16,7.163,16,16S104.837,372,96,372z"/>
	</g>
</g>
<g>
	<g>
		<path d="M438.639,333.407c-0.008-0.008-0.015-0.015-0.023-0.023c-12.645-12.111-32.587-12.111-45.232,0
			c-12.503,12.49-12.513,32.752-0.023,45.255c12.49,12.503,32.752,12.513,45.255,0.023
			C451.119,366.171,451.129,345.91,438.639,333.407z M427.353,367.255c-0.016,0.016-0.032,0.032-0.049,0.049
			c-5.984,6.502-16.106,6.921-22.608,0.937c-6.502-5.984-6.921-16.106-0.937-22.608c0.299-0.325,0.612-0.638,0.937-0.937
			c6.316-6.065,16.292-6.065,22.608,0C433.547,350.912,433.569,361.012,427.353,367.255z"/>
	</g>
</g>
<g>
	<g>
		<path d="M512,124c0-13.255-10.745-24-24-24H328c-13.255,0-24,10.745-24,24v32h-96c-39.711-0.053-71.947,32.096-72,71.808
			c0,0.064,0,0.128,0,0.192c0,4.418-3.582,8-8,8H72c-39.746,0.044-71.956,32.254-72,72v32c0,13.255,10.745,24,24,24h16.64
			c4.391,30.574,32.736,51.8,63.311,47.409c24.574-3.529,43.88-22.836,47.409-47.409h209.28c3.843,26.079,25.305,45.978,51.6,47.84
			c1.304,0.08,2.528,0.16,3.84,0.16c27.76-0.118,51.257-20.529,55.256-48H496c8.837,0,16-7.163,16-16V244
			c0.003-2.147-0.863-4.205-2.4-5.704c1.561-3.209,2.381-6.728,2.4-10.296V124z M96,396c-22.091,0-40-17.909-40-40
			c0-22.091,17.909-40,40-40s40,17.909,40,40C135.974,378.08,118.08,395.974,96,396z M455.856,358.88
			c-1.507,20.873-18.848,37.057-39.776,37.12c-0.952,0-1.848-0.064-2.968-0.144c-20.901-1.513-37.091-18.9-37.112-39.856
			c0-0.92,0.064-1.736,0.144-2.88c1.507-20.873,18.848-37.057,39.776-37.12c0.952,0,1.848,0.064,2.792,0.128h0.192
			C439.805,317.649,455.988,335.044,456,356C456,356.92,455.936,357.736,455.856,358.88z M496,348h-24.632
			c-3.792-26.015-25.149-45.901-51.368-47.832h-0.24c-1.304-0.08-2.528-0.16-3.84-0.16c-27.76,0.118-51.257,20.529-55.256,48H151.36
			c-4.389-30.575-32.732-51.803-63.307-47.414C63.479,304.121,44.171,323.426,40.64,348H24c-4.418,0-8-3.582-8-8v-32
			c0.022-2.679,0.236-5.352,0.64-8H24c4.418,0,8-3.582,8-8s-3.582-8-8-8h-2.52c9.258-19.518,28.917-31.971,50.52-32h56
			c13.255,0,24-10.745,24-24c-0.049-30.879,24.945-55.951,55.824-56c0.059,0,0.117,0,0.176,0h96v56c0,13.255,10.745,24,24,24h168
			V348z M496,228c0,4.418-3.582,8-8,8H328c-4.418,0-8-3.582-8-8V124c0-4.418,3.582-8,8-8h160c4.418,0,8,3.582,8,8V228z"/>
	</g>
</g>
<g>
	<g>
		<path d="M280,180h-64c-30.913,0.035-55.965,25.087-56,56v8c0,4.418,3.582,8,8,8h112c4.418,0,8-3.582,8-8v-56
			C288,183.582,284.418,180,280,180z M272,236h-96c0.026-22.08,17.92-39.974,40-40h56V236z"/>
	</g>
</g>
<g>
	<g>
		<path d="M280,260h-8c-4.418,0-8,3.582-8,8s3.582,8,8,8h8c4.418,0,8-3.582,8-8S284.418,260,280,260z"/>
	</g>
</g>
<g>
</g>
<g>
</g>
<g>
</g>
<g>
</g>
<g>
</g>
<g>
</g>
<g>
</g>
<g>
</g>
<g>
</g>
<g>
</g>
<g>
</g>
<g>
</g>
<g>
</g>
<g>
</g>
<g>
</g>
</svg>
