<svg xmlns="http://www.w3.org/2000/svg" width="28.351" height="28.258" viewBox="0 0 28.351 28.258">
  <g id="Group_3797" data-name="Group 3797" transform="translate(-365.642 -93.642)">
    <g id="Group_3779" data-name="Group 3779" transform="translate(-2)">
      <g id="search" transform="translate(368.884 94.884)">
        <g id="Group_3760" data-name="Group 3760" transform="translate(17.317 17.317)">
          <g id="Group_3759" data-name="Group 3759">
            <path id="Path_3829" data-name="Path 3829" d="M356.736,355.654l-4.385-4.385a.765.765,0,0,0-1.081,1.081l4.385,4.385a.765.765,0,0,0,1.081-1.081Z" transform="translate(-351.046 -351.046)" fill="#444"/>
          </g>
        </g>
      </g>
      <g id="Group_3778" data-name="Group 3778" transform="translate(367.642 93.642)">
        <g id="Group_3757" data-name="Group 3757">
          <path id="Path_3828" data-name="Path 3828" d="M11.765,0A11.765,11.765,0,1,0,23.53,11.765,11.779,11.779,0,0,0,11.765,0Zm0,21.358a9.593,9.593,0,1,1,9.593-9.593A9.6,9.6,0,0,1,11.765,21.358Z" fill="#959595"/>
        </g>
      </g>
      <g id="search-2" data-name="search" transform="translate(370.642 96.642)">
        <g id="Group_3760-2" data-name="Group 3760" transform="translate(18.317 18.317)">
          <g id="Group_3759-2" data-name="Group 3759">
            <path id="Path_3829-2" data-name="Path 3829" d="M357.762,356.133l-4.862-4.769c-.424-.424-1.96,1.112-1.536,1.536l4.862,4.769a1.086,1.086,0,0,0,1.536-1.536Z" transform="translate(-351.046 -351.046)" fill="#d71016"/>
          </g>
        </g>
      </g>
    </g>
    <g id="Group_3796" data-name="Group 3796" transform="translate(-4676.297 -558.431)">
      <g id="pickup" transform="translate(5044.923 658.358)">
        <g id="Group_3781" data-name="Group 3781" transform="translate(14.279 3.006)">
          <g id="Group_3780" data-name="Group 3780">
            <path id="Path_3830" data-name="Path 3830" d="M456.5,196h-.25a.251.251,0,0,0,0,.5h.25a.251.251,0,0,0,0-.5Z" transform="translate(-456 -196)"/>
          </g>
        </g>
        <g id="Group_3783" data-name="Group 3783" transform="translate(13.277 3.006)">
          <g id="Group_3782" data-name="Group 3782">
            <path id="Path_3831" data-name="Path 3831" d="M424.5,196h-.25a.251.251,0,1,0,0,.5h.25a.251.251,0,0,0,0-.5Z" transform="translate(-424 -196)"/>
          </g>
        </g>
        <g id="Group_3785" data-name="Group 3785" transform="translate(12.275 3.006)">
          <g id="Group_3784" data-name="Group 3784">
            <path id="Path_3832" data-name="Path 3832" d="M392.5,196h-.25a.251.251,0,1,0,0,.5h.25a.251.251,0,0,0,0-.5Z" transform="translate(-392 -196)"/>
          </g>
        </g>
        <g id="Group_3787" data-name="Group 3787" transform="translate(2.004 7.014)">
          <g id="Group_3786" data-name="Group 3786">
            <path id="Path_3833" data-name="Path 3833" d="M65,324a1,1,0,1,0,1,1A1,1,0,0,0,65,324Zm0,1.5a.5.5,0,1,1,.5-.5A.5.5,0,0,1,65,325.5Z" transform="translate(-64 -324)"/>
          </g>
        </g>
        <g id="Group_3789" data-name="Group 3789" transform="translate(12.024 7.024)">
          <g id="Group_3788" data-name="Group 3788">
            <path id="Path_3834" data-name="Path 3834" d="M385.711,324.586h0a1.024,1.024,0,0,0-1.416,0,1,1,0,1,0,1.417,0Zm-.353,1.06,0,0a.5.5,0,0,1-.737-.679l.029-.029a.511.511,0,0,1,.708,0A.5.5,0,0,1,385.358,325.646Z" transform="translate(-384 -324.301)"/>
          </g>
        </g>
        <g id="Group_3791" data-name="Group 3791" transform="translate(0 0)">
          <g id="Group_3790" data-name="Group 3790">
            <path id="Path_3835" data-name="Path 3835" d="M16.032,100.752a.752.752,0,0,0-.752-.752h-5.01a.752.752,0,0,0-.752.752v1H6.513A2.252,2.252,0,0,0,4.259,104v.006a.251.251,0,0,1-.251.251H2.255A2.257,2.257,0,0,0,0,106.513v1a.752.752,0,0,0,.752.752h.521a1.751,1.751,0,0,0,3.467,0h6.553a1.759,1.759,0,0,0,1.616,1.5c.041,0,.079.005.12.005a1.756,1.756,0,0,0,1.73-1.5h.772a.5.5,0,0,0,.5-.5v-3.257a.249.249,0,0,0-.075-.179.746.746,0,0,0,.075-.322ZM3.006,109.269a1.253,1.253,0,1,1,1.253-1.253A1.253,1.253,0,0,1,3.006,109.269Zm11.268-1.162a1.253,1.253,0,0,1-1.246,1.162c-.03,0-.058,0-.093,0a1.253,1.253,0,0,1-1.162-1.248c0-.029,0-.054,0-.09a1.253,1.253,0,0,1,1.246-1.162c.03,0,.058,0,.087,0h.006a1.252,1.252,0,0,1,1.162,1.249C14.279,108.045,14.277,108.07,14.274,108.106Zm1.257-.341H14.76a1.756,1.756,0,0,0-1.608-1.5h-.008c-.041,0-.079-.005-.12-.005a1.756,1.756,0,0,0-1.73,1.5H4.74a1.751,1.751,0,0,0-3.467,0H.752a.251.251,0,0,1-.251-.251v-1a1.756,1.756,0,0,1,.02-.251h.23a.251.251,0,1,0,0-.5H.673a1.753,1.753,0,0,1,1.582-1H4.008a.752.752,0,0,0,.752-.752,1.751,1.751,0,0,1,1.748-1.754H9.519v1.754a.752.752,0,0,0,.752.752h5.261Zm0-3.758a.251.251,0,0,1-.251.251h-5.01a.251.251,0,0,1-.251-.251v-3.257a.251.251,0,0,1,.251-.251h5.01a.251.251,0,0,1,.251.251Z" transform="translate(0 -100)"/>
          </g>
        </g>
        <g id="Group_3793" data-name="Group 3793" transform="translate(5.01 2.505)">
          <g id="Group_3792" data-name="Group 3792">
            <path id="Path_3836" data-name="Path 3836" d="M163.758,180h-2A1.756,1.756,0,0,0,160,181.754V182a.251.251,0,0,0,.251.251h3.507a.251.251,0,0,0,.251-.251V180.25A.251.251,0,0,0,163.758,180Zm-.251,1.754H160.5a1.254,1.254,0,0,1,1.253-1.253h1.754Z" transform="translate(-160 -180)"/>
          </g>
        </g>
        <g id="Group_3795" data-name="Group 3795" transform="translate(8.267 5.01)">
          <g id="Group_3794" data-name="Group 3794">
            <path id="Path_3837" data-name="Path 3837" d="M264.5,260h-.251a.251.251,0,0,0,0,.5h.251a.251.251,0,0,0,0-.5Z" transform="translate(-264 -260)"/>
          </g>
        </g>
      </g>
    </g>
  </g>
</svg>
