<svg id="Layer_1" data-name="Layer 1" xmlns="http://www.w3.org/2000/svg" xmlns:xlink="http://www.w3.org/1999/xlink" viewBox="0 0 52.99 58.17">
  <defs>
    <linearGradient id="linear-gradient" x1="-546.36" y1="9.33" x2="-547.36" y2="9.34" gradientTransform="translate(29003.62 -513.95) scale(52.99 58.17)" gradientUnits="userSpaceOnUse">
      <stop offset="0" stop-color="#02b8e9"/>
      <stop offset="1" stop-color="#4374ba"/>
    </linearGradient>
  </defs>
  <title>transporter_egg_4</title>
  <path id="Subtraction_47-2" data-name="Subtraction 47-2" d="M53,58.17H4.07c-.3-.93-.58-1.87-.85-2.8C-.13,43.52-.9,31.75,1.08,22.23a34.74,34.74,0,0,1,3-8.81,22.87,22.87,0,0,1,5.07-6.8,22.94,22.94,0,0,1,7.27-4.33,35.64,35.64,0,0,1,9.07-2A37.7,37.7,0,0,1,30.43,0,68.68,68.68,0,0,1,46.88,2.16c2,.5,4.08,1.1,6.11,1.77Z" transform="translate(0)" fill="url(#linear-gradient)"/>
</svg>
