<svg id="Layer_1" data-name="Layer 1" xmlns="http://www.w3.org/2000/svg" xmlns:xlink="http://www.w3.org/1999/xlink" viewBox="0 0 51.99 107.05"><defs><linearGradient id="linear-gradient" x1="-263.81" y1="456.4" x2="-264.81" y2="456.4" gradientTransform="matrix(51.99, 0, 0, -107.05, 13775.43, 48918.37)" gradientUnits="userSpaceOnUse"><stop offset="0" stop-color="#00a651"/><stop offset="1" stop-color="#54b948"/></linearGradient></defs><title>egg_2</title><path id="Subtraction_46-2" data-name="Subtraction 46-2" d="M61,113.05h0a49.52,49.52,0,0,1-16-6.27A67.05,67.05,0,0,1,29.75,94,75.92,75.92,0,0,1,19.12,78.62a90,90,0,0,1-6.9-17.26C8.87,49.52,8.11,37.75,10.08,28.22a36,36,0,0,1,3-8.8,23.25,23.25,0,0,1,5.07-6.81,23.08,23.08,0,0,1,7.3-4.33,35.71,35.71,0,0,1,9.07-2A49.19,49.19,0,0,1,39.43,6,68.12,68.12,0,0,1,55.88,8.16c1.69.42,3.41.9,5.11,1.44Z" transform="translate(-9.01 -6)" style="fill:url(#linear-gradient)"/></svg>