<svg xmlns="http://www.w3.org/2000/svg" viewBox="0 0 47.53 26.72"><title>box</title><g id="Layer_2" data-name="Layer 2"><g id="Layer_1-2" data-name="Layer 1"><g id="Group_3343" data-name="Group 3343"><g id="Group_2067" data-name="Group 2067"><path id="Path_1114" data-name="Path 1114" d="M46.16,23.47H36v-.38H22.14V20.84H18.33L12,22.46v.07H2.73V20.84H.7V18.77H46.16ZM16.24,20.84H12v1.09Z" style="fill-rule:evenodd"/><path id="Path_1115" data-name="Path 1115" d="M7.69,20.22A3.25,3.25,0,1,1,4.5,23.53v-.06A3.22,3.22,0,0,1,7.69,20.22Z" style="fill:#4d4d4d"/><path id="Path_1116" data-name="Path 1116" d="M7.69,22.12a1.38,1.38,0,1,1-1.35,1.4v0A1.36,1.36,0,0,1,7.69,22.12Z" style="fill:#fff"/><path id="Path_1117" data-name="Path 1117" d="M39.37,12,44,13.51c1.84.58,2.6,7.31,2.6,10.1h-.86s-1.94-4.4-4.33-4.4A4.41,4.41,0,0,0,37,23.61H30.11V8.27h6.38C37.8,8.27,38.16,9.59,39.37,12Z" style="fill:#ffac10;fill-rule:evenodd"/><path id="Path_1119" data-name="Path 1119" d="M41.37,20.22a3.25,3.25,0,1,1-3.19,3.31v-.06A3.22,3.22,0,0,1,41.37,20.22Z" style="fill:#4d4d4d"/><path id="Path_1120" data-name="Path 1120" d="M41.37,22.12A1.38,1.38,0,1,1,40,23.52v0A1.36,1.36,0,0,1,41.37,22.12Z" style="fill:#fff"/><path id="Path_1121" data-name="Path 1121" d="M47.53,20.62H44.48a4.48,4.48,0,0,1,1.12,2.91v.28h.68c1.06,0,1.25-1.2,1.25-3.19Zm-9.28,0H29.91v3.19h7.23v-.28a4.3,4.3,0,0,1,1.11-2.91Z" style="fill:#ff8710;fill-rule:evenodd"/><path id="Path_1122" data-name="Path 1122" d="M36.16,9.27H31.87v3.78h6.87c-1-2.19-1.47-3.78-2.58-3.78Z" style="fill-rule:evenodd"/><ellipse id="Ellipse_137" data-name="Ellipse 137" cx="45" cy="18" rx="1.5" ry="0.5" style="fill:#ffac10"/><path id="Rectangle_503" data-name="Rectangle 503" d="M30.5,14.5h2v3h-1a1,1,0,0,1-1-1v-2Z" style="fill:#4d4d4d"/><g id="Group_2399" data-name="Group 2399"><rect id="Rectangle_442" data-name="Rectangle 442" x="0.5" y="0.5" width="29" height="19" style="fill:#d1d1d1;stroke:#bcbcbc"/><g id="Group_2393" data-name="Group 2393"><line id="Line_73" data-name="Line 73" x1="10.2" y1="4.87" x2="10.2" y2="13.05" style="fill:none;stroke:#fff;stroke-linecap:round"/><line id="Line_74" data-name="Line 74" x1="15.92" y1="4.87" x2="15.92" y2="13.05" style="fill:none;stroke:#fff;stroke-linecap:round"/><line id="Line_75" data-name="Line 75" x1="21.64" y1="4.87" x2="21.64" y2="13.05" style="fill:none;stroke:#fff;stroke-linecap:round"/></g></g></g></g></g></g></svg>