<svg id="Layer_1" data-name="Layer 1" xmlns="http://www.w3.org/2000/svg" xmlns:xlink="http://www.w3.org/1999/xlink" viewBox="0 0 140.22 232.44"><defs><linearGradient id="linear-gradient" x1="-232.54" y1="514.41" x2="-233.54" y2="514.41" gradientTransform="matrix(139.16, 0, 0, -232.44, 32499.65, 119688.57)" gradientUnits="userSpaceOnUse"><stop offset="0" stop-color="#f49d00"/><stop offset="1" stop-color="#ffd281"/></linearGradient></defs><title>egg_3</title><g id="Group_3732" data-name="Group 3732"><path id="Subtraction_43-2" data-name="Subtraction 43-2" d="M104.68,232.52H-.16V18.23C1.9,16.47,4,14.8,6.1,13.27A76.77,76.77,0,0,1,23.41,3.6a46.5,46.5,0,0,1,35.52,0,76.77,76.77,0,0,1,17.31,9.67A115.47,115.47,0,0,1,92.58,27.94a157.67,157.67,0,0,1,14.85,18.74,186.55,186.55,0,0,1,12.73,21.94,192.06,192.06,0,0,1,10,24.28,180.26,180.26,0,0,1,6.51,25.76A155.77,155.77,0,0,1,139,145.05c0,17-2.55,32.83-7.61,46.91a100.19,100.19,0,0,1-20.95,34.92c-1.83,2-3.77,3.86-5.76,5.63Z" transform="translate(1.22 -0.07)" style="fill:url(#linear-gradient)"/><path id="Path_3829" data-name="Path 3829" d="M123.34,77.27l-28,37.46L76.67,89.58l-26,55.4L29,114.73.28,136.11h0" transform="translate(1.22 -0.07)" style="fill:none;stroke:#f49d00;stroke-linecap:round;stroke-width:3px"/></g></svg>