<svg id="Layer_1" data-name="Layer 1" xmlns="http://www.w3.org/2000/svg" xmlns:xlink="http://www.w3.org/1999/xlink" viewBox="0 0 45.99 58.17"><defs><linearGradient id="linear-gradient" x1="-266.06" y1="428.36" x2="-267.06" y2="428.36" gradientTransform="matrix(45.99, 0, 0, -58.17, 12290.04, 24954.72)" gradientUnits="userSpaceOnUse"><stop offset="0" stop-color="#00a651"/><stop offset="1" stop-color="#54b948"/></linearGradient></defs><title>egg_4</title><path id="Subtraction_49-2" data-name="Subtraction 49-2" d="M55,64.17H13.07c-.3-.93-.58-1.87-.85-2.81C8.87,49.52,8.11,37.75,10.08,28.22a35.15,35.15,0,0,1,3-8.8,22.87,22.87,0,0,1,5.07-6.8,23.36,23.36,0,0,1,7.29-4.34,35.71,35.71,0,0,1,9.07-2A49.39,49.39,0,0,1,39.43,6,67.45,67.45,0,0,1,55,7.94V64.17Z" transform="translate(-9 -6)" style="fill:url(#linear-gradient)"/></svg>
