<svg id="Layer_1" data-name="Layer 1" xmlns="http://www.w3.org/2000/svg" xmlns:xlink="http://www.w3.org/1999/xlink" viewBox="0 0 147.16 232.44"><defs><linearGradient id="linear-gradient" x1="-229.49" y1="517.34" x2="-230.49" y2="517.34" gradientTransform="matrix(147.16, 0, 0, -232.44, 33919.28, 120370.83)" gradientUnits="userSpaceOnUse"><stop offset="0" stop-color="#b5070c"/><stop offset="1" stop-color="#d71016"/></linearGradient></defs><title>egg_3</title><path id="Subtraction_45-2" data-name="Subtraction 45-2" d="M111.85,235.44H-1V28.68A114.39,114.39,0,0,1,13.26,16.19,76.55,76.55,0,0,1,30.57,6.52a46.5,46.5,0,0,1,35.52,0A76.77,76.77,0,0,1,83.4,16.19,116.16,116.16,0,0,1,99.74,30.87a156.87,156.87,0,0,1,14.85,18.74,186.4,186.4,0,0,1,12.74,21.94,192.88,192.88,0,0,1,10,24.28,179.59,179.59,0,0,1,6.51,25.76A154.57,154.57,0,0,1,146.16,148c0,17-2.55,32.83-7.61,46.91a100.15,100.15,0,0,1-21,34.91c-1.84,2-3.77,3.86-5.76,5.64Z" transform="translate(1 -3)" style="fill:url(#linear-gradient)"/></svg>
