<svg id="Layer_1" data-name="Layer 1" xmlns="http://www.w3.org/2000/svg" xmlns:xlink="http://www.w3.org/1999/xlink" viewBox="0 0 52.99 58.17"><defs><linearGradient id="linear-gradient" x1="-272.62" y1="422.94" x2="-273.62" y2="422.93" gradientTransform="matrix(52.99, 0, 0, -58.17, 14498.69, 24633.04)" gradientUnits="userSpaceOnUse"><stop offset="0" stop-color="#b5070c"/><stop offset="1" stop-color="#d71016"/></linearGradient></defs><title>egg_4</title><path id="Subtraction_47-2" data-name="Subtraction 47-2" d="M53.27,58.74H4.35c-.3-.93-.58-1.87-.85-2.8C.15,44.09-.62,32.32,1.36,22.8a35.09,35.09,0,0,1,3-8.81,22.87,22.87,0,0,1,5.07-6.8A23,23,0,0,1,16.7,2.86a35.72,35.72,0,0,1,9.07-2C27.36.65,29,.57,30.71.57A68.62,68.62,0,0,1,47.16,2.73c2,.5,4.08,1.1,6.11,1.77Z" transform="translate(-0.28 -0.57)" style="fill:url(#linear-gradient)"/></svg>
