<svg id="Layer_1" data-name="Layer 1" xmlns="http://www.w3.org/2000/svg" viewBox="0 0 20.6 19.21"><title>icon_contact_headphone</title><g id="headphone"><path id="Path_9504" data-name="Path 9504" d="M10.3.42,9.71,1l.59.64A7.67,7.67,0,0,1,18,9.34v5h1.26v-5A8.93,8.93,0,0,0,10.3.42Z" transform="translate(0 0)" style="fill:#707070"/><path id="Path_9505" data-name="Path 9505" d="M1.38,9.34v5H2.65v-5A7.66,7.66,0,0,1,10.3,1.68V.42A8.94,8.94,0,0,0,1.38,9.34Z" transform="translate(0 0)" style="fill:#b4b4b4"/><path id="Path_9506" data-name="Path 9506" d="M15.26,1.42A9.32,9.32,0,0,0,10.3,0L9.46,1.09l.84,1a7.24,7.24,0,0,1,6.47,4l1.87-1A9.29,9.29,0,0,0,15.26,1.42Z" transform="translate(0 0)" style="fill:#206bc1"/><path id="Path_9507" data-name="Path 9507" d="M5.34,1.42A9.44,9.44,0,0,0,2,5.13l1.88,1a7.24,7.24,0,0,1,6.46-4V0A9.37,9.37,0,0,0,5.34,1.42Z" transform="translate(0 0)" style="fill:#2577d6"/><path id="Path_9508" data-name="Path 9508" d="M18.6,12.29l-.84,2.39.84,2.39a2.42,2.42,0,0,0,2-2.39h0A2.42,2.42,0,0,0,18.6,12.29Z" transform="translate(0 0)" style="fill:#2577d6"/><path id="Path_9509" data-name="Path 9509" d="M18.18,12.25H16.6v4.86h1.58a3,3,0,0,0,.42,0V12.29A2,2,0,0,0,18.18,12.25Z" transform="translate(0 0)" style="fill:#206bc1"/><path id="Path_9510" data-name="Path 9510" d="M4.94,10.14H4.8L4,14.68l.84,4.53h.14a1.5,1.5,0,0,0,1.5-1.49h0V11.64a1.5,1.5,0,0,0-1.5-1.5Z" transform="translate(0 0)" style="fill:#424242"/><path id="Path_9511" data-name="Path 9511" d="M4.66,10.14a1.49,1.49,0,0,0-1.49,1.5h0v6.08a1.49,1.49,0,0,0,1.49,1.49H4.8V10.15H4.66Z" transform="translate(0 0)" style="fill:#707070"/><path id="Path_9512" data-name="Path 9512" d="M2,12.29l-.84,2.39L2,17.07a3.13,3.13,0,0,0,.43,0h.74V12.25H2.43A2.09,2.09,0,0,0,2,12.29Z" transform="translate(0 0)" style="fill:#206bc1"/><path id="Path_9513" data-name="Path 9513" d="M0,14.68H0a2.42,2.42,0,0,0,2,2.39V12.29A2.42,2.42,0,0,0,0,14.68Z" transform="translate(0 0)" style="fill:#2577d6"/><path id="Path_9514" data-name="Path 9514" d="M16,10.14h-.14L15,14.68l.84,4.53H16a1.49,1.49,0,0,0,1.49-1.49V11.64A1.5,1.5,0,0,0,16,10.14Z" transform="translate(0 0)" style="fill:#424242"/><path id="Path_9515" data-name="Path 9515" d="M15.67,10.14a1.5,1.5,0,0,0-1.5,1.5h0v6.08a1.49,1.49,0,0,0,1.5,1.49h.14V10.15h-.14Z" transform="translate(0 0)" style="fill:#707070"/></g></svg>