<svg xmlns="http://www.w3.org/2000/svg" viewBox="0 0 23.45 21.98"><title>darurat merah</title><g id="Layer_2" data-name="Layer 2"><g id="Layer_1-2" data-name="Layer 1"><g id="Group_4698" data-name="Group 4698"><g id="Group_4696" data-name="Group 4696"><g id="Group_477" data-name="Group 477"><path id="Path_215" data-name="Path 215" d="M19.05,18.32H18.5L17,10a3.2,3.2,0,0,0-3.16-2.63H9.58A3.18,3.18,0,0,0,6.43,10L4.94,18.32H4.39A1.37,1.37,0,0,0,3,19.69v1.84a.45.45,0,0,0,.46.45H20a.45.45,0,0,0,.46-.45V19.69a1.37,1.37,0,0,0-1.37-1.37ZM7.33,10.13A2.29,2.29,0,0,1,9.59,8.25h4.27a2.29,2.29,0,0,1,2.25,1.88l1.46,8.2H5.87ZM19.5,21.07H3.94V19.69a.45.45,0,0,1,.45-.45H19.05a.45.45,0,0,1,.45.45Z" fill="#a2a1a1"/><path id="Path_9474" data-name="Path 9474" d="M5.23,18.66,7.09,9.24S8.09,8,8.91,7.88a39.4,39.4,0,0,1,5.54,0,4.22,4.22,0,0,1,1.87,1.36l1.85,9.42s1.56.13,1.71.66a11.55,11.55,0,0,1,0,2.2H3.51a10,10,0,0,1,.11-2.38C3.83,18.82,5.23,18.66,5.23,18.66Z" fill="#f15d5f"/></g></g><g id="Group_4697" data-name="Group 4697"><path id="Path_1336" data-name="Path 1336" d="M5.32,18.12,7.29,9,9.16,7.72H14.7L16.19,9l1.95,9.87h1.43l.61,1.3v1.26H3.5V19.5l.69-.66H5Z" fill="none"/><g id="siren"><g id="Group_476" data-name="Group 476"><g id="Group_475" data-name="Group 475"><path id="Path_214" data-name="Path 214" d="M14.93,11a.46.46,0,1,0,.45.46.46.46,0,0,0-.45-.46Z" fill="#fff"/></g></g><g id="Group_478" data-name="Group 478"><g id="Group_477-2" data-name="Group 477-2"><path id="Path_215-2" data-name="Path 215-2" d="M19.05,18.32H18.5L17,10a3.2,3.2,0,0,0-3.16-2.63H9.58A3.18,3.18,0,0,0,6.43,10L4.94,18.32H4.39A1.37,1.37,0,0,0,3,19.69v1.84a.45.45,0,0,0,.46.45H20a.45.45,0,0,0,.46-.45V19.69a1.37,1.37,0,0,0-1.37-1.37ZM7.33,10.13A2.29,2.29,0,0,1,9.59,8.25h4.27a2.29,2.29,0,0,1,2.25,1.88l1.46,8.2H5.87ZM19.5,21.07H3.94V19.69a.45.45,0,0,1,.45-.45H19.05a.45.45,0,0,1,.45.45Z" fill="#fff"/></g></g><g id="Group_480" data-name="Group 480"><g id="Group_479" data-name="Group 479"><path id="Path_216" data-name="Path 216" d="M16.4,16.86l-.67-3.7a.46.46,0,0,0-.9.16L15.5,17a.46.46,0,0,0,.91-.12S16.4,16.88,16.4,16.86Z" fill="#fff"/></g></g><g id="Group_482" data-name="Group 482"><g id="Group_481" data-name="Group 481"><path id="Path_217" data-name="Path 217" d="M23,11H19.05a.46.46,0,0,0-.46.46.47.47,0,0,0,.46.46H23A.46.46,0,0,0,23,11Z" fill="#fff"/></g></g><g id="Group_484" data-name="Group 484"><g id="Group_483" data-name="Group 483"><path id="Path_218" data-name="Path 218" d="M4.4,11H.46a.46.46,0,0,0-.46.46.47.47,0,0,0,.46.46H4.4a.46.46,0,0,0,0-.92Z" fill="#fff"/></g></g><g id="Group_486" data-name="Group 486"><g id="Group_485" data-name="Group 485"><path id="Path_219" data-name="Path 219" d="M19.81,3.35a.45.45,0,0,0-.64,0h0L16.58,5.94a.46.46,0,0,0,0,.65.45.45,0,0,0,.64,0h0L19.81,4a.46.46,0,0,0,0-.65Z" fill="#fff"/></g></g><g id="Group_488" data-name="Group 488"><g id="Group_487" data-name="Group 487"><path id="Path_220" data-name="Path 220" d="M6.86,5.94,4.27,3.35a.46.46,0,0,0-.65,0,.48.48,0,0,0,0,.65L6.21,6.59a.46.46,0,1,0,.65-.65Z" fill="#fff"/></g></g><g id="Group_490" data-name="Group 490"><g id="Group_489" data-name="Group 489"><path id="Path_221" data-name="Path 221" d="M11.72,0a.47.47,0,0,0-.46.46V4.12a.46.46,0,1,0,.92,0V.46A.47.47,0,0,0,11.72,0Z" fill="#fff"/></g></g></g></g></g></g></g></svg>