<svg id="Layer_1" data-name="Layer 1" xmlns="http://www.w3.org/2000/svg" viewBox="0 0 17.52 17.53"><title>icon_contact_email</title><path id="Path_10753" data-name="Path 10753" d="M7.76.06A8.76,8.76,0,0,0,9.44,17.5,9,9,0,0,0,14.88,15l.12-.12a.35.35,0,0,0,0-.51h0l-.5-.54a.36.36,0,0,0-.51,0h0l-.27.24A7.3,7.3,0,1,1,9,1.46,7.45,7.45,0,0,1,16.07,9v.53A1.46,1.46,0,0,1,14.6,11h-.14a1.51,1.51,0,0,1-1.32-1.52V6.21a.37.37,0,0,0-.36-.37h-.73a.38.38,0,0,0-.33.21,4,4,0,1,0-.25,5.67,3.74,3.74,0,0,0,.64-.74,2.91,2.91,0,0,0,2.7,1.43,3,3,0,0,0,2.71-3V8.76A8.76,8.76,0,0,0,8.74,0,8.06,8.06,0,0,0,7.76.06Zm1,11.26a2.56,2.56,0,1,1,2.56-2.56h0a2.56,2.56,0,0,1-2.56,2.56Z" transform="translate(0 0)" style="fill:#ff4d4d"/></svg>