<svg id="Layer_1" data-name="Layer 1" xmlns="http://www.w3.org/2000/svg" viewBox="0 0 17.97 24.16"><title>icon_padlock</title><g id="Group_2773" data-name="Group 2773"><g id="Group_1317" data-name="Group 1317"><g id="lock"><g id="Group_1315" data-name="Group 1315"><path id="Path_3004" data-name="Path 3004" d="M17.46,9.18H16v-2a7,7,0,1,0-14-.4V9.19H.5a.5.5,0,0,0-.5.5V22.16a2,2,0,0,0,2,2H16a2,2,0,0,0,2-2V9.68a.51.51,0,0,0-.5-.5Zm-7,10.42a.48.48,0,0,1-.44.55H8a.5.5,0,0,1-.5-.5V19.6l.32-2.83A2,2,0,1,1,11,15.17a2,2,0,0,1-.81,1.6ZM13,9.18H5v-2a4,4,0,0,1,8-.13V9.18Z" transform="translate(0 0)" style="fill:#00a651"/></g></g></g></g></svg>
