<?xml version="1.0" encoding="utf-8"?>
<!-- Generator: Adobe Illustrator 23.0.1, SVG Export Plug-In . SVG Version: 6.00 Build 0)  -->
<svg version="1.1" id="Layer_1" xmlns="http://www.w3.org/2000/svg" xmlns:xlink="http://www.w3.org/1999/xlink" x="0px" y="0px"
	 viewBox="0 0 28.9 27.1" style="enable-background:new 0 0 28.9 27.1;" xml:space="preserve">
<style type="text/css">
	.st0{fill:#008AF6;}
</style>
<g id="Group_2110" transform="translate(-1294.724 1685.324)">
	<g id="siren" transform="translate(1294.724 -1685.324)">
		<g id="Group_476" transform="translate(17.863 13.567)">
			<g id="Group_475">
				<path id="Path_214" class="st0" d="M0.6,0C0.3,0,0,0.3,0,0.6s0.3,0.6,0.6,0.6s0.6-0.3,0.6-0.6S0.9,0,0.6,0L0.6,0z"/>
			</g>
		</g>
		<g id="Group_478" transform="translate(3.731 9.044)">
			<g id="Group_477" transform="translate(0 0)">
				<path id="Path_215" class="st0" d="M19.8,13.6h-0.7L17.3,3.2c-0.3-1.9-2-3.3-3.9-3.2H8.1C6.2,0,4.5,1.4,4.2,3.3L2.4,13.6H1.7
					c-0.9,0-1.7,0.8-1.7,1.7v2.3c0,0.3,0.3,0.6,0.6,0.6c0,0,0,0,0,0h20.3c0.3,0,0.6-0.3,0.6-0.6l0,0v-2.3
					C21.5,14.3,20.7,13.6,19.8,13.6z M5.3,3.5c0.2-1.3,1.4-2.3,2.8-2.3h5.3c1.4,0,2.5,1,2.8,2.3L18,13.6H3.5L5.3,3.5z M20.3,17H1.1
					v-1.7c0-0.3,0.3-0.6,0.6-0.6h18.1c0.3,0,0.6,0.3,0.6,0.6L20.3,17z"/>
			</g>
		</g>
		<g id="Group_480" transform="translate(18.299 15.785)">
			<g id="Group_479">
				<path id="Path_216" class="st0" d="M2,5L1.1,0.5C1.1,0.2,0.8,0,0.5,0C0.2,0.1,0,0.4,0,0.7l0.8,4.6c0.1,0.3,0.4,0.5,0.7,0.4
					C1.8,5.6,2,5.3,2,5z"/>
			</g>
		</g>
		<g id="Group_482" transform="translate(22.95 13.567)">
			<g id="Group_481">
				<path id="Path_217" class="st0" d="M5.4,0H0.6C0.3,0,0,0.3,0,0.6c0,0.3,0.3,0.6,0.6,0.6h4.9C5.7,1.1,6,0.9,6,0.6
					C6,0.3,5.7,0,5.4,0z"/>
			</g>
		</g>
		<g id="Group_484" transform="translate(0 13.567)">
			<g id="Group_483">
				<path id="Path_218" class="st0" d="M5.4,0H0.6C0.3,0,0,0.3,0,0.6c0,0.3,0.3,0.6,0.6,0.6h4.9C5.7,1.1,6,0.9,6,0.6
					C6,0.3,5.7,0,5.4,0L5.4,0z"/>
			</g>
		</g>
		<g id="Group_486" transform="translate(20.301 3.973)">
			<g id="Group_485" transform="translate(0 0)">
				<path id="Path_219" class="st0" d="M4.2,0.2c-0.2-0.2-0.6-0.2-0.8,0c0,0,0,0,0,0L0.2,3.4c-0.2,0.2-0.2,0.6,0,0.8s0.6,0.2,0.8,0
					L4.2,1C4.4,0.7,4.4,0.4,4.2,0.2C4.2,0.2,4.2,0.2,4.2,0.2z"/>
			</g>
		</g>
		<g id="Group_488" transform="translate(4.312 3.973)">
			<g id="Group_487" transform="translate(0 0)">
				<path id="Path_220" class="st0" d="M4.2,3.4L1,0.2c-0.2-0.2-0.6-0.2-0.8,0s-0.2,0.6,0,0.8l3.2,3.2c0.2,0.2,0.6,0.2,0.8,0
					C4.4,3.9,4.4,3.6,4.2,3.4z"/>
			</g>
		</g>
		<g id="Group_490" transform="translate(13.906 0)">
			<g id="Group_489" transform="translate(0 0)">
				<path id="Path_221" class="st0" d="M0.6,0C0.3,0,0,0.3,0,0.6c0,0,0,0,0,0v4.5c0,0.3,0.3,0.6,0.6,0.6c0.3,0,0.6-0.3,0.6-0.6V0.6
					C1.1,0.3,0.9,0,0.6,0C0.6,0,0.6,0,0.6,0z"/>
			</g>
		</g>
	</g>
</g>
</svg>
