<svg id="phone" xmlns="http://www.w3.org/2000/svg" viewBox="0 0 19.66 19.66"><title>icon_contact_phone</title><g id="Group_5238" data-name="Group 5238"><g id="Group_5237" data-name="Group 5237"><path id="Path_10459" data-name="Path 10459" d="M19.15,14.5l-2.44-2.44a1.78,1.78,0,0,0-2.45,0l-.4.41,4.88,4.88.41-.4a1.71,1.71,0,0,0,0-2.44Z" transform="translate(0 0)" style="fill:#2577d6"/></g></g><g id="Group_5240" data-name="Group 5240"><g id="Group_5239" data-name="Group 5239"><path id="Path_10460" data-name="Path 10460" d="M13,13.26a1.3,1.3,0,0,1-1.72-.09L6.47,8.34a1.3,1.3,0,0,1-.08-1.72L1.51,1.75a6.22,6.22,0,0,0,.3,8.44l7.64,7.65a6.2,6.2,0,0,0,8.45.3Z" transform="translate(0 0)" style="fill:#2577d6"/></g></g><g id="Group_5242" data-name="Group 5242"><g id="Group_5241" data-name="Group 5241"><path id="Path_10461" data-name="Path 10461" d="M7.58,2.93,5.14.49A1.77,1.77,0,0,0,2.7.49L2.29.9,7.18,5.78l.4-.4a1.72,1.72,0,0,0,0-2.44Z" transform="translate(0 0)" style="fill:#2577d6"/></g></g></svg>