<svg xmlns="http://www.w3.org/2000/svg" xmlns:xlink="http://www.w3.org/1999/xlink" width="118.002" height="33" viewBox="0 0 118.002 33">
  <defs>
    <filter id="Union_2" x="0" y="0" width="118.002" height="33" filterUnits="userSpaceOnUse">
      <feOffset dy="3" input="SourceAlpha"/>
      <feGaussianBlur stdDeviation="3" result="blur"/>
      <feFlood flood-opacity="0.161"/>
      <feComposite operator="in" in2="blur"/>
      <feComposite in="SourceGraphic"/>
    </filter>
  </defs>
  <g id="Group_5546" data-name="Group 5546" transform="translate(-163.998 -587)">
    <g id="Group_5547" data-name="Group 5547" transform="translate(173.001 593)">
      <g transform="matrix(1, 0, 0, 1, -9, -6)" filter="url(#Union_2)">
        <g id="Union_2-2" data-name="Union 2" transform="translate(9 6)" fill="#fff">
          <path d="M 92.64690399169922 14.5002965927124 C 89.92338562011719 14.5002965927124 87.45777130126953 12.85291004180908 86.365478515625 10.30339050292969 L 86.23562622070313 10.0002965927124 L 85.90587615966797 10.0002965927124 L 56.74051666259766 10.0002965927124 L 56.41077041625977 10.0002965927124 L 56.28091812133789 10.30339050292969 C 55.18863677978516 12.85291004180908 52.72303771972656 14.5002965927124 49.99950408935547 14.5002965927124 C 47.27608871459961 14.5002965927124 44.81048965454102 12.85291004180908 43.71809005737305 10.30337715148926 L 43.58823776245117 10.0002965927124 L 43.25850296020508 10.0002965927124 L 14.09219646453857 10.0002965927124 L 13.76246356964111 10.0002965927124 L 13.63261032104492 10.30337715148926 C 12.54020977020264 12.85291004180908 10.07460975646973 14.5002965927124 7.351196765899658 14.5002965927124 C 3.572436809539795 14.5002965927124 0.4981968104839325 11.35984325408936 0.4981968104839325 7.499696731567383 C 0.4981968104839325 3.640056848526001 3.572436809539795 0.5000035166740417 7.351196765899658 0.5000035166740417 C 10.07547664642334 0.5000035166740417 12.54106330871582 2.147336959838867 13.6325569152832 4.696790218353271 L 13.76237010955811 5.000003337860107 L 14.09219646453857 5.000003337860107 L 43.25850296020508 5.000003337860107 L 43.58832931518555 5.000003337860107 L 43.71814346313477 4.696790218353271 C 44.80965042114258 2.147336959838867 47.27523803710938 0.5000035166740417 49.99950408935547 0.5000035166740417 C 52.72326278686523 0.5000035166740417 55.18893051147461 2.147376775741577 56.28107833862305 4.696883678436279 L 56.41091537475586 5.000003337860107 L 56.74067687988281 5.000003337860107 L 85.90571594238281 5.000003337860107 L 86.2354736328125 5.000003337860107 L 86.36531829833984 4.696883678436279 C 87.45746612548828 2.147376775741577 89.92313385009766 0.5000035166740417 92.64690399169922 0.5000035166740417 C 96.42566680908203 0.5000035166740417 99.49990081787109 3.640056848526001 99.49990081787109 7.499696731567383 C 99.49990081787109 11.35984325408936 96.42566680908203 14.5002965927124 92.64690399169922 14.5002965927124 Z" stroke="none"/>
          <path d="M 92.64690399169922 14.0002965927124 C 96.14995574951172 14.0002965927124 98.99990081787109 11.08413696289063 98.99990081787109 7.499696731567383 C 98.99990081787109 3.91575026512146 96.14995574951172 1.000003576278687 92.64690399169922 1.000003576278687 C 90.12345123291016 1.000003576278687 87.83819580078125 2.528403520584106 86.82492828369141 4.893763542175293 L 86.56523895263672 5.500003337860107 L 85.90571594238281 5.500003337860107 L 56.74067687988281 5.500003337860107 L 56.08115768432617 5.500003337860107 L 55.82146453857422 4.893763542175293 C 54.80819702148438 2.528403520584106 52.52294158935547 1.000003576278687 49.99950408935547 1.000003576278687 C 47.4755973815918 1.000003576278687 45.19043731689453 2.528323650360107 44.17779541015625 4.893577098846436 L 43.91817092895508 5.500003337860107 L 43.25850296020508 5.500003337860107 L 14.09219646453857 5.500003337860107 L 13.43253040313721 5.500003337860107 L 13.17290306091309 4.893577098846436 C 12.16027641296387 2.528323650360107 9.875116348266602 1.000003576278687 7.351196765899658 1.000003576278687 C 3.848143577575684 1.000003576278687 0.9981967806816101 3.91575026512146 0.9981967806816101 7.499696731567383 C 0.9981967806816101 11.08413696289063 3.848143577575684 14.0002965927124 7.351196765899658 14.0002965927124 C 9.874303817749023 14.0002965927124 12.15950393676758 12.47187042236328 13.17302322387695 10.1064567565918 L 13.43274307250977 9.500296592712402 L 14.09219646453857 9.500296592712402 L 43.25850296020508 9.500296592712402 L 43.9179573059082 9.500296592712402 L 44.17767715454102 10.1064567565918 C 45.19119644165039 12.47187042236328 47.47639846801758 14.0002965927124 49.99950408935547 14.0002965927124 C 52.5227165222168 14.0002965927124 54.80791854858398 12.47188377380371 55.82133102416992 10.10648345947266 L 56.08103561401367 9.500296592712402 L 56.74051666259766 9.500296592712402 L 85.90587615966797 9.500296592712402 L 86.56535339355469 9.500296592712402 L 86.82506561279297 10.10648345947266 C 87.83847808837891 12.47188377380371 90.12368774414063 14.0002965927124 92.64690399169922 14.0002965927124 M 92.64690399169922 15.0002965927124 C 89.63203430175781 15.0002965927124 87.04070281982422 13.14908313751221 85.90587615966797 10.5002965927124 L 56.74051666259766 10.5002965927124 C 55.60570526123047 13.14908313751221 53.01436996459961 15.0002965927124 49.99950408935547 15.0002965927124 C 46.98450469970703 15.0002965927124 44.39339828491211 13.14900398254395 43.25850296020508 10.5002965927124 L 14.09219646453857 10.5002965927124 C 12.95730304718018 13.14900398254395 10.36619663238525 15.0002965927124 7.351196765899658 15.0002965927124 C 3.290396690368652 15.0002965927124 -0.00180319300852716 11.6424036026001 -0.00180319300852716 7.499696731567383 C -0.00180319300852716 3.35789680480957 3.290396690368652 3.537038082868094e-06 7.351196765899658 3.537038082868094e-06 C 10.36619663238525 3.537038082868094e-06 12.95820999145508 1.851296901702881 14.09219646453857 4.500003337860107 L 43.25850296020508 4.500003337860107 C 44.39250183105469 1.851296901702881 46.98359680175781 3.537038082868094e-06 49.99950408935547 3.537038082868094e-06 C 53.01461029052734 3.537038082868094e-06 55.60601043701172 1.851230144500732 56.74067687988281 4.500003337860107 L 85.90571594238281 4.500003337860107 C 87.04038238525391 1.851230144500732 89.63179779052734 3.537038082868094e-06 92.64690399169922 3.537038082868094e-06 C 96.70770263671875 3.537038082868094e-06 99.99990081787109 3.35789680480957 99.99990081787109 7.499696731567383 C 99.99990081787109 11.6424036026001 96.70770263671875 15.0002965927124 92.64690399169922 15.0002965927124 Z" stroke="none" fill="#ccc"/>
        </g>
      </g>
    </g>
  </g>
</svg>
