<svg id="Layer_1" data-name="Layer 1" xmlns="http://www.w3.org/2000/svg" xmlns:xlink="http://www.w3.org/1999/xlink" viewBox="0 0 105.36 15.07"><defs><linearGradient id="linear-gradient" x1="5.2" y1="369.31" x2="5.2" y2="367.69" gradientTransform="matrix(12.5, 0, 0, -9.74, 65.38, 3604.79)" gradientUnits="userSpaceOnUse"><stop offset="0" stop-color="#54b948"/><stop offset="0.38" stop-color="#fff"/><stop offset="1" stop-color="#d3d3d3"/></linearGradient><linearGradient id="linear-gradient-2" x1="3.72" y1="369.38" x2="3.72" y2="367.76" gradientTransform="matrix(18.22, 0, 0, -9.76, 76.84, 3611.33)" xlink:href="#linear-gradient"/><linearGradient id="linear-gradient-3" x1="6.07" y1="370.71" x2="6.07" y2="369.09" gradientTransform="matrix(10.54, 0, 0, -10.09, 94.82, 3747.03)" xlink:href="#linear-gradient"/></defs><title>poweredby_tms</title><g id="Group_3687" data-name="Group 3687"><g id="Logo_TMS" data-name="Logo TMS"><path id="Path_202" data-name="Path 202" d="M128.12,25.46l-.88,2.84h-1.78l.67-2.15H127v-.07h-.82a1.11,1.11,0,0,1-.72-.25,1.26,1.26,0,0,1-.27-.37Zm3.94,1.26c0-.41-.41-.6-1.11-.58l-2.3,0L128,28.3h1.45l.08-.21a3,3,0,0,1,.66-1.2.66.66,0,0,1,.45-.13c-.06.16-.11.29-.14.4l-.36,1.14h1.5l.36-1.14a1.09,1.09,0,0,0,.06-.44Zm4.11.6a1.09,1.09,0,0,1-.58.71,3,3,0,0,1-1.46.32h-.25a3.12,3.12,0,0,1-1-.2.9.9,0,0,1-.63-.71.76.76,0,0,1,0-.3,1.2,1.2,0,0,1,.82-.8,3.09,3.09,0,0,1,1.21-.21h.24a2.84,2.84,0,0,1,1,.21.88.88,0,0,1,.63.72,1.13,1.13,0,0,1,0,.26Zm-1.5-.17a.88.88,0,0,0,0-.23c0-.17-.13-.26-.33-.26s-.45.19-.54.57a1.53,1.53,0,0,0,0,.3.29.29,0,0,0,.3.28h0c.3,0,.5-.22.56-.66Zm5.87-1-2,2.12H137l-.71-2.12h1.46l.24,1.33,1-1.33Zm3.91,0c-.57,0-1.36-.05-2.38-.05a2.24,2.24,0,0,0-1.18.31,1.11,1.11,0,0,0-.61,1v.14a.78.78,0,0,0,.35.59,1.5,1.5,0,0,0,.69.17,1.46,1.46,0,0,0,1.2-.59l-.18.55h1.46l.66-2.12Zm-1.62.5-.1.25a1.89,1.89,0,0,1-.28.5.61.61,0,0,1-.47.3q-.18,0-.18-.24a1,1,0,0,1,.13-.45.57.57,0,0,1,.54-.38Zm6-1.19-.58.68h-.78l-.66,2.15h-1.78l.66-2.15h.79v-.06h-1a1.17,1.17,0,0,1-.72-.25,1.26,1.26,0,0,1-.27-.37Zm2.37,1.39-.06-.6c0-.09-.22-.13-.65-.13-.27,0-.95,0-2,.06l-.66,2.11h1.48l.08-.21a4.35,4.35,0,0,1,.35-.76,1.13,1.13,0,0,1,.91-.61.9.9,0,0,1,.58.14Zm4.1-.67-.66,2.12h-1.44l.17-.56a1.44,1.44,0,0,1-1.2.59,1.25,1.25,0,0,1-.68-.17.73.73,0,0,1-.35-.59v-.14a1.13,1.13,0,0,1,.6-1,2.35,2.35,0,0,1,1.19-.31c1,0,1.81,0,2.38.05Zm-1.62.5h-.36a.56.56,0,0,0-.54.38,1,1,0,0,0-.13.44c0,.17.06.25.18.25a.64.64,0,0,0,.5-.31,2.19,2.19,0,0,0,.27-.5l.1-.24Zm4.72.19A1.36,1.36,0,0,0,157,27a.58.58,0,0,0-.17.41v.07c0,.2.16.29.4.29a2.45,2.45,0,0,0,1.1-.21l-.23.64a.39.39,0,0,1-.14.08,2.42,2.42,0,0,1-.92.13,2.59,2.59,0,0,1-1.1-.2.84.84,0,0,1-.6-.68v-.1a1,1,0,0,1,.5-.82,2.69,2.69,0,0,1,1.61-.4,2.38,2.38,0,0,1,.92.12l.07.6Zm4.51-.66-.13.5h-.23a1.24,1.24,0,0,0-.65.17l-.42.27.75,1.18h-1.59l-.4-1.05-.32,1.05h-1.5l.88-2.84h1.5l-.46,1.5a1.25,1.25,0,0,1,.35-.41,2.58,2.58,0,0,1,1.5-.41,2.89,2.89,0,0,1,.72,0Z" transform="translate(-58.68 -13.31)" style="fill:#eb8a14;fill-rule:evenodd"/><path id="Path_203" data-name="Path 203" d="M136.56,13.51l-.62,2.33h-3.56l-2.28,7.41h-4.28l2.28-7.4h2l.07-.23h-2.75a3.79,3.79,0,0,1-2.43-.85,3.72,3.72,0,0,1-.93-1.25Z" transform="translate(-58.68 -13.31)" style="fill-rule:evenodd;fill:url(#linear-gradient)"/><path id="Path_204" data-name="Path 204" d="M151,23.26h-3.8l1.6-5.74.42-1.46h-.07l-.66,1.21-3.6,6h-3.54l-.46-5.65c0-.38,0-.9,0-1.55h-.08a27.81,27.81,0,0,1-.6,2.75l-1.25,4.45h-3.41l2.7-9.75h2.55a3.09,3.09,0,0,1,3.08,2.85l.23,3c0,.34,0,.74,0,.74l.27-.5c.12-.24.22-.46.33-.65L147,15.06a3.08,3.08,0,0,1,2.67-1.55h4.11Z" transform="translate(-58.68 -13.31)" style="fill:url(#linear-gradient-2)"/><path id="Path_205" data-name="Path 205" d="M164,13.83a2.5,2.5,0,0,1-2.85,1.83c-.33-.06-.67-.1-1-.13a2.14,2.14,0,0,0-1,.2.6.6,0,0,0-.35.5.64.64,0,0,0,.29.5,6.4,6.4,0,0,0,1.23.61,5.88,5.88,0,0,1,2.12,1.27,2.36,2.36,0,0,1,.6,1.64,2.43,2.43,0,0,1-.69,1.69,4.23,4.23,0,0,1-1.91,1.1,10.05,10.05,0,0,1-2.89.36,12.37,12.37,0,0,1-2.27-.21,10.85,10.85,0,0,1-1.85-.53l.67-2.41a7.11,7.11,0,0,0,3.45,1c.93,0,1.39-.25,1.39-.76a.64.64,0,0,0-.34-.56,5.92,5.92,0,0,0-1.21-.53,5.47,5.47,0,0,1-2.06-1.16,2.22,2.22,0,0,1-.62-1.64,2.5,2.5,0,0,1,.67-1.71,4.12,4.12,0,0,1,1.86-1.15,9,9,0,0,1,2.73-.39,13.62,13.62,0,0,1,2.21.17l1.79.32Z" transform="translate(-58.68 -13.31)" style="fill:url(#linear-gradient-3)"/></g><g id="Powered_by" data-name="Powered by" style="isolation:isolate"><text transform="translate(0 10)" style="isolation:isolate;font-size:11px;fill:#fff;font-family:Roboto-Bold, Roboto;font-weight:700"><tspan style="letter-spacing:-0.00634765625em">P</tspan><tspan x="7.03" y="0">owered by</tspan></text></g></g></svg>