<svg xmlns="http://www.w3.org/2000/svg" xmlns:xlink="http://www.w3.org/1999/xlink" width="200.308" height="31.931" viewBox="0 0 200.308 31.931">
  <defs>
    <filter id="Path_9252" x="0" y="0" width="200.308" height="31.931" filterUnits="userSpaceOnUse">
      <feOffset dy="3" input="SourceAlpha"/>
      <feGaussianBlur stdDeviation="3" result="blur"/>
      <feFlood flood-opacity="0.161"/>
      <feComposite operator="in" in2="blur"/>
      <feComposite in="SourceGraphic"/>
    </filter>
  </defs>
  <g transform="matrix(1, 0, 0, 1, 0, 0)" filter="url(#Path_9252)">
    <path id="Path_9252-2" data-name="Path 9252" d="M178.78,262.3l-4.257,13.661h-8.63l3.289-10.371h3.986l.116-.31H169.26a5.337,5.337,0,0,1-3.444-1.2,4.9,4.9,0,0,1-1.316-1.741h14.28Zm19,6.037c-.193-1.935-1.974-2.864-5.379-2.825l-11.106.232-3.212,10.216H185.2l.387-1.006c1.2-3.173,2.245-5.108,3.173-5.8a3.687,3.687,0,0,1,2.167-.619c-.31.774-.542,1.393-.7,1.9l-1.741,5.534h7.2l1.741-5.534a4.374,4.374,0,0,0,.348-2.09Zm19.852,2.941a5.312,5.312,0,0,1-2.825,3.405,13.869,13.869,0,0,1-7.043,1.548,11.288,11.288,0,0,1-1.2-.039,14.182,14.182,0,0,1-4.721-.967c-1.858-.774-2.9-1.935-3.057-3.444a4.575,4.575,0,0,1,.116-1.432c.426-1.741,1.741-3.018,3.947-3.87a16.092,16.092,0,0,1,5.843-.967,11.253,11.253,0,0,1,1.2.039,13.118,13.118,0,0,1,4.76,1.006c1.858.813,2.864,1.974,3.018,3.522a3.174,3.174,0,0,1-.039,1.2Zm-7.237-.851a6.063,6.063,0,0,0,.077-1.122q-.116-1.277-1.625-1.277c-1.316,0-2.167.929-2.593,2.786a5.186,5.186,0,0,0-.116,1.471,1.41,1.41,0,0,0,1.587,1.354c1.393-.039,2.283-1.084,2.67-3.212Zm28.366-4.683-9.6,10.216H221.7l-3.405-10.216h7l1.161,6.385,4.915-6.385Zm18.846,0c-2.748-.155-6.579-.271-11.493-.271a10.586,10.586,0,0,0-5.689,1.509,5.471,5.471,0,0,0-2.941,4.8,4.206,4.206,0,0,0,.039.7,3.614,3.614,0,0,0,1.7,2.825,6.1,6.1,0,0,0,3.289.813,6.877,6.877,0,0,0,5.8-2.825l-.851,2.67H254.4l3.212-10.216Zm-7.817,2.283-.464,1.2a9.75,9.75,0,0,1-1.354,2.515,3.054,3.054,0,0,1-2.283,1.471c-.58,0-.851-.387-.851-1.161a5.2,5.2,0,0,1,.581-2.167,2.851,2.851,0,0,1,2.631-1.857Zm29.062-5.727-2.748,3.289h-3.831L269.063,276h-8.591l3.212-10.371h3.792l.116-.31h-4.8a5.337,5.337,0,0,1-3.444-1.2,4.9,4.9,0,0,1-1.316-1.741l20.82-.077Zm11.455,6.656-.31-2.864c-.039-.426-1.083-.619-3.1-.619-1.316,0-4.605.116-9.791.31L273.939,276h7.12l.387-1.006a18.9,18.9,0,0,1,1.741-3.715c1.277-1.935,2.748-2.941,4.412-2.941a4.182,4.182,0,0,1,2.709.619Zm19.775-3.212-3.173,10.216h-6.927l.851-2.67a6.877,6.877,0,0,1-5.8,2.825,6.1,6.1,0,0,1-3.289-.813,3.554,3.554,0,0,1-1.7-2.825,4.2,4.2,0,0,1-.039-.7,5.4,5.4,0,0,1,2.941-4.8,10.776,10.776,0,0,1,5.689-1.509c4.876.039,8.707.116,11.455.271Zm-7.817,2.283h-1.741a2.89,2.89,0,0,0-2.631,1.857,5.055,5.055,0,0,0-.58,2.167c0,.774.271,1.161.851,1.161a3.054,3.054,0,0,0,2.283-1.471,10.308,10.308,0,0,0,1.354-2.515l.464-1.2Zm22.755.929a5.394,5.394,0,0,0-3.173-.774,5.255,5.255,0,0,0-3.754,1.161,2.663,2.663,0,0,0-.813,1.935v.348c.116.929.735,1.393,1.935,1.393a12.161,12.161,0,0,0,5.34-1.045l-1.122,3.1c-.039.116-.271.232-.658.387a12.238,12.238,0,0,1-4.45.619,13.1,13.1,0,0,1-5.3-.967c-1.78-.774-2.748-1.9-2.9-3.328,0-.155-.039-.348-.039-.5a4.689,4.689,0,0,1,2.361-3.947c1.9-1.316,4.489-1.935,7.778-1.935a13.393,13.393,0,0,1,4.489.58l.31,2.98Zm21.787-3.135-.658,2.438a9.5,9.5,0,0,0-1.083-.077,5.545,5.545,0,0,0-3.135.813l-2.012,1.316L343.557,276h-7.662l-1.935-5.108L332.373,276h-7.159l4.257-13.7h7.2l-2.245,7.159a5.757,5.757,0,0,1,1.7-1.935,12.113,12.113,0,0,1,7.353-1.974A10.58,10.58,0,0,1,346.808,265.822Z" transform="translate(-155.5 -256.3)" fill="#2577d6" fill-rule="evenodd"/>
  </g>
</svg>
