<svg xmlns="http://www.w3.org/2000/svg" viewBox="0 0 414.01 177.87"><title>bg_mobilize</title><g id="Layer_2" data-name="Layer 2"><g id="Layer_1-2" data-name="Layer 1"><g id="Group_6239" data-name="Group 6239"><path id="Path_11075-2" data-name="Path 11075-2" d="M30,0H384a30,30,0,0,1,30,30V157s-107,20.87-210.47,20.87S0,157,0,157V30A30,30,0,0,1,30,0Z" fill="#c2dcf3"/><g id="Group_6237" data-name="Group 6237"><path id="Path_10487" data-name="Path 10487" d="M336.46,91.7a16.33,16.33,0,0,1-26.25,13,16.75,16.75,0,0,1-8.48,3.36c-8.48,1-16-4.32-17-11.68-.64-5.29,2.24-10.09,7-13a25.2,25.2,0,0,1-.32-11.52c2.4-11.84,12.48-20,22.72-17.92,9.77,1.92,16,12.48,14.25,23.84A16.22,16.22,0,0,1,336.46,91.7Z" fill="#9cc6ea"/><path id="Path_10488" data-name="Path 10488" d="M320.13,81.61a64.08,64.08,0,0,0-7.84,15,184.25,184.25,0,0,1,1.28-26.88,136.15,136.15,0,0,0-5.44,29.76,61.25,61.25,0,0,1-7.2-12.48,49.61,49.61,0,0,0,6.88,16.64,186.31,186.31,0,0,0,0,26.73h7.53c-.64-3.68-1.12-7.52-1.6-11.36a66.76,66.76,0,0,1,4.16-32.17C318.69,85.13,319.33,83.21,320.13,81.61Z" fill="#6a79ba"/></g><g id="Group_6238" data-name="Group 6238"><path id="Path_10489" data-name="Path 10489" d="M0,65.52s2,39.34,48.89,65.08,82.66,36.52,138.5,37.87S236.57,139,293.6,130.6s42.62-49.26,72.68-69.73,47.55-12.13,47.55-12.13V156.12s-214.48,45.1-413.83,0Z" fill="#94bee6"/></g></g></g></g></svg>