<svg xmlns="http://www.w3.org/2000/svg" width="423.865" height="326.879" viewBox="0 0 423.865 326.879">
  <g id="Group_5605" data-name="Group 5605" transform="translate(1.859 101.549)">
    <g id="Group_5609" data-name="Group 5609" opacity="0.299">
      <g id="Group_5640" data-name="Group 5640">
        <path id="Path_10623" data-name="Path 10623" d="M846.141,5283.247s9.6-111.661,83.824-91.8,285.285,78.348,211.55,108.476,128.49,51.875,128.49,51.875l-5.227,70.532-418.638-4.851Z" transform="translate(-848 -5197)" fill="#dcddf4"/>
        <g id="Group_5435" data-name="Group 5435" transform="translate(-60.732 -64.018)">
          <g id="Group_5454" data-name="Group 5454" transform="translate(60.772 56.436)">
            <g id="Group_5433" data-name="Group 5433" transform="translate(0)">
              <g id="Group_5425" data-name="Group 5425" transform="translate(0 44.765)">
                <rect id="Rectangle_4470" data-name="Rectangle 4470" width="9.472" height="32.78" transform="translate(0 51.742)" fill="#939393"/>
                <rect id="Rectangle_4471" data-name="Rectangle 4471" width="9.472" height="25.59" transform="translate(8.294 58.933)" fill="#939393"/>
                <rect id="Rectangle_4472" data-name="Rectangle 4472" width="9.472" height="46.677" transform="translate(14.351 37.845)" fill="#939393"/>
                <rect id="Rectangle_4473" data-name="Rectangle 4473" width="9.472" height="84.522" transform="translate(20.646)" fill="#939393"/>
                <rect id="Rectangle_4474" data-name="Rectangle 4474" width="25.417" height="77.943" transform="translate(28.128 6.579)" fill="#939393"/>
              </g>
              <g id="Group_5426" data-name="Group 5426" transform="translate(128.767 71.439)">
                <rect id="Rectangle_4475" data-name="Rectangle 4475" width="10.822" height="22.435" transform="translate(34.41 57.849) rotate(180)" fill="#b1b1b1"/>
                <rect id="Rectangle_4476" data-name="Rectangle 4476" width="10.822" height="17.514" transform="translate(24.933 57.849) rotate(180)" fill="#b1b1b1"/>
                <rect id="Rectangle_4477" data-name="Rectangle 4477" width="10.822" height="31.947" transform="translate(18.013 57.849) rotate(180)" fill="#b1b1b1"/>
                <rect id="Rectangle_4478" data-name="Rectangle 4478" width="10.822" height="57.849" transform="translate(10.822 57.849) rotate(180)" fill="#b1b1b1"/>
              </g>
              <g id="Group_5432" data-name="Group 5432" transform="translate(23.368)">
                <g id="Group_5428" data-name="Group 5428" transform="translate(78.011 58.619)">
                  <rect id="Rectangle_4479" data-name="Rectangle 4479" width="33.208" height="70.668" fill="#ccc"/>
                  <g id="Group_5427" data-name="Group 5427" transform="translate(6.051 2.962)">
                    <rect id="Rectangle_4480" data-name="Rectangle 4480" width="1.581" height="8.6" transform="translate(22.412)" fill="#f5f5f5"/>
                    <rect id="Rectangle_4481" data-name="Rectangle 4481" width="1.581" height="8.6" transform="translate(22.412 13.448)" fill="#f5f5f5"/>
                    <rect id="Rectangle_4482" data-name="Rectangle 4482" width="1.581" height="8.6" transform="translate(22.412 26.897)" fill="#f5f5f5"/>
                    <rect id="Rectangle_4483" data-name="Rectangle 4483" width="1.581" height="8.6" transform="translate(22.412 40.345)" fill="#f5f5f5"/>
                    <rect id="Rectangle_4484" data-name="Rectangle 4484" width="1.581" height="8.6" transform="translate(22.412 53.794)" fill="#f5f5f5"/>
                    <rect id="Rectangle_4485" data-name="Rectangle 4485" width="1.581" height="8.6" transform="translate(16.809)" fill="#f5f5f5"/>
                    <rect id="Rectangle_4486" data-name="Rectangle 4486" width="1.581" height="8.6" transform="translate(16.809 13.448)" fill="#f5f5f5"/>
                    <rect id="Rectangle_4487" data-name="Rectangle 4487" width="1.581" height="8.6" transform="translate(16.809 26.897)" fill="#f5f5f5"/>
                    <rect id="Rectangle_4488" data-name="Rectangle 4488" width="1.581" height="8.6" transform="translate(16.809 40.345)" fill="#f5f5f5"/>
                    <rect id="Rectangle_4489" data-name="Rectangle 4489" width="1.581" height="8.6" transform="translate(16.809 53.794)" fill="#f5f5f5"/>
                    <rect id="Rectangle_4490" data-name="Rectangle 4490" width="1.581" height="8.6" transform="translate(11.206)" fill="#f5f5f5"/>
                    <rect id="Rectangle_4491" data-name="Rectangle 4491" width="1.581" height="8.6" transform="translate(11.206 13.448)" fill="#f5f5f5"/>
                    <rect id="Rectangle_4492" data-name="Rectangle 4492" width="1.581" height="8.6" transform="translate(11.206 26.897)" fill="#f5f5f5"/>
                    <rect id="Rectangle_4493" data-name="Rectangle 4493" width="1.581" height="8.6" transform="translate(11.206 40.345)" fill="#f5f5f5"/>
                    <rect id="Rectangle_4494" data-name="Rectangle 4494" width="1.581" height="8.6" transform="translate(11.206 53.794)" fill="#f5f5f5"/>
                    <rect id="Rectangle_4495" data-name="Rectangle 4495" width="1.581" height="8.6" transform="translate(5.603)" fill="#f5f5f5"/>
                    <rect id="Rectangle_4496" data-name="Rectangle 4496" width="1.581" height="8.6" transform="translate(5.603 13.448)" fill="#f5f5f5"/>
                    <rect id="Rectangle_4497" data-name="Rectangle 4497" width="1.581" height="8.6" transform="translate(5.603 26.897)" fill="#f5f5f5"/>
                    <rect id="Rectangle_4498" data-name="Rectangle 4498" width="1.581" height="8.6" transform="translate(5.603 40.345)" fill="#f5f5f5"/>
                    <rect id="Rectangle_4499" data-name="Rectangle 4499" width="1.581" height="8.6" transform="translate(5.603 53.794)" fill="#f5f5f5"/>
                    <rect id="Rectangle_4500" data-name="Rectangle 4500" width="1.581" height="8.6" fill="#f5f5f5"/>
                    <rect id="Rectangle_4501" data-name="Rectangle 4501" width="1.581" height="8.6" transform="translate(0 13.448)" fill="#f5f5f5"/>
                    <rect id="Rectangle_4502" data-name="Rectangle 4502" width="1.581" height="8.6" transform="translate(0 26.897)" fill="#f5f5f5"/>
                    <rect id="Rectangle_4503" data-name="Rectangle 4503" width="1.581" height="8.6" transform="translate(0 40.345)" fill="#f5f5f5"/>
                    <rect id="Rectangle_4504" data-name="Rectangle 4504" width="1.581" height="8.6" transform="translate(0 53.794)" fill="#f5f5f5"/>
                  </g>
                  <path id="Path_10588" data-name="Path 10588" d="M273.168,224.213h6.842l2.975,70.668h-9.817Z" transform="translate(-273.168 -224.213)" fill="#b9b9b9" opacity="0.5"/>
                </g>
                <g id="Group_5429" data-name="Group 5429" transform="translate(45.933 31.313)">
                  <path id="Path_10589" data-name="Path 10589" d="M236.628,163.09l19.693,3.727v94.248H236.628Z" transform="translate(-220.873 -163.09)" fill="#b9b9b9"/>
                  <rect id="Rectangle_4505" data-name="Rectangle 4505" width="15.755" height="97.975" transform="translate(0)" fill="#ccc"/>
                  <rect id="Rectangle_4506" data-name="Rectangle 4506" width="35.448" height="0.502" transform="translate(35.448 8.62) rotate(180)" fill="#e0e0e0"/>
                  <rect id="Rectangle_4507" data-name="Rectangle 4507" width="35.448" height="0.502" transform="translate(35.448 13.954) rotate(180)" fill="#e0e0e0"/>
                  <rect id="Rectangle_4508" data-name="Rectangle 4508" width="35.448" height="0.502" transform="translate(35.448 19.289) rotate(180)" fill="#e0e0e0"/>
                  <rect id="Rectangle_4509" data-name="Rectangle 4509" width="35.448" height="0.502" transform="translate(35.448 24.624) rotate(180)" fill="#e0e0e0"/>
                  <rect id="Rectangle_4510" data-name="Rectangle 4510" width="35.448" height="0.502" transform="translate(35.448 29.959) rotate(180)" fill="#e0e0e0"/>
                  <rect id="Rectangle_4511" data-name="Rectangle 4511" width="35.448" height="0.502" transform="translate(35.448 35.293) rotate(180)" fill="#e0e0e0"/>
                  <rect id="Rectangle_4512" data-name="Rectangle 4512" width="35.448" height="0.502" transform="translate(35.448 40.628) rotate(180)" fill="#e0e0e0"/>
                  <rect id="Rectangle_4513" data-name="Rectangle 4513" width="35.448" height="0.502" transform="translate(35.448 45.963) rotate(180)" fill="#e0e0e0"/>
                  <rect id="Rectangle_4514" data-name="Rectangle 4514" width="35.448" height="0.502" transform="translate(35.448 51.297) rotate(180)" fill="#e0e0e0"/>
                  <rect id="Rectangle_4515" data-name="Rectangle 4515" width="35.448" height="0.502" transform="translate(35.448 56.632) rotate(180)" fill="#e0e0e0"/>
                  <rect id="Rectangle_4516" data-name="Rectangle 4516" width="35.448" height="0.502" transform="translate(35.448 61.967) rotate(180)" fill="#e0e0e0"/>
                  <rect id="Rectangle_4517" data-name="Rectangle 4517" width="35.448" height="0.502" transform="translate(35.448 67.301) rotate(180)" fill="#e0e0e0"/>
                  <rect id="Rectangle_4518" data-name="Rectangle 4518" width="35.448" height="0.502" transform="translate(35.448 72.636) rotate(180)" fill="#e0e0e0"/>
                  <rect id="Rectangle_4519" data-name="Rectangle 4519" width="35.448" height="0.502" transform="translate(35.448 77.971) rotate(180)" fill="#e0e0e0"/>
                  <rect id="Rectangle_4520" data-name="Rectangle 4520" width="35.448" height="0.502" transform="translate(35.448 83.305) rotate(180)" fill="#e0e0e0"/>
                  <rect id="Rectangle_4521" data-name="Rectangle 4521" width="35.448" height="0.502" transform="translate(35.448 88.64) rotate(180)" fill="#e0e0e0"/>
                  <rect id="Rectangle_4522" data-name="Rectangle 4522" width="35.448" height="0.502" transform="translate(35.448 93.975) rotate(180)" fill="#e0e0e0"/>
                </g>
                <g id="Group_5430" data-name="Group 5430" transform="translate(20.844)">
                  <rect id="Rectangle_4523" data-name="Rectangle 4523" width="16.472" height="118.797" transform="translate(0 10.49)" fill="#ccc"/>
                  <path id="Path_10590" data-name="Path 10590" d="M161.675,103.49H145.2L151.265,93h23.588Z" transform="translate(-145.203 -93)" fill="#e5e5e5"/>
                  <path id="Path_10591" data-name="Path 10591" d="M182.074,103.49,195.252,93V222.287H182.074Z" transform="translate(-165.602 -93)" fill="#b9b9b9"/>
                  <rect id="Rectangle_4524" data-name="Rectangle 4524" width="29.65" height="0.633" transform="translate(0 16.025)" fill="#e0e0e0"/>
                  <rect id="Rectangle_4525" data-name="Rectangle 4525" width="29.65" height="0.633" transform="translate(0 22.749)" fill="#e0e0e0"/>
                  <rect id="Rectangle_4526" data-name="Rectangle 4526" width="29.65" height="0.633" transform="translate(0 29.474)" fill="#e0e0e0"/>
                  <rect id="Rectangle_4527" data-name="Rectangle 4527" width="29.65" height="0.633" transform="translate(0 36.198)" fill="#e0e0e0"/>
                  <rect id="Rectangle_4528" data-name="Rectangle 4528" width="29.65" height="0.633" transform="translate(0 42.922)" fill="#e0e0e0"/>
                  <rect id="Rectangle_4529" data-name="Rectangle 4529" width="29.65" height="0.633" transform="translate(0 49.646)" fill="#e0e0e0"/>
                  <rect id="Rectangle_4530" data-name="Rectangle 4530" width="29.65" height="0.633" transform="translate(0 56.371)" fill="#e0e0e0"/>
                  <rect id="Rectangle_4531" data-name="Rectangle 4531" width="29.65" height="0.633" transform="translate(0 63.095)" fill="#e0e0e0"/>
                  <rect id="Rectangle_4532" data-name="Rectangle 4532" width="29.65" height="0.633" transform="translate(0 69.819)" fill="#e0e0e0"/>
                  <rect id="Rectangle_4533" data-name="Rectangle 4533" width="29.65" height="0.633" transform="translate(0 76.543)" fill="#e0e0e0"/>
                  <rect id="Rectangle_4534" data-name="Rectangle 4534" width="29.65" height="0.633" transform="translate(0 83.268)" fill="#e0e0e0"/>
                  <rect id="Rectangle_4535" data-name="Rectangle 4535" width="29.65" height="0.633" transform="translate(0 89.992)" fill="#e0e0e0"/>
                  <rect id="Rectangle_4536" data-name="Rectangle 4536" width="29.65" height="0.633" transform="translate(0 96.716)" fill="#e0e0e0"/>
                  <rect id="Rectangle_4537" data-name="Rectangle 4537" width="29.65" height="0.633" transform="translate(0 103.44)" fill="#e0e0e0"/>
                  <rect id="Rectangle_4538" data-name="Rectangle 4538" width="29.65" height="0.633" transform="translate(0 110.164)" fill="#e0e0e0"/>
                  <rect id="Rectangle_4539" data-name="Rectangle 4539" width="29.65" height="0.633" transform="translate(0 116.889)" fill="#e0e0e0"/>
                  <rect id="Rectangle_4540" data-name="Rectangle 4540" width="29.65" height="0.633" transform="translate(0 123.613)" fill="#e0e0e0"/>
                </g>
                <g id="Group_5431" data-name="Group 5431" transform="translate(0 63.727)">
                  <rect id="Rectangle_4541" data-name="Rectangle 4541" width="17.981" height="61.312" transform="translate(0 4.248)" fill="#b1b1b1"/>
                  <rect id="Rectangle_4542" data-name="Rectangle 4542" width="2.886" height="9.84" transform="translate(3.54 7.417)" fill="#e6e6e6"/>
                  <rect id="Rectangle_4543" data-name="Rectangle 4543" width="2.886" height="9.84" transform="translate(10.619 7.417)" fill="#e6e6e6"/>
                  <rect id="Rectangle_4544" data-name="Rectangle 4544" width="2.886" height="9.84" transform="translate(3.54 20.161)" fill="#e6e6e6"/>
                  <rect id="Rectangle_4545" data-name="Rectangle 4545" width="2.886" height="9.84" transform="translate(10.619 20.161)" fill="#e6e6e6"/>
                  <rect id="Rectangle_4546" data-name="Rectangle 4546" width="2.886" height="9.84" transform="translate(3.54 32.904)" fill="#e6e6e6"/>
                  <rect id="Rectangle_4547" data-name="Rectangle 4547" width="2.886" height="9.84" transform="translate(10.619 32.904)" fill="#e6e6e6"/>
                  <rect id="Rectangle_4548" data-name="Rectangle 4548" width="2.886" height="9.84" transform="translate(3.54 45.647)" fill="#e6e6e6"/>
                  <rect id="Rectangle_4549" data-name="Rectangle 4549" width="2.886" height="9.84" transform="translate(10.619 45.647)" fill="#e6e6e6"/>
                  <path id="Path_10592" data-name="Path 10592" d="M116.527,239.9H98.546l4.218-4.248h17.981Z" transform="translate(-98.546 -235.648)" fill="#fff"/>
                  <path id="Path_10593" data-name="Path 10593" d="M138.795,239.9l4.218-4.248,4.218,4.248v61.312h-8.436Z" transform="translate(-120.814 -235.648)" fill="#b9b9b9"/>
                </g>
              </g>
            </g>
          </g>
        </g>
        <g id="Group_5464" data-name="Group 5464" transform="translate(-87.698 -100.895)">
          <path id="Path_10124" data-name="Path 10124" d="M94.756,727.814H269.4c.445,0,.809.175.809.388h0c0,.214-.364.389-.809.389H94.756c-.446,0-.809-.175-.809-.389h0C93.947,727.989,94.311,727.814,94.756,727.814Z" transform="translate(-6.496 -506.428)" fill="#444" fill-rule="evenodd"/>
          <g id="Group_5083" data-name="Group 5083" transform="translate(182.878 178.22)">
            <path id="Path_10125" data-name="Path 10125" d="M377.607,686.572H373.72l1.218-26.643h1.451Z" transform="translate(-359.342 -643.406)" fill="#988f80"/>
            <path id="Path_10126" data-name="Path 10126" d="M375.52,659.928" transform="translate(-360.435 -643.406)" fill="#37b34a"/>
            <g id="Group_5082" data-name="Group 5082">
              <path id="Path_10127" data-name="Path 10127" d="M359.348,630.071c.117.078.342.19.447.089a9.637,9.637,0,0,0,2.6-4.512,6.875,6.875,0,0,1-1.462,2.282,10.51,10.51,0,0,0,.817-2.041,3.409,3.409,0,0,0-.124-2.157,3.882,3.882,0,0,1-.91,2.6,4.889,4.889,0,0,0-.113-3.982,4.69,4.69,0,0,1-.506,2.515,9.261,9.261,0,0,0-.086-1.951,3.321,3.321,0,0,0-.829-1.742,3,3,0,0,1-.017,2.136,6.74,6.74,0,0,0-1.7-3.763,3.148,3.148,0,0,1,.232,2.42,6.045,6.045,0,0,0-2.139-3.186,4.66,4.66,0,0,1,.924,2.387,9.407,9.407,0,0,0-2.564-2.533,5.949,5.949,0,0,1,1.225,1.924c-1.055-.535-1.846-1.6-3.011-1.832.408.454.819.9,1.227,1.352a5.3,5.3,0,0,0-2.694-.453,6.345,6.345,0,0,1,1.216.509,2.75,2.75,0,0,0-2.5.484,5.435,5.435,0,0,1,1.354-.063,5.147,5.147,0,0,0-2.5,1.3,5.378,5.378,0,0,1,1.168-.3,3.362,3.362,0,0,0-.745.551,3.572,3.572,0,0,0-1.016,1.395,14.306,14.306,0,0,1,2.286-1.362c-.3.514-.6,1.029-.906,1.554a7.541,7.541,0,0,1,3.1-1.878l-1.326,1.2a7.1,7.1,0,0,1,3.812-.795c-.6.262-1.208.531-1.807.794a6.145,6.145,0,0,1,3.887.738,4.888,4.888,0,0,0-2.06.062,5.468,5.468,0,0,1,3.366,1.682,7.081,7.081,0,0,0-2.006-.507,12.272,12.272,0,0,1,2.847,2.522,6.811,6.811,0,0,0-1.784-.76A11.521,11.521,0,0,1,359.348,630.071Z" transform="translate(-343.501 -618.319)" fill="#b6be34"/>
              <path id="Path_10128" data-name="Path 10128" d="M359.487,634.027l.093-.135a2.105,2.105,0,0,0,.213-1.615,4.48,4.48,0,0,0-.928-1.577.382.382,0,0,0,.155-.464,1.115,1.115,0,0,0-.321-.425l.339-.215a6.377,6.377,0,0,0-1.386-1.336c.168-.056.327-.115.5-.18a4.805,4.805,0,0,0-2.01-1.287c.124-.139.246-.267.36-.408a5.314,5.314,0,0,0-2.5-.992,3.277,3.277,0,0,0,.765-.359,7.94,7.94,0,0,0-4.207,1.029.832.832,0,0,0-.011-.418,10,10,0,0,0-2.651,1.229,2.343,2.343,0,0,0-.25.516,14.316,14.316,0,0,1,2.286-1.362c-.3.515-.6,1.029-.906,1.554a7.54,7.54,0,0,1,3.1-1.878l-1.326,1.2a7.1,7.1,0,0,1,3.812-.795l-1.807.794a6.144,6.144,0,0,1,3.887.738,4.888,4.888,0,0,0-2.06.062,5.467,5.467,0,0,1,3.366,1.682,7.077,7.077,0,0,0-2.006-.508,12.275,12.275,0,0,1,2.847,2.522,6.806,6.806,0,0,0-1.784-.76,11.536,11.536,0,0,1,2.28,3.3A1.108,1.108,0,0,0,359.487,634.027Z" transform="translate(-343.501 -622.202)" fill="#779a40"/>
              <path id="Path_10129" data-name="Path 10129" d="M360.707,634.333a7.178,7.178,0,0,0-11.05-8.612s4.779-3.468,8.733.1a6.994,6.994,0,0,1,1.931,7.959S360.006,634.406,360.707,634.333Z" transform="translate(-344.723 -621.564)" fill="#47652f"/>
              <path id="Path_10130" data-name="Path 10130" d="M380.448,642.727c-.118-.078-.311-.235-.263-.359a9.539,9.539,0,0,1,3.037-4.228,7.1,7.1,0,0,0-1.482,2.278,10.425,10.425,0,0,1,1.525-1.583,3.37,3.37,0,0,1,2.011-.779,3.862,3.862,0,0,0-2,1.9,4.85,4.85,0,0,1,3.676-1.542,4.712,4.712,0,0,0-2.078,1.5,9.274,9.274,0,0,1,1.813-.73,3.358,3.358,0,0,1,1.935.035,3,3,0,0,0-1.944.9,6.732,6.732,0,0,1,4.126-.008,3.159,3.159,0,0,0-2.3.787,6.081,6.081,0,0,1,3.786.633,4.587,4.587,0,0,0-2.557.149,9.713,9.713,0,0,1,3.37,1.289,5.908,5.908,0,0,0-2.255-.324c.925.746,2.224,1.024,2.914,1.987-.581-.191-1.154-.37-1.735-.562a5.4,5.4,0,0,1,1.524,2.26,6.457,6.457,0,0,0-.964-.9,2.779,2.779,0,0,1,.592,2.479,6.082,6.082,0,0,0-.5-1.263,5.147,5.147,0,0,1-.157,2.811,5.113,5.113,0,0,0-.214-1.19,2.82,2.82,0,0,1-.2.9,3.514,3.514,0,0,1-.851,1.494,14.443,14.443,0,0,0,.3-2.645c-.346.484-.695.978-1.031,1.464a7.488,7.488,0,0,0,.434-3.591c-.189.571-.366,1.134-.555,1.705a6.95,6.95,0,0,0-.851-3.793c.01.657.018,1.323.018,1.978a6.161,6.161,0,0,0-2.273-3.236,4.931,4.931,0,0,1,.793,1.9,5.479,5.479,0,0,0-2.922-2.373,6.87,6.87,0,0,1,1.293,1.616,12.061,12.061,0,0,0-3.478-1.551,7.007,7.007,0,0,1,1.432,1.315A11.693,11.693,0,0,0,380.448,642.727Z" transform="translate(-363.265 -630.117)" fill="#66923f"/>
              <path id="Path_10131" data-name="Path 10131" d="M380.522,647.5a1.023,1.023,0,0,1,.095-.145,2.15,2.15,0,0,1,1.387-.866,4.362,4.362,0,0,1,1.816.2.4.4,0,0,1,.365-.334,1.069,1.069,0,0,1,.525.116c.018-.131.039-.272.058-.4a6.4,6.4,0,0,1,1.8.71c-.015-.169-.027-.348-.041-.518a4.79,4.79,0,0,1,2,1.3c.069-.171.146-.331.215-.5a5.357,5.357,0,0,1,1.934,1.863,3.818,3.818,0,0,1,.009-.839,8.021,8.021,0,0,1,.8,4.259,1.02,1.02,0,0,1,.38-.165,10.015,10.015,0,0,1-.026,2.923,2.428,2.428,0,0,1-.367.438,14.428,14.428,0,0,0,.3-2.645c-.346.484-.695.978-1.031,1.464a7.489,7.489,0,0,0,.434-3.591c-.189.571-.366,1.134-.555,1.705a6.948,6.948,0,0,0-.851-3.793c.01.657.018,1.323.018,1.978a6.158,6.158,0,0,0-2.273-3.236,4.928,4.928,0,0,1,.794,1.9,5.481,5.481,0,0,0-2.922-2.373,6.879,6.879,0,0,1,1.292,1.616A12.059,12.059,0,0,0,383.188,647a7.015,7.015,0,0,1,1.433,1.315,11.611,11.611,0,0,0-3.943-.72A.428.428,0,0,1,380.522,647.5Z" transform="translate(-363.474 -634.983)" fill="#779a40"/>
              <path id="Path_10132" data-name="Path 10132" d="M378.337,646.615c-.113,0,3.04-4.57,8.8-1.712a6.764,6.764,0,0,1,3.6,8.225s1.19-5.781-3.694-7.925A6.988,6.988,0,0,0,379,646.73S378.564,647.278,378.337,646.615Z" transform="translate(-362.145 -633.706)" fill="#47652f"/>
              <path id="Path_10133" data-name="Path 10133" d="M373.226,629.712c-.113.089-.329.218-.435.132a9.576,9.576,0,0,1-2.955-4.281,7.078,7.078,0,0,0,1.649,2.163,10.231,10.231,0,0,1-.975-1.972,3.428,3.428,0,0,1-.06-2.163,3.869,3.869,0,0,0,1.112,2.522,4.867,4.867,0,0,1-.206-3.982,4.734,4.734,0,0,0,.71,2.464,9.6,9.6,0,0,1-.076-1.949,3.314,3.314,0,0,1,.68-1.8,2.967,2.967,0,0,0,.192,2.13,6.771,6.771,0,0,1,1.383-3.889,3.189,3.189,0,0,0-.041,2.432,6.117,6.117,0,0,1,1.877-3.354,4.6,4.6,0,0,0-.722,2.457,9.259,9.259,0,0,1,2.351-2.729,5.978,5.978,0,0,0-1.061,2.018c1.009-.617,1.708-1.75,2.85-2.078-.366.48-.745.967-1.111,1.447a5.44,5.44,0,0,1,2.642-.67,5.794,5.794,0,0,0-1.174.612,2.762,2.762,0,0,1,2.526.27,6,6,0,0,0-1.359.041,5.28,5.28,0,0,1,2.6,1.1,4.78,4.78,0,0,0-1.191-.2,3.29,3.29,0,0,1,.785.486,3.593,3.593,0,0,1,1.122,1.308,14.135,14.135,0,0,0-2.39-1.164c.348.493.685.983,1.035,1.466a7.313,7.313,0,0,0-3.236-1.611c.47.364.949.73,1.419,1.094a7.12,7.12,0,0,0-3.86-.483c.628.212,1.244.432,1.872.644a6.134,6.134,0,0,0-3.817,1.053,4.855,4.855,0,0,1,2.059-.1,5.5,5.5,0,0,0-3.227,1.953,6.694,6.694,0,0,1,1.955-.667,12.433,12.433,0,0,0-2.636,2.749,6.757,6.757,0,0,1,1.718-.906A11.7,11.7,0,0,0,373.226,629.712Z" transform="translate(-356.983 -617.83)" fill="#66923f"/>
              <path id="Path_10134" data-name="Path 10134" d="M377.4,633.742c-.033-.038-.073-.089-.106-.127a2.166,2.166,0,0,1-.352-1.595,4.372,4.372,0,0,1,.79-1.642.4.4,0,0,1-.189-.458,1.164,1.164,0,0,1,.278-.458c-.12-.068-.242-.126-.362-.195a6.427,6.427,0,0,1,1.278-1.45c-.166-.047-.332-.095-.51-.134a4.709,4.709,0,0,1,1.9-1.448c-.129-.122-.267-.246-.394-.378a5.277,5.277,0,0,1,2.4-1.19,4.585,4.585,0,0,1-.788-.289,7.929,7.929,0,0,1,4.274.678.779.779,0,0,1-.023-.41,10.317,10.317,0,0,1,2.745,1.015,2.528,2.528,0,0,1,.286.489,14.083,14.083,0,0,0-2.39-1.164c.348.493.685.983,1.035,1.466a7.313,7.313,0,0,0-3.236-1.612c.469.364.949.73,1.419,1.094a7.117,7.117,0,0,0-3.86-.483c.628.212,1.244.432,1.872.644a6.134,6.134,0,0,0-3.817,1.053,4.851,4.851,0,0,1,2.059-.1A5.5,5.5,0,0,0,378.488,629a6.683,6.683,0,0,1,1.955-.667,12.433,12.433,0,0,0-2.636,2.749,6.761,6.761,0,0,1,1.718-.906,11.693,11.693,0,0,0-2.006,3.47A.318.318,0,0,1,377.4,633.742Z" transform="translate(-361.283 -621.773)" fill="#779a40"/>
              <path id="Path_10135" data-name="Path 10135" d="M376.583,633.811c-.034.107-3.281-4.405,1.356-8.87a6.757,6.757,0,0,1,8.954-.609s-5.043-3.062-8.7.811a6.991,6.991,0,0,0-1.276,8.088S377.286,633.822,376.583,633.811Z" transform="translate(-360.391 -620.902)" fill="#47652f"/>
              <path id="Path_10136" data-name="Path 10136" d="M378.81,634.781c-.159.016-.442.026-.485-.108a8.738,8.738,0,0,1,.04-5.278,6.237,6.237,0,0,0,.119,2.738,9.875,9.875,0,0,1,.371-2.234,3.93,3.93,0,0,1,1.344-1.935,3.781,3.781,0,0,0-.6,2.786,5.46,5.46,0,0,1,2.379-3.606,4.935,4.935,0,0,0-.947,2.532,10.346,10.346,0,0,1,1.2-1.759,4.342,4.342,0,0,1,1.8-1.241,3.317,3.317,0,0,0-1.2,1.966,8.513,8.513,0,0,1,3.791-2.71,3.664,3.664,0,0,0-1.612,2.114,7.836,7.836,0,0,1,3.9-1.99,5.639,5.639,0,0,0-2.258,1.795,12.19,12.19,0,0,1,3.944-1.2,7.9,7.9,0,0,0-2.287,1.226c1.335-.025,2.713-.664,3.976-.363-.653.229-1.309.467-1.962.7a6.1,6.1,0,0,1,2.874.763,8.167,8.167,0,0,0-1.48-.069,2.744,2.744,0,0,1,2.161,1.539,6.462,6.462,0,0,0-1.287-.66,4.65,4.65,0,0,1,1.682,2.3,4.974,4.974,0,0,0-.968-.786,3.014,3.014,0,0,1,.408.828,3.068,3.068,0,0,1,.188,1.724,12.405,12.405,0,0,0-1.452-2.254c0,.6,0,1.215,0,1.818a6.684,6.684,0,0,0-1.944-3.08c.2.563.4,1.128.6,1.691a6.9,6.9,0,0,0-3.249-2.394c.437.513.876,1.015,1.312,1.528a7,7,0,0,0-4.207-1.028,4.994,4.994,0,0,1,1.967.966,6.862,6.862,0,0,0-4.242.066,7.787,7.787,0,0,1,2.235.413,15.7,15.7,0,0,0-4.216,1.069,8.2,8.2,0,0,1,2.172.088A16.434,16.434,0,0,0,378.81,634.781Z" transform="translate(-361.903 -622.752)" fill="#a0b93b"/>
              <path id="Path_10137" data-name="Path 10137" d="M379.684,638.934c-.009-.054-.005-.116-.014-.17a2.2,2.2,0,0,1,.714-1.576,5.991,5.991,0,0,1,1.8-1.044.375.375,0,0,1,.12-.493,1.471,1.471,0,0,1,.554-.251,3.893,3.893,0,0,0-.214-.348,8.311,8.311,0,0,1,2.112-.622c-.129-.122-.255-.254-.384-.376a6.06,6.06,0,0,1,2.686-.308c-.044-.176-.078-.35-.122-.526a6.278,6.278,0,0,1,2.992.187,3.756,3.756,0,0,1-.539-.66,7.839,7.839,0,0,1,3.506,2.783,1.035,1.035,0,0,1,.239-.373,9.027,9.027,0,0,1,1.879,2.3,2.044,2.044,0,0,1-.056.58,12.443,12.443,0,0,0-1.452-2.254c0,.6,0,1.216,0,1.818a6.69,6.69,0,0,0-1.944-3.08c.2.563.4,1.128.6,1.691a6.9,6.9,0,0,0-3.249-2.394c.437.512.876,1.015,1.313,1.527a7,7,0,0,0-4.207-1.027,4.987,4.987,0,0,1,1.967.966,6.858,6.858,0,0,0-4.242.066,7.778,7.778,0,0,1,2.235.413,15.716,15.716,0,0,0-4.215,1.069,8.177,8.177,0,0,1,2.172.088,14.857,14.857,0,0,0-4.1,2.03A.522.522,0,0,0,379.684,638.934Z" transform="translate(-362.956 -626.893)" fill="#b6be34"/>
              <path id="Path_10138" data-name="Path 10138" d="M378.342,639.415s.154-5.793,7-7.1,8.669,4.044,8.669,4.044-2.672-5.278-8.56-3.739-6.42,6.458-6.42,6.458S378.986,639.787,378.342,639.415Z" transform="translate(-362.15 -626.506)" fill="#47652f"/>
              <path id="Path_10139" data-name="Path 10139" d="M380.493,648.262c-.038-.112-.077-.308.02-.369a7.768,7.768,0,0,1,4.082-1.078,5.5,5.5,0,0,0-2.1.656,8.512,8.512,0,0,1,1.769-.2,2.7,2.7,0,0,1,1.663.557,3.166,3.166,0,0,0-2.237.157,3.942,3.942,0,0,1,3.1.936,3.781,3.781,0,0,0-2.078-.139,7.526,7.526,0,0,1,1.513.481,2.744,2.744,0,0,1,1.186,1.022,2.393,2.393,0,0,0-1.677-.445,5.472,5.472,0,0,1,2.581,2.131,2.59,2.59,0,0,0-1.849-.7,5,5,0,0,1,2.043,2.354,3.806,3.806,0,0,0-1.679-1.235,7.738,7.738,0,0,1,1.438,2.552,4.8,4.8,0,0,0-1.244-1.367c.195.947.869,1.792.791,2.751l-.793-1.246a4.4,4.4,0,0,1-.219,2.205,5.653,5.653,0,0,0-.139-1.059,2.23,2.23,0,0,1-.91,1.854,4.464,4.464,0,0,0,.336-1.047,4.217,4.217,0,0,1-1.557,1.68,3.953,3.953,0,0,0,.479-.849,2.63,2.63,0,0,1-.591.461,2.967,2.967,0,0,1-1.305.5,10.645,10.645,0,0,0,1.549-1.505c-.464.125-.94.259-1.4.384a5.992,5.992,0,0,0,2.133-2.029c-.411.262-.823.523-1.224.788a5.656,5.656,0,0,0,1.433-2.808c-.341.413-.674.837-1.015,1.25a5.007,5.007,0,0,0,.255-3.2,4.008,4.008,0,0,1-.489,1.595,4.429,4.429,0,0,0-.6-3,5.7,5.7,0,0,1-.029,1.676,10.133,10.133,0,0,0-1.367-2.776,5.543,5.543,0,0,1,.213,1.564A8.757,8.757,0,0,0,380.493,648.262Z" transform="translate(-363.431 -635.431)" fill="#407d3b"/>
              <path id="Path_10140" data-name="Path 10140" d="M380.491,650.059c.044-.011.09-.032.134-.043a1.7,1.7,0,0,1,1.311.176,3.691,3.691,0,0,1,1.032,1.06.311.311,0,0,1,.4-.015.948.948,0,0,1,.267.339c.079-.076.168-.149.247-.225a5.188,5.188,0,0,1,.755,1.372c.078-.118.166-.233.244-.351a3.86,3.86,0,0,1,.578,1.842c.128-.065.257-.13.4-.193a4.284,4.284,0,0,1,.247,2.164,3.439,3.439,0,0,1,.439-.526,6.485,6.485,0,0,1-1.7,3.071.745.745,0,0,1,.322.093,8.041,8.041,0,0,1-1.536,1.819,2.311,2.311,0,0,1-.455.086,10.677,10.677,0,0,0,1.55-1.5c-.464.125-.94.258-1.4.384a6,6,0,0,0,2.133-2.03c-.411.262-.823.524-1.224.788a5.657,5.657,0,0,0,1.433-2.808c-.341.413-.674.837-1.015,1.25a5.008,5.008,0,0,0,.255-3.2,4.011,4.011,0,0,1-.489,1.595,4.428,4.428,0,0,0-.6-3,5.7,5.7,0,0,1-.029,1.676,10.135,10.135,0,0,0-1.367-2.776,5.541,5.541,0,0,1,.214,1.564,9.228,9.228,0,0,0-2.1-2.491A.246.246,0,0,1,380.491,650.059Z" transform="translate(-363.455 -637.347)" fill="#66923f"/>
              <path id="Path_10141" data-name="Path 10141" d="M378.543,649.545a5.822,5.822,0,0,1,4.382,10.487s3.731-3,1.784-6.864a5.68,5.68,0,0,0-5.82-3.214S378.333,650.069,378.543,649.545Z" transform="translate(-362.243 -637.027)" fill="#47652f"/>
              <path id="Path_10142" data-name="Path 10142" d="M356.081,643.381c.111-.079.3-.256.241-.383a9.513,9.513,0,0,0-3.355-3.975,6.9,6.9,0,0,1,1.651,2.153,9.9,9.9,0,0,0-1.64-1.454,3.434,3.434,0,0,0-2.073-.626,3.849,3.849,0,0,1,2.137,1.741,4.852,4.852,0,0,0-3.785-1.245,4.717,4.717,0,0,1,2.188,1.327,8.986,8.986,0,0,0-1.865-.58,3.379,3.379,0,0,0-1.921.186,3.021,3.021,0,0,1,2.007.736,6.7,6.7,0,0,0-4.11.313,3.211,3.211,0,0,1,2.358.607,6.05,6.05,0,0,0-3.727.928,4.565,4.565,0,0,1,2.557-.056,9.453,9.453,0,0,0-3.253,1.553,6.027,6.027,0,0,1,2.228-.492c-.857.817-2.143,1.186-2.754,2.2.56-.229,1.122-.468,1.691-.695a5.417,5.417,0,0,0-1.347,2.37,7.139,7.139,0,0,1,.892-.976,2.79,2.79,0,0,0-.4,2.518,5.531,5.531,0,0,1,.4-1.3,5.2,5.2,0,0,0,.376,2.795,5.305,5.305,0,0,1,.121-1.2,3.04,3.04,0,0,0,.27.891,3.671,3.671,0,0,0,.96,1.429,14.442,14.442,0,0,1-.5-2.614c.386.459.762.917,1.146,1.387a7.417,7.417,0,0,1-.707-3.554c.231.55.45,1.108.681,1.657a7.01,7.01,0,0,1,.552-3.845c.042.653.092,1.319.133,1.972a6.128,6.128,0,0,1,2.013-3.407,4.832,4.832,0,0,0-.642,1.955,5.512,5.512,0,0,1,2.726-2.594,6.951,6.951,0,0,0-1.158,1.706,12.523,12.523,0,0,1,3.344-1.823,6.786,6.786,0,0,0-1.323,1.42A11.488,11.488,0,0,1,356.081,643.381Z" transform="translate(-340.658 -630.705)" fill="#407d3b"/>
              <path id="Path_10143" data-name="Path 10143" d="M359.774,648.181a1.522,1.522,0,0,0-.1-.138,2.135,2.135,0,0,0-1.442-.756,4.418,4.418,0,0,0-1.8.338.4.4,0,0,0-.389-.3,1.131,1.131,0,0,0-.513.157c-.033-.132-.056-.262-.089-.394a6.444,6.444,0,0,0-1.737.85c0-.177.005-.352,0-.519a4.683,4.683,0,0,0-1.89,1.45c-.088-.165-.168-.318-.257-.483a5.248,5.248,0,0,0-1.786,2.013,4.334,4.334,0,0,0-.074-.837,7.983,7.983,0,0,0-.467,4.3.8.8,0,0,0-.387-.127,10.159,10.159,0,0,0,.257,2.913,2.787,2.787,0,0,0,.4.41,14.452,14.452,0,0,1-.5-2.614c.386.46.762.917,1.146,1.387a7.411,7.411,0,0,1-.707-3.553c.231.55.45,1.108.681,1.657a7.011,7.011,0,0,1,.553-3.845c.042.654.091,1.319.133,1.972a6.126,6.126,0,0,1,2.013-3.406,4.825,4.825,0,0,0-.642,1.956,5.507,5.507,0,0,1,2.726-2.594,6.941,6.941,0,0,0-1.158,1.706,12.547,12.547,0,0,1,3.344-1.823,6.775,6.775,0,0,0-1.323,1.42,11.45,11.45,0,0,1,3.882-1.018A1.613,1.613,0,0,1,359.774,648.181Z" transform="translate(-344.226 -635.602)" fill="#66923f"/>
              <path id="Path_10144" data-name="Path 10144" d="M359.85,647.2A7.174,7.174,0,0,0,348,654.655s-1.629-5.669,3.063-8.18a6.993,6.993,0,0,1,8.142.894S359.689,647.883,359.85,647.2Z" transform="translate(-343.427 -634.304)" fill="#47652f"/>
              <path id="Path_10145" data-name="Path 10145" d="M352.735,635.92c.165.005.448,0,.469-.145a8.727,8.727,0,0,0-.452-5.263,6.336,6.336,0,0,1,.1,2.743,9.7,9.7,0,0,0-.55-2.2,3.793,3.793,0,0,0-1.5-1.818,3.8,3.8,0,0,1,.816,2.736,5.451,5.451,0,0,0-2.659-3.415A4.942,4.942,0,0,1,350.1,631a11.037,11.037,0,0,0-1.326-1.655,4.3,4.3,0,0,0-1.886-1.094,3.271,3.271,0,0,1,1.351,1.868,8.41,8.41,0,0,0-4-2.4,3.685,3.685,0,0,1,1.772,1.983,7.8,7.8,0,0,0-4.042-1.677,5.734,5.734,0,0,1,2.395,1.612,12.2,12.2,0,0,0-4.019-.892,8,8,0,0,1,2.374,1.046c-1.326.08-2.755-.456-4-.056.667.179,1.343.36,2.007.549a5.9,5.9,0,0,0-2.805.987,8.39,8.39,0,0,1,1.464-.184,2.715,2.715,0,0,0-2.029,1.7,6.949,6.949,0,0,1,1.227-.756,4.7,4.7,0,0,0-1.5,2.419,4.643,4.643,0,0,1,.907-.859,2.836,2.836,0,0,0-.346.858,3.289,3.289,0,0,0-.062,1.731,12.822,12.822,0,0,1,1.271-2.356c.043.6.1,1.205.137,1.817a6.587,6.587,0,0,1,1.7-3.216c-.159.577-.319,1.155-.468,1.734a6.8,6.8,0,0,1,3.057-2.635c-.4.544-.79,1.081-1.192,1.626A6.975,6.975,0,0,1,346.2,631.8a5.136,5.136,0,0,0-1.887,1.108,6.9,6.9,0,0,1,4.234-.265,7.785,7.785,0,0,0-2.2.583,15.934,15.934,0,0,1,4.281.743,8.726,8.726,0,0,0-2.154.249A14.712,14.712,0,0,1,352.735,635.92Z" transform="translate(-337.086 -623.838)" fill="#66923f"/>
              <path id="Path_10146" data-name="Path 10146" d="M353.569,640.213a.92.92,0,0,0,0-.167,2.242,2.242,0,0,0-.825-1.523,5.637,5.637,0,0,0-1.869-.893.385.385,0,0,0-.163-.483,1.475,1.475,0,0,0-.566-.209c.058-.122.117-.244.185-.364a8.487,8.487,0,0,0-2.163-.459c.114-.141.236-.27.351-.41a5.884,5.884,0,0,0-2.7-.091c.03-.18.06-.361.079-.543a6.428,6.428,0,0,0-2.971.421,3.81,3.81,0,0,0,.488-.7,7.649,7.649,0,0,0-3.275,3.054.938.938,0,0,0-.275-.352,9.25,9.25,0,0,0-1.692,2.429,2.173,2.173,0,0,0,.1.573,12.823,12.823,0,0,1,1.271-2.356c.043.6.1,1.205.137,1.817a6.592,6.592,0,0,1,1.7-3.216c-.159.577-.319,1.155-.468,1.734a6.79,6.79,0,0,1,3.057-2.635c-.4.544-.791,1.081-1.192,1.626a6.976,6.976,0,0,1,4.112-1.351A5.135,5.135,0,0,0,345,637.22a6.9,6.9,0,0,1,4.234-.265,7.773,7.773,0,0,0-2.2.583,15.933,15.933,0,0,1,4.281.742,8.759,8.759,0,0,0-2.154.249,15.023,15.023,0,0,1,4.245,1.7A.908.908,0,0,1,353.569,640.213Z" transform="translate(-337.743 -628.134)" fill="#779a40"/>
              <path id="Path_10147" data-name="Path 10147" d="M354.4,640.468s-.611-5.765-7.524-6.532-8.326,4.706-8.326,4.706,2.254-5.472,8.246-4.391,6.9,5.945,6.9,5.945S353.795,640.885,354.4,640.468Z" transform="translate(-337.973 -627.57)" fill="#47652f"/>
              <path id="Path_10148" data-name="Path 10148" d="M366.937,649.356c.022-.1.049-.27-.046-.311a6.69,6.69,0,0,0-3.6-.655,5.08,5.08,0,0,1,1.869.425,6.957,6.957,0,0,0-1.546-.053,2.445,2.445,0,0,0-1.409.591,2.742,2.742,0,0,1,1.946-.015,3.416,3.416,0,0,0-2.615,1.019,3.3,3.3,0,0,1,1.781-.259,7.324,7.324,0,0,0-1.278.516,2.427,2.427,0,0,0-.961.96,2.132,2.132,0,0,1,1.418-.5A4.7,4.7,0,0,0,360.4,653.1a2.268,2.268,0,0,1,1.553-.725,4.262,4.262,0,0,0-1.606,2.178,3.291,3.291,0,0,1,1.364-1.183,6.557,6.557,0,0,0-1.073,2.307,4.147,4.147,0,0,1,.987-1.266c-.1.829-.627,1.605-.5,2.434.2-.381.405-.751.6-1.133a3.819,3.819,0,0,0,.338,1.892,4.765,4.765,0,0,1,.052-.934,1.953,1.953,0,0,0,.914,1.543,4.541,4.541,0,0,1-.365-.881,3.686,3.686,0,0,0,1.455,1.351,3.769,3.769,0,0,1-.476-.708,1.944,1.944,0,0,0,.543.359,2.448,2.448,0,0,0,1.161.341,10.327,10.327,0,0,1-1.449-1.194c.418.082.828.153,1.246.235a5.121,5.121,0,0,1-1.979-1.613l1.115.59a4.92,4.92,0,0,1-1.425-2.331c.319.341.641.672.959,1.013a4.305,4.305,0,0,1-.437-2.756,3.47,3.47,0,0,0,.53,1.354,3.882,3.882,0,0,1,.314-2.631,5.177,5.177,0,0,0,.135,1.453,8.655,8.655,0,0,1,1-2.489,5.045,5.045,0,0,0-.084,1.363A7.936,7.936,0,0,1,366.937,649.356Z" transform="translate(-351.22 -636.366)" fill="#66923f"/>
              <path id="Path_10149" data-name="Path 10149" d="M369.669,650.565l-.119-.027a1.5,1.5,0,0,0-1.123.239,3.075,3.075,0,0,0-.822.991.284.284,0,0,0-.344.007.725.725,0,0,0-.2.308c-.08-.059-.151-.117-.231-.176a4.254,4.254,0,0,0-.555,1.237c-.084-.091-.155-.19-.239-.282a3.265,3.265,0,0,0-.375,1.641l-.353-.141a3.64,3.64,0,0,0-.066,1.886,3.238,3.238,0,0,0-.414-.425,5.638,5.638,0,0,0,1.679,2.544.645.645,0,0,0-.273.106,7.127,7.127,0,0,0,1.451,1.465,1.953,1.953,0,0,0,.405.048,10.4,10.4,0,0,1-1.449-1.194c.418.082.829.153,1.246.235a5.126,5.126,0,0,1-1.979-1.613l1.115.59a4.915,4.915,0,0,1-1.425-2.331c.319.341.64.672.959,1.013a4.305,4.305,0,0,1-.437-2.756,3.471,3.471,0,0,0,.531,1.354,3.88,3.88,0,0,1,.314-2.631,5.173,5.173,0,0,0,.134,1.453,8.677,8.677,0,0,1,1-2.489,5.074,5.074,0,0,0-.084,1.363,8.123,8.123,0,0,1,1.642-2.294A.5.5,0,0,0,369.669,650.565Z" transform="translate(-353.937 -637.685)" fill="#407d3b"/>
              <path id="Path_10150" data-name="Path 10150" d="M370.09,650.037A5.054,5.054,0,0,0,367,659.406s-3.435-2.352-2.012-5.816a4.93,4.93,0,0,1,4.817-3.168S370.314,650.481,370.09,650.037Z" transform="translate(-353.74 -637.373)" fill="#47652f"/>
            </g>
            <rect id="Rectangle_4395" data-name="Rectangle 4395" width="1.447" height="3.897" transform="translate(15.596 12.626)" fill="#47652f"/>
          </g>
          <g id="Group_5086" data-name="Group 5086" transform="translate(90.442 204.928)">
            <path id="Path_10177" data-name="Path 10177" d="M110.133,693.442a4.286,4.286,0,0,1-8.565,0c0-2.27,1.918-7.561,4.283-7.561S110.133,691.172,110.133,693.442Z" transform="translate(-101.568 -685.881)" fill="#37b34a"/>
            <path id="Path_10178" data-name="Path 10178" d="M106.288,685.99c1.531.861,2.645,4.881,2.645,6.5a3.672,3.672,0,0,1-3.746,3.594,3.72,3.72,0,0,1-3.616-2.672c0,.032,0,.066,0,.1a4.286,4.286,0,0,0,8.565,0C110.133,691.38,108.448,686.409,106.288,685.99Z" transform="translate(-101.568 -685.947)" fill="#2d9c40"/>
            <path id="Path_10179" data-name="Path 10179" d="M112.021,714.679h-1.677l.525-8.486h.626Z" transform="translate(-106.9 -698.221)" fill="#70431c"/>
          </g>
          <g id="Group_5088" data-name="Group 5088" transform="translate(137.654 204.928)">
            <path id="Path_10183" data-name="Path 10183" d="M230.426,693.442a4.286,4.286,0,0,1-8.566,0c0-2.27,1.918-7.561,4.283-7.561S230.426,691.172,230.426,693.442Z" transform="translate(-221.86 -685.881)" fill="#37b34a"/>
            <path id="Path_10184" data-name="Path 10184" d="M226.58,685.99c1.531.861,2.645,4.881,2.645,6.5a3.672,3.672,0,0,1-3.746,3.594,3.72,3.72,0,0,1-3.617-2.672c0,.032,0,.066,0,.1a4.286,4.286,0,0,0,8.566,0C230.426,691.38,228.74,686.409,226.58,685.99Z" transform="translate(-221.86 -685.947)" fill="#2d9c40"/>
            <path id="Path_10185" data-name="Path 10185" d="M232.313,714.679h-1.677l.525-8.486h.626Z" transform="translate(-227.191 -698.221)" fill="#70431c"/>
          </g>
        </g>
      </g>
      <g id="Group_5604" data-name="Group 5604" transform="translate(-28.687 -150.068)">
        <g id="Group_5515" data-name="Group 5515" transform="translate(110.317 48.519)">
          <g id="Group_5514" data-name="Group 5514" transform="translate(0 0)">
            <g id="Group_5512" data-name="Group 5512" transform="translate(0 0)">
              <g id="Group_5508" data-name="Group 5508" transform="translate(0)">
                <g id="Group_5505" data-name="Group 5505">
                  <g id="Group_5502" data-name="Group 5502" transform="translate(0)">
                    <g id="Group_5491" data-name="Group 5491">
                      <g id="Group_5487" data-name="Group 5487">
                        <path id="Rectangle_4552" data-name="Rectangle 4552" d="M5.729,0H41.553a5.728,5.728,0,0,1,5.728,5.728V77.174A5.728,5.728,0,0,1,41.553,82.9H5.731A5.731,5.731,0,0,1,0,77.171V5.729A5.729,5.729,0,0,1,5.729,0Z" transform="translate(25.445 185.47)" fill="#1f1b20"/>
                        <path id="Path_10634" data-name="Path 10634" d="M82.615,319.145H71.554v82.9H82.615a7.365,7.365,0,0,0,7.368-7.366V326.514A7.363,7.363,0,0,0,82.615,319.145Z" transform="translate(-17.256 -133.675)" fill="#161316"/>
                        <path id="Path_10635" data-name="Path 10635" d="M217.547,394.682a7.365,7.365,0,0,1-7.363,7.366H177.631a7.37,7.37,0,0,1-7.373-7.366V326.514a7.368,7.368,0,0,1,7.373-7.369h32.553a7.363,7.363,0,0,1,7.363,7.369Z" transform="translate(10.932 -133.675)" fill="#1f1b20"/>
                        <path id="Path_10636" data-name="Path 10636" d="M190.231,319.145h-12.6a7.368,7.368,0,0,0-7.373,7.369v68.168a7.37,7.37,0,0,0,7.373,7.366h12.6Z" transform="translate(10.932 -133.675)" fill="#161316"/>
                        <path id="Path_10637" data-name="Path 10637" d="M53.014,170.009c0-12.549,9.3-12.454,23.192-12.454H224.3c13.889,0,26.132,2.164,25.15,15.968v103.9L237.57,346.513c-2.832,11.577-5.322,17.348-19.214,17.348H82.147c-13.888,0-17.378-5.68-19.21-17.348L51.06,277.42Z" transform="translate(-23.108 -157.555)" fill="#8b8b8b"/>
                        <path id="Path_10638" data-name="Path 10638" d="M57.841,174.583c0-12.279,6-10.445,19.6-10.445H222.4c13.592,0,18.346-2.152,19.016,10.445V284.44L235.382,349.1c-2.77,11.331-5.208,16.982-18.8,16.982H83.249c-13.6,0-17.009-5.559-18.8-16.982L52.821,281.461Z" transform="translate(-22.606 -155.774)" fill="#d0d0d0"/>
                        <path id="Path_10639" data-name="Path 10639" d="M243.9,362.361c0,12.472-10.71,22.591-23.923,22.591H79.072c-13.214,0-23.93-10.119-23.93-22.591l-.38-82.051,11.307-68.717c2.691-11.516,5.059-17.255,18.271-17.255h129.6c13.213,0,16.533,5.649,18.276,17.255l11.3,68.717Z" transform="translate(-22.212 -154.255)" fill="#ffca53"/>
                        <path id="Path_10640" data-name="Path 10640" d="M232.583,271.567l-9-55.64c-1.579-11.569-4.591-17.195-16.6-17.195H89.252c-12.006,0-14.156,5.717-16.6,17.195L62,271.567Z" transform="translate(-19.984 -154.993)" fill="#444"/>
                        <path id="Path_10641" data-name="Path 10641" d="M228.855,271.05l-8.786-53.556c-1.526-11.15-4.435-16.58-16.008-16.58H90.535c-11.575,0-13.649,5.516-16.008,16.58L64.374,271.05Z" transform="translate(-19.306 -154.477)" fill="#b2f3ff"/>
                        <path id="Path_10642" data-name="Path 10642" d="M49.783,385.939c-12.555,0-17.081-2.821-17.081-13.265V351.987a8.4,8.4,0,0,1,5.655-8.224l-.935-42.076c0-10.444,22.733-35.53,22.733-35.53H248.967s22.733,25.086,22.733,35.53l.935,42.076s5.65,2.16,5.65,8.224v20.688c0,10.444-4.527,13.265-17.08,13.265Z" transform="translate(-28.351 -141.718)" fill="#ffca53"/>
                        <path id="Path_10644" data-name="Path 10644" d="M176.084,331.2a4.781,4.781,0,0,0,4.471,5.036l43.2.074a4.784,4.784,0,0,0,4.474-5.036V316.692a4.776,4.776,0,0,0-4.474-5.031l-47.673,5.031c-2.471,0,0,.716,0,3.5Z" transform="translate(11.818 -135.781)" fill="#fff" stroke="#444" stroke-miterlimit="10" stroke-width="1.972"/>
                        <path id="Path_10707" data-name="Path 10707" d="M1.1,5.109A4.781,4.781,0,0,1,5.569.074L48.771,0a4.784,4.784,0,0,1,4.474,5.036V19.614a4.776,4.776,0,0,1-4.474,5.031L1.1,19.614c-2.471,0,0-.716,0-3.5Z" transform="translate(74.468 200.524) rotate(180)" fill="#fff" stroke="#444" stroke-miterlimit="10" stroke-width="1.972"/>
                        <path id="Path_10645" data-name="Path 10645" d="M177.3,329.981a4.038,4.038,0,0,0,4,4.074l43.379-17.061a4.03,4.03,0,0,0-3.992-4.071L181.3,316.994a4.039,4.039,0,0,0-4,4.077Z" transform="translate(12.943 -135.955)" fill="#ddd"/>
                        <path id="Path_10706" data-name="Path 10706" d="M0,4.074A4.038,4.038,0,0,1,4,0L47.376,17.061a4.031,4.031,0,0,1-3.992,4.071L4,17.061a4.039,4.039,0,0,1-4-4.077Z" transform="translate(72.036 199.437) rotate(180)" fill="#ddd"/>
                        <path id="Path_10654" data-name="Path 10654" d="M266.045,358.445c-9.527,4.7-154.447,3.029-191.414,2.551-16.844-.219-31-3.426-41.929-12.235V356.2c0,10.431,4.529,13.242,17.09,13.242H261.322c12.558,0,17.088-2.81,17.088-13.242v-7.388A37.714,37.714,0,0,1,266.045,358.445Z" transform="translate(-28.351 -125.218)" fill="#444"/>
                        <path id="Path_10656" data-name="Path 10656" d="M270.714,332.879s.028,4.482-3.674,5.48-225.935,1.494-227.636,0-1.421-5.48-1.421-5.48" transform="translate(-26.848 -129.753)" fill="#f6aa00"/>
                        <g id="Group_5484" data-name="Group 5484" transform="translate(70.602 106.056)">
                          <path id="Path_10660" data-name="Path 10660" d="M102.25,257.751a1.753,1.753,0,0,1-1.756,1.756h-14.5a1.755,1.755,0,0,1-1.756-1.756h0A1.758,1.758,0,0,1,85.992,256h14.5a1.756,1.756,0,0,1,1.756,1.756Z" transform="translate(-84.236 -248.859)" fill="#272228"/>
                          <path id="Path_10661" data-name="Path 10661" d="M91.494,256.443a2.016,2.016,0,1,0-2.018,2.016A2.018,2.018,0,0,0,91.494,256.443Z" transform="translate(-83.315 -249.308)" fill="#1c181c"/>
                          <g id="Group_5483" data-name="Group 5483" transform="translate(5.472)">
                            <path id="Path_10662" data-name="Path 10662" d="M89.423,258.177a.932.932,0,0,1-.113-1.858l46.268-5.869a.932.932,0,1,1,.234,1.849l-46.267,5.874C89.5,258.175,89.465,258.177,89.423,258.177Z" transform="translate(-88.492 -250.444)" fill="#1c181c"/>
                          </g>
                        </g>
                        <g id="Group_5486" data-name="Group 5486" transform="translate(140.562 106.056)">
                          <path id="Path_10663" data-name="Path 10663" d="M156.67,257.751a1.754,1.754,0,0,1-1.756,1.756h-14.5a1.757,1.757,0,0,1-1.759-1.756h0A1.76,1.76,0,0,1,140.414,256h14.5a1.757,1.757,0,0,1,1.756,1.756Z" transform="translate(-138.655 -248.859)" fill="#272228"/>
                          <path id="Path_10664" data-name="Path 10664" d="M145.912,256.443a2.016,2.016,0,1,0-2.016,2.016A2.018,2.018,0,0,0,145.912,256.443Z" transform="translate(-137.734 -249.308)" fill="#1c181c"/>
                          <g id="Group_5485" data-name="Group 5485" transform="translate(5.472)">
                            <path id="Path_10665" data-name="Path 10665" d="M143.844,258.177a.932.932,0,0,1-.116-1.858l46.264-5.869a.932.932,0,1,1,.239,1.849l-46.268,5.874C143.921,258.175,143.883,258.177,143.844,258.177Z" transform="translate(-142.911 -250.444)" fill="#1c181c"/>
                          </g>
                        </g>
                        <g id="Group_5496" data-name="Group 5496" transform="translate(95.748 55.474)">
                          <path id="Path_10666" data-name="Path 10666" d="M42.832,66.459,80.338,29.913" transform="translate(-42.832 -29.913)" fill="none" stroke="#fff" stroke-width="1"/>
                          <path id="Path_10667" data-name="Path 10667" d="M42.832,54.664l25.4-24.751" transform="translate(-23.419 -19.563)" fill="none" stroke="#fff" stroke-width="1"/>
                        </g>
                        <g id="Group_5500" data-name="Group 5500" transform="translate(216.454 98.527)">
                          <path id="Path_10674" data-name="Path 10674" d="M96.532,60.02H108.4" transform="translate(-96.532 -47.167)" fill="none" stroke="#444" stroke-width="2"/>
                          <g id="Group_5439" data-name="Group 5439" transform="translate(2.919)">
                            <path id="Path_10597" data-name="Path 10597" d="M403.474,283.408l18.815-5.055c2.4-.646,3.932-4.084,3.5-7.851l-.605-5.245c-.42-3.64-2.542-6.4-4.923-6.4h-19.4c-2.781,0-4.779,3.707-4.29,7.955l1.19,10.3C398.235,281.232,400.853,284.113,403.474,283.408Z" transform="translate(-396.497 -258.858)" fill="#444"/>
                          </g>
                        </g>
                        <g id="Group_5601" data-name="Group 5601" transform="translate(34.972 124.337) rotate(180)">
                          <path id="Path_10674-2" data-name="Path 10674" d="M0,0H11.873" transform="translate(0 14.006)" fill="none" stroke="#444" stroke-width="2"/>
                          <g id="Group_5439-2" data-name="Group 5439" transform="matrix(0.966, 0.259, -0.259, 0.966, 6.61, 0)">
                            <path id="Path_10597-2" data-name="Path 10597" d="M6.977,24.55,25.792,19.5c2.4-.646,3.932-4.084,3.5-7.851L28.684,6.4c-.42-3.64-2.542-6.4-4.923-6.4H4.364C1.583,0-.415,3.707.074,7.955l1.19,10.3C1.739,22.374,4.356,25.255,6.977,24.55Z" transform="translate(0 0)" fill="#444"/>
                          </g>
                        </g>
                      </g>
                    </g>
                  </g>
                  <path id="Path_10675" data-name="Path 10675" d="M-5.092,3.315l125.965-.539V27.14H-5.092Z" transform="translate(75.009 175.36)" fill="#3c3c3c"/>
                  <path id="Path_10676" data-name="Path 10676" d="M949.207,5333.235c2.425-.3,101.249-.714,104.616,0s-3.344,15.722-6.3,16.026-91.688.245-94.3,0S946.782,5333.527,949.207,5333.235Z" transform="translate(-870.663 -5150.104)" fill="#272727" stroke="#707070" stroke-width="1"/>
                  <g id="Group_5504" data-name="Group 5504" transform="translate(95.681 187.214)">
                    <path id="Path_10671" data-name="Path 10671" d="M956.478,5334.853H1025.4" transform="translate(-956.478 -5334.853)" fill="none" stroke="#fff" stroke-linecap="round" stroke-width="1"/>
                    <path id="Path_10672" data-name="Path 10672" d="M956.478,5334.853H1025.4" transform="translate(-956.478 -5328.172)" fill="none" stroke="#fff" stroke-linecap="round" stroke-width="1"/>
                  </g>
                  <path id="Path_10677" data-name="Path 10677" d="M939.577,5301l-12.807,44.009s56.841,10.838,102.644,10.838,94.522-14.227,98.008-14.032c0,0-2.887-7.6-6.871-18.063S1110.443,5301,1110.443,5301H939.577Z" transform="translate(-897.24 -5184.499)" fill="#f6aa28"/>
                </g>
                <g id="Group_5507" data-name="Group 5507" transform="translate(42.65 11.973)">
                  <g id="Rectangle_4554" data-name="Rectangle 4554" transform="translate(-0.279 -0.424)" fill="#f66800" stroke="#707070" stroke-width="0.5">
                    <rect width="23" height="10" rx="1" stroke="none"/>
                    <rect x="0.25" y="0.25" width="22.5" height="9.5" rx="0.75" fill="none"/>
                  </g>
                  <g id="Rectangle_4555" data-name="Rectangle 4555" transform="translate(144.721 -0.424)" fill="#f66800" stroke="#707070" stroke-width="0.5">
                    <rect width="21" height="10" rx="1" stroke="none"/>
                    <rect x="0.25" y="0.25" width="20.5" height="9.5" rx="0.75" fill="none"/>
                  </g>
                </g>
              </g>
            </g>
          </g>
        </g>
      </g>
    </g>
  </g>
</svg>
