<svg xmlns="http://www.w3.org/2000/svg" width="414.25" height="186" viewBox="0 0 414.25 186">
  <g id="Group_4734" data-name="Group 4734" transform="translate(0 -622)">
    <path id="Path_9571" data-name="Path 9571" d="M0,0S105.726,58.979,209.226,58.979,414,0,414,0V186H0Z" transform="translate(0 622)" fill="#2577d6"/>
    <path id="Path_9367" data-name="Path 9367" d="M591.908,1304.636c-7.485-2.084-15.438-.085-23.051,1.446-7.613,1.489-16.033,2.382-22.753-1.573-15.013-8.8-13.524-36.447-30.493-40.19-14.417-3.147-27.091,15.651-41.423,12.078-7.357-1.829-11.951-9.016-15.438-15.778-2.382-4.636-4.593-9.314-6.677-14.077A41.309,41.309,0,0,0,393,1227.574h0c-2.679,1.573-5.741,3.232-8.718,2.381-3.572-1.021-5.189-5.1-6.294-8.633l-6.932-22.158a14.932,14.932,0,0,0-26.07-4.678.748.748,0,0,1-.17.213c-5.231,6.89-12.631,14.715-20.967,12.376-5.061-1.4-8.378-6.337-10.037-11.313-3.1-9.271-1.956-19.478-4.083-29.047s-9.782-19.436-19.521-18.33a14.8,14.8,0,0,0-6.209,2.254v170.5H577.151c9.867,0,16.374-1.318,25.985.936C605.9,1314.715,599.393,1306.677,591.908,1304.636Z" transform="translate(-284 -519.896)" fill="#2372cc"/>
    <g id="Group_4662" data-name="Group 4662" transform="translate(287.125 623.093)">
      <path id="Path_9374" data-name="Path 9374" d="M1140.925,727.8c-7.05,2.854-13.484,8.393-18.856,13.988-8.84,9.288-18.129,20.031-30.886,21.6-15,1.846-28.984-10.016-44.035-8.841-12.645.951-22.941,10.687-33.348,18.912h127.125Z" transform="translate(-1013.8 -693.8)" fill="#2372cc"/>
    </g>
  </g>
</svg>
