<svg xmlns="http://www.w3.org/2000/svg" width="417" height="397.951" viewBox="0 0 417 397.951">
  <g id="Group_4732" data-name="Group 4732" transform="translate(-351 -88.57)">
    <g id="Group_4728" data-name="Group 4728" transform="translate(351 210.404)" opacity="0.698">
      <path id="Path_9367" data-name="Path 9367" d="M591.908,1304.636c-7.485-2.084-15.438-.085-23.051,1.446-7.613,1.489-16.033,2.382-22.753-1.573-15.013-8.8-13.524-36.447-30.493-40.19-14.417-3.147-27.091,15.651-41.423,12.078-7.357-1.829-11.951-9.016-15.438-15.778-2.382-4.636-4.593-9.314-6.677-14.077A41.309,41.309,0,0,0,393,1227.574h0c-2.679,1.573-5.741,3.232-8.718,2.381-3.572-1.021-5.189-5.1-6.294-8.633l-6.932-22.158a14.932,14.932,0,0,0-26.07-4.678.748.748,0,0,1-.17.213c-5.231,6.89-12.631,14.715-20.967,12.376-5.061-1.4-8.378-6.337-10.037-11.313-3.1-9.271-1.956-19.478-4.083-29.047s-9.782-19.436-19.521-18.33a14.8,14.8,0,0,0-6.209,2.254v170.5H577.151c9.867,0,16.374-1.318,25.985.936C605.9,1314.715,599.393,1306.677,591.908,1304.636Z" transform="translate(-284 -1148.3)" fill="#fff"/>
    </g>
    <g id="Group_4730" data-name="Group 4730" transform="translate(351.042 123.383)" opacity="0.698">
      <path id="Path_9373" data-name="Path 9373" d="M401.352,941c-9.7-1.191-16.714-9.356-23.476-16.416-6.72-7.06-15.821-13.992-25.3-11.738-9.016,2.169-15.225,12.121-24.5,12.461-7.7.255-13.864-6.422-17.394-13.269s-5.741-14.587-11.143-20.116A24.4,24.4,0,0,0,284.1,884.9v63.751H460.169c-7.91-6.252-15.736-13.652-25.347-14.375C423.382,933.383,412.749,942.356,401.352,941Z" transform="translate(-284.1 -884.9)" fill="#fff"/>
    </g>
    <g id="Group_4729" data-name="Group 4729" transform="translate(482.208 281.619)" opacity="0.698">
      <path id="Path_9368" data-name="Path 9368" d="M854.795,1104.336c-1.361-4.551-3.36-8.463-7.57-10.632-7.187-3.7-15.863.936-21.817,6.422-26.963,25.049-30.833,67.961-57.456,93.393-6.847,6.549-17.649,11.738-25.475,6.337-6.932-4.806-7.443-15.438-13.907-20.882-6.932-5.784-17.692-3.1-24.964,2.254-7.23,5.359-12.674,12.971-20.159,17.947-7.528,4.976-18.8,6.464-24.752-.34-5.529-6.337-4.891-17.9-12.674-21.094-5.826-2.382-12.078,1.956-16.756,6.167-16.076,14.5-73.558,75.871-57.44,98.071,13.992,19.266,64.712-2.566,86.87,5.344,29.94,10.675,61.411,7.2,93.181,8.35q50.141,1.786,100.325,1.574h2.594v-192.91Z" transform="translate(-569.003 -1092.375)" fill="#fff"/>
    </g>
    <g id="Group_4731" data-name="Group 4731" transform="translate(671.375 54.57)">
      <path id="Path_9374" data-name="Path 9374" d="M1110.425,727.8c-5.359,2.169-10.249,6.379-14.332,10.632-6.719,7.06-13.779,15.225-23.476,16.416-11.4,1.4-22.03-7.613-33.47-6.72-9.611.723-17.437,8.123-25.347,14.375h96.625Z" transform="translate(-1013.8 -693.8)" fill="#fff"/>
    </g>
  </g>
</svg>
