<svg xmlns="http://www.w3.org/2000/svg" width="113.712" height="8.69" viewBox="0 0 113.712 8.69">
  <path id="Path_9252" data-name="Path 9252" d="M173.407,262.3l-2.655,8.521h-5.383l2.052-6.469h2.486l.072-.193h-2.51a3.329,3.329,0,0,1-2.148-.748,3.057,3.057,0,0,1-.821-1.086h8.907Zm11.852,3.765c-.121-1.207-1.231-1.786-3.355-1.762l-6.927.145-2,6.372h4.441l.241-.628c.748-1.979,1.4-3.186,1.979-3.621a2.3,2.3,0,0,1,1.352-.386c-.193.483-.338.869-.434,1.183l-1.086,3.452h4.49l1.086-3.452a2.728,2.728,0,0,0,.217-1.3Zm12.383,1.834a3.314,3.314,0,0,1-1.762,2.124,8.651,8.651,0,0,1-4.393.965,7.037,7.037,0,0,1-.748-.024,8.846,8.846,0,0,1-2.945-.6,2.69,2.69,0,0,1-1.907-2.148,2.854,2.854,0,0,1,.072-.893,3.573,3.573,0,0,1,2.462-2.414,10.037,10.037,0,0,1,3.645-.6,7.02,7.02,0,0,1,.748.024,8.182,8.182,0,0,1,2.969.628,2.715,2.715,0,0,1,1.883,2.2,1.98,1.98,0,0,1-.024.748Zm-4.514-.531a3.782,3.782,0,0,0,.048-.7q-.072-.8-1.014-.8c-.821,0-1.352.579-1.617,1.738a3.234,3.234,0,0,0-.072.917.879.879,0,0,0,.99.845c.869-.024,1.424-.676,1.665-2Zm17.693-2.921-5.986,6.372h-4.659l-2.124-6.372h4.369l.724,3.983,3.065-3.983Zm11.755,0c-1.714-.1-4.1-.169-7.169-.169a6.6,6.6,0,0,0-3.548.941,3.413,3.413,0,0,0-1.834,2.993,2.623,2.623,0,0,0,.024.434,2.254,2.254,0,0,0,1.062,1.762,3.8,3.8,0,0,0,2.052.507,4.29,4.29,0,0,0,3.621-1.762l-.531,1.665h4.321l2-6.372Zm-4.876,1.424-.29.748a6.081,6.081,0,0,1-.845,1.569,1.905,1.905,0,0,1-1.424.917c-.362,0-.531-.241-.531-.724a3.241,3.241,0,0,1,.362-1.352,1.778,1.778,0,0,1,1.641-1.159Zm18.127-3.572-1.714,2.052h-2.39l-2,6.493h-5.359l2-6.469h2.365l.072-.193h-2.993a3.329,3.329,0,0,1-2.148-.748,3.057,3.057,0,0,1-.821-1.086l12.986-.048Zm7.145,4.152-.193-1.786c-.024-.266-.676-.386-1.931-.386-.821,0-2.872.072-6.107.193l-1.979,6.372H237.2l.241-.628a11.792,11.792,0,0,1,1.086-2.317,3.385,3.385,0,0,1,2.752-1.834,2.608,2.608,0,0,1,1.69.386Zm12.334-2-1.979,6.372h-4.321l.531-1.665a4.29,4.29,0,0,1-3.621,1.762,3.8,3.8,0,0,1-2.052-.507,2.217,2.217,0,0,1-1.062-1.762,2.62,2.62,0,0,1-.024-.434,3.366,3.366,0,0,1,1.834-2.993,6.722,6.722,0,0,1,3.548-.941c3.041.024,5.431.072,7.145.169Zm-4.876,1.424h-1.086a1.8,1.8,0,0,0-1.641,1.159,3.153,3.153,0,0,0-.362,1.352c0,.483.169.724.531.724a1.905,1.905,0,0,0,1.424-.917,6.429,6.429,0,0,0,.845-1.569l.29-.748Zm14.193.579a3.364,3.364,0,0,0-1.979-.483,3.278,3.278,0,0,0-2.341.724,1.661,1.661,0,0,0-.507,1.207v.217c.072.579.459.869,1.207.869a7.585,7.585,0,0,0,3.331-.652l-.7,1.931c-.024.072-.169.145-.41.241a7.633,7.633,0,0,1-2.776.386,8.172,8.172,0,0,1-3.307-.6,2.62,2.62,0,0,1-1.81-2.076c0-.1-.024-.217-.024-.314a2.925,2.925,0,0,1,1.472-2.462,10.579,10.579,0,0,1,7.652-.845l.193,1.859Zm13.589-1.955-.41,1.521a5.926,5.926,0,0,0-.676-.048,3.459,3.459,0,0,0-1.955.507l-1.255.821,2.269,3.548h-4.779l-1.207-3.186-.99,3.186h-4.465L267.4,262.3h4.49l-1.4,4.465a3.591,3.591,0,0,1,1.062-1.207,7.555,7.555,0,0,1,4.586-1.231A6.6,6.6,0,0,1,278.212,264.5Z" transform="translate(-164.5 -262.3)" fill="#fff" fill-rule="evenodd"/>
</svg>
