<svg xmlns="http://www.w3.org/2000/svg" xmlns:xlink="http://www.w3.org/1999/xlink" width="42" height="42" viewBox="0 0 42 42">
  <defs>
    <filter id="Rectangle_4566" x="0" y="0" width="42" height="42" filterUnits="userSpaceOnUse">
      <feOffset dy="3" input="SourceAlpha"/>
      <feGaussianBlur stdDeviation="3" result="blur"/>
      <feFlood flood-opacity="0.161"/>
      <feComposite operator="in" in2="blur"/>
      <feComposite in="SourceGraphic"/>
    </filter>
  </defs>
  <g id="Group_5763" data-name="Group 5763" transform="translate(-26 -389)">
    <g id="Group_5578" data-name="Group 5578" transform="translate(0 259)">
      <g id="Group_5577" data-name="Group 5577">
        <g id="Group_5565" data-name="Group 5565" transform="translate(-72)">
          <g transform="matrix(1, 0, 0, 1, 98, 130)" filter="url(#Rectangle_4566)">
            <rect id="Rectangle_4566-2" data-name="Rectangle 4566" width="24" height="24" rx="3" transform="translate(9 6)" fill="#2577d6"/>
          </g>
        </g>
      </g>
    </g>
    <g id="send" transform="matrix(0.891, -0.454, 0.454, 0.891, 44.796, 388.885)">
      <g id="Group_5586" data-name="Group 5586" transform="translate(-12.474 9.665)">
        <path id="Path_10697" data-name="Path 10697" d="M14.826,22.557.768,16.069a.544.544,0,0,0-.647.151.538.538,0,0,0-.013.664l4.623,6.164L.109,29.212a.54.54,0,0,0,.659.815l14.058-6.488a.541.541,0,0,0,0-.982Z" transform="translate(0 -16.02)" fill="#fff"/>
      </g>
    </g>
  </g>
</svg>
