<svg xmlns="http://www.w3.org/2000/svg" xmlns:xlink="http://www.w3.org/1999/xlink" width="38.693" height="42.103" viewBox="0 0 38.693 42.103">
  <defs>
    <filter id="Path_9494" x="6.435" y="18.466" width="23.646" height="23.637" filterUnits="userSpaceOnUse">
      <feOffset dy="3" input="SourceAlpha"/>
      <feGaussianBlur stdDeviation="3" result="blur"/>
      <feFlood flood-opacity="0.161"/>
      <feComposite operator="in" in2="blur"/>
      <feComposite in="SourceGraphic"/>
    </filter>
    <filter id="Path_9496" x="7.583" y="1.524" width="21.349" height="21.344" filterUnits="userSpaceOnUse">
      <feOffset dy="3" input="SourceAlpha"/>
      <feGaussianBlur stdDeviation="3" result="blur-2"/>
      <feFlood flood-opacity="0.161"/>
      <feComposite operator="in" in2="blur-2"/>
      <feComposite in="SourceGraphic"/>
    </filter>
    <filter id="Path_9498" x="0" y="4.25" width="36.516" height="34.562" filterUnits="userSpaceOnUse">
      <feOffset dy="3" input="SourceAlpha"/>
      <feGaussianBlur stdDeviation="3" result="blur-3"/>
      <feFlood flood-opacity="0.161"/>
      <feComposite operator="in" in2="blur-3"/>
      <feComposite in="SourceGraphic"/>
    </filter>
    <filter id="Path_9500" x="9.775" y="0" width="28.918" height="28.901" filterUnits="userSpaceOnUse">
      <feOffset dy="3" input="SourceAlpha"/>
      <feGaussianBlur stdDeviation="3" result="blur-4"/>
      <feFlood flood-opacity="0.161"/>
      <feComposite operator="in" in2="blur-4"/>
      <feComposite in="SourceGraphic"/>
    </filter>
  </defs>
  <g id="bell" transform="translate(8.5 6)">
    <g transform="matrix(1, 0, 0, 1, -8.5, -6)" filter="url(#Path_9494)">
      <path id="Path_9494-2" data-name="Path 9494" d="M142.838,395.076a2.823,2.823,0,1,0-2.823,2.818A2.821,2.821,0,0,0,142.838,395.076Zm0,0" transform="translate(-121.76 -367.79)" fill="#f6d000"/>
    </g>
    <g transform="matrix(1, 0, 0, 1, -8.5, -6)" filter="url(#Path_9496)">
      <path id="Path_9496-2" data-name="Path 9496" d="M163.589,35.678A1.672,1.672,0,1,1,164.9,33.71,1.674,1.674,0,0,1,163.589,35.678Zm0,0" transform="translate(-145 -24.84)" fill="#f6d000"/>
    </g>
    <g transform="matrix(1, 0, 0, 1, -8.5, -6)" filter="url(#Path_9498)">
      <path id="Path_9498-2" data-name="Path 9498" d="M16.75,106.848H2.766a2.269,2.269,0,0,1-1.413-4.042l.449-.362a4.405,4.405,0,0,0,1.643-3.431V96.636a6.361,6.361,0,0,1,12.722,0v2.421a4.405,4.405,0,0,0,1.588,3.385l.437.364a2.286,2.286,0,0,1,.824,1.757v.023A2.264,2.264,0,0,1,16.75,106.848Zm0,0" transform="translate(8.5 -80.03)" fill="#008af6"/>
    </g>
    <g transform="matrix(1, 0, 0, 1, -8.5, -6)" filter="url(#Path_9500)">
      <path id="Path_9500-2" data-name="Path 9500" d="M219.063,5.45A5.459,5.459,0,1,0,213.6,10.9,5.455,5.455,0,0,0,219.063,5.45Zm0,0" transform="translate(-189.37 6)" fill="#ff4d4d"/>
    </g>
    <path id="Path_9502" data-name="Path 9502" d="M300.606,62.714a.381.381,0,0,1-.381-.38v-3.67l-.142.13a.381.381,0,1,1-.514-.562l.78-.71a.381.381,0,0,1,.638.281v4.532A.381.381,0,0,1,300.606,62.714Zm0,0" transform="translate(-284.872 -54.718)" fill="#e3faff"/>
  </g>
</svg>
