<svg xmlns="http://www.w3.org/2000/svg" viewBox="0 0 24 24"><title>accu</title><g id="Layer_2" data-name="Layer 2"><g id="Layer_1-2" data-name="Layer 1"><g id="Group_6241" data-name="Group 6241"><g id="Group_5772" data-name="Group 5772"><g id="Group_5765" data-name="Group 5765"><g id="Group_5582" data-name="Group 5582"><g id="Group_5581-3" data-name="Group 5581-3"><g id="Group_5562-3" data-name="Group 5562-3"><rect id="Rectangle_4566-12" data-name="Rectangle 4566-12" width="24" height="24" rx="3" fill="#7eb249"/></g></g></g></g><g id="Group_5768" data-name="Group 5768"><path id="thunder" d="M14.73,11H11.94l2.41-4.25a.34.34,0,0,0-.13-.46.42.42,0,0,0-.16,0H10a.34.34,0,0,0-.32.23l-2,6.1a.32.32,0,0,0,.21.42A.22.22,0,0,0,8,13h2.86L9,17.29a.33.33,0,0,0,.17.44.34.34,0,0,0,.39-.09L15,11.55a.35.35,0,0,0,0-.48.35.35,0,0,0-.22-.08Z" fill="#fff"/><path id="Subtraction_52" data-name="Subtraction 52" d="M18.24,16.68H11.12L12.59,15h5.65a.41.41,0,0,0,.41-.42h0v-5a.41.41,0,0,0-.41-.42H13.6l1-1.66h3.69a2.08,2.08,0,0,1,2.08,2.08V10h.41A1.25,1.25,0,0,1,22,11.28v1.66a1.25,1.25,0,0,1-1.25,1.25h-.41v.41A2.08,2.08,0,0,1,18.24,16.68Zm-9.49,0H4.1A2.08,2.08,0,0,1,2,14.6v-5A2.08,2.08,0,0,1,4.1,7.53H8.69L8.14,9.19h-4a.42.42,0,0,0-.42.42v5A.42.42,0,0,0,4.1,15H9.46l-.71,1.66Z" fill="#fff"/></g></g></g></g></g></svg>