<svg xmlns="http://www.w3.org/2000/svg" xmlns:xlink="http://www.w3.org/1999/xlink" width="78" height="78" viewBox="0 0 78 78">
  <defs>
    <filter id="Rectangle_502" x="0" y="0" width="78" height="78" filterUnits="userSpaceOnUse">
      <feOffset dy="3" input="SourceAlpha"/>
      <feGaussianBlur stdDeviation="3" result="blur"/>
      <feFlood flood-opacity="0.161"/>
      <feComposite operator="in" in2="blur"/>
      <feComposite in="SourceGraphic"/>
    </filter>
  </defs>
  <g id="Group_4721" data-name="Group 4721" transform="translate(-210 -246)">
    <g id="Group_4582" data-name="Group 4582">
      <g id="Group_4455" data-name="Group 4455" transform="translate(219.394 252.045)">
        <g transform="matrix(1, 0, 0, 1, -9.39, -6.05)" filter="url(#Rectangle_502)">
          <g id="Rectangle_502-2" data-name="Rectangle 502" transform="translate(9 6)" fill="#fff" stroke="#008af6" stroke-width="1">
            <rect width="60" height="60" rx="6" stroke="none"/>
            <rect x="0.5" y="0.5" width="59" height="59" rx="5.5" fill="none"/>
          </g>
        </g>
      </g>
    </g>
    <g id="garage_1_" data-name="garage (1)" transform="translate(233.5 248.468)">
      <g id="Group_4631" data-name="Group 4631" transform="translate(0 7.235)">
        <g id="Group_4630" data-name="Group 4630" transform="translate(0 0)">
          <path id="Path_9483" data-name="Path 9483" d="M30.35,15.27l-4.637-2.606a.454.454,0,0,0-.445.792L29.9,16.061a.367.367,0,0,1,.14.5l-.815,1.449a.369.369,0,0,1-.5.14L15.722,10.838a.454.454,0,0,0-.445,0L2.268,18.149a.368.368,0,0,1-.5-.14L.955,16.56a.367.367,0,0,1,.14-.5L14.913,8.3a1.2,1.2,0,0,1,1.173,0l7.537,4.236a.454.454,0,0,0,.445-.792L16.531,7.5a2.118,2.118,0,0,0-2.063,0L.65,15.269A1.276,1.276,0,0,0,.163,17l.814,1.449a1.283,1.283,0,0,0,1.059.648V35.72a1.641,1.641,0,0,0,1.639,1.639H27.324a1.641,1.641,0,0,0,1.639-1.639V19.1a1.284,1.284,0,0,0,.292-.046,1.266,1.266,0,0,0,.767-.6L30.836,17A1.276,1.276,0,0,0,30.35,15.27Zm-5.7,21.181H6.345V34.156h18.31Zm0-3.2H6.345V30.954h18.31Zm0-6.405h-13.7a.454.454,0,1,0,0,.908h13.7v2.294H6.345V27.751H9.137a.454.454,0,1,0,0-.908H6.345V24.549h18.31Zm0-3.2H6.345V22.2a.859.859,0,0,1,.858-.858H23.8a.859.859,0,0,1,.858.858V23.64Zm3.4,12.08a.732.732,0,0,1-.731.731H25.563V22.2A1.768,1.768,0,0,0,23.8,20.438H7.2A1.768,1.768,0,0,0,5.437,22.2V36.451H3.675a.732.732,0,0,1-.731-.731V18.811L15.5,11.755l12.555,7.056Z" transform="translate(0 -7.235)" fill="#008af6"/>
        </g>
      </g>
    </g>
    <g id="Group_4659" data-name="Group 4659" transform="translate(167 -3.78)">
      <path id="Path_9503" data-name="Path 9503" d="M0,0S15.349,4.089,30.349,4.089A126.023,126.023,0,0,0,60,0V16.646c0,3.94-2.686,7.134-6,7.134H6c-3.314,0-6-3.194-6-7.134Z" transform="translate(52 292)" fill="#008af6"/>
    </g>
  </g>
</svg>
