<svg xmlns="http://www.w3.org/2000/svg" viewBox="0 0 69.53 69.97"><g id="Layer_2" data-name="Layer 2"><g id="Layer_1-2" data-name="Layer 1"><g id="Group_4738" data-name="Group 4738"><g id="Group_4737" data-name="Group 4737"><g id="Group_4701" data-name="Group 4701"><g id="Group_4437" data-name="Group 4437"><ellipse id="Ellipse_343-2" data-name="Ellipse 343-2" cx="34.76" cy="34.98" rx="35.12" ry="34.62" transform="translate(-13.33 45.92) rotate(-57.99)" style="fill:#fff"/></g></g><path id="Intersection_6" data-name="Intersection 6" d="M57.11,16.19c-2.6-.93-4.88-2.73-7.56-3.37a4.63,4.63,0,0,0-4.21.71c-1.81,1.64-1,4.59-.18,6.87l0,.07a4.22,4.22,0,0,1-5,5.55l-6.35-1.66c-1-.26-2.23-.49-3,.22A3.31,3.31,0,0,0,30.08,27a11.67,11.67,0,0,1-11.9,11.43,12.14,12.14,0,0,1-1.48-.12c-1.46-.22-2.91-.39-4.37-.51-2.15-.18-4.55-.15-6.09,1.34s-1.61,3.67-1.7,5.89c-.07,1.92-.15,3.84-1.16,5.28A35.08,35.08,0,0,1,4.79,17.62l1.24-2A34.72,34.72,0,0,1,53.2,5.23,33.88,33.88,0,0,1,63.6,15.37C62,16.84,59.27,17,57.11,16.19Z" style="fill:#f4f4f4"/><g id="headphone"><path id="Path_9504" data-name="Path 9504" d="M34.66,17.57l-1,1,1,1.09A12.94,12.94,0,0,1,47.59,32.63v8.44h2.13V32.63A15.08,15.08,0,0,0,34.66,17.57Z" style="fill:#707070"/><path id="Path_9505" data-name="Path 9505" d="M19.59,32.63v8.44h2.13V32.63A13,13,0,0,1,34.66,19.7V17.57A15.08,15.08,0,0,0,19.59,32.63Z" style="fill:#b4b4b4"/><path id="Path_9506" data-name="Path 9506" d="M43,19.26a15.75,15.75,0,0,0-8.38-2.4L33.23,18.7l1.43,1.7a12.22,12.22,0,0,1,10.91,6.72l3.17-1.6A15.84,15.84,0,0,0,43,19.26Z" style="fill:#027acd"/><path id="Path_9507" data-name="Path 9507" d="M26.28,19.26a15.82,15.82,0,0,0-5.71,6.27l3.17,1.6a12.23,12.23,0,0,1,10.92-6.72V16.86A15.7,15.7,0,0,0,26.28,19.26Z" style="fill:#008af6"/><path id="Path_9508" data-name="Path 9508" d="M48.67,37.61l-1.42,4,1.42,4a4.09,4.09,0,0,0,3.39-4h0A4.11,4.11,0,0,0,48.67,37.61Z" style="fill:#027acd"/><path id="Path_9509" data-name="Path 9509" d="M48,37.55H45.29v8.2H48a4.17,4.17,0,0,0,.71-.06V37.61A4.17,4.17,0,0,0,48,37.55Z" style="fill:#008af6"/><path id="Path_9510" data-name="Path 9510" d="M25.6,34h-.24l-1.42,7.66,1.42,7.66h.24a2.52,2.52,0,0,0,2.52-2.52h0V36.51A2.52,2.52,0,0,0,25.6,34Z" style="fill:#424242"/><path id="Path_9511" data-name="Path 9511" d="M25.12,34a2.51,2.51,0,0,0-2.51,2.52V46.78a2.51,2.51,0,0,0,2.51,2.52h.24V34Z" style="fill:#707070"/><path id="Path_9512" data-name="Path 9512" d="M20.64,37.61l-1.42,4,1.42,4a3.49,3.49,0,0,0,.71.07H22.6v-8.2H21.35A4.34,4.34,0,0,0,20.64,37.61Z" style="fill:#027acd"/><path id="Path_9513" data-name="Path 9513" d="M17.25,41.65h0a4.1,4.1,0,0,0,3.39,4V37.61A4.12,4.12,0,0,0,17.25,41.65Z" style="fill:#008af6"/><path id="Path_9514" data-name="Path 9514" d="M44.19,34H44l-1.42,7.66L44,49.31h.24a2.52,2.52,0,0,0,2.52-2.52h0V36.51A2.52,2.52,0,0,0,44.19,34Z" style="fill:#424242"/><path id="Path_9515" data-name="Path 9515" d="M43.71,34a2.52,2.52,0,0,0-2.52,2.52h0V46.79a2.52,2.52,0,0,0,2.52,2.52H44V34Z" style="fill:#707070"/></g></g></g></g></g></svg>