<svg xmlns="http://www.w3.org/2000/svg" width="33.581" height="33.581" viewBox="0 0 33.581 33.581">
  <g id="Group_4719" data-name="Group 4719" transform="translate(-2796.21 1696.79)">
    <g id="Ellipse_1489" data-name="Ellipse 1489" transform="translate(2823.492 -1663.209) rotate(-167)" fill="none" stroke="#008af6" stroke-linecap="round" stroke-width="1" stroke-dasharray="50 3">
      <circle cx="14" cy="14" r="14" stroke="none"/>
      <circle cx="14" cy="14" r="13.5" fill="none"/>
    </g>
    <path id="Path_9526" data-name="Path 9526" d="M37.667,20.906h2.291v3.8H37.667Zm3.474,0h2.291v3.8H41.141Zm3.414,0h2.291v3.8H44.556Zm-.8-5.231a1.173,1.173,0,0,1-2.344.074L37.272,10.6,42.583,14.5A1.173,1.173,0,0,1,43.754,15.675Zm-8.54,1.953,1.016,1.018-1.908,1.909L33.3,19.535Zm-.886-3.551h-2.7V12.638h2.7Zm.58-7.837,1.908,1.909L35.8,9.165,33.89,7.256ZM42.6,6.9H41.164V4.2H42.6Zm5.85,2.812L47.433,8.694l1.911-1.909L50.36,7.8Zm4.1,2.928v1.439h-2.7V12.638Zm-3.608,5.278,1.911,1.908L49.838,20.84l-1.911-1.908Z" transform="translate(2770.826 -1694.174)" fill="#008af6"/>
  </g>
</svg>
