<svg xmlns="http://www.w3.org/2000/svg" viewBox="0 0 69.93 69.36"><g id="Layer_2" data-name="Layer 2"><g id="Layer_1-2" data-name="Layer 1"><g id="Group_4724" data-name="Group 4724"><g id="Group_4722" data-name="Group 4722"><g id="Group_4721" data-name="Group 4721"><g id="Group_4437" data-name="Group 4437"><ellipse id="Ellipse_343-2" data-name="Ellipse 343-2" cx="34.76" cy="34.68" rx="34.97" ry="34.47" transform="translate(-14.21 31.01) rotate(-40.65)" style="fill:#fff"/></g></g></g><g id="Group_4720" data-name="Group 4720"><path id="Intersection_6" data-name="Intersection 6" d="M8.2,45.72c2.22,1.64,3.87,4,6.25,5.43a4.62,4.62,0,0,0,4.23.55c2.21-1.05,2.34-4.08,2.18-6.52V45.1a4.21,4.21,0,0,1,6.42-3.83l5.58,3.43c.89.55,2,1.12,2.94.68a3.3,3.3,0,0,0,1.42-2.12A11.66,11.66,0,0,1,51.94,35.8a13.67,13.67,0,0,1,1.38.55c1.33.63,2.67,1.22,4,1.77,2,.79,4.31,1.47,6.22.5s2.6-3,3.34-5.15c.63-1.81,1.27-3.62,2.65-4.71A35.08,35.08,0,0,1,58.65,59.64l-1.76,1.53A34.73,34.73,0,0,1,8.74,57.34a33.93,33.93,0,0,1-7-12.74C3.68,43.65,6.36,44.36,8.2,45.72Z" style="fill:#f4f4f4"/><g id="placeholder"><path id="Path_9516" data-name="Path 9516" d="M35.15,15.07A14,14,0,0,0,21.22,29a13.79,13.79,0,0,0,2.09,7.31L34.2,54.14a1.1,1.1,0,0,0,.79.53,1.15,1.15,0,0,0,1.19-.55l10.92-18a13.75,13.75,0,0,0,2-7.12A14,14,0,0,0,35.15,15.07Zm0,20.89a7,7,0,1,1,7-7h0a6.94,6.94,0,0,1-6.94,7Z" style="fill:#008af6"/><path id="Path_9517" data-name="Path 9517" d="M35.15,15.07v7a7,7,0,0,1,0,13.93V54.69a1.17,1.17,0,0,0,1-.57l10.92-18a13.75,13.75,0,0,0,2-7.12A14,14,0,0,0,35.15,15.07Z" style="fill:#0077d5"/></g></g></g></g></g></svg>