<svg id="search_1_" data-name="search (1)" xmlns="http://www.w3.org/2000/svg" width="20.085" height="20.085" viewBox="0 0 20.085 20.085">
  <g id="Group_4772" data-name="Group 4772" transform="translate(3.02 4.353)">
    <g id="Group_4771" data-name="Group 4771">
      <path id="Path_9595" data-name="Path 9595" d="M79.5,111.193a.742.742,0,0,0-1.049,0A5.071,5.071,0,0,0,77,115.3a.742.742,0,0,0,.738.668c.025,0,.05,0,.074,0a.742.742,0,0,0,.665-.812,3.593,3.593,0,0,1,1.023-2.914A.742.742,0,0,0,79.5,111.193Z" transform="translate(-76.978 -110.975)" fill="#2577d6"/>
    </g>
  </g>
  <g id="Group_4774" data-name="Group 4774">
    <g id="Group_4773" data-name="Group 4773">
      <path id="Path_9596" data-name="Path 9596" d="M8.484,0a8.484,8.484,0,1,0,8.484,8.484A8.494,8.494,0,0,0,8.484,0Zm0,15.484a7,7,0,1,1,7-7A7.008,7.008,0,0,1,8.484,15.484Z" fill="#2577d6"/>
    </g>
  </g>
  <g id="Group_4776" data-name="Group 4776" transform="translate(13.209 13.209)">
    <g id="Group_4775" data-name="Group 4775">
      <path id="Path_9597" data-name="Path 9597" d="M343.367,342.319l-5.392-5.392a.742.742,0,0,0-1.049,1.049l5.392,5.392a.742.742,0,1,0,1.049-1.049Z" transform="translate(-336.708 -336.71)" fill="#2577d6"/>
    </g>
  </g>
</svg>
