<svg xmlns="http://www.w3.org/2000/svg" xmlns:xlink="http://www.w3.org/1999/xlink" width="42" height="42" viewBox="0 0 42 42">
  <defs>
    <filter id="Rectangle_4566" x="0" y="0" width="42" height="42" filterUnits="userSpaceOnUse">
      <feOffset dy="3" input="SourceAlpha"/>
      <feGaussianBlur stdDeviation="3" result="blur"/>
      <feFlood flood-opacity="0.161"/>
      <feComposite operator="in" in2="blur"/>
      <feComposite in="SourceGraphic"/>
    </filter>
  </defs>
  <g id="Group_5759" data-name="Group 5759" transform="translate(-71 -130)">
    <g id="Group_5563" data-name="Group 5563" transform="translate(-27)">
      <g transform="matrix(1, 0, 0, 1, 98, 130)" filter="url(#Rectangle_4566)">
        <rect id="Rectangle_4566-2" data-name="Rectangle 4566" width="24" height="24" rx="3" transform="translate(9 6)" fill="#f6aa00"/>
      </g>
      <g id="Group_5564" data-name="Group 5564" transform="translate(50 3)">
        <g id="clock_3_" data-name="clock (3)" transform="translate(61.346 137.346)">
          <path id="Path_10694" data-name="Path 10694" d="M7.3,0a7.3,7.3,0,1,0,7.3,7.3A7.309,7.309,0,0,0,7.3,0Zm0,13.689A6.388,6.388,0,1,1,13.689,7.3,6.4,6.4,0,0,1,7.3,13.689Z" fill="#fff"/>
          <path id="Path_10695" data-name="Path 10695" d="M208.707,83.118h-.913V87.87l2.871,2.871.645-.645-2.6-2.6Z" transform="translate(-200.949 -80.38)" fill="#fff"/>
        </g>
      </g>
    </g>
  </g>
</svg>
