<svg xmlns="http://www.w3.org/2000/svg" viewBox="0 0 70.21 69.22"><g id="Layer_2" data-name="Layer 2"><g id="Layer_1-2" data-name="Layer 1"><g id="Group_4732" data-name="Group 4732"><g id="Group_4731" data-name="Group 4731"><g id="Group_4701" data-name="Group 4701"><g id="Group_4437" data-name="Group 4437"><ellipse id="Ellipse_343-2" data-name="Ellipse 343-2" cx="35.2" cy="34.52" rx="34.52" ry="35.02" transform="translate(0.08 69.12) rotate(-89.03)" style="fill:#fff"/></g></g><path id="Intersection_6" data-name="Intersection 6" d="M7.38,25.12c.55,2.71.18,5.59,1,8.22a4.63,4.63,0,0,0,2.78,3.24c2.35.7,4.47-1.47,6-3.39l.05-.06a4.22,4.22,0,0,1,7.34,1.44l1.85,6.29c.3,1,.74,2.17,1.74,2.47a3.25,3.25,0,0,0,2.47-.63A11.67,11.67,0,0,1,46.53,47a11.1,11.1,0,0,1,.66,1.34c.57,1.36,1.17,2.69,1.82,4,1,1.93,2.22,4,4.28,4.53s4-.52,5.93-1.59c1.69-.93,3.37-1.85,5.13-1.73A35.1,35.1,0,0,1,35.58,69.22l-2.33,0A34.74,34.74,0,0,1,0,34.12,34,34,0,0,1,3.34,20C5.4,20.57,6.92,22.88,7.38,25.12Z" style="fill:#f4f4f4"/></g><g id="profits"><path id="Path_9564" data-name="Path 9564" d="M37,27.93V50.47H28.39V31.78l3.86-3.85Z" style="fill:#178af6"/><path id="Path_9565" data-name="Path 9565" d="M47.72,20.41V50.47H39.13V27.93h.6l6.83-7.52Z" style="fill:#008af6"/><path id="Path_9566" data-name="Path 9566" d="M26.25,35.44v15H17.66V36.52h6l1.07-1.08Z" style="fill:#008af6"/><path id="Path_9567" data-name="Path 9567" d="M24.73,35.44h1.52V40l-.82.82H17.66V36.52h6Z" style="fill:#007dde"/><path id="Path_9568" data-name="Path 9568" d="M32.25,27.93H37v4.29H34l-5.63,5.63V31.78Z" style="fill:#137dde"/><path id="Path_9569" data-name="Path 9569" d="M47.72,20.41v5.11l-6.1,6.7H39.13V27.93h.6l6.83-7.52Z" style="fill:#137dde"/><path id="Path_9570" data-name="Path 9570" d="M49.87,12.9v7.51H47.72V16.75l-9.19,10.1H31l-8.59,8.59H15.51V33.3h6l8.59-8.59h7.48L46.36,15h-4V12.9Z" style="fill:#ff4d4d"/></g></g></g></g></svg>