<svg xmlns="http://www.w3.org/2000/svg" viewBox="0 0 24 24"><title>backup battery</title><g id="Layer_2" data-name="Layer 2"><g id="Layer_1-2" data-name="Layer 1"><g id="Group_6243" data-name="Group 6243"><g id="Group_5776-3" data-name="Group 5776-3"><g id="Group_5581-4" data-name="Group 5581-4"><g id="Group_5562-4" data-name="Group 5562-4"><rect id="Rectangle_4566-14" data-name="Rectangle 4566-14" width="24" height="24" rx="3" fill="#f3714e"/></g></g></g><g id="Group_5777" data-name="Group 5777"><g id="Group_5778" data-name="Group 5778"><g id="battery"><g id="Group_5766" data-name="Group 5766"><path id="Path_10755" data-name="Path 10755" d="M20.05,14.25h-.38v.38a1.92,1.92,0,0,1-1.92,1.92h-13A1.92,1.92,0,0,1,2.8,14.63V10A1.91,1.91,0,0,1,4.71,8.12h13A1.91,1.91,0,0,1,19.67,10v.39h.38a1.14,1.14,0,0,1,1.15,1.15V13.1A1.15,1.15,0,0,1,20.05,14.25ZM18.14,10a.39.39,0,0,0-.39-.38h-13a.38.38,0,0,0-.38.38v4.6a.38.38,0,0,0,.38.38h13a.38.38,0,0,0,.38-.38Z" fill="#fff"/></g></g><path id="Path_10757" data-name="Path 10757" d="M5,10.31h7v4H5Z" fill="#fff"/></g></g></g></g></g></svg>