<svg xmlns="http://www.w3.org/2000/svg" viewBox="0 0 69.53 69.97"><g id="Layer_2" data-name="Layer 2"><g id="Layer_1-2" data-name="Layer 1"><g id="Group_4733" data-name="Group 4733"><g id="Group_4437" data-name="Group 4437"><ellipse id="Ellipse_343-2" data-name="Ellipse 343-2" cx="34.76" cy="34.98" rx="35.12" ry="34.62" transform="translate(-13.33 45.92) rotate(-57.99)" style="fill:#fff"/></g></g><path id="Intersection_7" data-name="Intersection 7" d="M12.33,53.49c2.6.92,4.88,2.73,7.56,3.37a4.63,4.63,0,0,0,4.21-.71c1.81-1.65,1-4.59.18-6.87l0-.08a4.22,4.22,0,0,1,5-5.54l6.35,1.66c1,.26,2.23.48,3-.22a3.31,3.31,0,0,0,.73-2.44,11.66,11.66,0,0,1,11.9-11.43,10.55,10.55,0,0,1,1.48.12c1.46.21,2.91.39,4.37.51,2.14.18,4.55.15,6.09-1.34s1.6-3.67,1.7-5.9c.07-1.91.15-3.83,1.15-5.28a35.07,35.07,0,0,1-1.41,32.72l-1.23,2A34.73,34.73,0,0,1,16.24,64.45,33.94,33.94,0,0,1,5.83,54.3C7.41,52.84,10.17,52.73,12.33,53.49Z" style="fill:#f4f4f4"/><g id="repair"><g id="Group_4618" data-name="Group 4618"><path id="Path_9467" data-name="Path 9467" d="M31.25,40.55l9.81-9.81a6.6,6.6,0,0,0,7.74-1.16,6.5,6.5,0,0,0,1.1-7.68l-3.73,3.73-1.31-1.31L43.54,23l3.73-3.73a6.47,6.47,0,0,0-7.67,1.1,6.58,6.58,0,0,0-1.16,7.73l-9.82,9.81a6.6,6.6,0,0,0-7.73,1.17,6.47,6.47,0,0,0-1.1,7.67L23.52,43l1.31,1.31,1.31,1.32-3.72,3.73a6.49,6.49,0,0,0,7.67-1.1A6.6,6.6,0,0,0,31.25,40.55Z" style="fill:#bbdcff"/><path id="Path_9468" data-name="Path 9468" d="M22.42,49.39a6.49,6.49,0,0,0,7.67-1.1,6.58,6.58,0,0,0,1.16-7.73l9.81-9.82a6.6,6.6,0,0,0,7.74-1.16,6.49,6.49,0,0,0,1.1-7.68l-3.73,3.73-1.31-1.31-20,20,1.32,1.32Z" style="fill:#9abadb"/><g id="Group_4616" data-name="Group 4616"><path id="Path_9469" data-name="Path 9469" d="M28.86,25.72l-.69-3.43-6.9-3.84-1.15,1.16L19,20.76l3.84,6.9,3.43.68,9.91,9.91,1.31-1.31,1.32-1.31Z" style="fill:#e0f4ff"/><path id="Path_9470" data-name="Path 9470" d="M22.8,27.66l3.43.69,9.91,9.91,1.31-1.32L20.12,19.6,19,20.76Z" style="fill:#bbdcff"/></g><path id="Path_9471" data-name="Path 9471" d="M49.59,49.08a3.67,3.67,0,0,1-5.19.05l0-.05L32.22,37l5.24-5.24L49.59,43.84a3.65,3.65,0,0,1,0,5.18Z" style="fill:#008af6"/><path id="Path_9472" data-name="Path 9472" d="M49.59,49.08a3.68,3.68,0,0,1-5.19.05l0-.05L32.22,37l2.62-2.62Z" style="fill:#046ec1"/><g id="Group_4617" data-name="Group 4617"><path id="Path_9473" data-name="Path 9473" d="M38.77,38.26l-.66.65,1.31,1.32.66-.66.66-.65L39.42,37.6Z" style="fill:#fff"/><path id="Path_9474" data-name="Path 9474" d="M41.4,40.88l-.66.66,1.31,1.32.66-.66.66-.66-1.32-1.31Z" style="fill:#fff"/><path id="Path_9475" data-name="Path 9475" d="M44.68,42.86l-.66.65-.65.66,1.31,1.31.66-.65.65-.66Z" style="fill:#fff"/></g><rect id="Rectangle_3394" data-name="Rectangle 3394" x="38.63" y="38.31" width="0.93" height="1.86" transform="translate(-16.3 39.14) rotate(-45)" style="fill:#dedede"/><rect id="Rectangle_3395" data-name="Rectangle 3395" x="41.26" y="40.94" width="0.93" height="1.86" transform="translate(-17.39 41.77) rotate(-45)" style="fill:#dedede"/><rect id="Rectangle_3396" data-name="Rectangle 3396" x="43.89" y="43.57" width="0.93" height="1.86" transform="translate(-18.47 44.4) rotate(-45)" style="fill:#dedede"/></g></g></g></g></svg>