<svg xmlns="http://www.w3.org/2000/svg" viewBox="0 0 69 69.01"><g id="Layer_2" data-name="Layer 2"><g id="Layer_1-2" data-name="Layer 1"><g id="Group_4700" data-name="Group 4700"><g id="Group_4681" data-name="Group 4681"><g id="Group_4437" data-name="Group 4437"><circle id="Ellipse_343-2" data-name="Ellipse 343-2" cx="34.5" cy="34.5" r="34.5" style="fill:#fff"/></g></g><path id="Intersection_5" data-name="Intersection 5" d="M0,34.5A34.64,34.64,0,0,1,2,22.92c2,.61,3.53,2.85,4,5,.6,2.7.27,5.58,1.15,8.2A4.65,4.65,0,0,0,10,39.35c2.36.66,4.45-1.55,5.92-3.49L16,35.8A4.21,4.21,0,0,1,21.88,35a4.17,4.17,0,0,1,1.44,2.08l2,6.25c.31,1,.77,2.15,1.78,2.44a3.24,3.24,0,0,0,2.46-.67,11.67,11.67,0,0,1,16,4,11.1,11.1,0,0,1,.68,1.33c.59,1.35,1.22,2.67,1.89,4,1,1.91,2.28,3.94,4.36,4.45s4-.59,5.89-1.69a15.89,15.89,0,0,1,3.44-1.62A34.5,34.5,0,0,1,0,34.5Z" style="fill:#f4f4f4"/></g><g id="Group_4717" data-name="Group 4717"><g id="clock"><path id="Path_9560" data-name="Path 9560" d="M35,14.67a19.33,19.33,0,1,0,9.63,36.08l-1.14-2a17,17,0,1,1,6.31-6.27V39.74H47.54v6.8h6.8V44.27h-3A19.35,19.35,0,0,0,35,14.67Z" style="fill:#22e6ff"/></g><circle id="Ellipse_1496" data-name="Ellipse 1496" cx="35" cy="34" r="13" style="fill:#008af6"/></g><g id="Group_4718" data-name="Group 4718"><path id="Path_9562" data-name="Path 9562" d="M33,27.56l1.39-1.14,1.34,1.14v9.62H33Z" style="fill:#fff"/><path id="Path_9563" data-name="Path 9563" d="M39.7,35.24l.79,1.39L39.7,38H33V35.24Z" style="fill:#fff"/></g></g></g></svg>