<svg xmlns="http://www.w3.org/2000/svg" xmlns:xlink="http://www.w3.org/1999/xlink" width="78" height="78" viewBox="0 0 78 78">
  <defs>
    <filter id="Rectangle_502" x="0" y="0" width="78" height="78" filterUnits="userSpaceOnUse">
      <feOffset dy="3" input="SourceAlpha"/>
      <feGaussianBlur stdDeviation="3" result="blur"/>
      <feFlood flood-opacity="0.161"/>
      <feComposite operator="in" in2="blur"/>
      <feComposite in="SourceGraphic"/>
    </filter>
  </defs>
  <g id="Group_4722" data-name="Group 4722" transform="translate(-294 -246)">
    <g id="Group_4583" data-name="Group 4583">
      <g id="Group_4457" data-name="Group 4457" transform="translate(21 147.045)">
        <g id="Group_4456" data-name="Group 4456" transform="translate(282.091 105)">
          <g transform="matrix(1, 0, 0, 1, -9.09, -6.05)" filter="url(#Rectangle_502)">
            <g id="Rectangle_502-2" data-name="Rectangle 502" transform="translate(9 6)" fill="#fff" stroke="#008af6" stroke-width="1">
              <rect width="60" height="60" rx="6" stroke="none"/>
              <rect x="0.5" y="0.5" width="59" height="59" rx="5.5" fill="none"/>
            </g>
          </g>
        </g>
      </g>
    </g>
    <g id="maintenance" transform="translate(309.995 258.441)">
      <path id="Path_9476" data-name="Path 9476" d="M36.5,23.349a3.288,3.288,0,0,0-1.085-2.39l-5.6-5.006a.4.4,0,1,0-.53.592l5.6,5.006a2.5,2.5,0,0,1,.821,1.82,2.863,2.863,0,0,1-2.947,2.948,2.5,2.5,0,0,1-1.818-.822L22.4,15.941a7.183,7.183,0,0,0-4.54-2.472c-.279-.057-.543-.111-.806-.177-.5-.129-.795-.269-.887-.431-.125-.22.014-.7.208-1.361.054-.184,1.7-5.49,1.7-5.49a1.608,1.608,0,0,0-.6-2.121L13.544,1c3.382-.552,5.812.023,7.415,1.754,1.479,1.6,2.069,3.942,2.59,6.011.461,1.834.86,3.417,1.786,4.246l2.616,2.339a.4.4,0,1,0,.529-.592l-2.616-2.339c-.745-.666-1.116-2.14-1.545-3.847C23.258,4.353,21.806-1.419,12.834.317c-.154.03-.474.092-.542.4s.169.471.357.607L17,4.529c.463.34.547.5.314,1.244,0,0-1.808,5.869-1.852,6.036-3.231-1.177-3.976-2.638-4.137-4.081l3.563,1a.4.4,0,1,0,.214-.765S11.335,6.9,11.3,6.893a.623.623,0,0,0-.608.031.516.516,0,0,0-.19.465c.126,2.494,1.574,4.066,4.825,5.217a1.22,1.22,0,0,0,.15.65,2.008,2.008,0,0,0,1.381.807c.282.071.567.13.843.186a6.428,6.428,0,0,1,4.106,2.223l8.543,9.556a3.285,3.285,0,0,0,2.388,1.087h.1A3.657,3.657,0,0,0,36.5,23.349Z" transform="translate(0 0)" fill="#008af6"/>
      <path id="Path_9477" data-name="Path 9477" d="M401.338,411.778a1.857,1.857,0,1,0-1.314.545A1.863,1.863,0,0,0,401.338,411.778Zm-2.066-2.067a1.063,1.063,0,0,1,1.5,0,1.067,1.067,0,0,1,0,1.505,1.063,1.063,0,0,1-1.5,0A1.067,1.067,0,0,1,399.272,409.711Z" transform="translate(-367.136 -386.966)" fill="#008af6"/>
      <path id="Path_9478" data-name="Path 9478" d="M245.819,256.252a.4.4,0,0,0,0,.562l6.737,6.74a.4.4,0,1,0,.562-.562l-6.737-6.74A.4.4,0,0,0,245.819,256.252Z" transform="translate(-222.745 -242.571)" fill="#008af6"/>
      <path id="Path_9479" data-name="Path 9479" d="M152.007,126.664l-1.531-.422a.751.751,0,0,0-.92.524l-.333,1.212,0,.01,0,.01-.762,2.773h0a.748.748,0,0,0,.522.919l1.531.422a.751.751,0,0,0,.92-.524l.336-1.221h0v0l.765-2.782a.749.749,0,0,0-.524-.919Zm-2.126,1.917,1.443.4-.219.8-1.442-.4Zm.429-1.561,1.443.4-.218.794-1.443-.4Zm.366,4.314-1.441-.4.218-.794,1.442.4Z" transform="translate(-130.622 -119.531)" fill="#008af6"/>
    </g>
    <g id="Group_4660" data-name="Group 4660" transform="translate(251 -3.78)">
      <path id="Path_9503" data-name="Path 9503" d="M0,0S15.349,4.089,30.349,4.089A126.023,126.023,0,0,0,60,0V16.646c0,3.94-2.686,7.134-6,7.134H6c-3.314,0-6-3.194-6-7.134Z" transform="translate(52 292)" fill="#008af6"/>
    </g>
  </g>
</svg>
