<svg xmlns="http://www.w3.org/2000/svg" xmlns:xlink="http://www.w3.org/1999/xlink" width="78" height="78" viewBox="0 0 78 78">
  <defs>
    <filter id="Rectangle_502" x="0" y="0" width="78" height="78" filterUnits="userSpaceOnUse">
      <feOffset dy="3" input="SourceAlpha"/>
      <feGaussianBlur stdDeviation="3" result="blur"/>
      <feFlood flood-opacity="0.161"/>
      <feComposite operator="in" in2="blur"/>
      <feComposite in="SourceGraphic"/>
    </filter>
  </defs>
  <g id="Group_4720" data-name="Group 4720" transform="translate(-127 -246)">
    <g id="Group_4581" data-name="Group 4581">
      <g id="Group_4454" data-name="Group 4454" transform="translate(135.697 252.045)">
        <g transform="matrix(1, 0, 0, 1, -8.7, -6.05)" filter="url(#Rectangle_502)">
          <g id="Rectangle_502-2" data-name="Rectangle 502" transform="translate(9 6)" fill="#fff" stroke="#008af6" stroke-width="1">
            <rect width="60" height="60" rx="6" stroke="none"/>
            <rect x="0.5" y="0.5" width="59" height="59" rx="5.5" fill="none"/>
          </g>
        </g>
      </g>
    </g>
    <g id="Group_4658" data-name="Group 4658" transform="translate(84 -3.78)">
      <path id="Path_9503" data-name="Path 9503" d="M0,0S15.349,4.089,30.349,4.089A126.023,126.023,0,0,0,60,0V16.646c0,3.94-2.686,7.134-6,7.134H6c-3.314,0-6-3.194-6-7.134Z" transform="translate(52 292)" fill="#008af6"/>
    </g>
    <g id="Group_4677" data-name="Group 4677" transform="translate(-2647 1951)">
      <g id="Ellipse_1489" data-name="Ellipse 1489" transform="translate(2823.492 -1663.209) rotate(-167)" fill="none" stroke="#008af6" stroke-linecap="round" stroke-width="1" stroke-dasharray="50 3">
        <circle cx="14" cy="14" r="14" stroke="none"/>
        <circle cx="14" cy="14" r="13.5" fill="none"/>
      </g>
      <path id="Path_9526" data-name="Path 9526" d="M37.667,20.906h2.291v3.8H37.667Zm3.474,0h2.291v3.8H41.141Zm3.414,0h2.291v3.8H44.556Zm-.8-5.231a1.173,1.173,0,0,1-2.344.074L37.272,10.6,42.583,14.5A1.173,1.173,0,0,1,43.754,15.675Zm-8.54,1.953,1.016,1.018-1.908,1.909L33.3,19.535Zm-.886-3.551h-2.7V12.638h2.7Zm.58-7.837,1.908,1.909L35.8,9.165,33.89,7.256ZM42.6,6.9H41.164V4.2H42.6Zm5.85,2.812L47.433,8.694l1.911-1.909L50.36,7.8Zm4.1,2.928v1.439h-2.7V12.638Zm-3.608,5.278,1.911,1.908L49.838,20.84l-1.911-1.908Z" transform="translate(2770.826 -1694.174)" fill="#008af6"/>
    </g>
  </g>
</svg>
