<svg xmlns="http://www.w3.org/2000/svg" viewBox="0 0 70 69"><g id="Layer_2" data-name="Layer 2"><g id="Layer_1-2" data-name="Layer 1"><g id="Group_4727" data-name="Group 4727"><g id="Group_4726" data-name="Group 4726"><g id="Group_4725" data-name="Group 4725"><g id="Group_4701" data-name="Group 4701"><g id="Group_4437" data-name="Group 4437"><ellipse id="Ellipse_343-2" data-name="Ellipse 343-2" cx="35" cy="34.5" rx="35" ry="34.5" style="fill:#fff"/></g></g><path id="Intersection_6" data-name="Intersection 6" d="M62.78,43.63c-.6-2.7-.28-5.59-1.16-8.2a4.62,4.62,0,0,0-2.83-3.2c-2.35-.66-4.44,1.55-5.92,3.5l0,.06a4.22,4.22,0,0,1-7.36-1.32l-2-6.26c-.31-1-.77-2.15-1.78-2.44a3.31,3.31,0,0,0-2.46.68,11.67,11.67,0,0,1-16-4,12.8,12.8,0,0,1-.68-1.33c-.59-1.35-1.21-2.67-1.88-4-1-1.91-2.29-3.93-4.36-4.45s-4,.59-5.9,1.69c-1.67,1-3.34,1.9-5.1,1.81A35.1,35.1,0,0,1,33.83,0h2.34A34.73,34.73,0,0,1,70,34.5a33.93,33.93,0,0,1-3.09,14.2C64.83,48.15,63.27,45.86,62.78,43.63Z" style="fill:#f4f4f4"/></g></g><g id="taxi"><g id="Group_4584" data-name="Group 4584"><path id="Path_9419" data-name="Path 9419" d="M53.82,24.46H51.49a1.88,1.88,0,0,0-1.88,1.87v1.81l-.77,2.09,1.19.44.66-1.78h2.45a2.56,2.56,0,0,0,2.55-2.56A1.87,1.87,0,0,0,53.82,24.46Z" style="fill:#9aa7b8"/><path id="Path_9420" data-name="Path 9420" d="M20.38,26.33a1.87,1.87,0,0,0-1.87-1.87H16.18a1.87,1.87,0,0,0-1.87,1.87,2.56,2.56,0,0,0,2.55,2.56h2.45L20,30.67l1.18-.44-.77-2.09V26.33Z" style="fill:#9aa7b8"/></g><g id="Group_4585" data-name="Group 4585"><path id="Path_9422" data-name="Path 9422" d="M16.72,40.54v6A1.27,1.27,0,0,0,18,47.76h4.87a1.27,1.27,0,0,0,1.26-1.26V40.08" style="fill:#2b2a32"/><path id="Path_9423" data-name="Path 9423" d="M45.89,40.08V46.5a1.26,1.26,0,0,0,1.26,1.26H52a1.27,1.27,0,0,0,1.27-1.26V39.63" style="fill:#2b2a32"/></g><path id="Path_9424" data-name="Path 9424" d="M41.84,44.38H28.16a1.77,1.77,0,0,1-1.77-1.77h0l11.36-1.52,5.86,1.52h0a1.77,1.77,0,0,1-1.77,1.77Z" style="fill:#0d1b24"/><path id="Path_9425" data-name="Path 9425" d="M52,30.45H18a2.35,2.35,0,0,0-2.35,2.35h0v7.28H54.37V32.8A2.35,2.35,0,0,0,52,30.45Z" style="fill:#008af6"/><path id="Path_9426" data-name="Path 9426" d="M21.75,30.45H18a2.35,2.35,0,0,0-2.35,2.35h0v7.28H19.4V32.8A2.35,2.35,0,0,1,21.75,30.45Z" style="fill:#0169ba"/><rect id="Rectangle_3379" data-name="Rectangle 3379" x="25.38" y="32.69" width="19.25" height="3.67" style="fill:#616970"/><path id="Path_9427" data-name="Path 9427" d="M55.68,39.47v2.1a1,1,0,0,1-1,1H15.35a1,1,0,0,1-1-1h0v-2.1a1,1,0,0,1,1-1h39.3A1,1,0,0,1,55.68,39.47Z" style="fill:#8292a3"/><path id="Path_9428" data-name="Path 9428" d="M55.68,39.47v2.1a1,1,0,0,1-1,1H18.34a1,1,0,0,1-1-1h0v-2.1a1,1,0,0,1,1-1H54.65A1,1,0,0,1,55.68,39.47Z" style="fill:#9aa7b8"/><path id="Path_9429" data-name="Path 9429" d="M49.44,30.45H20.56l2.36-7.07a2.81,2.81,0,0,1,2.66-1.92H44.42a2.81,2.81,0,0,1,2.66,1.92Z" style="fill:#c0eaf9"/><path id="Path_9430" data-name="Path 9430" d="M49.33,30.45H20.67l1.75-5a2.92,2.92,0,0,1,2.77-1.92H44.81a2.92,2.92,0,0,1,2.77,1.92Z" style="fill:#a0d9f2"/><path id="Path_9431" data-name="Path 9431" d="M49,31.26l-2.56-7.68a2.15,2.15,0,0,0-2.06-1.48H25.58a2.15,2.15,0,0,0-2.06,1.48L21,31.26l-1.2-.4,2.55-7.68a3.44,3.44,0,0,1,3.26-2.35H44.42a3.44,3.44,0,0,1,3.26,2.35l2.56,7.68Z" style="fill:#008af6"/><path id="Path_9432" data-name="Path 9432" d="M44.62,37H25.38a.64.64,0,0,1-.64-.63V32.68a.64.64,0,0,1,.64-.63H44.62a.64.64,0,0,1,.64.63v3.68a.63.63,0,0,1-.63.63ZM26,35.73H44V33.32H26Z" style="fill:#f0f0f0"/><g id="Group_4586" data-name="Group 4586"><rect id="Rectangle_3380" data-name="Rectangle 3380" x="46.9" y="33.58" width="5.32" height="2.79" rx="1" style="fill:#fff500"/><rect id="Rectangle_3381" data-name="Rectangle 3381" x="17.78" y="33.58" width="5.32" height="2.79" rx="1" style="fill:#fff500"/></g><g id="Group_4588" data-name="Group 4588"><rect id="Rectangle_3382" data-name="Rectangle 3382" x="24.74" y="32.69" width="1.27" height="3.67" style="fill:#f0f0f0"/><rect id="Rectangle_3383" data-name="Rectangle 3383" x="27.95" y="32.69" width="1.27" height="3.67" style="fill:#f0f0f0"/><rect id="Rectangle_3384" data-name="Rectangle 3384" x="31.16" y="32.69" width="1.27" height="3.67" style="fill:#f0f0f0"/><rect id="Rectangle_3385" data-name="Rectangle 3385" x="34.37" y="32.69" width="1.27" height="3.67" style="fill:#f0f0f0"/><rect id="Rectangle_3386" data-name="Rectangle 3386" x="37.57" y="32.69" width="1.27" height="3.67" style="fill:#f0f0f0"/><rect id="Rectangle_3387" data-name="Rectangle 3387" x="40.78" y="32.69" width="1.27" height="3.67" style="fill:#f0f0f0"/><rect id="Rectangle_3388" data-name="Rectangle 3388" x="43.99" y="32.69" width="1.27" height="3.67" style="fill:#f0f0f0"/></g></g></g></g></g></svg>