<svg xmlns="http://www.w3.org/2000/svg" viewBox="0 0 245.45 184.24"><title>immobilize</title><g id="Layer_2" data-name="Layer 2"><g id="Layer_1-2" data-name="Layer 1"><g id="Group_6239" data-name="Group 6239"><g id="Group_6237" data-name="Group 6237"><g id="Group_5467" data-name="Group 5467"><g id="Group_5466" data-name="Group 5466"><g id="Group_5465" data-name="Group 5465"><g id="Group_5435" data-name="Group 5435"><g id="Group_5454" data-name="Group 5454"><g id="Group_5433" data-name="Group 5433"><g id="Group_5425" data-name="Group 5425"><rect id="Rectangle_4470" data-name="Rectangle 4470" x="65.13" y="89.67" width="8.8" height="30.46" fill="#939393"/><rect id="Rectangle_4471" data-name="Rectangle 4471" x="72.84" y="96.35" width="8.8" height="23.78" fill="#939393"/><rect id="Rectangle_4472" data-name="Rectangle 4472" x="78.46" y="76.75" width="8.8" height="43.37" fill="#939393"/><rect id="Rectangle_4473" data-name="Rectangle 4473" x="84.31" y="41.59" width="8.8" height="78.53" fill="#939393"/><rect id="Rectangle_4474" data-name="Rectangle 4474" x="91.26" y="47.7" width="23.61" height="72.42" fill="#939393"/></g><g id="Group_5426" data-name="Group 5426"><rect id="Rectangle_4475" data-name="Rectangle 4475" x="206.69" y="99.28" width="10.06" height="20.84" fill="#b2b1b2"/><rect id="Rectangle_4476" data-name="Rectangle 4476" x="197.88" y="103.85" width="10.06" height="16.27" fill="#b2b1b2"/><rect id="Rectangle_4477" data-name="Rectangle 4477" x="191.45" y="90.44" width="10.06" height="29.68" fill="#b2b1b2"/><rect id="Rectangle_4478" data-name="Rectangle 4478" x="184.77" y="66.38" width="10.06" height="53.75" fill="#b2b1b2"/></g><g id="Group_5432" data-name="Group 5432"><g id="Group_5428" data-name="Group 5428"><rect id="Rectangle_4479" data-name="Rectangle 4479" x="159.32" y="54.46" width="30.85" height="65.66" fill="#cccccb"/><g id="Group_5427" data-name="Group 5427"><rect id="Rectangle_4480" data-name="Rectangle 4480" x="185.77" y="57.22" width="1.47" height="7.99" fill="#f5f5f5"/><rect id="Rectangle_4481" data-name="Rectangle 4481" x="185.77" y="69.71" width="1.47" height="7.99" fill="#f5f5f5"/><rect id="Rectangle_4482" data-name="Rectangle 4482" x="185.77" y="82.21" width="1.47" height="7.99" fill="#f5f5f5"/><rect id="Rectangle_4483" data-name="Rectangle 4483" x="185.77" y="94.7" width="1.47" height="7.99" fill="#f5f5f5"/><rect id="Rectangle_4484" data-name="Rectangle 4484" x="185.77" y="107.2" width="1.47" height="7.99" fill="#f5f5f5"/><rect id="Rectangle_4485" data-name="Rectangle 4485" x="180.56" y="57.22" width="1.47" height="7.99" fill="#f5f5f5"/><rect id="Rectangle_4486" data-name="Rectangle 4486" x="180.56" y="69.71" width="1.47" height="7.99" fill="#f5f5f5"/><rect id="Rectangle_4487" data-name="Rectangle 4487" x="180.56" y="82.21" width="1.47" height="7.99" fill="#f5f5f5"/><rect id="Rectangle_4488" data-name="Rectangle 4488" x="180.56" y="94.7" width="1.47" height="7.99" fill="#f5f5f5"/><rect id="Rectangle_4489" data-name="Rectangle 4489" x="180.56" y="107.2" width="1.47" height="7.99" fill="#f5f5f5"/><rect id="Rectangle_4490" data-name="Rectangle 4490" x="175.36" y="57.22" width="1.47" height="7.99" fill="#f5f5f5"/><rect id="Rectangle_4491" data-name="Rectangle 4491" x="175.36" y="69.71" width="1.47" height="7.99" fill="#f5f5f5"/><rect id="Rectangle_4492" data-name="Rectangle 4492" x="175.36" y="82.21" width="1.47" height="7.99" fill="#f5f5f5"/><rect id="Rectangle_4493" data-name="Rectangle 4493" x="175.36" y="94.7" width="1.47" height="7.99" fill="#f5f5f5"/><rect id="Rectangle_4494" data-name="Rectangle 4494" x="175.36" y="107.2" width="1.47" height="7.99" fill="#f5f5f5"/><rect id="Rectangle_4495" data-name="Rectangle 4495" x="170.15" y="57.22" width="1.47" height="7.99" fill="#f5f5f5"/><rect id="Rectangle_4496" data-name="Rectangle 4496" x="170.15" y="69.71" width="1.47" height="7.99" fill="#f5f5f5"/><rect id="Rectangle_4497" data-name="Rectangle 4497" x="170.15" y="82.21" width="1.47" height="7.99" fill="#f5f5f5"/><rect id="Rectangle_4498" data-name="Rectangle 4498" x="170.15" y="94.7" width="1.47" height="7.99" fill="#f5f5f5"/><rect id="Rectangle_4499" data-name="Rectangle 4499" x="170.15" y="107.2" width="1.47" height="7.99" fill="#f5f5f5"/><rect id="Rectangle_4500" data-name="Rectangle 4500" x="164.95" y="57.22" width="1.47" height="7.99" fill="#f5f5f5"/><rect id="Rectangle_4501" data-name="Rectangle 4501" x="164.95" y="69.71" width="1.47" height="7.99" fill="#f5f5f5"/><rect id="Rectangle_4502" data-name="Rectangle 4502" x="164.95" y="82.21" width="1.47" height="7.99" fill="#f5f5f5"/><rect id="Rectangle_4503" data-name="Rectangle 4503" x="164.95" y="94.7" width="1.47" height="7.99" fill="#f5f5f5"/><rect id="Rectangle_4504" data-name="Rectangle 4504" x="164.95" y="107.2" width="1.47" height="7.99" fill="#f5f5f5"/></g><path id="Path_10588" data-name="Path 10588" d="M159.32,54.46h6.36l2.76,65.66h-9.12Z" fill="#bab9ba" opacity="0.5" style="isolation:isolate"/></g><g id="Group_5429" data-name="Group 5429"><path id="Path_10589" data-name="Path 10589" d="M144.16,29.09l18.3,3.47v87.56h-18.3Z" fill="#bab9ba"/><rect id="Rectangle_4505" data-name="Rectangle 4505" x="129.52" y="29.09" width="14.64" height="91.03" fill="#cccccb"/><rect id="Rectangle_4506" data-name="Rectangle 4506" x="129.52" y="36.64" width="32.94" height="0.47" fill="#e0e0e0"/><rect id="Rectangle_4507" data-name="Rectangle 4507" x="129.52" y="41.59" width="32.94" height="0.47" fill="#e0e0e0"/><rect id="Rectangle_4508" data-name="Rectangle 4508" x="129.52" y="46.55" width="32.94" height="0.47" fill="#e0e0e0"/><rect id="Rectangle_4509" data-name="Rectangle 4509" x="129.52" y="51.51" width="32.94" height="0.47" fill="#e0e0e0"/><rect id="Rectangle_4510" data-name="Rectangle 4510" x="129.52" y="56.46" width="32.94" height="0.47" fill="#e0e0e0"/><rect id="Rectangle_4511" data-name="Rectangle 4511" x="129.52" y="61.42" width="32.94" height="0.47" fill="#e0e0e0"/><rect id="Rectangle_4512" data-name="Rectangle 4512" x="129.52" y="66.38" width="32.94" height="0.47" fill="#e0e0e0"/><rect id="Rectangle_4513" data-name="Rectangle 4513" x="129.52" y="71.33" width="32.94" height="0.47" fill="#e0e0e0"/><rect id="Rectangle_4514" data-name="Rectangle 4514" x="129.52" y="76.29" width="32.94" height="0.47" fill="#e0e0e0"/><rect id="Rectangle_4515" data-name="Rectangle 4515" x="129.52" y="81.25" width="32.94" height="0.47" fill="#e0e0e0"/><rect id="Rectangle_4516" data-name="Rectangle 4516" x="129.52" y="86.2" width="32.94" height="0.47" fill="#e0e0e0"/><rect id="Rectangle_4517" data-name="Rectangle 4517" x="129.52" y="91.16" width="32.94" height="0.47" fill="#e0e0e0"/><rect id="Rectangle_4518" data-name="Rectangle 4518" x="129.52" y="96.11" width="32.94" height="0.47" fill="#e0e0e0"/><rect id="Rectangle_4519" data-name="Rectangle 4519" x="129.52" y="101.07" width="32.94" height="0.47" fill="#e0e0e0"/><rect id="Rectangle_4520" data-name="Rectangle 4520" x="129.52" y="106.03" width="32.94" height="0.47" fill="#e0e0e0"/><rect id="Rectangle_4521" data-name="Rectangle 4521" x="129.52" y="110.98" width="32.94" height="0.47" fill="#e0e0e0"/><rect id="Rectangle_4522" data-name="Rectangle 4522" x="129.52" y="115.94" width="32.94" height="0.47" fill="#e0e0e0"/></g><g id="Group_5430" data-name="Group 5430"><rect id="Rectangle_4523" data-name="Rectangle 4523" x="106.21" y="9.75" width="15.3" height="110.38" fill="#cccccb"/><path id="Path_10590" data-name="Path 10590" d="M121.51,9.75H106.2L111.84,0h21.92Z" fill="#e5e5e5"/><path id="Path_10591" data-name="Path 10591" d="M121.51,9.75,133.76,0V120.12H121.51Z" fill="#bab9ba"/><rect id="Rectangle_4524" data-name="Rectangle 4524" x="106.21" y="14.89" width="27.55" height="0.59" fill="#e0e0e0"/><rect id="Rectangle_4525" data-name="Rectangle 4525" x="106.21" y="21.14" width="27.55" height="0.59" fill="#e0e0e0"/><rect id="Rectangle_4526" data-name="Rectangle 4526" x="106.21" y="27.39" width="27.55" height="0.59" fill="#e0e0e0"/><rect id="Rectangle_4527" data-name="Rectangle 4527" x="106.21" y="33.63" width="27.55" height="0.59" fill="#e0e0e0"/><rect id="Rectangle_4528" data-name="Rectangle 4528" x="106.21" y="39.88" width="27.55" height="0.59" fill="#e0e0e0"/><rect id="Rectangle_4529" data-name="Rectangle 4529" x="106.21" y="46.13" width="27.55" height="0.59" fill="#e0e0e0"/><rect id="Rectangle_4530" data-name="Rectangle 4530" x="106.21" y="52.38" width="27.55" height="0.59" fill="#e0e0e0"/><rect id="Rectangle_4531" data-name="Rectangle 4531" x="106.21" y="58.62" width="27.55" height="0.59" fill="#e0e0e0"/><rect id="Rectangle_4532" data-name="Rectangle 4532" x="106.21" y="64.87" width="27.55" height="0.59" fill="#e0e0e0"/><rect id="Rectangle_4533" data-name="Rectangle 4533" x="106.21" y="71.12" width="27.55" height="0.59" fill="#e0e0e0"/><rect id="Rectangle_4534" data-name="Rectangle 4534" x="106.21" y="77.36" width="27.55" height="0.59" fill="#e0e0e0"/><rect id="Rectangle_4535" data-name="Rectangle 4535" x="106.21" y="83.61" width="27.55" height="0.59" fill="#e0e0e0"/><rect id="Rectangle_4536" data-name="Rectangle 4536" x="106.21" y="89.86" width="27.55" height="0.59" fill="#e0e0e0"/><rect id="Rectangle_4537" data-name="Rectangle 4537" x="106.21" y="96.11" width="27.55" height="0.59" fill="#e0e0e0"/><rect id="Rectangle_4538" data-name="Rectangle 4538" x="106.21" y="102.36" width="27.55" height="0.59" fill="#e0e0e0"/><rect id="Rectangle_4539" data-name="Rectangle 4539" x="106.21" y="108.6" width="27.55" height="0.59" fill="#e0e0e0"/><rect id="Rectangle_4540" data-name="Rectangle 4540" x="106.21" y="114.85" width="27.55" height="0.59" fill="#e0e0e0"/></g><g id="Group_5431" data-name="Group 5431"><rect id="Rectangle_4541" data-name="Rectangle 4541" x="86.84" y="63.16" width="16.71" height="56.97" fill="#b2b1b2"/><rect id="Rectangle_4542" data-name="Rectangle 4542" x="90.13" y="66.1" width="2.68" height="9.14" fill="#e6e6e6"/><rect id="Rectangle_4543" data-name="Rectangle 4543" x="96.71" y="66.1" width="2.68" height="9.14" fill="#e6e6e6"/><rect id="Rectangle_4544" data-name="Rectangle 4544" x="90.13" y="77.94" width="2.68" height="9.14" fill="#e6e6e6"/><rect id="Rectangle_4545" data-name="Rectangle 4545" x="96.71" y="77.94" width="2.68" height="9.14" fill="#e6e6e6"/><rect id="Rectangle_4546" data-name="Rectangle 4546" x="90.13" y="89.78" width="2.68" height="9.14" fill="#e6e6e6"/><rect id="Rectangle_4547" data-name="Rectangle 4547" x="96.71" y="89.78" width="2.68" height="9.14" fill="#e6e6e6"/><rect id="Rectangle_4548" data-name="Rectangle 4548" x="90.13" y="101.62" width="2.68" height="9.14" fill="#e6e6e6"/><rect id="Rectangle_4549" data-name="Rectangle 4549" x="96.71" y="101.62" width="2.68" height="9.14" fill="#e6e6e6"/><path id="Path_10592" data-name="Path 10592" d="M103.55,63.16H86.84l3.92-3.94h16.71Z" fill="#fff"/><path id="Path_10593" data-name="Path 10593" d="M103.55,63.16l3.92-3.94,3.92,3.94v57h-7.84Z" fill="#bab9ba"/></g></g></g></g></g><g id="Group_5464" data-name="Group 5464"><path id="Path_10124" data-name="Path 10124" d="M9,117.87H244.36c.6,0,1.09.16,1.09.35h0c0,.2-.49.35-1.09.35H9c-.6,0-1.09-.15-1.09-.35h0C7.88,118,8.37,117.87,9,117.87Z" fill="#444545" fill-rule="evenodd"/><g id="Group_5083" data-name="Group 5083"><path id="Path_10125" data-name="Path 10125" d="M84.93,118H82.29l.83-18.06h1Z" fill="#988f7f"/><g id="Group_5082" data-name="Group 5082"><path id="Path_10127" data-name="Path 10127" d="M83.29,96.67c.08,0,.23.13.3.06a6.56,6.56,0,0,0,1.76-3.06,4.61,4.61,0,0,1-1,1.55,6.94,6.94,0,0,0,.55-1.39,2.36,2.36,0,0,0-.08-1.46,2.61,2.61,0,0,1-.62,1.77,3.3,3.3,0,0,0-.08-2.7,3.16,3.16,0,0,1-.34,1.7,5.91,5.91,0,0,0-.06-1.33,2.2,2.2,0,0,0-.56-1.18,2,2,0,0,1,0,1.45A4.59,4.59,0,0,0,82,89.53a2.13,2.13,0,0,1,.16,1.64A4.13,4.13,0,0,0,80.72,89a3.16,3.16,0,0,1,.62,1.62,6.43,6.43,0,0,0-1.73-1.72,4.24,4.24,0,0,1,.83,1.3c-.72-.36-1.26-1.09-2-1.24.27.31.55.61.83.92a3.59,3.59,0,0,0-1.83-.31,5,5,0,0,1,.83.34,1.89,1.89,0,0,0-1.7.33,4.08,4.08,0,0,1,.92,0,3.52,3.52,0,0,0-1.7.88,4.36,4.36,0,0,1,.79-.2,2.28,2.28,0,0,0-.5.38,2.47,2.47,0,0,0-.69.94,10,10,0,0,1,1.55-.92c-.2.35-.41.7-.62,1a5.16,5.16,0,0,1,2.1-1.27l-.9.81a5,5,0,0,1,2.59-.54l-1.23.54a4.19,4.19,0,0,1,2.64.5,3.47,3.47,0,0,0-1.4,0,3.75,3.75,0,0,1,2.28,1.14A4.94,4.94,0,0,0,81,93.22a8.29,8.29,0,0,1,1.93,1.71,5,5,0,0,0-1.21-.52A8,8,0,0,1,83.29,96.67Z" fill="#b6be34"/><path id="Path_10128" data-name="Path 10128" d="M83.38,96.72l.06-.09a1.42,1.42,0,0,0,.15-1.1A3.22,3.22,0,0,0,83,94.46a.24.24,0,0,0,.1-.31.75.75,0,0,0-.21-.29l.23-.15a4.71,4.71,0,0,0-.94-.9l.33-.12a3.34,3.34,0,0,0-1.36-.88l.25-.27a3.51,3.51,0,0,0-1.7-.67,2.08,2.08,0,0,0,.52-.25,5.46,5.46,0,0,0-2.85.7.53.53,0,0,0,0-.28,7,7,0,0,0-1.8.83,1.62,1.62,0,0,0-.17.35,10.54,10.54,0,0,1,1.55-.92l-.61,1a5,5,0,0,1,2.1-1.27l-.9.81a4.91,4.91,0,0,1,2.58-.54l-1.22.54a4.16,4.16,0,0,1,2.63.5,3.48,3.48,0,0,0-1.4,0,3.7,3.7,0,0,1,2.28,1.14A4.85,4.85,0,0,0,81,93.23a8.29,8.29,0,0,1,1.93,1.71,4.66,4.66,0,0,0-1.21-.52,7.88,7.88,0,0,1,1.55,2.24Z" fill="#779a3f"/><path id="Path_10129" data-name="Path 10129" d="M83.38,97.36a4.86,4.86,0,0,0-7.49-5.83s3.24-2.35,5.92.06A4.76,4.76,0,0,1,83.12,97S82.9,97.41,83.38,97.36Z" fill="#47652f"/><path id="Path_10130" data-name="Path 10130" d="M84.19,97.25c-.08,0-.21-.16-.18-.24a6.5,6.5,0,0,1,2.06-2.87,4.8,4.8,0,0,0-1,1.55,7.09,7.09,0,0,1,1-1.08,2.32,2.32,0,0,1,1.36-.53,2.63,2.63,0,0,0-1.36,1.29,3.27,3.27,0,0,1,2.49-1,3.09,3.09,0,0,0-1.4,1,6,6,0,0,1,1.23-.5,2.25,2.25,0,0,1,1.31,0,2,2,0,0,0-1.32.6,4.61,4.61,0,0,1,2.8,0,2.13,2.13,0,0,0-1.56.53,4.06,4.06,0,0,1,2.56.43,3.09,3.09,0,0,0-1.73.1,6.66,6.66,0,0,1,2.28.87,4.15,4.15,0,0,0-1.52-.22c.62.51,1.5.7,2,1.35L92,98.16a3.67,3.67,0,0,1,1,1.53,4.23,4.23,0,0,0-.66-.61,1.87,1.87,0,0,1,.4,1.68,4.49,4.49,0,0,0-.33-.86,3.54,3.54,0,0,1-.11,1.91,3.82,3.82,0,0,0-.14-.81,2.09,2.09,0,0,1-.14.61,2.42,2.42,0,0,1-.58,1,10,10,0,0,0,.2-1.8l-.7,1a5,5,0,0,0,.3-2.43l-.38,1.16A4.65,4.65,0,0,0,90.36,98c0,.45,0,.91,0,1.35a4.25,4.25,0,0,0-1.55-2.19,3.35,3.35,0,0,1,.54,1.29,3.66,3.66,0,0,0-2-1.61,4.68,4.68,0,0,1,.88,1.1,8.19,8.19,0,0,0-2.36-1,4.82,4.82,0,0,1,1,.89A8,8,0,0,0,84.19,97.25Z" fill="#66923e"/><path id="Path_10131" data-name="Path 10131" d="M84.1,97.19l.06-.1a1.49,1.49,0,0,1,.94-.59,3.06,3.06,0,0,1,1.24.13.26.26,0,0,1,.24-.22.64.64,0,0,1,.36.08c0-.09,0-.19,0-.28a4.25,4.25,0,0,1,1.21.48c0-.11,0-.23,0-.35a3.37,3.37,0,0,1,1.35.88l.15-.34A3.68,3.68,0,0,1,91,98.14a2.71,2.71,0,0,1,0-.57,5.47,5.47,0,0,1,.55,2.89.71.71,0,0,1,.25-.11,6.57,6.57,0,0,1,0,2,1.76,1.76,0,0,1-.24.3,10.78,10.78,0,0,0,.2-1.79c-.24.32-.48.66-.7,1a5.19,5.19,0,0,0,.29-2.44l-.38,1.16A4.69,4.69,0,0,0,90.36,98c0,.44,0,.9,0,1.34a4.17,4.17,0,0,0-1.54-2.19,3.3,3.3,0,0,1,.54,1.28,3.69,3.69,0,0,0-2-1.6,4.64,4.64,0,0,1,.87,1.1,7.88,7.88,0,0,0-2.35-1,4.82,4.82,0,0,1,1,.89,7.66,7.66,0,0,0-2.68-.49Z" fill="#779a3f"/><path id="Path_10132" data-name="Path 10132" d="M83.52,97.45c-.08,0,2.06-3.1,6-1.16a4.59,4.59,0,0,1,2.43,5.58s.81-3.92-2.5-5.37a4.73,4.73,0,0,0-5.45,1S83.67,97.9,83.52,97.45Z" fill="#47652f"/><path id="Path_10133" data-name="Path 10133" d="M83.56,96.76c-.08.06-.23.14-.3.08a6.47,6.47,0,0,1-2-2.9,4.91,4.91,0,0,0,1.12,1.47,6.67,6.67,0,0,1-.66-1.34,2.28,2.28,0,0,1,0-1.46,2.63,2.63,0,0,0,.75,1.71,3.3,3.3,0,0,1-.14-2.7,3.27,3.27,0,0,0,.48,1.67,6.48,6.48,0,0,1,0-1.32,2.29,2.29,0,0,1,.46-1.23,2.07,2.07,0,0,0,.13,1.45,4.58,4.58,0,0,1,.94-2.64,2.15,2.15,0,0,0,0,1.65,4.2,4.2,0,0,1,1.27-2.27A3.25,3.25,0,0,0,85,90.59a6.44,6.44,0,0,1,1.6-1.85,4,4,0,0,0-.72,1.37c.68-.42,1.16-1.18,1.93-1.41l-.75,1a3.72,3.72,0,0,1,1.79-.45,4.64,4.64,0,0,0-.8.41,1.86,1.86,0,0,1,1.71.19,3.53,3.53,0,0,0-.92,0,3.58,3.58,0,0,1,1.76.74,3.12,3.12,0,0,0-.8-.14,2.62,2.62,0,0,1,.53.33,2.51,2.51,0,0,1,.76.89,10.1,10.1,0,0,0-1.62-.79c.23.33.46.67.7,1A5,5,0,0,0,88,90.79l1,.74a4.9,4.9,0,0,0-2.62-.33l1.27.44a4.18,4.18,0,0,0-2.59.72,3.16,3.16,0,0,1,1.4-.07,3.74,3.74,0,0,0-2.19,1.32,4.55,4.55,0,0,1,1.33-.45A8.32,8.32,0,0,0,83.75,95a4.35,4.35,0,0,1,1.17-.61A7.56,7.56,0,0,0,83.56,96.76Z" fill="#66923e"/><path id="Path_10134" data-name="Path 10134" d="M83.47,96.82l-.07-.09a1.48,1.48,0,0,1-.24-1.08,2.87,2.87,0,0,1,.54-1.11.27.27,0,0,1-.13-.31.71.71,0,0,1,.19-.31l-.25-.14a4.28,4.28,0,0,1,.87-1L84,92.71a3.2,3.2,0,0,1,1.29-1l-.27-.26a3.62,3.62,0,0,1,1.63-.8,3.39,3.39,0,0,1-.53-.2,5.37,5.37,0,0,1,2.9.46.54.54,0,0,1,0-.28,6.83,6.83,0,0,1,1.86.69,1.81,1.81,0,0,1,.2.33,9.32,9.32,0,0,0-1.62-.79c.23.33.46.67.7,1A5,5,0,0,0,88,90.78l1,.74a4.9,4.9,0,0,0-2.62-.33l1.27.44a4.24,4.24,0,0,0-2.59.71,3.49,3.49,0,0,1,1.4-.07,3.73,3.73,0,0,0-2.19,1.33,4.55,4.55,0,0,1,1.33-.45A8.32,8.32,0,0,0,83.75,95a4.69,4.69,0,0,1,1.17-.62,7.73,7.73,0,0,0-1.36,2.36A.22.22,0,0,1,83.47,96.82Z" fill="#779a3f"/><path id="Path_10135" data-name="Path 10135" d="M83.52,97.45c0,.07-2.22-3,.92-6A4.59,4.59,0,0,1,90.51,91s-3.42-2.08-5.9.55a4.74,4.74,0,0,0-.86,5.48S84,97.46,83.52,97.45Z" fill="#47652f"/><path id="Path_10136" data-name="Path 10136" d="M84,96.86c-.11,0-.3,0-.33-.08a6,6,0,0,1,0-3.57,4.28,4.28,0,0,0,.08,1.85A7,7,0,0,1,84,93.55,2.63,2.63,0,0,1,85,92.24a2.56,2.56,0,0,0-.41,1.88,3.7,3.7,0,0,1,1.61-2.44,3.44,3.44,0,0,0-.64,1.72,7.07,7.07,0,0,1,.82-1.2,3,3,0,0,1,1.22-.84,2.29,2.29,0,0,0-.82,1.33,5.83,5.83,0,0,1,2.57-1.83,2.45,2.45,0,0,0-1.09,1.43,5.31,5.31,0,0,1,2.64-1.35,3.88,3.88,0,0,0-1.53,1.22A8.36,8.36,0,0,1,92,91.34a5.39,5.39,0,0,0-1.55.83c.9,0,1.84-.45,2.7-.24l-1.33.47a4.18,4.18,0,0,1,2,.52,5.63,5.63,0,0,0-1,0,1.87,1.87,0,0,1,1.46,1,4,4,0,0,0-.87-.44A3.16,3.16,0,0,1,94.49,95a3.74,3.74,0,0,0-.66-.53,2,2,0,0,1,.28.56,2.13,2.13,0,0,1,.13,1.17,8,8,0,0,0-1-1.53v1.23a4.48,4.48,0,0,0-1.31-2.08l.4,1.14a4.69,4.69,0,0,0-2.2-1.62c.3.35.6.69.89,1a4.69,4.69,0,0,0-2.85-.7,3.31,3.31,0,0,1,1.33.65,4.62,4.62,0,0,0-2.87.05,4.86,4.86,0,0,1,1.51.28,10.38,10.38,0,0,0-2.85.72,5.18,5.18,0,0,1,1.47.06A10.71,10.71,0,0,0,84,96.86Z" fill="#a0ba3c"/><path id="Path_10137" data-name="Path 10137" d="M83.88,96.86a.45.45,0,0,0,0-.11,1.51,1.51,0,0,1,.49-1.07A4.24,4.24,0,0,1,85.58,95a.24.24,0,0,1,.08-.33,1,1,0,0,1,.37-.17c0-.08-.09-.16-.14-.24a6,6,0,0,1,1.43-.42l-.26-.25a4,4,0,0,1,1.82-.21c0-.12,0-.24-.08-.36a4.24,4.24,0,0,1,2,.13,2.6,2.6,0,0,1-.37-.45,5.38,5.38,0,0,1,2.38,1.89A.71.71,0,0,1,93,94.3a6.13,6.13,0,0,1,1.27,1.56,1.26,1.26,0,0,1,0,.39,8.39,8.39,0,0,0-1-1.52V96a4.48,4.48,0,0,0-1.32-2.09c.13.38.28.77.41,1.15a4.68,4.68,0,0,0-2.2-1.62l.89,1a4.76,4.76,0,0,0-2.85-.7,3.39,3.39,0,0,1,1.33.66,4.65,4.65,0,0,0-2.88,0,5.23,5.23,0,0,1,1.52.28,10.92,10.92,0,0,0-2.86.72,6,6,0,0,1,1.47.06A10.26,10.26,0,0,0,84,96.87Z" fill="#b6be34"/><path id="Path_10138" data-name="Path 10138" d="M83.52,97.45s.1-3.92,4.74-4.81,5.88,2.74,5.88,2.74a5.08,5.08,0,0,0-5.8-2.53A5.47,5.47,0,0,0,84,97.22S84,97.7,83.52,97.45Z" fill="#47652f"/><path id="Path_10139" data-name="Path 10139" d="M84.11,97.4c0-.08,0-.21,0-.25a5.3,5.3,0,0,1,2.77-.73,3.58,3.58,0,0,0-1.42.45,5.32,5.32,0,0,1,1.2-.14,1.83,1.83,0,0,1,1.12.38,2.13,2.13,0,0,0-1.51.1,2.72,2.72,0,0,1,2.1.64A2.51,2.51,0,0,0,87,97.76a5.34,5.34,0,0,1,1,.32,2,2,0,0,1,.8.69,1.66,1.66,0,0,0-1.14-.3,3.7,3.7,0,0,1,1.75,1.45,1.77,1.77,0,0,0-1.25-.48,3.37,3.37,0,0,1,1.38,1.6,2.49,2.49,0,0,0-1.14-.83,5.28,5.28,0,0,1,1,1.73,3.15,3.15,0,0,0-.85-.93c.14.64.59,1.21.54,1.86l-.54-.84a2.91,2.91,0,0,1-.15,1.49,4.18,4.18,0,0,0-.09-.71,1.51,1.51,0,0,1-.62,1.25,2.81,2.81,0,0,0,.23-.71,2.84,2.84,0,0,1-1.06,1.14,2.35,2.35,0,0,0,.33-.57,2.49,2.49,0,0,1-1.29.65,7.25,7.25,0,0,0,1.05-1l-1,.26a4.08,4.08,0,0,0,1.45-1.38l-.83.54a3.84,3.84,0,0,0,1-1.9l-.69.84a3.37,3.37,0,0,0,.18-2.17,2.73,2.73,0,0,1-.34,1.08,3,3,0,0,0-.4-2,3.89,3.89,0,0,1,0,1.13A7,7,0,0,0,85.37,98a3.88,3.88,0,0,1,.15,1.06A5.93,5.93,0,0,0,84.11,97.4Z" fill="#417d3c"/><path id="Path_10140" data-name="Path 10140" d="M84.09,97.32l.09,0a1.16,1.16,0,0,1,.89.12,2.4,2.4,0,0,1,.7.72.21.21,0,0,1,.27,0,.58.58,0,0,1,.18.23,1.29,1.29,0,0,0,.17-.16,3.53,3.53,0,0,1,.51.93l.17-.23a2.59,2.59,0,0,1,.39,1.24l.27-.13a2.85,2.85,0,0,1,.16,1.47,2.6,2.6,0,0,1,.3-.36A4.29,4.29,0,0,1,87,103.19a.57.57,0,0,1,.22.07,5.31,5.31,0,0,1-1,1.23,1.55,1.55,0,0,1-.31.06,7.23,7.23,0,0,0,1-1l-.95.26a4.05,4.05,0,0,0,1.44-1.38l-.82.54a3.93,3.93,0,0,0,1-1.9l-.69.84a3.43,3.43,0,0,0,.17-2.17,2.57,2.57,0,0,1-.33,1.08,3,3,0,0,0-.41-2,3.63,3.63,0,0,1,0,1.14A7,7,0,0,0,85.4,98a4.29,4.29,0,0,1,.14,1.06,6.19,6.19,0,0,0-1.42-1.68Z" fill="#66923e"/><path id="Path_10141" data-name="Path 10141" d="M83.59,97.19a3.94,3.94,0,0,1,3,7.1s2.53-2,1.21-4.65a3.85,3.85,0,0,0-3.94-2.18S83.45,97.54,83.59,97.19Z" fill="#47652f"/><path id="Path_10142" data-name="Path 10142" d="M83,97.3c.08-.06.2-.18.16-.26a6.41,6.41,0,0,0-2.27-2.7A4.67,4.67,0,0,1,82,95.8a6.44,6.44,0,0,0-1.11-1,2.34,2.34,0,0,0-1.4-.43,2.59,2.59,0,0,1,1.44,1.18,3.24,3.24,0,0,0-2.56-.84,3.11,3.11,0,0,1,1.48.9,6.16,6.16,0,0,0-1.26-.4,2.31,2.31,0,0,0-1.3.13,2,2,0,0,1,1.36.5,4.6,4.6,0,0,0-2.79.21,2.16,2.16,0,0,1,1.6.41,4.09,4.09,0,0,0-2.52.63,3.09,3.09,0,0,1,1.73,0,6.5,6.5,0,0,0-2.2,1.06A4.15,4.15,0,0,1,76,97.79c-.58.56-1.45.8-1.87,1.49l1.15-.47a3.6,3.6,0,0,0-.91,1.61,4.7,4.7,0,0,1,.6-.66,1.91,1.91,0,0,0-.28,1.7,3.92,3.92,0,0,1,.28-.88,3.49,3.49,0,0,0,.25,1.89,4.45,4.45,0,0,1,.08-.81,2.1,2.1,0,0,0,.19.6,2.55,2.55,0,0,0,.65,1,9.71,9.71,0,0,1-.34-1.77l.78.94a5,5,0,0,1-.48-2.41c.15.37.3.75.46,1.12a4.83,4.83,0,0,1,.37-2.6c0,.44.07.89.09,1.33a4.17,4.17,0,0,1,1.37-2.31,3.32,3.32,0,0,0-.44,1.33,3.77,3.77,0,0,1,1.85-1.76A4.72,4.72,0,0,0,79,98.26,8.43,8.43,0,0,1,81.27,97a4.61,4.61,0,0,0-.9,1A7.53,7.53,0,0,1,83,97.3Z" fill="#417d3c"/><path id="Path_10143" data-name="Path 10143" d="M83.09,97.23,83,97.14a1.42,1.42,0,0,0-1-.52,3,3,0,0,0-1.22.23.26.26,0,0,0-.27-.2.67.67,0,0,0-.34.1l-.06-.26a4.29,4.29,0,0,0-1.18.57v-.35a3.17,3.17,0,0,0-1.28,1l-.17-.33a3.65,3.65,0,0,0-1.22,1.37,2.2,2.2,0,0,0,0-.57,5.39,5.39,0,0,0-.31,2.92.62.62,0,0,0-.26-.09,6.86,6.86,0,0,0,.17,2,1.44,1.44,0,0,0,.27.28,9.71,9.71,0,0,1-.34-1.77l.78.94a5,5,0,0,1-.48-2.41c.15.37.3.75.46,1.12a4.83,4.83,0,0,1,.37-2.6c0,.44.07.89.09,1.33a4.15,4.15,0,0,1,1.37-2.3,3.23,3.23,0,0,0-.44,1.32,3.77,3.77,0,0,1,1.85-1.76A4.72,4.72,0,0,0,79,98.27,8.43,8.43,0,0,1,81.26,97a4.61,4.61,0,0,0-.9,1A7.53,7.53,0,0,1,83,97.31.39.39,0,0,1,83.09,97.23Z" fill="#66923e"/><path id="Path_10144" data-name="Path 10144" d="M83.68,97.44a4.87,4.87,0,0,0-8,5.06s-1.1-3.85,2.08-5.55a4.74,4.74,0,0,1,5.52.61S83.57,97.91,83.68,97.44Z" fill="#47652f"/><path id="Path_10145" data-name="Path 10145" d="M83.15,96.89c.11,0,.3,0,.32-.1a5.9,5.9,0,0,0-.31-3.57,4.33,4.33,0,0,1,.07,1.86,6.37,6.37,0,0,0-.37-1.49,2.56,2.56,0,0,0-1-1.23,2.58,2.58,0,0,1,.56,1.85,3.73,3.73,0,0,0-1.8-2.31,3.39,3.39,0,0,1,.77,1.66,7,7,0,0,0-.9-1.12,3,3,0,0,0-1.28-.75A2.23,2.23,0,0,1,80.11,93a5.7,5.7,0,0,0-2.71-1.63,2.5,2.5,0,0,1,1.2,1.34,5.33,5.33,0,0,0-2.74-1.13,3.82,3.82,0,0,1,1.62,1.09,8.14,8.14,0,0,0-2.72-.6,5.65,5.65,0,0,1,1.61.71c-.9.05-1.87-.31-2.71,0l1.36.37a4.06,4.06,0,0,0-1.9.67,5.58,5.58,0,0,1,1-.12,1.81,1.81,0,0,0-1.37,1.15,4.4,4.4,0,0,1,.83-.51,3.15,3.15,0,0,0-1,1.64,3.41,3.41,0,0,1,.61-.59,2.42,2.42,0,0,0-.23.58,2.25,2.25,0,0,0,0,1.18,8.8,8.8,0,0,1,.86-1.6c0,.41.06.81.09,1.23A4.44,4.44,0,0,1,75,94.52c-.1.39-.21.78-.31,1.17a4.54,4.54,0,0,1,2.07-1.78L75.94,95a4.76,4.76,0,0,1,2.79-.92,3.52,3.52,0,0,0-1.28.75,4.7,4.7,0,0,1,2.87-.18,5.58,5.58,0,0,0-1.49.4,10.56,10.56,0,0,1,2.9.5,5.55,5.55,0,0,0-1.46.17A9.89,9.89,0,0,1,83.15,96.89Z" fill="#66923e"/><path id="Path_10146" data-name="Path 10146" d="M83.27,96.89a.2.2,0,0,0,0-.11,1.48,1.48,0,0,0-.56-1,3.78,3.78,0,0,0-1.26-.61.27.27,0,0,0-.11-.33,1.07,1.07,0,0,0-.39-.14c0-.08.08-.16.13-.24a5.77,5.77,0,0,0-1.47-.32l.24-.27A3.91,3.91,0,0,0,78,93.77c0-.12,0-.24,0-.36a4.32,4.32,0,0,0-2,.28,2.21,2.21,0,0,0,.33-.47,5.16,5.16,0,0,0-2.22,2.07.55.55,0,0,0-.18-.24,6.22,6.22,0,0,0-1.15,1.64,1.34,1.34,0,0,0,.07.39,8.8,8.8,0,0,1,.86-1.6l.09,1.23A4.48,4.48,0,0,1,75,94.53c-.1.39-.21.78-.31,1.18a4.54,4.54,0,0,1,2.07-1.78L76,95a4.73,4.73,0,0,1,2.79-.91,3.38,3.38,0,0,0-1.28.75,4.7,4.7,0,0,1,2.87-.18,5.37,5.37,0,0,0-1.49.39,11.45,11.45,0,0,1,2.9.5,6.54,6.54,0,0,0-1.46.17,10.42,10.42,0,0,1,2.88,1.16Z" fill="#779a3f"/><path id="Path_10147" data-name="Path 10147" d="M83.68,97.44s-.42-3.9-5.1-4.42-5.65,3.19-5.65,3.19a5.1,5.1,0,0,1,5.59-3,5.51,5.51,0,0,1,4.68,4S83.27,97.73,83.68,97.44Z" fill="#47652f"/><path id="Path_10148" data-name="Path 10148" d="M83.2,97.51c0-.07,0-.18,0-.21a4.52,4.52,0,0,0-2.45-.45,3.68,3.68,0,0,1,1.27.29,4.61,4.61,0,0,0-1,0,1.56,1.56,0,0,0-1,.4,1.82,1.82,0,0,1,1.32,0,2.28,2.28,0,0,0-1.78.69A2.29,2.29,0,0,1,80.74,98a5.45,5.45,0,0,0-.87.35,1.69,1.69,0,0,0-.65.65,1.46,1.46,0,0,1,1-.33A3.14,3.14,0,0,0,78.77,100a1.55,1.55,0,0,1,1-.49A3,3,0,0,0,78.73,101a2.19,2.19,0,0,1,.93-.8,4.55,4.55,0,0,0-.73,1.56,2.94,2.94,0,0,1,.67-.86c-.07.57-.43,1.09-.34,1.65l.41-.76a2.7,2.7,0,0,0,.23,1.28,2.76,2.76,0,0,1,0-.64,1.31,1.31,0,0,0,.62,1.05,2.63,2.63,0,0,1-.25-.6,2.55,2.55,0,0,0,1,.92,3.08,3.08,0,0,1-.32-.48,1.31,1.31,0,0,0,.37.24,1.68,1.68,0,0,0,.78.23,6.91,6.91,0,0,1-1-.81l.85.16a3.39,3.39,0,0,1-1.34-1.09l.75.4a3.32,3.32,0,0,1-1-1.58c.21.23.43.45.65.68a2.87,2.87,0,0,1-.3-1.86,2.18,2.18,0,0,0,.36.91,2.61,2.61,0,0,1,.21-1.78,3.33,3.33,0,0,0,.09,1,5.66,5.66,0,0,1,.68-1.69,3.54,3.54,0,0,0-.06.92A5.42,5.42,0,0,1,83.2,97.51Z" fill="#66923e"/><path id="Path_10149" data-name="Path 10149" d="M83.21,97.43h-.08a1,1,0,0,0-.76.16,2.13,2.13,0,0,0-.56.67.2.2,0,0,0-.23,0,.49.49,0,0,0-.14.21l-.16-.12a2.87,2.87,0,0,0-.37.84L80.74,99a2.23,2.23,0,0,0-.25,1.11l-.24-.1a2.41,2.41,0,0,0,0,1.28,2.57,2.57,0,0,0-.28-.29,3.76,3.76,0,0,0,1.13,1.72.56.56,0,0,0-.18.07,4.89,4.89,0,0,0,1,1,1.27,1.27,0,0,0,.28,0,7.61,7.61,0,0,1-1-.81l.85.16a3.46,3.46,0,0,1-1.34-1.09l.75.4a3.32,3.32,0,0,1-1-1.58c.21.23.43.45.65.68a2.87,2.87,0,0,1-.3-1.86,2.18,2.18,0,0,0,.36.91,2.61,2.61,0,0,1,.21-1.78,3.58,3.58,0,0,0,.09,1,6,6,0,0,1,.68-1.68,3.54,3.54,0,0,0-.06.92,5.7,5.7,0,0,1,1.11-1.55A.24.24,0,0,0,83.21,97.43Z" fill="#417d3c"/><path id="Path_10150" data-name="Path 10150" d="M83.63,97.29a3.42,3.42,0,0,0-2.09,6.35s-2.33-1.6-1.37-4a3.34,3.34,0,0,1,3.27-2.14S83.78,97.59,83.63,97.29Z" fill="#47652f"/></g><rect id="Rectangle_4395" data-name="Rectangle 4395" x="83.12" y="97.26" width="0.98" height="2.64" fill="#47652f"/></g><g id="Group_5085" data-name="Group 5085"><path id="Path_10151" data-name="Path 10151" d="M163.7,118h-2.63l.82-18.06h1Z" fill="#988f7f"/><g id="Group_5084" data-name="Group 5084"><path id="Path_10153" data-name="Path 10153" d="M162.06,96.67c.08,0,.23.13.3.06a6.65,6.65,0,0,0,1.76-3.06,4.77,4.77,0,0,1-1,1.55,6.94,6.94,0,0,0,.55-1.39,2.36,2.36,0,0,0-.08-1.46,2.71,2.71,0,0,1-.62,1.77,3.3,3.3,0,0,0-.08-2.7,3.16,3.16,0,0,1-.34,1.7,5.91,5.91,0,0,0-.06-1.33,2.2,2.2,0,0,0-.56-1.18,2,2,0,0,1,0,1.45,4.59,4.59,0,0,0-1.15-2.55,2.13,2.13,0,0,1,.16,1.64A4.13,4.13,0,0,0,159.49,89a3.16,3.16,0,0,1,.62,1.62,6.33,6.33,0,0,0-1.74-1.72,4.06,4.06,0,0,1,.83,1.3c-.71-.36-1.25-1.09-2-1.24l.84.92a3.61,3.61,0,0,0-1.83-.31,4.56,4.56,0,0,1,.82.34,1.87,1.87,0,0,0-1.69.33,4.05,4.05,0,0,1,.92,0,3.52,3.52,0,0,0-1.7.88,4.36,4.36,0,0,1,.79-.2,2.28,2.28,0,0,0-.5.38,2.37,2.37,0,0,0-.69.94,9.59,9.59,0,0,1,1.55-.92c-.2.35-.41.7-.62,1a5.16,5.16,0,0,1,2.1-1.27l-.9.81a5,5,0,0,1,2.59-.54l-1.23.54a4.15,4.15,0,0,1,2.63.5,3.48,3.48,0,0,0-1.4,0,3.78,3.78,0,0,1,2.29,1.14,5,5,0,0,0-1.36-.34,8.49,8.49,0,0,1,1.93,1.71,5,5,0,0,0-1.21-.52A8,8,0,0,1,162.06,96.67Z" fill="#b6be34"/><path id="Path_10154" data-name="Path 10154" d="M162.15,96.72l.06-.09a1.42,1.42,0,0,0,.15-1.1,3.22,3.22,0,0,0-.63-1.07.24.24,0,0,0,.1-.31.75.75,0,0,0-.21-.29l.23-.15a4.71,4.71,0,0,0-.94-.9l.33-.12a3.34,3.34,0,0,0-1.36-.88l.25-.27a3.54,3.54,0,0,0-1.7-.67,2.26,2.26,0,0,0,.52-.25,5.49,5.49,0,0,0-2.86.7.53.53,0,0,0,0-.28,6.85,6.85,0,0,0-1.8.83,1.62,1.62,0,0,0-.17.35,10,10,0,0,1,1.55-.92c-.2.35-.41.7-.62,1a5.16,5.16,0,0,1,2.1-1.27l-.9.81a5,5,0,0,1,2.59-.54l-1.23.54a4.19,4.19,0,0,1,2.64.5,3.47,3.47,0,0,0-1.4,0,3.75,3.75,0,0,1,2.28,1.14,5,5,0,0,0-1.36-.34,8.26,8.26,0,0,1,1.93,1.71,5,5,0,0,0-1.21-.52A7.85,7.85,0,0,1,162,96.66Z" fill="#779a3f"/><path id="Path_10155" data-name="Path 10155" d="M162.15,97.36a4.86,4.86,0,0,0-7.49-5.83s3.24-2.35,5.92.06a4.76,4.76,0,0,1,1.31,5.4S161.67,97.41,162.15,97.36Z" fill="#47652f"/><path id="Path_10156" data-name="Path 10156" d="M163,97.25c-.08,0-.21-.16-.18-.24a6.5,6.5,0,0,1,2.06-2.87,4.8,4.8,0,0,0-1,1.55,7,7,0,0,1,1-1.08,2.38,2.38,0,0,1,1.37-.53,2.63,2.63,0,0,0-1.36,1.29,3.26,3.26,0,0,1,2.49-1,3.17,3.17,0,0,0-1.41,1,6.48,6.48,0,0,1,1.23-.5,2.25,2.25,0,0,1,1.31,0,2,2,0,0,0-1.31.6,4.61,4.61,0,0,1,2.8,0,2.11,2.11,0,0,0-1.56.53,4.08,4.08,0,0,1,2.56.43,3.09,3.09,0,0,0-1.73.1,6.66,6.66,0,0,1,2.28.87,4.18,4.18,0,0,0-1.53-.22c.63.51,1.51.7,2,1.35l-1.18-.38a3.67,3.67,0,0,1,1,1.53,4.23,4.23,0,0,0-.66-.61,1.87,1.87,0,0,1,.4,1.68,4.49,4.49,0,0,0-.33-.86,3.54,3.54,0,0,1-.11,1.91A3.73,3.73,0,0,0,171,101a1.8,1.8,0,0,1-.13.61,2.53,2.53,0,0,1-.58,1,10,10,0,0,0,.2-1.8l-.7,1a5,5,0,0,0,.3-2.43l-.38,1.16a4.65,4.65,0,0,0-.58-2.58c0,.45,0,.91,0,1.35a4.05,4.05,0,0,0-1.54-2.2,3.26,3.26,0,0,1,.54,1.29,3.75,3.75,0,0,0-2-1.61,4.68,4.68,0,0,1,.88,1.1,8.19,8.19,0,0,0-2.36-1.05,4.57,4.57,0,0,1,1,.89A8,8,0,0,0,163,97.25Z" fill="#66923e"/><path id="Path_10157" data-name="Path 10157" d="M162.87,97.19l.06-.1a1.49,1.49,0,0,1,.94-.59,3,3,0,0,1,1.23.13.28.28,0,0,1,.25-.22.64.64,0,0,1,.36.08,2.7,2.7,0,0,1,0-.28,4.5,4.5,0,0,1,1.21.48c0-.11,0-.23,0-.35a3.37,3.37,0,0,1,1.35.88l.15-.34a3.76,3.76,0,0,1,1.31,1.26,2.71,2.71,0,0,1,0-.57,5.47,5.47,0,0,1,.55,2.89.71.71,0,0,1,.25-.11,6.57,6.57,0,0,1,0,2,1.76,1.76,0,0,1-.24.3,10.78,10.78,0,0,0,.2-1.79c-.24.32-.48.66-.7,1a5.19,5.19,0,0,0,.29-2.44l-.38,1.16a4.69,4.69,0,0,0-.57-2.57c0,.44,0,.9,0,1.34a4.17,4.17,0,0,0-1.54-2.19,3.3,3.3,0,0,1,.54,1.28,3.69,3.69,0,0,0-2-1.6,4.64,4.64,0,0,1,.87,1.1,7.88,7.88,0,0,0-2.35-1,4.82,4.82,0,0,1,1,.89,7.66,7.66,0,0,0-2.68-.49Z" fill="#779a3f"/><path id="Path_10158" data-name="Path 10158" d="M162.29,97.45c-.08,0,2.06-3.1,6-1.16a4.59,4.59,0,0,1,2.43,5.58s.81-3.92-2.5-5.37a4.73,4.73,0,0,0-5.45,1S162.44,97.9,162.29,97.45Z" fill="#47652f"/><path id="Path_10159" data-name="Path 10159" d="M162.32,96.76c-.07.06-.22.14-.29.08a6.47,6.47,0,0,1-2-2.9,4.6,4.6,0,0,0,1.12,1.47,6.67,6.67,0,0,1-.66-1.34,2.28,2.28,0,0,1,0-1.46,2.63,2.63,0,0,0,.75,1.71,3.3,3.3,0,0,1-.14-2.7,3.18,3.18,0,0,0,.48,1.67,6.48,6.48,0,0,1,0-1.32,2.29,2.29,0,0,1,.46-1.23,2,2,0,0,0,.13,1.45,4.58,4.58,0,0,1,.94-2.64,2.15,2.15,0,0,0,0,1.65,4.14,4.14,0,0,1,1.27-2.27,3.15,3.15,0,0,0-.49,1.66,6.44,6.44,0,0,1,1.6-1.85,4,4,0,0,0-.72,1.37c.68-.42,1.15-1.18,1.93-1.41l-.75,1a3.72,3.72,0,0,1,1.79-.45,4.64,4.64,0,0,0-.8.41,1.86,1.86,0,0,1,1.71.19,3.53,3.53,0,0,0-.92,0,3.58,3.58,0,0,1,1.76.74,3.13,3.13,0,0,0-.81-.14,2.44,2.44,0,0,1,.54.33,2.51,2.51,0,0,1,.76.89,10.1,10.1,0,0,0-1.62-.79c.23.33.46.67.7,1a5.07,5.07,0,0,0-2.2-1.09l1,.74a4.86,4.86,0,0,0-2.61-.33l1.27.44a4.18,4.18,0,0,0-2.59.72,3.15,3.15,0,0,1,1.4-.07A3.71,3.71,0,0,0,163,93.61a4.55,4.55,0,0,1,1.33-.45A8.32,8.32,0,0,0,162.52,95a4.35,4.35,0,0,1,1.17-.61A7.92,7.92,0,0,0,162.32,96.76Z" fill="#66923e"/><path id="Path_10160" data-name="Path 10160" d="M162.24,96.82l-.07-.09a1.48,1.48,0,0,1-.24-1.08,2.87,2.87,0,0,1,.54-1.11.27.27,0,0,1-.13-.31.71.71,0,0,1,.19-.31l-.25-.14a4.28,4.28,0,0,1,.87-1l-.35-.09a3.2,3.2,0,0,1,1.29-1l-.27-.26a3.62,3.62,0,0,1,1.63-.8,3.39,3.39,0,0,1-.53-.2,5.37,5.37,0,0,1,2.9.46.54.54,0,0,1,0-.28,6.83,6.83,0,0,1,1.86.69,1.81,1.81,0,0,1,.2.33,9.32,9.32,0,0,0-1.62-.79c.23.33.46.67.7,1a5,5,0,0,0-2.2-1.09c.32.25.65.49,1,.74a4.86,4.86,0,0,0-2.61-.33l1.27.44a4.24,4.24,0,0,0-2.59.71,3.48,3.48,0,0,1,1.4-.07A3.73,3.73,0,0,0,163,93.6a4.55,4.55,0,0,1,1.33-.45A8.32,8.32,0,0,0,162.52,95a4.69,4.69,0,0,1,1.17-.62,7.73,7.73,0,0,0-1.36,2.36A.22.22,0,0,1,162.24,96.82Z" fill="#779a3f"/><path id="Path_10161" data-name="Path 10161" d="M162.29,97.45c0,.07-2.22-3,.92-6a4.59,4.59,0,0,1,6.07-.41s-3.42-2.08-5.9.55a4.74,4.74,0,0,0-.86,5.48S162.77,97.46,162.29,97.45Z" fill="#47652f"/><path id="Path_10162" data-name="Path 10162" d="M162.77,96.86c-.1,0-.3,0-.32-.08a6,6,0,0,1,0-3.57,4.28,4.28,0,0,0,.08,1.85,6.46,6.46,0,0,1,.26-1.51,2.63,2.63,0,0,1,.91-1.31,2.52,2.52,0,0,0-.41,1.88,3.7,3.7,0,0,1,1.61-2.44,3.35,3.35,0,0,0-.64,1.72,6.53,6.53,0,0,1,.82-1.2,2.82,2.82,0,0,1,1.22-.84,2.24,2.24,0,0,0-.82,1.33,5.83,5.83,0,0,1,2.57-1.83A2.45,2.45,0,0,0,167,92.29a5.31,5.31,0,0,1,2.64-1.35,3.88,3.88,0,0,0-1.53,1.22,8.36,8.36,0,0,1,2.67-.82,5.39,5.39,0,0,0-1.55.83c.9,0,1.84-.45,2.7-.24l-1.33.47a4.18,4.18,0,0,1,1.95.52,5.63,5.63,0,0,0-1,0,1.87,1.87,0,0,1,1.46,1,4,4,0,0,0-.87-.44A3.16,3.16,0,0,1,173.26,95a3.74,3.74,0,0,0-.66-.53,2,2,0,0,1,.28.56,2.13,2.13,0,0,1,.13,1.17,8,8,0,0,0-1-1.53v1.23a4.48,4.48,0,0,0-1.31-2.08l.4,1.14a4.69,4.69,0,0,0-2.2-1.62c.3.35.6.69.89,1a4.69,4.69,0,0,0-2.85-.7,3.31,3.31,0,0,1,1.33.65,4.62,4.62,0,0,0-2.87.05,4.81,4.81,0,0,1,1.51.28,10.38,10.38,0,0,0-2.85.72,5.18,5.18,0,0,1,1.47.06A10.94,10.94,0,0,0,162.77,96.86Z" fill="#a0ba3c"/><path id="Path_10163" data-name="Path 10163" d="M162.65,96.86a.45.45,0,0,0,0-.11,1.51,1.51,0,0,1,.49-1.07,4.24,4.24,0,0,1,1.22-.71.24.24,0,0,1,.08-.33,1,1,0,0,1,.37-.17c0-.08-.09-.16-.14-.24a5.88,5.88,0,0,1,1.43-.42l-.26-.25a4,4,0,0,1,1.82-.21c0-.12-.05-.24-.08-.36a4.19,4.19,0,0,1,2,.13,2.54,2.54,0,0,1-.36-.45,5.3,5.3,0,0,1,2.37,1.89.73.73,0,0,1,.17-.26A6.58,6.58,0,0,1,173,95.86a1.67,1.67,0,0,1,0,.39,8.39,8.39,0,0,0-1-1.52V96a4.56,4.56,0,0,0-1.32-2.09c.13.38.27.77.41,1.15a4.68,4.68,0,0,0-2.2-1.62l.89,1a4.79,4.79,0,0,0-2.86-.7,3.37,3.37,0,0,1,1.34.66,4.65,4.65,0,0,0-2.88,0,5.23,5.23,0,0,1,1.52.28,10.82,10.82,0,0,0-2.86.72,6,6,0,0,1,1.47.06,10.26,10.26,0,0,0-2.77,1.38Z" fill="#b6be34"/><path id="Path_10164" data-name="Path 10164" d="M162.29,97.45s.1-3.92,4.74-4.81,5.88,2.74,5.88,2.74a5.08,5.08,0,0,0-5.8-2.53,5.47,5.47,0,0,0-4.35,4.37S162.73,97.7,162.29,97.45Z" fill="#47652f"/><path id="Path_10165" data-name="Path 10165" d="M162.88,97.4c0-.08,0-.21,0-.25a5.3,5.3,0,0,1,2.77-.73,3.58,3.58,0,0,0-1.42.45,5.32,5.32,0,0,1,1.2-.14,1.83,1.83,0,0,1,1.12.38,2.13,2.13,0,0,0-1.51.1,2.72,2.72,0,0,1,2.1.64,2.51,2.51,0,0,0-1.41-.09,5.34,5.34,0,0,1,1,.32,2,2,0,0,1,.8.69,1.66,1.66,0,0,0-1.14-.3,3.7,3.7,0,0,1,1.75,1.45,1.78,1.78,0,0,0-1.26-.48,3.33,3.33,0,0,1,1.39,1.6,2.54,2.54,0,0,0-1.14-.83,5.28,5.28,0,0,1,1,1.73,3.15,3.15,0,0,0-.85-.93c.13.64.59,1.21.54,1.86l-.54-.84a2.91,2.91,0,0,1-.15,1.49,4.18,4.18,0,0,0-.09-.71,1.51,1.51,0,0,1-.62,1.25,2.81,2.81,0,0,0,.23-.71,2.84,2.84,0,0,1-1.06,1.14,2.72,2.72,0,0,0,.33-.57,2,2,0,0,1-.4.31,2.06,2.06,0,0,1-.89.34,7.25,7.25,0,0,0,1-1l-.95.26a4.08,4.08,0,0,0,1.45-1.38l-.83.54a3.84,3.84,0,0,0,1-1.9l-.69.84a3.3,3.3,0,0,0,.17-2.17,2.57,2.57,0,0,1-.33,1.08,3,3,0,0,0-.4-2,3.89,3.89,0,0,1,0,1.13,7,7,0,0,0-.93-1.88,3.51,3.51,0,0,1,.14,1.06A5.74,5.74,0,0,0,162.88,97.4Z" fill="#417d3c"/><path id="Path_10166" data-name="Path 10166" d="M162.86,97.32l.09,0a1.16,1.16,0,0,1,.89.12,2.4,2.4,0,0,1,.7.72.21.21,0,0,1,.27,0,.58.58,0,0,1,.18.23,1.29,1.29,0,0,0,.17-.16,3.53,3.53,0,0,1,.51.93c.05-.08.11-.15.17-.23a2.59,2.59,0,0,1,.39,1.24l.27-.13a2.85,2.85,0,0,1,.16,1.47,2.6,2.6,0,0,1,.3-.36,4.29,4.29,0,0,1-1.15,2.08.57.57,0,0,1,.22.07,5.31,5.31,0,0,1-1,1.23,1.55,1.55,0,0,1-.31.06,7.23,7.23,0,0,0,1-1l-.95.26a4.05,4.05,0,0,0,1.44-1.38l-.82.54a3.93,3.93,0,0,0,1-1.9l-.69.84a3.43,3.43,0,0,0,.17-2.17,2.57,2.57,0,0,1-.33,1.08,3,3,0,0,0-.41-2,3.63,3.63,0,0,1,0,1.14,7,7,0,0,0-.92-1.89,3.86,3.86,0,0,1,.14,1.06,6.19,6.19,0,0,0-1.42-1.68Z" fill="#66923e"/><path id="Path_10167" data-name="Path 10167" d="M162.36,97.19a3.94,3.94,0,0,1,3,7.1s2.53-2,1.21-4.65a3.85,3.85,0,0,0-3.94-2.18S162.22,97.54,162.36,97.19Z" fill="#47652f"/><path id="Path_10168" data-name="Path 10168" d="M161.77,97.3c.07-.06.2-.18.16-.26a6.41,6.41,0,0,0-2.27-2.7,4.68,4.68,0,0,1,1.11,1.46,6.55,6.55,0,0,0-1.11-1,2.4,2.4,0,0,0-1.4-.42,2.61,2.61,0,0,1,1.45,1.18,3.3,3.3,0,0,0-2.56-.85,3.18,3.18,0,0,1,1.48.91,6.25,6.25,0,0,0-1.27-.4,2.32,2.32,0,0,0-1.3.13,2,2,0,0,1,1.37.5,4.52,4.52,0,0,0-2.79.21,2.18,2.18,0,0,1,1.6.41,4.12,4.12,0,0,0-2.53.63,3.12,3.12,0,0,1,1.74,0,6.57,6.57,0,0,0-2.2,1.05,4.14,4.14,0,0,1,1.51-.33c-.58.55-1.46.8-1.87,1.49l1.15-.47a3.71,3.71,0,0,0-.92,1.61,4.7,4.7,0,0,1,.6-.66,1.88,1.88,0,0,0-.27,1.7,4.48,4.48,0,0,1,.27-.88,3.5,3.5,0,0,0,.26,1.89,3.71,3.71,0,0,1,.08-.81,2.08,2.08,0,0,0,.18.6,2.58,2.58,0,0,0,.66,1,8.93,8.93,0,0,1-.34-1.77l.77.94a5.13,5.13,0,0,1-.48-2.41c.16.37.3.75.47,1.12a4.65,4.65,0,0,1,.37-2.6l.09,1.33a4.22,4.22,0,0,1,1.36-2.31,3.47,3.47,0,0,0-.43,1.33,3.69,3.69,0,0,1,1.85-1.76,4.58,4.58,0,0,0-.79,1.16A8.49,8.49,0,0,1,160,97a4.54,4.54,0,0,0-.9,1A7.74,7.74,0,0,1,161.77,97.3Z" fill="#417d3c"/><path id="Path_10169" data-name="Path 10169" d="M161.85,97.23l-.07-.09a1.42,1.42,0,0,0-1-.52,3,3,0,0,0-1.22.23.26.26,0,0,0-.27-.2.67.67,0,0,0-.34.1c0-.09,0-.18-.06-.26a4.29,4.29,0,0,0-1.18.57v-.35a3.1,3.1,0,0,0-1.28,1l-.18-.33a3.71,3.71,0,0,0-1.21,1.37,2.75,2.75,0,0,0,0-.57,5.39,5.39,0,0,0-.31,2.92.51.51,0,0,0-.27-.09,7.24,7.24,0,0,0,.18,2,1.44,1.44,0,0,0,.27.28,9.71,9.71,0,0,1-.34-1.77l.78.94a4.9,4.9,0,0,1-.48-2.41c.15.37.3.75.46,1.12a4.66,4.66,0,0,1,.37-2.6l.09,1.33a4.15,4.15,0,0,1,1.37-2.3,3.23,3.23,0,0,0-.44,1.32,3.77,3.77,0,0,1,1.85-1.76,5.06,5.06,0,0,0-.79,1.16A8.65,8.65,0,0,1,160,97a4.61,4.61,0,0,0-.9,1,7.53,7.53,0,0,1,2.63-.69Z" fill="#66923e"/><path id="Path_10170" data-name="Path 10170" d="M162.45,97.44a4.87,4.87,0,0,0-8,5.06s-1.1-3.85,2.08-5.55a4.74,4.74,0,0,1,5.52.61S162.34,97.91,162.45,97.44Z" fill="#47652f"/><path id="Path_10171" data-name="Path 10171" d="M161.92,96.89c.11,0,.3,0,.32-.1a5.9,5.9,0,0,0-.31-3.57,4.33,4.33,0,0,1,.07,1.86,6.91,6.91,0,0,0-.37-1.49,2.61,2.61,0,0,0-1-1.23,2.53,2.53,0,0,1,.55,1.85,3.66,3.66,0,0,0-1.8-2.31,3.32,3.32,0,0,1,.78,1.66,7.61,7.61,0,0,0-.9-1.12,3,3,0,0,0-1.28-.75,2.21,2.21,0,0,1,.91,1.27,5.67,5.67,0,0,0-2.7-1.63,2.5,2.5,0,0,1,1.2,1.34,5.33,5.33,0,0,0-2.74-1.13,3.88,3.88,0,0,1,1.62,1.09,8.25,8.25,0,0,0-2.72-.6,5.65,5.65,0,0,1,1.61.71c-.9.05-1.87-.31-2.71,0l1.36.37a4,4,0,0,0-1.9.67,5.47,5.47,0,0,1,1-.12,1.84,1.84,0,0,0-1.38,1.15,4.48,4.48,0,0,1,.84-.51,3.15,3.15,0,0,0-1,1.64,3.41,3.41,0,0,1,.61-.59,1.8,1.8,0,0,0-.23.58,2.15,2.15,0,0,0,0,1.18,8.23,8.23,0,0,1,.86-1.6c0,.41.06.81.09,1.23a4.44,4.44,0,0,1,1.15-2.18c-.11.39-.21.78-.31,1.17a4.54,4.54,0,0,1,2.07-1.78l-.81,1.1a4.73,4.73,0,0,1,2.79-.92,3.52,3.52,0,0,0-1.28.75,4.7,4.7,0,0,1,2.87-.18,5.48,5.48,0,0,0-1.49.4,10.63,10.63,0,0,1,2.9.5,5.55,5.55,0,0,0-1.46.17A9.89,9.89,0,0,1,161.92,96.89Z" fill="#66923e"/><path id="Path_10172" data-name="Path 10172" d="M162,96.89a.2.2,0,0,0,0-.11,1.48,1.48,0,0,0-.56-1,3.78,3.78,0,0,0-1.26-.61.27.27,0,0,0-.11-.33,1.07,1.07,0,0,0-.39-.14c0-.08.08-.16.13-.24a5.77,5.77,0,0,0-1.47-.32l.24-.27a3.91,3.91,0,0,0-1.83-.07c0-.12,0-.24.05-.36a4.32,4.32,0,0,0-2,.28,2.21,2.21,0,0,0,.33-.47,5.16,5.16,0,0,0-2.22,2.07.57.57,0,0,0-.19-.24,6.43,6.43,0,0,0-1.14,1.64,1.34,1.34,0,0,0,.07.39,8.23,8.23,0,0,1,.86-1.6l.09,1.23a4.48,4.48,0,0,1,1.15-2.18c-.11.39-.21.78-.31,1.18a4.51,4.51,0,0,1,2.07-1.79l-.81,1.1a4.8,4.8,0,0,1,2.79-.92,3.54,3.54,0,0,0-1.28.76,4.62,4.62,0,0,1,2.87-.18,5,5,0,0,0-1.49.39,10.63,10.63,0,0,1,2.9.5,6,6,0,0,0-1.46.17,10.1,10.1,0,0,1,2.88,1.15Z" fill="#779a3f"/><path id="Path_10173" data-name="Path 10173" d="M162.45,97.44s-.42-3.9-5.1-4.42-5.65,3.19-5.65,3.19a5.1,5.1,0,0,1,5.59-3,5.51,5.51,0,0,1,4.68,4S162,97.73,162.45,97.44Z" fill="#47652f"/><path id="Path_10174" data-name="Path 10174" d="M162,97.51c0-.07,0-.18,0-.21a4.52,4.52,0,0,0-2.45-.45,3.68,3.68,0,0,1,1.27.29,4.61,4.61,0,0,0-1,0,1.56,1.56,0,0,0-1,.4,1.82,1.82,0,0,1,1.32,0,2.28,2.28,0,0,0-1.78.69,2.29,2.29,0,0,1,1.21-.18,5,5,0,0,0-.86.35A1.63,1.63,0,0,0,158,99a1.46,1.46,0,0,1,1-.33,3.17,3.17,0,0,0-1.42,1.36,1.55,1.55,0,0,1,1.05-.49,2.87,2.87,0,0,0-1.08,1.48,2.1,2.1,0,0,1,.92-.8,4.55,4.55,0,0,0-.73,1.56,3.12,3.12,0,0,1,.67-.86c-.07.57-.42,1.09-.34,1.65l.41-.76a2.7,2.7,0,0,0,.23,1.28,3.44,3.44,0,0,1,0-.64,1.31,1.31,0,0,0,.62,1.05,2.63,2.63,0,0,1-.25-.6,2.51,2.51,0,0,0,1,.92,2.56,2.56,0,0,1-.33-.48,1.47,1.47,0,0,0,.37.24,1.68,1.68,0,0,0,.79.23,6.91,6.91,0,0,1-1-.81l.84.16a3.46,3.46,0,0,1-1.34-1.09l.76.4a3.34,3.34,0,0,1-1-1.58l.65.68a2.93,2.93,0,0,1-.3-1.86,2.32,2.32,0,0,0,.36.91,2.61,2.61,0,0,1,.21-1.78,4.15,4.15,0,0,0,.09,1,5.93,5.93,0,0,1,.68-1.69,3.54,3.54,0,0,0-.06.92A5.42,5.42,0,0,1,162,97.51Z" fill="#66923e"/><path id="Path_10175" data-name="Path 10175" d="M162,97.43h-.08a1,1,0,0,0-.76.16,2,2,0,0,0-.56.67.19.19,0,0,0-.23,0,.41.41,0,0,0-.14.21l-.16-.12a2.87,2.87,0,0,0-.37.84l-.17-.19a2.23,2.23,0,0,0-.25,1.11L159,100a2.41,2.41,0,0,0,0,1.28,2.57,2.57,0,0,0-.28-.29,3.76,3.76,0,0,0,1.13,1.72.56.56,0,0,0-.18.07,4.89,4.89,0,0,0,1,1,1.27,1.27,0,0,0,.28,0,7,7,0,0,1-1-.81l.85.16a3.39,3.39,0,0,1-1.34-1.09l.75.4a3.32,3.32,0,0,1-1-1.58c.21.23.43.45.65.68a2.87,2.87,0,0,1-.3-1.86,2.18,2.18,0,0,0,.36.91,2.61,2.61,0,0,1,.21-1.78,3.23,3.23,0,0,0,.09,1,5.71,5.71,0,0,1,.68-1.68,3.54,3.54,0,0,0-.06.92A5.5,5.5,0,0,1,162,97.51.24.24,0,0,0,162,97.43Z" fill="#417d3c"/><path id="Path_10176" data-name="Path 10176" d="M162.4,97.29a3.43,3.43,0,0,0-2.1,6.35s-2.32-1.6-1.36-4a3.33,3.33,0,0,1,3.27-2.14S162.55,97.59,162.4,97.29Z" fill="#47652f"/></g><rect id="Rectangle_4396" data-name="Rectangle 4396" x="161.89" y="97.26" width="0.98" height="2.64" fill="#47652f"/></g><g id="Group_5086" data-name="Group 5086"><path id="Path_10177" data-name="Path 10177" d="M15.71,111.93a2.9,2.9,0,0,1-5.8,0c0-1.54,1.3-5.13,2.9-5.13S15.71,110.39,15.71,111.93Z" fill="#37b34a"/><path id="Path_10178" data-name="Path 10178" d="M13.1,106.83c1,.59,1.79,3.31,1.79,4.4a2.48,2.48,0,0,1-2.53,2.44,2.54,2.54,0,0,1-2.46-1.81v.06a2.9,2.9,0,1,0,5.8,0C15.71,110.49,14.57,107.12,13.1,106.83Z" fill="#2e9c48"/><path id="Path_10179" data-name="Path 10179" d="M13.37,118H12.24l.35-5.75H13Z" fill="#70441c"/></g><g id="Group_5087" data-name="Group 5087"><path id="Path_10180" data-name="Path 10180" d="M180.36,111.93a2.9,2.9,0,0,1-5.8,0c0-1.54,1.3-5.13,2.9-5.13S180.36,110.39,180.36,111.93Z" fill="#37b34a"/><path id="Path_10181" data-name="Path 10181" d="M177.76,106.83c1,.59,1.79,3.31,1.79,4.4a2.48,2.48,0,0,1-2.54,2.44,2.53,2.53,0,0,1-2.45-1.81v.06a2.9,2.9,0,1,0,5.8,0C180.36,110.49,179.22,107.12,177.76,106.83Z" fill="#2e9c48"/><path id="Path_10182" data-name="Path 10182" d="M178,118h-1.14l.36-5.75h.42Z" fill="#70441c"/></g><g id="Group_5088" data-name="Group 5088"><path id="Path_10183" data-name="Path 10183" d="M47.7,111.93a2.9,2.9,0,0,1-5.8,0c0-1.54,1.3-5.13,2.9-5.13S47.7,110.39,47.7,111.93Z" fill="#37b34a"/><path id="Path_10184" data-name="Path 10184" d="M45.1,106.83c1,.59,1.79,3.31,1.79,4.4a2.48,2.48,0,0,1-2.54,2.44,2.53,2.53,0,0,1-2.45-1.81v.06a2.9,2.9,0,0,0,5.8,0C47.7,110.49,46.56,107.12,45.1,106.83Z" fill="#2e9c48"/><path id="Path_10185" data-name="Path 10185" d="M45.37,118H44.23l.36-5.75H45Z" fill="#70441c"/></g><g id="Group_5089" data-name="Group 5089"><path id="Path_10186" data-name="Path 10186" d="M220,111.93a2.9,2.9,0,0,1-5.8,0c0-1.54,1.3-5.13,2.9-5.13S220,110.39,220,111.93Z" fill="#37b34a"/><path id="Path_10187" data-name="Path 10187" d="M217.37,106.83c1,.59,1.79,3.31,1.79,4.4a2.49,2.49,0,0,1-2.54,2.44,2.53,2.53,0,0,1-2.45-1.81v.06a2.9,2.9,0,1,0,5.8,0C220,110.49,218.83,107.12,217.37,106.83Z" fill="#2e9c48"/><path id="Path_10188" data-name="Path 10188" d="M217.64,118H216.5l.36-5.75h.42Z" fill="#70441c"/></g></g></g></g></g></g><g id="Group_6238" data-name="Group 6238"><g id="Group_6209" data-name="Group 6209"><path id="Path_11069" data-name="Path 11069" d="M114.68,161.49c6.7-.78,18.3.6,26.8-3.09s13.22-8.05,7.2-11.67-19-.13-31.3-2.8-19-1.84-18-7.87c.78-4.65,22.37-14.81,31.57-17.89,2.39-.8,8.23-1.11,8.23-1.11s-34,5.16-52.83,6S82,134.27,71.86,137.59s-26.58.37-44.23,6.34S-.83,157.09,1.26,161.48s26,0,34.72,0" fill="none" stroke="#434343" stroke-width="2"/><g id="Group_6207" data-name="Group 6207"><path id="Path_11041" data-name="Path 11041" d="M124.79,168a4.48,4.48,0,0,1-3.19,1.27l-6.23-.11a18.2,18.2,0,0,0,1.38-6.66,18.45,18.45,0,0,0-1.29-7.09l6.37.11a4.51,4.51,0,0,1,4.41,4.56l-.08,4.78A4.48,4.48,0,0,1,124.79,168Z" fill="#606161" fill-rule="evenodd"/><path id="Path_11042" data-name="Path 11042" d="M112,174.66a17.27,17.27,0,0,1-12.29,4.87l-14.45-.25.59-34.57,14.44.25A17.26,17.26,0,0,1,112,174.66Z" fill="#434343" fill-rule="evenodd"/><path id="Path_11043" data-name="Path 11043" d="M105.29,162.33a3.82,3.82,0,1,0-1.17,2.69A3.77,3.77,0,0,0,105.29,162.33Z" fill="#feffff" fill-rule="evenodd"/></g><g id="Group_6208" data-name="Group 6208"><path id="Path_11035" data-name="Path 11035" d="M25.12,166.52a4.48,4.48,0,0,0,3.14,1.37l6.22.1a18.41,18.41,0,0,1,.39-13.74l-6.37-.11a4.51,4.51,0,0,0-4.57,4.41l-.08,4.78A4.5,4.5,0,0,0,25.12,166.52Z" fill="#606161" fill-rule="evenodd"/><path id="Path_11036" data-name="Path 11036" d="M83.26,152.71h0a1.59,1.59,0,0,1-1.62,1.57l-13.83-.23a1.61,1.61,0,0,1-1.57-1.63h0a1.61,1.61,0,0,1,1.63-1.57l13.82.24A1.59,1.59,0,0,1,83.26,152.71Z" fill="#fff" fill-rule="evenodd"/><path id="Path_11037" data-name="Path 11037" d="M83,171.17h0a1.59,1.59,0,0,1-1.63,1.57l-13.82-.23a1.6,1.6,0,0,1-1.57-1.62h0a1.6,1.6,0,0,1,1.63-1.57l13.82.23A1.6,1.6,0,0,1,83,171.17Z" fill="#fff" fill-rule="evenodd"/><path id="Path_11038" data-name="Path 11038" d="M37.72,173.38a17.18,17.18,0,0,0,12.12,5.29l14.44.24.58-34.56-14.44-.25a17.26,17.26,0,0,0-12.7,29.28Z" fill="#434343" fill-rule="evenodd"/><path id="Path_11039" data-name="Path 11039" d="M54.74,161.46a3.81,3.81,0,1,0-1.16,2.69A3.82,3.82,0,0,0,54.74,161.46Z" fill="#feffff" fill-rule="evenodd"/><path id="Path_11040" data-name="Path 11040" d="M67.27,139.09h0a2.71,2.71,0,0,1,2.65,2.74l-.68,39.76a2.69,2.69,0,0,1-2.74,2.65h0a2.71,2.71,0,0,1-2.65-2.74l.67-39.76A2.72,2.72,0,0,1,67.27,139.09Z" fill="#eda75f" fill-rule="evenodd"/></g></g><g id="Group_6211" data-name="Group 6211"><g id="Group_6210" data-name="Group 6210"><g id="Group_6202" data-name="Group 6202"><path id="Path_11044" data-name="Path 11044" d="M160.66,107.91h2.74V77.71A1.33,1.33,0,0,0,162,76.43h0a1.33,1.33,0,0,0-1.37,1.28Z" fill="#262626"/><path id="Path_11045" data-name="Path 11045" d="M134.49,117.42a1.42,1.42,0,0,0,1.43-1.15,9.74,9.74,0,0,1,19.05,0,1.44,1.44,0,0,0,1.44,1.15h.78a2,2,0,0,0,2.05-1.92V102.59h1.47v2.92a2.5,2.5,0,0,0,2.57,2.4l56.11.19H226v10.5a1.32,1.32,0,0,1-2.64.06v-7a.34.34,0,0,0-.35-.33h0a.35.35,0,0,0-.34.27l-1.39,6.92a1.8,1.8,0,0,1-1.8,1.39h-23.7a1.94,1.94,0,0,1-1.3-.5l-1-.89a1.88,1.88,0,0,0-1.29-.5l-27.83-.19a1.86,1.86,0,0,0-1.3.5l-1.44,1.33a1.82,1.82,0,0,1-1.29.5H130.44a1.75,1.75,0,0,1-1.83-1.7v-1Z" fill="#262626"/><ellipse id="Ellipse_1579" data-name="Ellipse 1579" cx="145.45" cy="117.53" rx="8.52" ry="7.92" fill="#1b1b1b"/><path id="Path_11055" data-name="Path 11055" d="M124.36,104.92,134,75.41a2,2,0,0,1,2-1.35h20.4a2.82,2.82,0,0,1,2.92,2.71v38.74a2,2,0,0,1-2.06,1.91h-.77a1.42,1.42,0,0,1-1.44-1.15,9.74,9.74,0,0,0-19.05,0,1.42,1.42,0,0,1-1.44,1.15h-7.41a2.18,2.18,0,0,1-1.45-.56l-.75-.69a1.89,1.89,0,0,1-.6-1.36v-9.34A2.53,2.53,0,0,1,124.36,104.92Z" fill="#f4b41b"/><g id="Group_6199" data-name="Group 6199"><path id="Path_11056" data-name="Path 11056" d="M145.45,123.32a5.81,5.81,0,1,0-6.24-5.79A6,6,0,0,0,145.45,123.32Zm0-11.17a5.4,5.4,0,1,1-5.79,5.38,5.6,5.6,0,0,1,5.79-5.38Z" fill="#262626"/></g><ellipse id="Ellipse_1580" data-name="Ellipse 1580" cx="145.45" cy="117.53" rx="3.95" ry="3.67" fill="#5b5e5e"/><path id="Path_11057" data-name="Path 11057" d="M143.12,117.53a20.17,20.17,0,0,0,4.66,0c.74-.13.16-2.4-2.33-2.45S142.38,117.41,143.12,117.53Z" fill="#848383"/><g id="Group_6203" data-name="Group 6203"><ellipse id="Ellipse_1583" data-name="Ellipse 1583" cx="207.99" cy="117.53" rx="8.52" ry="7.92" fill="#1b1b1b"/><g id="Group_6201" data-name="Group 6201"><path id="Path_11060" data-name="Path 11060" d="M208,123.32a5.81,5.81,0,1,0-6.23-5.79A6,6,0,0,0,208,123.32Zm0-11.17a5.4,5.4,0,1,1-5.79,5.38,5.59,5.59,0,0,1,5.79-5.38Z" fill="#262626"/></g><ellipse id="Ellipse_1584" data-name="Ellipse 1584" cx="207.99" cy="117.53" rx="3.95" ry="3.67" fill="#5b5e5e"/><path id="Path_11061" data-name="Path 11061" d="M205.66,117.53a20.17,20.17,0,0,0,4.66,0c.75-.13.16-2.4-2.33-2.45S204.92,117.41,205.66,117.53Z" fill="#848383"/></g><rect id="Rectangle_4700" data-name="Rectangle 4700" x="123.36" y="110.79" width="8.22" height="4.56" rx="2.28" fill="#1b1b1b"/><rect id="Rectangle_4701" data-name="Rectangle 4701" x="123.36" y="105.53" width="4.3" height="4.44" rx="2.15" fill="#f9e036"/><path id="Path_11062" data-name="Path 11062" d="M143.34,91.54l-1.85,4.2a1,1,0,0,1-.83.61l-9.57,1a1,1,0,0,1-1.11-.8.94.94,0,0,1,0-.41L136.12,77a.77.77,0,0,1,.74-.51h18.69a1.09,1.09,0,0,1,1.13,1V90a1,1,0,0,1-1,1H144.29A1,1,0,0,0,143.34,91.54Z" fill="#f0efef"/><path id="Rectangle_4702" data-name="Rectangle 4702" d="M123.53,89.61h0a1.32,1.32,0,0,1,1.32,1.32v5.59a1.32,1.32,0,0,1-1.32,1.32h0a1.33,1.33,0,0,1-1.33-1.32V90.93A1.33,1.33,0,0,1,123.53,89.61Z" fill="#1b1b1b"/><path id="Path_11063" data-name="Path 11063" d="M136.12,76.94a.78.78,0,0,1,.74-.51h18.69a1.1,1.1,0,0,1,1.13,1.06v1.92H135.34Z" fill="#e0dfde"/><path id="Path_11064" data-name="Path 11064" d="M123.89,97.85V99a.39.39,0,0,0,.2.32l1.83.84-.21.66-1.95-.9a1.05,1.05,0,0,1-.6-.92v-1.1Z" fill="#262626"/><path id="Rectangle_4703" data-name="Rectangle 4703" d="M151.86,93.81H156a.65.65,0,0,1,.64.65h0a.64.64,0,0,1-.64.64h-4.18a.64.64,0,0,1-.64-.64h0A.65.65,0,0,1,151.86,93.81Z" fill="#d79e29"/><path id="Path_11065" data-name="Path 11065" d="M160.7,102.59v2.92a2.18,2.18,0,0,0,.12.72,3.09,3.09,0,0,0,.14.32,1.62,1.62,0,0,1,.1.18,3,3,0,0,0,.4.48h0a2.24,2.24,0,0,0,.34.27l.08,0,.38.19.07,0a2.74,2.74,0,0,0,.94.17l59.22.07H226v1.23H222.5l-63.26-.07v-6.55Z" fill="#222121"/><path id="Path_11066" data-name="Path 11066" d="M155.66,90.93h-4.54l2.49-7.71a1.56,1.56,0,0,1,1.5-1,1.51,1.51,0,0,1,1.57,1.46V90A1,1,0,0,1,155.66,90.93Z" fill="#e0dfde"/><path id="Path_11067" data-name="Path 11067" d="M130,96.15l.57-1.78h1.35a.75.75,0,0,1,.7.47l.67,1.8.63-.19L132,91.24a1.21,1.21,0,0,1,.76-1.54l.07,0a1.35,1.35,0,0,1,1.68.77l2.31,6.31-2.69.29h0l-3,.32a1,1,0,0,1-1.11-.81A.9.9,0,0,1,130,96.15Z" fill="#e0dfde"/></g><g id="Path_11068" data-name="Path 11068"><path d="M225.67,106.87H164.23V72h61.44Z" fill="#cfd1cf"/><path d="M165.23,73v32.87h59.44V73H165.23m-.95-2h61.35a1,1,0,0,1,1,1v35.9H163.23V72A1,1,0,0,1,164.28,71Z" fill="#bfbfbf"/></g></g><g id="Group_6213" data-name="Group 6213"><path id="Union_4-2" data-name="Union 4-2" d="M200,70.15A11.55,11.55,0,1,1,189.35,90l-3.47.76,1.43-3.14A11.55,11.55,0,0,1,200,70.15Z" fill="#fff"/><g id="Group_6190" data-name="Group 6190"><g id="Group_6108" data-name="Group 6108"><g id="Group_6107" data-name="Group 6107"><rect id="Rectangle_4662" data-name="Rectangle 4662" x="194.68" y="77.77" width="5" height="7" fill="#fff"/><g id="engine"><g id="Group_6099" data-name="Group 6099"><g id="Group_6098" data-name="Group 6098"><path id="Path_10997" data-name="Path 10997" d="M201.61,79v-.5a.5.5,0,0,0-.5-.5h-.8l-.86-.86a.47.47,0,0,0-.35-.15h-.5V76h.5a.51.51,0,0,0,0-1h-5a.51.51,0,0,0,0,1h.5v1h-.5a.5.5,0,0,0-.36.14l-1,1a.47.47,0,0,0-.15.35v5a.49.49,0,0,0,.15.36l2,2a.51.51,0,0,0,.35.15h5a.5.5,0,0,0,.45-.28l1-2a.46.46,0,0,0,.05-.23h1.08V79Zm-3.07,2.74-1,2a.51.51,0,0,1-.68.22.49.49,0,0,1-.22-.67h0l.64-1.29h-1.2a.51.51,0,0,1-.51-.49.53.53,0,0,1,.06-.24l1-2a.5.5,0,0,1,.68-.22.49.49,0,0,1,.22.67L196.89,81h1.2a.5.5,0,0,1,.51.49A.53.53,0,0,1,198.54,81.71Z" fill="#444545"/></g></g><g id="Group_6101" data-name="Group 6101"><g id="Group_6100" data-name="Group 6100"><path id="Path_10998" data-name="Path 10998" d="M191.05,78a.5.5,0,0,0-.5.5v2h-1v-2a.5.5,0,0,0-1,0v5a.5.5,0,0,0,1,0v-2h1v2a.5.5,0,0,0,.5.5h.5V78Z" fill="#444545"/></g></g><g id="Group_6103" data-name="Group 6103"><g id="Group_6102" data-name="Group 6102"><path id="Path_10999" data-name="Path 10999" d="M204.7,78h-.5a.5.5,0,0,0-.5.5v6a.5.5,0,0,0,.5.5h.5a1,1,0,0,0,1-1h0V79A1,1,0,0,0,204.7,78Z" fill="#444545"/></g></g></g></g></g><path id="Path_11070" data-name="Path 11070" d="M191.78,87.33l9.43-11.68" fill="none" stroke="#f05050" stroke-linecap="round"/></g></g></g></g></g></g></g></svg>