<svg xmlns="http://www.w3.org/2000/svg" viewBox="0 0 29.2 21.76"><title>off</title><g id="Layer_2" data-name="Layer 2"><g id="Layer_1-2" data-name="Layer 1"><g id="Group_6108" data-name="Group 6108"><g id="Group_6107" data-name="Group 6107"><rect id="Rectangle_4662" data-name="Rectangle 4662" x="10.6" y="5.41" width="9" height="12" fill="#bab9ba"/><g id="engine"><g id="Group_6099" data-name="Group 6099"><g id="Group_6098" data-name="Group 6098"><path id="Path_10997-2" data-name="Path 10997-2" d="M22.24,6.84V6a.86.86,0,0,0-.85-.86H20L18.57,3.67a.84.84,0,0,0-.6-.25h-.85V1.71H18A.86.86,0,1,0,18,0H9.42a.86.86,0,1,0,0,1.71h.85V3.42H9.42a.84.84,0,0,0-.6.25L7.11,5.38a.91.91,0,0,0-.26.6v8.56a.91.91,0,0,0,.26.6l3.42,3.42a.84.84,0,0,0,.6.25h8.55a.86.86,0,0,0,.77-.47l1.71-3.42a.86.86,0,0,0,.09-.39h1.82V6.83ZM17,11.5l-1.71,3.42a.85.85,0,1,1-1.53-.76L14.87,12h-2a.85.85,0,0,1-.76-1.23l1.71-3.42a.85.85,0,1,1,1.53.76l-1.09,2.18h2a.87.87,0,0,1,.86.86,1,1,0,0,1-.09.38Z" fill="#fff"/></g></g><g id="Group_6101" data-name="Group 6101"><g id="Group_6100" data-name="Group 6100"><path id="Path_10998-2" data-name="Path 10998-2" d="M4.28,5.13A.85.85,0,0,0,3.42,6V9.41H1.71V6A.86.86,0,1,0,0,6v8.55a.86.86,0,1,0,1.71,0h0V11.12H3.42v3.42a.86.86,0,0,0,.86.86h.85V5.13Z" fill="#fff"/></g></g><g id="Group_6103" data-name="Group 6103"><g id="Group_6102" data-name="Group 6102"><path id="Path_10999-2" data-name="Path 10999-2" d="M27.49,5.13h-.86a.85.85,0,0,0-.85.86h0V16.25a.86.86,0,0,0,.85.86h.86A1.72,1.72,0,0,0,29.2,15.4V6.84A1.72,1.72,0,0,0,27.49,5.13Z" fill="#fff"/></g></g></g></g><path id="Path_11000" data-name="Path 11000" d="M23.51,2.81,5.66,21" fill="none" stroke="#f05050" stroke-linecap="round" stroke-width="1.5"/></g></g></g></svg>