
<svg xmlns="http://www.w3.org/2000/svg" viewBox="0 0 24 24"><title>not update</title><g id="Layer_2" data-name="Layer 2"><g id="Layer_1-2" data-name="Layer 1"><g id="Group_6239" data-name="Group 6239"><g id="Group_5796" data-name="Group 5796"><g id="Group_5783-2" data-name="Group 5783-2"><g id="Group_5776-2" data-name="Group 5776-2"><g id="Group_5581-2" data-name="Group 5581-2"><g id="Group_5562-2" data-name="Group 5562-2"><rect id="Rectangle_4566-10" data-name="Rectangle 4566-10" width="24" height="24" rx="3" fill="#ababab"/></g></g></g></g><g id="clock"><path id="Path_10758" data-name="Path 10758" d="M12.38,19.9a8.28,8.28,0,1,1,8.28-8.28A8.28,8.28,0,0,1,12.38,19.9Zm0-15.52a7.25,7.25,0,1,0,7.24,7.24h0A7.24,7.24,0,0,0,12.38,4.38Z" fill="#fff"/><path id="Path_10759" data-name="Path 10759" d="M16,16.1a.48.48,0,0,1-.37-.15L12,12.33a.56.56,0,0,1-.15-.37V7.13a.51.51,0,0,1,.52-.51.52.52,0,0,1,.52.51h0v4.62l3.47,3.47a.52.52,0,0,1,0,.73.51.51,0,0,1-.37.15Z" fill="#fff"/></g></g></g></g></g></svg>