<svg xmlns="http://www.w3.org/2000/svg" viewBox="0 0 416.35 167.85"><title>vehicle</title><g id="Layer_2" data-name="Layer 2"><g id="Layer_1-2" data-name="Layer 1"><g id="Group_6100" data-name="Group 6100"><path id="Subtraction_54" data-name="Subtraction 54" d="M416.34,167.85.39,164.11V29.88A187.74,187.74,0,0,1,6,.14H272.56C284.85,6,294.33,11.55,300.74,16.65a38.83,38.83,0,0,1,7.8,7.93,12.85,12.85,0,0,1,2.62,7.55c-.08,2.67-1.36,5.22-3.81,7.57s-6.45,4.76-11.58,6.86c-6,2.46-10.49,5-13.24,7.46-2.59,2.34-3.73,4.71-3.41,7.06.37,2.67,2.66,5.38,6.79,8a78.7,78.7,0,0,0,16,7.27c11.51,4,27.33,8,47,11.85,33.54,6.52,67.11,10.34,67.45,10.38Z" fill="#dddcef"/><g id="Group_6098" data-name="Group 6098"><g id="Group_5454" data-name="Group 5454"><g id="Group_5433" data-name="Group 5433"><g id="Group_5425" data-name="Group 5425"><rect id="Rectangle_4470" data-name="Rectangle 4470" x="0.29" y="32.56" width="9.47" height="32.78" fill="#939393"/><rect id="Rectangle_4471" data-name="Rectangle 4471" x="8.58" y="39.75" width="9.47" height="25.59" fill="#939393"/><rect id="Rectangle_4472" data-name="Rectangle 4472" x="14.64" y="18.66" width="9.47" height="46.68" fill="#939393"/><path id="Path_10999" data-name="Path 10999" d="M20.92.88h9.47l0,64.46H20.93Z" fill="#939393"/><path id="Path_10998" data-name="Path 10998" d="M28.44.78H53.85l0,64.56H28.42Z" fill="#939393"/></g><g id="Group_5426" data-name="Group 5426"><rect id="Rectangle_4475" data-name="Rectangle 4475" x="152.64" y="42.91" width="10.82" height="22.43" fill="#b2b1b2"/><rect id="Rectangle_4476" data-name="Rectangle 4476" x="143.17" y="47.83" width="10.82" height="17.51" fill="#b2b1b2"/><rect id="Rectangle_4477" data-name="Rectangle 4477" x="136.25" y="33.39" width="10.82" height="31.95" fill="#b2b1b2"/><rect id="Rectangle_4478" data-name="Rectangle 4478" x="129.05" y="7.49" width="10.82" height="57.85" fill="#b2b1b2"/></g><g id="Group_5432" data-name="Group 5432"><g id="Group_5428" data-name="Group 5428"><path id="Path_11001" data-name="Path 11001" d="M101.88.6h33.21l-.22,64.74h-33.2Z" fill="#cccccb"/><g id="Group_5427" data-name="Group 5427"><path id="Path_11006" data-name="Path 11006" d="M130.13.66h1.58V6.23h-1.58Z" fill="#f5f5f5"/><rect id="Rectangle_4481" data-name="Rectangle 4481" x="130.13" y="11.08" width="1.58" height="8.6" fill="#f5f5f5"/><rect id="Rectangle_4482" data-name="Rectangle 4482" x="130.13" y="24.53" width="1.58" height="8.6" fill="#f5f5f5"/><rect id="Rectangle_4483" data-name="Rectangle 4483" x="130.13" y="37.98" width="1.58" height="8.6" fill="#f5f5f5"/><rect id="Rectangle_4484" data-name="Rectangle 4484" x="130.13" y="51.43" width="1.58" height="8.6" fill="#f5f5f5"/><path id="Path_11005" data-name="Path 11005" d="M124.53.66h1.58V6.23h-1.58Z" fill="#f5f5f5"/><rect id="Rectangle_4486" data-name="Rectangle 4486" x="124.53" y="11.08" width="1.58" height="8.6" fill="#f5f5f5"/><rect id="Rectangle_4487" data-name="Rectangle 4487" x="124.53" y="24.53" width="1.58" height="8.6" fill="#f5f5f5"/><rect id="Rectangle_4488" data-name="Rectangle 4488" x="124.53" y="37.98" width="1.58" height="8.6" fill="#f5f5f5"/><rect id="Rectangle_4489" data-name="Rectangle 4489" x="124.53" y="51.43" width="1.58" height="8.6" fill="#f5f5f5"/><path id="Path_11004" data-name="Path 11004" d="M118.92.66h1.59V6.23h-1.59Z" fill="#f5f5f5"/><rect id="Rectangle_4491" data-name="Rectangle 4491" x="118.92" y="11.08" width="1.58" height="8.6" fill="#f5f5f5"/><rect id="Rectangle_4492" data-name="Rectangle 4492" x="118.92" y="24.53" width="1.58" height="8.6" fill="#f5f5f5"/><rect id="Rectangle_4493" data-name="Rectangle 4493" x="118.92" y="37.98" width="1.58" height="8.6" fill="#f5f5f5"/><rect id="Rectangle_4494" data-name="Rectangle 4494" x="118.92" y="51.43" width="1.58" height="8.6" fill="#f5f5f5"/><path id="Path_11003" data-name="Path 11003" d="M113.32.61h1.58V6.23h-1.58Z" fill="#f5f5f5"/><rect id="Rectangle_4496" data-name="Rectangle 4496" x="113.32" y="11.08" width="1.58" height="8.6" fill="#f5f5f5"/><rect id="Rectangle_4497" data-name="Rectangle 4497" x="113.32" y="24.53" width="1.58" height="8.6" fill="#f5f5f5"/><rect id="Rectangle_4498" data-name="Rectangle 4498" x="113.32" y="37.98" width="1.58" height="8.6" fill="#f5f5f5"/><rect id="Rectangle_4499" data-name="Rectangle 4499" x="113.32" y="51.43" width="1.58" height="8.6" fill="#f5f5f5"/><path id="Path_11002" data-name="Path 11002" d="M107.72.71h1.58V6.23h-1.58Z" fill="#f5f5f5"/><rect id="Rectangle_4501" data-name="Rectangle 4501" x="107.72" y="11.08" width="1.58" height="8.6" fill="#f5f5f5"/><rect id="Rectangle_4502" data-name="Rectangle 4502" x="107.72" y="24.53" width="1.58" height="8.6" fill="#f5f5f5"/><rect id="Rectangle_4503" data-name="Rectangle 4503" x="107.72" y="37.98" width="1.58" height="8.6" fill="#f5f5f5"/><rect id="Rectangle_4504" data-name="Rectangle 4504" x="107.72" y="51.43" width="1.58" height="8.6" fill="#f5f5f5"/></g><path id="Path_10588" data-name="Path 10588" d="M101.78.74h6.84l2.86,64.6h-9.81Z" fill="#bab9ba" opacity="0.5" style="isolation:isolate"/></g><g id="Group_5429" data-name="Group 5429"><path id="Path_10589" data-name="Path 10589" d="M85.14.62h19.68L105,65.34H85.34Z" fill="#bab9ba"/><path id="Path_11000" data-name="Path 11000" d="M69.71.89H85.47l-.13,64.45H69.59Z" fill="#cccccb"/><rect id="Rectangle_4511" data-name="Rectangle 4511" x="69.59" y="2.16" width="35.45" height="0.5" fill="#e0e0e0"/><rect id="Rectangle_4512" data-name="Rectangle 4512" x="69.59" y="7.49" width="35.45" height="0.5" fill="#e0e0e0"/><rect id="Rectangle_4513" data-name="Rectangle 4513" x="69.59" y="12.83" width="35.45" height="0.5" fill="#e0e0e0"/><rect id="Rectangle_4514" data-name="Rectangle 4514" x="69.59" y="18.16" width="35.45" height="0.5" fill="#e0e0e0"/><rect id="Rectangle_4515" data-name="Rectangle 4515" x="69.59" y="23.5" width="35.45" height="0.5" fill="#e0e0e0"/><rect id="Rectangle_4516" data-name="Rectangle 4516" x="69.59" y="28.83" width="35.45" height="0.5" fill="#e0e0e0"/><rect id="Rectangle_4517" data-name="Rectangle 4517" x="69.59" y="34.17" width="35.45" height="0.5" fill="#e0e0e0"/><rect id="Rectangle_4518" data-name="Rectangle 4518" x="69.59" y="39.5" width="35.45" height="0.5" fill="#e0e0e0"/><rect id="Rectangle_4519" data-name="Rectangle 4519" x="69.59" y="44.84" width="35.45" height="0.5" fill="#e0e0e0"/><rect id="Rectangle_4520" data-name="Rectangle 4520" x="69.59" y="50.17" width="35.45" height="0.5" fill="#e0e0e0"/><rect id="Rectangle_4521" data-name="Rectangle 4521" x="69.59" y="55.5" width="35.45" height="0.5" fill="#e0e0e0"/><rect id="Rectangle_4522" data-name="Rectangle 4522" x="69.59" y="60.84" width="35.45" height="0.5" fill="#e0e0e0"/></g><g id="Group_5430" data-name="Group 5430"><path id="Path_10997" data-name="Path 10997" d="M44.5.75H61V65.34H44.5Z" fill="#cccccb"/><path id="Path_10591" data-name="Path 10591" d="M61.06.7H74.24l-.09,64.64H61Z" fill="#bab9ba"/><rect id="Rectangle_4532" data-name="Rectangle 4532" x="44.5" y="5.87" width="29.65" height="0.63" fill="#e0e0e0"/><rect id="Rectangle_4533" data-name="Rectangle 4533" x="44.5" y="12.6" width="29.65" height="0.63" fill="#e0e0e0"/><rect id="Rectangle_4534" data-name="Rectangle 4534" x="44.5" y="19.32" width="29.65" height="0.63" fill="#e0e0e0"/><rect id="Rectangle_4535" data-name="Rectangle 4535" x="44.5" y="26.05" width="29.65" height="0.63" fill="#e0e0e0"/><rect id="Rectangle_4536" data-name="Rectangle 4536" x="44.5" y="32.77" width="29.65" height="0.63" fill="#e0e0e0"/><rect id="Rectangle_4537" data-name="Rectangle 4537" x="44.5" y="39.49" width="29.65" height="0.63" fill="#e0e0e0"/><rect id="Rectangle_4538" data-name="Rectangle 4538" x="44.5" y="46.22" width="29.65" height="0.63" fill="#e0e0e0"/><rect id="Rectangle_4539" data-name="Rectangle 4539" x="44.5" y="52.94" width="29.65" height="0.63" fill="#e0e0e0"/><rect id="Rectangle_4540" data-name="Rectangle 4540" x="44.5" y="59.67" width="29.65" height="0.63" fill="#e0e0e0"/></g><g id="Group_5431" data-name="Group 5431"><rect id="Rectangle_4541" data-name="Rectangle 4541" x="23.66" y="4.03" width="17.98" height="61.31" fill="#b2b1b2"/><rect id="Rectangle_4542" data-name="Rectangle 4542" x="27.2" y="7.2" width="2.89" height="9.84" fill="#e6e6e6"/><rect id="Rectangle_4543" data-name="Rectangle 4543" x="34.27" y="7.2" width="2.89" height="9.84" fill="#e6e6e6"/><rect id="Rectangle_4544" data-name="Rectangle 4544" x="27.2" y="19.94" width="2.89" height="9.84" fill="#e6e6e6"/><rect id="Rectangle_4545" data-name="Rectangle 4545" x="34.27" y="19.94" width="2.89" height="9.84" fill="#e6e6e6"/><rect id="Rectangle_4546" data-name="Rectangle 4546" x="27.2" y="32.68" width="2.89" height="9.84" fill="#e6e6e6"/><rect id="Rectangle_4547" data-name="Rectangle 4547" x="34.27" y="32.68" width="2.89" height="9.84" fill="#e6e6e6"/><rect id="Rectangle_4548" data-name="Rectangle 4548" x="27.2" y="45.43" width="2.89" height="9.84" fill="#e6e6e6"/><rect id="Rectangle_4549" data-name="Rectangle 4549" x="34.27" y="45.43" width="2.89" height="9.84" fill="#e6e6e6"/><path id="Path_10592" data-name="Path 10592" d="M41.64,4h-18L27.91.76h18Z" fill="#fff"/><path id="Path_10593" data-name="Path 10593" d="M41.64,4,45.87.68,50.07,4V65.34H41.63Z" fill="#bab9ba"/></g></g></g></g><g id="Group_5464" data-name="Group 5464"><path id="Path_10124" data-name="Path 10124" d="M.81,64.13H175.45c.45,0,.81.17.81.38h0c0,.22-.36.39-.81.39H.81c-.45,0-.81-.17-.81-.39H0C0,64.3.36,64.13.81,64.13Z" fill="#444545" fill-rule="evenodd"/><g id="Group_5083" data-name="Group 5083"><path id="Path_10125" data-name="Path 10125" d="M113.69,64.13H109.8L111,37.48h1.45Z" fill="#988f7f"/><g id="Group_5082" data-name="Group 5082"><path id="Path_10127" data-name="Path 10127" d="M111.27,32.71c.12.08.35.19.45.09a9.65,9.65,0,0,0,2.6-4.51,6.85,6.85,0,0,1-1.46,2.28,10.61,10.61,0,0,0,.82-2,3.41,3.41,0,0,0-.13-2.16,3.85,3.85,0,0,1-.91,2.6,4.89,4.89,0,0,0-.11-4,4.69,4.69,0,0,1-.51,2.52,9.74,9.74,0,0,0-.08-2,3.4,3.4,0,0,0-.83-1.75,3,3,0,0,1,0,2.14,6.7,6.7,0,0,0-1.7-3.76,3.14,3.14,0,0,1,.23,2.42,6,6,0,0,0-2.14-3.19,4.61,4.61,0,0,1,.93,2.39,9.7,9.7,0,0,0-2.57-2.54,5.94,5.94,0,0,1,1.23,1.93c-1.06-.54-1.85-1.6-3-1.83l1.22,1.35a5.19,5.19,0,0,0-2.69-.45,6.14,6.14,0,0,1,1.22.5,2.77,2.77,0,0,0-2.5.49,5.08,5.08,0,0,1,1.35-.06,5.11,5.11,0,0,0-2.5,1.3,4.79,4.79,0,0,1,1.17-.3,3.29,3.29,0,0,0-.75.55,3.59,3.59,0,0,0-1,1.39,14.6,14.6,0,0,1,2.28-1.36l-.9,1.55a7.43,7.43,0,0,1,3.1-1.87l-1.33,1.2a7,7,0,0,1,3.81-.8l-1.8.79a6.16,6.16,0,0,1,3.88.74,5.11,5.11,0,0,0-2.06.06,5.52,5.52,0,0,1,3.37,1.69,7,7,0,0,0-2-.51,12.25,12.25,0,0,1,2.85,2.52,6.83,6.83,0,0,0-1.78-.76A11.52,11.52,0,0,1,111.27,32.71Z" fill="#b6be34"/><path id="Path_10128" data-name="Path 10128" d="M111.41,32.79l.1-.14a2.11,2.11,0,0,0,.21-1.61,4.35,4.35,0,0,0-.93-1.58A.39.39,0,0,0,111,29a1.23,1.23,0,0,0-.33-.42l.34-.22A6.45,6.45,0,0,0,109.58,27l.5-.18a4.77,4.77,0,0,0-2-1.29l.36-.41a5.34,5.34,0,0,0-2.5-1,3.11,3.11,0,0,0,.76-.36,8,8,0,0,0-4.2,1,.86.86,0,0,0,0-.42,10.14,10.14,0,0,0-2.65,1.23,3.11,3.11,0,0,0-.25.52,14,14,0,0,1,2.29-1.36L101,26.34a7.62,7.62,0,0,1,3.1-1.88l-1.32,1.2a7.09,7.09,0,0,1,3.81-.79l-1.81.79a6.14,6.14,0,0,1,3.89.74,4.77,4.77,0,0,0-2.06.06,5.5,5.5,0,0,1,3.37,1.68,7.32,7.32,0,0,0-2-.5,12.2,12.2,0,0,1,2.85,2.52A6.57,6.57,0,0,0,109,29.4a11.39,11.39,0,0,1,2.28,3.3Z" fill="#779a3f"/><path id="Path_10129" data-name="Path 10129" d="M111.41,33.73a7.18,7.18,0,0,0-11-8.61s4.78-3.47,8.73.1a7,7,0,0,1,1.94,8S110.71,33.8,111.41,33.73Z" fill="#47652f"/><path id="Path_10130" data-name="Path 10130" d="M112.61,33.57c-.12-.08-.31-.23-.26-.36a9.58,9.58,0,0,1,3-4.23,7.17,7.17,0,0,0-1.48,2.28,9.94,9.94,0,0,1,1.53-1.58,3.35,3.35,0,0,1,2-.78,3.83,3.83,0,0,0-2,1.9,4.82,4.82,0,0,1,3.67-1.54,4.68,4.68,0,0,0-2.07,1.5,8.91,8.91,0,0,1,1.81-.73,3.34,3.34,0,0,1,1.93,0,3,3,0,0,0-1.94.9A6.85,6.85,0,0,1,123,31a3.18,3.18,0,0,0-2.3.79,6.12,6.12,0,0,1,3.78.63,4.65,4.65,0,0,0-2.56.15,9.87,9.87,0,0,1,3.37,1.29,5.91,5.91,0,0,0-2.25-.32c.92.74,2.22,1,2.91,2l-1.73-.57a5.36,5.36,0,0,1,1.52,2.26,6.82,6.82,0,0,0-1-.9,2.77,2.77,0,0,1,.59,2.48,6.24,6.24,0,0,0-.5-1.26,5.07,5.07,0,0,1-.16,2.81,4.88,4.88,0,0,0-.21-1.19,2.8,2.8,0,0,1-.2.9,3.58,3.58,0,0,1-.85,1.49,14.63,14.63,0,0,0,.3-2.64c-.35.48-.7,1-1,1.46a7.55,7.55,0,0,0,.43-3.59c-.19.57-.36,1.14-.55,1.71a7.08,7.08,0,0,0-.85-3.8c0,.66,0,1.33,0,2a6.15,6.15,0,0,0-2.27-3.23,4.69,4.69,0,0,1,.79,1.9,5.45,5.45,0,0,0-2.92-2.38,6.72,6.72,0,0,1,1.29,1.62A11.9,11.9,0,0,0,115.15,33a7.12,7.12,0,0,1,1.43,1.31A11.71,11.71,0,0,0,112.61,33.57Z" fill="#66923e"/><path id="Path_10131" data-name="Path 10131" d="M112.48,33.48a.6.6,0,0,1,.09-.15,2.13,2.13,0,0,1,1.39-.86,4.12,4.12,0,0,1,1.81.2.4.4,0,0,1,.37-.34,1.17,1.17,0,0,1,.52.12l.06-.4a6.2,6.2,0,0,1,1.8.71c0-.17,0-.35,0-.52a4.86,4.86,0,0,1,2,1.3c.07-.17.15-.33.22-.5a5.46,5.46,0,0,1,1.93,1.86,3.37,3.37,0,0,1,0-.84,8.05,8.05,0,0,1,.8,4.26,1,1,0,0,1,.38-.16,10.2,10.2,0,0,1,0,2.92,2.22,2.22,0,0,1-.37.44,13.12,13.12,0,0,0,.3-2.65l-1,1.47a7.47,7.47,0,0,0,.44-3.59l-.56,1.7a6.87,6.87,0,0,0-.85-3.79c0,.66,0,1.32,0,2a6.17,6.17,0,0,0-2.27-3.24,5.05,5.05,0,0,1,.79,1.9,5.47,5.47,0,0,0-2.92-2.37,6.92,6.92,0,0,1,1.29,1.61A12,12,0,0,0,115.14,33a6.86,6.86,0,0,1,1.43,1.31,11.74,11.74,0,0,0-3.94-.72A.38.38,0,0,1,112.48,33.48Z" fill="#779a3f"/><path id="Path_10132" data-name="Path 10132" d="M111.62,33.87c-.11,0,3-4.57,8.8-1.71a6.76,6.76,0,0,1,3.6,8.22s1.19-5.78-3.69-7.92a7,7,0,0,0-8,1.52S111.85,34.53,111.62,33.87Z" fill="#47652f"/><path id="Path_10133" data-name="Path 10133" d="M111.67,32.84c-.11.09-.33.22-.43.13a9.43,9.43,0,0,1-3-4.28,7,7,0,0,0,1.65,2.17,10.42,10.42,0,0,1-1-2,3.47,3.47,0,0,1-.06-2.16A3.85,3.85,0,0,0,110,29.24a4.85,4.85,0,0,1-.21-4,4.82,4.82,0,0,0,.71,2.47,9.8,9.8,0,0,1-.08-1.95,3.35,3.35,0,0,1,.68-1.8,3,3,0,0,0,.2,2.13,6.69,6.69,0,0,1,1.38-3.89,3.15,3.15,0,0,0,0,2.43,6.09,6.09,0,0,1,1.88-3.35,4.62,4.62,0,0,0-.73,2.45A9.47,9.47,0,0,1,116.15,21a6,6,0,0,0-1.06,2c1-.62,1.71-1.75,2.85-2.08l-1.11,1.45a5.54,5.54,0,0,1,2.64-.67,5.92,5.92,0,0,0-1.17.61,2.8,2.8,0,0,1,2.53.27,6.17,6.17,0,0,0-1.36,0,5.39,5.39,0,0,1,2.6,1.1,5.39,5.39,0,0,0-1.19-.2,4.39,4.39,0,0,1,1.9,1.8,15.11,15.11,0,0,0-2.39-1.17c.35.5.69,1,1,1.47a7.34,7.34,0,0,0-3.24-1.61l1.42,1.09a7.18,7.18,0,0,0-3.86-.48l1.87.64a6.09,6.09,0,0,0-3.81,1.06,4.77,4.77,0,0,1,2.06-.1,5.48,5.48,0,0,0-3.23,1.95,6.73,6.73,0,0,1,2-.67A12.7,12.7,0,0,0,112,30.29a6.41,6.41,0,0,1,1.72-.9A11.48,11.48,0,0,0,111.67,32.84Z" fill="#66923e"/><path id="Path_10134" data-name="Path 10134" d="M111.54,32.93l-.1-.13a2.14,2.14,0,0,1-.35-1.59,4.17,4.17,0,0,1,.79-1.64.4.4,0,0,1-.19-.46,1.1,1.1,0,0,1,.28-.46l-.37-.2A6.53,6.53,0,0,1,112.88,27l-.51-.13a4.68,4.68,0,0,1,1.9-1.45,4.64,4.64,0,0,1-.39-.38,5.38,5.38,0,0,1,2.4-1.19,4.36,4.36,0,0,1-.79-.28,7.93,7.93,0,0,1,4.27.67.81.81,0,0,1,0-.41,10.48,10.48,0,0,1,2.75,1,2.6,2.6,0,0,1,.28.49,14.29,14.29,0,0,0-2.39-1.17c.35.5.69,1,1,1.47A7.34,7.34,0,0,0,118.18,24l1.42,1.09a7.09,7.09,0,0,0-3.86-.48l1.87.64a6.13,6.13,0,0,0-3.82,1.06,4.64,4.64,0,0,1,2.06-.1,5.48,5.48,0,0,0-3.22,2,6.79,6.79,0,0,1,2-.67A12.3,12.3,0,0,0,112,30.27a7.09,7.09,0,0,1,1.72-.91,12.06,12.06,0,0,0-2,3.47A.29.29,0,0,1,111.54,32.93Z" fill="#779a3f"/><path id="Path_10135" data-name="Path 10135" d="M111.62,33.87c0,.11-3.28-4.41,1.36-8.87a6.76,6.76,0,0,1,9-.61s-5-3.06-8.7.81A7,7,0,0,0,112,33.29S112.32,33.88,111.62,33.87Z" fill="#47652f"/><path id="Path_10136" data-name="Path 10136" d="M112.33,33c-.16,0-.44,0-.48-.11a8.73,8.73,0,0,1,0-5.28,6.34,6.34,0,0,0,.12,2.74,9.9,9.9,0,0,1,.37-2.23,4,4,0,0,1,1.34-1.94,3.83,3.83,0,0,0-.6,2.79,5.52,5.52,0,0,1,2.38-3.61,5.06,5.06,0,0,0-1,2.53,10.49,10.49,0,0,1,1.21-1.75,4.31,4.31,0,0,1,1.79-1.25,3.39,3.39,0,0,0-1.2,2,8.47,8.47,0,0,1,3.8-2.71,3.68,3.68,0,0,0-1.62,2.11,7.88,7.88,0,0,1,3.9-2,5.74,5.74,0,0,0-2.25,1.8,12.09,12.09,0,0,1,3.94-1.2,7.81,7.81,0,0,0-2.29,1.23c1.34,0,2.72-.67,4-.37l-2,.7a6.16,6.16,0,0,1,2.87.77,7.31,7.31,0,0,0-1.48-.07,2.73,2.73,0,0,1,2.16,1.54,6,6,0,0,0-1.29-.66,4.64,4.64,0,0,1,1.69,2.3,4.86,4.86,0,0,0-1-.79,3.77,3.77,0,0,1,.59,2.55A11.83,11.83,0,0,0,126,29.81v1.82A6.63,6.63,0,0,0,124,28.55l.6,1.69a6.89,6.89,0,0,0-3.25-2.4l1.31,1.53a7,7,0,0,0-4.2-1,4.88,4.88,0,0,1,2,1,6.83,6.83,0,0,0-4.24.06,7.85,7.85,0,0,1,2.24.42,15.77,15.77,0,0,0-4.22,1.07,8.31,8.31,0,0,1,2.17.08A16.55,16.55,0,0,0,112.33,33Z" fill="#a0ba3c"/><path id="Path_10137" data-name="Path 10137" d="M112.16,33s0-.11,0-.17a2.18,2.18,0,0,1,.71-1.57,6.16,6.16,0,0,1,1.8-1.05.38.38,0,0,1,.12-.49,1.49,1.49,0,0,1,.56-.25c-.07-.12-.14-.24-.22-.35a8.32,8.32,0,0,1,2.12-.62l-.39-.38a6.14,6.14,0,0,1,2.69-.31c0-.17-.08-.35-.12-.52a6.32,6.32,0,0,1,3,.18,3.12,3.12,0,0,1-.54-.66,7.93,7.93,0,0,1,3.51,2.79,1.14,1.14,0,0,1,.23-.38,9,9,0,0,1,1.88,2.3,2.24,2.24,0,0,1,0,.58A12.69,12.69,0,0,0,126,29.85v1.82a6.7,6.7,0,0,0-2-3.08l.6,1.69a6.87,6.87,0,0,0-3.25-2.39l1.32,1.52a6.94,6.94,0,0,0-4.21-1,5,5,0,0,1,2,1,6.86,6.86,0,0,0-4.25.07,7.39,7.39,0,0,1,2.24.41,15.77,15.77,0,0,0-4.22,1.07,8,8,0,0,1,2.18.09,14.54,14.54,0,0,0-4.1,2A.39.39,0,0,0,112.16,33Z" fill="#b6be34"/><path id="Path_10138" data-name="Path 10138" d="M111.62,33.87s.15-5.79,7-7.1,8.67,4,8.67,4-2.67-5.27-8.56-3.74-6.42,6.46-6.42,6.46A.41.41,0,0,1,111.62,33.87Z" fill="#47652f"/><path id="Path_10139" data-name="Path 10139" d="M112.49,33.79c0-.11-.08-.31,0-.37a7.8,7.8,0,0,1,4.08-1.08,5.55,5.55,0,0,0-2.1.66,8.07,8.07,0,0,1,1.77-.2,2.68,2.68,0,0,1,1.66.56,3.12,3.12,0,0,0-2.23.15,4,4,0,0,1,3.1.94,3.78,3.78,0,0,0-2.08-.14,7.81,7.81,0,0,1,1.51.48,2.81,2.81,0,0,1,1.19,1,2.4,2.4,0,0,0-1.68-.44,5.49,5.49,0,0,1,2.58,2.13,2.58,2.58,0,0,0-1.85-.7,5,5,0,0,1,2.05,2.35,3.87,3.87,0,0,0-1.68-1.23,7.83,7.83,0,0,1,1.43,2.55A4.91,4.91,0,0,0,119,39.1c.2.95.87,1.8.79,2.76L119,40.61a4.45,4.45,0,0,1-.22,2.2,5.3,5.3,0,0,0-.14-1.05,2.22,2.22,0,0,1-.91,1.85,4.77,4.77,0,0,0,.34-1,4.21,4.21,0,0,1-1.56,1.68,4.43,4.43,0,0,0,.48-.85,2.85,2.85,0,0,1-.59.46,3,3,0,0,1-1.31.5,10,10,0,0,0,1.55-1.5l-1.4.38a5.92,5.92,0,0,0,2.13-2l-1.22.79a5.64,5.64,0,0,0,1.43-2.81c-.34.42-.67.84-1,1.25a5,5,0,0,0,.25-3.2,3.93,3.93,0,0,1-.49,1.6,4.39,4.39,0,0,0-.6-3,5.57,5.57,0,0,1,0,1.68,10.59,10.59,0,0,0-1.37-2.78,5.87,5.87,0,0,1,.21,1.56A8.93,8.93,0,0,0,112.49,33.79Z" fill="#417d3c"/><path id="Path_10140" data-name="Path 10140" d="M112.46,33.67l.14,0a1.68,1.68,0,0,1,1.31.18,3.72,3.72,0,0,1,1,1.06.3.3,0,0,1,.4,0,1,1,0,0,1,.27.34c.08-.08.17-.15.24-.23a5.16,5.16,0,0,1,.76,1.38l.24-.35a3.73,3.73,0,0,1,.58,1.84l.4-.2a4.34,4.34,0,0,1,.25,2.17,3.18,3.18,0,0,1,.44-.53,6.49,6.49,0,0,1-1.7,3.07.75.75,0,0,1,.32.1,8.13,8.13,0,0,1-1.54,1.82,2.36,2.36,0,0,1-.45.08,11.56,11.56,0,0,0,1.55-1.5l-1.4.39a6,6,0,0,0,2.13-2l-1.22.78a5.65,5.65,0,0,0,1.43-2.8c-.34.41-.67.83-1,1.25a5,5,0,0,0,.25-3.2,4,4,0,0,1-.49,1.59,4.45,4.45,0,0,0-.6-3,5.91,5.91,0,0,1,0,1.68,10,10,0,0,0-1.37-2.78,5.55,5.55,0,0,1,.22,1.56,9.47,9.47,0,0,0-2.1-2.49A.22.22,0,0,1,112.46,33.67Z" fill="#66923e"/><path id="Path_10141" data-name="Path 10141" d="M111.73,33.48A5.82,5.82,0,0,1,116.11,44s3.73-3,1.78-6.87a5.67,5.67,0,0,0-5.82-3.21S111.52,34,111.73,33.48Z" fill="#47652f"/><path id="Path_10142" data-name="Path 10142" d="M110.85,33.64c.11-.08.3-.26.24-.39a9.57,9.57,0,0,0-3.35-4,7.1,7.1,0,0,1,1.65,2.15A9.84,9.84,0,0,0,107.75,30a3.45,3.45,0,0,0-2.08-.63,3.85,3.85,0,0,1,2.14,1.74A4.81,4.81,0,0,0,104,29.85a4.73,4.73,0,0,1,2.18,1.32,9.13,9.13,0,0,0-1.86-.58,3.4,3.4,0,0,0-1.92.19,3,3,0,0,1,2,.74,6.74,6.74,0,0,0-4.11.31,3.16,3.16,0,0,1,2.36.61,6,6,0,0,0-3.72.92,4.52,4.52,0,0,1,2.55,0,9.38,9.38,0,0,0-3.25,1.55,6.08,6.08,0,0,1,2.23-.49c-.86.82-2.14,1.19-2.76,2.2l1.7-.7a5.42,5.42,0,0,0-1.35,2.37,6.78,6.78,0,0,1,.89-1,2.79,2.79,0,0,0-.4,2.52,5.3,5.3,0,0,1,.4-1.3,5.24,5.24,0,0,0,.38,2.79,4.89,4.89,0,0,1,.12-1.2,2.78,2.78,0,0,0,.27.89,3.58,3.58,0,0,0,1,1.43,13.67,13.67,0,0,1-.5-2.61l1.14,1.38a7.34,7.34,0,0,1-.7-3.55c.23.55.45,1.11.68,1.66a7.07,7.07,0,0,1,.55-3.85c0,.66.09,1.32.13,2a6.16,6.16,0,0,1,2-3.4,4.7,4.7,0,0,0-.65,2,5.5,5.5,0,0,1,2.73-2.59,7,7,0,0,0-1.16,1.7,12.51,12.51,0,0,1,3.35-1.82A6.88,6.88,0,0,0,107,34.66,11.43,11.43,0,0,1,110.85,33.64Z" fill="#417d3c"/><path id="Path_10143" data-name="Path 10143" d="M111,33.54l-.1-.14a2.13,2.13,0,0,0-1.44-.75,4.46,4.46,0,0,0-1.8.33.4.4,0,0,0-.39-.3,1.17,1.17,0,0,0-.51.16l-.09-.39a6.19,6.19,0,0,0-1.73.85v-.52a4.68,4.68,0,0,0-1.9,1.45c-.08-.17-.16-.32-.25-.49a5.28,5.28,0,0,0-1.79,2,4.76,4.76,0,0,0-.07-.84,8,8,0,0,0-.47,4.3.86.86,0,0,0-.39-.13A10.63,10.63,0,0,0,100.3,42a3.09,3.09,0,0,0,.4.41,14.6,14.6,0,0,1-.5-2.62c.39.46.76.92,1.15,1.39a7.39,7.39,0,0,1-.71-3.55l.68,1.65a7,7,0,0,1,.55-3.84c0,.65.09,1.32.14,2A6.11,6.11,0,0,1,104,34a4.87,4.87,0,0,0-.64,2,5.44,5.44,0,0,1,2.72-2.59,6.79,6.79,0,0,0-1.15,1.7,12.46,12.46,0,0,1,3.34-1.82A6.83,6.83,0,0,0,107,34.68a11.37,11.37,0,0,1,3.88-1Z" fill="#66923e"/><path id="Path_10144" data-name="Path 10144" d="M111.85,33.86A7.17,7.17,0,0,0,100,41.31s-1.63-5.67,3.06-8.18a7,7,0,0,1,8.14.9S111.69,34.54,111.85,33.86Z" fill="#47652f"/><path id="Path_10145" data-name="Path 10145" d="M111.08,33c.16,0,.44,0,.46-.14a8.73,8.73,0,0,0-.45-5.27,6.23,6.23,0,0,1,.1,2.75,9.21,9.21,0,0,0-.55-2.2,3.77,3.77,0,0,0-1.5-1.82A3.81,3.81,0,0,1,110,29.1a5.45,5.45,0,0,0-2.66-3.42,5,5,0,0,1,1.14,2.44,11.65,11.65,0,0,0-1.32-1.65,4.41,4.41,0,0,0-1.89-1.1,3.31,3.31,0,0,1,1.35,1.87,8.46,8.46,0,0,0-4-2.4,3.69,3.69,0,0,1,1.77,2,7.8,7.8,0,0,0-4-1.67,5.76,5.76,0,0,1,2.4,1.61,12.09,12.09,0,0,0-4-.89,8,8,0,0,1,2.37,1c-1.33.08-2.75-.45-4-.05l2,.55a5.89,5.89,0,0,0-2.81,1,9,9,0,0,1,1.47-.18,2.71,2.71,0,0,0-2,1.7,7.32,7.32,0,0,1,1.22-.76,4.81,4.81,0,0,0-1.5,2.42,5.3,5.3,0,0,1,.91-.86,2.76,2.76,0,0,0-.34.86,3.28,3.28,0,0,0-.07,1.73A13,13,0,0,1,97.19,31c0,.6.1,1.2.14,1.81A6.51,6.51,0,0,1,99,29.55c-.16.57-.32,1.15-.47,1.73a6.75,6.75,0,0,1,3.06-2.63l-1.19,1.62a7,7,0,0,1,4.11-1.35A5.24,5.24,0,0,0,102.65,30a6.91,6.91,0,0,1,4.24-.26,7.61,7.61,0,0,0-2.2.58,16,16,0,0,1,4.28.74,8.6,8.6,0,0,0-2.15.25A15,15,0,0,1,111.08,33Z" fill="#66923e"/><path id="Path_10146" data-name="Path 10146" d="M111.25,33a.49.49,0,0,0,0-.17,2.22,2.22,0,0,0-.82-1.52,5.66,5.66,0,0,0-1.87-.89.41.41,0,0,0-.16-.49,1.71,1.71,0,0,0-.57-.21l.18-.36a8.32,8.32,0,0,0-2.16-.46c.12-.14.24-.27.35-.41a5.86,5.86,0,0,0-2.7-.09c0-.18.06-.36.08-.54a6.4,6.4,0,0,0-3,.42,4.19,4.19,0,0,0,.49-.7,7.73,7.73,0,0,0-3.28,3.05.85.85,0,0,0-.27-.35,9.13,9.13,0,0,0-1.69,2.43,1.85,1.85,0,0,0,.1.57A12.4,12.4,0,0,1,97.23,31c0,.6.1,1.2.14,1.81a6.51,6.51,0,0,1,1.7-3.21c-.16.57-.32,1.15-.47,1.73a6.72,6.72,0,0,1,3.05-2.63l-1.19,1.62a7,7,0,0,1,4.11-1.35,5.24,5.24,0,0,0-1.89,1.11,6.91,6.91,0,0,1,4.24-.27,7.94,7.94,0,0,0-2.2.58,16,16,0,0,1,4.28.75,8.16,8.16,0,0,0-2.15.25,14.84,14.84,0,0,1,4.24,1.7Z" fill="#779a3f"/><path id="Path_10147" data-name="Path 10147" d="M111.85,33.86s-.61-5.77-7.52-6.53S96,32,96,32s2.26-5.47,8.25-4.39,6.9,6,6.9,6S111.25,34.28,111.85,33.86Z" fill="#47652f"/><path id="Path_10148" data-name="Path 10148" d="M111.14,34c0-.1,0-.27,0-.31a6.69,6.69,0,0,0-3.6-.66,5.26,5.26,0,0,1,1.87.43,6.69,6.69,0,0,0-1.55,0,2.41,2.41,0,0,0-1.41.59,2.73,2.73,0,0,1,2,0,3.43,3.43,0,0,0-2.62,1,3.31,3.31,0,0,1,1.78-.26,7.06,7.06,0,0,0-1.27.52,2.34,2.34,0,0,0-1,1,2.14,2.14,0,0,1,1.41-.5,4.64,4.64,0,0,0-2.09,2,2.28,2.28,0,0,1,1.55-.72,4.29,4.29,0,0,0-1.61,2.18A3.29,3.29,0,0,1,105.92,38a6.49,6.49,0,0,0-1.07,2.31,4,4,0,0,1,1-1.26c-.1.82-.62,1.6-.5,2.43.2-.38.41-.75.6-1.13a3.84,3.84,0,0,0,.34,1.89,4.94,4.94,0,0,1,0-.94,2,2,0,0,0,.92,1.55,4.22,4.22,0,0,1-.37-.88,3.72,3.72,0,0,0,1.46,1.35,3.69,3.69,0,0,1-.48-.71,2,2,0,0,0,.54.36,2.52,2.52,0,0,0,1.16.34,10.23,10.23,0,0,1-1.44-1.19l1.24.23a5.17,5.17,0,0,1-2-1.61l1.12.59A5,5,0,0,1,107.06,39l1,1a4.33,4.33,0,0,1-.44-2.76,3.48,3.48,0,0,0,.53,1.36,3.92,3.92,0,0,1,.32-2.63,5.09,5.09,0,0,0,.13,1.45,8.84,8.84,0,0,1,1-2.49,5.19,5.19,0,0,0-.08,1.36A7.9,7.9,0,0,1,111.14,34Z" fill="#66923e"/><path id="Path_10149" data-name="Path 10149" d="M111.16,33.84l-.12,0a1.52,1.52,0,0,0-1.12.24,3.13,3.13,0,0,0-.82,1,.3.3,0,0,0-.35,0,.72.72,0,0,0-.2.31l-.23-.18a4.06,4.06,0,0,0-.55,1.24c-.09-.09-.16-.19-.24-.28a3.22,3.22,0,0,0-.38,1.64l-.35-.14a3.64,3.64,0,0,0-.07,1.88,3.25,3.25,0,0,0-.41-.42A5.57,5.57,0,0,0,108,41.64a.75.75,0,0,0-.28.11,7.17,7.17,0,0,0,1.45,1.46,1.92,1.92,0,0,0,.41,0,10.31,10.31,0,0,1-1.45-1.19l1.25.23a5,5,0,0,1-2-1.61l1.11.59A5,5,0,0,1,107.09,39l1,1a4.3,4.3,0,0,1-.44-2.75,3.5,3.5,0,0,0,.53,1.35,3.86,3.86,0,0,1,.31-2.63,5.41,5.41,0,0,0,.14,1.45,8.78,8.78,0,0,1,1-2.49,5.24,5.24,0,0,0-.09,1.37,8,8,0,0,1,1.65-2.3A.49.49,0,0,0,111.16,33.84Z" fill="#417d3c"/><path id="Path_10150" data-name="Path 10150" d="M111.78,33.62A5.05,5.05,0,0,0,108.69,43s-3.44-2.35-2-5.81A4.91,4.91,0,0,1,111.49,34S112,34.07,111.78,33.62Z" fill="#47652f"/></g><rect id="Rectangle_4395" data-name="Rectangle 4395" x="111.02" y="33.59" width="1.45" height="3.9" fill="#47652f"/></g><g id="Group_5086" data-name="Group 5086"><path id="Path_10177" data-name="Path 10177" d="M11.56,55.23a4.29,4.29,0,0,1-8.57,0C3,53,4.91,47.67,7.27,47.67S11.56,53,11.56,55.23Z" fill="#37b34a"/><path id="Path_10178" data-name="Path 10178" d="M7.71,47.71c1.53.86,2.65,4.88,2.65,6.5a3.68,3.68,0,0,1-3.75,3.6A3.73,3.73,0,0,1,3,55.13v.1a4.29,4.29,0,0,0,8.57,0C11.56,53.1,9.87,48.13,7.71,47.71Z" fill="#2e9c48"/><path id="Path_10179" data-name="Path 10179" d="M8.11,64.13H6.44L7,55.64h.63Z" fill="#70441c"/></g><g id="Group_5088" data-name="Group 5088"><path id="Path_10183" data-name="Path 10183" d="M58.77,55.23a4.29,4.29,0,0,1-8.57,0c0-2.27,1.92-7.56,4.29-7.56S58.77,53,58.77,55.23Z" fill="#37b34a"/><path id="Path_10184" data-name="Path 10184" d="M54.92,47.71c1.53.86,2.65,4.88,2.65,6.5a3.76,3.76,0,0,1-7.36.92v.1a4.28,4.28,0,0,0,8.56,0C58.77,53.1,57.08,48.13,54.92,47.71Z" fill="#2e9c48"/><path id="Path_10185" data-name="Path 10185" d="M55.33,64.13H53.65l.52-8.49h.63Z" fill="#70441c"/></g></g></g><g id="Group_6099" data-name="Group 6099"><g id="Group_5604" data-name="Group 5604"><g id="Group_5515" data-name="Group 5515"><g id="Group_5514" data-name="Group 5514"><g id="Group_5512" data-name="Group 5512"><g id="Group_5508" data-name="Group 5508"><g id="Group_5505" data-name="Group 5505"><g id="Group_5502" data-name="Group 5502"><g id="Group_5491" data-name="Group 5491"><g id="Group_5487" data-name="Group 5487"><path id="Rectangle_4552" data-name="Rectangle 4552" d="M115.05,27.56h35.83a5.72,5.72,0,0,1,5.72,5.72h0v71.45a5.73,5.73,0,0,1-5.72,5.73H115.05a5.74,5.74,0,0,1-5.73-5.73V33.29a5.73,5.73,0,0,1,5.73-5.73Z" fill="#1e1b1f"/><path id="Path_10634" data-name="Path 10634" d="M149.24,27.56H138.18v82.9h11.06a7.37,7.37,0,0,0,7.36-7.37h0V34.93a7.35,7.35,0,0,0-7.35-7.37Z" fill="#171417"/><path id="Path_10635" data-name="Path 10635" d="M312.36,103.09a7.37,7.37,0,0,1-7.37,7.37H272.44a7.37,7.37,0,0,1-7.37-7.37V34.93a7.36,7.36,0,0,1,7.36-7.37H305a7.36,7.36,0,0,1,7.37,7.36h0Z" fill="#1e1b1f"/><path id="Path_10636" data-name="Path 10636" d="M285,27.56h-12.6a7.36,7.36,0,0,0-7.37,7.36h0v68.16a7.37,7.37,0,0,0,7.37,7.37H285Z" fill="#171417"/><path id="Path_10642" data-name="Path 10642" d="M105.31,86.31c-12.56,0-17.08-2.82-17.08-13.27V52.36a8.4,8.4,0,0,1,5.65-8.23V0s58.79,0,117.6,0c58.33,0,116.68,0,116.68,0V44.13s5.65,2.16,5.65,8.23V73c0,10.45-4.53,13.27-17.08,13.27Z" fill="#ffca54"/><path id="Path_10644" data-name="Path 10644" d="M271.78,37.51a4.77,4.77,0,0,0,4.47,5l43.2.08a4.78,4.78,0,0,0,4.47-5V23a4.77,4.77,0,0,0-4.47-5l-47.67,5c-2.47,0,0,.71,0,3.5Z" fill="#fff" stroke="#444545" stroke-miterlimit="10" stroke-width="1.97"/><path id="Path_10707" data-name="Path 10707" d="M157.25,37.5a4.79,4.79,0,0,1-4.47,5l-43.21.07a4.78,4.78,0,0,1-4.47-5V23a4.76,4.76,0,0,1,4.47-5l47.68,5c2.47,0,0,.71,0,3.5Z" fill="#fff" stroke="#444545" stroke-miterlimit="10" stroke-width="1.97"/><path id="Path_10645" data-name="Path 10645" d="M274.12,36.11a4,4,0,0,0,4,4.08L321.5,23.13a4,4,0,0,0-4-4.08h0l-39.39,4.08a4,4,0,0,0-4,4.07Z" fill="#ddd"/><path id="Path_10706" data-name="Path 10706" d="M155.91,37.45a4,4,0,0,1-4,4.07L108.54,24.46a4,4,0,0,1,4-4.07h0l39.38,4.07a4,4,0,0,1,4,4.08Z" fill="#ddd"/><path id="Path_10654" data-name="Path 10654" d="M321.57,75.31c-9.53,4.7-154.45,3-191.41,2.55-16.85-.21-31-3.42-41.93-12.23v7.44c0,10.43,4.53,13.24,17.09,13.24H316.85c12.56,0,17.09-2.81,17.09-13.24V65.68A37.85,37.85,0,0,1,321.57,75.31Z" fill="#444545"/><path id="Path_10656" data-name="Path 10656" d="M327.74,45.21s0,4.48-3.67,5.48-225.94,1.5-227.64,0S95,45.21,95,45.21" fill="#f5aa1c"/></g></g></g><path id="Path_10675" data-name="Path 10675" d="M153.79,20.76l126-.54V44.59h-126Z" fill="#3c3c3c"/><path id="Path_10676" data-name="Path 10676" d="M162.42,25.22c2.43-.3,101.25-.72,104.62,0s-3.35,15.72-6.3,16-91.69.25-94.3,0S160,25.51,162.42,25.22Z" fill="#272727" stroke="#707071"/><g id="Group_5504" data-name="Group 5504"><path id="Path_10671" data-name="Path 10671" d="M179.56,29.3h68.92" fill="none" stroke="#fff" stroke-linecap="round"/><path id="Path_10672" data-name="Path 10672" d="M179.56,36h68.92" fill="none" stroke="#fff" stroke-linecap="round"/></g><path id="Path_10677" data-name="Path 10677" d="M131.14.4H110.22s58.36,13.82,104.16,13.82S310.57.2,314.06.4Z" fill="#f5aa25"/></g></g></g></g></g></g><g id="Group_5756" data-name="Group 5756"><g id="Group_5809" data-name="Group 5809"><rect id="Rectangle_4553" data-name="Rectangle 4553" x="153.89" y="51.47" width="109.89" height="44.98" rx="4" fill="#444545" stroke="#fff" stroke-miterlimit="10" stroke-width="2"/></g></g></g></g></g></g></svg>