<svg id="Layer_1" data-name="Layer 1" xmlns="http://www.w3.org/2000/svg" viewBox="0 0 416.35 167.85"><g id="Layer_2" data-name="Layer 2"><g id="Layer_1-2" data-name="Layer 1-2"><g id="Group_6100" data-name="Group 6100"><path d="M416.35,103.19v64.66H0V.15H276.66l.61.29q7.46,3.57,13.56,7a119.64,119.64,0,0,1,15.81,10.28A41.09,41.09,0,0,1,311.46,22c.27.27.53.55.78.83a40.73,40.73,0,0,1,2.69,3.3,13.56,13.56,0,0,1,2.29,4.61,9.63,9.63,0,0,1,.28,1.18h0a12.77,12.77,0,0,1,.22,2.23c-.09,2.84-1.45,5.55-4.05,8a31.81,31.81,0,0,1-7.16,4.9h0c-1.57.83-3.27,1.63-5.14,2.4l-1.32.55a74.34,74.34,0,0,0-6.88,3.33,35.33,35.33,0,0,0-5.23,3.49h0l-.63.56c-2.76,2.49-4,5-3.63,7.51.39,2.84,2.83,5.72,7.22,8.51.76.45,1.52.89,2.29,1.31a83.37,83.37,0,0,0,14.73,6.42q5.79,2,12.92,4h0l2.63.72q9.48,2.58,21.08,5.11l.16,0q6.29,1.37,13.18,2.72C380.27,98.17,402.68,101.39,416.35,103.19Z" fill="#dddcef"/><g id="Group_6098" data-name="Group 6098"><g id="Group_5454" data-name="Group 5454"><g id="Group_5433" data-name="Group 5433"><g id="Group_5425" data-name="Group 5425"><rect y="42.28" width="5.94" height="27.22" fill="#939393"/><rect id="Rectangle_4472" data-name="Rectangle 4472" x="2.31" y="19.85" width="10.07" height="49.65" fill="#939393"/><path id="Path_10999" data-name="Path 10999" d="M9,.94H19.07V69.5H9Z" fill="#939393"/><path id="Path_10998" data-name="Path 10998" d="M17,.83H44V69.5H17Z" fill="#939393"/></g><g id="Group_5426" data-name="Group 5426"><rect id="Rectangle_4475" data-name="Rectangle 4475" x="149.1" y="45.64" width="11.51" height="23.86" fill="#b2b1b2"/><rect id="Rectangle_4476" data-name="Rectangle 4476" x="139.03" y="50.88" width="11.51" height="18.63" fill="#b2b1b2"/><rect id="Rectangle_4477" data-name="Rectangle 4477" x="131.67" y="35.52" width="11.51" height="33.98" fill="#b2b1b2"/><rect id="Rectangle_4478" data-name="Rectangle 4478" x="124.01" y="7.97" width="11.51" height="61.53" fill="#b2b1b2"/></g><g id="Group_5432" data-name="Group 5432"><g id="Group_5428" data-name="Group 5428"><path id="Path_11001" data-name="Path 11001" d="M95.11.64h35.32L130.2,69.5H94.89Z" fill="#cccccb"/><g id="Group_5427" data-name="Group 5427"><path id="Path_11006" data-name="Path 11006" d="M125.16.7h1.68V6.63h-1.68Z" fill="#f5f5f5"/><rect id="Rectangle_4481" data-name="Rectangle 4481" x="125.16" y="11.79" width="1.68" height="9.15" fill="#f5f5f5"/><rect id="Rectangle_4482" data-name="Rectangle 4482" x="125.16" y="26.09" width="1.68" height="9.15" fill="#f5f5f5"/><rect id="Rectangle_4483" data-name="Rectangle 4483" x="125.16" y="40.4" width="1.68" height="9.15" fill="#f5f5f5"/><rect id="Rectangle_4484" data-name="Rectangle 4484" x="125.16" y="54.71" width="1.68" height="9.15" fill="#f5f5f5"/><path id="Path_11005" data-name="Path 11005" d="M119.2.7h1.68V6.63H119.2Z" fill="#f5f5f5"/><rect id="Rectangle_4486" data-name="Rectangle 4486" x="119.2" y="11.79" width="1.68" height="9.15" fill="#f5f5f5"/><rect id="Rectangle_4487" data-name="Rectangle 4487" x="119.2" y="26.09" width="1.68" height="9.15" fill="#f5f5f5"/><rect id="Rectangle_4488" data-name="Rectangle 4488" x="119.2" y="40.4" width="1.68" height="9.15" fill="#f5f5f5"/><rect id="Rectangle_4489" data-name="Rectangle 4489" x="119.2" y="54.71" width="1.68" height="9.15" fill="#f5f5f5"/><path id="Path_11004" data-name="Path 11004" d="M113.24.7h1.69V6.63h-1.69Z" fill="#f5f5f5"/><rect id="Rectangle_4491" data-name="Rectangle 4491" x="113.24" y="11.79" width="1.68" height="9.15" fill="#f5f5f5"/><rect id="Rectangle_4492" data-name="Rectangle 4492" x="113.24" y="26.09" width="1.68" height="9.15" fill="#f5f5f5"/><rect id="Rectangle_4493" data-name="Rectangle 4493" x="113.24" y="40.4" width="1.68" height="9.15" fill="#f5f5f5"/><rect id="Rectangle_4494" data-name="Rectangle 4494" x="113.24" y="54.71" width="1.68" height="9.15" fill="#f5f5f5"/><path id="Path_11003" data-name="Path 11003" d="M107.28.65H109v6h-1.68Z" fill="#f5f5f5"/><rect id="Rectangle_4496" data-name="Rectangle 4496" x="107.28" y="11.79" width="1.68" height="9.15" fill="#f5f5f5"/><rect id="Rectangle_4497" data-name="Rectangle 4497" x="107.28" y="26.09" width="1.68" height="9.15" fill="#f5f5f5"/><rect id="Rectangle_4498" data-name="Rectangle 4498" x="107.28" y="40.4" width="1.68" height="9.15" fill="#f5f5f5"/><rect id="Rectangle_4499" data-name="Rectangle 4499" x="107.28" y="54.71" width="1.68" height="9.15" fill="#f5f5f5"/><path id="Path_11002" data-name="Path 11002" d="M101.32.76H103V6.63h-1.68Z" fill="#f5f5f5"/><rect id="Rectangle_4501" data-name="Rectangle 4501" x="101.32" y="11.79" width="1.68" height="9.15" fill="#f5f5f5"/><rect id="Rectangle_4502" data-name="Rectangle 4502" x="101.32" y="26.09" width="1.68" height="9.15" fill="#f5f5f5"/><rect id="Rectangle_4503" data-name="Rectangle 4503" x="101.32" y="40.4" width="1.68" height="9.15" fill="#f5f5f5"/><rect id="Rectangle_4504" data-name="Rectangle 4504" x="101.32" y="54.71" width="1.68" height="9.15" fill="#f5f5f5"/></g><path id="Path_10588" data-name="Path 10588" d="M95,.79h7.28l3,68.71H94.89Z" fill="#bab9ba" opacity="0.5" style="isolation:isolate"/></g><g id="Group_5429" data-name="Group 5429"><path id="Path_10589" data-name="Path 10589" d="M77.3.66H98.24l.19,68.84H77.52Z" fill="#bab9ba"/><path id="Path_11000" data-name="Path 11000" d="M60.89,1H77.65L77.52,69.5H60.76Z" fill="#cccccb"/><rect id="Rectangle_4511" data-name="Rectangle 4511" x="60.76" y="2.3" width="37.71" height="0.53" fill="#e0e0e0"/><rect id="Rectangle_4512" data-name="Rectangle 4512" x="60.76" y="7.97" width="37.71" height="0.53" fill="#e0e0e0"/><rect id="Rectangle_4513" data-name="Rectangle 4513" x="60.76" y="13.65" width="37.71" height="0.53" fill="#e0e0e0"/><rect id="Rectangle_4514" data-name="Rectangle 4514" x="60.76" y="19.32" width="37.71" height="0.53" fill="#e0e0e0"/><rect id="Rectangle_4515" data-name="Rectangle 4515" x="60.76" y="25" width="37.71" height="0.53" fill="#e0e0e0"/><rect id="Rectangle_4516" data-name="Rectangle 4516" x="60.76" y="30.67" width="37.71" height="0.53" fill="#e0e0e0"/><rect id="Rectangle_4517" data-name="Rectangle 4517" x="60.76" y="36.35" width="37.71" height="0.53" fill="#e0e0e0"/><rect id="Rectangle_4518" data-name="Rectangle 4518" x="60.76" y="42.02" width="37.71" height="0.53" fill="#e0e0e0"/><rect id="Rectangle_4519" data-name="Rectangle 4519" x="60.76" y="47.7" width="37.71" height="0.53" fill="#e0e0e0"/><rect id="Rectangle_4520" data-name="Rectangle 4520" x="60.76" y="53.37" width="37.71" height="0.53" fill="#e0e0e0"/><rect id="Rectangle_4521" data-name="Rectangle 4521" x="60.76" y="59.03" width="37.71" height="0.53" fill="#e0e0e0"/><rect id="Rectangle_4522" data-name="Rectangle 4522" x="60.76" y="64.71" width="37.71" height="0.53" fill="#e0e0e0"/></g><g id="Group_5430" data-name="Group 5430"><path id="Path_10997" data-name="Path 10997" d="M34.08.8H51.63V69.5H34.08Z" fill="#cccccb"/><path id="Path_10591" data-name="Path 10591" d="M51.69.74h14l-.1,68.76h-14Z" fill="#bab9ba"/><rect id="Rectangle_4532" data-name="Rectangle 4532" x="34.08" y="6.24" width="31.54" height="0.67" fill="#e0e0e0"/><rect id="Rectangle_4533" data-name="Rectangle 4533" x="34.08" y="13.4" width="31.54" height="0.67" fill="#e0e0e0"/><rect id="Rectangle_4534" data-name="Rectangle 4534" x="34.08" y="20.55" width="31.54" height="0.67" fill="#e0e0e0"/><rect id="Rectangle_4535" data-name="Rectangle 4535" x="34.08" y="27.71" width="31.54" height="0.67" fill="#e0e0e0"/><rect id="Rectangle_4536" data-name="Rectangle 4536" x="34.08" y="34.86" width="31.54" height="0.67" fill="#e0e0e0"/><rect id="Rectangle_4537" data-name="Rectangle 4537" x="34.08" y="42.01" width="31.54" height="0.67" fill="#e0e0e0"/><rect id="Rectangle_4538" data-name="Rectangle 4538" x="34.08" y="49.16" width="31.54" height="0.67" fill="#e0e0e0"/><rect id="Rectangle_4539" data-name="Rectangle 4539" x="34.08" y="56.31" width="31.54" height="0.67" fill="#e0e0e0"/><rect id="Rectangle_4540" data-name="Rectangle 4540" x="34.08" y="63.47" width="31.54" height="0.67" fill="#e0e0e0"/></g><g id="Group_5431" data-name="Group 5431"><rect id="Rectangle_4541" data-name="Rectangle 4541" x="11.91" y="4.29" width="19.13" height="65.21" fill="#b2b1b2"/><rect id="Rectangle_4542" data-name="Rectangle 4542" x="15.67" y="7.66" width="3.07" height="10.47" fill="#e6e6e6"/><rect id="Rectangle_4543" data-name="Rectangle 4543" x="23.19" y="7.66" width="3.07" height="10.47" fill="#e6e6e6"/><rect id="Rectangle_4544" data-name="Rectangle 4544" x="15.67" y="21.21" width="3.07" height="10.47" fill="#e6e6e6"/><rect id="Rectangle_4545" data-name="Rectangle 4545" x="23.19" y="21.21" width="3.07" height="10.47" fill="#e6e6e6"/><rect id="Rectangle_4546" data-name="Rectangle 4546" x="15.67" y="34.76" width="3.07" height="10.47" fill="#e6e6e6"/><rect id="Rectangle_4547" data-name="Rectangle 4547" x="23.19" y="34.76" width="3.07" height="10.47" fill="#e6e6e6"/><rect id="Rectangle_4548" data-name="Rectangle 4548" x="15.67" y="48.32" width="3.07" height="10.47" fill="#e6e6e6"/><rect id="Rectangle_4549" data-name="Rectangle 4549" x="23.19" y="48.32" width="3.07" height="10.47" fill="#e6e6e6"/><path id="Path_10592" data-name="Path 10592" d="M31,4.25H11.89L16.43.81H35.58Z" fill="#fff"/><path id="Path_10593" data-name="Path 10593" d="M31,4.25,35.53.72,40,4.25V69.5H31Z" fill="#bab9ba"/></g></g></g></g><g id="Group_5464" data-name="Group 5464"><path d="M174.23,68.62c0,.23-.39.41-.86.41H0v-.82H173.37C173.84,68.21,174.23,68.4,174.23,68.62Z" fill="#444545" fill-rule="evenodd"/><g id="Group_5083" data-name="Group 5083"><path id="Path_10125" data-name="Path 10125" d="M107.67,68.21h-4.14l1.28-28.34h1.54Z" fill="#988f7f"/><g id="Group_5082" data-name="Group 5082"><path id="Path_10127" data-name="Path 10127" d="M105.1,34.79c.13.09.37.21.48.1a10.29,10.29,0,0,0,2.76-4.8,7.31,7.31,0,0,1-1.55,2.43,11.62,11.62,0,0,0,.87-2.13,3.56,3.56,0,0,0-.14-2.3,4.11,4.11,0,0,1-1,2.77,5.27,5.27,0,0,0-.12-4.26,5.06,5.06,0,0,1-.54,2.68,10.72,10.72,0,0,0-.09-2.12,3.65,3.65,0,0,0-.88-1.87,3.2,3.2,0,0,1,0,2.28,7.14,7.14,0,0,0-1.81-4,3.36,3.36,0,0,1,.24,2.58,6.35,6.35,0,0,0-2.27-3.4,5,5,0,0,1,1,2.54,10.35,10.35,0,0,0-2.74-2.7,6.29,6.29,0,0,1,1.31,2.06c-1.13-.58-2-1.71-3.19-1.95l1.3,1.44a5.43,5.43,0,0,0-2.86-.48,6,6,0,0,1,1.29.53,2.91,2.91,0,0,0-2.65.52A4.89,4.89,0,0,1,96,24.65,5.42,5.42,0,0,0,93.31,26a4.89,4.89,0,0,1,1.25-.32,3.56,3.56,0,0,0-.8.58,3.81,3.81,0,0,0-1.06,1.48,15.14,15.14,0,0,1,2.42-1.44l-1,1.65a7.84,7.84,0,0,1,3.3-2l-1.41,1.27a7.48,7.48,0,0,1,4-.85l-1.92.84a6.53,6.53,0,0,1,4.13.79,5.39,5.39,0,0,0-2.19.06,5.85,5.85,0,0,1,3.58,1.8,7.35,7.35,0,0,0-2.12-.54,13.11,13.11,0,0,1,3,2.68,7.34,7.34,0,0,0-1.89-.81A12.41,12.41,0,0,1,105.1,34.79Z" fill="#b6be34"/><path id="Path_10128" data-name="Path 10128" d="M105.25,34.88l.1-.15a2.28,2.28,0,0,0,.23-1.71,4.67,4.67,0,0,0-1-1.68.42.42,0,0,0,.22-.49,1.19,1.19,0,0,0-.35-.45l.36-.23a6.75,6.75,0,0,0-1.52-1.45l.53-.19a5,5,0,0,0-2.13-1.37l.39-.44a5.63,5.63,0,0,0-2.66-1.06,3.18,3.18,0,0,0,.81-.39,8.5,8.5,0,0,0-4.47,1.07.86.86,0,0,0,0-.45A10.81,10.81,0,0,0,93,27.2a3.51,3.51,0,0,0-.27.55,14.61,14.61,0,0,1,2.44-1.44l-1,1.71a8.2,8.2,0,0,1,3.3-2l-1.4,1.27a7.58,7.58,0,0,1,4.05-.84l-1.93.84a6.56,6.56,0,0,1,4.14.79,4.91,4.91,0,0,0-2.19.07,5.82,5.82,0,0,1,3.59,1.78,8.21,8.21,0,0,0-2.13-.53,12.91,12.91,0,0,1,3,2.68,6.82,6.82,0,0,0-1.95-.81,12.33,12.33,0,0,1,2.43,3.51Z" fill="#779a3f"/><path id="Path_10129" data-name="Path 10129" d="M105.25,35.88a7.64,7.64,0,0,0-11.7-9.16s5.08-3.69,9.28.11a7.46,7.46,0,0,1,2.07,8.51S104.5,36,105.25,35.88Z" fill="#47652f"/><path id="Path_10130" data-name="Path 10130" d="M106.52,35.71c-.12-.09-.33-.25-.27-.38a10.1,10.1,0,0,1,3.19-4.5,7.62,7.62,0,0,0-1.58,2.42,10.8,10.8,0,0,1,1.63-1.68,3.62,3.62,0,0,1,2.13-.83,4.08,4.08,0,0,0-2.13,2,5.15,5.15,0,0,1,3.9-1.64,5,5,0,0,0-2.2,1.6,9.51,9.51,0,0,1,1.93-.78,3.58,3.58,0,0,1,2,0,3.21,3.21,0,0,0-2.06,1,7.3,7.3,0,0,1,4.46.07,3.41,3.41,0,0,0-2.44.84,6.58,6.58,0,0,1,4,.67,5,5,0,0,0-2.72.16A10.49,10.49,0,0,1,120,36a6.08,6.08,0,0,0-2.39-.34c1,.78,2.36,1.06,3.09,2.12l-1.84-.6a5.63,5.63,0,0,1,1.62,2.4,8.06,8.06,0,0,0-1.06-1,2.94,2.94,0,0,1,.62,2.64,6.13,6.13,0,0,0-.53-1.34,5.34,5.34,0,0,1-.17,3,5.54,5.54,0,0,0-.22-1.27,3.11,3.11,0,0,1-.21,1,3.78,3.78,0,0,1-.91,1.59,15.71,15.71,0,0,0,.32-2.81c-.37.51-.74,1.06-1.06,1.55a8,8,0,0,0,.45-3.82c-.2.61-.38,1.22-.58,1.82a7.51,7.51,0,0,0-.91-4V39a6.52,6.52,0,0,0-2.41-3.44,5,5,0,0,1,.84,2,5.81,5.81,0,0,0-3.11-2.53,7.15,7.15,0,0,1,1.38,1.72,13,13,0,0,0-3.71-1.71,7.52,7.52,0,0,1,1.53,1.4A12.24,12.24,0,0,0,106.52,35.71Z" fill="#66923e"/><path id="Path_10131" data-name="Path 10131" d="M106.38,35.61a.86.86,0,0,1,.1-.16,2.22,2.22,0,0,1,1.48-.91,4.3,4.3,0,0,1,1.92.21.43.43,0,0,1,.4-.36,1.17,1.17,0,0,1,.55.13l.06-.43a6.64,6.64,0,0,1,1.92.76v-.56a5.29,5.29,0,0,1,2.13,1.39c.07-.18.16-.35.23-.54a5.8,5.8,0,0,1,2,2,4.41,4.41,0,0,1,0-.89,8.44,8.44,0,0,1,.85,4.53,1.23,1.23,0,0,1,.41-.17,10.8,10.8,0,0,1,0,3.11,2.16,2.16,0,0,1-.39.46,14,14,0,0,0,.31-2.81l-1.06,1.56a7.91,7.91,0,0,0,.47-3.82l-.6,1.81a7.27,7.27,0,0,0-.9-4V39a6.54,6.54,0,0,0-2.42-3.44,5.2,5.2,0,0,1,.84,2,5.81,5.81,0,0,0-3.1-2.52A7.31,7.31,0,0,1,113,36.76a13,13,0,0,0-3.79-1.66,7.26,7.26,0,0,1,1.53,1.4,12.34,12.34,0,0,0-4.2-.77A.61.61,0,0,1,106.38,35.61Z" fill="#779a3f"/><path id="Path_10132" data-name="Path 10132" d="M105.47,36c-.12,0,3.19-4.86,9.36-1.82A7.18,7.18,0,0,1,118.66,43s1.27-6.15-3.93-8.42a7.43,7.43,0,0,0-8.5,1.61S105.71,36.73,105.47,36Z" fill="#47652f"/><path id="Path_10133" data-name="Path 10133" d="M105.52,34.93c-.11.1-.35.24-.45.14a10,10,0,0,1-3.2-4.55,7.63,7.63,0,0,0,1.76,2.31,10.85,10.85,0,0,1-1.06-2.13,3.69,3.69,0,0,1-.07-2.3,4.07,4.07,0,0,0,1.25,2.7,5.13,5.13,0,0,1-.23-4.25,5.06,5.06,0,0,0,.76,2.62,10.23,10.23,0,0,1-.09-2.07,3.52,3.52,0,0,1,.73-1.91,3.16,3.16,0,0,0,.21,2.26,7.07,7.07,0,0,1,1.47-4.14,3.33,3.33,0,0,0,0,2.59,6.41,6.41,0,0,1,2-3.56,4.89,4.89,0,0,0-.78,2.6,10.11,10.11,0,0,1,2.47-2.9,6.38,6.38,0,0,0-1.13,2.12c1.06-.65,1.82-1.86,3-2.21L111,23.79a6,6,0,0,1,2.81-.71,6.09,6.09,0,0,0-1.24.65,3,3,0,0,1,2.69.29,5.86,5.86,0,0,0-1.45,0,5.79,5.79,0,0,1,2.77,1.17,5.53,5.53,0,0,0-1.27-.21,4.6,4.6,0,0,1,2,1.91,15.29,15.29,0,0,0-2.54-1.24c.37.53.73,1.06,1.06,1.56a7.76,7.76,0,0,0-3.44-1.71l1.51,1.16a7.52,7.52,0,0,0-4.11-.51l2,.68a6.46,6.46,0,0,0-4,1.12,5.06,5.06,0,0,1,2.19-.1,5.85,5.85,0,0,0-3.44,2.07,7,7,0,0,1,2.13-.71,13.67,13.67,0,0,0-2.77,3,7.11,7.11,0,0,1,1.83-1A12.52,12.52,0,0,0,105.52,34.93Z" fill="#66923e"/><path id="Path_10134" data-name="Path 10134" d="M105.39,35l-.11-.14a2.25,2.25,0,0,1-.37-1.69,4.31,4.31,0,0,1,.84-1.75.42.42,0,0,1-.21-.49,1.25,1.25,0,0,1,.3-.49l-.39-.21a6.66,6.66,0,0,1,1.36-1.54l-.54-.14a5,5,0,0,1,2-1.54,4.07,4.07,0,0,1-.42-.41,5.71,5.71,0,0,1,2.56-1.26,4.21,4.21,0,0,1-.84-.3,8.44,8.44,0,0,1,4.54.71.79.79,0,0,1,0-.43,10.87,10.87,0,0,1,2.92,1.06,2.7,2.7,0,0,1,.3.52,15.29,15.29,0,0,0-2.54-1.24c.37.53.73,1.06,1.06,1.56a7.76,7.76,0,0,0-3.42-1.72L114,26.69a7.52,7.52,0,0,0-4.11-.51l2,.68A6.45,6.45,0,0,0,107.78,28a4.91,4.91,0,0,1,2.19-.11A5.84,5.84,0,0,0,106.54,30a7.34,7.34,0,0,1,2.13-.72,13.11,13.11,0,0,0-2.8,2.91,7.65,7.65,0,0,1,1.83-1,12.57,12.57,0,0,0-2.12,3.69A.31.31,0,0,1,105.39,35Z" fill="#779a3f"/><path id="Path_10135" data-name="Path 10135" d="M105.47,36c0,.11-3.49-4.69,1.45-9.44a7.2,7.2,0,0,1,9.57-.65s-5.32-3.25-9.25.86a7.47,7.47,0,0,0-1.37,8.61S106.21,36,105.47,36Z" fill="#47652f"/><path id="Path_10136" data-name="Path 10136" d="M106.23,35.1c-.17,0-.47,0-.52-.12a9.42,9.42,0,0,1,0-5.61,6.81,6.81,0,0,0,.13,2.91,10,10,0,0,1,.4-2.37,4.23,4.23,0,0,1,1.42-2.06,4.1,4.1,0,0,0-.64,3A5.86,5.86,0,0,1,109.55,27a5.36,5.36,0,0,0-1.06,2.69,11.51,11.51,0,0,1,1.29-1.87,4.6,4.6,0,0,1,1.9-1.32,3.57,3.57,0,0,0-1.27,2.12,9,9,0,0,1,4-2.88A4,4,0,0,0,112.72,28a8.46,8.46,0,0,1,4.15-2.12,6.1,6.1,0,0,0-2.39,1.91,12.8,12.8,0,0,1,4.19-1.27,8.2,8.2,0,0,0-2.44,1.3c1.43,0,2.9-.71,4.26-.39l-2.13.74a6.62,6.62,0,0,1,3,.82,8.22,8.22,0,0,0-1.57-.07,2.89,2.89,0,0,1,2.3,1.64,6.11,6.11,0,0,0-1.37-.7,4.86,4.86,0,0,1,1.79,2.44,5.09,5.09,0,0,0-1.06-.84,4,4,0,0,1,.63,2.71,13.06,13.06,0,0,0-1.36-2.42v1.93a7.1,7.1,0,0,0-2.13-3.27l.64,1.8a7.36,7.36,0,0,0-3.46-2.56l1.39,1.63a7.37,7.37,0,0,0-4.46-1.06,5.11,5.11,0,0,1,2.12,1.06,7.32,7.32,0,0,0-4.51.06,8.86,8.86,0,0,1,2.39.45,16.47,16.47,0,0,0-4.49,1.14,9.41,9.41,0,0,1,2.31.08A17.86,17.86,0,0,0,106.23,35.1Z" fill="#a0ba3c"/><path id="Path_10137" data-name="Path 10137" d="M106,35.1v-.18a2.35,2.35,0,0,1,.76-1.67,6.57,6.57,0,0,1,1.91-1.12.41.41,0,0,1,.13-.52,1.47,1.47,0,0,1,.6-.26c-.08-.13-.15-.26-.24-.38a8.87,8.87,0,0,1,2.26-.65l-.42-.41a6.66,6.66,0,0,1,2.87-.33,2.74,2.74,0,0,0-.13-.55,6.63,6.63,0,0,1,3.19.19,3.54,3.54,0,0,1-.58-.7,8.45,8.45,0,0,1,3.74,3,1.3,1.3,0,0,1,.24-.41,9.43,9.43,0,0,1,2,2.45,2.08,2.08,0,0,1,0,.61,13.66,13.66,0,0,0-1.6-2.39v1.94a7.13,7.13,0,0,0-2.13-3.28l.64,1.8a7.3,7.3,0,0,0-3.46-2.54l1.4,1.61a7.4,7.4,0,0,0-4.47-1.06,5.3,5.3,0,0,1,2.12,1.06,7.28,7.28,0,0,0-4.52.08,8.13,8.13,0,0,1,2.39.43,16.84,16.84,0,0,0-4.49,1.14,8.61,8.61,0,0,1,2.32.1,15.52,15.52,0,0,0-4.37,2.12Z" fill="#b6be34"/><path id="Path_10138" data-name="Path 10138" d="M105.47,36s.16-6.16,7.45-7.56,9.22,4.26,9.22,4.26-2.84-5.61-9.11-4-6.83,6.87-6.83,6.87a.42.42,0,0,1-.33.52A.43.43,0,0,1,105.47,36Z" fill="#47652f"/><path id="Path_10139" data-name="Path 10139" d="M106.4,35.94c0-.11-.09-.33,0-.39a8.25,8.25,0,0,1,4.34-1.15,5.87,5.87,0,0,0-2.24.7,8.53,8.53,0,0,1,1.88-.21,2.84,2.84,0,0,1,1.77.59,3.34,3.34,0,0,0-2.37.16,4.3,4.3,0,0,1,3.3,1,4.09,4.09,0,0,0-2.22-.14,7.72,7.72,0,0,1,1.61.51,2.88,2.88,0,0,1,1.26,1.06A2.56,2.56,0,0,0,112,37.6a5.75,5.75,0,0,1,2.74,2.27,2.76,2.76,0,0,0-2-.75,5.38,5.38,0,0,1,2.19,2.5,4.24,4.24,0,0,0-1.79-1.31A8.28,8.28,0,0,1,114.64,43a5.18,5.18,0,0,0-1.32-1.44c.21,1,.93,1.91.84,2.94l-.84-1.33a4.79,4.79,0,0,1-.23,2.34,7,7,0,0,0-.15-1.12,2.37,2.37,0,0,1-1,2,5,5,0,0,0,.36-1.07,4.47,4.47,0,0,1-1.66,1.79,4.44,4.44,0,0,0,.51-.9,3,3,0,0,1-.63.49,3.27,3.27,0,0,1-1.39.53,10.41,10.41,0,0,0,1.65-1.6l-1.49.41a6.35,6.35,0,0,0,2.27-2.13l-1.3.84a6,6,0,0,0,1.52-3l-1.06,1.33a5.29,5.29,0,0,0,.26-3.4,4.31,4.31,0,0,1-.52,1.7,4.63,4.63,0,0,0-.64-3.19,5.9,5.9,0,0,1,0,1.78A11.56,11.56,0,0,0,108.4,37a6.64,6.64,0,0,1,.22,1.66A9.54,9.54,0,0,0,106.4,35.94Z" fill="#417d3c"/><path id="Path_10140" data-name="Path 10140" d="M106.36,35.81h.15a1.81,1.81,0,0,1,1.4.2A4,4,0,0,1,109,37.13a.35.35,0,0,1,.43,0,1,1,0,0,1,.28.37c.09-.09.18-.16.26-.25a5.85,5.85,0,0,1,.81,1.47l.25-.37a3.87,3.87,0,0,1,.62,1.95l.42-.21a4.55,4.55,0,0,1,.27,2.31,3.17,3.17,0,0,1,.47-.57A6.88,6.88,0,0,1,111,45.1a.8.8,0,0,1,.34.11,8.65,8.65,0,0,1-1.64,1.93,1.94,1.94,0,0,1-.48.09,12.48,12.48,0,0,0,1.65-1.6l-1.49.42a6.44,6.44,0,0,0,2.27-2.13l-1.3.83a6,6,0,0,0,1.52-3c-.36.44-.71.88-1.06,1.33a5.29,5.29,0,0,0,.26-3.4,4.22,4.22,0,0,1-.52,1.69,4.69,4.69,0,0,0-.64-3.19,5.9,5.9,0,0,1,0,1.78A10.52,10.52,0,0,0,108.43,37a6.16,6.16,0,0,1,.23,1.66A10,10,0,0,0,106.43,36,.25.25,0,0,1,106.36,35.81Z" fill="#66923e"/><path id="Path_10141" data-name="Path 10141" d="M105.59,35.61a6.19,6.19,0,0,1,4.66,11.19s4-3.19,1.89-7.31A6,6,0,0,0,106,36.08S105.36,36.17,105.59,35.61Z" fill="#47652f"/><path id="Path_10142" data-name="Path 10142" d="M104.65,35.78c.12-.08.32-.27.26-.41a10.2,10.2,0,0,0-3.57-4.26,7.55,7.55,0,0,1,1.76,2.29,10.37,10.37,0,0,0-1.75-1.49,3.63,3.63,0,0,0-2.21-.67,4.13,4.13,0,0,1,2.28,1.85,5.16,5.16,0,0,0-4.06-1.34,5,5,0,0,1,2.32,1.41,9.2,9.2,0,0,0-2-.62,3.68,3.68,0,0,0-2,.2,3.16,3.16,0,0,1,2.13.79,7.11,7.11,0,0,0-4.37.33,3.33,3.33,0,0,1,2.51.65,6.36,6.36,0,0,0-4,1,4.81,4.81,0,0,1,2.71,0,10.28,10.28,0,0,0-3.45,1.65,6.43,6.43,0,0,1,2.37-.52c-.92.87-2.28,1.27-2.94,2.34l1.81-.74A5.72,5.72,0,0,0,91,40.73,7.35,7.35,0,0,1,92,39.66a3,3,0,0,0-.42,2.69A5.58,5.58,0,0,1,92,41a5.5,5.5,0,0,0,.41,3,5.5,5.5,0,0,1,.12-1.28,3.17,3.17,0,0,0,.29,1,3.8,3.8,0,0,0,1.07,1.52,14.44,14.44,0,0,1-.54-2.77l1.22,1.46A7.78,7.78,0,0,1,93.8,40c.25.58.48,1.18.72,1.76a7.56,7.56,0,0,1,.59-4.09c0,.7.1,1.4.14,2.13a6.51,6.51,0,0,1,2.13-3.62,5,5,0,0,0-.7,2.13,5.87,5.87,0,0,1,2.91-2.76,7.46,7.46,0,0,0-1.24,1.81,13.6,13.6,0,0,1,3.57-1.94,7,7,0,0,0-1.36,1.41A12.1,12.1,0,0,1,104.65,35.78Z" fill="#417d3c"/><path id="Path_10143" data-name="Path 10143" d="M104.81,35.68l-.11-.15a2.22,2.22,0,0,0-1.53-.8,4.66,4.66,0,0,0-1.91.35.43.43,0,0,0-.42-.32,1.31,1.31,0,0,0-.54.17l-.1-.41a6.83,6.83,0,0,0-1.84.9v-.55a5,5,0,0,0-2,1.54c-.08-.18-.17-.34-.26-.52A5.52,5.52,0,0,0,94.17,38a4.55,4.55,0,0,0-.07-.9,8.53,8.53,0,0,0-.5,4.58.91.91,0,0,0-.42-.14,11.22,11.22,0,0,0,.25,3.11,3.51,3.51,0,0,0,.42.44,15.44,15.44,0,0,1-.53-2.79c.42.49.81,1,1.23,1.48A7.9,7.9,0,0,1,93.79,40l.72,1.75a7.43,7.43,0,0,1,.59-4.08c0,.69.09,1.4.15,2.12a6.5,6.5,0,0,1,2.11-3.65,5.28,5.28,0,0,0-.68,2.12,5.79,5.79,0,0,1,2.9-2.75,7.23,7.23,0,0,0-1.23,1.81,13.11,13.11,0,0,1,3.56-1.94,7.29,7.29,0,0,0-1.35,1.48,11.83,11.83,0,0,1,4.12-1.06Z" fill="#66923e"/><path id="Path_10144" data-name="Path 10144" d="M105.71,36a7.62,7.62,0,0,0-12.6,7.92s-1.73-6,3.25-8.7a7.45,7.45,0,0,1,8.66,1S105.54,36.74,105.71,36Z" fill="#47652f"/><path id="Path_10145" data-name="Path 10145" d="M104.9,35.1c.17,0,.46,0,.49-.15a9.34,9.34,0,0,0-.48-5.6,6.54,6.54,0,0,1,.1,2.92,10,10,0,0,0-.58-2.34,3.93,3.93,0,0,0-1.6-1.93,4,4,0,0,1,.92,2.95,5.81,5.81,0,0,0-2.83-3.63,5.3,5.3,0,0,1,1.21,2.59,11.81,11.81,0,0,0-1.4-1.75,4.66,4.66,0,0,0-2-1.17,3.49,3.49,0,0,1,1.43,2,9,9,0,0,0-4.25-2.55,3.93,3.93,0,0,1,1.88,2.13,8.34,8.34,0,0,0-4.26-1.78,6.15,6.15,0,0,1,2.56,1.72,12.79,12.79,0,0,0-4.26-.95,8.38,8.38,0,0,1,2.52,1.06c-1.41.09-2.92-.48-4.25-.05l2.13.58a6.32,6.32,0,0,0-3,1.07A9.11,9.11,0,0,1,90.79,30a2.89,2.89,0,0,0-2.13,1.8A7.57,7.57,0,0,1,90,31a5.06,5.06,0,0,0-1.59,2.57,5.51,5.51,0,0,1,1-.91,3,3,0,0,0-.36.91,3.49,3.49,0,0,0-.07,1.84A13.65,13.65,0,0,1,90.12,33c0,.64.11,1.28.15,1.93a6.89,6.89,0,0,1,1.78-3.47c-.17.61-.34,1.23-.5,1.84a7.2,7.2,0,0,1,3.25-2.8L93.54,32.2a7.43,7.43,0,0,1,4.37-1.44,5.63,5.63,0,0,0-2,1.15,7.4,7.4,0,0,1,4.51-.28,8.18,8.18,0,0,0-2.34.62,17.1,17.1,0,0,1,4.55.79,9.3,9.3,0,0,0-2.29.26A16.07,16.07,0,0,1,104.9,35.1Z" fill="#66923e"/><path id="Path_10146" data-name="Path 10146" d="M105.08,35.1a.54.54,0,0,0,0-.18,2.38,2.38,0,0,0-.88-1.62,6,6,0,0,0-2-.94.44.44,0,0,0-.17-.52,2,2,0,0,0-.61-.23l.19-.38a9,9,0,0,0-2.3-.49c.13-.15.26-.29.37-.44a6.32,6.32,0,0,0-2.87-.09c0-.19.07-.38.09-.58a6.93,6.93,0,0,0-3.19.45,4.7,4.7,0,0,0,.52-.74,8.21,8.21,0,0,0-3.49,3.24.87.87,0,0,0-.29-.37,10.05,10.05,0,0,0-1.8,2.58,2.12,2.12,0,0,0,.11.61A13.24,13.24,0,0,1,90.16,33c0,.64.11,1.28.15,1.93a7,7,0,0,1,1.81-3.41c-.17.6-.34,1.22-.5,1.84a7.09,7.09,0,0,1,3.25-2.8L93.6,32.25A7.4,7.4,0,0,1,98,30.82,5.39,5.39,0,0,0,96,32a7.33,7.33,0,0,1,4.51-.29,8.35,8.35,0,0,0-2.34.62,16.71,16.71,0,0,1,4.55.79,8.73,8.73,0,0,0-2.28.27,16,16,0,0,1,4.51,1.81Z" fill="#779a3f"/><path id="Path_10147" data-name="Path 10147" d="M105.71,36s-.64-6.14-8-7-8.86,5-8.86,5,2.4-5.82,8.77-4.67S105,35.75,105,35.75,105.08,36.46,105.71,36Z" fill="#47652f"/><path id="Path_10148" data-name="Path 10148" d="M105,36.17v-.33a7.14,7.14,0,0,0-3.83-.71,5.67,5.67,0,0,1,2,.46,7.59,7.59,0,0,0-1.65,0,2.55,2.55,0,0,0-1.5.63,2.9,2.9,0,0,1,2.13,0,3.67,3.67,0,0,0-2.79,1.06A3.5,3.5,0,0,1,101.2,37a7.81,7.81,0,0,0-1.35.55,2.58,2.58,0,0,0-1.06,1.06,2.28,2.28,0,0,1,1.5-.53,4.87,4.87,0,0,0-2.22,2.13,2.42,2.42,0,0,1,1.65-.77A4.59,4.59,0,0,0,98,41.77a3.52,3.52,0,0,1,1.41-1.35,6.83,6.83,0,0,0-1.14,2.46,4.2,4.2,0,0,1,1.06-1.34c-.1.87-.66,1.7-.53,2.58.21-.4.44-.8.64-1.2a4.09,4.09,0,0,0,.36,2,5.57,5.57,0,0,1,0-1,2.14,2.14,0,0,0,1,1.65,4.06,4.06,0,0,1-.39-.94,3.91,3.91,0,0,0,1.55,1.44,3.89,3.89,0,0,1-.51-.76,2.22,2.22,0,0,0,.57.39,2.7,2.7,0,0,0,1.24.36,11.67,11.67,0,0,1-1.54-1.27l1.32.25a5.46,5.46,0,0,1-2.12-1.72l1.19.63a5.25,5.25,0,0,1-1.47-2.48l1.06,1.07a4.6,4.6,0,0,1-.46-2.94,3.63,3.63,0,0,0,.56,1.45,4.11,4.11,0,0,1,.34-2.8,5.3,5.3,0,0,0,.14,1.54,9.49,9.49,0,0,1,1.06-2.65,5.44,5.44,0,0,0-.08,1.45A8.14,8.14,0,0,1,105,36.17Z" fill="#66923e"/><path id="Path_10149" data-name="Path 10149" d="M105,36h-.13a1.58,1.58,0,0,0-1.19.25,3.3,3.3,0,0,0-.87,1.06.32.32,0,0,0-.37,0,.91.91,0,0,0-.22.33l-.24-.19a4.35,4.35,0,0,0-.59,1.32,3.61,3.61,0,0,1-.25-.3,3.34,3.34,0,0,0-.4,1.75l-.38-.15a3.88,3.88,0,0,0-.07,2,3.73,3.73,0,0,0-.44-.45,5.94,5.94,0,0,0,1.79,2.67.79.79,0,0,0-.3.12A7.8,7.8,0,0,0,102.86,46a1.62,1.62,0,0,0,.44,0,11,11,0,0,1-1.54-1.26l1.33.24A5.4,5.4,0,0,1,101,43.23l1.18.63a5.41,5.41,0,0,1-1.49-2.38l1.07,1.07a4.52,4.52,0,0,1-.47-2.93,3.58,3.58,0,0,0,.56,1.44,4.12,4.12,0,0,1,.33-2.8,5.68,5.68,0,0,0,.15,1.54,9.8,9.8,0,0,1,1.06-2.65,6,6,0,0,0-.09,1.46A8.46,8.46,0,0,1,105,36.17.47.47,0,0,0,105,36Z" fill="#417d3c"/><path id="Path_10150" data-name="Path 10150" d="M105.64,35.76a5.37,5.37,0,0,0-3.29,10s-3.66-2.5-2.12-6.18a5.2,5.2,0,0,1,5.1-3.39S105.87,36.24,105.64,35.76Z" fill="#47652f"/></g><rect id="Rectangle_4395" data-name="Rectangle 4395" x="104.83" y="35.73" width="1.54" height="4.15" fill="#47652f"/></g><g id="Group_5088" data-name="Group 5088"><path id="Path_10183" data-name="Path 10183" d="M49.25,58.75a4.56,4.56,0,0,1-9.11,0c0-2.42,2-8,4.56-8S49.25,56.38,49.25,58.75Z" fill="#37b34a"/><path id="Path_10184" data-name="Path 10184" d="M45.16,50.75c1.63.91,2.82,5.19,2.82,6.91a4,4,0,0,1-7.83,1v.11a4.55,4.55,0,1,0,9.1,0h0C49.25,56.48,47.46,51.2,45.16,50.75Z" fill="#2e9c48"/><path id="Path_10185" data-name="Path 10185" d="M45.6,68.21H43.81l.55-9H45Z" fill="#70441c"/></g></g></g><g id="Group_6099" data-name="Group 6099"><g id="Group_5604" data-name="Group 5604"><g id="Group_5515" data-name="Group 5515"><g id="Group_5514" data-name="Group 5514"><g id="Group_5512" data-name="Group 5512"><g id="Group_5508" data-name="Group 5508"><g id="Group_5505" data-name="Group 5505"><g id="Group_5502" data-name="Group 5502"><g id="Group_5491" data-name="Group 5491"><g id="Group_5487" data-name="Group 5487"><path id="Rectangle_4552" data-name="Rectangle 4552" d="M104.89,30.53h39.69a6.33,6.33,0,0,1,6.34,6.33h0V116a6.36,6.36,0,0,1-6.34,6.35H104.89A6.36,6.36,0,0,1,98.55,116V36.88a6.34,6.34,0,0,1,6.34-6.35Z" fill="#1e1b1f"/><path id="Path_10634" data-name="Path 10634" d="M142.76,30.53H130.51v91.83h12.25a8.17,8.17,0,0,0,8.16-8.17h0V38.69a8.15,8.15,0,0,0-8.12-8.16h0Z" fill="#171417"/><path id="Path_10635" data-name="Path 10635" d="M323.45,114.19a8.16,8.16,0,0,1-8.16,8.17H279.23a8.16,8.16,0,0,1-8.16-8.17V38.69a8.15,8.15,0,0,1,8.14-8.16H315.3a8.15,8.15,0,0,1,8.16,8.14h0Z" fill="#1e1b1f"/><path id="Path_10636" data-name="Path 10636" d="M293.15,30.53h-14A8.16,8.16,0,0,0,271,38.67h0v75.5a8.16,8.16,0,0,0,8.17,8.16h14Z" fill="#171417"/><path id="Path_10642" data-name="Path 10642" d="M94.1,95.61c-13.91,0-18.92-3.13-18.92-14.7V58a9.32,9.32,0,0,1,6.26-9.12V0H341V48.88s6.26,2.4,6.26,9.12V80.86c0,11.58-5,14.7-18.92,14.7Z" fill="#ffca54"/><path id="Path_10644" data-name="Path 10644" d="M278.5,41.55a5.29,5.29,0,0,0,4.95,5.54l47.86.09a5.3,5.3,0,0,0,4.95-5.54V25.48a5.29,5.29,0,0,0-4.95-5.54L278.5,25.48c-2.73,0,0,.78,0,3.87Z" fill="#fff" stroke="#444545" stroke-miterlimit="10" stroke-width="1.97"/><path id="Path_10707" data-name="Path 10707" d="M151.64,41.54a5.31,5.31,0,0,1-4.95,5.54l-47.87.07a5.29,5.29,0,0,1-4.95-5.53V25.48a5.27,5.27,0,0,1,4.95-5.54l52.82,5.54c2.73,0,0,.78,0,3.87Z" fill="#fff" stroke="#444545" stroke-miterlimit="10" stroke-width="1.97"/><path id="Path_10645" data-name="Path 10645" d="M281.09,40a4.43,4.43,0,0,0,4.34,4.52h.09l48.06-18.9a4.43,4.43,0,0,0-4.35-4.52h-.08l-43.64,4.52a4.43,4.43,0,0,0-4.43,4.43V40Z" fill="#ddd"/><path id="Path_10706" data-name="Path 10706" d="M150.15,41.48A4.42,4.42,0,0,1,145.8,46h-.08l-48-18.9a4.43,4.43,0,0,1,4.35-4.5h.08l43.62,4.5a4.45,4.45,0,0,1,4.44,4.43s0,.06,0,.09Z" fill="#ddd"/><path id="Path_10654" data-name="Path 10654" d="M333.65,83.42c-10.55,5.21-171.08,3.32-212,2.83C103,86,87.29,82.46,75.18,72.7v8.24c0,11.55,5,14.67,18.93,14.67H328.43c13.91,0,18.93-3.12,18.93-14.67V72.75A41.85,41.85,0,0,1,333.65,83.42Z" fill="#444545"/><path id="Path_10656" data-name="Path 10656" d="M340.49,50.08s0,5-4.07,6.07-250.27,1.66-252.15,0-1.59-6.07-1.59-6.07Z" fill="#f5aa1c"/></g></g></g><path id="Path_10675" data-name="Path 10675" d="M147.8,23l139.57-.6v27H147.8Z" fill="#3c3c3c"/><path id="Path_10676" data-name="Path 10676" d="M157.36,27.94c2.7-.34,112.16-.8,115.89,0s-3.71,17.41-7,17.72-101.56.28-104.45,0S154.68,28.26,157.36,27.94Z" fill="#272727" stroke="#707071"/><g id="Group_5504" data-name="Group 5504"><path id="Path_10671" data-name="Path 10671" d="M176.35,32.46h76.34" fill="none" stroke="#fff" stroke-linecap="round"/><path id="Path_10672" data-name="Path 10672" d="M176.35,39.88h76.34" fill="none" stroke="#fff" stroke-linecap="round"/></g><path id="Path_10677" data-name="Path 10677" d="M122.72.44H99.54s64.65,15.31,115.38,15.31S321.47.22,325.33.44Z" fill="#f5aa25"/></g></g></g></g></g></g><rect y="0.15" width="416.35" height="167.7" fill="#fff" opacity="0.5"/><g id="Group_5619" data-name="Group 5619"><g id="Group_5514-2" data-name="Group 5514"><g id="Group_5512-2" data-name="Group 5512"><g id="Group_5508-2" data-name="Group 5508"><g id="Group_5505-2" data-name="Group 5505"><g id="Group_5502-2" data-name="Group 5502"><g id="Group_5491-2" data-name="Group 5491"><g id="Group_5487-2" data-name="Group 5487"><path d="M154.19,123.23H114.54a6.85,6.85,0,0,1-6.84-6.84V98.19a6.85,6.85,0,0,1,6.84-6.84h39.65A6.85,6.85,0,0,1,161,98.19v18.2A6.85,6.85,0,0,1,154.19,123.23ZM114.54,92.35a5.85,5.85,0,0,0-5.84,5.84v18.2a5.85,5.85,0,0,0,5.84,5.84h39.65a5.85,5.85,0,0,0,5.84-5.84V98.19a5.85,5.85,0,0,0-5.84-5.84Z" fill="#6c6c6c"/><path d="M152.37,123.23H139.63V91.35h12.74c4.3,0,8.66,1.11,8.66,3.25V120C161,122.09,156.57,123.23,152.37,123.23Zm-11.74-1h11.74c4.75,0,7.66-1.31,7.66-2.24V94.6c0-.94-2.91-2.25-7.66-2.25H140.63Z" fill="#6c6c6c"/><path d="M324.76,123.23h-36c-4.2,0-8.66-1.13-8.66-3.24V94.6c0-2.11,4.46-3.25,8.66-3.25h36c4.2,0,8.65,1.14,8.65,3.25V120C333.41,122.1,329,123.23,324.76,123.23Zm-36-30.88c-4.74,0-7.66,1.31-7.66,2.25V120c0,.94,2.92,2.24,7.66,2.24h36c4.74,0,7.65-1.3,7.65-2.24V94.6c0-.94-2.91-2.25-7.65-2.25Z" fill="#6c6c6c"/><path d="M303.18,123.23H288.73c-4.2,0-8.66-1.13-8.66-3.24V94.6c0-2.11,4.46-3.25,8.66-3.25h14.45ZM288.73,92.35c-4.74,0-7.66,1.31-7.66,2.25V120c0,.94,2.92,2.24,7.66,2.24h13.45V92.35Z" fill="#6c6c6c"/><path d="M337.76,96.5h-234c-5.11,0-8.77-.43-11.5-1.35a11.57,11.57,0,0,1-4-2.21c-.18-.16-.37-.33-.54-.51a9.53,9.53,0,0,1-2.08-3.19l-.21-.54a21.61,21.61,0,0,1-1-7.35V58.43A9.74,9.74,0,0,1,90.6,49l-1-46.21A11.39,11.39,0,0,1,89.85.4l.08-.4H349.51l.09.4a11.38,11.38,0,0,1,.27,2.35l1,46.24c1.31.62,6.26,3.35,6.26,9.44V81.32C357.16,92.81,352.44,96.5,337.76,96.5ZM90.75,1a9.39,9.39,0,0,0-.17,1.75l1,46.92-.34.12a8.76,8.76,0,0,0-5.92,8.62V81.35a20.54,20.54,0,0,0,1,7c.07.2.13.37.2.53a8.65,8.65,0,0,0,1.88,2.89,6.39,6.39,0,0,0,.48.44,10.47,10.47,0,0,0,3.7,2c2.63.88,6.18,1.29,11.18,1.29h234c14.1,0,18.4-3.31,18.4-14.18V58.43c0-6.28-5.69-8.55-5.93-8.64l-.31-.12L348.87,2.76A10.34,10.34,0,0,0,348.7,1Z" fill="#6c6c6c"/><path d="M340.83,48.63,293,48.55A6.32,6.32,0,0,1,287,42V29.81a4.45,4.45,0,0,0-.77-2.41,1.64,1.64,0,0,1-.29-1.73c.4-.71,1.27-.72,2-.72l52.79-5.58h.08A6.29,6.29,0,0,1,346.7,26V42.07A6.28,6.28,0,0,1,340.83,48.63ZM288.23,26.9a6,6,0,0,1,.76,2.91V42a4.31,4.31,0,0,0,4,4.54l47.75.08a4.31,4.31,0,0,0,4-4.53V25.93a4.33,4.33,0,0,0-4-4.58Z" fill="#6c6c6c"/><path d="M108.48,48.63A6.32,6.32,0,0,1,102.54,42V25.93a6.27,6.27,0,0,1,5.88-6.55h.16L161.29,25c.72,0,1.6,0,2,.72A1.66,1.66,0,0,1,163,27.4a4.35,4.35,0,0,0-.78,2.4V42a6.29,6.29,0,0,1-5.87,6.58Zm0-27.28a4.32,4.32,0,0,0-3.95,4.53V42.07a4.34,4.34,0,0,0,4,4.59l47.75-.09a4.3,4.3,0,0,0,4-4.53V29.8a6,6,0,0,1,.76-2.9Z" fill="#6c6c6c"/><path d="M295.11,45.46H295a5,5,0,0,1-4.92-5V30.59a5,5,0,0,1,4.92-5l43.55-4.5a5,5,0,0,1,5,5v.34Zm43.5-23.39-43.54,4.5a4,4,0,0,0-4,4v9.87a4,4,0,0,0,3.84,4l47.59-18.71a4,4,0,0,0-3.91-3.67Z" fill="#6c6c6c"/><path d="M155.24,46.94l-48.41-19v-.34a5,5,0,0,1,4.91-5l43.65,4.51a5,5,0,0,1,4.87,5v9.86a5,5,0,0,1-4.92,5Zm-47.4-19.72,47.59,18.71a4,4,0,0,0,3.83-4V32.07a4,4,0,0,0-3.93-4l-43.63-4.5A4,4,0,0,0,107.84,27.22Z" fill="#6c6c6c"/><path d="M337.88,96.51H103.77c-14.7,0-19.42-3.69-19.42-15.16V72.07l.81.66c11,8.9,25.69,13.16,46.1,13.43,60.36.78,201.82,2.07,211.63-2.77h0a40.86,40.86,0,0,0,13.52-10.53l.89-1v9.55C357.3,92.82,352.58,96.51,337.88,96.51ZM85.35,74.15v7.2c0,10.85,4.3,14.16,18.42,14.16H337.88c14.11,0,18.42-3.31,18.42-14.16V74.51a41.89,41.89,0,0,1-13,9.77c-10,4.94-151.65,3.66-212.08,2.88C111.1,86.9,96.48,82.76,85.35,74.15Z" fill="#6c6c6c"/><path d="M199.36,58.13c-45.8,0-104.64-.19-105.76-1.17-2-1.8-1.75-6.29-1.74-6.48l1,.07c0,.05-.27,4.09,1.34,5.6,5.63,1.35,246.21,1.31,251.55,0,3.66-1,3.69-5.39,3.69-5.58h1s0,5.36-4.44,6.55c-2.2.59-67,1-126.93,1Z" fill="#6c6c6c"/></g></g></g><path id="Path_10675-2" data-name="Path 10675" d="M157.42,23.46l139.41-.6v27H157.42Z" fill="none"/><path d="M223.64,46.84c-25.37,0-50.75-.07-52.28-.22-2.76-.26-5.69-10.93-5.75-15.7,0-.71,0-2.87,1.3-3h0c.87-.09,111.45-.94,116,0,.7.15,1.52.77,1.4,2.86C284,35.25,279,46.3,275.83,46.62,274.43,46.77,249,46.84,223.64,46.84Zm25-18.4c-34,0-81.11.39-81.58.45h0c-.12,0-.44.41-.42,2,.07,5.08,3.19,14.57,4.85,14.73,3,.29,101.48.29,104.27,0,2-.21,7.27-9.89,7.54-14.93,0-.76,0-1.7-.62-1.82C281.09,28.55,266.72,28.44,248.61,28.44Z" fill="#6c6c6c"/><g id="Group_5504-2" data-name="Group 5504"><path d="M262.21,33.41H185.93a.51.51,0,0,1-.5-.5.5.5,0,0,1,.5-.5h76.28a.5.5,0,0,1,.5.5A.5.5,0,0,1,262.21,33.41Z" fill="#6c6c6c"/><path d="M262.21,40.8H185.93a.5.5,0,0,1-.5-.5.51.51,0,0,1,.5-.5h76.28a.5.5,0,0,1,.5.5A.5.5,0,0,1,262.21,40.8Z" fill="#6c6c6c"/></g><path d="M330.77.5c-14,3-60.44,14.85-104.44,14.85-50.7,0-113.61-12-113.61-12L113.55.5Z" fill="none"/></g></g></g></g></g><g id="Group_5756" data-name="Group 5756"><g id="Group_5809" data-name="Group 5809"><rect id="Rectangle_4553" data-name="Rectangle 4553" x="147.92" y="57.01" width="121.72" height="49.82" rx="4.43" fill="#444545" stroke="#fff" stroke-miterlimit="10" stroke-width="2"/></g></g></g></g></g></g></svg>